%TF.GenerationSoftware,KiCad,Pcbnew,6.0.10+dfsg-1~bpo11+1*%
%TF.ProjectId,project,70726f6a-6563-4742-9e6b-696361645f70,rev?*%
%TF.SameCoordinates,Original*%
%TF.FileFunction,Drillmap*%
%TF.FilePolarity,Positive*%
%FSLAX45Y45*%
G04 Gerber Fmt 4.5, Leading zero omitted, Abs format (unit mm)*
%MOMM*%
%LPD*%
G01*
G04 APERTURE LIST*
%ADD10C,0.100000*%
%ADD11C,0.200000*%
%ADD12C,0.030000*%
%ADD13C,0.110000*%
%ADD14C,0.140000*%
G04 APERTURE END LIST*
D10*
X21101250Y-4828750D02*
X21101250Y-13378750D01*
X21101250Y-13378750D02*
X12551250Y-13378750D01*
X12551250Y-4828750D02*
X21101250Y-4828750D01*
X12551250Y-13378750D02*
X12551250Y-4828750D01*
D11*
D12*
X16766250Y-8733750D02*
X16796250Y-8763750D01*
X16796250Y-8733750D02*
X16766250Y-8763750D01*
X16991250Y-8948750D02*
X17021250Y-8978750D01*
X17021250Y-8948750D02*
X16991250Y-8978750D01*
X17116250Y-8743750D02*
X17146250Y-8773750D01*
X17146250Y-8743750D02*
X17116250Y-8773750D01*
X17148300Y-7828750D02*
X17178300Y-7858750D01*
X17178300Y-7828750D02*
X17148300Y-7858750D01*
X17311250Y-7648750D02*
X17341250Y-7678750D01*
X17341250Y-7648750D02*
X17311250Y-7678750D01*
X17311250Y-8128750D02*
X17341250Y-8158750D01*
X17341250Y-8128750D02*
X17311250Y-8158750D01*
X17331250Y-8948750D02*
X17361250Y-8978750D01*
X17361250Y-8948750D02*
X17331250Y-8978750D01*
X17451250Y-8188750D02*
X17481250Y-8218750D01*
X17481250Y-8188750D02*
X17451250Y-8218750D01*
X17466250Y-8733750D02*
X17496250Y-8763750D01*
X17496250Y-8733750D02*
X17466250Y-8763750D01*
X17531250Y-7805800D02*
X17561250Y-7835800D01*
X17561250Y-7805800D02*
X17531250Y-7835800D01*
X17591250Y-7688750D02*
X17621250Y-7718750D01*
X17621250Y-7688750D02*
X17591250Y-7718750D01*
X17671250Y-8948750D02*
X17701250Y-8978750D01*
X17701250Y-8948750D02*
X17671250Y-8978750D01*
X17816250Y-8743750D02*
X17846250Y-8773750D01*
X17846250Y-8743750D02*
X17816250Y-8773750D01*
X17871250Y-7948750D02*
X17901250Y-7978750D01*
X17901250Y-7948750D02*
X17871250Y-7978750D01*
X17911250Y-6708750D02*
X17941250Y-6738750D01*
X17941250Y-6708750D02*
X17911250Y-6738750D01*
X17911250Y-6788750D02*
X17941250Y-6818750D01*
X17941250Y-6788750D02*
X17911250Y-6818750D01*
X17911250Y-7108750D02*
X17941250Y-7138750D01*
X17941250Y-7108750D02*
X17911250Y-7138750D01*
X17931250Y-7688750D02*
X17961250Y-7718750D01*
X17961250Y-7688750D02*
X17931250Y-7718750D01*
X17991250Y-7108750D02*
X18021250Y-7138750D01*
X18021250Y-7108750D02*
X17991250Y-7138750D01*
X18031250Y-8948750D02*
X18061250Y-8978750D01*
X18061250Y-8948750D02*
X18031250Y-8978750D01*
X18041200Y-7478800D02*
X18071200Y-7508800D01*
X18071200Y-7478800D02*
X18041200Y-7508800D01*
X18071250Y-7108750D02*
X18101250Y-7138750D01*
X18101250Y-7108750D02*
X18071250Y-7138750D01*
X18126738Y-8913262D02*
X18156738Y-8943262D01*
X18156738Y-8913262D02*
X18126738Y-8943262D01*
X18187021Y-8036535D02*
X18217021Y-8066535D01*
X18217021Y-8036535D02*
X18187021Y-8066535D01*
X18291250Y-7948750D02*
X18321250Y-7978750D01*
X18321250Y-7948750D02*
X18291250Y-7978750D01*
X18364380Y-8081880D02*
X18394380Y-8111880D01*
X18394380Y-8081880D02*
X18364380Y-8111880D01*
X18371250Y-8968750D02*
X18401250Y-8998750D01*
X18401250Y-8968750D02*
X18371250Y-8998750D01*
X18441300Y-7311700D02*
X18471300Y-7341700D01*
X18471300Y-7311700D02*
X18441300Y-7341700D01*
X18471250Y-8913700D02*
X18501250Y-8943700D01*
X18501250Y-8913700D02*
X18471250Y-8943700D01*
X18487300Y-7468750D02*
X18517300Y-7498750D01*
X18517300Y-7468750D02*
X18487300Y-7498750D01*
X18540454Y-7396185D02*
X18570454Y-7426185D01*
X18570454Y-7396185D02*
X18540454Y-7426185D01*
X18611250Y-7988750D02*
X18641250Y-8018750D01*
X18641250Y-7988750D02*
X18611250Y-8018750D01*
X18731250Y-8948750D02*
X18761250Y-8978750D01*
X18761250Y-8948750D02*
X18731250Y-8978750D01*
X18771250Y-7448750D02*
X18801250Y-7478750D01*
X18801250Y-7448750D02*
X18771250Y-7478750D01*
X18811250Y-8188750D02*
X18841250Y-8218750D01*
X18841250Y-8188750D02*
X18811250Y-8218750D01*
X18831250Y-8877700D02*
X18861250Y-8907700D01*
X18861250Y-8877700D02*
X18831250Y-8907700D01*
X18991250Y-7948750D02*
X19021250Y-7978750D01*
X19021250Y-7948750D02*
X18991250Y-7978750D01*
X19091250Y-8948750D02*
X19121250Y-8978750D01*
X19121250Y-8948750D02*
X19091250Y-8978750D01*
X19181300Y-8845000D02*
X19211300Y-8875000D01*
X19211300Y-8845000D02*
X19181300Y-8875000D01*
X19211250Y-8348750D02*
X19241250Y-8378750D01*
X19241250Y-8348750D02*
X19211250Y-8378750D01*
X19211250Y-8428750D02*
X19241250Y-8458750D01*
X19241250Y-8428750D02*
X19211250Y-8458750D01*
X19331250Y-7948750D02*
X19361250Y-7978750D01*
X19361250Y-7948750D02*
X19331250Y-7978750D01*
X19411250Y-8288750D02*
X19441250Y-8318750D01*
X19441250Y-8288750D02*
X19411250Y-8318750D01*
X19411250Y-8488750D02*
X19441250Y-8518750D01*
X19441250Y-8488750D02*
X19411250Y-8518750D01*
X19471250Y-8848750D02*
X19501250Y-8878750D01*
X19501250Y-8848750D02*
X19471250Y-8878750D01*
X19491250Y-8648750D02*
X19521250Y-8678750D01*
X19521250Y-8648750D02*
X19491250Y-8678750D01*
D13*
X12773250Y-9441250D02*
G75*
G03*
X12773250Y-9441250I-55000J0D01*
G01*
X12773250Y-10457250D02*
G75*
G03*
X12773250Y-10457250I-55000J0D01*
G01*
X12773250Y-10965250D02*
G75*
G03*
X12773250Y-10965250I-55000J0D01*
G01*
X12777250Y-8512750D02*
G75*
G03*
X12777250Y-8512750I-55000J0D01*
G01*
X13281250Y-9695250D02*
G75*
G03*
X13281250Y-9695250I-55000J0D01*
G01*
X13285250Y-7242750D02*
G75*
G03*
X13285250Y-7242750I-55000J0D01*
G01*
X13285250Y-7750750D02*
G75*
G03*
X13285250Y-7750750I-55000J0D01*
G01*
X13285250Y-8766750D02*
G75*
G03*
X13285250Y-8766750I-55000J0D01*
G01*
X13473250Y-9441250D02*
G75*
G03*
X13473250Y-9441250I-55000J0D01*
G01*
X13473250Y-10457250D02*
G75*
G03*
X13473250Y-10457250I-55000J0D01*
G01*
X13473250Y-10965250D02*
G75*
G03*
X13473250Y-10965250I-55000J0D01*
G01*
X13477250Y-8512750D02*
G75*
G03*
X13477250Y-8512750I-55000J0D01*
G01*
X13981250Y-9695250D02*
G75*
G03*
X13981250Y-9695250I-55000J0D01*
G01*
X13985250Y-7242750D02*
G75*
G03*
X13985250Y-7242750I-55000J0D01*
G01*
X13985250Y-7750750D02*
G75*
G03*
X13985250Y-7750750I-55000J0D01*
G01*
X13985250Y-8766750D02*
G75*
G03*
X13985250Y-8766750I-55000J0D01*
G01*
X14173250Y-9441250D02*
G75*
G03*
X14173250Y-9441250I-55000J0D01*
G01*
X14173250Y-10457250D02*
G75*
G03*
X14173250Y-10457250I-55000J0D01*
G01*
X14173250Y-10965250D02*
G75*
G03*
X14173250Y-10965250I-55000J0D01*
G01*
X14177250Y-8512750D02*
G75*
G03*
X14177250Y-8512750I-55000J0D01*
G01*
X14681250Y-9695250D02*
G75*
G03*
X14681250Y-9695250I-55000J0D01*
G01*
X14685250Y-7242750D02*
G75*
G03*
X14685250Y-7242750I-55000J0D01*
G01*
X14685250Y-7750750D02*
G75*
G03*
X14685250Y-7750750I-55000J0D01*
G01*
X14685250Y-8766750D02*
G75*
G03*
X14685250Y-8766750I-55000J0D01*
G01*
X14873250Y-9441250D02*
G75*
G03*
X14873250Y-9441250I-55000J0D01*
G01*
X14873250Y-10457250D02*
G75*
G03*
X14873250Y-10457250I-55000J0D01*
G01*
X14873250Y-10965250D02*
G75*
G03*
X14873250Y-10965250I-55000J0D01*
G01*
X14877250Y-8512750D02*
G75*
G03*
X14877250Y-8512750I-55000J0D01*
G01*
X15381250Y-9695250D02*
G75*
G03*
X15381250Y-9695250I-55000J0D01*
G01*
X15385250Y-7242750D02*
G75*
G03*
X15385250Y-7242750I-55000J0D01*
G01*
X15385250Y-7750750D02*
G75*
G03*
X15385250Y-7750750I-55000J0D01*
G01*
X15385250Y-8766750D02*
G75*
G03*
X15385250Y-8766750I-55000J0D01*
G01*
X15573250Y-9441250D02*
G75*
G03*
X15573250Y-9441250I-55000J0D01*
G01*
X15573250Y-10457250D02*
G75*
G03*
X15573250Y-10457250I-55000J0D01*
G01*
X15573250Y-10965250D02*
G75*
G03*
X15573250Y-10965250I-55000J0D01*
G01*
X15577250Y-8512750D02*
G75*
G03*
X15577250Y-8512750I-55000J0D01*
G01*
X16081250Y-9695250D02*
G75*
G03*
X16081250Y-9695250I-55000J0D01*
G01*
X16085250Y-7242750D02*
G75*
G03*
X16085250Y-7242750I-55000J0D01*
G01*
X16085250Y-7750750D02*
G75*
G03*
X16085250Y-7750750I-55000J0D01*
G01*
X16085250Y-8766750D02*
G75*
G03*
X16085250Y-8766750I-55000J0D01*
G01*
X16273250Y-9441250D02*
G75*
G03*
X16273250Y-9441250I-55000J0D01*
G01*
X16273250Y-10457250D02*
G75*
G03*
X16273250Y-10457250I-55000J0D01*
G01*
X16273250Y-10965250D02*
G75*
G03*
X16273250Y-10965250I-55000J0D01*
G01*
X16781250Y-9695250D02*
G75*
G03*
X16781250Y-9695250I-55000J0D01*
G01*
X16973250Y-9441250D02*
G75*
G03*
X16973250Y-9441250I-55000J0D01*
G01*
X16973250Y-10457250D02*
G75*
G03*
X16973250Y-10457250I-55000J0D01*
G01*
X16973250Y-10965250D02*
G75*
G03*
X16973250Y-10965250I-55000J0D01*
G01*
X17481250Y-9695250D02*
G75*
G03*
X17481250Y-9695250I-55000J0D01*
G01*
X17673250Y-9441250D02*
G75*
G03*
X17673250Y-9441250I-55000J0D01*
G01*
X17673250Y-10457250D02*
G75*
G03*
X17673250Y-10457250I-55000J0D01*
G01*
X17673250Y-10965250D02*
G75*
G03*
X17673250Y-10965250I-55000J0D01*
G01*
X18181250Y-9695250D02*
G75*
G03*
X18181250Y-9695250I-55000J0D01*
G01*
X18373250Y-9441250D02*
G75*
G03*
X18373250Y-9441250I-55000J0D01*
G01*
X18373250Y-10457250D02*
G75*
G03*
X18373250Y-10457250I-55000J0D01*
G01*
X18373250Y-10965250D02*
G75*
G03*
X18373250Y-10965250I-55000J0D01*
G01*
X18881250Y-9695250D02*
G75*
G03*
X18881250Y-9695250I-55000J0D01*
G01*
X19073250Y-9441250D02*
G75*
G03*
X19073250Y-9441250I-55000J0D01*
G01*
X19073250Y-10457250D02*
G75*
G03*
X19073250Y-10457250I-55000J0D01*
G01*
X19073250Y-10965250D02*
G75*
G03*
X19073250Y-10965250I-55000J0D01*
G01*
X19581250Y-9695250D02*
G75*
G03*
X19581250Y-9695250I-55000J0D01*
G01*
D14*
X13202250Y-6111500D02*
X13202250Y-6251500D01*
X13132250Y-6181500D02*
X13272250Y-6181500D01*
X13302250Y-11956000D02*
X13302250Y-12096000D01*
X13232250Y-12026000D02*
X13372250Y-12026000D01*
X13710250Y-6111500D02*
X13710250Y-6251500D01*
X13640250Y-6181500D02*
X13780250Y-6181500D01*
X13810250Y-11956000D02*
X13810250Y-12096000D01*
X13740250Y-12026000D02*
X13880250Y-12026000D01*
X14218250Y-6111500D02*
X14218250Y-6251500D01*
X14148250Y-6181500D02*
X14288250Y-6181500D01*
X14318250Y-11956000D02*
X14318250Y-12096000D01*
X14248250Y-12026000D02*
X14388250Y-12026000D01*
X14726250Y-6111500D02*
X14726250Y-6251500D01*
X14656250Y-6181500D02*
X14796250Y-6181500D01*
X14826250Y-11956000D02*
X14826250Y-12096000D01*
X14756250Y-12026000D02*
X14896250Y-12026000D01*
X15234250Y-6111500D02*
X15234250Y-6251500D01*
X15164250Y-6181500D02*
X15304250Y-6181500D01*
X15334250Y-11956000D02*
X15334250Y-12096000D01*
X15264250Y-12026000D02*
X15404250Y-12026000D01*
X15742250Y-6111500D02*
X15742250Y-6251500D01*
X15672250Y-6181500D02*
X15812250Y-6181500D01*
X15842250Y-11956000D02*
X15842250Y-12096000D01*
X15772250Y-12026000D02*
X15912250Y-12026000D01*
X16250250Y-6111500D02*
X16250250Y-6251500D01*
X16180250Y-6181500D02*
X16320250Y-6181500D01*
X16350250Y-11956000D02*
X16350250Y-12096000D01*
X16280250Y-12026000D02*
X16420250Y-12026000D01*
X17202250Y-11956000D02*
X17202250Y-12096000D01*
X17132250Y-12026000D02*
X17272250Y-12026000D01*
X17710250Y-11956000D02*
X17710250Y-12096000D01*
X17640250Y-12026000D02*
X17780250Y-12026000D01*
X18218250Y-11956000D02*
X18218250Y-12096000D01*
X18148250Y-12026000D02*
X18288250Y-12026000D01*
X18726250Y-11956000D02*
X18726250Y-12096000D01*
X18656250Y-12026000D02*
X18796250Y-12026000D01*
X18764250Y-6111500D02*
X18764250Y-6251500D01*
X18694250Y-6181500D02*
X18834250Y-6181500D01*
X19234250Y-11956000D02*
X19234250Y-12096000D01*
X19164250Y-12026000D02*
X19304250Y-12026000D01*
X19526250Y-6111500D02*
X19526250Y-6251500D01*
X19456250Y-6181500D02*
X19596250Y-6181500D01*
X19742250Y-11956000D02*
X19742250Y-12096000D01*
X19672250Y-12026000D02*
X19812250Y-12026000D01*
X20250250Y-11956000D02*
X20250250Y-12096000D01*
X20180250Y-12026000D02*
X20320250Y-12026000D01*
X20288250Y-6111500D02*
X20288250Y-6251500D01*
X20218250Y-6181500D02*
X20358250Y-6181500D01*
D11*
X12803869Y-13694226D02*
X12803869Y-13494226D01*
X12851488Y-13494226D01*
X12880059Y-13503750D01*
X12899107Y-13522798D01*
X12908631Y-13541845D01*
X12918155Y-13579940D01*
X12918155Y-13608512D01*
X12908631Y-13646607D01*
X12899107Y-13665655D01*
X12880059Y-13684702D01*
X12851488Y-13694226D01*
X12803869Y-13694226D01*
X13003869Y-13694226D02*
X13003869Y-13560893D01*
X13003869Y-13598988D02*
X13013393Y-13579940D01*
X13022917Y-13570417D01*
X13041964Y-13560893D01*
X13061012Y-13560893D01*
X13127678Y-13694226D02*
X13127678Y-13560893D01*
X13127678Y-13494226D02*
X13118155Y-13503750D01*
X13127678Y-13513274D01*
X13137202Y-13503750D01*
X13127678Y-13494226D01*
X13127678Y-13513274D01*
X13251488Y-13694226D02*
X13232440Y-13684702D01*
X13222917Y-13665655D01*
X13222917Y-13494226D01*
X13356250Y-13694226D02*
X13337202Y-13684702D01*
X13327678Y-13665655D01*
X13327678Y-13494226D01*
X13584821Y-13694226D02*
X13584821Y-13494226D01*
X13651488Y-13637083D01*
X13718155Y-13494226D01*
X13718155Y-13694226D01*
X13899107Y-13694226D02*
X13899107Y-13589464D01*
X13889583Y-13570417D01*
X13870536Y-13560893D01*
X13832440Y-13560893D01*
X13813393Y-13570417D01*
X13899107Y-13684702D02*
X13880059Y-13694226D01*
X13832440Y-13694226D01*
X13813393Y-13684702D01*
X13803869Y-13665655D01*
X13803869Y-13646607D01*
X13813393Y-13627559D01*
X13832440Y-13618036D01*
X13880059Y-13618036D01*
X13899107Y-13608512D01*
X13994345Y-13560893D02*
X13994345Y-13760893D01*
X13994345Y-13570417D02*
X14013393Y-13560893D01*
X14051488Y-13560893D01*
X14070536Y-13570417D01*
X14080059Y-13579940D01*
X14089583Y-13598988D01*
X14089583Y-13656131D01*
X14080059Y-13675178D01*
X14070536Y-13684702D01*
X14051488Y-13694226D01*
X14013393Y-13694226D01*
X13994345Y-13684702D01*
X14175298Y-13675178D02*
X14184821Y-13684702D01*
X14175298Y-13694226D01*
X14165774Y-13684702D01*
X14175298Y-13675178D01*
X14175298Y-13694226D01*
X14175298Y-13570417D02*
X14184821Y-13579940D01*
X14175298Y-13589464D01*
X14165774Y-13579940D01*
X14175298Y-13570417D01*
X14175298Y-13589464D01*
D12*
X12516250Y-14008750D02*
X12546250Y-14038750D01*
X12546250Y-14008750D02*
X12516250Y-14038750D01*
D11*
X12841964Y-13914226D02*
X12861012Y-13914226D01*
X12880059Y-13923750D01*
X12889583Y-13933274D01*
X12899107Y-13952321D01*
X12908631Y-13990417D01*
X12908631Y-14038036D01*
X12899107Y-14076131D01*
X12889583Y-14095178D01*
X12880059Y-14104702D01*
X12861012Y-14114226D01*
X12841964Y-14114226D01*
X12822917Y-14104702D01*
X12813393Y-14095178D01*
X12803869Y-14076131D01*
X12794345Y-14038036D01*
X12794345Y-13990417D01*
X12803869Y-13952321D01*
X12813393Y-13933274D01*
X12822917Y-13923750D01*
X12841964Y-13914226D01*
X12994345Y-14095178D02*
X13003869Y-14104702D01*
X12994345Y-14114226D01*
X12984821Y-14104702D01*
X12994345Y-14095178D01*
X12994345Y-14114226D01*
X13070536Y-13914226D02*
X13194345Y-13914226D01*
X13127678Y-13990417D01*
X13156250Y-13990417D01*
X13175298Y-13999940D01*
X13184821Y-14009464D01*
X13194345Y-14028512D01*
X13194345Y-14076131D01*
X13184821Y-14095178D01*
X13175298Y-14104702D01*
X13156250Y-14114226D01*
X13099107Y-14114226D01*
X13080059Y-14104702D01*
X13070536Y-14095178D01*
X13318155Y-13914226D02*
X13337202Y-13914226D01*
X13356250Y-13923750D01*
X13365774Y-13933274D01*
X13375298Y-13952321D01*
X13384821Y-13990417D01*
X13384821Y-14038036D01*
X13375298Y-14076131D01*
X13365774Y-14095178D01*
X13356250Y-14104702D01*
X13337202Y-14114226D01*
X13318155Y-14114226D01*
X13299107Y-14104702D01*
X13289583Y-14095178D01*
X13280059Y-14076131D01*
X13270536Y-14038036D01*
X13270536Y-13990417D01*
X13280059Y-13952321D01*
X13289583Y-13933274D01*
X13299107Y-13923750D01*
X13318155Y-13914226D01*
X13508631Y-13914226D02*
X13527678Y-13914226D01*
X13546726Y-13923750D01*
X13556250Y-13933274D01*
X13565774Y-13952321D01*
X13575298Y-13990417D01*
X13575298Y-14038036D01*
X13565774Y-14076131D01*
X13556250Y-14095178D01*
X13546726Y-14104702D01*
X13527678Y-14114226D01*
X13508631Y-14114226D01*
X13489583Y-14104702D01*
X13480059Y-14095178D01*
X13470536Y-14076131D01*
X13461012Y-14038036D01*
X13461012Y-13990417D01*
X13470536Y-13952321D01*
X13480059Y-13933274D01*
X13489583Y-13923750D01*
X13508631Y-13914226D01*
X13661012Y-14114226D02*
X13661012Y-13980893D01*
X13661012Y-13999940D02*
X13670536Y-13990417D01*
X13689583Y-13980893D01*
X13718155Y-13980893D01*
X13737202Y-13990417D01*
X13746726Y-14009464D01*
X13746726Y-14114226D01*
X13746726Y-14009464D02*
X13756250Y-13990417D01*
X13775298Y-13980893D01*
X13803869Y-13980893D01*
X13822917Y-13990417D01*
X13832440Y-14009464D01*
X13832440Y-14114226D01*
X13927678Y-14114226D02*
X13927678Y-13980893D01*
X13927678Y-13999940D02*
X13937202Y-13990417D01*
X13956250Y-13980893D01*
X13984821Y-13980893D01*
X14003869Y-13990417D01*
X14013393Y-14009464D01*
X14013393Y-14114226D01*
X14013393Y-14009464D02*
X14022917Y-13990417D01*
X14041964Y-13980893D01*
X14070536Y-13980893D01*
X14089583Y-13990417D01*
X14099107Y-14009464D01*
X14099107Y-14114226D01*
X14489583Y-13904702D02*
X14318155Y-14161845D01*
X14746726Y-13914226D02*
X14765774Y-13914226D01*
X14784821Y-13923750D01*
X14794345Y-13933274D01*
X14803869Y-13952321D01*
X14813393Y-13990417D01*
X14813393Y-14038036D01*
X14803869Y-14076131D01*
X14794345Y-14095178D01*
X14784821Y-14104702D01*
X14765774Y-14114226D01*
X14746726Y-14114226D01*
X14727678Y-14104702D01*
X14718155Y-14095178D01*
X14708631Y-14076131D01*
X14699107Y-14038036D01*
X14699107Y-13990417D01*
X14708631Y-13952321D01*
X14718155Y-13933274D01*
X14727678Y-13923750D01*
X14746726Y-13914226D01*
X14899107Y-14095178D02*
X14908631Y-14104702D01*
X14899107Y-14114226D01*
X14889583Y-14104702D01*
X14899107Y-14095178D01*
X14899107Y-14114226D01*
X15032440Y-13914226D02*
X15051488Y-13914226D01*
X15070536Y-13923750D01*
X15080059Y-13933274D01*
X15089583Y-13952321D01*
X15099107Y-13990417D01*
X15099107Y-14038036D01*
X15089583Y-14076131D01*
X15080059Y-14095178D01*
X15070536Y-14104702D01*
X15051488Y-14114226D01*
X15032440Y-14114226D01*
X15013393Y-14104702D01*
X15003869Y-14095178D01*
X14994345Y-14076131D01*
X14984821Y-14038036D01*
X14984821Y-13990417D01*
X14994345Y-13952321D01*
X15003869Y-13933274D01*
X15013393Y-13923750D01*
X15032440Y-13914226D01*
X15289583Y-14114226D02*
X15175298Y-14114226D01*
X15232440Y-14114226D02*
X15232440Y-13914226D01*
X15213393Y-13942798D01*
X15194345Y-13961845D01*
X15175298Y-13971369D01*
X15480059Y-14114226D02*
X15365774Y-14114226D01*
X15422917Y-14114226D02*
X15422917Y-13914226D01*
X15403869Y-13942798D01*
X15384821Y-13961845D01*
X15365774Y-13971369D01*
X15594345Y-13999940D02*
X15575298Y-13990417D01*
X15565774Y-13980893D01*
X15556250Y-13961845D01*
X15556250Y-13952321D01*
X15565774Y-13933274D01*
X15575298Y-13923750D01*
X15594345Y-13914226D01*
X15632440Y-13914226D01*
X15651488Y-13923750D01*
X15661012Y-13933274D01*
X15670536Y-13952321D01*
X15670536Y-13961845D01*
X15661012Y-13980893D01*
X15651488Y-13990417D01*
X15632440Y-13999940D01*
X15594345Y-13999940D01*
X15575298Y-14009464D01*
X15565774Y-14018988D01*
X15556250Y-14038036D01*
X15556250Y-14076131D01*
X15565774Y-14095178D01*
X15575298Y-14104702D01*
X15594345Y-14114226D01*
X15632440Y-14114226D01*
X15651488Y-14104702D01*
X15661012Y-14095178D01*
X15670536Y-14076131D01*
X15670536Y-14038036D01*
X15661012Y-14018988D01*
X15651488Y-14009464D01*
X15632440Y-13999940D01*
X15746726Y-13914226D02*
X15746726Y-13952321D01*
X15822917Y-13914226D02*
X15822917Y-13952321D01*
X16118155Y-14190417D02*
X16108631Y-14180893D01*
X16089583Y-14152321D01*
X16080059Y-14133274D01*
X16070536Y-14104702D01*
X16061012Y-14057083D01*
X16061012Y-14018988D01*
X16070536Y-13971369D01*
X16080059Y-13942798D01*
X16089583Y-13923750D01*
X16108631Y-13895178D01*
X16118155Y-13885655D01*
X16280059Y-13980893D02*
X16280059Y-14114226D01*
X16232440Y-13904702D02*
X16184821Y-14047559D01*
X16308631Y-14047559D01*
X16470536Y-13914226D02*
X16432440Y-13914226D01*
X16413393Y-13923750D01*
X16403869Y-13933274D01*
X16384821Y-13961845D01*
X16375298Y-13999940D01*
X16375298Y-14076131D01*
X16384821Y-14095178D01*
X16394345Y-14104702D01*
X16413393Y-14114226D01*
X16451488Y-14114226D01*
X16470536Y-14104702D01*
X16480059Y-14095178D01*
X16489583Y-14076131D01*
X16489583Y-14028512D01*
X16480059Y-14009464D01*
X16470536Y-13999940D01*
X16451488Y-13990417D01*
X16413393Y-13990417D01*
X16394345Y-13999940D01*
X16384821Y-14009464D01*
X16375298Y-14028512D01*
X16727678Y-14114226D02*
X16727678Y-13914226D01*
X16813393Y-14114226D02*
X16813393Y-14009464D01*
X16803869Y-13990417D01*
X16784821Y-13980893D01*
X16756250Y-13980893D01*
X16737202Y-13990417D01*
X16727678Y-13999940D01*
X16937202Y-14114226D02*
X16918155Y-14104702D01*
X16908631Y-14095178D01*
X16899107Y-14076131D01*
X16899107Y-14018988D01*
X16908631Y-13999940D01*
X16918155Y-13990417D01*
X16937202Y-13980893D01*
X16965774Y-13980893D01*
X16984821Y-13990417D01*
X16994345Y-13999940D01*
X17003869Y-14018988D01*
X17003869Y-14076131D01*
X16994345Y-14095178D01*
X16984821Y-14104702D01*
X16965774Y-14114226D01*
X16937202Y-14114226D01*
X17118155Y-14114226D02*
X17099107Y-14104702D01*
X17089583Y-14085655D01*
X17089583Y-13914226D01*
X17270536Y-14104702D02*
X17251488Y-14114226D01*
X17213393Y-14114226D01*
X17194345Y-14104702D01*
X17184821Y-14085655D01*
X17184821Y-14009464D01*
X17194345Y-13990417D01*
X17213393Y-13980893D01*
X17251488Y-13980893D01*
X17270536Y-13990417D01*
X17280060Y-14009464D01*
X17280060Y-14028512D01*
X17184821Y-14047559D01*
X17356250Y-14104702D02*
X17375298Y-14114226D01*
X17413393Y-14114226D01*
X17432440Y-14104702D01*
X17441964Y-14085655D01*
X17441964Y-14076131D01*
X17432440Y-14057083D01*
X17413393Y-14047559D01*
X17384821Y-14047559D01*
X17365774Y-14038036D01*
X17356250Y-14018988D01*
X17356250Y-14009464D01*
X17365774Y-13990417D01*
X17384821Y-13980893D01*
X17413393Y-13980893D01*
X17432440Y-13990417D01*
X17508631Y-14190417D02*
X17518155Y-14180893D01*
X17537202Y-14152321D01*
X17546726Y-14133274D01*
X17556250Y-14104702D01*
X17565774Y-14057083D01*
X17565774Y-14018988D01*
X17556250Y-13971369D01*
X17546726Y-13942798D01*
X17537202Y-13923750D01*
X17518155Y-13895178D01*
X17508631Y-13885655D01*
D13*
X12546250Y-14287750D02*
G75*
G03*
X12546250Y-14287750I-55000J0D01*
G01*
D11*
X12908631Y-14378226D02*
X12794345Y-14378226D01*
X12851488Y-14378226D02*
X12851488Y-14178226D01*
X12832440Y-14206798D01*
X12813393Y-14225845D01*
X12794345Y-14235369D01*
X12994345Y-14359178D02*
X13003869Y-14368702D01*
X12994345Y-14378226D01*
X12984821Y-14368702D01*
X12994345Y-14359178D01*
X12994345Y-14378226D01*
X13194345Y-14378226D02*
X13080059Y-14378226D01*
X13137202Y-14378226D02*
X13137202Y-14178226D01*
X13118155Y-14206798D01*
X13099107Y-14225845D01*
X13080059Y-14235369D01*
X13318155Y-14178226D02*
X13337202Y-14178226D01*
X13356250Y-14187750D01*
X13365774Y-14197274D01*
X13375298Y-14216321D01*
X13384821Y-14254417D01*
X13384821Y-14302036D01*
X13375298Y-14340131D01*
X13365774Y-14359178D01*
X13356250Y-14368702D01*
X13337202Y-14378226D01*
X13318155Y-14378226D01*
X13299107Y-14368702D01*
X13289583Y-14359178D01*
X13280059Y-14340131D01*
X13270536Y-14302036D01*
X13270536Y-14254417D01*
X13280059Y-14216321D01*
X13289583Y-14197274D01*
X13299107Y-14187750D01*
X13318155Y-14178226D01*
X13508631Y-14178226D02*
X13527678Y-14178226D01*
X13546726Y-14187750D01*
X13556250Y-14197274D01*
X13565774Y-14216321D01*
X13575298Y-14254417D01*
X13575298Y-14302036D01*
X13565774Y-14340131D01*
X13556250Y-14359178D01*
X13546726Y-14368702D01*
X13527678Y-14378226D01*
X13508631Y-14378226D01*
X13489583Y-14368702D01*
X13480059Y-14359178D01*
X13470536Y-14340131D01*
X13461012Y-14302036D01*
X13461012Y-14254417D01*
X13470536Y-14216321D01*
X13480059Y-14197274D01*
X13489583Y-14187750D01*
X13508631Y-14178226D01*
X13661012Y-14378226D02*
X13661012Y-14244893D01*
X13661012Y-14263940D02*
X13670536Y-14254417D01*
X13689583Y-14244893D01*
X13718155Y-14244893D01*
X13737202Y-14254417D01*
X13746726Y-14273464D01*
X13746726Y-14378226D01*
X13746726Y-14273464D02*
X13756250Y-14254417D01*
X13775298Y-14244893D01*
X13803869Y-14244893D01*
X13822917Y-14254417D01*
X13832440Y-14273464D01*
X13832440Y-14378226D01*
X13927678Y-14378226D02*
X13927678Y-14244893D01*
X13927678Y-14263940D02*
X13937202Y-14254417D01*
X13956250Y-14244893D01*
X13984821Y-14244893D01*
X14003869Y-14254417D01*
X14013393Y-14273464D01*
X14013393Y-14378226D01*
X14013393Y-14273464D02*
X14022917Y-14254417D01*
X14041964Y-14244893D01*
X14070536Y-14244893D01*
X14089583Y-14254417D01*
X14099107Y-14273464D01*
X14099107Y-14378226D01*
X14489583Y-14168702D02*
X14318155Y-14425845D01*
X14746726Y-14178226D02*
X14765774Y-14178226D01*
X14784821Y-14187750D01*
X14794345Y-14197274D01*
X14803869Y-14216321D01*
X14813393Y-14254417D01*
X14813393Y-14302036D01*
X14803869Y-14340131D01*
X14794345Y-14359178D01*
X14784821Y-14368702D01*
X14765774Y-14378226D01*
X14746726Y-14378226D01*
X14727678Y-14368702D01*
X14718155Y-14359178D01*
X14708631Y-14340131D01*
X14699107Y-14302036D01*
X14699107Y-14254417D01*
X14708631Y-14216321D01*
X14718155Y-14197274D01*
X14727678Y-14187750D01*
X14746726Y-14178226D01*
X14899107Y-14359178D02*
X14908631Y-14368702D01*
X14899107Y-14378226D01*
X14889583Y-14368702D01*
X14899107Y-14359178D01*
X14899107Y-14378226D01*
X15032440Y-14178226D02*
X15051488Y-14178226D01*
X15070536Y-14187750D01*
X15080059Y-14197274D01*
X15089583Y-14216321D01*
X15099107Y-14254417D01*
X15099107Y-14302036D01*
X15089583Y-14340131D01*
X15080059Y-14359178D01*
X15070536Y-14368702D01*
X15051488Y-14378226D01*
X15032440Y-14378226D01*
X15013393Y-14368702D01*
X15003869Y-14359178D01*
X14994345Y-14340131D01*
X14984821Y-14302036D01*
X14984821Y-14254417D01*
X14994345Y-14216321D01*
X15003869Y-14197274D01*
X15013393Y-14187750D01*
X15032440Y-14178226D01*
X15270536Y-14244893D02*
X15270536Y-14378226D01*
X15222917Y-14168702D02*
X15175298Y-14311559D01*
X15299107Y-14311559D01*
X15356250Y-14178226D02*
X15480059Y-14178226D01*
X15413393Y-14254417D01*
X15441964Y-14254417D01*
X15461012Y-14263940D01*
X15470536Y-14273464D01*
X15480059Y-14292512D01*
X15480059Y-14340131D01*
X15470536Y-14359178D01*
X15461012Y-14368702D01*
X15441964Y-14378226D01*
X15384821Y-14378226D01*
X15365774Y-14368702D01*
X15356250Y-14359178D01*
X15546726Y-14178226D02*
X15670536Y-14178226D01*
X15603869Y-14254417D01*
X15632440Y-14254417D01*
X15651488Y-14263940D01*
X15661012Y-14273464D01*
X15670536Y-14292512D01*
X15670536Y-14340131D01*
X15661012Y-14359178D01*
X15651488Y-14368702D01*
X15632440Y-14378226D01*
X15575298Y-14378226D01*
X15556250Y-14368702D01*
X15546726Y-14359178D01*
X15746726Y-14178226D02*
X15746726Y-14216321D01*
X15822917Y-14178226D02*
X15822917Y-14216321D01*
X16118155Y-14454417D02*
X16108631Y-14444893D01*
X16089583Y-14416321D01*
X16080059Y-14397274D01*
X16070536Y-14368702D01*
X16061012Y-14321083D01*
X16061012Y-14282988D01*
X16070536Y-14235369D01*
X16080059Y-14206798D01*
X16089583Y-14187750D01*
X16108631Y-14159178D01*
X16118155Y-14149655D01*
X16280059Y-14178226D02*
X16241964Y-14178226D01*
X16222917Y-14187750D01*
X16213393Y-14197274D01*
X16194345Y-14225845D01*
X16184821Y-14263940D01*
X16184821Y-14340131D01*
X16194345Y-14359178D01*
X16203869Y-14368702D01*
X16222917Y-14378226D01*
X16261012Y-14378226D01*
X16280059Y-14368702D01*
X16289583Y-14359178D01*
X16299107Y-14340131D01*
X16299107Y-14292512D01*
X16289583Y-14273464D01*
X16280059Y-14263940D01*
X16261012Y-14254417D01*
X16222917Y-14254417D01*
X16203869Y-14263940D01*
X16194345Y-14273464D01*
X16184821Y-14292512D01*
X16422917Y-14178226D02*
X16441964Y-14178226D01*
X16461012Y-14187750D01*
X16470536Y-14197274D01*
X16480059Y-14216321D01*
X16489583Y-14254417D01*
X16489583Y-14302036D01*
X16480059Y-14340131D01*
X16470536Y-14359178D01*
X16461012Y-14368702D01*
X16441964Y-14378226D01*
X16422917Y-14378226D01*
X16403869Y-14368702D01*
X16394345Y-14359178D01*
X16384821Y-14340131D01*
X16375298Y-14302036D01*
X16375298Y-14254417D01*
X16384821Y-14216321D01*
X16394345Y-14197274D01*
X16403869Y-14187750D01*
X16422917Y-14178226D01*
X16727678Y-14378226D02*
X16727678Y-14178226D01*
X16813393Y-14378226D02*
X16813393Y-14273464D01*
X16803869Y-14254417D01*
X16784821Y-14244893D01*
X16756250Y-14244893D01*
X16737202Y-14254417D01*
X16727678Y-14263940D01*
X16937202Y-14378226D02*
X16918155Y-14368702D01*
X16908631Y-14359178D01*
X16899107Y-14340131D01*
X16899107Y-14282988D01*
X16908631Y-14263940D01*
X16918155Y-14254417D01*
X16937202Y-14244893D01*
X16965774Y-14244893D01*
X16984821Y-14254417D01*
X16994345Y-14263940D01*
X17003869Y-14282988D01*
X17003869Y-14340131D01*
X16994345Y-14359178D01*
X16984821Y-14368702D01*
X16965774Y-14378226D01*
X16937202Y-14378226D01*
X17118155Y-14378226D02*
X17099107Y-14368702D01*
X17089583Y-14349655D01*
X17089583Y-14178226D01*
X17270536Y-14368702D02*
X17251488Y-14378226D01*
X17213393Y-14378226D01*
X17194345Y-14368702D01*
X17184821Y-14349655D01*
X17184821Y-14273464D01*
X17194345Y-14254417D01*
X17213393Y-14244893D01*
X17251488Y-14244893D01*
X17270536Y-14254417D01*
X17280060Y-14273464D01*
X17280060Y-14292512D01*
X17184821Y-14311559D01*
X17356250Y-14368702D02*
X17375298Y-14378226D01*
X17413393Y-14378226D01*
X17432440Y-14368702D01*
X17441964Y-14349655D01*
X17441964Y-14340131D01*
X17432440Y-14321083D01*
X17413393Y-14311559D01*
X17384821Y-14311559D01*
X17365774Y-14302036D01*
X17356250Y-14282988D01*
X17356250Y-14273464D01*
X17365774Y-14254417D01*
X17384821Y-14244893D01*
X17413393Y-14244893D01*
X17432440Y-14254417D01*
X17508631Y-14454417D02*
X17518155Y-14444893D01*
X17537202Y-14416321D01*
X17546726Y-14397274D01*
X17556250Y-14368702D01*
X17565774Y-14321083D01*
X17565774Y-14282988D01*
X17556250Y-14235369D01*
X17546726Y-14206798D01*
X17537202Y-14187750D01*
X17518155Y-14159178D01*
X17508631Y-14149655D01*
D14*
X12476250Y-14481750D02*
X12476250Y-14621750D01*
X12406250Y-14551750D02*
X12546250Y-14551750D01*
D11*
X12908631Y-14642226D02*
X12794345Y-14642226D01*
X12851488Y-14642226D02*
X12851488Y-14442226D01*
X12832440Y-14470798D01*
X12813393Y-14489845D01*
X12794345Y-14499369D01*
X12994345Y-14623178D02*
X13003869Y-14632702D01*
X12994345Y-14642226D01*
X12984821Y-14632702D01*
X12994345Y-14623178D01*
X12994345Y-14642226D01*
X13175298Y-14508893D02*
X13175298Y-14642226D01*
X13127678Y-14432702D02*
X13080059Y-14575559D01*
X13203869Y-14575559D01*
X13318155Y-14442226D02*
X13337202Y-14442226D01*
X13356250Y-14451750D01*
X13365774Y-14461274D01*
X13375298Y-14480321D01*
X13384821Y-14518417D01*
X13384821Y-14566036D01*
X13375298Y-14604131D01*
X13365774Y-14623178D01*
X13356250Y-14632702D01*
X13337202Y-14642226D01*
X13318155Y-14642226D01*
X13299107Y-14632702D01*
X13289583Y-14623178D01*
X13280059Y-14604131D01*
X13270536Y-14566036D01*
X13270536Y-14518417D01*
X13280059Y-14480321D01*
X13289583Y-14461274D01*
X13299107Y-14451750D01*
X13318155Y-14442226D01*
X13508631Y-14442226D02*
X13527678Y-14442226D01*
X13546726Y-14451750D01*
X13556250Y-14461274D01*
X13565774Y-14480321D01*
X13575298Y-14518417D01*
X13575298Y-14566036D01*
X13565774Y-14604131D01*
X13556250Y-14623178D01*
X13546726Y-14632702D01*
X13527678Y-14642226D01*
X13508631Y-14642226D01*
X13489583Y-14632702D01*
X13480059Y-14623178D01*
X13470536Y-14604131D01*
X13461012Y-14566036D01*
X13461012Y-14518417D01*
X13470536Y-14480321D01*
X13480059Y-14461274D01*
X13489583Y-14451750D01*
X13508631Y-14442226D01*
X13661012Y-14642226D02*
X13661012Y-14508893D01*
X13661012Y-14527940D02*
X13670536Y-14518417D01*
X13689583Y-14508893D01*
X13718155Y-14508893D01*
X13737202Y-14518417D01*
X13746726Y-14537464D01*
X13746726Y-14642226D01*
X13746726Y-14537464D02*
X13756250Y-14518417D01*
X13775298Y-14508893D01*
X13803869Y-14508893D01*
X13822917Y-14518417D01*
X13832440Y-14537464D01*
X13832440Y-14642226D01*
X13927678Y-14642226D02*
X13927678Y-14508893D01*
X13927678Y-14527940D02*
X13937202Y-14518417D01*
X13956250Y-14508893D01*
X13984821Y-14508893D01*
X14003869Y-14518417D01*
X14013393Y-14537464D01*
X14013393Y-14642226D01*
X14013393Y-14537464D02*
X14022917Y-14518417D01*
X14041964Y-14508893D01*
X14070536Y-14508893D01*
X14089583Y-14518417D01*
X14099107Y-14537464D01*
X14099107Y-14642226D01*
X14489583Y-14432702D02*
X14318155Y-14689845D01*
X14746726Y-14442226D02*
X14765774Y-14442226D01*
X14784821Y-14451750D01*
X14794345Y-14461274D01*
X14803869Y-14480321D01*
X14813393Y-14518417D01*
X14813393Y-14566036D01*
X14803869Y-14604131D01*
X14794345Y-14623178D01*
X14784821Y-14632702D01*
X14765774Y-14642226D01*
X14746726Y-14642226D01*
X14727678Y-14632702D01*
X14718155Y-14623178D01*
X14708631Y-14604131D01*
X14699107Y-14566036D01*
X14699107Y-14518417D01*
X14708631Y-14480321D01*
X14718155Y-14461274D01*
X14727678Y-14451750D01*
X14746726Y-14442226D01*
X14899107Y-14623178D02*
X14908631Y-14632702D01*
X14899107Y-14642226D01*
X14889583Y-14632702D01*
X14899107Y-14623178D01*
X14899107Y-14642226D01*
X15032440Y-14442226D02*
X15051488Y-14442226D01*
X15070536Y-14451750D01*
X15080059Y-14461274D01*
X15089583Y-14480321D01*
X15099107Y-14518417D01*
X15099107Y-14566036D01*
X15089583Y-14604131D01*
X15080059Y-14623178D01*
X15070536Y-14632702D01*
X15051488Y-14642226D01*
X15032440Y-14642226D01*
X15013393Y-14632702D01*
X15003869Y-14623178D01*
X14994345Y-14604131D01*
X14984821Y-14566036D01*
X14984821Y-14518417D01*
X14994345Y-14480321D01*
X15003869Y-14461274D01*
X15013393Y-14451750D01*
X15032440Y-14442226D01*
X15280059Y-14442226D02*
X15184821Y-14442226D01*
X15175298Y-14537464D01*
X15184821Y-14527940D01*
X15203869Y-14518417D01*
X15251488Y-14518417D01*
X15270536Y-14527940D01*
X15280059Y-14537464D01*
X15289583Y-14556512D01*
X15289583Y-14604131D01*
X15280059Y-14623178D01*
X15270536Y-14632702D01*
X15251488Y-14642226D01*
X15203869Y-14642226D01*
X15184821Y-14632702D01*
X15175298Y-14623178D01*
X15470536Y-14442226D02*
X15375298Y-14442226D01*
X15365774Y-14537464D01*
X15375298Y-14527940D01*
X15394345Y-14518417D01*
X15441964Y-14518417D01*
X15461012Y-14527940D01*
X15470536Y-14537464D01*
X15480059Y-14556512D01*
X15480059Y-14604131D01*
X15470536Y-14623178D01*
X15461012Y-14632702D01*
X15441964Y-14642226D01*
X15394345Y-14642226D01*
X15375298Y-14632702D01*
X15365774Y-14623178D01*
X15670536Y-14642226D02*
X15556250Y-14642226D01*
X15613393Y-14642226D02*
X15613393Y-14442226D01*
X15594345Y-14470798D01*
X15575298Y-14489845D01*
X15556250Y-14499369D01*
X15746726Y-14442226D02*
X15746726Y-14480321D01*
X15822917Y-14442226D02*
X15822917Y-14480321D01*
X16118155Y-14718417D02*
X16108631Y-14708893D01*
X16089583Y-14680321D01*
X16080059Y-14661274D01*
X16070536Y-14632702D01*
X16061012Y-14585083D01*
X16061012Y-14546988D01*
X16070536Y-14499369D01*
X16080059Y-14470798D01*
X16089583Y-14451750D01*
X16108631Y-14423178D01*
X16118155Y-14413655D01*
X16184821Y-14461274D02*
X16194345Y-14451750D01*
X16213393Y-14442226D01*
X16261012Y-14442226D01*
X16280059Y-14451750D01*
X16289583Y-14461274D01*
X16299107Y-14480321D01*
X16299107Y-14499369D01*
X16289583Y-14527940D01*
X16175298Y-14642226D01*
X16299107Y-14642226D01*
X16470536Y-14508893D02*
X16470536Y-14642226D01*
X16422917Y-14432702D02*
X16375298Y-14575559D01*
X16499107Y-14575559D01*
X16727678Y-14642226D02*
X16727678Y-14442226D01*
X16813393Y-14642226D02*
X16813393Y-14537464D01*
X16803869Y-14518417D01*
X16784821Y-14508893D01*
X16756250Y-14508893D01*
X16737202Y-14518417D01*
X16727678Y-14527940D01*
X16937202Y-14642226D02*
X16918155Y-14632702D01*
X16908631Y-14623178D01*
X16899107Y-14604131D01*
X16899107Y-14546988D01*
X16908631Y-14527940D01*
X16918155Y-14518417D01*
X16937202Y-14508893D01*
X16965774Y-14508893D01*
X16984821Y-14518417D01*
X16994345Y-14527940D01*
X17003869Y-14546988D01*
X17003869Y-14604131D01*
X16994345Y-14623178D01*
X16984821Y-14632702D01*
X16965774Y-14642226D01*
X16937202Y-14642226D01*
X17118155Y-14642226D02*
X17099107Y-14632702D01*
X17089583Y-14613655D01*
X17089583Y-14442226D01*
X17270536Y-14632702D02*
X17251488Y-14642226D01*
X17213393Y-14642226D01*
X17194345Y-14632702D01*
X17184821Y-14613655D01*
X17184821Y-14537464D01*
X17194345Y-14518417D01*
X17213393Y-14508893D01*
X17251488Y-14508893D01*
X17270536Y-14518417D01*
X17280060Y-14537464D01*
X17280060Y-14556512D01*
X17184821Y-14575559D01*
X17356250Y-14632702D02*
X17375298Y-14642226D01*
X17413393Y-14642226D01*
X17432440Y-14632702D01*
X17441964Y-14613655D01*
X17441964Y-14604131D01*
X17432440Y-14585083D01*
X17413393Y-14575559D01*
X17384821Y-14575559D01*
X17365774Y-14566036D01*
X17356250Y-14546988D01*
X17356250Y-14537464D01*
X17365774Y-14518417D01*
X17384821Y-14508893D01*
X17413393Y-14508893D01*
X17432440Y-14518417D01*
X17508631Y-14718417D02*
X17518155Y-14708893D01*
X17537202Y-14680321D01*
X17546726Y-14661274D01*
X17556250Y-14632702D01*
X17565774Y-14585083D01*
X17565774Y-14546988D01*
X17556250Y-14499369D01*
X17546726Y-14470798D01*
X17537202Y-14451750D01*
X17518155Y-14423178D01*
X17508631Y-14413655D01*
M02*
