G04 #@! TF.GenerationSoftware,KiCad,Pcbnew,6.0.10+dfsg-1~bpo11+1*
G04 #@! TF.ProjectId,project,70726f6a-6563-4742-9e6b-696361645f70,rev?*
G04 #@! TF.SameCoordinates,Original*
G04 #@! TF.FileFunction,Paste,Top*
G04 #@! TF.FilePolarity,Positive*
%FSLAX46Y46*%
G04 Gerber Fmt 4.6, Leading zero omitted, Abs format (unit mm)*
%MOMM*%
%LPD*%
G01*
G04 APERTURE LIST*
G04 #@! TA.AperFunction,Profile*
%ADD10C,0.100000*%
G04 #@! TD*
%ADD11C,0.120000*%
%ADD12R,1.000000X1.000000*%
G04 APERTURE END LIST*
D10*
X125512500Y-133037500D02*
G75*
G03*
X126512500Y-134037500I1000000J0D01*
G01*
X211012500Y-49037500D02*
X211012500Y-133037500D01*
X210012500Y-134037500D02*
X126512500Y-134037500D01*
X126512500Y-48037500D02*
X210012500Y-48037500D01*
X210012500Y-134037500D02*
G75*
G03*
X211012500Y-133037500I0J1000000D01*
G01*
X211012500Y-49037500D02*
G75*
G03*
X210012500Y-48037500I-1000000J0D01*
G01*
X126512500Y-48037500D02*
G75*
G03*
X125512500Y-49037500I0J-1000000D01*
G01*
X125512500Y-133037500D02*
X125512500Y-49037500D01*
G36*
X203660075Y-73917072D02*
G01*
X203619864Y-74273958D01*
X203539947Y-74624097D01*
X203421329Y-74963087D01*
X203265503Y-75286665D01*
X203074427Y-75590761D01*
X202850504Y-75871551D01*
X202596551Y-76125504D01*
X202315761Y-76349427D01*
X202011665Y-76540503D01*
X201688087Y-76696329D01*
X201349097Y-76814947D01*
X200998958Y-76894864D01*
X200642072Y-76935075D01*
X200462500Y-76937500D01*
X200462500Y-75737500D01*
X200605369Y-75735072D01*
X200888199Y-75694408D01*
X201162363Y-75613906D01*
X201422280Y-75495206D01*
X201662659Y-75340724D01*
X201878605Y-75153605D01*
X202065724Y-74937659D01*
X202220206Y-74697280D01*
X202338906Y-74437363D01*
X202419408Y-74163199D01*
X202460072Y-73880369D01*
X202462500Y-73737500D01*
X203662500Y-73737500D01*
X203660075Y-73917072D01*
G37*
D11*
X203660075Y-73917072D02*
X203619864Y-74273958D01*
X203539947Y-74624097D01*
X203421329Y-74963087D01*
X203265503Y-75286665D01*
X203074427Y-75590761D01*
X202850504Y-75871551D01*
X202596551Y-76125504D01*
X202315761Y-76349427D01*
X202011665Y-76540503D01*
X201688087Y-76696329D01*
X201349097Y-76814947D01*
X200998958Y-76894864D01*
X200642072Y-76935075D01*
X200462500Y-76937500D01*
X200462500Y-75737500D01*
X200605369Y-75735072D01*
X200888199Y-75694408D01*
X201162363Y-75613906D01*
X201422280Y-75495206D01*
X201662659Y-75340724D01*
X201878605Y-75153605D01*
X202065724Y-74937659D01*
X202220206Y-74697280D01*
X202338906Y-74437363D01*
X202419408Y-74163199D01*
X202460072Y-73880369D01*
X202462500Y-73737500D01*
X203662500Y-73737500D01*
X203660075Y-73917072D01*
G36*
X200062500Y-71337500D02*
G01*
X199919631Y-71339928D01*
X199636801Y-71380592D01*
X199362637Y-71461094D01*
X199102720Y-71579794D01*
X198862341Y-71734276D01*
X198646395Y-71921395D01*
X198459276Y-72137341D01*
X198304794Y-72377720D01*
X198186094Y-72637637D01*
X198105592Y-72911801D01*
X198064928Y-73194631D01*
X198062500Y-73337500D01*
X196862500Y-73337500D01*
X196864925Y-73157928D01*
X196905136Y-72801042D01*
X196985053Y-72450903D01*
X197103671Y-72111913D01*
X197259497Y-71788335D01*
X197450573Y-71484239D01*
X197674496Y-71203449D01*
X197928449Y-70949496D01*
X198209239Y-70725573D01*
X198513335Y-70534497D01*
X198836913Y-70378671D01*
X199175903Y-70260053D01*
X199526042Y-70180136D01*
X199882928Y-70139925D01*
X200062500Y-70137500D01*
X200062500Y-71337500D01*
G37*
X200062500Y-71337500D02*
X199919631Y-71339928D01*
X199636801Y-71380592D01*
X199362637Y-71461094D01*
X199102720Y-71579794D01*
X198862341Y-71734276D01*
X198646395Y-71921395D01*
X198459276Y-72137341D01*
X198304794Y-72377720D01*
X198186094Y-72637637D01*
X198105592Y-72911801D01*
X198064928Y-73194631D01*
X198062500Y-73337500D01*
X196862500Y-73337500D01*
X196864925Y-73157928D01*
X196905136Y-72801042D01*
X196985053Y-72450903D01*
X197103671Y-72111913D01*
X197259497Y-71788335D01*
X197450573Y-71484239D01*
X197674496Y-71203449D01*
X197928449Y-70949496D01*
X198209239Y-70725573D01*
X198513335Y-70534497D01*
X198836913Y-70378671D01*
X199175903Y-70260053D01*
X199526042Y-70180136D01*
X199882928Y-70139925D01*
X200062500Y-70137500D01*
X200062500Y-71337500D01*
G36*
X200642067Y-70140017D02*
G01*
X200998942Y-70180227D01*
X201349072Y-70260142D01*
X201688052Y-70378756D01*
X202011620Y-70534579D01*
X202315707Y-70725649D01*
X202596489Y-70949565D01*
X202850435Y-71203511D01*
X203074351Y-71484293D01*
X203265421Y-71788380D01*
X203421244Y-72111948D01*
X203539858Y-72450928D01*
X203619773Y-72801058D01*
X203659983Y-73157933D01*
X203662500Y-73337500D01*
X202462500Y-73337500D01*
X202460072Y-73194631D01*
X202419408Y-72911801D01*
X202338906Y-72637637D01*
X202220206Y-72377720D01*
X202065724Y-72137341D01*
X201878605Y-71921395D01*
X201662659Y-71734276D01*
X201422280Y-71579794D01*
X201162363Y-71461094D01*
X200888199Y-71380592D01*
X200605369Y-71339928D01*
X200462500Y-71337500D01*
X200462500Y-70137500D01*
X200642067Y-70140017D01*
G37*
X200642067Y-70140017D02*
X200998942Y-70180227D01*
X201349072Y-70260142D01*
X201688052Y-70378756D01*
X202011620Y-70534579D01*
X202315707Y-70725649D01*
X202596489Y-70949565D01*
X202850435Y-71203511D01*
X203074351Y-71484293D01*
X203265421Y-71788380D01*
X203421244Y-72111948D01*
X203539858Y-72450928D01*
X203619773Y-72801058D01*
X203659983Y-73157933D01*
X203662500Y-73337500D01*
X202462500Y-73337500D01*
X202460072Y-73194631D01*
X202419408Y-72911801D01*
X202338906Y-72637637D01*
X202220206Y-72377720D01*
X202065724Y-72137341D01*
X201878605Y-71921395D01*
X201662659Y-71734276D01*
X201422280Y-71579794D01*
X201162363Y-71461094D01*
X200888199Y-71380592D01*
X200605369Y-71339928D01*
X200462500Y-71337500D01*
X200462500Y-70137500D01*
X200642067Y-70140017D01*
G36*
X198064928Y-73880369D02*
G01*
X198105592Y-74163199D01*
X198186094Y-74437363D01*
X198304794Y-74697280D01*
X198459276Y-74937659D01*
X198646395Y-75153605D01*
X198862341Y-75340724D01*
X199102720Y-75495206D01*
X199362637Y-75613906D01*
X199636801Y-75694408D01*
X199919631Y-75735072D01*
X200062500Y-75737500D01*
X200062500Y-76937500D01*
X199882928Y-76935075D01*
X199526042Y-76894864D01*
X199175903Y-76814947D01*
X198836913Y-76696329D01*
X198513335Y-76540503D01*
X198209239Y-76349427D01*
X197928449Y-76125504D01*
X197674496Y-75871551D01*
X197450573Y-75590761D01*
X197259497Y-75286665D01*
X197103671Y-74963087D01*
X196985053Y-74624097D01*
X196905136Y-74273958D01*
X196864925Y-73917072D01*
X196862500Y-73737500D01*
X198062500Y-73737500D01*
X198064928Y-73880369D01*
G37*
X198064928Y-73880369D02*
X198105592Y-74163199D01*
X198186094Y-74437363D01*
X198304794Y-74697280D01*
X198459276Y-74937659D01*
X198646395Y-75153605D01*
X198862341Y-75340724D01*
X199102720Y-75495206D01*
X199362637Y-75613906D01*
X199636801Y-75694408D01*
X199919631Y-75735072D01*
X200062500Y-75737500D01*
X200062500Y-76937500D01*
X199882928Y-76935075D01*
X199526042Y-76894864D01*
X199175903Y-76814947D01*
X198836913Y-76696329D01*
X198513335Y-76540503D01*
X198209239Y-76349427D01*
X197928449Y-76125504D01*
X197674496Y-75871551D01*
X197450573Y-75590761D01*
X197259497Y-75286665D01*
X197103671Y-74963087D01*
X196985053Y-74624097D01*
X196905136Y-74273958D01*
X196864925Y-73917072D01*
X196862500Y-73737500D01*
X198062500Y-73737500D01*
X198064928Y-73880369D01*
D12*
X139012500Y-91037500D03*
X141512500Y-91037500D03*
X147012500Y-91037500D03*
X149512500Y-91037500D03*
X153512500Y-91037500D03*
X151012500Y-91037500D03*
G36*
G01*
X192662500Y-88587500D02*
X192662500Y-89487500D01*
G75*
G02*
X192412500Y-89737500I-250000J0D01*
G01*
X191762500Y-89737500D01*
G75*
G02*
X191512500Y-89487500I0J250000D01*
G01*
X191512500Y-88587500D01*
G75*
G02*
X191762500Y-88337500I250000J0D01*
G01*
X192412500Y-88337500D01*
G75*
G02*
X192662500Y-88587500I0J-250000D01*
G01*
G37*
G36*
G01*
X190612500Y-88587500D02*
X190612500Y-89487500D01*
G75*
G02*
X190362500Y-89737500I-250000J0D01*
G01*
X189712500Y-89737500D01*
G75*
G02*
X189462500Y-89487500I0J250000D01*
G01*
X189462500Y-88587500D01*
G75*
G02*
X189712500Y-88337500I250000J0D01*
G01*
X190362500Y-88337500D01*
G75*
G02*
X190612500Y-88587500I0J-250000D01*
G01*
G37*
X161512500Y-91037500D03*
X159012500Y-91037500D03*
G36*
G01*
X178262500Y-67837500D02*
X178262500Y-67537500D01*
G75*
G02*
X178412500Y-67387500I150000J0D01*
G01*
X179437500Y-67387500D01*
G75*
G02*
X179587500Y-67537500I0J-150000D01*
G01*
X179587500Y-67837500D01*
G75*
G02*
X179437500Y-67987500I-150000J0D01*
G01*
X178412500Y-67987500D01*
G75*
G02*
X178262500Y-67837500I0J150000D01*
G01*
G37*
G36*
G01*
X178262500Y-68787500D02*
X178262500Y-68487500D01*
G75*
G02*
X178412500Y-68337500I150000J0D01*
G01*
X179437500Y-68337500D01*
G75*
G02*
X179587500Y-68487500I0J-150000D01*
G01*
X179587500Y-68787500D01*
G75*
G02*
X179437500Y-68937500I-150000J0D01*
G01*
X178412500Y-68937500D01*
G75*
G02*
X178262500Y-68787500I0J150000D01*
G01*
G37*
G36*
G01*
X178262500Y-69737500D02*
X178262500Y-69437500D01*
G75*
G02*
X178412500Y-69287500I150000J0D01*
G01*
X179437500Y-69287500D01*
G75*
G02*
X179587500Y-69437500I0J-150000D01*
G01*
X179587500Y-69737500D01*
G75*
G02*
X179437500Y-69887500I-150000J0D01*
G01*
X178412500Y-69887500D01*
G75*
G02*
X178262500Y-69737500I0J150000D01*
G01*
G37*
G36*
G01*
X180537500Y-69737500D02*
X180537500Y-69437500D01*
G75*
G02*
X180687500Y-69287500I150000J0D01*
G01*
X181712500Y-69287500D01*
G75*
G02*
X181862500Y-69437500I0J-150000D01*
G01*
X181862500Y-69737500D01*
G75*
G02*
X181712500Y-69887500I-150000J0D01*
G01*
X180687500Y-69887500D01*
G75*
G02*
X180537500Y-69737500I0J150000D01*
G01*
G37*
G36*
G01*
X180537500Y-68787500D02*
X180537500Y-68487500D01*
G75*
G02*
X180687500Y-68337500I150000J0D01*
G01*
X181712500Y-68337500D01*
G75*
G02*
X181862500Y-68487500I0J-150000D01*
G01*
X181862500Y-68787500D01*
G75*
G02*
X181712500Y-68937500I-150000J0D01*
G01*
X180687500Y-68937500D01*
G75*
G02*
X180537500Y-68787500I0J150000D01*
G01*
G37*
G36*
G01*
X180537500Y-67837500D02*
X180537500Y-67537500D01*
G75*
G02*
X180687500Y-67387500I150000J0D01*
G01*
X181712500Y-67387500D01*
G75*
G02*
X181862500Y-67537500I0J-150000D01*
G01*
X181862500Y-67837500D01*
G75*
G02*
X181712500Y-67987500I-150000J0D01*
G01*
X180687500Y-67987500D01*
G75*
G02*
X180537500Y-67837500I0J150000D01*
G01*
G37*
X163012500Y-91037500D03*
X165512500Y-91037500D03*
G36*
G01*
X185662500Y-87487500D02*
X185662500Y-86587500D01*
G75*
G02*
X185912500Y-86337500I250000J0D01*
G01*
X186612500Y-86337500D01*
G75*
G02*
X186862500Y-86587500I0J-250000D01*
G01*
X186862500Y-87487500D01*
G75*
G02*
X186612500Y-87737500I-250000J0D01*
G01*
X185912500Y-87737500D01*
G75*
G02*
X185662500Y-87487500I0J250000D01*
G01*
G37*
G36*
G01*
X187662500Y-87487500D02*
X187662500Y-86587500D01*
G75*
G02*
X187912500Y-86337500I250000J0D01*
G01*
X188612500Y-86337500D01*
G75*
G02*
X188862500Y-86587500I0J-250000D01*
G01*
X188862500Y-87487500D01*
G75*
G02*
X188612500Y-87737500I-250000J0D01*
G01*
X187912500Y-87737500D01*
G75*
G02*
X187662500Y-87487500I0J250000D01*
G01*
G37*
G36*
G01*
X161637500Y-85512500D02*
X161637500Y-84562500D01*
G75*
G02*
X161887500Y-84312500I250000J0D01*
G01*
X162562500Y-84312500D01*
G75*
G02*
X162812500Y-84562500I0J-250000D01*
G01*
X162812500Y-85512500D01*
G75*
G02*
X162562500Y-85762500I-250000J0D01*
G01*
X161887500Y-85762500D01*
G75*
G02*
X161637500Y-85512500I0J250000D01*
G01*
G37*
G36*
G01*
X163712500Y-85512500D02*
X163712500Y-84562500D01*
G75*
G02*
X163962500Y-84312500I250000J0D01*
G01*
X164637500Y-84312500D01*
G75*
G02*
X164887500Y-84562500I0J-250000D01*
G01*
X164887500Y-85512500D01*
G75*
G02*
X164637500Y-85762500I-250000J0D01*
G01*
X163962500Y-85762500D01*
G75*
G02*
X163712500Y-85512500I0J250000D01*
G01*
G37*
G36*
G01*
X169712500Y-84537500D02*
X169712500Y-85687500D01*
G75*
G02*
X169612500Y-85787500I-100000J0D01*
G01*
X169412500Y-85787500D01*
G75*
G02*
X169312500Y-85687500I0J100000D01*
G01*
X169312500Y-84537500D01*
G75*
G02*
X169412500Y-84437500I100000J0D01*
G01*
X169612500Y-84437500D01*
G75*
G02*
X169712500Y-84537500I0J-100000D01*
G01*
G37*
G36*
G01*
X170212500Y-82387500D02*
X170212500Y-83537500D01*
G75*
G02*
X170112500Y-83637500I-100000J0D01*
G01*
X169912500Y-83637500D01*
G75*
G02*
X169812500Y-83537500I0J100000D01*
G01*
X169812500Y-82387500D01*
G75*
G02*
X169912500Y-82287500I100000J0D01*
G01*
X170112500Y-82287500D01*
G75*
G02*
X170212500Y-82387500I0J-100000D01*
G01*
G37*
G36*
G01*
X170712500Y-84537500D02*
X170712500Y-85687500D01*
G75*
G02*
X170612500Y-85787500I-100000J0D01*
G01*
X170412500Y-85787500D01*
G75*
G02*
X170312500Y-85687500I0J100000D01*
G01*
X170312500Y-84537500D01*
G75*
G02*
X170412500Y-84437500I100000J0D01*
G01*
X170612500Y-84437500D01*
G75*
G02*
X170712500Y-84537500I0J-100000D01*
G01*
G37*
G36*
G01*
X171212500Y-82387500D02*
X171212500Y-83537500D01*
G75*
G02*
X171112500Y-83637500I-100000J0D01*
G01*
X170912500Y-83637500D01*
G75*
G02*
X170812500Y-83537500I0J100000D01*
G01*
X170812500Y-82387500D01*
G75*
G02*
X170912500Y-82287500I100000J0D01*
G01*
X171112500Y-82287500D01*
G75*
G02*
X171212500Y-82387500I0J-100000D01*
G01*
G37*
G36*
G01*
X171712500Y-84537500D02*
X171712500Y-85687500D01*
G75*
G02*
X171612500Y-85787500I-100000J0D01*
G01*
X171412500Y-85787500D01*
G75*
G02*
X171312500Y-85687500I0J100000D01*
G01*
X171312500Y-84537500D01*
G75*
G02*
X171412500Y-84437500I100000J0D01*
G01*
X171612500Y-84437500D01*
G75*
G02*
X171712500Y-84537500I0J-100000D01*
G01*
G37*
G36*
G01*
X172212500Y-82387500D02*
X172212500Y-83537500D01*
G75*
G02*
X172112500Y-83637500I-100000J0D01*
G01*
X171912500Y-83637500D01*
G75*
G02*
X171812500Y-83537500I0J100000D01*
G01*
X171812500Y-82387500D01*
G75*
G02*
X171912500Y-82287500I100000J0D01*
G01*
X172112500Y-82287500D01*
G75*
G02*
X172212500Y-82387500I0J-100000D01*
G01*
G37*
G36*
G01*
X172712500Y-84537500D02*
X172712500Y-85687500D01*
G75*
G02*
X172612500Y-85787500I-100000J0D01*
G01*
X172412500Y-85787500D01*
G75*
G02*
X172312500Y-85687500I0J100000D01*
G01*
X172312500Y-84537500D01*
G75*
G02*
X172412500Y-84437500I100000J0D01*
G01*
X172612500Y-84437500D01*
G75*
G02*
X172712500Y-84537500I0J-100000D01*
G01*
G37*
G36*
G01*
X173212500Y-82387500D02*
X173212500Y-83537500D01*
G75*
G02*
X173112500Y-83637500I-100000J0D01*
G01*
X172912500Y-83637500D01*
G75*
G02*
X172812500Y-83537500I0J100000D01*
G01*
X172812500Y-82387500D01*
G75*
G02*
X172912500Y-82287500I100000J0D01*
G01*
X173112500Y-82287500D01*
G75*
G02*
X173212500Y-82387500I0J-100000D01*
G01*
G37*
G36*
G01*
X173712500Y-84537500D02*
X173712500Y-85687500D01*
G75*
G02*
X173612500Y-85787500I-100000J0D01*
G01*
X173412500Y-85787500D01*
G75*
G02*
X173312500Y-85687500I0J100000D01*
G01*
X173312500Y-84537500D01*
G75*
G02*
X173412500Y-84437500I100000J0D01*
G01*
X173612500Y-84437500D01*
G75*
G02*
X173712500Y-84537500I0J-100000D01*
G01*
G37*
G36*
G01*
X174212500Y-82387500D02*
X174212500Y-83537500D01*
G75*
G02*
X174112500Y-83637500I-100000J0D01*
G01*
X173912500Y-83637500D01*
G75*
G02*
X173812500Y-83537500I0J100000D01*
G01*
X173812500Y-82387500D01*
G75*
G02*
X173912500Y-82287500I100000J0D01*
G01*
X174112500Y-82287500D01*
G75*
G02*
X174212500Y-82387500I0J-100000D01*
G01*
G37*
G36*
G01*
X174712500Y-84537500D02*
X174712500Y-85687500D01*
G75*
G02*
X174612500Y-85787500I-100000J0D01*
G01*
X174412500Y-85787500D01*
G75*
G02*
X174312500Y-85687500I0J100000D01*
G01*
X174312500Y-84537500D01*
G75*
G02*
X174412500Y-84437500I100000J0D01*
G01*
X174612500Y-84437500D01*
G75*
G02*
X174712500Y-84537500I0J-100000D01*
G01*
G37*
G36*
G01*
X175212500Y-82387500D02*
X175212500Y-83537500D01*
G75*
G02*
X175112500Y-83637500I-100000J0D01*
G01*
X174912500Y-83637500D01*
G75*
G02*
X174812500Y-83537500I0J100000D01*
G01*
X174812500Y-82387500D01*
G75*
G02*
X174912500Y-82287500I100000J0D01*
G01*
X175112500Y-82287500D01*
G75*
G02*
X175212500Y-82387500I0J-100000D01*
G01*
G37*
G36*
G01*
X175712500Y-84537500D02*
X175712500Y-85687500D01*
G75*
G02*
X175612500Y-85787500I-100000J0D01*
G01*
X175412500Y-85787500D01*
G75*
G02*
X175312500Y-85687500I0J100000D01*
G01*
X175312500Y-84537500D01*
G75*
G02*
X175412500Y-84437500I100000J0D01*
G01*
X175612500Y-84437500D01*
G75*
G02*
X175712500Y-84537500I0J-100000D01*
G01*
G37*
G36*
G01*
X176212500Y-82387500D02*
X176212500Y-83537500D01*
G75*
G02*
X176112500Y-83637500I-100000J0D01*
G01*
X175912500Y-83637500D01*
G75*
G02*
X175812500Y-83537500I0J100000D01*
G01*
X175812500Y-82387500D01*
G75*
G02*
X175912500Y-82287500I100000J0D01*
G01*
X176112500Y-82287500D01*
G75*
G02*
X176212500Y-82387500I0J-100000D01*
G01*
G37*
G36*
G01*
X176712500Y-84537500D02*
X176712500Y-85687500D01*
G75*
G02*
X176612500Y-85787500I-100000J0D01*
G01*
X176412500Y-85787500D01*
G75*
G02*
X176312500Y-85687500I0J100000D01*
G01*
X176312500Y-84537500D01*
G75*
G02*
X176412500Y-84437500I100000J0D01*
G01*
X176612500Y-84437500D01*
G75*
G02*
X176712500Y-84537500I0J-100000D01*
G01*
G37*
G36*
G01*
X177212500Y-82387500D02*
X177212500Y-83537500D01*
G75*
G02*
X177112500Y-83637500I-100000J0D01*
G01*
X176912500Y-83637500D01*
G75*
G02*
X176812500Y-83537500I0J100000D01*
G01*
X176812500Y-82387500D01*
G75*
G02*
X176912500Y-82287500I100000J0D01*
G01*
X177112500Y-82287500D01*
G75*
G02*
X177212500Y-82387500I0J-100000D01*
G01*
G37*
G36*
G01*
X177712500Y-84537500D02*
X177712500Y-85687500D01*
G75*
G02*
X177612500Y-85787500I-100000J0D01*
G01*
X177412500Y-85787500D01*
G75*
G02*
X177312500Y-85687500I0J100000D01*
G01*
X177312500Y-84537500D01*
G75*
G02*
X177412500Y-84437500I100000J0D01*
G01*
X177612500Y-84437500D01*
G75*
G02*
X177712500Y-84537500I0J-100000D01*
G01*
G37*
G36*
G01*
X178212500Y-82387500D02*
X178212500Y-83537500D01*
G75*
G02*
X178112500Y-83637500I-100000J0D01*
G01*
X177912500Y-83637500D01*
G75*
G02*
X177812500Y-83537500I0J100000D01*
G01*
X177812500Y-82387500D01*
G75*
G02*
X177912500Y-82287500I100000J0D01*
G01*
X178112500Y-82287500D01*
G75*
G02*
X178212500Y-82387500I0J-100000D01*
G01*
G37*
G36*
G01*
X178712500Y-84537500D02*
X178712500Y-85687500D01*
G75*
G02*
X178612500Y-85787500I-100000J0D01*
G01*
X178412500Y-85787500D01*
G75*
G02*
X178312500Y-85687500I0J100000D01*
G01*
X178312500Y-84537500D01*
G75*
G02*
X178412500Y-84437500I100000J0D01*
G01*
X178612500Y-84437500D01*
G75*
G02*
X178712500Y-84537500I0J-100000D01*
G01*
G37*
G36*
G01*
X179212500Y-82387500D02*
X179212500Y-83537500D01*
G75*
G02*
X179112500Y-83637500I-100000J0D01*
G01*
X178912500Y-83637500D01*
G75*
G02*
X178812500Y-83537500I0J100000D01*
G01*
X178812500Y-82387500D01*
G75*
G02*
X178912500Y-82287500I100000J0D01*
G01*
X179112500Y-82287500D01*
G75*
G02*
X179212500Y-82387500I0J-100000D01*
G01*
G37*
G36*
G01*
X179712500Y-84537500D02*
X179712500Y-85687500D01*
G75*
G02*
X179612500Y-85787500I-100000J0D01*
G01*
X179412500Y-85787500D01*
G75*
G02*
X179312500Y-85687500I0J100000D01*
G01*
X179312500Y-84537500D01*
G75*
G02*
X179412500Y-84437500I100000J0D01*
G01*
X179612500Y-84437500D01*
G75*
G02*
X179712500Y-84537500I0J-100000D01*
G01*
G37*
G36*
G01*
X180212500Y-82387500D02*
X180212500Y-83537500D01*
G75*
G02*
X180112500Y-83637500I-100000J0D01*
G01*
X179912500Y-83637500D01*
G75*
G02*
X179812500Y-83537500I0J100000D01*
G01*
X179812500Y-82387500D01*
G75*
G02*
X179912500Y-82287500I100000J0D01*
G01*
X180112500Y-82287500D01*
G75*
G02*
X180212500Y-82387500I0J-100000D01*
G01*
G37*
G36*
G01*
X180712500Y-84537500D02*
X180712500Y-85687500D01*
G75*
G02*
X180612500Y-85787500I-100000J0D01*
G01*
X180412500Y-85787500D01*
G75*
G02*
X180312500Y-85687500I0J100000D01*
G01*
X180312500Y-84537500D01*
G75*
G02*
X180412500Y-84437500I100000J0D01*
G01*
X180612500Y-84437500D01*
G75*
G02*
X180712500Y-84537500I0J-100000D01*
G01*
G37*
G36*
G01*
X181212500Y-82387500D02*
X181212500Y-83537500D01*
G75*
G02*
X181112500Y-83637500I-100000J0D01*
G01*
X180912500Y-83637500D01*
G75*
G02*
X180812500Y-83537500I0J100000D01*
G01*
X180812500Y-82387500D01*
G75*
G02*
X180912500Y-82287500I100000J0D01*
G01*
X181112500Y-82287500D01*
G75*
G02*
X181212500Y-82387500I0J-100000D01*
G01*
G37*
G36*
G01*
X169062500Y-83077500D02*
X169062500Y-84997500D01*
G75*
G02*
X168822500Y-85237500I-240000J0D01*
G01*
X166902500Y-85237500D01*
G75*
G02*
X166662500Y-84997500I0J240000D01*
G01*
X166662500Y-83077500D01*
G75*
G02*
X166902500Y-82837500I240000J0D01*
G01*
X168822500Y-82837500D01*
G75*
G02*
X169062500Y-83077500I0J-240000D01*
G01*
G37*
G36*
G01*
X183862500Y-83077500D02*
X183862500Y-84997500D01*
G75*
G02*
X183622500Y-85237500I-240000J0D01*
G01*
X181702500Y-85237500D01*
G75*
G02*
X181462500Y-84997500I0J240000D01*
G01*
X181462500Y-83077500D01*
G75*
G02*
X181702500Y-82837500I240000J0D01*
G01*
X183622500Y-82837500D01*
G75*
G02*
X183862500Y-83077500I0J-240000D01*
G01*
G37*
X145512500Y-91037500D03*
X143012500Y-91037500D03*
G36*
G01*
X185662500Y-89487500D02*
X185662500Y-88587500D01*
G75*
G02*
X185912500Y-88337500I250000J0D01*
G01*
X186612500Y-88337500D01*
G75*
G02*
X186862500Y-88587500I0J-250000D01*
G01*
X186862500Y-89487500D01*
G75*
G02*
X186612500Y-89737500I-250000J0D01*
G01*
X185912500Y-89737500D01*
G75*
G02*
X185662500Y-89487500I0J250000D01*
G01*
G37*
G36*
G01*
X187662500Y-89487500D02*
X187662500Y-88587500D01*
G75*
G02*
X187912500Y-88337500I250000J0D01*
G01*
X188612500Y-88337500D01*
G75*
G02*
X188862500Y-88587500I0J-250000D01*
G01*
X188862500Y-89487500D01*
G75*
G02*
X188612500Y-89737500I-250000J0D01*
G01*
X187912500Y-89737500D01*
G75*
G02*
X187662500Y-89487500I0J250000D01*
G01*
G37*
X131012500Y-91037500D03*
X133512500Y-91037500D03*
X129512500Y-91037500D03*
X127012500Y-91037500D03*
X178512500Y-91037500D03*
X176012500Y-91037500D03*
X185512500Y-91037500D03*
X183012500Y-91037500D03*
G36*
G01*
X192662500Y-86587500D02*
X192662500Y-87487500D01*
G75*
G02*
X192412500Y-87737500I-250000J0D01*
G01*
X191762500Y-87737500D01*
G75*
G02*
X191512500Y-87487500I0J250000D01*
G01*
X191512500Y-86587500D01*
G75*
G02*
X191762500Y-86337500I250000J0D01*
G01*
X192412500Y-86337500D01*
G75*
G02*
X192662500Y-86587500I0J-250000D01*
G01*
G37*
G36*
G01*
X190612500Y-86587500D02*
X190612500Y-87487500D01*
G75*
G02*
X190362500Y-87737500I-250000J0D01*
G01*
X189712500Y-87737500D01*
G75*
G02*
X189462500Y-87487500I0J250000D01*
G01*
X189462500Y-86587500D01*
G75*
G02*
X189712500Y-86337500I250000J0D01*
G01*
X190362500Y-86337500D01*
G75*
G02*
X190612500Y-86587500I0J-250000D01*
G01*
G37*
X173512500Y-91037500D03*
X171012500Y-91037500D03*
G36*
G01*
X181687500Y-70962500D02*
X181687500Y-71912500D01*
G75*
G02*
X181437500Y-72162500I-250000J0D01*
G01*
X180762500Y-72162500D01*
G75*
G02*
X180512500Y-71912500I0J250000D01*
G01*
X180512500Y-70962500D01*
G75*
G02*
X180762500Y-70712500I250000J0D01*
G01*
X181437500Y-70712500D01*
G75*
G02*
X181687500Y-70962500I0J-250000D01*
G01*
G37*
G36*
G01*
X179612500Y-70962500D02*
X179612500Y-71912500D01*
G75*
G02*
X179362500Y-72162500I-250000J0D01*
G01*
X178687500Y-72162500D01*
G75*
G02*
X178437500Y-71912500I0J250000D01*
G01*
X178437500Y-70962500D01*
G75*
G02*
X178687500Y-70712500I250000J0D01*
G01*
X179362500Y-70712500D01*
G75*
G02*
X179612500Y-70962500I0J-250000D01*
G01*
G37*
X155012500Y-91037500D03*
X157512500Y-91037500D03*
X169512500Y-91037500D03*
X167012500Y-91037500D03*
X192512500Y-91037500D03*
X190012500Y-91037500D03*
G36*
G01*
X178437500Y-88912500D02*
X178437500Y-87962500D01*
G75*
G02*
X178687500Y-87712500I250000J0D01*
G01*
X179362500Y-87712500D01*
G75*
G02*
X179612500Y-87962500I0J-250000D01*
G01*
X179612500Y-88912500D01*
G75*
G02*
X179362500Y-89162500I-250000J0D01*
G01*
X178687500Y-89162500D01*
G75*
G02*
X178437500Y-88912500I0J250000D01*
G01*
G37*
G36*
G01*
X180512500Y-88912500D02*
X180512500Y-87962500D01*
G75*
G02*
X180762500Y-87712500I250000J0D01*
G01*
X181437500Y-87712500D01*
G75*
G02*
X181687500Y-87962500I0J-250000D01*
G01*
X181687500Y-88912500D01*
G75*
G02*
X181437500Y-89162500I-250000J0D01*
G01*
X180762500Y-89162500D01*
G75*
G02*
X180512500Y-88912500I0J250000D01*
G01*
G37*
X137512500Y-91037500D03*
X135012500Y-91037500D03*
M02*
