G04 #@! TF.GenerationSoftware,KiCad,Pcbnew,6.0.10+dfsg-1~bpo11+1*
G04 #@! TF.ProjectId,project,70726f6a-6563-4742-9e6b-696361645f70,rev?*
G04 #@! TF.SameCoordinates,Original*
G04 #@! TF.FileFunction,Copper,L2,Bot*
G04 #@! TF.FilePolarity,Positive*
%FSLAX46Y46*%
G04 Gerber Fmt 4.6, Leading zero omitted, Abs format (unit mm)*
%MOMM*%
%LPD*%
G01*
G04 APERTURE LIST*
G04 #@! TA.AperFunction,Profile*
%ADD10C,0.100000*%
G04 #@! TD*
G04 #@! TA.AperFunction,ComponentPad*
%ADD11C,2.400000*%
G04 #@! TD*
G04 #@! TA.AperFunction,ComponentPad*
%ADD12O,2.080000X3.600000*%
G04 #@! TD*
G04 #@! TA.AperFunction,ComponentPad*
%ADD13O,2.100000X3.600000*%
G04 #@! TD*
G04 #@! TA.AperFunction,ComponentPad*
%ADD14C,5.000000*%
G04 #@! TD*
G04 #@! TA.AperFunction,ViaPad*
%ADD15C,0.700000*%
G04 #@! TD*
G04 #@! TA.AperFunction,Conductor*
%ADD16C,0.300000*%
G04 #@! TD*
G04 #@! TA.AperFunction,Conductor*
%ADD17C,2.000000*%
G04 #@! TD*
G04 #@! TA.AperFunction,Conductor*
%ADD18C,2.500000*%
G04 #@! TD*
G04 APERTURE END LIST*
D10*
X211012500Y-48287500D02*
X211012500Y-133787500D01*
X211012500Y-133787500D02*
X125512500Y-133787500D01*
X125512500Y-48287500D02*
X211012500Y-48287500D01*
X125512500Y-133787500D02*
X125512500Y-48287500D01*
D11*
X132302500Y-87667500D03*
X132302500Y-77507500D03*
X132302500Y-72427500D03*
X127222500Y-85127500D03*
X148182500Y-94412500D03*
X148182500Y-104572500D03*
X148182500Y-109652500D03*
X153262500Y-96952500D03*
G04 #@! TA.AperFunction,ComponentPad*
G36*
G01*
X131982500Y-121810001D02*
X131982500Y-118709999D01*
G75*
G02*
X132232499Y-118460000I249999J0D01*
G01*
X133812501Y-118460000D01*
G75*
G02*
X134062500Y-118709999I0J-249999D01*
G01*
X134062500Y-121810001D01*
G75*
G02*
X133812501Y-122060000I-249999J0D01*
G01*
X132232499Y-122060000D01*
G75*
G02*
X131982500Y-121810001I0J249999D01*
G01*
G37*
G04 #@! TD.AperFunction*
D12*
X138102500Y-120260000D03*
X143182500Y-120260000D03*
X148262500Y-120260000D03*
X153342500Y-120260000D03*
X158422500Y-120260000D03*
X163502500Y-120260000D03*
G04 #@! TA.AperFunction,ComponentPad*
G36*
G01*
X203932500Y-60265001D02*
X203932500Y-63364999D01*
G75*
G02*
X203682499Y-63615000I-250001J0D01*
G01*
X202082501Y-63615000D01*
G75*
G02*
X201832500Y-63364999I0J250001D01*
G01*
X201832500Y-60265001D01*
G75*
G02*
X202082501Y-60015000I250001J0D01*
G01*
X203682499Y-60015000D01*
G75*
G02*
X203932500Y-60265001I0J-250001D01*
G01*
G37*
G04 #@! TD.AperFunction*
D13*
X195262500Y-61815000D03*
X187642500Y-61815000D03*
D11*
X141182500Y-94412500D03*
X141182500Y-104572500D03*
X141182500Y-109652500D03*
X146262500Y-96952500D03*
X176182500Y-94412500D03*
X176182500Y-104572500D03*
X176182500Y-109652500D03*
X181262500Y-96952500D03*
X153302500Y-87667500D03*
X153302500Y-77507500D03*
X153302500Y-72427500D03*
X148222500Y-85127500D03*
X127182500Y-94412500D03*
X127182500Y-104572500D03*
X127182500Y-109652500D03*
X132262500Y-96952500D03*
X155182500Y-94412500D03*
X155182500Y-104572500D03*
X155182500Y-109652500D03*
X160262500Y-96952500D03*
G04 #@! TA.AperFunction,ComponentPad*
G36*
G01*
X163542500Y-60264999D02*
X163542500Y-63365001D01*
G75*
G02*
X163292501Y-63615000I-249999J0D01*
G01*
X161712499Y-63615000D01*
G75*
G02*
X161462500Y-63365001I0J249999D01*
G01*
X161462500Y-60264999D01*
G75*
G02*
X161712499Y-60015000I249999J0D01*
G01*
X163292501Y-60015000D01*
G75*
G02*
X163542500Y-60264999I0J-249999D01*
G01*
G37*
G04 #@! TD.AperFunction*
D12*
X157422500Y-61815000D03*
X152342500Y-61815000D03*
X147262500Y-61815000D03*
X142182500Y-61815000D03*
X137102500Y-61815000D03*
X132022500Y-61815000D03*
D11*
X169182500Y-94412500D03*
X169182500Y-104572500D03*
X169182500Y-109652500D03*
X174262500Y-96952500D03*
D14*
X198262500Y-72037500D03*
D11*
X146302500Y-87667500D03*
X146302500Y-77507500D03*
X146302500Y-72427500D03*
X141222500Y-85127500D03*
G04 #@! TA.AperFunction,ComponentPad*
G36*
G01*
X170982500Y-121810001D02*
X170982500Y-118709999D01*
G75*
G02*
X171232499Y-118460000I249999J0D01*
G01*
X172812501Y-118460000D01*
G75*
G02*
X173062500Y-118709999I0J-249999D01*
G01*
X173062500Y-121810001D01*
G75*
G02*
X172812501Y-122060000I-249999J0D01*
G01*
X171232499Y-122060000D01*
G75*
G02*
X170982500Y-121810001I0J249999D01*
G01*
G37*
G04 #@! TD.AperFunction*
D12*
X177102500Y-120260000D03*
X182182500Y-120260000D03*
X187262500Y-120260000D03*
X192342500Y-120260000D03*
X197422500Y-120260000D03*
X202502500Y-120260000D03*
D11*
X162182500Y-94412500D03*
X162182500Y-104572500D03*
X162182500Y-109652500D03*
X167262500Y-96952500D03*
X183182500Y-94412500D03*
X183182500Y-104572500D03*
X183182500Y-109652500D03*
X188262500Y-96952500D03*
X190182500Y-94412500D03*
X190182500Y-104572500D03*
X190182500Y-109652500D03*
X195262500Y-96952500D03*
X160302500Y-87667500D03*
X160302500Y-77507500D03*
X160302500Y-72427500D03*
X155222500Y-85127500D03*
X139302500Y-87667500D03*
X139302500Y-77507500D03*
X139302500Y-72427500D03*
X134222500Y-85127500D03*
X134182500Y-94412500D03*
X134182500Y-104572500D03*
X134182500Y-109652500D03*
X139262500Y-96952500D03*
D15*
X175262500Y-88237500D03*
X178462500Y-83237500D03*
X182262500Y-82637500D03*
X175862500Y-88837500D03*
X128862500Y-83037500D03*
X181062500Y-87437500D03*
X182262500Y-85437500D03*
X130462500Y-83037500D03*
X179262500Y-74037500D03*
X182062500Y-88437500D03*
X183062500Y-82637500D03*
X181062500Y-89437500D03*
X178462500Y-82037500D03*
X179462500Y-83237500D03*
X164262500Y-84037500D03*
X178462500Y-82637500D03*
X179462500Y-82637500D03*
X183062500Y-85437500D03*
X183862500Y-85437500D03*
X192862500Y-94237500D03*
X182062500Y-87437500D03*
X175262500Y-89437500D03*
X176462500Y-89437500D03*
X176462500Y-88237500D03*
X192862500Y-93437500D03*
X163662500Y-84037500D03*
X164862500Y-84037500D03*
X183862500Y-82637500D03*
X179462500Y-82037500D03*
X182062500Y-89437500D03*
X129662500Y-83037500D03*
X192862500Y-95037500D03*
X185862500Y-86237500D03*
X181462500Y-82037500D03*
X181467039Y-77439770D03*
X180063000Y-77842039D03*
X179866729Y-84185386D03*
X168862500Y-85837500D03*
X169937158Y-86752085D03*
X169662500Y-83837500D03*
X171362000Y-86037500D03*
X170682693Y-83848515D03*
X173862500Y-83837500D03*
X173631970Y-86037500D03*
X172562000Y-86967030D03*
X172862500Y-83837500D03*
X175517007Y-81879342D03*
X174062500Y-80638000D03*
X175031470Y-86806470D03*
X175158271Y-84185386D03*
X180913000Y-84187000D03*
X180662500Y-77037500D03*
X176212842Y-85998598D03*
X171682693Y-83848515D03*
D16*
X184362500Y-84737500D02*
X183372550Y-84737500D01*
X181467039Y-77439770D02*
X181462500Y-77444309D01*
X181462500Y-77444309D02*
X181462500Y-82037500D01*
X181462500Y-82827450D02*
X181462500Y-82037500D01*
X185862500Y-86237500D02*
X184362500Y-84737500D01*
X183372550Y-84737500D02*
X181462500Y-82827450D01*
X180462500Y-78241539D02*
X180462500Y-81340443D01*
X180462500Y-81340443D02*
X180262500Y-81540443D01*
X180262500Y-81540443D02*
X180262500Y-83789615D01*
X180262500Y-83789615D02*
X179866729Y-84185386D01*
X180063000Y-77842039D02*
X180462500Y-78241539D01*
D17*
X181262500Y-96952500D02*
X188262500Y-96952500D01*
X195262500Y-96952500D02*
X188262500Y-96952500D01*
X132262500Y-96952500D02*
X139262500Y-96952500D01*
X141222500Y-85127500D02*
X148222500Y-85127500D01*
X153262500Y-96952500D02*
X160262500Y-96952500D01*
X174262500Y-96952500D02*
X181262500Y-96952500D01*
X167262500Y-96952500D02*
X174262500Y-96952500D01*
X134222500Y-85127500D02*
X141222500Y-85127500D01*
X160262500Y-96952500D02*
X167262500Y-96952500D01*
X146262500Y-96952500D02*
X153262500Y-96952500D01*
X139262500Y-96952500D02*
X146262500Y-96952500D01*
X148222500Y-85127500D02*
X155222500Y-85127500D01*
X127222500Y-85127500D02*
X134222500Y-85127500D01*
D18*
X127182500Y-104572500D02*
X134182500Y-104572500D01*
D16*
X168862500Y-85837500D02*
X163837500Y-90862500D01*
X163837500Y-90862500D02*
X157959072Y-90862500D01*
X157784072Y-91037500D02*
X132612500Y-91037500D01*
X132612500Y-91037500D02*
X129762500Y-93887500D01*
X129762500Y-93887500D02*
X127707500Y-93887500D01*
X127707500Y-93887500D02*
X127182500Y-94412500D01*
X157959072Y-90862500D02*
X157784072Y-91037500D01*
X158373286Y-91862500D02*
X158198286Y-92037500D01*
X143762500Y-93887500D02*
X141707500Y-93887500D01*
X164837500Y-91862500D02*
X158373286Y-91862500D01*
X169937158Y-86762842D02*
X164837500Y-91862500D01*
X169937158Y-86752085D02*
X169937158Y-86762842D01*
X158198286Y-92037500D02*
X145612500Y-92037500D01*
X145612500Y-92037500D02*
X143762500Y-93887500D01*
X141707500Y-93887500D02*
X141182500Y-94412500D01*
X169562500Y-86137500D02*
X169562500Y-83937500D01*
X157991179Y-91537500D02*
X158166179Y-91362500D01*
X136762500Y-93887500D02*
X139112500Y-91537500D01*
X139112500Y-91537500D02*
X157991179Y-91537500D01*
X134182500Y-94412500D02*
X134707500Y-93887500D01*
X134707500Y-93887500D02*
X136762500Y-93887500D01*
X169562500Y-83937500D02*
X169662500Y-83837500D01*
X164337500Y-91362500D02*
X169562500Y-86137500D01*
X158166179Y-91362500D02*
X164337500Y-91362500D01*
X157762500Y-93887500D02*
X155707500Y-93887500D01*
X158787500Y-92862500D02*
X157762500Y-93887500D01*
X155707500Y-93887500D02*
X155182500Y-94412500D01*
X167262500Y-91451712D02*
X165851712Y-92862500D01*
X167262500Y-91437500D02*
X167262500Y-91451712D01*
X171362000Y-86037500D02*
X171362000Y-87338000D01*
X171362000Y-87338000D02*
X167262500Y-91437500D01*
X165851712Y-92862500D02*
X158787500Y-92862500D01*
X165337500Y-92362500D02*
X170662500Y-87037500D01*
X148182500Y-94412500D02*
X148707500Y-93887500D01*
X148707500Y-93887500D02*
X150762500Y-93887500D01*
X170662500Y-83868708D02*
X170682693Y-83848515D01*
X170662500Y-87037500D02*
X170662500Y-83868708D01*
X158580393Y-92362500D02*
X165337500Y-92362500D01*
X150762500Y-93887500D02*
X152112500Y-92537500D01*
X158405393Y-92537500D02*
X158580393Y-92362500D01*
X152112500Y-92537500D02*
X158405393Y-92537500D01*
X176862500Y-92337500D02*
X174331970Y-89806970D01*
X174331970Y-89806970D02*
X174331970Y-85506970D01*
X173862500Y-85037500D02*
X173862500Y-83837500D01*
X190182500Y-94412500D02*
X188107500Y-92337500D01*
X174331970Y-85506970D02*
X173862500Y-85037500D01*
X188107500Y-92337500D02*
X176862500Y-92337500D01*
X181662500Y-92837500D02*
X175862500Y-92837500D01*
X173831970Y-86237500D02*
X173631970Y-86037500D01*
X183182500Y-94412500D02*
X183182500Y-94357500D01*
X173831970Y-90806970D02*
X173831970Y-86237500D01*
X175862500Y-92837500D02*
X173831970Y-90806970D01*
X183182500Y-94357500D02*
X181662500Y-92837500D01*
X172562000Y-86967030D02*
X172562000Y-88327244D01*
X169182500Y-91706744D02*
X169182500Y-94412500D01*
X172562000Y-88327244D02*
X169182500Y-91706744D01*
X173331970Y-86727450D02*
X172932470Y-86327950D01*
X176182500Y-94412500D02*
X173331970Y-91561970D01*
X172932470Y-84391185D02*
X172862500Y-84321215D01*
X172932470Y-86327950D02*
X172932470Y-84391185D01*
X173331970Y-91561970D02*
X173331970Y-86727450D01*
X172862500Y-84321215D02*
X172862500Y-83837500D01*
X175517007Y-81879342D02*
X175058849Y-82337500D01*
X141672500Y-90037500D02*
X139302500Y-87667500D01*
X169465444Y-82337500D02*
X168062500Y-83740444D01*
X168062500Y-83740444D02*
X168062500Y-84837500D01*
X168062500Y-84837500D02*
X163037500Y-89862500D01*
X175058849Y-82337500D02*
X169465444Y-82337500D01*
X157369858Y-90037500D02*
X141672500Y-90037500D01*
X163037500Y-89862500D02*
X157544858Y-89862500D01*
X157544858Y-89862500D02*
X157369858Y-90037500D01*
X166262500Y-84137500D02*
X164362500Y-86037500D01*
X166262500Y-83419125D02*
X166262500Y-84137500D01*
X168844124Y-80837500D02*
X166262500Y-83419125D01*
X158752500Y-87025468D02*
X158752500Y-87547500D01*
X174062500Y-80638000D02*
X173863000Y-80837500D01*
X158752500Y-87547500D02*
X158262500Y-88037500D01*
X164362500Y-86037500D02*
X159740468Y-86037500D01*
X173863000Y-80837500D02*
X168844124Y-80837500D01*
X159740468Y-86037500D02*
X158752500Y-87025468D01*
X158262500Y-88037500D02*
X153672500Y-88037500D01*
X153672500Y-88037500D02*
X153302500Y-87667500D01*
X176762500Y-83385451D02*
X176762500Y-81390443D01*
X169051231Y-81337500D02*
X166762500Y-83626231D01*
X174362500Y-81337500D02*
X169051231Y-81337500D01*
X175031470Y-86806470D02*
X175462500Y-87237500D01*
X175062500Y-80637500D02*
X174362500Y-81337500D01*
X176858271Y-83481222D02*
X176762500Y-83385451D01*
X176762500Y-81390443D02*
X176009557Y-80637500D01*
X176009557Y-80637500D02*
X175062500Y-80637500D01*
X177562500Y-86537500D02*
X177562500Y-85430393D01*
X176862500Y-87237500D02*
X177562500Y-86537500D01*
X177562500Y-85430393D02*
X176858271Y-84726164D01*
X166762500Y-83626231D02*
X166762500Y-84483947D01*
X176858271Y-84726164D02*
X176858271Y-83481222D01*
X163578947Y-87667500D02*
X160302500Y-87667500D01*
X175462500Y-87237500D02*
X176862500Y-87237500D01*
X166762500Y-84483947D02*
X163578947Y-87667500D01*
X177062500Y-86237500D02*
X176601402Y-86698598D01*
X167262500Y-83833338D02*
X169258337Y-81837500D01*
X162737500Y-89362500D02*
X167262500Y-84837500D01*
X146302500Y-87667500D02*
X148172500Y-89537500D01*
X175923598Y-86698598D02*
X175158271Y-85933271D01*
X167262500Y-84837500D02*
X167262500Y-83833338D01*
X175158271Y-85933271D02*
X175158271Y-84185386D01*
X177062500Y-85637500D02*
X177062500Y-86237500D01*
X157162751Y-89537500D02*
X157337751Y-89362500D01*
X176601402Y-86698598D02*
X175923598Y-86698598D01*
X176262500Y-81597550D02*
X176262500Y-83592558D01*
X176358271Y-83688329D02*
X176358271Y-84933271D01*
X148172500Y-89537500D02*
X157162751Y-89537500D01*
X176262500Y-83592558D02*
X176358271Y-83688329D01*
X157337751Y-89362500D02*
X162737500Y-89362500D01*
X174569606Y-81837500D02*
X175269606Y-81137500D01*
X176358271Y-84933271D02*
X177062500Y-85637500D01*
X169258337Y-81837500D02*
X174569606Y-81837500D01*
X175802450Y-81137500D02*
X176262500Y-81597550D01*
X175269606Y-81137500D02*
X175802450Y-81137500D01*
D17*
X133022500Y-115297500D02*
X133022500Y-120260000D01*
X127182500Y-109652500D02*
X127377500Y-109652500D01*
X127377500Y-109652500D02*
X133022500Y-115297500D01*
X138102500Y-113572500D02*
X138102500Y-120260000D01*
X134182500Y-109652500D02*
X138102500Y-113572500D01*
X143182500Y-111652500D02*
X143182500Y-120260000D01*
X141182500Y-109652500D02*
X143182500Y-111652500D01*
X148182500Y-120180000D02*
X148262500Y-120260000D01*
X148182500Y-109652500D02*
X148182500Y-120180000D01*
X153342500Y-111492500D02*
X153342500Y-120260000D01*
X155182500Y-109652500D02*
X153342500Y-111492500D01*
X177102500Y-117572500D02*
X177102500Y-120260000D01*
X169182500Y-109652500D02*
X177102500Y-117572500D01*
X182182500Y-115652500D02*
X182182500Y-120260000D01*
X176182500Y-109652500D02*
X182182500Y-115652500D01*
X183182500Y-109652500D02*
X187262500Y-113732500D01*
X187262500Y-113732500D02*
X187262500Y-120260000D01*
X192342500Y-111812500D02*
X192342500Y-120260000D01*
X190182500Y-109652500D02*
X192342500Y-111812500D01*
X162262500Y-62055000D02*
X162502500Y-61815000D01*
X160302500Y-72427500D02*
X162262500Y-70467500D01*
X162262500Y-70467500D02*
X162262500Y-62055000D01*
X157262500Y-68467500D02*
X157262500Y-61975000D01*
X157262500Y-61975000D02*
X157422500Y-61815000D01*
X153302500Y-72427500D02*
X157262500Y-68467500D01*
X152262500Y-61895000D02*
X152342500Y-61815000D01*
X152262500Y-66467500D02*
X152262500Y-61895000D01*
X146302500Y-72427500D02*
X152262500Y-66467500D01*
X147262500Y-65527803D02*
X147262500Y-61815000D01*
X139302500Y-72427500D02*
X140362803Y-72427500D01*
X140362803Y-72427500D02*
X147262500Y-65527803D01*
D16*
X181062500Y-84037500D02*
X181062500Y-83134557D01*
X180767039Y-77142039D02*
X180662500Y-77037500D01*
X181062500Y-83134557D02*
X180762500Y-82834557D01*
X180962500Y-77925181D02*
X180767039Y-77729720D01*
X180767039Y-77729720D02*
X180767039Y-77142039D01*
X180962500Y-81547550D02*
X180962500Y-77925181D01*
X180762500Y-82834557D02*
X180762500Y-81747550D01*
X180762500Y-81747550D02*
X180962500Y-81547550D01*
X180913000Y-84187000D02*
X181062500Y-84037500D01*
D17*
X132302500Y-72427500D02*
X136502500Y-68227500D01*
X138762500Y-68227500D02*
X142182500Y-64807500D01*
X142182500Y-64807500D02*
X142182500Y-61815000D01*
X136502500Y-68227500D02*
X138762500Y-68227500D01*
D16*
X157751965Y-90362500D02*
X157576965Y-90537500D01*
X176212842Y-85998598D02*
X175858271Y-85644027D01*
X169672550Y-82837500D02*
X168562500Y-83947550D01*
X157576965Y-90537500D02*
X135172500Y-90537500D01*
X174800335Y-82837500D02*
X169672550Y-82837500D01*
X168562500Y-83947550D02*
X168562500Y-85137500D01*
X175858271Y-83895436D02*
X174800335Y-82837500D01*
X168562500Y-85137500D02*
X163337500Y-90362500D01*
X163337500Y-90362500D02*
X157751965Y-90362500D01*
X135172500Y-90537500D02*
X132302500Y-87667500D01*
X175858271Y-85644027D02*
X175858271Y-83895436D01*
D17*
X162182500Y-109652500D02*
X162182500Y-110420000D01*
X162182500Y-110420000D02*
X172022500Y-120260000D01*
D16*
X162182500Y-94412500D02*
X165487500Y-94412500D01*
X172062000Y-84227822D02*
X171682693Y-83848515D01*
X172062000Y-86327450D02*
X172062000Y-84227822D01*
X165487500Y-94412500D02*
X171862500Y-88037500D01*
X171862500Y-88037500D02*
X171862500Y-86526950D01*
X171862500Y-86526950D02*
X172062000Y-86327450D01*
G04 #@! TA.AperFunction,Conductor*
G36*
X173091294Y-72864090D02*
G01*
X173178430Y-72907061D01*
X173242488Y-72980106D01*
X173258719Y-73023229D01*
X173262500Y-73028887D01*
X173262500Y-73037500D01*
X182636915Y-73037500D01*
X182732203Y-73056454D01*
X182812985Y-73110430D01*
X182866961Y-73191212D01*
X182879408Y-73229949D01*
X182894551Y-73294895D01*
X182895077Y-73296858D01*
X182926319Y-73413453D01*
X182936835Y-73452701D01*
X182984431Y-73609602D01*
X182985089Y-73611540D01*
X183011554Y-73689502D01*
X183015899Y-73702303D01*
X183016619Y-73704215D01*
X183016624Y-73704230D01*
X183037471Y-73759618D01*
X183073655Y-73855757D01*
X183074443Y-73857660D01*
X183074448Y-73857672D01*
X183135379Y-74004771D01*
X183135392Y-74004802D01*
X183136172Y-74006684D01*
X183203830Y-74156008D01*
X183204724Y-74157821D01*
X183204734Y-74157842D01*
X183246248Y-74242025D01*
X183246265Y-74242058D01*
X183247124Y-74243800D01*
X183248042Y-74245517D01*
X183248051Y-74245535D01*
X183292412Y-74328528D01*
X183324413Y-74388398D01*
X183406101Y-74529886D01*
X183492673Y-74669106D01*
X183547056Y-74750497D01*
X183642565Y-74883781D01*
X183742019Y-75013392D01*
X183846028Y-75140127D01*
X183937591Y-75244535D01*
X183992670Y-75305305D01*
X184048544Y-75364960D01*
X184105547Y-75423859D01*
X195684070Y-87002382D01*
X195738046Y-87083164D01*
X195757000Y-87178452D01*
X195757000Y-94407716D01*
X195757438Y-94454547D01*
X195757446Y-94454975D01*
X195758204Y-94495505D01*
X195758311Y-94501245D01*
X195778101Y-94772146D01*
X195778529Y-94775493D01*
X195806467Y-94994026D01*
X195799749Y-95090948D01*
X195756453Y-95177922D01*
X195683169Y-95241707D01*
X195591053Y-95272592D01*
X195519456Y-95271364D01*
X195411124Y-95253721D01*
X195401894Y-95253600D01*
X195401892Y-95253600D01*
X195228201Y-95251327D01*
X195158396Y-95250413D01*
X195149241Y-95251659D01*
X195149240Y-95251659D01*
X194917107Y-95283250D01*
X194917101Y-95283251D01*
X194907955Y-95284496D01*
X194665303Y-95355223D01*
X194640345Y-95366729D01*
X194504990Y-95429128D01*
X194400744Y-95452000D01*
X191964660Y-95452000D01*
X191869372Y-95433046D01*
X191788590Y-95379070D01*
X191734614Y-95298288D01*
X191715660Y-95203000D01*
X191737631Y-95100731D01*
X191755207Y-95061715D01*
X191784928Y-94995736D01*
X191801054Y-94938556D01*
X191851024Y-94761377D01*
X191851025Y-94761372D01*
X191853534Y-94752476D01*
X191855458Y-94737357D01*
X191863753Y-94672151D01*
X191885431Y-94501747D01*
X191887263Y-94431798D01*
X191887605Y-94418740D01*
X191887605Y-94418732D01*
X191887768Y-94412500D01*
X191869037Y-94160445D01*
X191813256Y-93913928D01*
X191721650Y-93678363D01*
X191596231Y-93458926D01*
X191590519Y-93451680D01*
X191590514Y-93451673D01*
X191445471Y-93267688D01*
X191445467Y-93267684D01*
X191439755Y-93260438D01*
X191255660Y-93087258D01*
X191248081Y-93082000D01*
X191248077Y-93081997D01*
X191055583Y-92948459D01*
X191055581Y-92948458D01*
X191047989Y-92943191D01*
X191039700Y-92939103D01*
X191039696Y-92939101D01*
X190829591Y-92835489D01*
X190829589Y-92835488D01*
X190821305Y-92831403D01*
X190724851Y-92800528D01*
X190589386Y-92757165D01*
X190589379Y-92757163D01*
X190580587Y-92754349D01*
X190425419Y-92729078D01*
X190340239Y-92715205D01*
X190340233Y-92715204D01*
X190331124Y-92713721D01*
X190321894Y-92713600D01*
X190321892Y-92713600D01*
X190148201Y-92711327D01*
X190078396Y-92710413D01*
X190069241Y-92711659D01*
X190069240Y-92711659D01*
X189837107Y-92743250D01*
X189837101Y-92743251D01*
X189827955Y-92744496D01*
X189664771Y-92792060D01*
X189567987Y-92800528D01*
X189475328Y-92771313D01*
X189419024Y-92729078D01*
X188621555Y-91931609D01*
X188617567Y-91927226D01*
X188612702Y-91919560D01*
X188563127Y-91873006D01*
X188557510Y-91867564D01*
X188538535Y-91848589D01*
X188532350Y-91843791D01*
X188529827Y-91841567D01*
X188524038Y-91836299D01*
X188504313Y-91817776D01*
X188492893Y-91807052D01*
X188479166Y-91799506D01*
X188473405Y-91795320D01*
X188459777Y-91786368D01*
X188453643Y-91782741D01*
X188441264Y-91773138D01*
X188404781Y-91757351D01*
X188383719Y-91747032D01*
X188362596Y-91735420D01*
X188362595Y-91735420D01*
X188348868Y-91727873D01*
X188333700Y-91723979D01*
X188327071Y-91721354D01*
X188311653Y-91716076D01*
X188304798Y-91714084D01*
X188290426Y-91707865D01*
X188274961Y-91705415D01*
X188274956Y-91705414D01*
X188251163Y-91701646D01*
X188228192Y-91696889D01*
X188204848Y-91690895D01*
X188204846Y-91690895D01*
X188189677Y-91687000D01*
X188174013Y-91687000D01*
X188166943Y-91686107D01*
X188150695Y-91684828D01*
X188143569Y-91684604D01*
X188128095Y-91682153D01*
X188112502Y-91683627D01*
X188112500Y-91683627D01*
X188088511Y-91685895D01*
X188065077Y-91687000D01*
X177235086Y-91687000D01*
X177139798Y-91668046D01*
X177059016Y-91614070D01*
X175055400Y-89610454D01*
X175001424Y-89529672D01*
X174982470Y-89434384D01*
X174982470Y-88110411D01*
X175001424Y-88015123D01*
X175055400Y-87934341D01*
X175136182Y-87880365D01*
X175231470Y-87861411D01*
X175279396Y-87868233D01*
X175279570Y-87867135D01*
X175318835Y-87873354D01*
X175341803Y-87878110D01*
X175380323Y-87888000D01*
X175395989Y-87888000D01*
X175403058Y-87888893D01*
X175419293Y-87890171D01*
X175426432Y-87890395D01*
X175441904Y-87892846D01*
X175457498Y-87891372D01*
X175457500Y-87891372D01*
X175481480Y-87889105D01*
X175504913Y-87888000D01*
X176786008Y-87888000D01*
X176791936Y-87888280D01*
X176800796Y-87890260D01*
X176816452Y-87889768D01*
X176868789Y-87888123D01*
X176876611Y-87888000D01*
X176903425Y-87888000D01*
X176911185Y-87887020D01*
X176914572Y-87886807D01*
X176922375Y-87886439D01*
X176965069Y-87885097D01*
X176980114Y-87880726D01*
X176987172Y-87879608D01*
X177003111Y-87876307D01*
X177010015Y-87874534D01*
X177025558Y-87872571D01*
X177062525Y-87857934D01*
X177084718Y-87850336D01*
X177107850Y-87843616D01*
X177107853Y-87843615D01*
X177122898Y-87839244D01*
X177136385Y-87831268D01*
X177142934Y-87828434D01*
X177157560Y-87821269D01*
X177163809Y-87817834D01*
X177178371Y-87812068D01*
X177191041Y-87802863D01*
X177191044Y-87802861D01*
X177210537Y-87788698D01*
X177230138Y-87775823D01*
X177264365Y-87755581D01*
X177275443Y-87744503D01*
X177281069Y-87740139D01*
X177293448Y-87729567D01*
X177298657Y-87724675D01*
X177311337Y-87715463D01*
X177321324Y-87703391D01*
X177321327Y-87703388D01*
X177336673Y-87684837D01*
X177352461Y-87667485D01*
X177968391Y-87051555D01*
X177972774Y-87047567D01*
X177980440Y-87042702D01*
X178026994Y-86993127D01*
X178032436Y-86987510D01*
X178051411Y-86968535D01*
X178056209Y-86962350D01*
X178058433Y-86959827D01*
X178063701Y-86954038D01*
X178082224Y-86934313D01*
X178092948Y-86922893D01*
X178100494Y-86909166D01*
X178104680Y-86903405D01*
X178113626Y-86889786D01*
X178117257Y-86883647D01*
X178126862Y-86871264D01*
X178142653Y-86834774D01*
X178152968Y-86813720D01*
X178164579Y-86792600D01*
X178164582Y-86792592D01*
X178172127Y-86778868D01*
X178176022Y-86763700D01*
X178178645Y-86757074D01*
X178183927Y-86741644D01*
X178185916Y-86734800D01*
X178192135Y-86720427D01*
X178194585Y-86704962D01*
X178194586Y-86704957D01*
X178198354Y-86681165D01*
X178203111Y-86658193D01*
X178205464Y-86649031D01*
X178213000Y-86619677D01*
X178213000Y-86604011D01*
X178213893Y-86596942D01*
X178215171Y-86580707D01*
X178215395Y-86573568D01*
X178217846Y-86558096D01*
X178214105Y-86518520D01*
X178213000Y-86495087D01*
X178213000Y-85506884D01*
X178213280Y-85500956D01*
X178215260Y-85492096D01*
X178214281Y-85460930D01*
X178213123Y-85424103D01*
X178213000Y-85416281D01*
X178213000Y-85389468D01*
X178212019Y-85381703D01*
X178211808Y-85378344D01*
X178211440Y-85370537D01*
X178210589Y-85343478D01*
X178210097Y-85327823D01*
X178205727Y-85312782D01*
X178204611Y-85305735D01*
X178201308Y-85289786D01*
X178199534Y-85282878D01*
X178197571Y-85267335D01*
X178182936Y-85230370D01*
X178175342Y-85208190D01*
X178168615Y-85185037D01*
X178168614Y-85185034D01*
X178164244Y-85169994D01*
X178156271Y-85156512D01*
X178153441Y-85149973D01*
X178146275Y-85135344D01*
X178142834Y-85129084D01*
X178137068Y-85114522D01*
X178127861Y-85101850D01*
X178127858Y-85101844D01*
X178113697Y-85082353D01*
X178100819Y-85062749D01*
X178088551Y-85042005D01*
X178080581Y-85028528D01*
X178069507Y-85017454D01*
X178065153Y-85011841D01*
X178054567Y-84999445D01*
X178049675Y-84994236D01*
X178040463Y-84981556D01*
X178028391Y-84971569D01*
X178028388Y-84971566D01*
X178009837Y-84956220D01*
X177992485Y-84940432D01*
X177581701Y-84529648D01*
X177527725Y-84448866D01*
X177508771Y-84353578D01*
X177508771Y-84185386D01*
X179011544Y-84185386D01*
X179030232Y-84363189D01*
X179085479Y-84533221D01*
X179174870Y-84688051D01*
X179183600Y-84697747D01*
X179183604Y-84697752D01*
X179285773Y-84811221D01*
X179294499Y-84820912D01*
X179305045Y-84828574D01*
X179305047Y-84828576D01*
X179428579Y-84918328D01*
X179439136Y-84925998D01*
X179602462Y-84998715D01*
X179777338Y-85035886D01*
X179956120Y-85035886D01*
X180130996Y-84998715D01*
X180286776Y-84929358D01*
X180381534Y-84907916D01*
X180477286Y-84924370D01*
X180489323Y-84929356D01*
X180648733Y-85000329D01*
X180823609Y-85037500D01*
X181002391Y-85037500D01*
X181177267Y-85000329D01*
X181340593Y-84927612D01*
X181485230Y-84822526D01*
X181495409Y-84811221D01*
X181596125Y-84699366D01*
X181596129Y-84699361D01*
X181604859Y-84689665D01*
X181694250Y-84534835D01*
X181698282Y-84522425D01*
X181698285Y-84522419D01*
X181704961Y-84501870D01*
X181752431Y-84417102D01*
X181828728Y-84356952D01*
X181922235Y-84330579D01*
X182018716Y-84341997D01*
X182103484Y-84389467D01*
X182117845Y-84402741D01*
X182858495Y-85143391D01*
X182862483Y-85147774D01*
X182867348Y-85155440D01*
X182878769Y-85166165D01*
X182916922Y-85201993D01*
X182922540Y-85207436D01*
X182941516Y-85226412D01*
X182947704Y-85231212D01*
X182950189Y-85233402D01*
X182955987Y-85238677D01*
X182987157Y-85267948D01*
X183000884Y-85275495D01*
X183006642Y-85279678D01*
X183020274Y-85288633D01*
X183026405Y-85292259D01*
X183038787Y-85301863D01*
X183053171Y-85308087D01*
X183053172Y-85308088D01*
X183075277Y-85317654D01*
X183096341Y-85327973D01*
X183131182Y-85347127D01*
X183146356Y-85351023D01*
X183152978Y-85353645D01*
X183168400Y-85358925D01*
X183175245Y-85360914D01*
X183189624Y-85367136D01*
X183205097Y-85369587D01*
X183205101Y-85369588D01*
X183228887Y-85373355D01*
X183251859Y-85378112D01*
X183275197Y-85384104D01*
X183275200Y-85384104D01*
X183290373Y-85388000D01*
X183306040Y-85388000D01*
X183313110Y-85388893D01*
X183329365Y-85390172D01*
X183336479Y-85390396D01*
X183351955Y-85392847D01*
X183367549Y-85391373D01*
X183367551Y-85391373D01*
X183391541Y-85389105D01*
X183414974Y-85388000D01*
X183989914Y-85388000D01*
X184085202Y-85406954D01*
X184165984Y-85460930D01*
X184952572Y-86247518D01*
X185006548Y-86328300D01*
X185024138Y-86397559D01*
X185026003Y-86415303D01*
X185081250Y-86585335D01*
X185170641Y-86740165D01*
X185179371Y-86749861D01*
X185179375Y-86749866D01*
X185276751Y-86858012D01*
X185290270Y-86873026D01*
X185300816Y-86880688D01*
X185300818Y-86880690D01*
X185424350Y-86970442D01*
X185434907Y-86978112D01*
X185446830Y-86983420D01*
X185446831Y-86983421D01*
X185522251Y-87017000D01*
X185598233Y-87050829D01*
X185773109Y-87088000D01*
X185951891Y-87088000D01*
X186126767Y-87050829D01*
X186202749Y-87017000D01*
X186278169Y-86983421D01*
X186278170Y-86983420D01*
X186290093Y-86978112D01*
X186300650Y-86970442D01*
X186424182Y-86880690D01*
X186424184Y-86880688D01*
X186434730Y-86873026D01*
X186448249Y-86858012D01*
X186545625Y-86749866D01*
X186545629Y-86749861D01*
X186554359Y-86740165D01*
X186643750Y-86585335D01*
X186698997Y-86415303D01*
X186717685Y-86237500D01*
X186698997Y-86059697D01*
X186643750Y-85889665D01*
X186554359Y-85734835D01*
X186545629Y-85725139D01*
X186545625Y-85725134D01*
X186443456Y-85611665D01*
X186443455Y-85611664D01*
X186434730Y-85601974D01*
X186351258Y-85541327D01*
X186300650Y-85504558D01*
X186300649Y-85504557D01*
X186290093Y-85496888D01*
X186203432Y-85458304D01*
X186152785Y-85435755D01*
X186126767Y-85424171D01*
X186089042Y-85416152D01*
X185998708Y-85396951D01*
X185909443Y-85358599D01*
X185874408Y-85329462D01*
X184876555Y-84331609D01*
X184872567Y-84327226D01*
X184867702Y-84319560D01*
X184818127Y-84273006D01*
X184812510Y-84267564D01*
X184793535Y-84248589D01*
X184787350Y-84243791D01*
X184784827Y-84241567D01*
X184779038Y-84236299D01*
X184759313Y-84217776D01*
X184747893Y-84207052D01*
X184734166Y-84199506D01*
X184728405Y-84195320D01*
X184714777Y-84186368D01*
X184708643Y-84182741D01*
X184696264Y-84173138D01*
X184659781Y-84157351D01*
X184638719Y-84147032D01*
X184617596Y-84135420D01*
X184617595Y-84135420D01*
X184603868Y-84127873D01*
X184588700Y-84123979D01*
X184582071Y-84121354D01*
X184566653Y-84116076D01*
X184559798Y-84114084D01*
X184545426Y-84107865D01*
X184529961Y-84105415D01*
X184529956Y-84105414D01*
X184506163Y-84101646D01*
X184483192Y-84096889D01*
X184459848Y-84090895D01*
X184459846Y-84090895D01*
X184444677Y-84087000D01*
X184429013Y-84087000D01*
X184421943Y-84086107D01*
X184405695Y-84084828D01*
X184398569Y-84084604D01*
X184383095Y-84082153D01*
X184367502Y-84083627D01*
X184367500Y-84083627D01*
X184343511Y-84085895D01*
X184320077Y-84087000D01*
X183745136Y-84087000D01*
X183649848Y-84068046D01*
X183569066Y-84014070D01*
X182267794Y-82712798D01*
X182213818Y-82632016D01*
X182194864Y-82536728D01*
X182213818Y-82441440D01*
X182228221Y-82412232D01*
X182243750Y-82385335D01*
X182298997Y-82215303D01*
X182317685Y-82037500D01*
X182298997Y-81859697D01*
X182243750Y-81689665D01*
X182175309Y-81571121D01*
X182160884Y-81546136D01*
X182160882Y-81546134D01*
X182154359Y-81534835D01*
X182155302Y-81534291D01*
X182119879Y-81457450D01*
X182113000Y-81399325D01*
X182113000Y-78084192D01*
X182131954Y-77988904D01*
X182156464Y-77945139D01*
X182158898Y-77942435D01*
X182165422Y-77931135D01*
X182165425Y-77931131D01*
X182241762Y-77798910D01*
X182248289Y-77787605D01*
X182303536Y-77617573D01*
X182322224Y-77439770D01*
X182303536Y-77261967D01*
X182248289Y-77091935D01*
X182158898Y-76937105D01*
X182150168Y-76927409D01*
X182150164Y-76927404D01*
X182047995Y-76813935D01*
X182047994Y-76813934D01*
X182039269Y-76804244D01*
X181894632Y-76699158D01*
X181873311Y-76689665D01*
X181743228Y-76631749D01*
X181731306Y-76626441D01*
X181556430Y-76589270D01*
X181514235Y-76589270D01*
X181418947Y-76570316D01*
X181338165Y-76516340D01*
X181329192Y-76506884D01*
X181243456Y-76411665D01*
X181243455Y-76411664D01*
X181234730Y-76401974D01*
X181090093Y-76296888D01*
X181078167Y-76291578D01*
X180938689Y-76229479D01*
X180926767Y-76224171D01*
X180751891Y-76187000D01*
X180573109Y-76187000D01*
X180398233Y-76224171D01*
X180234908Y-76296888D01*
X180224351Y-76304558D01*
X180224346Y-76304561D01*
X180154398Y-76355382D01*
X180090270Y-76401974D01*
X180081538Y-76411672D01*
X179979375Y-76525134D01*
X179979371Y-76525139D01*
X179970641Y-76534835D01*
X179881250Y-76689665D01*
X179826003Y-76859697D01*
X179824639Y-76872672D01*
X179824638Y-76872678D01*
X179823733Y-76881294D01*
X179794924Y-76974079D01*
X179732801Y-77048777D01*
X179677375Y-77082742D01*
X179635408Y-77101427D01*
X179624851Y-77109097D01*
X179624846Y-77109100D01*
X179554898Y-77159921D01*
X179490770Y-77206513D01*
X179482038Y-77216211D01*
X179379875Y-77329673D01*
X179379871Y-77329678D01*
X179371141Y-77339374D01*
X179281750Y-77494204D01*
X179226503Y-77664236D01*
X179207815Y-77842039D01*
X179226503Y-78019842D01*
X179281750Y-78189874D01*
X179371141Y-78344704D01*
X179379871Y-78354400D01*
X179379875Y-78354405D01*
X179482044Y-78467874D01*
X179490770Y-78477565D01*
X179635407Y-78582651D01*
X179647331Y-78587960D01*
X179647333Y-78587961D01*
X179664279Y-78595506D01*
X179743619Y-78651579D01*
X179795462Y-78733746D01*
X179812000Y-78822978D01*
X179812000Y-80971328D01*
X179793046Y-81066616D01*
X179751656Y-81130718D01*
X179751984Y-81130956D01*
X179747658Y-81136910D01*
X179744515Y-81141778D01*
X179732052Y-81155050D01*
X179724506Y-81168777D01*
X179720320Y-81174538D01*
X179711368Y-81188166D01*
X179707741Y-81194300D01*
X179698138Y-81206679D01*
X179691917Y-81221056D01*
X179682353Y-81243157D01*
X179672032Y-81264224D01*
X179660420Y-81285347D01*
X179652873Y-81299075D01*
X179648979Y-81314243D01*
X179646354Y-81320872D01*
X179641076Y-81336290D01*
X179639084Y-81343145D01*
X179632865Y-81357517D01*
X179630415Y-81372982D01*
X179630414Y-81372987D01*
X179626646Y-81396780D01*
X179621889Y-81419749D01*
X179612000Y-81458266D01*
X179612000Y-81473930D01*
X179611107Y-81481000D01*
X179609828Y-81497248D01*
X179609604Y-81504374D01*
X179607153Y-81519848D01*
X179608627Y-81535441D01*
X179608627Y-81535443D01*
X179610895Y-81559432D01*
X179612000Y-81582866D01*
X179612000Y-83206108D01*
X179593046Y-83301396D01*
X179539070Y-83382178D01*
X179464277Y-83433581D01*
X179439137Y-83444774D01*
X179428580Y-83452444D01*
X179428575Y-83452447D01*
X179397646Y-83474919D01*
X179294499Y-83549860D01*
X179285767Y-83559558D01*
X179183604Y-83673020D01*
X179183600Y-83673025D01*
X179174870Y-83682721D01*
X179085479Y-83837551D01*
X179030232Y-84007583D01*
X179011544Y-84185386D01*
X177508771Y-84185386D01*
X177508771Y-83557715D01*
X177509051Y-83551786D01*
X177511031Y-83542926D01*
X177508894Y-83474919D01*
X177508771Y-83467098D01*
X177508771Y-83440297D01*
X177507793Y-83432551D01*
X177507580Y-83429167D01*
X177507212Y-83421368D01*
X177506361Y-83394314D01*
X177505869Y-83378653D01*
X177501497Y-83363605D01*
X177500384Y-83356576D01*
X177497076Y-83340601D01*
X177495306Y-83333706D01*
X177493342Y-83318164D01*
X177478710Y-83281208D01*
X177471110Y-83259010D01*
X177464388Y-83235871D01*
X177464386Y-83235867D01*
X177460016Y-83220824D01*
X177452043Y-83207342D01*
X177449213Y-83200803D01*
X177437032Y-83175940D01*
X177432843Y-83165361D01*
X177435834Y-83164177D01*
X177414503Y-83096729D01*
X177413000Y-83069407D01*
X177413000Y-81466934D01*
X177413280Y-81461006D01*
X177415260Y-81452146D01*
X177414560Y-81429857D01*
X177413123Y-81384153D01*
X177413000Y-81376331D01*
X177413000Y-81349518D01*
X177412019Y-81341753D01*
X177411808Y-81338394D01*
X177411440Y-81330587D01*
X177410589Y-81303528D01*
X177410097Y-81287873D01*
X177405727Y-81272832D01*
X177404611Y-81265785D01*
X177401308Y-81249836D01*
X177399534Y-81242928D01*
X177397571Y-81227385D01*
X177382936Y-81190420D01*
X177375342Y-81168240D01*
X177368615Y-81145087D01*
X177368614Y-81145084D01*
X177364244Y-81130044D01*
X177356271Y-81116562D01*
X177353441Y-81110023D01*
X177346275Y-81095394D01*
X177342834Y-81089134D01*
X177337068Y-81074572D01*
X177327861Y-81061900D01*
X177327858Y-81061894D01*
X177313697Y-81042403D01*
X177300819Y-81022799D01*
X177288551Y-81002055D01*
X177280581Y-80988578D01*
X177269507Y-80977504D01*
X177265153Y-80971891D01*
X177254567Y-80959495D01*
X177249675Y-80954286D01*
X177240463Y-80941606D01*
X177228391Y-80931619D01*
X177228388Y-80931616D01*
X177209837Y-80916270D01*
X177192485Y-80900482D01*
X176523612Y-80231609D01*
X176519624Y-80227226D01*
X176514759Y-80219560D01*
X176465184Y-80173006D01*
X176459567Y-80167564D01*
X176440592Y-80148589D01*
X176434407Y-80143791D01*
X176431884Y-80141567D01*
X176426095Y-80136299D01*
X176425069Y-80135335D01*
X176394950Y-80107052D01*
X176381223Y-80099506D01*
X176375462Y-80095320D01*
X176361834Y-80086368D01*
X176355700Y-80082741D01*
X176343321Y-80073138D01*
X176306838Y-80057351D01*
X176285776Y-80047032D01*
X176264653Y-80035420D01*
X176264652Y-80035420D01*
X176250925Y-80027873D01*
X176235757Y-80023979D01*
X176229128Y-80021354D01*
X176213710Y-80016076D01*
X176206855Y-80014084D01*
X176192483Y-80007865D01*
X176177018Y-80005415D01*
X176177013Y-80005414D01*
X176153220Y-80001646D01*
X176130249Y-79996889D01*
X176106905Y-79990895D01*
X176106903Y-79990895D01*
X176091734Y-79987000D01*
X176076070Y-79987000D01*
X176069000Y-79986107D01*
X176052752Y-79984828D01*
X176045626Y-79984604D01*
X176030152Y-79982153D01*
X176014559Y-79983627D01*
X176014557Y-79983627D01*
X175990568Y-79985895D01*
X175967134Y-79987000D01*
X175138991Y-79987000D01*
X175133063Y-79986720D01*
X175124203Y-79984740D01*
X175108547Y-79985232D01*
X175056210Y-79986877D01*
X175048388Y-79987000D01*
X175021575Y-79987000D01*
X175013810Y-79987981D01*
X175010451Y-79988192D01*
X175002644Y-79988560D01*
X174983637Y-79989158D01*
X174959930Y-79989903D01*
X174944889Y-79994273D01*
X174937842Y-79995389D01*
X174921893Y-79998692D01*
X174914985Y-80000466D01*
X174899442Y-80002429D01*
X174862480Y-80017063D01*
X174840301Y-80024656D01*
X174832413Y-80026948D01*
X174735621Y-80035335D01*
X174642987Y-80006043D01*
X174616576Y-79989283D01*
X174500655Y-79905061D01*
X174500650Y-79905058D01*
X174490093Y-79897388D01*
X174478167Y-79892078D01*
X174338689Y-79829979D01*
X174326767Y-79824671D01*
X174151891Y-79787500D01*
X173973109Y-79787500D01*
X173798233Y-79824671D01*
X173634908Y-79897388D01*
X173624351Y-79905058D01*
X173624346Y-79905061D01*
X173554398Y-79955882D01*
X173490270Y-80002474D01*
X173481539Y-80012171D01*
X173481532Y-80012177D01*
X173398301Y-80104614D01*
X173320455Y-80162744D01*
X173226290Y-80186659D01*
X173213259Y-80187000D01*
X168920615Y-80187000D01*
X168914687Y-80186720D01*
X168905827Y-80184740D01*
X168890171Y-80185232D01*
X168837834Y-80186877D01*
X168830012Y-80187000D01*
X168803199Y-80187000D01*
X168795434Y-80187981D01*
X168792075Y-80188192D01*
X168784268Y-80188560D01*
X168765261Y-80189158D01*
X168741554Y-80189903D01*
X168726513Y-80194273D01*
X168719466Y-80195389D01*
X168703517Y-80198692D01*
X168696609Y-80200466D01*
X168681066Y-80202429D01*
X168644104Y-80217063D01*
X168621921Y-80224658D01*
X168598768Y-80231385D01*
X168598765Y-80231386D01*
X168583725Y-80235756D01*
X168570243Y-80243729D01*
X168563704Y-80246559D01*
X168549075Y-80253725D01*
X168542815Y-80257166D01*
X168528253Y-80262932D01*
X168515581Y-80272139D01*
X168515575Y-80272142D01*
X168496084Y-80286303D01*
X168476485Y-80299178D01*
X168442259Y-80319419D01*
X168431185Y-80330493D01*
X168425572Y-80334847D01*
X168413165Y-80345442D01*
X168407960Y-80350329D01*
X168395287Y-80359537D01*
X168385305Y-80371603D01*
X168385303Y-80371605D01*
X168369946Y-80390169D01*
X168354158Y-80407520D01*
X165856609Y-82905070D01*
X165852226Y-82909058D01*
X165844560Y-82913923D01*
X165833835Y-82925344D01*
X165798007Y-82963497D01*
X165792564Y-82969115D01*
X165773589Y-82988090D01*
X165768791Y-82994275D01*
X165766567Y-82996798D01*
X165761305Y-83002581D01*
X165732052Y-83033732D01*
X165724508Y-83047454D01*
X165720324Y-83053213D01*
X165711372Y-83066842D01*
X165707740Y-83072983D01*
X165698138Y-83085362D01*
X165682346Y-83121854D01*
X165672034Y-83142902D01*
X165652873Y-83177757D01*
X165648976Y-83192934D01*
X165646354Y-83199558D01*
X165641085Y-83214947D01*
X165639089Y-83221816D01*
X165632865Y-83236199D01*
X165630414Y-83251676D01*
X165626646Y-83275462D01*
X165621889Y-83298431D01*
X165612000Y-83336948D01*
X165612000Y-83352612D01*
X165611107Y-83359682D01*
X165609828Y-83375930D01*
X165609604Y-83383056D01*
X165607153Y-83398530D01*
X165608627Y-83414123D01*
X165608627Y-83414125D01*
X165610895Y-83438114D01*
X165612000Y-83461548D01*
X165612000Y-83764914D01*
X165593046Y-83860202D01*
X165539070Y-83940984D01*
X164165984Y-85314070D01*
X164085202Y-85368046D01*
X163989914Y-85387000D01*
X159816961Y-85387000D01*
X159811032Y-85386720D01*
X159802172Y-85384740D01*
X159765416Y-85385895D01*
X159734165Y-85386877D01*
X159726344Y-85387000D01*
X159699543Y-85387000D01*
X159691797Y-85387978D01*
X159688413Y-85388191D01*
X159680614Y-85388559D01*
X159663891Y-85389085D01*
X159637899Y-85389902D01*
X159622851Y-85394274D01*
X159615822Y-85395387D01*
X159599847Y-85398695D01*
X159592952Y-85400465D01*
X159577410Y-85402429D01*
X159540457Y-85417060D01*
X159518256Y-85424661D01*
X159495117Y-85431383D01*
X159495113Y-85431385D01*
X159480070Y-85435755D01*
X159466588Y-85443728D01*
X159460049Y-85446558D01*
X159445412Y-85453729D01*
X159439159Y-85457166D01*
X159424597Y-85462932D01*
X159392426Y-85486305D01*
X159372834Y-85499174D01*
X159352086Y-85511444D01*
X159352081Y-85511448D01*
X159338603Y-85519419D01*
X159327532Y-85530490D01*
X159321910Y-85534851D01*
X159309520Y-85545433D01*
X159304311Y-85550325D01*
X159291631Y-85559537D01*
X159281644Y-85571609D01*
X159281641Y-85571612D01*
X159266295Y-85590163D01*
X159250507Y-85607515D01*
X158346609Y-86511413D01*
X158342226Y-86515401D01*
X158334560Y-86520266D01*
X158323835Y-86531687D01*
X158288007Y-86569840D01*
X158282564Y-86575458D01*
X158263589Y-86594433D01*
X158258791Y-86600618D01*
X158256567Y-86603141D01*
X158251305Y-86608924D01*
X158222052Y-86640075D01*
X158214506Y-86653802D01*
X158210320Y-86659563D01*
X158201368Y-86673191D01*
X158197741Y-86679325D01*
X158188138Y-86691704D01*
X158181917Y-86706081D01*
X158172353Y-86728182D01*
X158162032Y-86749249D01*
X158155305Y-86761486D01*
X158142873Y-86784100D01*
X158138979Y-86799268D01*
X158136354Y-86805897D01*
X158131076Y-86821315D01*
X158129084Y-86828170D01*
X158122865Y-86842542D01*
X158120415Y-86858007D01*
X158120414Y-86858012D01*
X158116646Y-86881805D01*
X158111889Y-86904774D01*
X158102000Y-86943291D01*
X158102000Y-86958955D01*
X158101107Y-86966025D01*
X158099828Y-86982273D01*
X158099604Y-86989399D01*
X158097153Y-87004873D01*
X158098627Y-87020466D01*
X158098627Y-87020468D01*
X158100895Y-87044457D01*
X158102000Y-87067891D01*
X158102000Y-87138000D01*
X158083046Y-87233288D01*
X158029070Y-87314070D01*
X157948288Y-87368046D01*
X157853000Y-87387000D01*
X155181553Y-87387000D01*
X155086265Y-87368046D01*
X155005483Y-87314070D01*
X154951507Y-87233288D01*
X154938694Y-87192958D01*
X154935296Y-87177943D01*
X154935295Y-87177940D01*
X154933256Y-87168928D01*
X154929907Y-87160317D01*
X154927206Y-87151481D01*
X154929548Y-87150765D01*
X154915459Y-87070875D01*
X154936485Y-86976023D01*
X154992208Y-86896436D01*
X155074146Y-86844233D01*
X155174176Y-86827492D01*
X155282013Y-86831729D01*
X155291188Y-86830724D01*
X155291193Y-86830724D01*
X155524077Y-86805219D01*
X155524081Y-86805218D01*
X155533260Y-86804213D01*
X155777681Y-86739863D01*
X156009905Y-86640091D01*
X156017757Y-86635232D01*
X156017761Y-86635230D01*
X156142408Y-86558096D01*
X156224831Y-86507091D01*
X156417738Y-86343783D01*
X156431317Y-86328300D01*
X156578302Y-86160696D01*
X156578303Y-86160694D01*
X156584388Y-86153756D01*
X156721119Y-85941184D01*
X156824928Y-85710736D01*
X156855602Y-85601974D01*
X156891024Y-85476377D01*
X156891025Y-85476373D01*
X156893534Y-85467476D01*
X156897570Y-85435755D01*
X156906299Y-85367136D01*
X156925431Y-85216747D01*
X156926898Y-85160740D01*
X156927605Y-85133740D01*
X156927605Y-85133732D01*
X156927768Y-85127500D01*
X156909037Y-84875445D01*
X156853256Y-84628928D01*
X156761650Y-84393363D01*
X156636231Y-84173926D01*
X156630519Y-84166680D01*
X156630514Y-84166673D01*
X156485471Y-83982688D01*
X156485467Y-83982684D01*
X156479755Y-83975438D01*
X156295660Y-83802258D01*
X156288081Y-83797000D01*
X156288077Y-83796997D01*
X156095583Y-83663459D01*
X156095581Y-83663458D01*
X156087989Y-83658191D01*
X156079700Y-83654103D01*
X156079696Y-83654101D01*
X155869591Y-83550489D01*
X155869589Y-83550488D01*
X155861305Y-83546403D01*
X155777678Y-83519634D01*
X155629386Y-83472165D01*
X155629379Y-83472163D01*
X155620587Y-83469349D01*
X155490182Y-83448111D01*
X155380239Y-83430205D01*
X155380233Y-83430204D01*
X155371124Y-83428721D01*
X155361894Y-83428600D01*
X155361892Y-83428600D01*
X155188201Y-83426327D01*
X155118396Y-83425413D01*
X155109241Y-83426659D01*
X155109240Y-83426659D01*
X154877107Y-83458250D01*
X154877101Y-83458251D01*
X154867955Y-83459496D01*
X154625303Y-83530223D01*
X154500539Y-83587740D01*
X154464990Y-83604128D01*
X154360744Y-83627000D01*
X149082798Y-83627000D01*
X148987510Y-83608046D01*
X148972668Y-83601321D01*
X148869591Y-83550489D01*
X148869589Y-83550488D01*
X148861305Y-83546403D01*
X148777678Y-83519634D01*
X148629386Y-83472165D01*
X148629379Y-83472163D01*
X148620587Y-83469349D01*
X148490182Y-83448111D01*
X148380239Y-83430205D01*
X148380233Y-83430204D01*
X148371124Y-83428721D01*
X148361894Y-83428600D01*
X148361892Y-83428600D01*
X148188201Y-83426327D01*
X148118396Y-83425413D01*
X148109241Y-83426659D01*
X148109240Y-83426659D01*
X147877107Y-83458250D01*
X147877101Y-83458251D01*
X147867955Y-83459496D01*
X147625303Y-83530223D01*
X147500539Y-83587740D01*
X147464990Y-83604128D01*
X147360744Y-83627000D01*
X142082798Y-83627000D01*
X141987510Y-83608046D01*
X141972668Y-83601321D01*
X141869591Y-83550489D01*
X141869589Y-83550488D01*
X141861305Y-83546403D01*
X141777678Y-83519634D01*
X141629386Y-83472165D01*
X141629379Y-83472163D01*
X141620587Y-83469349D01*
X141490182Y-83448111D01*
X141380239Y-83430205D01*
X141380233Y-83430204D01*
X141371124Y-83428721D01*
X141361894Y-83428600D01*
X141361892Y-83428600D01*
X141188201Y-83426327D01*
X141118396Y-83425413D01*
X141109241Y-83426659D01*
X141109240Y-83426659D01*
X140877107Y-83458250D01*
X140877101Y-83458251D01*
X140867955Y-83459496D01*
X140625303Y-83530223D01*
X140500539Y-83587740D01*
X140464990Y-83604128D01*
X140360744Y-83627000D01*
X135082798Y-83627000D01*
X134987510Y-83608046D01*
X134972668Y-83601321D01*
X134869591Y-83550489D01*
X134869589Y-83550488D01*
X134861305Y-83546403D01*
X134777678Y-83519634D01*
X134629386Y-83472165D01*
X134629379Y-83472163D01*
X134620587Y-83469349D01*
X134490182Y-83448111D01*
X134380239Y-83430205D01*
X134380233Y-83430204D01*
X134371124Y-83428721D01*
X134361894Y-83428600D01*
X134361892Y-83428600D01*
X134188201Y-83426327D01*
X134118396Y-83425413D01*
X134109241Y-83426659D01*
X134109240Y-83426659D01*
X133877107Y-83458250D01*
X133877101Y-83458251D01*
X133867955Y-83459496D01*
X133625303Y-83530223D01*
X133500539Y-83587740D01*
X133464990Y-83604128D01*
X133360744Y-83627000D01*
X128082798Y-83627000D01*
X127987510Y-83608046D01*
X127972668Y-83601321D01*
X127869591Y-83550489D01*
X127869589Y-83550488D01*
X127861305Y-83546403D01*
X127777678Y-83519634D01*
X127629386Y-83472165D01*
X127629379Y-83472163D01*
X127620587Y-83469349D01*
X127490182Y-83448111D01*
X127380239Y-83430205D01*
X127380233Y-83430204D01*
X127371124Y-83428721D01*
X127361894Y-83428600D01*
X127361892Y-83428600D01*
X127188201Y-83426327D01*
X127118396Y-83425413D01*
X127109241Y-83426659D01*
X127109240Y-83426659D01*
X126877107Y-83458250D01*
X126877101Y-83458251D01*
X126867955Y-83459496D01*
X126625303Y-83530223D01*
X126616924Y-83534086D01*
X126616918Y-83534088D01*
X126428069Y-83621149D01*
X126395770Y-83636039D01*
X126388045Y-83641104D01*
X126382721Y-83644055D01*
X126290191Y-83673676D01*
X126193370Y-83665632D01*
X126106997Y-83621149D01*
X126044222Y-83546998D01*
X126014601Y-83454468D01*
X126013000Y-83426277D01*
X126013000Y-81818920D01*
X126031954Y-81723632D01*
X126085930Y-81642850D01*
X126190190Y-81538590D01*
X126217040Y-81515325D01*
X126311431Y-81444665D01*
X126399072Y-81402735D01*
X126496088Y-81397535D01*
X126587709Y-81429857D01*
X126635927Y-81467141D01*
X126721124Y-81551576D01*
X126721141Y-81551592D01*
X126725096Y-81555511D01*
X126967532Y-81756073D01*
X127148686Y-81887690D01*
X127150045Y-81888622D01*
X127150057Y-81888631D01*
X127255342Y-81960876D01*
X127255351Y-81960881D01*
X127259948Y-81964036D01*
X127264818Y-81966770D01*
X127264822Y-81966773D01*
X127282226Y-81976545D01*
X127534300Y-82118084D01*
X127736044Y-82215238D01*
X127859123Y-82270478D01*
X128156573Y-82373065D01*
X128372422Y-82432636D01*
X128503403Y-82465016D01*
X128814391Y-82512842D01*
X129037409Y-82532914D01*
X129040189Y-82533039D01*
X129040206Y-82533040D01*
X129259207Y-82542875D01*
X129259226Y-82542875D01*
X129262000Y-82543000D01*
X161393184Y-82543000D01*
X161471368Y-82541721D01*
X161474181Y-82541675D01*
X161474183Y-82541675D01*
X161475158Y-82541659D01*
X161556844Y-82538985D01*
X161557854Y-82538935D01*
X161557888Y-82538934D01*
X161637761Y-82535010D01*
X161637780Y-82535009D01*
X161638735Y-82534962D01*
X161639677Y-82534900D01*
X161639699Y-82534899D01*
X161775249Y-82526015D01*
X161775276Y-82526013D01*
X161777302Y-82525880D01*
X161779338Y-82525679D01*
X161779356Y-82525678D01*
X161938449Y-82510009D01*
X161938451Y-82510009D01*
X161940459Y-82509811D01*
X162021875Y-82499093D01*
X162100395Y-82488756D01*
X162100409Y-82488754D01*
X162102429Y-82488488D01*
X162104432Y-82488157D01*
X162104461Y-82488153D01*
X162262178Y-82462113D01*
X162264207Y-82461778D01*
X162332629Y-82448168D01*
X162358254Y-82443071D01*
X162358262Y-82443069D01*
X162360224Y-82442679D01*
X162362185Y-82442222D01*
X162362207Y-82442217D01*
X162490804Y-82412232D01*
X162519895Y-82405449D01*
X162677701Y-82363165D01*
X162679621Y-82362582D01*
X162679637Y-82362578D01*
X162832630Y-82316168D01*
X162832650Y-82316161D01*
X162834610Y-82315567D01*
X162927313Y-82284098D01*
X162969590Y-82268186D01*
X163078832Y-82227070D01*
X163078857Y-82227060D01*
X163080757Y-82226345D01*
X163231682Y-82163829D01*
X163381008Y-82096170D01*
X163382821Y-82095276D01*
X163382842Y-82095266D01*
X163467025Y-82053752D01*
X163467058Y-82053735D01*
X163468800Y-82052876D01*
X163470517Y-82051958D01*
X163470535Y-82051949D01*
X163611606Y-81976545D01*
X163611613Y-81976541D01*
X163613398Y-81975587D01*
X163638878Y-81960876D01*
X163753120Y-81894919D01*
X163753138Y-81894908D01*
X163754886Y-81893899D01*
X163756590Y-81892839D01*
X163756609Y-81892828D01*
X163875463Y-81818920D01*
X163894100Y-81807331D01*
X163975493Y-81752947D01*
X163977140Y-81751767D01*
X164107135Y-81658615D01*
X164107154Y-81658601D01*
X164108788Y-81657430D01*
X164177664Y-81604579D01*
X164236796Y-81559206D01*
X164236815Y-81559191D01*
X164238397Y-81557977D01*
X164252826Y-81546136D01*
X164332193Y-81481000D01*
X164365127Y-81453972D01*
X164377530Y-81443095D01*
X164468786Y-81363066D01*
X164468796Y-81363057D01*
X164469535Y-81362409D01*
X164530305Y-81307330D01*
X164589960Y-81251456D01*
X164648859Y-81194453D01*
X172419453Y-73423859D01*
X172476456Y-73364960D01*
X172532330Y-73305305D01*
X172587409Y-73244535D01*
X172678972Y-73140127D01*
X172782981Y-73013392D01*
X172829303Y-72953024D01*
X172902348Y-72888966D01*
X172994347Y-72857736D01*
X173091294Y-72864090D01*
G37*
G04 #@! TD.AperFunction*
G04 #@! TA.AperFunction,Conductor*
G36*
X188731839Y-59563072D02*
G01*
X188947688Y-59622643D01*
X189149432Y-59719797D01*
X189330586Y-59851414D01*
X189485329Y-60013261D01*
X189608685Y-60200138D01*
X189696691Y-60406038D01*
X189746517Y-60624343D01*
X189757698Y-60774484D01*
X189757986Y-60795010D01*
X189761917Y-60935118D01*
X189764872Y-61005322D01*
X189771935Y-61131101D01*
X189783749Y-61271161D01*
X189815129Y-61549660D01*
X189834772Y-61688802D01*
X189844111Y-61743769D01*
X189871534Y-61881633D01*
X189933885Y-62154804D01*
X189968984Y-62290872D01*
X189984418Y-62344445D01*
X190027094Y-62478340D01*
X190119644Y-62742837D01*
X190169759Y-62874126D01*
X190173119Y-62882237D01*
X190174011Y-62884480D01*
X190237810Y-63099118D01*
X190262259Y-63321698D01*
X190262500Y-63346232D01*
X190262500Y-71209073D01*
X190279610Y-71470125D01*
X190330648Y-71726711D01*
X190414741Y-71974440D01*
X190530449Y-72209073D01*
X190675793Y-72426596D01*
X190848286Y-72623286D01*
X201391176Y-83166176D01*
X201534681Y-83338066D01*
X201645186Y-83532817D01*
X201719142Y-83744171D01*
X201754171Y-83965333D01*
X201757000Y-84049352D01*
X201757000Y-104742032D01*
X201736928Y-104965050D01*
X201677357Y-105180899D01*
X201580203Y-105382643D01*
X201448586Y-105563797D01*
X201286739Y-105718540D01*
X201099862Y-105841896D01*
X200944487Y-105912280D01*
X200909664Y-105925268D01*
X200738685Y-105975473D01*
X200634415Y-105998155D01*
X200458029Y-106023516D01*
X200400004Y-106027666D01*
X200306986Y-106034318D01*
X200217888Y-106037500D01*
X191111857Y-106037500D01*
X190916471Y-106022123D01*
X190886828Y-106017428D01*
X190569838Y-105967222D01*
X190537184Y-105965511D01*
X190537178Y-105965510D01*
X190215166Y-105948634D01*
X190182500Y-105946922D01*
X190149834Y-105948634D01*
X189827822Y-105965510D01*
X189827816Y-105965511D01*
X189795162Y-105967222D01*
X189478172Y-106017428D01*
X189448529Y-106022123D01*
X189253143Y-106037500D01*
X184111857Y-106037500D01*
X183916471Y-106022123D01*
X183886828Y-106017428D01*
X183569838Y-105967222D01*
X183537184Y-105965511D01*
X183537178Y-105965510D01*
X183215166Y-105948634D01*
X183182500Y-105946922D01*
X183149834Y-105948634D01*
X182827822Y-105965510D01*
X182827816Y-105965511D01*
X182795162Y-105967222D01*
X182478172Y-106017428D01*
X182448529Y-106022123D01*
X182253143Y-106037500D01*
X177111857Y-106037500D01*
X176916471Y-106022123D01*
X176886828Y-106017428D01*
X176569838Y-105967222D01*
X176537184Y-105965511D01*
X176537178Y-105965510D01*
X176215166Y-105948634D01*
X176182500Y-105946922D01*
X176149834Y-105948634D01*
X175827822Y-105965510D01*
X175827816Y-105965511D01*
X175795162Y-105967222D01*
X175478172Y-106017428D01*
X175448529Y-106022123D01*
X175253143Y-106037500D01*
X170111857Y-106037500D01*
X169916471Y-106022123D01*
X169886828Y-106017428D01*
X169569838Y-105967222D01*
X169537184Y-105965511D01*
X169537178Y-105965510D01*
X169215166Y-105948634D01*
X169182500Y-105946922D01*
X169149834Y-105948634D01*
X168827822Y-105965510D01*
X168827816Y-105965511D01*
X168795162Y-105967222D01*
X168478172Y-106017428D01*
X168448529Y-106022123D01*
X168253143Y-106037500D01*
X163111857Y-106037500D01*
X162916471Y-106022123D01*
X162886828Y-106017428D01*
X162569838Y-105967222D01*
X162537184Y-105965511D01*
X162537178Y-105965510D01*
X162215166Y-105948634D01*
X162182500Y-105946922D01*
X162149834Y-105948634D01*
X161827822Y-105965510D01*
X161827816Y-105965511D01*
X161795162Y-105967222D01*
X161478172Y-106017428D01*
X161448529Y-106022123D01*
X161253143Y-106037500D01*
X156111857Y-106037500D01*
X155916471Y-106022123D01*
X155886828Y-106017428D01*
X155569838Y-105967222D01*
X155537184Y-105965511D01*
X155537178Y-105965510D01*
X155215166Y-105948634D01*
X155182500Y-105946922D01*
X155149834Y-105948634D01*
X154827822Y-105965510D01*
X154827816Y-105965511D01*
X154795162Y-105967222D01*
X154478172Y-106017428D01*
X154448529Y-106022123D01*
X154253143Y-106037500D01*
X149111857Y-106037500D01*
X148916471Y-106022123D01*
X148886828Y-106017428D01*
X148569838Y-105967222D01*
X148537184Y-105965511D01*
X148537178Y-105965510D01*
X148215166Y-105948634D01*
X148182500Y-105946922D01*
X148149834Y-105948634D01*
X147827822Y-105965510D01*
X147827816Y-105965511D01*
X147795162Y-105967222D01*
X147478172Y-106017428D01*
X147448529Y-106022123D01*
X147253143Y-106037500D01*
X142111857Y-106037500D01*
X141916471Y-106022123D01*
X141886828Y-106017428D01*
X141569838Y-105967222D01*
X141537184Y-105965511D01*
X141537178Y-105965510D01*
X141215166Y-105948634D01*
X141182500Y-105946922D01*
X141149834Y-105948634D01*
X140827822Y-105965510D01*
X140827816Y-105965511D01*
X140795162Y-105967222D01*
X140478172Y-106017428D01*
X140448529Y-106022123D01*
X140253143Y-106037500D01*
X135111857Y-106037500D01*
X134916471Y-106022123D01*
X134886828Y-106017428D01*
X134569838Y-105967222D01*
X134537184Y-105965511D01*
X134537178Y-105965510D01*
X134215166Y-105948634D01*
X134182500Y-105946922D01*
X134149834Y-105948634D01*
X133827822Y-105965510D01*
X133827816Y-105965511D01*
X133795162Y-105967222D01*
X133478172Y-106017428D01*
X133448529Y-106022123D01*
X133253143Y-106037500D01*
X129262000Y-106037500D01*
X129038982Y-106017428D01*
X128823133Y-105957857D01*
X128621389Y-105860703D01*
X128440235Y-105729086D01*
X128285492Y-105567239D01*
X128162136Y-105380362D01*
X128074130Y-105174462D01*
X128024304Y-104956157D01*
X128013000Y-104788500D01*
X128013000Y-103286500D01*
X128033072Y-103063482D01*
X128092643Y-102847633D01*
X128189797Y-102645889D01*
X128321414Y-102464735D01*
X128483261Y-102309992D01*
X128670138Y-102186636D01*
X128876038Y-102098630D01*
X129094343Y-102048804D01*
X129262000Y-102037500D01*
X196262500Y-102037500D01*
X196415876Y-102026530D01*
X196502643Y-102020325D01*
X196502646Y-102020325D01*
X196547130Y-102017143D01*
X196590710Y-102007663D01*
X196590715Y-102007662D01*
X196667823Y-101990888D01*
X196825965Y-101956486D01*
X197093330Y-101856764D01*
X197343782Y-101720007D01*
X197572221Y-101548999D01*
X197773999Y-101347221D01*
X197945007Y-101118782D01*
X198081764Y-100868330D01*
X198181486Y-100600965D01*
X198242143Y-100322130D01*
X198262500Y-100037500D01*
X198262500Y-99497284D01*
X198282572Y-99274266D01*
X198342143Y-99058417D01*
X198439297Y-98856673D01*
X198448609Y-98841731D01*
X198453814Y-98832716D01*
X198471625Y-98805289D01*
X198647714Y-98459694D01*
X198786714Y-98097587D01*
X198887102Y-97722933D01*
X198947778Y-97339838D01*
X198968078Y-96952500D01*
X198947778Y-96565162D01*
X198887102Y-96182067D01*
X198786714Y-95807413D01*
X198647714Y-95445306D01*
X198471625Y-95099711D01*
X198453808Y-95072275D01*
X198437459Y-95043958D01*
X198439973Y-95042507D01*
X198359369Y-94889997D01*
X198291769Y-94676525D01*
X198263373Y-94454414D01*
X198262500Y-94407716D01*
X198262500Y-86865927D01*
X198245390Y-86604875D01*
X198194352Y-86348289D01*
X198110259Y-86100560D01*
X197994551Y-85865927D01*
X197849207Y-85648404D01*
X197676714Y-85451714D01*
X185877203Y-73652203D01*
X185821329Y-73592548D01*
X185729766Y-73488140D01*
X185630312Y-73358529D01*
X185575929Y-73277138D01*
X185494241Y-73135650D01*
X185450947Y-73047858D01*
X185388430Y-72896931D01*
X185356962Y-72804230D01*
X185314678Y-72646424D01*
X185295579Y-72550406D01*
X185274256Y-72388437D01*
X185265174Y-72249872D01*
X185262500Y-72168184D01*
X185262500Y-65037500D01*
X185242143Y-64752870D01*
X185181486Y-64474035D01*
X185081764Y-64206670D01*
X184945007Y-63956218D01*
X184773999Y-63727779D01*
X184572221Y-63526001D01*
X184343782Y-63354993D01*
X184093330Y-63218236D01*
X183825965Y-63118514D01*
X183667823Y-63084112D01*
X183590715Y-63067338D01*
X183590710Y-63067337D01*
X183547130Y-63057857D01*
X183502646Y-63054675D01*
X183502643Y-63054675D01*
X183415876Y-63048470D01*
X183262500Y-63037500D01*
X173262500Y-63037500D01*
X173109124Y-63048470D01*
X173022357Y-63054675D01*
X173022354Y-63054675D01*
X172977870Y-63057857D01*
X172934290Y-63067337D01*
X172934285Y-63067338D01*
X172857177Y-63084112D01*
X172699035Y-63118514D01*
X172431670Y-63218236D01*
X172181218Y-63354993D01*
X171952779Y-63526001D01*
X171751001Y-63727779D01*
X171579993Y-63956218D01*
X171443236Y-64206670D01*
X171343514Y-64474035D01*
X171282857Y-64752870D01*
X171262500Y-65037500D01*
X171262500Y-70168184D01*
X171259826Y-70249872D01*
X171250744Y-70388437D01*
X171229421Y-70550406D01*
X171210322Y-70646424D01*
X171168038Y-70804230D01*
X171136570Y-70896931D01*
X171074053Y-71047858D01*
X171030759Y-71135650D01*
X170949071Y-71277138D01*
X170894688Y-71358529D01*
X170795234Y-71488140D01*
X170703671Y-71592548D01*
X170647797Y-71652203D01*
X162877203Y-79422797D01*
X162817548Y-79478671D01*
X162713140Y-79570234D01*
X162583531Y-79669687D01*
X162502138Y-79724071D01*
X162360650Y-79805759D01*
X162272858Y-79849053D01*
X162121933Y-79911569D01*
X162029230Y-79943038D01*
X161871424Y-79985322D01*
X161775407Y-80004421D01*
X161613437Y-80025744D01*
X161566053Y-80028850D01*
X161474870Y-80034826D01*
X161393184Y-80037500D01*
X129262000Y-80037500D01*
X129038982Y-80017428D01*
X128823133Y-79957857D01*
X128621389Y-79860703D01*
X128440235Y-79729086D01*
X128285492Y-79567239D01*
X128162136Y-79380362D01*
X128074130Y-79174462D01*
X128024304Y-78956157D01*
X128013000Y-78788500D01*
X128013000Y-77286500D01*
X128033072Y-77063482D01*
X128092643Y-76847633D01*
X128189797Y-76645889D01*
X128321414Y-76464735D01*
X128483261Y-76309992D01*
X128670138Y-76186636D01*
X128876038Y-76098630D01*
X129094343Y-76048804D01*
X129262000Y-76037500D01*
X131341574Y-76037500D01*
X131536960Y-76052877D01*
X131915162Y-76112778D01*
X131947816Y-76114489D01*
X131947822Y-76114490D01*
X132269834Y-76131366D01*
X132302500Y-76133078D01*
X132335166Y-76131366D01*
X132657178Y-76114490D01*
X132657184Y-76114489D01*
X132689838Y-76112778D01*
X133068040Y-76052877D01*
X133263426Y-76037500D01*
X138341574Y-76037500D01*
X138536960Y-76052877D01*
X138915162Y-76112778D01*
X138947816Y-76114489D01*
X138947822Y-76114490D01*
X139269834Y-76131366D01*
X139302500Y-76133078D01*
X139335166Y-76131366D01*
X139657178Y-76114490D01*
X139657184Y-76114489D01*
X139689838Y-76112778D01*
X140068040Y-76052877D01*
X140263426Y-76037500D01*
X145341574Y-76037500D01*
X145536960Y-76052877D01*
X145915162Y-76112778D01*
X145947816Y-76114489D01*
X145947822Y-76114490D01*
X146269834Y-76131366D01*
X146302500Y-76133078D01*
X146335166Y-76131366D01*
X146657178Y-76114490D01*
X146657184Y-76114489D01*
X146689838Y-76112778D01*
X147068040Y-76052877D01*
X147263426Y-76037500D01*
X152341574Y-76037500D01*
X152536960Y-76052877D01*
X152915162Y-76112778D01*
X152947816Y-76114489D01*
X152947822Y-76114490D01*
X153269834Y-76131366D01*
X153302500Y-76133078D01*
X153335166Y-76131366D01*
X153657178Y-76114490D01*
X153657184Y-76114489D01*
X153689838Y-76112778D01*
X154068040Y-76052877D01*
X154263426Y-76037500D01*
X159341574Y-76037500D01*
X159536960Y-76052877D01*
X159915162Y-76112778D01*
X159947816Y-76114489D01*
X159947822Y-76114490D01*
X160269834Y-76131366D01*
X160302500Y-76133078D01*
X160335166Y-76131366D01*
X160657178Y-76114490D01*
X160657184Y-76114489D01*
X160689838Y-76112778D01*
X161072933Y-76052102D01*
X161299528Y-75991386D01*
X161416007Y-75960176D01*
X161416010Y-75960175D01*
X161447587Y-75951714D01*
X161518891Y-75924343D01*
X161779160Y-75824435D01*
X161779161Y-75824434D01*
X161809694Y-75812714D01*
X162155289Y-75636625D01*
X162182704Y-75618821D01*
X162182710Y-75618818D01*
X162453160Y-75443186D01*
X162453168Y-75443180D01*
X162480584Y-75425376D01*
X162782016Y-75181281D01*
X163056281Y-74907016D01*
X163300376Y-74605584D01*
X163318180Y-74578168D01*
X163318186Y-74578160D01*
X163493810Y-74307722D01*
X163493812Y-74307719D01*
X163511625Y-74280289D01*
X163537605Y-74229301D01*
X163656734Y-74039707D01*
X163767295Y-73913159D01*
X164192315Y-73488140D01*
X164624830Y-73055625D01*
X164673578Y-73010048D01*
X164681356Y-73002484D01*
X164706390Y-72980607D01*
X164769955Y-72911843D01*
X164780688Y-72900379D01*
X164791881Y-72888574D01*
X164803658Y-72876797D01*
X164843840Y-72832092D01*
X164855523Y-72819276D01*
X164859626Y-72814838D01*
X164959606Y-72706680D01*
X164974230Y-72687024D01*
X164990607Y-72668804D01*
X165080469Y-72544436D01*
X165090707Y-72530473D01*
X165162430Y-72434074D01*
X165162430Y-72434073D01*
X165182279Y-72407396D01*
X165194732Y-72386297D01*
X165209079Y-72366441D01*
X165285186Y-72233282D01*
X165293928Y-72218233D01*
X165354982Y-72114790D01*
X165354989Y-72114777D01*
X165371888Y-72086145D01*
X165382024Y-72063852D01*
X165394186Y-72042573D01*
X165407523Y-72012117D01*
X165422465Y-71982409D01*
X165423797Y-71983079D01*
X165514138Y-71818697D01*
X165667219Y-71632781D01*
X166676714Y-70623286D01*
X166849207Y-70426596D01*
X166994551Y-70209073D01*
X167110259Y-69974440D01*
X167194352Y-69726711D01*
X167245390Y-69470125D01*
X167262500Y-69209073D01*
X167262500Y-61082112D01*
X167265682Y-60993014D01*
X167276484Y-60841974D01*
X167301845Y-60665585D01*
X167324527Y-60561315D01*
X167374733Y-60390333D01*
X167387720Y-60355514D01*
X167484464Y-60153572D01*
X167615711Y-59972151D01*
X167777243Y-59817080D01*
X167963869Y-59693343D01*
X168169589Y-59604918D01*
X168387792Y-59554648D01*
X168557968Y-59543000D01*
X188508821Y-59543000D01*
X188731839Y-59563072D01*
G37*
G04 #@! TD.AperFunction*
G04 #@! TA.AperFunction,Conductor*
G36*
X206689264Y-49107705D02*
G01*
X206997532Y-49166511D01*
X207295999Y-49263489D01*
X207579958Y-49397110D01*
X207844931Y-49565267D01*
X208086739Y-49765307D01*
X208301569Y-49994077D01*
X208486031Y-50247969D01*
X208551567Y-50358784D01*
X208555456Y-50370209D01*
X208646738Y-50518586D01*
X208768624Y-50643052D01*
X208915056Y-50737421D01*
X208940412Y-50746650D01*
X209195952Y-50911333D01*
X209436358Y-51113057D01*
X209649585Y-51343321D01*
X209832271Y-51598494D01*
X209981535Y-51874551D01*
X210095023Y-52167140D01*
X210170945Y-52471645D01*
X210208103Y-52783264D01*
X210212000Y-52922764D01*
X210212000Y-130488000D01*
X210192295Y-130801208D01*
X210133489Y-131109476D01*
X210036511Y-131407943D01*
X209902890Y-131691902D01*
X209734733Y-131956875D01*
X209534693Y-132198683D01*
X209305923Y-132413513D01*
X209052031Y-132597975D01*
X208777022Y-132749163D01*
X208485233Y-132864690D01*
X208181266Y-132942736D01*
X207869914Y-132982069D01*
X207713000Y-132987000D01*
X158261500Y-132987000D01*
X157948292Y-132967295D01*
X157640024Y-132908489D01*
X157341557Y-132811511D01*
X157057598Y-132677890D01*
X156792625Y-132509733D01*
X156550817Y-132309693D01*
X156335987Y-132080923D01*
X156151525Y-131827031D01*
X156000337Y-131552022D01*
X155884810Y-131260233D01*
X155806764Y-130956266D01*
X155767431Y-130644914D01*
X155762500Y-130488000D01*
X155762500Y-123567631D01*
X155782205Y-123254423D01*
X155841011Y-122946155D01*
X155937989Y-122647688D01*
X156039849Y-122423399D01*
X156092213Y-122321728D01*
X156092216Y-122321721D01*
X156124673Y-122258703D01*
X156247014Y-121935790D01*
X156332013Y-121601102D01*
X156378579Y-121258945D01*
X156383000Y-121146421D01*
X156383000Y-120555462D01*
X156402705Y-120242254D01*
X156461511Y-119933986D01*
X156558489Y-119635519D01*
X156692110Y-119351560D01*
X156860267Y-119086587D01*
X157060307Y-118844779D01*
X157289077Y-118629949D01*
X157542969Y-118445487D01*
X157817978Y-118294299D01*
X158109767Y-118178772D01*
X158413734Y-118100726D01*
X158725086Y-118061393D01*
X159038914Y-118061393D01*
X159350266Y-118100726D01*
X159573816Y-118154131D01*
X159618485Y-118167000D01*
X159883017Y-118259565D01*
X159934518Y-118280898D01*
X160186969Y-118402473D01*
X160235752Y-118429434D01*
X160473032Y-118578524D01*
X160518506Y-118610790D01*
X160737621Y-118785528D01*
X160779209Y-118822694D01*
X160977306Y-119020791D01*
X161014472Y-119062379D01*
X161189229Y-119281521D01*
X161201115Y-119298272D01*
X161366284Y-119565118D01*
X161496705Y-119850561D01*
X161590322Y-120150100D01*
X161645658Y-120459009D01*
X161662000Y-120744331D01*
X161662000Y-121087850D01*
X161665274Y-121132971D01*
X161670376Y-121203287D01*
X161676406Y-121286398D01*
X161689381Y-121345167D01*
X161689382Y-121345175D01*
X161703735Y-121410184D01*
X161752017Y-121720275D01*
X161762500Y-121948934D01*
X161762500Y-122037500D01*
X161781363Y-122373393D01*
X161837716Y-122705063D01*
X161930850Y-123028337D01*
X162059593Y-123339151D01*
X162222327Y-123633596D01*
X162417006Y-123907969D01*
X162641180Y-124158820D01*
X162892031Y-124382994D01*
X163166404Y-124577673D01*
X163227772Y-124611590D01*
X163227777Y-124611593D01*
X163295355Y-124648942D01*
X163460849Y-124740407D01*
X163771663Y-124869150D01*
X164094937Y-124962284D01*
X164426607Y-125018637D01*
X164762500Y-125037500D01*
X191762500Y-125037500D01*
X192098393Y-125018637D01*
X192430063Y-124962284D01*
X192753337Y-124869150D01*
X193064151Y-124740407D01*
X193229645Y-124648942D01*
X193297223Y-124611593D01*
X193297228Y-124611590D01*
X193358596Y-124577673D01*
X193632969Y-124382994D01*
X193883820Y-124158820D01*
X194107994Y-123907969D01*
X194302673Y-123633596D01*
X194465407Y-123339151D01*
X194475478Y-123314837D01*
X194609982Y-123075294D01*
X194712057Y-122929284D01*
X194728914Y-122906914D01*
X194774718Y-122852808D01*
X194851817Y-122737421D01*
X194927181Y-122624631D01*
X194927184Y-122624626D01*
X194966563Y-122565691D01*
X195018451Y-122464946D01*
X195087921Y-122330061D01*
X195124673Y-122258703D01*
X195247014Y-121935790D01*
X195332013Y-121601102D01*
X195378579Y-121258945D01*
X195383000Y-121146421D01*
X195383000Y-121036500D01*
X195402705Y-120723292D01*
X195461511Y-120415024D01*
X195558489Y-120116557D01*
X195692110Y-119832598D01*
X195860267Y-119567625D01*
X196060307Y-119325817D01*
X196289077Y-119110987D01*
X196542969Y-118926525D01*
X196817978Y-118775337D01*
X197109767Y-118659810D01*
X197413734Y-118581764D01*
X197725086Y-118542431D01*
X197882000Y-118537500D01*
X198163000Y-118537500D01*
X198476208Y-118557205D01*
X198784476Y-118616011D01*
X199082943Y-118712989D01*
X199366902Y-118846610D01*
X199631875Y-119014767D01*
X199873683Y-119214807D01*
X200088513Y-119443577D01*
X200272975Y-119697469D01*
X200424163Y-119972478D01*
X200539690Y-120264267D01*
X200617736Y-120568234D01*
X200657069Y-120879586D01*
X200662000Y-121036500D01*
X200662000Y-121087850D01*
X200665274Y-121132971D01*
X200670376Y-121203287D01*
X200676406Y-121286398D01*
X200689382Y-121345172D01*
X200715363Y-121462849D01*
X200733989Y-121547216D01*
X200828620Y-121796989D01*
X200857842Y-121849599D01*
X200857845Y-121849605D01*
X200905717Y-121935790D01*
X200958316Y-122030486D01*
X200994827Y-122078326D01*
X200994829Y-122078330D01*
X201033808Y-122129404D01*
X201120360Y-122242814D01*
X201311358Y-122429527D01*
X201527308Y-122586712D01*
X201580566Y-122614732D01*
X201580567Y-122614733D01*
X201670852Y-122662234D01*
X201763687Y-122711077D01*
X201820424Y-122731113D01*
X201820429Y-122731115D01*
X201941488Y-122773865D01*
X201941493Y-122773866D01*
X202015543Y-122800016D01*
X202277600Y-122851667D01*
X202544368Y-122864948D01*
X202604268Y-122859233D01*
X202604272Y-122859233D01*
X202732079Y-122847039D01*
X202732080Y-122847039D01*
X202810259Y-122839580D01*
X202984256Y-122797003D01*
X202993423Y-122794760D01*
X202993427Y-122794759D01*
X203069703Y-122776094D01*
X203317265Y-122675821D01*
X203421596Y-122614733D01*
X203479991Y-122580541D01*
X203479993Y-122580540D01*
X203547759Y-122540861D01*
X203756357Y-122374042D01*
X203805233Y-122321721D01*
X203885073Y-122236252D01*
X203885075Y-122236250D01*
X203938688Y-122178857D01*
X204090933Y-121959397D01*
X204209903Y-121720257D01*
X204293106Y-121466448D01*
X204338798Y-121203287D01*
X204343000Y-121118885D01*
X204343000Y-119432150D01*
X204335285Y-119325817D01*
X204334278Y-119311936D01*
X204334277Y-119311931D01*
X204328594Y-119233602D01*
X204271011Y-118972784D01*
X204214147Y-118822694D01*
X204204207Y-118796458D01*
X204204205Y-118796454D01*
X204176380Y-118723011D01*
X204162037Y-118697189D01*
X204065021Y-118441121D01*
X203991493Y-118136029D01*
X203956783Y-117824128D01*
X203961438Y-117510335D01*
X204005385Y-117199601D01*
X204086528Y-116900945D01*
X204148950Y-116717058D01*
X204175248Y-116639587D01*
X204240593Y-116311073D01*
X204262500Y-115976840D01*
X204262500Y-75280141D01*
X204243637Y-74944247D01*
X204187284Y-74612578D01*
X204141557Y-74453858D01*
X204113557Y-74356665D01*
X204113554Y-74356656D01*
X204094150Y-74289304D01*
X203965407Y-73978489D01*
X203802673Y-73684044D01*
X203607994Y-73409671D01*
X203561273Y-73357390D01*
X203407187Y-73184967D01*
X203407176Y-73184955D01*
X203383820Y-73158820D01*
X201883125Y-71658125D01*
X201675588Y-71422720D01*
X201499191Y-71163159D01*
X201356716Y-70883538D01*
X201328282Y-70815061D01*
X201288021Y-70713890D01*
X201263020Y-70651065D01*
X201095736Y-70335120D01*
X200895309Y-70039090D01*
X200851583Y-69987530D01*
X200851576Y-69987521D01*
X200707820Y-69818011D01*
X200664082Y-69766437D01*
X200615031Y-69719889D01*
X200453814Y-69566899D01*
X200453807Y-69566893D01*
X200404762Y-69520351D01*
X200120381Y-69303711D01*
X200062492Y-69268790D01*
X200062486Y-69268786D01*
X199872176Y-69153984D01*
X199814267Y-69119051D01*
X199752929Y-69090579D01*
X199752920Y-69090574D01*
X199551344Y-68997006D01*
X199490000Y-68968531D01*
X199454940Y-68956664D01*
X199195268Y-68833362D01*
X198930884Y-68664281D01*
X198689776Y-68463397D01*
X198639748Y-68414748D01*
X198234182Y-68009182D01*
X198026645Y-67773777D01*
X197886532Y-67567607D01*
X197663864Y-67414000D01*
X197442195Y-67217195D01*
X193690336Y-63465336D01*
X201032000Y-63465336D01*
X201032321Y-63471672D01*
X201073041Y-63673622D01*
X201152211Y-63863816D01*
X201238851Y-63993236D01*
X201266816Y-64035010D01*
X201264356Y-64036657D01*
X201322250Y-64123136D01*
X201411790Y-64181730D01*
X201412490Y-64180684D01*
X201583684Y-64295289D01*
X201623941Y-64312046D01*
X201623949Y-64312050D01*
X201656180Y-64325466D01*
X201773878Y-64374459D01*
X201816623Y-64383078D01*
X201816632Y-64383080D01*
X201898842Y-64399656D01*
X201975828Y-64415179D01*
X201982164Y-64415500D01*
X203782836Y-64415500D01*
X203789172Y-64415179D01*
X203991122Y-64374459D01*
X204181316Y-64295289D01*
X204352510Y-64180684D01*
X204498184Y-64035010D01*
X204612789Y-63863816D01*
X204691959Y-63673622D01*
X204732679Y-63471672D01*
X204733000Y-63465336D01*
X204733000Y-60164664D01*
X204732679Y-60158328D01*
X204691959Y-59956378D01*
X204612789Y-59766184D01*
X204498184Y-59594990D01*
X204352510Y-59449316D01*
X204181316Y-59334711D01*
X204141059Y-59317954D01*
X204141051Y-59317950D01*
X204080686Y-59292823D01*
X203991122Y-59255541D01*
X203948377Y-59246922D01*
X203948368Y-59246920D01*
X203866158Y-59230344D01*
X203789172Y-59214821D01*
X203782836Y-59214500D01*
X201982164Y-59214500D01*
X201975828Y-59214821D01*
X201773878Y-59255541D01*
X201583684Y-59334711D01*
X201412490Y-59449316D01*
X201266816Y-59594990D01*
X201152211Y-59766184D01*
X201073041Y-59956378D01*
X201032321Y-60158328D01*
X201032000Y-60164664D01*
X201032000Y-63465336D01*
X193690336Y-63465336D01*
X193190749Y-62965749D01*
X193094478Y-62863920D01*
X193010509Y-62769959D01*
X192835790Y-62550866D01*
X192803524Y-62505392D01*
X192654453Y-62268147D01*
X192627491Y-62219364D01*
X192505879Y-61966834D01*
X192484548Y-61915335D01*
X192391998Y-61650838D01*
X192376564Y-61597265D01*
X192314213Y-61324094D01*
X192304874Y-61269127D01*
X192273494Y-60990628D01*
X192266431Y-60864849D01*
X192262500Y-60724741D01*
X192262500Y-59537500D01*
X192248110Y-59317950D01*
X192246463Y-59292823D01*
X192246463Y-59292821D01*
X192241112Y-59211185D01*
X192177315Y-58890452D01*
X192072199Y-58580791D01*
X191927564Y-58287500D01*
X191745883Y-58015596D01*
X191530267Y-57769733D01*
X191284404Y-57554117D01*
X191012500Y-57372436D01*
X190719209Y-57227801D01*
X190409548Y-57122685D01*
X190088815Y-57058888D01*
X190007179Y-57053537D01*
X190007177Y-57053537D01*
X189968189Y-57050982D01*
X189762500Y-57037500D01*
X143012500Y-57037500D01*
X142718816Y-57056749D01*
X142430157Y-57114167D01*
X142151462Y-57208771D01*
X141887500Y-57338943D01*
X141642787Y-57502455D01*
X141421510Y-57696510D01*
X141227455Y-57917787D01*
X141226429Y-57916887D01*
X141090405Y-58072814D01*
X140856091Y-58281582D01*
X140621937Y-58440563D01*
X140621952Y-58440585D01*
X140620080Y-58441824D01*
X140573043Y-58473760D01*
X140501594Y-58515428D01*
X140444795Y-58557842D01*
X140444792Y-58557844D01*
X140365605Y-58616976D01*
X140224912Y-58722037D01*
X140173278Y-58770610D01*
X140173276Y-58770611D01*
X140041003Y-58895041D01*
X139973396Y-58958639D01*
X139750282Y-59222192D01*
X139668970Y-59343885D01*
X139611703Y-59429591D01*
X139558437Y-59509309D01*
X139525983Y-59572321D01*
X139525980Y-59572327D01*
X139484996Y-59651902D01*
X139400327Y-59816297D01*
X139277986Y-60139210D01*
X139192987Y-60473898D01*
X139146421Y-60816055D01*
X139142000Y-60928579D01*
X139142000Y-61538500D01*
X139122295Y-61851708D01*
X139063489Y-62159976D01*
X138966511Y-62458443D01*
X138832890Y-62742402D01*
X138664733Y-63007375D01*
X138464693Y-63249183D01*
X138235923Y-63464013D01*
X137982031Y-63648475D01*
X137707022Y-63799663D01*
X137415233Y-63915190D01*
X137111266Y-63993236D01*
X136799914Y-64032569D01*
X136643000Y-64037500D01*
X136362000Y-64037500D01*
X136048792Y-64017795D01*
X135740524Y-63958989D01*
X135442057Y-63862011D01*
X135158098Y-63728390D01*
X134893125Y-63560233D01*
X134651317Y-63360193D01*
X134436487Y-63131423D01*
X134252025Y-62877531D01*
X134100837Y-62602522D01*
X133985310Y-62310733D01*
X133907264Y-62006766D01*
X133867931Y-61695414D01*
X133863000Y-61538500D01*
X133863000Y-60987150D01*
X133854935Y-60875991D01*
X133854278Y-60866936D01*
X133854277Y-60866931D01*
X133848594Y-60788602D01*
X133813401Y-60629197D01*
X133807943Y-60604475D01*
X133807942Y-60604471D01*
X133791011Y-60527784D01*
X133696380Y-60278011D01*
X133667158Y-60225401D01*
X133667155Y-60225395D01*
X133604820Y-60113172D01*
X133566684Y-60044514D01*
X133525171Y-59990118D01*
X133452280Y-59894609D01*
X133452279Y-59894607D01*
X133404640Y-59832186D01*
X133338640Y-59767666D01*
X133269800Y-59700371D01*
X133269799Y-59700370D01*
X133213642Y-59645473D01*
X132997692Y-59488288D01*
X132925620Y-59450369D01*
X132830810Y-59400487D01*
X132830808Y-59400486D01*
X132761313Y-59363923D01*
X132704576Y-59343887D01*
X132704571Y-59343885D01*
X132583512Y-59301135D01*
X132583507Y-59301134D01*
X132509457Y-59274984D01*
X132247400Y-59223333D01*
X131980632Y-59210052D01*
X131920732Y-59215767D01*
X131920728Y-59215767D01*
X131792921Y-59227961D01*
X131714741Y-59235420D01*
X131600618Y-59263346D01*
X131531577Y-59280240D01*
X131531573Y-59280241D01*
X131455297Y-59298906D01*
X131207735Y-59399179D01*
X131155797Y-59429590D01*
X131155795Y-59429591D01*
X131045009Y-59494459D01*
X130977241Y-59534139D01*
X130768643Y-59700958D01*
X130727560Y-59744937D01*
X130727557Y-59744940D01*
X130638167Y-59840632D01*
X130409960Y-60056060D01*
X130156552Y-60241187D01*
X129881941Y-60393094D01*
X129590455Y-60509386D01*
X129286693Y-60588227D01*
X128975445Y-60628375D01*
X128661619Y-60629197D01*
X128350164Y-60590680D01*
X128045994Y-60513431D01*
X127753903Y-60398668D01*
X127478499Y-60248201D01*
X127224126Y-60064404D01*
X126994794Y-59850174D01*
X126794120Y-59608891D01*
X126625270Y-59344359D01*
X126490906Y-59060751D01*
X126393147Y-58762539D01*
X126333534Y-58454426D01*
X126313000Y-58134726D01*
X126313000Y-52924297D01*
X126332705Y-52611089D01*
X126391511Y-52302821D01*
X126488489Y-52004354D01*
X126622110Y-51720395D01*
X126790267Y-51455422D01*
X126990307Y-51213614D01*
X127219077Y-50998784D01*
X127472969Y-50814322D01*
X127585250Y-50747388D01*
X127600137Y-50742204D01*
X127747873Y-50649888D01*
X127871485Y-50527136D01*
X127964829Y-50380049D01*
X127971692Y-50360775D01*
X128125678Y-50118130D01*
X128325718Y-49876322D01*
X128554488Y-49661492D01*
X128808379Y-49477028D01*
X129083387Y-49325840D01*
X129375176Y-49210312D01*
X129679143Y-49132266D01*
X129990495Y-49092932D01*
X130147416Y-49088000D01*
X206376056Y-49088000D01*
X206689264Y-49107705D01*
G37*
G04 #@! TD.AperFunction*
M02*
