G04 #@! TF.GenerationSoftware,KiCad,Pcbnew,6.0.10+dfsg-1~bpo11+1*
G04 #@! TF.ProjectId,project,70726f6a-6563-4742-9e6b-696361645f70,rev?*
G04 #@! TF.SameCoordinates,Original*
G04 #@! TF.FileFunction,Soldermask,Bot*
G04 #@! TF.FilePolarity,Negative*
%FSLAX46Y46*%
G04 Gerber Fmt 4.6, Leading zero omitted, Abs format (unit mm)*
%MOMM*%
%LPD*%
G01*
G04 APERTURE LIST*
G04 #@! TA.AperFunction,Profile*
%ADD10C,0.100000*%
G04 #@! TD*
%ADD11C,2.400000*%
%ADD12O,2.080000X3.600000*%
%ADD13O,2.100000X3.600000*%
%ADD14C,1.552000*%
%ADD15C,5.000000*%
G04 APERTURE END LIST*
D10*
X211012500Y-48287500D02*
X211012500Y-133787500D01*
X211012500Y-133787500D02*
X125512500Y-133787500D01*
X125512500Y-48287500D02*
X211012500Y-48287500D01*
X125512500Y-133787500D02*
X125512500Y-48287500D01*
D11*
X132302500Y-87667500D03*
X132302500Y-77507500D03*
X132302500Y-72427500D03*
X127222500Y-85127500D03*
X148182500Y-94412500D03*
X148182500Y-104572500D03*
X148182500Y-109652500D03*
X153262500Y-96952500D03*
G36*
G01*
X131982500Y-121810001D02*
X131982500Y-118709999D01*
G75*
G02*
X132232499Y-118460000I249999J0D01*
G01*
X133812501Y-118460000D01*
G75*
G02*
X134062500Y-118709999I0J-249999D01*
G01*
X134062500Y-121810001D01*
G75*
G02*
X133812501Y-122060000I-249999J0D01*
G01*
X132232499Y-122060000D01*
G75*
G02*
X131982500Y-121810001I0J249999D01*
G01*
G37*
D12*
X138102500Y-120260000D03*
X143182500Y-120260000D03*
X148262500Y-120260000D03*
X153342500Y-120260000D03*
X158422500Y-120260000D03*
X163502500Y-120260000D03*
G36*
G01*
X203932500Y-60265001D02*
X203932500Y-63364999D01*
G75*
G02*
X203682499Y-63615000I-250001J0D01*
G01*
X202082501Y-63615000D01*
G75*
G02*
X201832500Y-63364999I0J250001D01*
G01*
X201832500Y-60265001D01*
G75*
G02*
X202082501Y-60015000I250001J0D01*
G01*
X203682499Y-60015000D01*
G75*
G02*
X203932500Y-60265001I0J-250001D01*
G01*
G37*
D13*
X195262500Y-61815000D03*
X187642500Y-61815000D03*
D11*
X141182500Y-94412500D03*
X141182500Y-104572500D03*
X141182500Y-109652500D03*
X146262500Y-96952500D03*
D14*
X127262500Y-122037500D03*
D11*
X176182500Y-94412500D03*
X176182500Y-104572500D03*
X176182500Y-109652500D03*
X181262500Y-96952500D03*
X153302500Y-87667500D03*
X153302500Y-77507500D03*
X153302500Y-72427500D03*
X148222500Y-85127500D03*
X127182500Y-94412500D03*
X127182500Y-104572500D03*
X127182500Y-109652500D03*
X132262500Y-96952500D03*
X155182500Y-94412500D03*
X155182500Y-104572500D03*
X155182500Y-109652500D03*
X160262500Y-96952500D03*
G36*
G01*
X163542500Y-60264999D02*
X163542500Y-63365001D01*
G75*
G02*
X163292501Y-63615000I-249999J0D01*
G01*
X161712499Y-63615000D01*
G75*
G02*
X161462500Y-63365001I0J249999D01*
G01*
X161462500Y-60264999D01*
G75*
G02*
X161712499Y-60015000I249999J0D01*
G01*
X163292501Y-60015000D01*
G75*
G02*
X163542500Y-60264999I0J-249999D01*
G01*
G37*
D12*
X157422500Y-61815000D03*
X152342500Y-61815000D03*
X147262500Y-61815000D03*
X142182500Y-61815000D03*
X137102500Y-61815000D03*
X132022500Y-61815000D03*
D11*
X169182500Y-94412500D03*
X169182500Y-104572500D03*
X169182500Y-109652500D03*
X174262500Y-96952500D03*
D14*
X127262500Y-50037500D03*
D15*
X198262500Y-72037500D03*
D14*
X209262500Y-50037500D03*
D11*
X146302500Y-87667500D03*
X146302500Y-77507500D03*
X146302500Y-72427500D03*
X141222500Y-85127500D03*
G36*
G01*
X170982500Y-121810001D02*
X170982500Y-118709999D01*
G75*
G02*
X171232499Y-118460000I249999J0D01*
G01*
X172812501Y-118460000D01*
G75*
G02*
X173062500Y-118709999I0J-249999D01*
G01*
X173062500Y-121810001D01*
G75*
G02*
X172812501Y-122060000I-249999J0D01*
G01*
X171232499Y-122060000D01*
G75*
G02*
X170982500Y-121810001I0J249999D01*
G01*
G37*
D12*
X177102500Y-120260000D03*
X182182500Y-120260000D03*
X187262500Y-120260000D03*
X192342500Y-120260000D03*
X197422500Y-120260000D03*
X202502500Y-120260000D03*
D11*
X162182500Y-94412500D03*
X162182500Y-104572500D03*
X162182500Y-109652500D03*
X167262500Y-96952500D03*
X183182500Y-94412500D03*
X183182500Y-104572500D03*
X183182500Y-109652500D03*
X188262500Y-96952500D03*
X190182500Y-94412500D03*
X190182500Y-104572500D03*
X190182500Y-109652500D03*
X195262500Y-96952500D03*
X160302500Y-87667500D03*
X160302500Y-77507500D03*
X160302500Y-72427500D03*
X155222500Y-85127500D03*
X139302500Y-87667500D03*
X139302500Y-77507500D03*
X139302500Y-72427500D03*
X134222500Y-85127500D03*
X134182500Y-94412500D03*
X134182500Y-104572500D03*
X134182500Y-109652500D03*
X139262500Y-96952500D03*
M02*
