G04 #@! TF.GenerationSoftware,KiCad,Pcbnew,6.0.10+dfsg-1~bpo11+1*
G04 #@! TF.ProjectId,project,70726f6a-6563-4742-9e6b-696361645f70,rev?*
G04 #@! TF.SameCoordinates,Original*
G04 #@! TF.FileFunction,Copper,L1,Top*
G04 #@! TF.FilePolarity,Positive*
%FSLAX46Y46*%
G04 Gerber Fmt 4.6, Leading zero omitted, Abs format (unit mm)*
%MOMM*%
%LPD*%
G01*
G04 APERTURE LIST*
G04 #@! TA.AperFunction,Profile*
%ADD10C,0.100000*%
G04 #@! TD*
G04 #@! TA.AperFunction,SMDPad,CuDef*
%ADD11R,1.000000X1.000000*%
G04 #@! TD*
G04 #@! TA.AperFunction,ComponentPad*
%ADD12C,2.400000*%
G04 #@! TD*
G04 #@! TA.AperFunction,ComponentPad*
%ADD13O,2.080000X3.600000*%
G04 #@! TD*
G04 #@! TA.AperFunction,ComponentPad*
%ADD14O,2.100000X3.600000*%
G04 #@! TD*
G04 #@! TA.AperFunction,SMDPad,CuDef*
%ADD15R,0.300000X1.300000*%
G04 #@! TD*
G04 #@! TA.AperFunction,SMDPad,CuDef*
%ADD16R,2.000000X3.000000*%
G04 #@! TD*
G04 #@! TA.AperFunction,SMDPad,CuDef*
%ADD17C,7.000000*%
G04 #@! TD*
G04 #@! TA.AperFunction,ComponentPad*
%ADD18C,5.000000*%
G04 #@! TD*
G04 #@! TA.AperFunction,ViaPad*
%ADD19C,0.500000*%
G04 #@! TD*
G04 #@! TA.AperFunction,ViaPad*
%ADD20C,0.700000*%
G04 #@! TD*
G04 #@! TA.AperFunction,Conductor*
%ADD21C,0.300000*%
G04 #@! TD*
G04 #@! TA.AperFunction,Conductor*
%ADD22C,1.000000*%
G04 #@! TD*
G04 #@! TA.AperFunction,Conductor*
%ADD23C,0.500000*%
G04 #@! TD*
G04 #@! TA.AperFunction,Conductor*
%ADD24C,1.500000*%
G04 #@! TD*
G04 #@! TA.AperFunction,Conductor*
%ADD25C,2.500000*%
G04 #@! TD*
G04 APERTURE END LIST*
D10*
X125512500Y-133037500D02*
G75*
G03*
X126512500Y-134037500I1000000J0D01*
G01*
X211012500Y-49037500D02*
X211012500Y-133037500D01*
X210012500Y-134037500D02*
X126512500Y-134037500D01*
X126512500Y-48037500D02*
X210012500Y-48037500D01*
X210012500Y-134037500D02*
G75*
G03*
X211012500Y-133037500I0J1000000D01*
G01*
X211012500Y-49037500D02*
G75*
G03*
X210012500Y-48037500I-1000000J0D01*
G01*
X126512500Y-48037500D02*
G75*
G03*
X125512500Y-49037500I0J-1000000D01*
G01*
X125512500Y-133037500D02*
X125512500Y-49037500D01*
D11*
X139012500Y-91037500D03*
X141512500Y-91037500D03*
D12*
X132302500Y-87667500D03*
X132302500Y-77507500D03*
X132302500Y-72427500D03*
X127222500Y-85127500D03*
X148182500Y-94412500D03*
X148182500Y-104572500D03*
X148182500Y-109652500D03*
X153262500Y-96952500D03*
D11*
X147012500Y-91037500D03*
X149512500Y-91037500D03*
X153512500Y-91037500D03*
X151012500Y-91037500D03*
G04 #@! TA.AperFunction,SMDPad,CuDef*
G36*
G01*
X192662500Y-88587500D02*
X192662500Y-89487500D01*
G75*
G02*
X192412500Y-89737500I-250000J0D01*
G01*
X191762500Y-89737500D01*
G75*
G02*
X191512500Y-89487500I0J250000D01*
G01*
X191512500Y-88587500D01*
G75*
G02*
X191762500Y-88337500I250000J0D01*
G01*
X192412500Y-88337500D01*
G75*
G02*
X192662500Y-88587500I0J-250000D01*
G01*
G37*
G04 #@! TD.AperFunction*
G04 #@! TA.AperFunction,SMDPad,CuDef*
G36*
G01*
X190612500Y-88587500D02*
X190612500Y-89487500D01*
G75*
G02*
X190362500Y-89737500I-250000J0D01*
G01*
X189712500Y-89737500D01*
G75*
G02*
X189462500Y-89487500I0J250000D01*
G01*
X189462500Y-88587500D01*
G75*
G02*
X189712500Y-88337500I250000J0D01*
G01*
X190362500Y-88337500D01*
G75*
G02*
X190612500Y-88587500I0J-250000D01*
G01*
G37*
G04 #@! TD.AperFunction*
X161512500Y-91037500D03*
X159012500Y-91037500D03*
G04 #@! TA.AperFunction,ComponentPad*
G36*
G01*
X131982500Y-120310001D02*
X131982500Y-117209999D01*
G75*
G02*
X132232499Y-116960000I249999J0D01*
G01*
X133812501Y-116960000D01*
G75*
G02*
X134062500Y-117209999I0J-249999D01*
G01*
X134062500Y-120310001D01*
G75*
G02*
X133812501Y-120560000I-249999J0D01*
G01*
X132232499Y-120560000D01*
G75*
G02*
X131982500Y-120310001I0J249999D01*
G01*
G37*
G04 #@! TD.AperFunction*
D13*
X138102500Y-118760000D03*
X143182500Y-118760000D03*
X148262500Y-118760000D03*
X153342500Y-118760000D03*
X158422500Y-118760000D03*
X163502500Y-118760000D03*
G04 #@! TA.AperFunction,SMDPad,CuDef*
G36*
G01*
X179612500Y-67700000D02*
X179912500Y-67700000D01*
G75*
G02*
X180062500Y-67850000I0J-150000D01*
G01*
X180062500Y-68875000D01*
G75*
G02*
X179912500Y-69025000I-150000J0D01*
G01*
X179612500Y-69025000D01*
G75*
G02*
X179462500Y-68875000I0J150000D01*
G01*
X179462500Y-67850000D01*
G75*
G02*
X179612500Y-67700000I150000J0D01*
G01*
G37*
G04 #@! TD.AperFunction*
G04 #@! TA.AperFunction,SMDPad,CuDef*
G36*
G01*
X178662500Y-67700000D02*
X178962500Y-67700000D01*
G75*
G02*
X179112500Y-67850000I0J-150000D01*
G01*
X179112500Y-68875000D01*
G75*
G02*
X178962500Y-69025000I-150000J0D01*
G01*
X178662500Y-69025000D01*
G75*
G02*
X178512500Y-68875000I0J150000D01*
G01*
X178512500Y-67850000D01*
G75*
G02*
X178662500Y-67700000I150000J0D01*
G01*
G37*
G04 #@! TD.AperFunction*
G04 #@! TA.AperFunction,SMDPad,CuDef*
G36*
G01*
X177712500Y-67700000D02*
X178012500Y-67700000D01*
G75*
G02*
X178162500Y-67850000I0J-150000D01*
G01*
X178162500Y-68875000D01*
G75*
G02*
X178012500Y-69025000I-150000J0D01*
G01*
X177712500Y-69025000D01*
G75*
G02*
X177562500Y-68875000I0J150000D01*
G01*
X177562500Y-67850000D01*
G75*
G02*
X177712500Y-67700000I150000J0D01*
G01*
G37*
G04 #@! TD.AperFunction*
G04 #@! TA.AperFunction,SMDPad,CuDef*
G36*
G01*
X177712500Y-69975000D02*
X178012500Y-69975000D01*
G75*
G02*
X178162500Y-70125000I0J-150000D01*
G01*
X178162500Y-71150000D01*
G75*
G02*
X178012500Y-71300000I-150000J0D01*
G01*
X177712500Y-71300000D01*
G75*
G02*
X177562500Y-71150000I0J150000D01*
G01*
X177562500Y-70125000D01*
G75*
G02*
X177712500Y-69975000I150000J0D01*
G01*
G37*
G04 #@! TD.AperFunction*
G04 #@! TA.AperFunction,SMDPad,CuDef*
G36*
G01*
X178662500Y-69975000D02*
X178962500Y-69975000D01*
G75*
G02*
X179112500Y-70125000I0J-150000D01*
G01*
X179112500Y-71150000D01*
G75*
G02*
X178962500Y-71300000I-150000J0D01*
G01*
X178662500Y-71300000D01*
G75*
G02*
X178512500Y-71150000I0J150000D01*
G01*
X178512500Y-70125000D01*
G75*
G02*
X178662500Y-69975000I150000J0D01*
G01*
G37*
G04 #@! TD.AperFunction*
G04 #@! TA.AperFunction,SMDPad,CuDef*
G36*
G01*
X179612500Y-69975000D02*
X179912500Y-69975000D01*
G75*
G02*
X180062500Y-70125000I0J-150000D01*
G01*
X180062500Y-71150000D01*
G75*
G02*
X179912500Y-71300000I-150000J0D01*
G01*
X179612500Y-71300000D01*
G75*
G02*
X179462500Y-71150000I0J150000D01*
G01*
X179462500Y-70125000D01*
G75*
G02*
X179612500Y-69975000I150000J0D01*
G01*
G37*
G04 #@! TD.AperFunction*
G04 #@! TA.AperFunction,ComponentPad*
G36*
G01*
X203932500Y-61765001D02*
X203932500Y-64864999D01*
G75*
G02*
X203682499Y-65115000I-250001J0D01*
G01*
X202082501Y-65115000D01*
G75*
G02*
X201832500Y-64864999I0J250001D01*
G01*
X201832500Y-61765001D01*
G75*
G02*
X202082501Y-61515000I250001J0D01*
G01*
X203682499Y-61515000D01*
G75*
G02*
X203932500Y-61765001I0J-250001D01*
G01*
G37*
G04 #@! TD.AperFunction*
D14*
X195262500Y-63315000D03*
X187642500Y-63315000D03*
D12*
X141182500Y-94412500D03*
X141182500Y-104572500D03*
X141182500Y-109652500D03*
X146262500Y-96952500D03*
X176182500Y-94412500D03*
X176182500Y-104572500D03*
X176182500Y-109652500D03*
X181262500Y-96952500D03*
D11*
X163012500Y-91037500D03*
X165512500Y-91037500D03*
D12*
X153302500Y-87667500D03*
X153302500Y-77507500D03*
X153302500Y-72427500D03*
X148222500Y-85127500D03*
G04 #@! TA.AperFunction,SMDPad,CuDef*
G36*
G01*
X185662500Y-87487500D02*
X185662500Y-86587500D01*
G75*
G02*
X185912500Y-86337500I250000J0D01*
G01*
X186612500Y-86337500D01*
G75*
G02*
X186862500Y-86587500I0J-250000D01*
G01*
X186862500Y-87487500D01*
G75*
G02*
X186612500Y-87737500I-250000J0D01*
G01*
X185912500Y-87737500D01*
G75*
G02*
X185662500Y-87487500I0J250000D01*
G01*
G37*
G04 #@! TD.AperFunction*
G04 #@! TA.AperFunction,SMDPad,CuDef*
G36*
G01*
X187662500Y-87487500D02*
X187662500Y-86587500D01*
G75*
G02*
X187912500Y-86337500I250000J0D01*
G01*
X188612500Y-86337500D01*
G75*
G02*
X188862500Y-86587500I0J-250000D01*
G01*
X188862500Y-87487500D01*
G75*
G02*
X188612500Y-87737500I-250000J0D01*
G01*
X187912500Y-87737500D01*
G75*
G02*
X187662500Y-87487500I0J250000D01*
G01*
G37*
G04 #@! TD.AperFunction*
X127182500Y-94412500D03*
X127182500Y-104572500D03*
X127182500Y-109652500D03*
X132262500Y-96952500D03*
G04 #@! TA.AperFunction,SMDPad,CuDef*
G36*
G01*
X161637500Y-85512500D02*
X161637500Y-84562500D01*
G75*
G02*
X161887500Y-84312500I250000J0D01*
G01*
X162562500Y-84312500D01*
G75*
G02*
X162812500Y-84562500I0J-250000D01*
G01*
X162812500Y-85512500D01*
G75*
G02*
X162562500Y-85762500I-250000J0D01*
G01*
X161887500Y-85762500D01*
G75*
G02*
X161637500Y-85512500I0J250000D01*
G01*
G37*
G04 #@! TD.AperFunction*
G04 #@! TA.AperFunction,SMDPad,CuDef*
G36*
G01*
X163712500Y-85512500D02*
X163712500Y-84562500D01*
G75*
G02*
X163962500Y-84312500I250000J0D01*
G01*
X164637500Y-84312500D01*
G75*
G02*
X164887500Y-84562500I0J-250000D01*
G01*
X164887500Y-85512500D01*
G75*
G02*
X164637500Y-85762500I-250000J0D01*
G01*
X163962500Y-85762500D01*
G75*
G02*
X163712500Y-85512500I0J250000D01*
G01*
G37*
G04 #@! TD.AperFunction*
X155182500Y-94412500D03*
X155182500Y-104572500D03*
X155182500Y-109652500D03*
X160262500Y-96952500D03*
G04 #@! TA.AperFunction,ComponentPad*
G36*
G01*
X163542500Y-61764999D02*
X163542500Y-64865001D01*
G75*
G02*
X163292501Y-65115000I-249999J0D01*
G01*
X161712499Y-65115000D01*
G75*
G02*
X161462500Y-64865001I0J249999D01*
G01*
X161462500Y-61764999D01*
G75*
G02*
X161712499Y-61515000I249999J0D01*
G01*
X163292501Y-61515000D01*
G75*
G02*
X163542500Y-61764999I0J-249999D01*
G01*
G37*
G04 #@! TD.AperFunction*
D13*
X157422500Y-63315000D03*
X152342500Y-63315000D03*
X147262500Y-63315000D03*
X142182500Y-63315000D03*
X137102500Y-63315000D03*
X132022500Y-63315000D03*
D12*
X169182500Y-94412500D03*
X169182500Y-104572500D03*
X169182500Y-109652500D03*
X174262500Y-96952500D03*
D15*
X181012500Y-84637500D03*
X180512500Y-84637500D03*
X180012500Y-84637500D03*
X179512500Y-84637500D03*
X179012500Y-84637500D03*
X178512500Y-84637500D03*
X178012500Y-84637500D03*
X177512500Y-84637500D03*
X177012500Y-84637500D03*
X176512500Y-84637500D03*
X176012500Y-84637500D03*
X175512500Y-84637500D03*
X175012500Y-84637500D03*
X174512500Y-84637500D03*
X174012500Y-84637500D03*
X173512500Y-84637500D03*
X173012500Y-84637500D03*
X172512500Y-84637500D03*
X172012500Y-84637500D03*
X171512500Y-84637500D03*
X171012500Y-84637500D03*
X170512500Y-84637500D03*
X170012500Y-84637500D03*
X169512500Y-84637500D03*
D16*
X182662500Y-82287500D03*
X167862500Y-82287500D03*
D11*
X145512500Y-91037500D03*
X143012500Y-91037500D03*
D17*
X200262500Y-73537500D03*
D18*
X200262500Y-73537500D03*
G04 #@! TA.AperFunction,SMDPad,CuDef*
G36*
G01*
X185662500Y-89487500D02*
X185662500Y-88587500D01*
G75*
G02*
X185912500Y-88337500I250000J0D01*
G01*
X186612500Y-88337500D01*
G75*
G02*
X186862500Y-88587500I0J-250000D01*
G01*
X186862500Y-89487500D01*
G75*
G02*
X186612500Y-89737500I-250000J0D01*
G01*
X185912500Y-89737500D01*
G75*
G02*
X185662500Y-89487500I0J250000D01*
G01*
G37*
G04 #@! TD.AperFunction*
G04 #@! TA.AperFunction,SMDPad,CuDef*
G36*
G01*
X187662500Y-89487500D02*
X187662500Y-88587500D01*
G75*
G02*
X187912500Y-88337500I250000J0D01*
G01*
X188612500Y-88337500D01*
G75*
G02*
X188862500Y-88587500I0J-250000D01*
G01*
X188862500Y-89487500D01*
G75*
G02*
X188612500Y-89737500I-250000J0D01*
G01*
X187912500Y-89737500D01*
G75*
G02*
X187662500Y-89487500I0J250000D01*
G01*
G37*
G04 #@! TD.AperFunction*
D11*
X131012500Y-91037500D03*
X133512500Y-91037500D03*
X129512500Y-91037500D03*
X127012500Y-91037500D03*
D12*
X146302500Y-87667500D03*
X146302500Y-77507500D03*
X146302500Y-72427500D03*
X141222500Y-85127500D03*
D11*
X178512500Y-91037500D03*
X176012500Y-91037500D03*
G04 #@! TA.AperFunction,ComponentPad*
G36*
G01*
X170982500Y-120310001D02*
X170982500Y-117209999D01*
G75*
G02*
X171232499Y-116960000I249999J0D01*
G01*
X172812501Y-116960000D01*
G75*
G02*
X173062500Y-117209999I0J-249999D01*
G01*
X173062500Y-120310001D01*
G75*
G02*
X172812501Y-120560000I-249999J0D01*
G01*
X171232499Y-120560000D01*
G75*
G02*
X170982500Y-120310001I0J249999D01*
G01*
G37*
G04 #@! TD.AperFunction*
D13*
X177102500Y-118760000D03*
X182182500Y-118760000D03*
X187262500Y-118760000D03*
X192342500Y-118760000D03*
X197422500Y-118760000D03*
X202502500Y-118760000D03*
D12*
X162182500Y-94412500D03*
X162182500Y-104572500D03*
X162182500Y-109652500D03*
X167262500Y-96952500D03*
D11*
X185512500Y-91037500D03*
X183012500Y-91037500D03*
D12*
X183182500Y-94412500D03*
X183182500Y-104572500D03*
X183182500Y-109652500D03*
X188262500Y-96952500D03*
G04 #@! TA.AperFunction,SMDPad,CuDef*
G36*
G01*
X192662500Y-86587500D02*
X192662500Y-87487500D01*
G75*
G02*
X192412500Y-87737500I-250000J0D01*
G01*
X191762500Y-87737500D01*
G75*
G02*
X191512500Y-87487500I0J250000D01*
G01*
X191512500Y-86587500D01*
G75*
G02*
X191762500Y-86337500I250000J0D01*
G01*
X192412500Y-86337500D01*
G75*
G02*
X192662500Y-86587500I0J-250000D01*
G01*
G37*
G04 #@! TD.AperFunction*
G04 #@! TA.AperFunction,SMDPad,CuDef*
G36*
G01*
X190612500Y-86587500D02*
X190612500Y-87487500D01*
G75*
G02*
X190362500Y-87737500I-250000J0D01*
G01*
X189712500Y-87737500D01*
G75*
G02*
X189462500Y-87487500I0J250000D01*
G01*
X189462500Y-86587500D01*
G75*
G02*
X189712500Y-86337500I250000J0D01*
G01*
X190362500Y-86337500D01*
G75*
G02*
X190612500Y-86587500I0J-250000D01*
G01*
G37*
G04 #@! TD.AperFunction*
D11*
X173512500Y-91037500D03*
X171012500Y-91037500D03*
G04 #@! TA.AperFunction,SMDPad,CuDef*
G36*
G01*
X176287500Y-71125000D02*
X175337500Y-71125000D01*
G75*
G02*
X175087500Y-70875000I0J250000D01*
G01*
X175087500Y-70200000D01*
G75*
G02*
X175337500Y-69950000I250000J0D01*
G01*
X176287500Y-69950000D01*
G75*
G02*
X176537500Y-70200000I0J-250000D01*
G01*
X176537500Y-70875000D01*
G75*
G02*
X176287500Y-71125000I-250000J0D01*
G01*
G37*
G04 #@! TD.AperFunction*
G04 #@! TA.AperFunction,SMDPad,CuDef*
G36*
G01*
X176287500Y-69050000D02*
X175337500Y-69050000D01*
G75*
G02*
X175087500Y-68800000I0J250000D01*
G01*
X175087500Y-68125000D01*
G75*
G02*
X175337500Y-67875000I250000J0D01*
G01*
X176287500Y-67875000D01*
G75*
G02*
X176537500Y-68125000I0J-250000D01*
G01*
X176537500Y-68800000D01*
G75*
G02*
X176287500Y-69050000I-250000J0D01*
G01*
G37*
G04 #@! TD.AperFunction*
X155012500Y-91037500D03*
X157512500Y-91037500D03*
X169512500Y-91037500D03*
X167012500Y-91037500D03*
X192512500Y-91037500D03*
X190012500Y-91037500D03*
D12*
X190182500Y-94412500D03*
X190182500Y-104572500D03*
X190182500Y-109652500D03*
X195262500Y-96952500D03*
G04 #@! TA.AperFunction,SMDPad,CuDef*
G36*
G01*
X173687500Y-86562500D02*
X173687500Y-87512500D01*
G75*
G02*
X173437500Y-87762500I-250000J0D01*
G01*
X172762500Y-87762500D01*
G75*
G02*
X172512500Y-87512500I0J250000D01*
G01*
X172512500Y-86562500D01*
G75*
G02*
X172762500Y-86312500I250000J0D01*
G01*
X173437500Y-86312500D01*
G75*
G02*
X173687500Y-86562500I0J-250000D01*
G01*
G37*
G04 #@! TD.AperFunction*
G04 #@! TA.AperFunction,SMDPad,CuDef*
G36*
G01*
X171612500Y-86562500D02*
X171612500Y-87512500D01*
G75*
G02*
X171362500Y-87762500I-250000J0D01*
G01*
X170687500Y-87762500D01*
G75*
G02*
X170437500Y-87512500I0J250000D01*
G01*
X170437500Y-86562500D01*
G75*
G02*
X170687500Y-86312500I250000J0D01*
G01*
X171362500Y-86312500D01*
G75*
G02*
X171612500Y-86562500I0J-250000D01*
G01*
G37*
G04 #@! TD.AperFunction*
X160302500Y-87667500D03*
X160302500Y-77507500D03*
X160302500Y-72427500D03*
X155222500Y-85127500D03*
X139302500Y-87667500D03*
X139302500Y-77507500D03*
X139302500Y-72427500D03*
X134222500Y-85127500D03*
X134182500Y-94412500D03*
X134182500Y-104572500D03*
X134182500Y-109652500D03*
X139262500Y-96952500D03*
D11*
X137512500Y-91037500D03*
X135012500Y-91037500D03*
D19*
X179262500Y-83037500D03*
X173262500Y-88537500D03*
X184762500Y-80037500D03*
X172262500Y-77037500D03*
X176262500Y-79037500D03*
X172262500Y-95037500D03*
X186262500Y-82537500D03*
X168262500Y-79537500D03*
X181262500Y-79037500D03*
X188262500Y-82537500D03*
X178262500Y-81037500D03*
X188262500Y-84537500D03*
X183762500Y-85037500D03*
X183762500Y-78037500D03*
X191262500Y-90037500D03*
X168262500Y-80537500D03*
X183262500Y-84037500D03*
X167262500Y-80537500D03*
D20*
X128862500Y-83037500D03*
D19*
X180262500Y-75037500D03*
X179762500Y-76037500D03*
X170262500Y-79037500D03*
X179262500Y-75037500D03*
X188262500Y-85537500D03*
X178262500Y-75037500D03*
X180762500Y-91037500D03*
X176912500Y-89887500D03*
D20*
X130462500Y-83037500D03*
D19*
X176412500Y-89387500D03*
X182262500Y-75037500D03*
X181262500Y-75037500D03*
X186262500Y-84537500D03*
X171262500Y-79037500D03*
X166262500Y-82537500D03*
X179262500Y-79037500D03*
X179762500Y-90037500D03*
X166762500Y-82037500D03*
X171762500Y-90037500D03*
X177762500Y-82037500D03*
X177762500Y-76037500D03*
X173262500Y-74037500D03*
X178762500Y-80037500D03*
X172762500Y-89037500D03*
X172262500Y-76037500D03*
X166262500Y-81537500D03*
X189262500Y-85537500D03*
X173262500Y-89537500D03*
X187262500Y-84537500D03*
X189262500Y-84537500D03*
X183262500Y-77037500D03*
X179762500Y-82037500D03*
X179762500Y-93037500D03*
X180262500Y-83037500D03*
X178262500Y-83037500D03*
X179762500Y-78037500D03*
X186262500Y-81537500D03*
X180762500Y-92037500D03*
X177762500Y-78037500D03*
D20*
X164262500Y-84037500D03*
D19*
X179262500Y-81037500D03*
X171262500Y-89537500D03*
X181262500Y-81037500D03*
X172262500Y-78037500D03*
X173262500Y-77037500D03*
X191262500Y-88037500D03*
X180762500Y-82037500D03*
X171762500Y-88037500D03*
X181762500Y-92037500D03*
X172262500Y-88537500D03*
X171262500Y-78037500D03*
X183262500Y-86037500D03*
X177262500Y-81037500D03*
X167262500Y-81537500D03*
X171762500Y-89037500D03*
X172262500Y-94037500D03*
X175762500Y-80037500D03*
X188262500Y-83537500D03*
X178762500Y-76037500D03*
X189262500Y-83537500D03*
X181762500Y-80037500D03*
X176762500Y-80037500D03*
X187262500Y-81537500D03*
X186262500Y-83537500D03*
X177262500Y-83037500D03*
X166762500Y-81037500D03*
X172262500Y-89537500D03*
X171262500Y-95037500D03*
X184262500Y-79037500D03*
X187262500Y-82537500D03*
X179762500Y-91037500D03*
X191262500Y-92037500D03*
X171262500Y-77037500D03*
X172762500Y-90037500D03*
X180762500Y-93037500D03*
X170762500Y-89037500D03*
X175912500Y-88887500D03*
D20*
X163662500Y-84037500D03*
D19*
X182762500Y-85037500D03*
X182762500Y-76037500D03*
X181762500Y-76037500D03*
X173262500Y-76037500D03*
X177762500Y-80037500D03*
D20*
X164862500Y-84037500D03*
D19*
X171262500Y-94037500D03*
X170262500Y-89537500D03*
X178762500Y-78037500D03*
X175462500Y-88437500D03*
X180762500Y-90037500D03*
X180762500Y-80037500D03*
X182262500Y-86037500D03*
X181262500Y-83037500D03*
X177262500Y-79037500D03*
X182262500Y-77037500D03*
X182762500Y-78037500D03*
X180762500Y-76037500D03*
X181762500Y-91037500D03*
X170262500Y-80037500D03*
X173262500Y-75037500D03*
X179762500Y-80037500D03*
X171262500Y-88537500D03*
X191262500Y-86037500D03*
X172262500Y-93037500D03*
X180262500Y-81037500D03*
X170262500Y-78037500D03*
X169262500Y-79037500D03*
X167762500Y-81037500D03*
X179762500Y-92037500D03*
X178762500Y-82037500D03*
X187262500Y-85537500D03*
X180262500Y-79037500D03*
X169262500Y-80037500D03*
D20*
X129662500Y-83037500D03*
D19*
X176762500Y-82037500D03*
X166262500Y-80537500D03*
X187262500Y-83537500D03*
X178262500Y-79037500D03*
D20*
X185862500Y-86237500D03*
D19*
X174762500Y-77037500D03*
X183262500Y-79837500D03*
X171762500Y-80037500D03*
X173762500Y-80037500D03*
X176762500Y-76337500D03*
X181462500Y-84637500D03*
X180394997Y-86325721D03*
X180612000Y-85660730D03*
X179171462Y-86947361D03*
X179844730Y-86757588D03*
X180447086Y-87113215D03*
X179666850Y-87441218D03*
X178157640Y-87693702D03*
X178852848Y-87616310D03*
X174130189Y-82591244D03*
X175975945Y-82837500D03*
X176462500Y-83537998D03*
X174776445Y-82323555D03*
X172762500Y-80037500D03*
X175762500Y-76337500D03*
X173770362Y-83191101D03*
X178422603Y-87046325D03*
D21*
X171312500Y-85637500D02*
X171512500Y-85437500D01*
D22*
X174004375Y-81373555D02*
X172820362Y-82557568D01*
D21*
X173762500Y-70537500D02*
X175812500Y-68487500D01*
D23*
X179712500Y-90087500D02*
X179762500Y-90037500D01*
D22*
X175169948Y-81373555D02*
X174004375Y-81373555D01*
D21*
X173762500Y-70537500D02*
X173762500Y-73537500D01*
X172512500Y-84637500D02*
X172512500Y-83687500D01*
D23*
X175462500Y-88437500D02*
X175912500Y-88887500D01*
D21*
X178812500Y-68362500D02*
X178812500Y-67500000D01*
X172512500Y-83687500D02*
X172462500Y-83637500D01*
X173368232Y-83637500D02*
X173512500Y-83781768D01*
D23*
X175462500Y-87037500D02*
X175462500Y-88437500D01*
D21*
X171562500Y-83637500D02*
X172462500Y-83637500D01*
X178812500Y-67500000D02*
X178512500Y-67200000D01*
X171512500Y-83687500D02*
X171562500Y-83637500D01*
X177075000Y-67200000D02*
X175812500Y-68462500D01*
D22*
X176762500Y-82037500D02*
X176262500Y-81537500D01*
D21*
X173512500Y-85485418D02*
X173864582Y-85837500D01*
D23*
X176412500Y-89387500D02*
X176912500Y-89887500D01*
X175912500Y-88887500D02*
X176412500Y-89387500D01*
D21*
X172462500Y-83637500D02*
X173368232Y-83637500D01*
X173864582Y-85837500D02*
X174262500Y-85837500D01*
D22*
X172770362Y-83287500D02*
X171862500Y-83287500D01*
D21*
X170512500Y-84637500D02*
X170512500Y-85487500D01*
D23*
X177112500Y-90087500D02*
X176912500Y-89887500D01*
D22*
X171025000Y-85987500D02*
X170862500Y-85987500D01*
X176262500Y-81537500D02*
X175333893Y-81537500D01*
D21*
X170662500Y-85637500D02*
X171312500Y-85637500D01*
X173512500Y-83781768D02*
X173512500Y-84637500D01*
D22*
X171025000Y-87037500D02*
X171025000Y-85987500D01*
X172820362Y-83237500D02*
X172770362Y-83287500D01*
D21*
X175812500Y-68487500D02*
X175812500Y-68462500D01*
X171512500Y-85437500D02*
X171512500Y-84637500D01*
D22*
X172820362Y-82557568D02*
X172820362Y-83237500D01*
D21*
X170512500Y-85487500D02*
X170662500Y-85637500D01*
X173762500Y-73537500D02*
X173262500Y-74037500D01*
X171512500Y-84637500D02*
X171512500Y-83687500D01*
D23*
X174262500Y-85837500D02*
X175462500Y-87037500D01*
D21*
X178512500Y-67200000D02*
X177075000Y-67200000D01*
D22*
X175333893Y-81537500D02*
X175169948Y-81373555D01*
D23*
X177112500Y-90087500D02*
X179712500Y-90087500D01*
D21*
X173512500Y-84637500D02*
X173512500Y-85485418D01*
X174762500Y-71537500D02*
X175762500Y-70537500D01*
X175762500Y-70537500D02*
X175812500Y-70537500D01*
X169512500Y-82287500D02*
X171762500Y-80037500D01*
X175812500Y-70537500D02*
X177762500Y-70537500D01*
X185862500Y-86237500D02*
X186662500Y-87037500D01*
X180462500Y-77037500D02*
X174762500Y-77037500D01*
X177762500Y-70537500D02*
X177862500Y-70637500D01*
X183262500Y-79837500D02*
X180462500Y-77037500D01*
X174762500Y-77037500D02*
X174762500Y-71537500D01*
X169512500Y-84637500D02*
X169512500Y-82287500D01*
X171012500Y-84637500D02*
X171012500Y-82787500D01*
X181462500Y-69650000D02*
X180175000Y-68362500D01*
X176762500Y-73037500D02*
X177262500Y-72537500D01*
X171012500Y-82787500D02*
X173762500Y-80037500D01*
X177262500Y-72537500D02*
X179962500Y-72537500D01*
X180175000Y-68362500D02*
X179762500Y-68362500D01*
X179962500Y-72537500D02*
X181462500Y-71037500D01*
X176762500Y-76337500D02*
X176762500Y-73037500D01*
X181462500Y-71037500D02*
X181462500Y-69650000D01*
D22*
X188262500Y-93837500D02*
X188262500Y-96952500D01*
X195262500Y-93837500D02*
X195262500Y-96952500D01*
D21*
X172212500Y-85837500D02*
X172812500Y-85837500D01*
D22*
X155012500Y-91037500D02*
X153262500Y-92787500D01*
X137512500Y-91037500D02*
X137512500Y-89787500D01*
X185512500Y-91037500D02*
X185512500Y-91087500D01*
X147012500Y-91037500D02*
X146262500Y-91787500D01*
X139012500Y-96702500D02*
X139262500Y-96952500D01*
X153512500Y-91037500D02*
X155012500Y-91037500D01*
X155222500Y-85497500D02*
X155222500Y-85127500D01*
D21*
X172012500Y-84637500D02*
X172012500Y-85637500D01*
D22*
X174262500Y-90287500D02*
X174262500Y-87437500D01*
X146262500Y-91787500D02*
X146262500Y-96952500D01*
X185512500Y-89787500D02*
X186262500Y-89037500D01*
X163012500Y-91037500D02*
X161512500Y-91037500D01*
X160262500Y-92287500D02*
X160262500Y-96952500D01*
X137512500Y-91037500D02*
X139012500Y-91037500D01*
X173512500Y-91037500D02*
X173512500Y-96202500D01*
X178512500Y-94202500D02*
X181262500Y-96952500D01*
D21*
X173012500Y-85637500D02*
X173012500Y-84637500D01*
D22*
X129512500Y-91037500D02*
X129512500Y-87417500D01*
X129512500Y-87417500D02*
X127222500Y-85127500D01*
D21*
X172012500Y-85637500D02*
X172212500Y-85837500D01*
D22*
X172812500Y-85987500D02*
X172262500Y-85987500D01*
X145512500Y-91037500D02*
X141222500Y-86747500D01*
X169512500Y-91037500D02*
X167262500Y-93287500D01*
X161512500Y-91037500D02*
X160042500Y-89567500D01*
D21*
X172812500Y-85837500D02*
X173012500Y-85637500D01*
D22*
X173512500Y-96202500D02*
X174262500Y-96952500D01*
X160042500Y-89567500D02*
X159292500Y-89567500D01*
X185512500Y-91037500D02*
X185512500Y-89787500D01*
X161512500Y-91037500D02*
X160262500Y-92287500D01*
X137512500Y-89787500D02*
X134222500Y-86497500D01*
X174262500Y-87437500D02*
X172812500Y-85987500D01*
X131012500Y-91037500D02*
X129512500Y-91037500D01*
D24*
X155222500Y-85127500D02*
X162135000Y-85127500D01*
D22*
X131012500Y-91037500D02*
X131012500Y-95702500D01*
X167262500Y-93287500D02*
X167262500Y-96952500D01*
D24*
X162135000Y-85127500D02*
X162225000Y-85037500D01*
D22*
X159292500Y-89567500D02*
X155222500Y-85497500D01*
X153512500Y-91037500D02*
X148222500Y-85747500D01*
X148222500Y-85747500D02*
X148222500Y-85127500D01*
X131012500Y-95702500D02*
X132262500Y-96952500D01*
X178512500Y-91037500D02*
X178512500Y-94202500D01*
X192512500Y-91087500D02*
X195262500Y-93837500D01*
X141222500Y-86747500D02*
X141222500Y-85127500D01*
X134222500Y-86497500D02*
X134222500Y-85127500D01*
X145512500Y-91037500D02*
X147012500Y-91037500D01*
X185512500Y-91087500D02*
X188262500Y-93837500D01*
X173512500Y-91037500D02*
X174262500Y-90287500D01*
X153262500Y-92787500D02*
X153262500Y-96952500D01*
X139012500Y-91037500D02*
X139012500Y-96702500D01*
X192512500Y-91037500D02*
X192512500Y-91087500D01*
D25*
X127182500Y-104572500D02*
X134182500Y-104572500D01*
D21*
X181462500Y-84637500D02*
X181012500Y-84637500D01*
D22*
X127012500Y-91037500D02*
X127012500Y-94242500D01*
X127012500Y-94242500D02*
X127182500Y-94412500D01*
X143012500Y-92582500D02*
X141182500Y-94412500D01*
D21*
X180394997Y-86325721D02*
X180012500Y-85943224D01*
D22*
X143012500Y-91037500D02*
X143012500Y-92582500D01*
D21*
X180012500Y-85943224D02*
X180012500Y-84637500D01*
D22*
X135012500Y-93582500D02*
X134182500Y-94412500D01*
D21*
X180612000Y-85660730D02*
X180512500Y-85561230D01*
X180512500Y-85561230D02*
X180512500Y-84637500D01*
D22*
X135012500Y-91037500D02*
X135012500Y-93582500D01*
D21*
X179012500Y-86788399D02*
X179012500Y-84637500D01*
D22*
X156887500Y-94412500D02*
X155182500Y-94412500D01*
X159012500Y-91037500D02*
X159012500Y-92287500D01*
X159012500Y-92287500D02*
X156887500Y-94412500D01*
D21*
X179171462Y-86947361D02*
X179012500Y-86788399D01*
X179512500Y-86425358D02*
X179512500Y-84637500D01*
D22*
X151012500Y-91582500D02*
X148182500Y-94412500D01*
D21*
X179844730Y-86757588D02*
X179512500Y-86425358D01*
D22*
X151012500Y-91037500D02*
X151012500Y-91582500D01*
X190012500Y-91037500D02*
X190012500Y-94242500D01*
D21*
X180266850Y-87847233D02*
X178820381Y-89293702D01*
X180262504Y-87188343D02*
X180266850Y-87192689D01*
X176322603Y-88121406D02*
X176322603Y-86006076D01*
X178820381Y-89293702D02*
X177494899Y-89293702D01*
X180337632Y-87113215D02*
X180262504Y-87188343D01*
X180447086Y-87113215D02*
X180337632Y-87113215D01*
X176322603Y-86006076D02*
X176512500Y-85816179D01*
X177494899Y-89293702D02*
X176322603Y-88121406D01*
X180266850Y-87192689D02*
X180266850Y-87847233D01*
X176512500Y-85816179D02*
X176512500Y-84637500D01*
D22*
X190012500Y-94242500D02*
X190182500Y-94412500D01*
D21*
X177012500Y-86023286D02*
X177012500Y-84637500D01*
X177702005Y-88793702D02*
X176822603Y-87914300D01*
X179526134Y-87880843D02*
X178613275Y-88793702D01*
D22*
X183012500Y-91037500D02*
X183012500Y-94242500D01*
D21*
X178613275Y-88793702D02*
X177702005Y-88793702D01*
X179526134Y-87441218D02*
X179526134Y-87880843D01*
X176822603Y-87914300D02*
X176822603Y-86213183D01*
D22*
X183012500Y-94242500D02*
X183182500Y-94412500D01*
D21*
X179666850Y-87441218D02*
X179526134Y-87441218D01*
X176822603Y-86213183D02*
X177012500Y-86023286D01*
X178157640Y-87693702D02*
X177822603Y-87358665D01*
D22*
X171012500Y-92582500D02*
X169182500Y-94412500D01*
D21*
X177822603Y-87358665D02*
X177822603Y-86627397D01*
X177822603Y-86627397D02*
X178012500Y-86437500D01*
X178012500Y-86437500D02*
X178012500Y-84637500D01*
D22*
X171012500Y-91037500D02*
X171012500Y-92582500D01*
D21*
X177512500Y-86230393D02*
X177512500Y-84637500D01*
X178852848Y-87616310D02*
X178796355Y-87559817D01*
X178757640Y-87942231D02*
X178406169Y-88293702D01*
X178796355Y-87559817D02*
X178757640Y-87559817D01*
X178406169Y-88293702D02*
X177909111Y-88293702D01*
X177322603Y-87707194D02*
X177322603Y-86420290D01*
D22*
X176012500Y-94242500D02*
X176182500Y-94412500D01*
D21*
X177909111Y-88293702D02*
X177322603Y-87707194D01*
D22*
X176012500Y-91037500D02*
X176012500Y-94242500D01*
D21*
X177322603Y-86420290D02*
X177512500Y-86230393D01*
X178757640Y-87559817D02*
X178757640Y-87942231D01*
X174130189Y-82591244D02*
X174512500Y-82973555D01*
D22*
X141512500Y-91037500D02*
X141512500Y-89877500D01*
X141512500Y-89877500D02*
X139302500Y-87667500D01*
D21*
X174512500Y-82973555D02*
X174512500Y-84637500D01*
D22*
X157512500Y-91037500D02*
X154142500Y-87667500D01*
D21*
X175975945Y-82837500D02*
X175512500Y-83300945D01*
D22*
X154142500Y-87667500D02*
X153302500Y-87667500D01*
D21*
X175512500Y-83300945D02*
X175512500Y-84637500D01*
D22*
X162142500Y-87667500D02*
X160302500Y-87667500D01*
D21*
X176462500Y-83537998D02*
X176112002Y-83537998D01*
X176012500Y-83637500D02*
X176012500Y-84637500D01*
D22*
X165512500Y-91037500D02*
X162142500Y-87667500D01*
D21*
X176112002Y-83537998D02*
X176012500Y-83637500D01*
X175012500Y-82559610D02*
X175012500Y-84637500D01*
D22*
X149512500Y-91037500D02*
X149512500Y-90877500D01*
X149512500Y-90877500D02*
X146302500Y-87667500D01*
D21*
X174776445Y-82323555D02*
X175012500Y-82559610D01*
X170012500Y-84637500D02*
X170012500Y-82787500D01*
X175762500Y-72537500D02*
X176262500Y-72037500D01*
X170012500Y-82787500D02*
X172762500Y-80037500D01*
X175762500Y-76337500D02*
X175762500Y-72537500D01*
X179762500Y-71550000D02*
X179762500Y-70637500D01*
X179275000Y-72037500D02*
X179762500Y-71550000D01*
X176262500Y-72037500D02*
X179275000Y-72037500D01*
X173770362Y-83191101D02*
X174012500Y-83433239D01*
D22*
X133512500Y-88877500D02*
X132302500Y-87667500D01*
D21*
X174012500Y-83433239D02*
X174012500Y-84637500D01*
D22*
X133512500Y-91037500D02*
X133512500Y-88877500D01*
X167012500Y-91037500D02*
X167012500Y-91787500D01*
X167012500Y-91787500D02*
X164387500Y-94412500D01*
D21*
X178422603Y-87046325D02*
X178512500Y-86956428D01*
D22*
X164387500Y-94412500D02*
X162182500Y-94412500D01*
D21*
X178512500Y-86956428D02*
X178512500Y-84637500D01*
X188662500Y-89037500D02*
X190437500Y-89037500D01*
X188662500Y-87037500D02*
X190437500Y-87037500D01*
G04 #@! TA.AperFunction,Conductor*
G36*
X206569532Y-48857705D02*
G01*
X206877800Y-48916511D01*
X207176267Y-49013489D01*
X207460226Y-49147110D01*
X207725199Y-49315267D01*
X207967007Y-49515307D01*
X208181837Y-49744077D01*
X208366299Y-49997969D01*
X208517487Y-50272978D01*
X208538829Y-50321367D01*
X208555456Y-50370209D01*
X208646738Y-50518586D01*
X208768624Y-50643052D01*
X208915056Y-50737421D01*
X208940412Y-50746650D01*
X209195952Y-50911333D01*
X209436358Y-51113057D01*
X209649585Y-51343321D01*
X209832271Y-51598494D01*
X209981535Y-51874551D01*
X210095023Y-52167140D01*
X210170945Y-52471645D01*
X210208103Y-52783264D01*
X210212000Y-52922764D01*
X210212000Y-130538500D01*
X210192295Y-130851708D01*
X210133489Y-131159976D01*
X210036511Y-131458443D01*
X209902890Y-131742402D01*
X209734733Y-132007375D01*
X209534693Y-132249183D01*
X209305923Y-132464013D01*
X209052031Y-132648475D01*
X208777022Y-132799663D01*
X208485233Y-132915190D01*
X208181266Y-132993236D01*
X207869914Y-133032569D01*
X207713000Y-133037500D01*
X128812000Y-133037500D01*
X128498792Y-133017795D01*
X128190524Y-132958989D01*
X127892057Y-132862011D01*
X127608098Y-132728390D01*
X127343125Y-132560233D01*
X127101317Y-132360193D01*
X126886487Y-132131423D01*
X126702025Y-131877531D01*
X126550837Y-131602522D01*
X126435310Y-131310733D01*
X126357264Y-131006766D01*
X126317931Y-130695414D01*
X126313000Y-130538500D01*
X126313000Y-125036500D01*
X126332705Y-124723292D01*
X126391511Y-124415024D01*
X126488489Y-124116557D01*
X126622110Y-123832598D01*
X126790267Y-123567625D01*
X126990307Y-123325817D01*
X127219077Y-123110987D01*
X127472969Y-122926525D01*
X127747978Y-122775337D01*
X128039767Y-122659810D01*
X128343734Y-122581764D01*
X128655086Y-122542431D01*
X128812000Y-122537500D01*
X131752735Y-122537500D01*
X131957522Y-122550294D01*
X131957618Y-122548725D01*
X132112060Y-122558171D01*
X132112066Y-122558171D01*
X132150143Y-122560500D01*
X133022271Y-122560500D01*
X133894856Y-122560499D01*
X133997366Y-122554230D01*
X134087382Y-122548725D01*
X134087478Y-122550294D01*
X134292260Y-122537500D01*
X137587668Y-122537500D01*
X137780024Y-122546739D01*
X137810605Y-122551446D01*
X137881442Y-122554229D01*
X137881450Y-122554230D01*
X138084812Y-122562220D01*
X138084817Y-122562220D01*
X138155651Y-122565003D01*
X138433281Y-122544372D01*
X138618473Y-122537500D01*
X142667668Y-122537500D01*
X142860024Y-122546739D01*
X142890605Y-122551446D01*
X142961442Y-122554229D01*
X142961450Y-122554230D01*
X143164812Y-122562220D01*
X143164817Y-122562220D01*
X143235651Y-122565003D01*
X143513281Y-122544372D01*
X143698473Y-122537500D01*
X147747668Y-122537500D01*
X147940024Y-122546739D01*
X147970605Y-122551446D01*
X148041442Y-122554229D01*
X148041450Y-122554230D01*
X148244812Y-122562220D01*
X148244817Y-122562220D01*
X148315651Y-122565003D01*
X148593281Y-122544372D01*
X148778473Y-122537500D01*
X152827668Y-122537500D01*
X153020024Y-122546739D01*
X153050605Y-122551446D01*
X153121442Y-122554229D01*
X153121450Y-122554230D01*
X153324812Y-122562220D01*
X153324817Y-122562220D01*
X153395651Y-122565003D01*
X153673281Y-122544372D01*
X153858473Y-122537500D01*
X158762500Y-122537500D01*
X159047130Y-122517143D01*
X159325965Y-122456486D01*
X159383803Y-122434914D01*
X159383805Y-122434913D01*
X159519747Y-122384209D01*
X159519746Y-122384209D01*
X159593330Y-122356764D01*
X159843782Y-122220007D01*
X159906644Y-122172949D01*
X160009360Y-122096057D01*
X160009366Y-122096052D01*
X160072221Y-122048999D01*
X160273999Y-121847221D01*
X160445007Y-121618782D01*
X160581764Y-121368330D01*
X160609209Y-121294747D01*
X160654043Y-121174544D01*
X160654045Y-121174536D01*
X160681486Y-121100965D01*
X160742143Y-120822130D01*
X160762500Y-120537500D01*
X160762500Y-118036500D01*
X160782205Y-117723292D01*
X160841011Y-117415024D01*
X160937989Y-117116557D01*
X161071610Y-116832598D01*
X161239767Y-116567625D01*
X161439807Y-116325817D01*
X161668577Y-116110987D01*
X161922469Y-115926525D01*
X162197478Y-115775337D01*
X162489267Y-115659810D01*
X162793234Y-115581764D01*
X163104586Y-115542431D01*
X163261500Y-115537500D01*
X166263500Y-115537500D01*
X166576708Y-115557205D01*
X166884976Y-115616011D01*
X167183443Y-115712989D01*
X167467402Y-115846610D01*
X167732375Y-116014767D01*
X167974183Y-116214807D01*
X168189013Y-116443577D01*
X168373475Y-116697469D01*
X168524663Y-116972478D01*
X168640190Y-117264267D01*
X168718236Y-117568234D01*
X168757569Y-117879586D01*
X168762500Y-118036500D01*
X168762500Y-120537500D01*
X168782857Y-120822130D01*
X168843514Y-121100965D01*
X168865086Y-121158803D01*
X168865087Y-121158805D01*
X168907066Y-121271354D01*
X168943236Y-121368330D01*
X169079993Y-121618782D01*
X169116988Y-121668201D01*
X169116989Y-121668203D01*
X169203943Y-121784360D01*
X169203948Y-121784366D01*
X169251001Y-121847221D01*
X169452779Y-122048999D01*
X169681218Y-122220007D01*
X169808295Y-122289396D01*
X169862742Y-122319127D01*
X169862748Y-122319130D01*
X169931670Y-122356764D01*
X169989504Y-122378335D01*
X170125456Y-122429043D01*
X170125464Y-122429045D01*
X170199035Y-122456486D01*
X170477870Y-122517143D01*
X170539438Y-122521546D01*
X170539442Y-122521547D01*
X170627990Y-122527880D01*
X170762500Y-122537500D01*
X170807124Y-122537500D01*
X170838036Y-122538604D01*
X170953051Y-122547854D01*
X170957618Y-122548725D01*
X170983781Y-122550325D01*
X170983779Y-122550325D01*
X171112060Y-122558171D01*
X171112066Y-122558171D01*
X171150143Y-122560500D01*
X172022271Y-122560500D01*
X172894856Y-122560499D01*
X172997366Y-122554230D01*
X173087382Y-122548725D01*
X173087478Y-122550294D01*
X173292260Y-122537500D01*
X176587668Y-122537500D01*
X176780024Y-122546739D01*
X176810605Y-122551446D01*
X176881442Y-122554229D01*
X176881450Y-122554230D01*
X177084812Y-122562220D01*
X177084817Y-122562220D01*
X177155651Y-122565003D01*
X177433281Y-122544372D01*
X177618473Y-122537500D01*
X181667668Y-122537500D01*
X181860024Y-122546739D01*
X181890605Y-122551446D01*
X181961442Y-122554229D01*
X181961450Y-122554230D01*
X182164812Y-122562220D01*
X182164817Y-122562220D01*
X182235651Y-122565003D01*
X182513281Y-122544372D01*
X182698473Y-122537500D01*
X186747668Y-122537500D01*
X186940024Y-122546739D01*
X186970605Y-122551446D01*
X187041442Y-122554229D01*
X187041450Y-122554230D01*
X187244812Y-122562220D01*
X187244817Y-122562220D01*
X187315651Y-122565003D01*
X187593281Y-122544372D01*
X187778473Y-122537500D01*
X191827668Y-122537500D01*
X192020024Y-122546739D01*
X192050605Y-122551446D01*
X192121442Y-122554229D01*
X192121450Y-122554230D01*
X192324812Y-122562220D01*
X192324817Y-122562220D01*
X192395651Y-122565003D01*
X192673281Y-122544372D01*
X192858473Y-122537500D01*
X199262500Y-122537500D01*
X199547130Y-122517143D01*
X199825965Y-122456486D01*
X199883803Y-122434914D01*
X199883805Y-122434913D01*
X200019747Y-122384209D01*
X200019746Y-122384209D01*
X200093330Y-122356764D01*
X200343782Y-122220007D01*
X200406644Y-122172949D01*
X200509360Y-122096057D01*
X200509366Y-122096052D01*
X200572221Y-122048999D01*
X200773999Y-121847221D01*
X200945007Y-121618782D01*
X201081764Y-121368330D01*
X201109209Y-121294747D01*
X201154043Y-121174544D01*
X201154045Y-121174536D01*
X201181486Y-121100965D01*
X201242143Y-120822130D01*
X201262500Y-120537500D01*
X201262500Y-116572620D01*
X201282205Y-116259412D01*
X201341011Y-115951144D01*
X201437989Y-115652677D01*
X201571610Y-115368718D01*
X201739767Y-115103745D01*
X201939807Y-114861937D01*
X201994440Y-114805560D01*
X203676714Y-113123286D01*
X203849207Y-112926596D01*
X203994551Y-112709073D01*
X204110259Y-112474440D01*
X204194352Y-112226711D01*
X204245390Y-111970125D01*
X204262500Y-111709073D01*
X204262500Y-82865927D01*
X204245390Y-82604875D01*
X204194352Y-82348289D01*
X204110259Y-82100560D01*
X203994551Y-81865927D01*
X203849207Y-81648404D01*
X203676714Y-81451714D01*
X196994440Y-74769440D01*
X196786903Y-74534035D01*
X196610506Y-74274474D01*
X196468031Y-73994853D01*
X196361726Y-73699579D01*
X196293267Y-73393310D01*
X196263733Y-73080875D01*
X196262500Y-73002380D01*
X196262500Y-69072620D01*
X196282205Y-68759412D01*
X196341011Y-68451144D01*
X196437989Y-68152677D01*
X196571610Y-67868718D01*
X196739767Y-67603745D01*
X196939807Y-67361937D01*
X196994440Y-67305560D01*
X201176714Y-63123286D01*
X201349207Y-62926596D01*
X201494551Y-62709073D01*
X201610259Y-62474440D01*
X201694352Y-62226711D01*
X201745390Y-61970125D01*
X201762500Y-61709073D01*
X201762500Y-58037500D01*
X201742143Y-57752870D01*
X201681486Y-57474035D01*
X201581764Y-57206670D01*
X201445007Y-56956218D01*
X201408011Y-56906797D01*
X201321057Y-56790640D01*
X201321052Y-56790634D01*
X201273999Y-56727779D01*
X201072221Y-56526001D01*
X200843782Y-56354993D01*
X200716705Y-56285604D01*
X200662258Y-56255873D01*
X200662252Y-56255870D01*
X200593330Y-56218236D01*
X200516932Y-56189741D01*
X200399544Y-56145957D01*
X200399536Y-56145955D01*
X200325965Y-56118514D01*
X200047130Y-56057857D01*
X199985562Y-56053454D01*
X199985558Y-56053453D01*
X199807004Y-56040683D01*
X199807005Y-56040683D01*
X199762500Y-56037500D01*
X166090927Y-56037500D01*
X166050151Y-56040173D01*
X166050138Y-56040173D01*
X165939174Y-56047446D01*
X165829875Y-56054610D01*
X165573289Y-56105648D01*
X165495819Y-56131946D01*
X165495814Y-56131947D01*
X165454543Y-56145957D01*
X165325560Y-56189741D01*
X165090927Y-56305449D01*
X165022915Y-56350893D01*
X165022910Y-56350896D01*
X164941429Y-56405340D01*
X164873404Y-56450793D01*
X164676714Y-56623286D01*
X163494440Y-57805560D01*
X163259035Y-58013097D01*
X162999474Y-58189494D01*
X162719853Y-58331969D01*
X162424579Y-58438274D01*
X162118310Y-58506733D01*
X161805875Y-58536267D01*
X161727380Y-58537500D01*
X136262500Y-58537500D01*
X135977870Y-58557857D01*
X135699035Y-58618514D01*
X135641197Y-58640086D01*
X135641195Y-58640087D01*
X135528646Y-58682066D01*
X135431670Y-58718236D01*
X135181218Y-58854993D01*
X135131799Y-58891988D01*
X135131797Y-58891989D01*
X135015640Y-58978943D01*
X135015634Y-58978948D01*
X134952779Y-59026001D01*
X134751001Y-59227779D01*
X134579993Y-59456218D01*
X134443236Y-59706670D01*
X134421665Y-59764504D01*
X134370957Y-59900456D01*
X134370955Y-59900464D01*
X134343514Y-59974035D01*
X134282857Y-60252870D01*
X134262500Y-60537500D01*
X134262500Y-63038500D01*
X134242795Y-63351708D01*
X134183989Y-63659976D01*
X134087011Y-63958443D01*
X133953390Y-64242402D01*
X133785233Y-64507375D01*
X133585193Y-64749183D01*
X133356423Y-64964013D01*
X133102531Y-65148475D01*
X132827522Y-65299663D01*
X132535733Y-65415190D01*
X132231766Y-65493236D01*
X131920414Y-65532569D01*
X131763500Y-65537500D01*
X128812000Y-65537500D01*
X128498792Y-65517795D01*
X128190524Y-65458989D01*
X127892057Y-65362011D01*
X127608098Y-65228390D01*
X127343125Y-65060233D01*
X127101317Y-64860193D01*
X126886487Y-64631423D01*
X126702025Y-64377531D01*
X126550837Y-64102522D01*
X126435310Y-63810733D01*
X126357264Y-63506766D01*
X126317931Y-63195414D01*
X126313000Y-63038500D01*
X126313000Y-52924297D01*
X126332705Y-52611089D01*
X126391511Y-52302821D01*
X126488489Y-52004354D01*
X126622110Y-51720395D01*
X126790267Y-51455422D01*
X126990307Y-51213614D01*
X127219077Y-50998784D01*
X127472969Y-50814322D01*
X127585250Y-50747388D01*
X127600137Y-50742204D01*
X127747873Y-50649888D01*
X127871485Y-50527136D01*
X127964829Y-50380049D01*
X127975175Y-50350993D01*
X127983601Y-50335667D01*
X128097260Y-50102633D01*
X128269100Y-49840035D01*
X128472499Y-49601044D01*
X128704246Y-49389430D01*
X128960689Y-49208531D01*
X129237782Y-49061199D01*
X129531156Y-48949757D01*
X129836184Y-48875964D01*
X130148055Y-48840983D01*
X130270124Y-48838000D01*
X206256324Y-48838000D01*
X206569532Y-48857705D01*
G37*
G04 #@! TD.AperFunction*
G04 #@! TA.AperFunction,Conductor*
G36*
X173091300Y-72864094D02*
G01*
X173178435Y-72907067D01*
X173242492Y-72980113D01*
X173258719Y-73023229D01*
X173262500Y-73028887D01*
X173262500Y-73037500D01*
X173863000Y-73037500D01*
X173958288Y-73056454D01*
X174039070Y-73110430D01*
X174093046Y-73191212D01*
X174112000Y-73286500D01*
X174112000Y-76594431D01*
X174093046Y-76689719D01*
X174091408Y-76693322D01*
X174086015Y-76701690D01*
X174028427Y-76859909D01*
X174007325Y-77026955D01*
X174023755Y-77194525D01*
X174076902Y-77354291D01*
X174164124Y-77498312D01*
X174281086Y-77619429D01*
X174374541Y-77680585D01*
X174385873Y-77688000D01*
X174421975Y-77711625D01*
X174470298Y-77729596D01*
X174566741Y-77765463D01*
X174566745Y-77765464D01*
X174579789Y-77770315D01*
X174593583Y-77772155D01*
X174593585Y-77772156D01*
X174732889Y-77790743D01*
X174732893Y-77790743D01*
X174746683Y-77792583D01*
X174760540Y-77791322D01*
X174760544Y-77791322D01*
X174900501Y-77778585D01*
X174900504Y-77778584D01*
X174914364Y-77777323D01*
X175074497Y-77725293D01*
X175086458Y-77718163D01*
X175099133Y-77712413D01*
X175100404Y-77715215D01*
X175169690Y-77690609D01*
X175205642Y-77688000D01*
X180089914Y-77688000D01*
X180185202Y-77706954D01*
X180265984Y-77760930D01*
X182494186Y-79989132D01*
X182548162Y-80069914D01*
X182554386Y-80086606D01*
X182576902Y-80154291D01*
X182664124Y-80298312D01*
X182781086Y-80419429D01*
X182921975Y-80511625D01*
X182989201Y-80536626D01*
X183066741Y-80565463D01*
X183066745Y-80565464D01*
X183079789Y-80570315D01*
X183093583Y-80572155D01*
X183093585Y-80572156D01*
X183232889Y-80590743D01*
X183232893Y-80590743D01*
X183246683Y-80592583D01*
X183260540Y-80591322D01*
X183260544Y-80591322D01*
X183400501Y-80578585D01*
X183400504Y-80578584D01*
X183414364Y-80577323D01*
X183574497Y-80525293D01*
X183597853Y-80511370D01*
X183707168Y-80446205D01*
X183707170Y-80446203D01*
X183719123Y-80439078D01*
X183841054Y-80322965D01*
X183934231Y-80182723D01*
X183994021Y-80025323D01*
X184017455Y-79858588D01*
X184017749Y-79837500D01*
X183998981Y-79670176D01*
X183943608Y-79511168D01*
X183921793Y-79476257D01*
X183861763Y-79380187D01*
X183861760Y-79380184D01*
X183854384Y-79368379D01*
X183840122Y-79354017D01*
X183745551Y-79258783D01*
X183745548Y-79258780D01*
X183735742Y-79248906D01*
X183678536Y-79212602D01*
X183605338Y-79166149D01*
X183605335Y-79166147D01*
X183593579Y-79158687D01*
X183580464Y-79154017D01*
X183580460Y-79154015D01*
X183506757Y-79127771D01*
X183423349Y-79077951D01*
X183414215Y-79069269D01*
X180976555Y-76631609D01*
X180972567Y-76627226D01*
X180967702Y-76619560D01*
X180918127Y-76573006D01*
X180912510Y-76567564D01*
X180893535Y-76548589D01*
X180887350Y-76543791D01*
X180884827Y-76541567D01*
X180879038Y-76536299D01*
X180859313Y-76517776D01*
X180847893Y-76507052D01*
X180834166Y-76499506D01*
X180828405Y-76495320D01*
X180814777Y-76486368D01*
X180808643Y-76482741D01*
X180796264Y-76473138D01*
X180759781Y-76457351D01*
X180738719Y-76447032D01*
X180717596Y-76435420D01*
X180717595Y-76435420D01*
X180703868Y-76427873D01*
X180688700Y-76423979D01*
X180682071Y-76421354D01*
X180666653Y-76416076D01*
X180659798Y-76414084D01*
X180645426Y-76407865D01*
X180629961Y-76405415D01*
X180629956Y-76405414D01*
X180606163Y-76401646D01*
X180583192Y-76396889D01*
X180559848Y-76390895D01*
X180559846Y-76390895D01*
X180544677Y-76387000D01*
X180529013Y-76387000D01*
X180521943Y-76386107D01*
X180505695Y-76384828D01*
X180498569Y-76384604D01*
X180483095Y-76382153D01*
X180467502Y-76383627D01*
X180467500Y-76383627D01*
X180443511Y-76385895D01*
X180420077Y-76387000D01*
X177745425Y-76387000D01*
X177650137Y-76368046D01*
X177569355Y-76314070D01*
X177515379Y-76233288D01*
X177502613Y-76193168D01*
X177500533Y-76184014D01*
X177498981Y-76170176D01*
X177443608Y-76011168D01*
X177437187Y-76000893D01*
X177413364Y-75907768D01*
X177413000Y-75894304D01*
X177413000Y-73437000D01*
X177431954Y-73341712D01*
X177485930Y-73260930D01*
X177566712Y-73206954D01*
X177662000Y-73188000D01*
X179886008Y-73188000D01*
X179891936Y-73188280D01*
X179900796Y-73190260D01*
X179916452Y-73189768D01*
X179968789Y-73188123D01*
X179976611Y-73188000D01*
X180003425Y-73188000D01*
X180011185Y-73187020D01*
X180014572Y-73186807D01*
X180022375Y-73186439D01*
X180065069Y-73185097D01*
X180080114Y-73180726D01*
X180087172Y-73179608D01*
X180103111Y-73176307D01*
X180110015Y-73174534D01*
X180125558Y-73172571D01*
X180162525Y-73157934D01*
X180184718Y-73150336D01*
X180207850Y-73143616D01*
X180207853Y-73143615D01*
X180222898Y-73139244D01*
X180236385Y-73131268D01*
X180242934Y-73128434D01*
X180257560Y-73121269D01*
X180263809Y-73117834D01*
X180278371Y-73112068D01*
X180291041Y-73102863D01*
X180291044Y-73102861D01*
X180310537Y-73088698D01*
X180330152Y-73075814D01*
X180336316Y-73072169D01*
X180427984Y-73039982D01*
X180463056Y-73037500D01*
X182636915Y-73037500D01*
X182732203Y-73056454D01*
X182812985Y-73110430D01*
X182866961Y-73191212D01*
X182879408Y-73229949D01*
X182894551Y-73294895D01*
X182936835Y-73452701D01*
X182984431Y-73609602D01*
X182985089Y-73611540D01*
X183011554Y-73689502D01*
X183015899Y-73702303D01*
X183073655Y-73855757D01*
X183074443Y-73857660D01*
X183074448Y-73857672D01*
X183135379Y-74004771D01*
X183135392Y-74004802D01*
X183136172Y-74006684D01*
X183203830Y-74156008D01*
X183204724Y-74157821D01*
X183204734Y-74157842D01*
X183246248Y-74242025D01*
X183246265Y-74242058D01*
X183247124Y-74243800D01*
X183324413Y-74388398D01*
X183406101Y-74529886D01*
X183492673Y-74669106D01*
X183547056Y-74750497D01*
X183642565Y-74883781D01*
X183742019Y-75013392D01*
X183846028Y-75140127D01*
X183937591Y-75244535D01*
X183992670Y-75305305D01*
X184048544Y-75364960D01*
X184105547Y-75423859D01*
X195684070Y-87002382D01*
X195738046Y-87083164D01*
X195757000Y-87178452D01*
X195757000Y-92315939D01*
X195738046Y-92411227D01*
X195684070Y-92492009D01*
X195603288Y-92545985D01*
X195508000Y-92564939D01*
X195412712Y-92545985D01*
X195331930Y-92492009D01*
X193585929Y-90746009D01*
X193531953Y-90665227D01*
X193512999Y-90569939D01*
X193512999Y-90490124D01*
X193506351Y-90428920D01*
X193456026Y-90294676D01*
X193388720Y-90204870D01*
X193380687Y-90194152D01*
X193370046Y-90179954D01*
X193349720Y-90164720D01*
X193307819Y-90133317D01*
X193255324Y-90093974D01*
X193171606Y-90062590D01*
X193135696Y-90049128D01*
X193135695Y-90049128D01*
X193121080Y-90043649D01*
X193059877Y-90037000D01*
X192545451Y-90037000D01*
X192532422Y-90036659D01*
X192475973Y-90033701D01*
X192475971Y-90033701D01*
X192463374Y-90033041D01*
X192450901Y-90034928D01*
X192438301Y-90035544D01*
X192438299Y-90035510D01*
X192418466Y-90037001D01*
X191965124Y-90037001D01*
X191903920Y-90043649D01*
X191769676Y-90093974D01*
X191717181Y-90133317D01*
X191675281Y-90164720D01*
X191654954Y-90179954D01*
X191644313Y-90194152D01*
X191636280Y-90204870D01*
X191568974Y-90294676D01*
X191518649Y-90428920D01*
X191512000Y-90490123D01*
X191512000Y-91069614D01*
X191511903Y-91076567D01*
X191510903Y-91112363D01*
X191505720Y-91135086D01*
X191509789Y-91152234D01*
X191509540Y-91161153D01*
X191511479Y-91172147D01*
X191512001Y-91186385D01*
X191512001Y-91584876D01*
X191518649Y-91646080D01*
X191568974Y-91780324D01*
X191654954Y-91895046D01*
X191769676Y-91981026D01*
X191786287Y-91987253D01*
X191889304Y-92025872D01*
X191889305Y-92025872D01*
X191903920Y-92031351D01*
X191919439Y-92033037D01*
X191965123Y-92038000D01*
X191964994Y-92039188D01*
X192051383Y-92061293D01*
X192119853Y-92109774D01*
X194189070Y-94178991D01*
X194243046Y-94259773D01*
X194262000Y-94355061D01*
X194262000Y-95454546D01*
X194243046Y-95549834D01*
X194189070Y-95630616D01*
X194178805Y-95640314D01*
X194035833Y-95767921D01*
X193874215Y-95962246D01*
X193858556Y-95988052D01*
X193747884Y-96170432D01*
X193747881Y-96170438D01*
X193743095Y-96178325D01*
X193739526Y-96186836D01*
X193739524Y-96186840D01*
X193657405Y-96382673D01*
X193645354Y-96411411D01*
X193583139Y-96656383D01*
X193582213Y-96665583D01*
X193558743Y-96898660D01*
X193557816Y-96907861D01*
X193569943Y-97160320D01*
X193619252Y-97408213D01*
X193704660Y-97646095D01*
X193709032Y-97654232D01*
X193709034Y-97654236D01*
X193773358Y-97773947D01*
X193824292Y-97868740D01*
X193975518Y-98071256D01*
X194155017Y-98249196D01*
X194162469Y-98254660D01*
X194259929Y-98326120D01*
X194358846Y-98398649D01*
X194367010Y-98402945D01*
X194367016Y-98402948D01*
X194475892Y-98460230D01*
X194582526Y-98516333D01*
X194821144Y-98599662D01*
X195069458Y-98646806D01*
X195078680Y-98647168D01*
X195078686Y-98647169D01*
X195195736Y-98651768D01*
X195322013Y-98656729D01*
X195331188Y-98655724D01*
X195331193Y-98655724D01*
X195456749Y-98641973D01*
X195534060Y-98633506D01*
X195630843Y-98641973D01*
X195717021Y-98686835D01*
X195779471Y-98761259D01*
X195808686Y-98853918D01*
X195807273Y-98918873D01*
X195787752Y-99045809D01*
X195787750Y-99045826D01*
X195787158Y-99049675D01*
X195767086Y-99272693D01*
X195766961Y-99275482D01*
X195766121Y-99294176D01*
X195742909Y-99388518D01*
X195685361Y-99466795D01*
X195602239Y-99517091D01*
X195517372Y-99532000D01*
X129262000Y-99532000D01*
X129093453Y-99537676D01*
X128925796Y-99548980D01*
X128847370Y-99555506D01*
X128842526Y-99556296D01*
X128842522Y-99556296D01*
X128767820Y-99568471D01*
X128536824Y-99606120D01*
X128533020Y-99606988D01*
X128533011Y-99606990D01*
X128436120Y-99629105D01*
X128318519Y-99655946D01*
X128187830Y-99689502D01*
X127891313Y-99794754D01*
X127685413Y-99882760D01*
X127616472Y-99914448D01*
X127567905Y-99936771D01*
X127567898Y-99936775D01*
X127562828Y-99939105D01*
X127557991Y-99941878D01*
X127557982Y-99941883D01*
X127293261Y-100093666D01*
X127289869Y-100095611D01*
X127102992Y-100218967D01*
X126992421Y-100296307D01*
X126988143Y-100299911D01*
X126988142Y-100299912D01*
X126927068Y-100351368D01*
X126751795Y-100499037D01*
X126633840Y-100611815D01*
X126551872Y-100663963D01*
X126456182Y-100680774D01*
X126361343Y-100659688D01*
X126312547Y-100631171D01*
X126217039Y-100559674D01*
X126190190Y-100536410D01*
X126085930Y-100432150D01*
X126031954Y-100351368D01*
X126013000Y-100256080D01*
X126013000Y-96131146D01*
X126031954Y-96035858D01*
X126085930Y-95955076D01*
X126166712Y-95901100D01*
X126262000Y-95882146D01*
X126357288Y-95901100D01*
X126377938Y-95910784D01*
X126490759Y-95970142D01*
X126502526Y-95976333D01*
X126741144Y-96059662D01*
X126989458Y-96106806D01*
X126998680Y-96107168D01*
X126998686Y-96107169D01*
X127115736Y-96111768D01*
X127242013Y-96116729D01*
X127251188Y-96115724D01*
X127251193Y-96115724D01*
X127484077Y-96090219D01*
X127484081Y-96090218D01*
X127493260Y-96089213D01*
X127737681Y-96024863D01*
X127969905Y-95925091D01*
X127977757Y-95920232D01*
X127977761Y-95920230D01*
X128176972Y-95796954D01*
X128184831Y-95792091D01*
X128377738Y-95628783D01*
X128403314Y-95599620D01*
X128538302Y-95445696D01*
X128538303Y-95445694D01*
X128544388Y-95438756D01*
X128681119Y-95226184D01*
X128686489Y-95214265D01*
X128781135Y-95004156D01*
X128784928Y-94995736D01*
X128853534Y-94752476D01*
X128885431Y-94501747D01*
X128887768Y-94412500D01*
X128869037Y-94160445D01*
X128813256Y-93913928D01*
X128745554Y-93739832D01*
X128725002Y-93686982D01*
X128725001Y-93686979D01*
X128721650Y-93678363D01*
X128596231Y-93458926D01*
X128590519Y-93451680D01*
X128590514Y-93451673D01*
X128445471Y-93267688D01*
X128445467Y-93267684D01*
X128439755Y-93260438D01*
X128255660Y-93087258D01*
X128231321Y-93070373D01*
X128120071Y-92993196D01*
X128052581Y-92923309D01*
X128016974Y-92832914D01*
X128013000Y-92788606D01*
X128013000Y-91124916D01*
X128022337Y-91077976D01*
X128013000Y-91023637D01*
X128013000Y-90986700D01*
X128012999Y-90986695D01*
X128012999Y-90490124D01*
X128006351Y-90428920D01*
X127956026Y-90294676D01*
X127888720Y-90204870D01*
X127880687Y-90194152D01*
X127870046Y-90179954D01*
X127849720Y-90164720D01*
X127807819Y-90133317D01*
X127755324Y-90093974D01*
X127671606Y-90062590D01*
X127635696Y-90049128D01*
X127635695Y-90049128D01*
X127621080Y-90043649D01*
X127559877Y-90037000D01*
X127045451Y-90037000D01*
X127032422Y-90036659D01*
X126975973Y-90033701D01*
X126975971Y-90033701D01*
X126963374Y-90033041D01*
X126950901Y-90034928D01*
X126938301Y-90035544D01*
X126938299Y-90035510D01*
X126918466Y-90037001D01*
X126465124Y-90037001D01*
X126403920Y-90043649D01*
X126389300Y-90049130D01*
X126389299Y-90049130D01*
X126349403Y-90064086D01*
X126253525Y-90079786D01*
X126158937Y-90057599D01*
X126080040Y-90000905D01*
X126028844Y-89918333D01*
X126013000Y-89830930D01*
X126013000Y-86825101D01*
X126031954Y-86729813D01*
X126085930Y-86649031D01*
X126166712Y-86595055D01*
X126262000Y-86576101D01*
X126357288Y-86595055D01*
X126377938Y-86604739D01*
X126530759Y-86685142D01*
X126542526Y-86691333D01*
X126781144Y-86774662D01*
X127029458Y-86821806D01*
X127038680Y-86822168D01*
X127038686Y-86822169D01*
X127155736Y-86826768D01*
X127282013Y-86831729D01*
X127291187Y-86830724D01*
X127291194Y-86830724D01*
X127370401Y-86822049D01*
X127467187Y-86830517D01*
X127553364Y-86875378D01*
X127573579Y-86893499D01*
X128439070Y-87758990D01*
X128493046Y-87839772D01*
X128512000Y-87935060D01*
X128512000Y-91004555D01*
X128511659Y-91017586D01*
X128510659Y-91036668D01*
X128502712Y-91067958D01*
X128508200Y-91087677D01*
X128509201Y-91094295D01*
X128512001Y-91131534D01*
X128512001Y-91584876D01*
X128518649Y-91646080D01*
X128568974Y-91780324D01*
X128654954Y-91895046D01*
X128769676Y-91981026D01*
X128786287Y-91987253D01*
X128889304Y-92025872D01*
X128889305Y-92025872D01*
X128903920Y-92031351D01*
X128965123Y-92038000D01*
X129479555Y-92038000D01*
X129492586Y-92038341D01*
X129549026Y-92041299D01*
X129549029Y-92041299D01*
X129561626Y-92041959D01*
X129574103Y-92040072D01*
X129586693Y-92039456D01*
X129586695Y-92039491D01*
X129606524Y-92038000D01*
X129763000Y-92038000D01*
X129858288Y-92056954D01*
X129939070Y-92110930D01*
X129993046Y-92191712D01*
X130012000Y-92287000D01*
X130012000Y-95684614D01*
X130011903Y-95691567D01*
X130011411Y-95709196D01*
X130009540Y-95776153D01*
X130013142Y-95796577D01*
X130019234Y-95831127D01*
X130021742Y-95849207D01*
X130025088Y-95882146D01*
X130027380Y-95904716D01*
X130031150Y-95916746D01*
X130031151Y-95916751D01*
X130033609Y-95924593D01*
X130041219Y-95955810D01*
X130044836Y-95976321D01*
X130049479Y-95988047D01*
X130049480Y-95988052D01*
X130065378Y-96028207D01*
X130071467Y-96045402D01*
X130084389Y-96086635D01*
X130084392Y-96086642D01*
X130088162Y-96098672D01*
X130094276Y-96109701D01*
X130094277Y-96109704D01*
X130098258Y-96116885D01*
X130111996Y-96145947D01*
X130119660Y-96165305D01*
X130126567Y-96175860D01*
X130126568Y-96175862D01*
X130150220Y-96212006D01*
X130159648Y-96227635D01*
X130179555Y-96263548D01*
X130186703Y-96276444D01*
X130200259Y-96292260D01*
X130219554Y-96317959D01*
X130225716Y-96327377D01*
X130225720Y-96327382D01*
X130230955Y-96335382D01*
X130235417Y-96340338D01*
X130237709Y-96342630D01*
X130237728Y-96342650D01*
X130270992Y-96375913D01*
X130283986Y-96389945D01*
X130306961Y-96416751D01*
X130318977Y-96430771D01*
X130328939Y-96438498D01*
X130328945Y-96438504D01*
X130337235Y-96444934D01*
X130360692Y-96465613D01*
X130496731Y-96601652D01*
X130550707Y-96682434D01*
X130569661Y-96777722D01*
X130568408Y-96802668D01*
X130558742Y-96898660D01*
X130558742Y-96898662D01*
X130557816Y-96907861D01*
X130569943Y-97160320D01*
X130619252Y-97408213D01*
X130704660Y-97646095D01*
X130709032Y-97654232D01*
X130709034Y-97654236D01*
X130773358Y-97773947D01*
X130824292Y-97868740D01*
X130975518Y-98071256D01*
X131155017Y-98249196D01*
X131162469Y-98254660D01*
X131259929Y-98326120D01*
X131358846Y-98398649D01*
X131367010Y-98402945D01*
X131367016Y-98402948D01*
X131475892Y-98460230D01*
X131582526Y-98516333D01*
X131821144Y-98599662D01*
X132069458Y-98646806D01*
X132078680Y-98647168D01*
X132078686Y-98647169D01*
X132195736Y-98651768D01*
X132322013Y-98656729D01*
X132331188Y-98655724D01*
X132331193Y-98655724D01*
X132564077Y-98630219D01*
X132564081Y-98630218D01*
X132573260Y-98629213D01*
X132817681Y-98564863D01*
X133049905Y-98465091D01*
X133057757Y-98460232D01*
X133057761Y-98460230D01*
X133256972Y-98336954D01*
X133264831Y-98332091D01*
X133457738Y-98168783D01*
X133543268Y-98071256D01*
X133618302Y-97985696D01*
X133618303Y-97985694D01*
X133624388Y-97978756D01*
X133761119Y-97766184D01*
X133864928Y-97535736D01*
X133933534Y-97292476D01*
X133965431Y-97041747D01*
X133967768Y-96952500D01*
X133949037Y-96700445D01*
X133893256Y-96453928D01*
X133889907Y-96445316D01*
X133887206Y-96436481D01*
X133889548Y-96435765D01*
X133875459Y-96355875D01*
X133896485Y-96261023D01*
X133952208Y-96181436D01*
X134034146Y-96129233D01*
X134134176Y-96112492D01*
X134242013Y-96116729D01*
X134251188Y-96115724D01*
X134251193Y-96115724D01*
X134484077Y-96090219D01*
X134484081Y-96090218D01*
X134493260Y-96089213D01*
X134737681Y-96024863D01*
X134969905Y-95925091D01*
X134977757Y-95920232D01*
X134977761Y-95920230D01*
X135176972Y-95796954D01*
X135184831Y-95792091D01*
X135377738Y-95628783D01*
X135403314Y-95599620D01*
X135538302Y-95445696D01*
X135538303Y-95445694D01*
X135544388Y-95438756D01*
X135681119Y-95226184D01*
X135686489Y-95214265D01*
X135781135Y-95004156D01*
X135784928Y-94995736D01*
X135853534Y-94752476D01*
X135885431Y-94501747D01*
X135887768Y-94412500D01*
X135871165Y-94189083D01*
X135883005Y-94092655D01*
X135890954Y-94071756D01*
X135912539Y-94021877D01*
X135920371Y-94005456D01*
X135946241Y-93955970D01*
X135951983Y-93935944D01*
X135962815Y-93905693D01*
X135971086Y-93886581D01*
X135982501Y-93831941D01*
X135986885Y-93814226D01*
X135989514Y-93805060D01*
X136002266Y-93760587D01*
X136003864Y-93739816D01*
X136008391Y-93708012D01*
X136012651Y-93687620D01*
X136013000Y-93680961D01*
X136013000Y-93630654D01*
X136013734Y-93611551D01*
X136016892Y-93570509D01*
X136017860Y-93557930D01*
X136014963Y-93534998D01*
X136013000Y-93503790D01*
X136013000Y-91124916D01*
X136022337Y-91077976D01*
X136013000Y-91023637D01*
X136013000Y-90986700D01*
X136012999Y-90986695D01*
X136012999Y-90490124D01*
X136006351Y-90428920D01*
X135970401Y-90333022D01*
X135954700Y-90237144D01*
X135976886Y-90142556D01*
X136033580Y-90063658D01*
X136116151Y-90012462D01*
X136212029Y-89996761D01*
X136306617Y-90018947D01*
X136379626Y-90069547D01*
X136439070Y-90128991D01*
X136493046Y-90209773D01*
X136512000Y-90305061D01*
X136512000Y-91004555D01*
X136511659Y-91017586D01*
X136510659Y-91036668D01*
X136502712Y-91067958D01*
X136508200Y-91087677D01*
X136509201Y-91094295D01*
X136512001Y-91131534D01*
X136512001Y-91584876D01*
X136518649Y-91646080D01*
X136568974Y-91780324D01*
X136654954Y-91895046D01*
X136769676Y-91981026D01*
X136786287Y-91987253D01*
X136889304Y-92025872D01*
X136889305Y-92025872D01*
X136903920Y-92031351D01*
X136965123Y-92038000D01*
X137479555Y-92038000D01*
X137492586Y-92038341D01*
X137549026Y-92041299D01*
X137549029Y-92041299D01*
X137561626Y-92041959D01*
X137574103Y-92040072D01*
X137586693Y-92039456D01*
X137586695Y-92039491D01*
X137606524Y-92038000D01*
X137763000Y-92038000D01*
X137858288Y-92056954D01*
X137939070Y-92110930D01*
X137993046Y-92191712D01*
X138012000Y-92287000D01*
X138012000Y-95706563D01*
X137993046Y-95801851D01*
X137954442Y-95865783D01*
X137880121Y-95955144D01*
X137880117Y-95955150D01*
X137874215Y-95962246D01*
X137858556Y-95988052D01*
X137747884Y-96170432D01*
X137747881Y-96170438D01*
X137743095Y-96178325D01*
X137739526Y-96186836D01*
X137739524Y-96186840D01*
X137657405Y-96382673D01*
X137645354Y-96411411D01*
X137583139Y-96656383D01*
X137582213Y-96665583D01*
X137558743Y-96898660D01*
X137557816Y-96907861D01*
X137569943Y-97160320D01*
X137619252Y-97408213D01*
X137704660Y-97646095D01*
X137709032Y-97654232D01*
X137709034Y-97654236D01*
X137773358Y-97773947D01*
X137824292Y-97868740D01*
X137975518Y-98071256D01*
X138155017Y-98249196D01*
X138162469Y-98254660D01*
X138259929Y-98326120D01*
X138358846Y-98398649D01*
X138367010Y-98402945D01*
X138367016Y-98402948D01*
X138475892Y-98460230D01*
X138582526Y-98516333D01*
X138821144Y-98599662D01*
X139069458Y-98646806D01*
X139078680Y-98647168D01*
X139078686Y-98647169D01*
X139195736Y-98651768D01*
X139322013Y-98656729D01*
X139331188Y-98655724D01*
X139331193Y-98655724D01*
X139564077Y-98630219D01*
X139564081Y-98630218D01*
X139573260Y-98629213D01*
X139817681Y-98564863D01*
X140049905Y-98465091D01*
X140057757Y-98460232D01*
X140057761Y-98460230D01*
X140256972Y-98336954D01*
X140264831Y-98332091D01*
X140457738Y-98168783D01*
X140543268Y-98071256D01*
X140618302Y-97985696D01*
X140618303Y-97985694D01*
X140624388Y-97978756D01*
X140761119Y-97766184D01*
X140864928Y-97535736D01*
X140933534Y-97292476D01*
X140965431Y-97041747D01*
X140967768Y-96952500D01*
X140949037Y-96700445D01*
X140893256Y-96453928D01*
X140889907Y-96445316D01*
X140887206Y-96436481D01*
X140889548Y-96435765D01*
X140875459Y-96355875D01*
X140896485Y-96261023D01*
X140952208Y-96181436D01*
X141034146Y-96129233D01*
X141134176Y-96112492D01*
X141242013Y-96116729D01*
X141251188Y-96115724D01*
X141251193Y-96115724D01*
X141484077Y-96090219D01*
X141484081Y-96090218D01*
X141493260Y-96089213D01*
X141737681Y-96024863D01*
X141969905Y-95925091D01*
X141977757Y-95920232D01*
X141977761Y-95920230D01*
X142176972Y-95796954D01*
X142184831Y-95792091D01*
X142377738Y-95628783D01*
X142403314Y-95599620D01*
X142538302Y-95445696D01*
X142538303Y-95445694D01*
X142544388Y-95438756D01*
X142681119Y-95226184D01*
X142686489Y-95214265D01*
X142781135Y-95004156D01*
X142784928Y-94995736D01*
X142853534Y-94752476D01*
X142885431Y-94501747D01*
X142887768Y-94412500D01*
X142876142Y-94256055D01*
X142887982Y-94159626D01*
X142935823Y-94075066D01*
X142948387Y-94061533D01*
X143707320Y-93302600D01*
X143712305Y-93297753D01*
X143764617Y-93248284D01*
X143773780Y-93239619D01*
X143805797Y-93193894D01*
X143816804Y-93179341D01*
X143844101Y-93145872D01*
X143844103Y-93145870D01*
X143852073Y-93136097D01*
X143861720Y-93117644D01*
X143878415Y-93090184D01*
X143880464Y-93087258D01*
X143890363Y-93073121D01*
X143898398Y-93054553D01*
X143912525Y-93021907D01*
X143920384Y-93005430D01*
X143926744Y-92993266D01*
X143946242Y-92955970D01*
X143951986Y-92935937D01*
X143962818Y-92905687D01*
X143966078Y-92898155D01*
X143966079Y-92898151D01*
X143971086Y-92886581D01*
X143982499Y-92831951D01*
X143986881Y-92814244D01*
X143998790Y-92772710D01*
X143998790Y-92772709D01*
X144002266Y-92760587D01*
X144003864Y-92739816D01*
X144008391Y-92708012D01*
X144012651Y-92687620D01*
X144013000Y-92680961D01*
X144013000Y-92630653D01*
X144013734Y-92611550D01*
X144016892Y-92570512D01*
X144016892Y-92570510D01*
X144017860Y-92557929D01*
X144014962Y-92534991D01*
X144013000Y-92503796D01*
X144013000Y-91554059D01*
X144031954Y-91458771D01*
X144085930Y-91377989D01*
X144166712Y-91324013D01*
X144262000Y-91305059D01*
X144357288Y-91324013D01*
X144438067Y-91377987D01*
X144439072Y-91378992D01*
X144493047Y-91459772D01*
X144512001Y-91555060D01*
X144512001Y-91584876D01*
X144518649Y-91646080D01*
X144568974Y-91780324D01*
X144654954Y-91895046D01*
X144769676Y-91981026D01*
X144786287Y-91987253D01*
X144889304Y-92025872D01*
X144889305Y-92025872D01*
X144903920Y-92031351D01*
X144965123Y-92038000D01*
X145013000Y-92038000D01*
X145108288Y-92056954D01*
X145189070Y-92110930D01*
X145243046Y-92191712D01*
X145262000Y-92287000D01*
X145262000Y-95454546D01*
X145243046Y-95549834D01*
X145189070Y-95630616D01*
X145178805Y-95640314D01*
X145035833Y-95767921D01*
X144874215Y-95962246D01*
X144858556Y-95988052D01*
X144747884Y-96170432D01*
X144747881Y-96170438D01*
X144743095Y-96178325D01*
X144739526Y-96186836D01*
X144739524Y-96186840D01*
X144657405Y-96382673D01*
X144645354Y-96411411D01*
X144583139Y-96656383D01*
X144582213Y-96665583D01*
X144558743Y-96898660D01*
X144557816Y-96907861D01*
X144569943Y-97160320D01*
X144619252Y-97408213D01*
X144704660Y-97646095D01*
X144709032Y-97654232D01*
X144709034Y-97654236D01*
X144773358Y-97773947D01*
X144824292Y-97868740D01*
X144975518Y-98071256D01*
X145155017Y-98249196D01*
X145162469Y-98254660D01*
X145259929Y-98326120D01*
X145358846Y-98398649D01*
X145367010Y-98402945D01*
X145367016Y-98402948D01*
X145475892Y-98460230D01*
X145582526Y-98516333D01*
X145821144Y-98599662D01*
X146069458Y-98646806D01*
X146078680Y-98647168D01*
X146078686Y-98647169D01*
X146195736Y-98651768D01*
X146322013Y-98656729D01*
X146331188Y-98655724D01*
X146331193Y-98655724D01*
X146564077Y-98630219D01*
X146564081Y-98630218D01*
X146573260Y-98629213D01*
X146817681Y-98564863D01*
X147049905Y-98465091D01*
X147057757Y-98460232D01*
X147057761Y-98460230D01*
X147256972Y-98336954D01*
X147264831Y-98332091D01*
X147457738Y-98168783D01*
X147543268Y-98071256D01*
X147618302Y-97985696D01*
X147618303Y-97985694D01*
X147624388Y-97978756D01*
X147761119Y-97766184D01*
X147864928Y-97535736D01*
X147933534Y-97292476D01*
X147965431Y-97041747D01*
X147967768Y-96952500D01*
X147949037Y-96700445D01*
X147893256Y-96453928D01*
X147889907Y-96445316D01*
X147887206Y-96436481D01*
X147889548Y-96435765D01*
X147875459Y-96355875D01*
X147896485Y-96261023D01*
X147952208Y-96181436D01*
X148034146Y-96129233D01*
X148134176Y-96112492D01*
X148242013Y-96116729D01*
X148251188Y-96115724D01*
X148251193Y-96115724D01*
X148484077Y-96090219D01*
X148484081Y-96090218D01*
X148493260Y-96089213D01*
X148737681Y-96024863D01*
X148969905Y-95925091D01*
X148977757Y-95920232D01*
X148977761Y-95920230D01*
X149176972Y-95796954D01*
X149184831Y-95792091D01*
X149377738Y-95628783D01*
X149403314Y-95599620D01*
X149538302Y-95445696D01*
X149538303Y-95445694D01*
X149544388Y-95438756D01*
X149681119Y-95226184D01*
X149686489Y-95214265D01*
X149781135Y-95004156D01*
X149784928Y-94995736D01*
X149853534Y-94752476D01*
X149885431Y-94501747D01*
X149887768Y-94412500D01*
X149876142Y-94256056D01*
X149887982Y-94159627D01*
X149935823Y-94075067D01*
X149948387Y-94061534D01*
X151707338Y-92302583D01*
X151712323Y-92297736D01*
X151764615Y-92248286D01*
X151773780Y-92239619D01*
X151781013Y-92229289D01*
X151781020Y-92229281D01*
X151805799Y-92193893D01*
X151816805Y-92179340D01*
X151844098Y-92145875D01*
X151852073Y-92136097D01*
X151861722Y-92117640D01*
X151878413Y-92090188D01*
X151890363Y-92073121D01*
X151912539Y-92021877D01*
X151920371Y-92005456D01*
X151946241Y-91955970D01*
X151951983Y-91935944D01*
X151962815Y-91905693D01*
X151971086Y-91886581D01*
X151982501Y-91831941D01*
X151986885Y-91814226D01*
X151991405Y-91798465D01*
X152002266Y-91760587D01*
X152003864Y-91739816D01*
X152008391Y-91708012D01*
X152012651Y-91687620D01*
X152013000Y-91680961D01*
X152013000Y-91630654D01*
X152013734Y-91611546D01*
X152015777Y-91585002D01*
X152041988Y-91491449D01*
X152102004Y-91415048D01*
X152186689Y-91367430D01*
X152283151Y-91355844D01*
X152376704Y-91382055D01*
X152453105Y-91442071D01*
X152500723Y-91526756D01*
X152511606Y-91584919D01*
X152512001Y-91584876D01*
X152518649Y-91646080D01*
X152568974Y-91780324D01*
X152579613Y-91794519D01*
X152581773Y-91798465D01*
X152610908Y-91891149D01*
X152602356Y-91987927D01*
X152557419Y-92074065D01*
X152534448Y-92098958D01*
X152510388Y-92121711D01*
X152501220Y-92130381D01*
X152493987Y-92140711D01*
X152469203Y-92176106D01*
X152458196Y-92190659D01*
X152436851Y-92216831D01*
X152422927Y-92233903D01*
X152417084Y-92245081D01*
X152417082Y-92245083D01*
X152413280Y-92252356D01*
X152396586Y-92279815D01*
X152384637Y-92296879D01*
X152379629Y-92308452D01*
X152362475Y-92348093D01*
X152354617Y-92364567D01*
X152328758Y-92414030D01*
X152323014Y-92434063D01*
X152312183Y-92464310D01*
X152303914Y-92483419D01*
X152292502Y-92538046D01*
X152288119Y-92555756D01*
X152283888Y-92570512D01*
X152272734Y-92609413D01*
X152271136Y-92630184D01*
X152266609Y-92661988D01*
X152262349Y-92682380D01*
X152262000Y-92689039D01*
X152262000Y-92739347D01*
X152261266Y-92758450D01*
X152258946Y-92788606D01*
X152257140Y-92812071D01*
X152260038Y-92835009D01*
X152262000Y-92866204D01*
X152262000Y-95454546D01*
X152243046Y-95549834D01*
X152189070Y-95630616D01*
X152178805Y-95640314D01*
X152035833Y-95767921D01*
X151874215Y-95962246D01*
X151858556Y-95988052D01*
X151747884Y-96170432D01*
X151747881Y-96170438D01*
X151743095Y-96178325D01*
X151739526Y-96186836D01*
X151739524Y-96186840D01*
X151657405Y-96382673D01*
X151645354Y-96411411D01*
X151583139Y-96656383D01*
X151582213Y-96665583D01*
X151558743Y-96898660D01*
X151557816Y-96907861D01*
X151569943Y-97160320D01*
X151619252Y-97408213D01*
X151704660Y-97646095D01*
X151709032Y-97654232D01*
X151709034Y-97654236D01*
X151773358Y-97773947D01*
X151824292Y-97868740D01*
X151975518Y-98071256D01*
X152155017Y-98249196D01*
X152162469Y-98254660D01*
X152259929Y-98326120D01*
X152358846Y-98398649D01*
X152367010Y-98402945D01*
X152367016Y-98402948D01*
X152475892Y-98460230D01*
X152582526Y-98516333D01*
X152821144Y-98599662D01*
X153069458Y-98646806D01*
X153078680Y-98647168D01*
X153078686Y-98647169D01*
X153195736Y-98651768D01*
X153322013Y-98656729D01*
X153331188Y-98655724D01*
X153331193Y-98655724D01*
X153564077Y-98630219D01*
X153564081Y-98630218D01*
X153573260Y-98629213D01*
X153817681Y-98564863D01*
X154049905Y-98465091D01*
X154057757Y-98460232D01*
X154057761Y-98460230D01*
X154256972Y-98336954D01*
X154264831Y-98332091D01*
X154457738Y-98168783D01*
X154543268Y-98071256D01*
X154618302Y-97985696D01*
X154618303Y-97985694D01*
X154624388Y-97978756D01*
X154761119Y-97766184D01*
X154864928Y-97535736D01*
X154933534Y-97292476D01*
X154965431Y-97041747D01*
X154967768Y-96952500D01*
X154949037Y-96700445D01*
X154893256Y-96453928D01*
X154889907Y-96445316D01*
X154887206Y-96436481D01*
X154889548Y-96435765D01*
X154875459Y-96355875D01*
X154896485Y-96261023D01*
X154952208Y-96181436D01*
X155034146Y-96129233D01*
X155134176Y-96112492D01*
X155242013Y-96116729D01*
X155251188Y-96115724D01*
X155251193Y-96115724D01*
X155484077Y-96090219D01*
X155484081Y-96090218D01*
X155493260Y-96089213D01*
X155737681Y-96024863D01*
X155969905Y-95925091D01*
X155977757Y-95920232D01*
X155977761Y-95920230D01*
X156176972Y-95796954D01*
X156184831Y-95792091D01*
X156377738Y-95628783D01*
X156383828Y-95621839D01*
X156383834Y-95621833D01*
X156492588Y-95497823D01*
X156569666Y-95438679D01*
X156663511Y-95413533D01*
X156679796Y-95413000D01*
X156869614Y-95413000D01*
X156876567Y-95413097D01*
X156948548Y-95415108D01*
X156948549Y-95415108D01*
X156961153Y-95415460D01*
X157016128Y-95405766D01*
X157034207Y-95403258D01*
X157077167Y-95398895D01*
X157077171Y-95398894D01*
X157089716Y-95397620D01*
X157101746Y-95393850D01*
X157101751Y-95393849D01*
X157109593Y-95391391D01*
X157140810Y-95383781D01*
X157161321Y-95380164D01*
X157173047Y-95375521D01*
X157173052Y-95375520D01*
X157213207Y-95359622D01*
X157230402Y-95353533D01*
X157271635Y-95340611D01*
X157271642Y-95340608D01*
X157283672Y-95336838D01*
X157294701Y-95330724D01*
X157294704Y-95330723D01*
X157301885Y-95326742D01*
X157330947Y-95313004D01*
X157350305Y-95305340D01*
X157397006Y-95274780D01*
X157412627Y-95265357D01*
X157461444Y-95238297D01*
X157477260Y-95224741D01*
X157502954Y-95205449D01*
X157506910Y-95202861D01*
X157512377Y-95199284D01*
X157512382Y-95199280D01*
X157520382Y-95194045D01*
X157525338Y-95189583D01*
X157560911Y-95154010D01*
X157574939Y-95141021D01*
X157606193Y-95114233D01*
X157606197Y-95114229D01*
X157615771Y-95106023D01*
X157629932Y-95087767D01*
X157650606Y-95064315D01*
X158836931Y-93877989D01*
X158917712Y-93824014D01*
X159013000Y-93805060D01*
X159108288Y-93824014D01*
X159189070Y-93877990D01*
X159243046Y-93958772D01*
X159262000Y-94054060D01*
X159262000Y-95454546D01*
X159243046Y-95549834D01*
X159189070Y-95630616D01*
X159178805Y-95640314D01*
X159035833Y-95767921D01*
X158874215Y-95962246D01*
X158858556Y-95988052D01*
X158747884Y-96170432D01*
X158747881Y-96170438D01*
X158743095Y-96178325D01*
X158739526Y-96186836D01*
X158739524Y-96186840D01*
X158657405Y-96382673D01*
X158645354Y-96411411D01*
X158583139Y-96656383D01*
X158582213Y-96665583D01*
X158558743Y-96898660D01*
X158557816Y-96907861D01*
X158569943Y-97160320D01*
X158619252Y-97408213D01*
X158704660Y-97646095D01*
X158709032Y-97654232D01*
X158709034Y-97654236D01*
X158773358Y-97773947D01*
X158824292Y-97868740D01*
X158975518Y-98071256D01*
X159155017Y-98249196D01*
X159162469Y-98254660D01*
X159259929Y-98326120D01*
X159358846Y-98398649D01*
X159367010Y-98402945D01*
X159367016Y-98402948D01*
X159475892Y-98460230D01*
X159582526Y-98516333D01*
X159821144Y-98599662D01*
X160069458Y-98646806D01*
X160078680Y-98647168D01*
X160078686Y-98647169D01*
X160195736Y-98651768D01*
X160322013Y-98656729D01*
X160331188Y-98655724D01*
X160331193Y-98655724D01*
X160564077Y-98630219D01*
X160564081Y-98630218D01*
X160573260Y-98629213D01*
X160817681Y-98564863D01*
X161049905Y-98465091D01*
X161057757Y-98460232D01*
X161057761Y-98460230D01*
X161256972Y-98336954D01*
X161264831Y-98332091D01*
X161457738Y-98168783D01*
X161543268Y-98071256D01*
X161618302Y-97985696D01*
X161618303Y-97985694D01*
X161624388Y-97978756D01*
X161761119Y-97766184D01*
X161864928Y-97535736D01*
X161933534Y-97292476D01*
X161965431Y-97041747D01*
X161967768Y-96952500D01*
X161949037Y-96700445D01*
X161893256Y-96453928D01*
X161889907Y-96445316D01*
X161887206Y-96436481D01*
X161889548Y-96435765D01*
X161875459Y-96355875D01*
X161896485Y-96261023D01*
X161952208Y-96181436D01*
X162034146Y-96129233D01*
X162134176Y-96112492D01*
X162242013Y-96116729D01*
X162251188Y-96115724D01*
X162251193Y-96115724D01*
X162484077Y-96090219D01*
X162484081Y-96090218D01*
X162493260Y-96089213D01*
X162737681Y-96024863D01*
X162969905Y-95925091D01*
X162977757Y-95920232D01*
X162977761Y-95920230D01*
X163176972Y-95796954D01*
X163184831Y-95792091D01*
X163377738Y-95628783D01*
X163383828Y-95621839D01*
X163383834Y-95621833D01*
X163492588Y-95497823D01*
X163569666Y-95438679D01*
X163663511Y-95413533D01*
X163679796Y-95413000D01*
X164369614Y-95413000D01*
X164376567Y-95413097D01*
X164448548Y-95415108D01*
X164448549Y-95415108D01*
X164461153Y-95415460D01*
X164516128Y-95405766D01*
X164534207Y-95403258D01*
X164577167Y-95398895D01*
X164577171Y-95398894D01*
X164589716Y-95397620D01*
X164601746Y-95393850D01*
X164601751Y-95393849D01*
X164609593Y-95391391D01*
X164640810Y-95383781D01*
X164661321Y-95380164D01*
X164673047Y-95375521D01*
X164673052Y-95375520D01*
X164713207Y-95359622D01*
X164730402Y-95353533D01*
X164771635Y-95340611D01*
X164771642Y-95340608D01*
X164783672Y-95336838D01*
X164794701Y-95330724D01*
X164794704Y-95330723D01*
X164801885Y-95326742D01*
X164830947Y-95313004D01*
X164850305Y-95305340D01*
X164897006Y-95274780D01*
X164912627Y-95265357D01*
X164961444Y-95238297D01*
X164977260Y-95224741D01*
X165002954Y-95205449D01*
X165006910Y-95202861D01*
X165012377Y-95199284D01*
X165012382Y-95199280D01*
X165020382Y-95194045D01*
X165025338Y-95189583D01*
X165060911Y-95154010D01*
X165074939Y-95141021D01*
X165106193Y-95114233D01*
X165106197Y-95114229D01*
X165115771Y-95106023D01*
X165123500Y-95096059D01*
X165123503Y-95096056D01*
X165129934Y-95087765D01*
X165150613Y-95064308D01*
X165836930Y-94377991D01*
X165917712Y-94324015D01*
X166013000Y-94305061D01*
X166108288Y-94324015D01*
X166189070Y-94377991D01*
X166243046Y-94458773D01*
X166262000Y-94554061D01*
X166262000Y-95454546D01*
X166243046Y-95549834D01*
X166189070Y-95630616D01*
X166178805Y-95640314D01*
X166035833Y-95767921D01*
X165874215Y-95962246D01*
X165858556Y-95988052D01*
X165747884Y-96170432D01*
X165747881Y-96170438D01*
X165743095Y-96178325D01*
X165739526Y-96186836D01*
X165739524Y-96186840D01*
X165657405Y-96382673D01*
X165645354Y-96411411D01*
X165583139Y-96656383D01*
X165582213Y-96665583D01*
X165558743Y-96898660D01*
X165557816Y-96907861D01*
X165569943Y-97160320D01*
X165619252Y-97408213D01*
X165704660Y-97646095D01*
X165709032Y-97654232D01*
X165709034Y-97654236D01*
X165773358Y-97773947D01*
X165824292Y-97868740D01*
X165975518Y-98071256D01*
X166155017Y-98249196D01*
X166162469Y-98254660D01*
X166259929Y-98326120D01*
X166358846Y-98398649D01*
X166367010Y-98402945D01*
X166367016Y-98402948D01*
X166475892Y-98460230D01*
X166582526Y-98516333D01*
X166821144Y-98599662D01*
X167069458Y-98646806D01*
X167078680Y-98647168D01*
X167078686Y-98647169D01*
X167195736Y-98651768D01*
X167322013Y-98656729D01*
X167331188Y-98655724D01*
X167331193Y-98655724D01*
X167564077Y-98630219D01*
X167564081Y-98630218D01*
X167573260Y-98629213D01*
X167817681Y-98564863D01*
X168049905Y-98465091D01*
X168057757Y-98460232D01*
X168057761Y-98460230D01*
X168256972Y-98336954D01*
X168264831Y-98332091D01*
X168457738Y-98168783D01*
X168543268Y-98071256D01*
X168618302Y-97985696D01*
X168618303Y-97985694D01*
X168624388Y-97978756D01*
X168761119Y-97766184D01*
X168864928Y-97535736D01*
X168933534Y-97292476D01*
X168965431Y-97041747D01*
X168967768Y-96952500D01*
X168949037Y-96700445D01*
X168893256Y-96453928D01*
X168889907Y-96445316D01*
X168887206Y-96436481D01*
X168889548Y-96435765D01*
X168875459Y-96355875D01*
X168896485Y-96261023D01*
X168952208Y-96181436D01*
X169034146Y-96129233D01*
X169134176Y-96112492D01*
X169242013Y-96116729D01*
X169251188Y-96115724D01*
X169251193Y-96115724D01*
X169484077Y-96090219D01*
X169484081Y-96090218D01*
X169493260Y-96089213D01*
X169737681Y-96024863D01*
X169969905Y-95925091D01*
X169977757Y-95920232D01*
X169977761Y-95920230D01*
X170176972Y-95796954D01*
X170184831Y-95792091D01*
X170377738Y-95628783D01*
X170403314Y-95599620D01*
X170538302Y-95445696D01*
X170538303Y-95445694D01*
X170544388Y-95438756D01*
X170681119Y-95226184D01*
X170686489Y-95214265D01*
X170781135Y-95004156D01*
X170784928Y-94995736D01*
X170853534Y-94752476D01*
X170885431Y-94501747D01*
X170887768Y-94412500D01*
X170876142Y-94256055D01*
X170887982Y-94159626D01*
X170935823Y-94075066D01*
X170948387Y-94061533D01*
X171707320Y-93302600D01*
X171712305Y-93297753D01*
X171764617Y-93248284D01*
X171773780Y-93239619D01*
X171805797Y-93193894D01*
X171816804Y-93179341D01*
X171844101Y-93145872D01*
X171844103Y-93145870D01*
X171852073Y-93136097D01*
X171861720Y-93117644D01*
X171878415Y-93090184D01*
X171880464Y-93087258D01*
X171890363Y-93073121D01*
X171898398Y-93054553D01*
X171912525Y-93021907D01*
X171920384Y-93005430D01*
X171926744Y-92993266D01*
X171946242Y-92955970D01*
X171951986Y-92935937D01*
X171962818Y-92905687D01*
X171966078Y-92898155D01*
X171966079Y-92898151D01*
X171971086Y-92886581D01*
X171982499Y-92831951D01*
X171986881Y-92814244D01*
X171998790Y-92772710D01*
X171998790Y-92772709D01*
X172002266Y-92760587D01*
X172003864Y-92739816D01*
X172008391Y-92708012D01*
X172012651Y-92687620D01*
X172013000Y-92680961D01*
X172013000Y-92630653D01*
X172013734Y-92611550D01*
X172014734Y-92598554D01*
X172022944Y-92569248D01*
X172015964Y-92542924D01*
X172014962Y-92534992D01*
X172013000Y-92503796D01*
X172013000Y-91108288D01*
X172022371Y-91061176D01*
X172014451Y-91011454D01*
X172014236Y-91011476D01*
X172014235Y-91011466D01*
X172014136Y-91009472D01*
X172013000Y-91002343D01*
X172013000Y-90986700D01*
X172012999Y-90986695D01*
X172012999Y-90490124D01*
X172006351Y-90428920D01*
X171956026Y-90294676D01*
X171888720Y-90204870D01*
X171880687Y-90194152D01*
X171870046Y-90179954D01*
X171849720Y-90164720D01*
X171807819Y-90133317D01*
X171755324Y-90093974D01*
X171671606Y-90062590D01*
X171635696Y-90049128D01*
X171635695Y-90049128D01*
X171621080Y-90043649D01*
X171559877Y-90037000D01*
X171045451Y-90037000D01*
X171032422Y-90036659D01*
X170975973Y-90033701D01*
X170975971Y-90033701D01*
X170963374Y-90033041D01*
X170950901Y-90034928D01*
X170938301Y-90035544D01*
X170938299Y-90035510D01*
X170918466Y-90037001D01*
X170465124Y-90037001D01*
X170403920Y-90043649D01*
X170354136Y-90062312D01*
X170349905Y-90063898D01*
X170254027Y-90079599D01*
X170175095Y-90063898D01*
X170135696Y-90049128D01*
X170135695Y-90049128D01*
X170121080Y-90043649D01*
X170059877Y-90037000D01*
X169530415Y-90037000D01*
X169523464Y-90036903D01*
X169451457Y-90034892D01*
X169451456Y-90034892D01*
X169438847Y-90034540D01*
X169427853Y-90036479D01*
X169413614Y-90037001D01*
X168965124Y-90037001D01*
X168903920Y-90043649D01*
X168769676Y-90093974D01*
X168717181Y-90133317D01*
X168675281Y-90164720D01*
X168654954Y-90179954D01*
X168644313Y-90194152D01*
X168636280Y-90204870D01*
X168568974Y-90294676D01*
X168518649Y-90428920D01*
X168512000Y-90490123D01*
X168512000Y-90519939D01*
X168493046Y-90615227D01*
X168439070Y-90696009D01*
X168438069Y-90697010D01*
X168357287Y-90750986D01*
X168261999Y-90769940D01*
X168166711Y-90750986D01*
X168085929Y-90697010D01*
X168031953Y-90616228D01*
X168012999Y-90520940D01*
X168012999Y-90490124D01*
X168006351Y-90428920D01*
X167956026Y-90294676D01*
X167888720Y-90204870D01*
X167880687Y-90194152D01*
X167870046Y-90179954D01*
X167849720Y-90164720D01*
X167807819Y-90133317D01*
X167755324Y-90093974D01*
X167671606Y-90062590D01*
X167635696Y-90049128D01*
X167635695Y-90049128D01*
X167621080Y-90043649D01*
X167559877Y-90037000D01*
X167045451Y-90037000D01*
X167032422Y-90036659D01*
X166975973Y-90033701D01*
X166975971Y-90033701D01*
X166963374Y-90033041D01*
X166950901Y-90034928D01*
X166938301Y-90035544D01*
X166938299Y-90035510D01*
X166918466Y-90037001D01*
X166465124Y-90037001D01*
X166403920Y-90043649D01*
X166354136Y-90062312D01*
X166349905Y-90063898D01*
X166254027Y-90079599D01*
X166175095Y-90063898D01*
X166135696Y-90049128D01*
X166135695Y-90049128D01*
X166121080Y-90043649D01*
X166059877Y-90037000D01*
X166030061Y-90037000D01*
X165934773Y-90018046D01*
X165853991Y-89964070D01*
X162862600Y-86972680D01*
X162857753Y-86967695D01*
X162808284Y-86915383D01*
X162799619Y-86906220D01*
X162762784Y-86880428D01*
X162753894Y-86874203D01*
X162739341Y-86863196D01*
X162705872Y-86835899D01*
X162705870Y-86835897D01*
X162696097Y-86827927D01*
X162684919Y-86822084D01*
X162684917Y-86822082D01*
X162677644Y-86818280D01*
X162650184Y-86801585D01*
X162633121Y-86789637D01*
X162607941Y-86778741D01*
X162581907Y-86767475D01*
X162565446Y-86759624D01*
X162553972Y-86753626D01*
X162478311Y-86692685D01*
X162431729Y-86607425D01*
X162421320Y-86510830D01*
X162448668Y-86417603D01*
X162509611Y-86341939D01*
X162573032Y-86305101D01*
X162572653Y-86304307D01*
X162602684Y-86289983D01*
X162633518Y-86275276D01*
X162690746Y-86259170D01*
X162690153Y-86256423D01*
X162703472Y-86253547D01*
X162717019Y-86252141D01*
X162883029Y-86196756D01*
X162895326Y-86189146D01*
X162895329Y-86189145D01*
X163019547Y-86112276D01*
X163031845Y-86104666D01*
X163136832Y-85999496D01*
X163145263Y-85991050D01*
X163145264Y-85991049D01*
X163155484Y-85980811D01*
X163164208Y-85966659D01*
X163239720Y-85844154D01*
X163239720Y-85844153D01*
X163247314Y-85831834D01*
X163289102Y-85705850D01*
X163309150Y-85660875D01*
X163361102Y-85569794D01*
X163361104Y-85569790D01*
X163366595Y-85560163D01*
X163402665Y-85458304D01*
X163437407Y-85360196D01*
X163437408Y-85360194D01*
X163441108Y-85349744D01*
X163477182Y-85129454D01*
X163473676Y-84906259D01*
X163467631Y-84875445D01*
X163432834Y-84698089D01*
X163430700Y-84687212D01*
X163349614Y-84479237D01*
X163343822Y-84469786D01*
X163343817Y-84469775D01*
X163312471Y-84418622D01*
X163288578Y-84367325D01*
X163251337Y-84255701D01*
X163251336Y-84255698D01*
X163246756Y-84241971D01*
X163154666Y-84093155D01*
X163030811Y-83969516D01*
X163018497Y-83961926D01*
X163018495Y-83961924D01*
X162894154Y-83885280D01*
X162894153Y-83885280D01*
X162881834Y-83877686D01*
X162800431Y-83850685D01*
X162728636Y-83826871D01*
X162728632Y-83826870D01*
X162715728Y-83822590D01*
X162698866Y-83820862D01*
X162618685Y-83812647D01*
X162618677Y-83812647D01*
X162612366Y-83812000D01*
X162513811Y-83812000D01*
X162481308Y-83809870D01*
X162453676Y-83806232D01*
X162277577Y-83783047D01*
X162266505Y-83783569D01*
X162266500Y-83783569D01*
X162114353Y-83790745D01*
X162054602Y-83793563D01*
X162043803Y-83796036D01*
X162043798Y-83796037D01*
X162001539Y-83805716D01*
X161945950Y-83812000D01*
X161837634Y-83812000D01*
X161831238Y-83812664D01*
X161831231Y-83812664D01*
X161746530Y-83821453D01*
X161746529Y-83821453D01*
X161732981Y-83822859D01*
X161609059Y-83864202D01*
X161530260Y-83877000D01*
X156473825Y-83877000D01*
X156378537Y-83858046D01*
X156310063Y-83813790D01*
X156309568Y-83814401D01*
X156303876Y-83809791D01*
X156303216Y-83809365D01*
X156302392Y-83808590D01*
X156302385Y-83808584D01*
X156295660Y-83802258D01*
X156288081Y-83797000D01*
X156288077Y-83796997D01*
X156095583Y-83663459D01*
X156095581Y-83663458D01*
X156087989Y-83658191D01*
X156079700Y-83654103D01*
X156079696Y-83654101D01*
X155869591Y-83550489D01*
X155869589Y-83550488D01*
X155861305Y-83546403D01*
X155777678Y-83519634D01*
X155629386Y-83472165D01*
X155629379Y-83472163D01*
X155620587Y-83469349D01*
X155498636Y-83449488D01*
X155380239Y-83430205D01*
X155380233Y-83430204D01*
X155371124Y-83428721D01*
X155361894Y-83428600D01*
X155361892Y-83428600D01*
X155188201Y-83426327D01*
X155118396Y-83425413D01*
X155109241Y-83426659D01*
X155109240Y-83426659D01*
X154877107Y-83458250D01*
X154877101Y-83458251D01*
X154867955Y-83459496D01*
X154625303Y-83530223D01*
X154616924Y-83534086D01*
X154616918Y-83534088D01*
X154428069Y-83621149D01*
X154395770Y-83636039D01*
X154388042Y-83641106D01*
X154204743Y-83761282D01*
X154184399Y-83774620D01*
X154177510Y-83780769D01*
X154177507Y-83780771D01*
X154039905Y-83903585D01*
X153995833Y-83942921D01*
X153834215Y-84137246D01*
X153815323Y-84168379D01*
X153707884Y-84345432D01*
X153707881Y-84345438D01*
X153703095Y-84353325D01*
X153699526Y-84361836D01*
X153699524Y-84361840D01*
X153608930Y-84577883D01*
X153605354Y-84586411D01*
X153543139Y-84831383D01*
X153517816Y-85082861D01*
X153520054Y-85129454D01*
X153528408Y-85303358D01*
X153529943Y-85335320D01*
X153579252Y-85583213D01*
X153582375Y-85591911D01*
X153597633Y-85634410D01*
X153611993Y-85730498D01*
X153588489Y-85824767D01*
X153530699Y-85902865D01*
X153447420Y-85952903D01*
X153360023Y-85967529D01*
X153198396Y-85965413D01*
X153189241Y-85966659D01*
X153189240Y-85966659D01*
X152957107Y-85998250D01*
X152957101Y-85998251D01*
X152947955Y-85999496D01*
X152705303Y-86070223D01*
X152696924Y-86074086D01*
X152696918Y-86074088D01*
X152523574Y-86154001D01*
X152475770Y-86176039D01*
X152381879Y-86237597D01*
X152273522Y-86308639D01*
X152264399Y-86314620D01*
X152257510Y-86320769D01*
X152257507Y-86320771D01*
X152141629Y-86424196D01*
X152075833Y-86482921D01*
X151914215Y-86677246D01*
X151888995Y-86718807D01*
X151787884Y-86885432D01*
X151787881Y-86885438D01*
X151783095Y-86893325D01*
X151779526Y-86901836D01*
X151779524Y-86901840D01*
X151688930Y-87117883D01*
X151685354Y-87126411D01*
X151666652Y-87200049D01*
X151657640Y-87235535D01*
X151615814Y-87323225D01*
X151543613Y-87388235D01*
X151452031Y-87420665D01*
X151355009Y-87415580D01*
X151267319Y-87373754D01*
X151240238Y-87350317D01*
X149876716Y-85986796D01*
X149822740Y-85906014D01*
X149803786Y-85810726D01*
X149818802Y-85725565D01*
X149821135Y-85719156D01*
X149824928Y-85710736D01*
X149841860Y-85650701D01*
X149891024Y-85476377D01*
X149891025Y-85476373D01*
X149893534Y-85467476D01*
X149925431Y-85216747D01*
X149926661Y-85169759D01*
X149927605Y-85133740D01*
X149927605Y-85133732D01*
X149927768Y-85127500D01*
X149909037Y-84875445D01*
X149853256Y-84628928D01*
X149796902Y-84484013D01*
X149765002Y-84401982D01*
X149765001Y-84401979D01*
X149761650Y-84393363D01*
X149636231Y-84173926D01*
X149630519Y-84166680D01*
X149630514Y-84166673D01*
X149485471Y-83982688D01*
X149485467Y-83982684D01*
X149479755Y-83975438D01*
X149295660Y-83802258D01*
X149288081Y-83797000D01*
X149288077Y-83796997D01*
X149095583Y-83663459D01*
X149095581Y-83663458D01*
X149087989Y-83658191D01*
X149079700Y-83654103D01*
X149079696Y-83654101D01*
X148869591Y-83550489D01*
X148869589Y-83550488D01*
X148861305Y-83546403D01*
X148777678Y-83519634D01*
X148629386Y-83472165D01*
X148629379Y-83472163D01*
X148620587Y-83469349D01*
X148498636Y-83449488D01*
X148380239Y-83430205D01*
X148380233Y-83430204D01*
X148371124Y-83428721D01*
X148361894Y-83428600D01*
X148361892Y-83428600D01*
X148188201Y-83426327D01*
X148118396Y-83425413D01*
X148109241Y-83426659D01*
X148109240Y-83426659D01*
X147877107Y-83458250D01*
X147877101Y-83458251D01*
X147867955Y-83459496D01*
X147625303Y-83530223D01*
X147616924Y-83534086D01*
X147616918Y-83534088D01*
X147428069Y-83621149D01*
X147395770Y-83636039D01*
X147388042Y-83641106D01*
X147204743Y-83761282D01*
X147184399Y-83774620D01*
X147177510Y-83780769D01*
X147177507Y-83780771D01*
X147039905Y-83903585D01*
X146995833Y-83942921D01*
X146834215Y-84137246D01*
X146815323Y-84168379D01*
X146707884Y-84345432D01*
X146707881Y-84345438D01*
X146703095Y-84353325D01*
X146699526Y-84361836D01*
X146699524Y-84361840D01*
X146608930Y-84577883D01*
X146605354Y-84586411D01*
X146543139Y-84831383D01*
X146517816Y-85082861D01*
X146520054Y-85129454D01*
X146528408Y-85303358D01*
X146529943Y-85335320D01*
X146579252Y-85583213D01*
X146582375Y-85591911D01*
X146597633Y-85634410D01*
X146611993Y-85730498D01*
X146588489Y-85824767D01*
X146530699Y-85902865D01*
X146447420Y-85952903D01*
X146360023Y-85967529D01*
X146198396Y-85965413D01*
X146189241Y-85966659D01*
X146189240Y-85966659D01*
X145957107Y-85998250D01*
X145957101Y-85998251D01*
X145947955Y-85999496D01*
X145705303Y-86070223D01*
X145696924Y-86074086D01*
X145696918Y-86074088D01*
X145523574Y-86154001D01*
X145475770Y-86176039D01*
X145381879Y-86237597D01*
X145273522Y-86308639D01*
X145264399Y-86314620D01*
X145257510Y-86320769D01*
X145257507Y-86320771D01*
X145141629Y-86424196D01*
X145075833Y-86482921D01*
X144914215Y-86677246D01*
X144888995Y-86718807D01*
X144787884Y-86885432D01*
X144787881Y-86885438D01*
X144783095Y-86893325D01*
X144779526Y-86901836D01*
X144779524Y-86901840D01*
X144688930Y-87117883D01*
X144685354Y-87126411D01*
X144623139Y-87371383D01*
X144612908Y-87472987D01*
X144601419Y-87587085D01*
X144597816Y-87622861D01*
X144601608Y-87701803D01*
X144609030Y-87856309D01*
X144609943Y-87875320D01*
X144657236Y-88113076D01*
X144659252Y-88123213D01*
X144656690Y-88123723D01*
X144662630Y-88203811D01*
X144632191Y-88296074D01*
X144568761Y-88369666D01*
X144481997Y-88413383D01*
X144385108Y-88420569D01*
X144292845Y-88390130D01*
X144239420Y-88349499D01*
X142496660Y-86606739D01*
X142442684Y-86525957D01*
X142423730Y-86430669D01*
X142442684Y-86335381D01*
X142485522Y-86266492D01*
X142578296Y-86160703D01*
X142578298Y-86160700D01*
X142584388Y-86153756D01*
X142721119Y-85941184D01*
X142728906Y-85923899D01*
X142818442Y-85725134D01*
X142824928Y-85710736D01*
X142867394Y-85560163D01*
X142891024Y-85476377D01*
X142891025Y-85476373D01*
X142893534Y-85467476D01*
X142925431Y-85216747D01*
X142926661Y-85169759D01*
X142927605Y-85133740D01*
X142927605Y-85133732D01*
X142927768Y-85127500D01*
X142909037Y-84875445D01*
X142853256Y-84628928D01*
X142796902Y-84484013D01*
X142765002Y-84401982D01*
X142765001Y-84401979D01*
X142761650Y-84393363D01*
X142636231Y-84173926D01*
X142630519Y-84166680D01*
X142630514Y-84166673D01*
X142485471Y-83982688D01*
X142485467Y-83982684D01*
X142479755Y-83975438D01*
X142295660Y-83802258D01*
X142288081Y-83797000D01*
X142288077Y-83796997D01*
X142095583Y-83663459D01*
X142095581Y-83663458D01*
X142087989Y-83658191D01*
X142079700Y-83654103D01*
X142079696Y-83654101D01*
X141869591Y-83550489D01*
X141869589Y-83550488D01*
X141861305Y-83546403D01*
X141777678Y-83519634D01*
X141629386Y-83472165D01*
X141629379Y-83472163D01*
X141620587Y-83469349D01*
X141498636Y-83449488D01*
X141380239Y-83430205D01*
X141380233Y-83430204D01*
X141371124Y-83428721D01*
X141361894Y-83428600D01*
X141361892Y-83428600D01*
X141188201Y-83426327D01*
X141118396Y-83425413D01*
X141109241Y-83426659D01*
X141109240Y-83426659D01*
X140877107Y-83458250D01*
X140877101Y-83458251D01*
X140867955Y-83459496D01*
X140625303Y-83530223D01*
X140616924Y-83534086D01*
X140616918Y-83534088D01*
X140428069Y-83621149D01*
X140395770Y-83636039D01*
X140388042Y-83641106D01*
X140204743Y-83761282D01*
X140184399Y-83774620D01*
X140177510Y-83780769D01*
X140177507Y-83780771D01*
X140039905Y-83903585D01*
X139995833Y-83942921D01*
X139834215Y-84137246D01*
X139815323Y-84168379D01*
X139707884Y-84345432D01*
X139707881Y-84345438D01*
X139703095Y-84353325D01*
X139699526Y-84361836D01*
X139699524Y-84361840D01*
X139608930Y-84577883D01*
X139605354Y-84586411D01*
X139543139Y-84831383D01*
X139517816Y-85082861D01*
X139520054Y-85129454D01*
X139528408Y-85303358D01*
X139529943Y-85335320D01*
X139579252Y-85583213D01*
X139582375Y-85591911D01*
X139597633Y-85634410D01*
X139611993Y-85730498D01*
X139588489Y-85824767D01*
X139530699Y-85902865D01*
X139447420Y-85952903D01*
X139360023Y-85967529D01*
X139198396Y-85965413D01*
X139189241Y-85966659D01*
X139189240Y-85966659D01*
X138957107Y-85998250D01*
X138957101Y-85998251D01*
X138947955Y-85999496D01*
X138705303Y-86070223D01*
X138696924Y-86074086D01*
X138696918Y-86074088D01*
X138523574Y-86154001D01*
X138475770Y-86176039D01*
X138381879Y-86237597D01*
X138273522Y-86308639D01*
X138264399Y-86314620D01*
X138257510Y-86320769D01*
X138257507Y-86320771D01*
X138141629Y-86424196D01*
X138075833Y-86482921D01*
X137914215Y-86677246D01*
X137888995Y-86718807D01*
X137787884Y-86885432D01*
X137787881Y-86885438D01*
X137783095Y-86893325D01*
X137779526Y-86901836D01*
X137779524Y-86901840D01*
X137688930Y-87117883D01*
X137685354Y-87126411D01*
X137623139Y-87371383D01*
X137612908Y-87472987D01*
X137601419Y-87587085D01*
X137597816Y-87622861D01*
X137608834Y-87852234D01*
X137609030Y-87856309D01*
X137594670Y-87952397D01*
X137544632Y-88035675D01*
X137466533Y-88093465D01*
X137372264Y-88116969D01*
X137276176Y-88102609D01*
X137192898Y-88052571D01*
X137184247Y-88044326D01*
X135612027Y-86472107D01*
X135558051Y-86391325D01*
X135539097Y-86296037D01*
X135558051Y-86200749D01*
X135584768Y-86154001D01*
X135584388Y-86153756D01*
X135589053Y-86146503D01*
X135721119Y-85941184D01*
X135728906Y-85923899D01*
X135818442Y-85725134D01*
X135824928Y-85710736D01*
X135867394Y-85560163D01*
X135891024Y-85476377D01*
X135891025Y-85476373D01*
X135893534Y-85467476D01*
X135925431Y-85216747D01*
X135926661Y-85169759D01*
X135927605Y-85133740D01*
X135927605Y-85133732D01*
X135927768Y-85127500D01*
X135909037Y-84875445D01*
X135853256Y-84628928D01*
X135796902Y-84484013D01*
X135765002Y-84401982D01*
X135765001Y-84401979D01*
X135761650Y-84393363D01*
X135636231Y-84173926D01*
X135630519Y-84166680D01*
X135630514Y-84166673D01*
X135485471Y-83982688D01*
X135485467Y-83982684D01*
X135479755Y-83975438D01*
X135295660Y-83802258D01*
X135288081Y-83797000D01*
X135288077Y-83796997D01*
X135095583Y-83663459D01*
X135095581Y-83663458D01*
X135087989Y-83658191D01*
X135079700Y-83654103D01*
X135079696Y-83654101D01*
X134869591Y-83550489D01*
X134869589Y-83550488D01*
X134861305Y-83546403D01*
X134777678Y-83519634D01*
X134629386Y-83472165D01*
X134629379Y-83472163D01*
X134620587Y-83469349D01*
X134498636Y-83449488D01*
X134380239Y-83430205D01*
X134380233Y-83430204D01*
X134371124Y-83428721D01*
X134361894Y-83428600D01*
X134361892Y-83428600D01*
X134188201Y-83426327D01*
X134118396Y-83425413D01*
X134109241Y-83426659D01*
X134109240Y-83426659D01*
X133877107Y-83458250D01*
X133877101Y-83458251D01*
X133867955Y-83459496D01*
X133625303Y-83530223D01*
X133616924Y-83534086D01*
X133616918Y-83534088D01*
X133428069Y-83621149D01*
X133395770Y-83636039D01*
X133388042Y-83641106D01*
X133204743Y-83761282D01*
X133184399Y-83774620D01*
X133177510Y-83780769D01*
X133177507Y-83780771D01*
X133039905Y-83903585D01*
X132995833Y-83942921D01*
X132834215Y-84137246D01*
X132815323Y-84168379D01*
X132707884Y-84345432D01*
X132707881Y-84345438D01*
X132703095Y-84353325D01*
X132699526Y-84361836D01*
X132699524Y-84361840D01*
X132608930Y-84577883D01*
X132605354Y-84586411D01*
X132543139Y-84831383D01*
X132517816Y-85082861D01*
X132520054Y-85129454D01*
X132528408Y-85303358D01*
X132529943Y-85335320D01*
X132579252Y-85583213D01*
X132582375Y-85591911D01*
X132597633Y-85634410D01*
X132611993Y-85730498D01*
X132588489Y-85824767D01*
X132530699Y-85902865D01*
X132447420Y-85952903D01*
X132360023Y-85967529D01*
X132198396Y-85965413D01*
X132189241Y-85966659D01*
X132189240Y-85966659D01*
X131957107Y-85998250D01*
X131957101Y-85998251D01*
X131947955Y-85999496D01*
X131705303Y-86070223D01*
X131696924Y-86074086D01*
X131696918Y-86074088D01*
X131523574Y-86154001D01*
X131475770Y-86176039D01*
X131381879Y-86237597D01*
X131273522Y-86308639D01*
X131264399Y-86314620D01*
X131257510Y-86320769D01*
X131257507Y-86320771D01*
X131141629Y-86424196D01*
X131075833Y-86482921D01*
X130914215Y-86677246D01*
X130873654Y-86744089D01*
X130787670Y-86885785D01*
X130722033Y-86957415D01*
X130633980Y-86998474D01*
X130536918Y-87002712D01*
X130445622Y-86969483D01*
X130373992Y-86903846D01*
X130357021Y-86877335D01*
X130338297Y-86843556D01*
X130330089Y-86833979D01*
X130330085Y-86833974D01*
X130324741Y-86827739D01*
X130305451Y-86802047D01*
X130299285Y-86792625D01*
X130294045Y-86784617D01*
X130289583Y-86779662D01*
X130254010Y-86744089D01*
X130241021Y-86730061D01*
X130214233Y-86698807D01*
X130214229Y-86698803D01*
X130206023Y-86689229D01*
X130196061Y-86681501D01*
X130196056Y-86681497D01*
X130187765Y-86675066D01*
X130164308Y-86654387D01*
X128989349Y-85479428D01*
X128935373Y-85398646D01*
X128916419Y-85303358D01*
X128918410Y-85271934D01*
X128924642Y-85222946D01*
X128925431Y-85216747D01*
X128926716Y-85167669D01*
X128927605Y-85133740D01*
X128927605Y-85133732D01*
X128927768Y-85127500D01*
X128909037Y-84875445D01*
X128853256Y-84628928D01*
X128796902Y-84484013D01*
X128765002Y-84401982D01*
X128765001Y-84401979D01*
X128761650Y-84393363D01*
X128636231Y-84173926D01*
X128630519Y-84166680D01*
X128630514Y-84166673D01*
X128485471Y-83982688D01*
X128485467Y-83982684D01*
X128479755Y-83975438D01*
X128295660Y-83802258D01*
X128288081Y-83797000D01*
X128288077Y-83796997D01*
X128095583Y-83663459D01*
X128095581Y-83663458D01*
X128087989Y-83658191D01*
X128079700Y-83654103D01*
X128079696Y-83654101D01*
X127869591Y-83550489D01*
X127869589Y-83550488D01*
X127861305Y-83546403D01*
X127777678Y-83519634D01*
X127629386Y-83472165D01*
X127629379Y-83472163D01*
X127620587Y-83469349D01*
X127498636Y-83449488D01*
X127380239Y-83430205D01*
X127380233Y-83430204D01*
X127371124Y-83428721D01*
X127361894Y-83428600D01*
X127361892Y-83428600D01*
X127188201Y-83426327D01*
X127118396Y-83425413D01*
X127109241Y-83426659D01*
X127109240Y-83426659D01*
X126877107Y-83458250D01*
X126877101Y-83458251D01*
X126867955Y-83459496D01*
X126625303Y-83530223D01*
X126616924Y-83534086D01*
X126616918Y-83534088D01*
X126428069Y-83621149D01*
X126395770Y-83636039D01*
X126388045Y-83641104D01*
X126382721Y-83644055D01*
X126290191Y-83673676D01*
X126193370Y-83665632D01*
X126106997Y-83621149D01*
X126044222Y-83546998D01*
X126014601Y-83454468D01*
X126013000Y-83426277D01*
X126013000Y-81818920D01*
X126031954Y-81723632D01*
X126085930Y-81642850D01*
X126190190Y-81538590D01*
X126217040Y-81515325D01*
X126311431Y-81444665D01*
X126399072Y-81402735D01*
X126496088Y-81397535D01*
X126587709Y-81429857D01*
X126635927Y-81467141D01*
X126721124Y-81551576D01*
X126721141Y-81551592D01*
X126725096Y-81555511D01*
X126967532Y-81756073D01*
X127013170Y-81789231D01*
X127119166Y-81866242D01*
X127148686Y-81887690D01*
X127150045Y-81888622D01*
X127150057Y-81888631D01*
X127255342Y-81960876D01*
X127255351Y-81960881D01*
X127259948Y-81964036D01*
X127264818Y-81966770D01*
X127264822Y-81966773D01*
X127317052Y-81996100D01*
X127534300Y-82118084D01*
X127736044Y-82215238D01*
X127737568Y-82215922D01*
X127833066Y-82258783D01*
X127859123Y-82270478D01*
X128156573Y-82373065D01*
X128372422Y-82432636D01*
X128503403Y-82465016D01*
X128814391Y-82512842D01*
X129037409Y-82532914D01*
X129040189Y-82533039D01*
X129040206Y-82533040D01*
X129259207Y-82542875D01*
X129259226Y-82542875D01*
X129262000Y-82543000D01*
X161393184Y-82543000D01*
X161471368Y-82541721D01*
X161474181Y-82541675D01*
X161474183Y-82541675D01*
X161475158Y-82541659D01*
X161556844Y-82538985D01*
X161557854Y-82538935D01*
X161557888Y-82538934D01*
X161637761Y-82535010D01*
X161637780Y-82535009D01*
X161638735Y-82534962D01*
X161639677Y-82534900D01*
X161639699Y-82534899D01*
X161775249Y-82526015D01*
X161775276Y-82526013D01*
X161777302Y-82525880D01*
X161779338Y-82525679D01*
X161779356Y-82525678D01*
X161938449Y-82510009D01*
X161938451Y-82510009D01*
X161940459Y-82509811D01*
X162021875Y-82499093D01*
X162100395Y-82488756D01*
X162100409Y-82488754D01*
X162102429Y-82488488D01*
X162104432Y-82488157D01*
X162104461Y-82488153D01*
X162262178Y-82462113D01*
X162264207Y-82461778D01*
X162332629Y-82448168D01*
X162358254Y-82443071D01*
X162358262Y-82443069D01*
X162360224Y-82442679D01*
X162362185Y-82442222D01*
X162362207Y-82442217D01*
X162452703Y-82421116D01*
X162519895Y-82405449D01*
X162677701Y-82363165D01*
X162679621Y-82362582D01*
X162679637Y-82362578D01*
X162832630Y-82316168D01*
X162832650Y-82316161D01*
X162834610Y-82315567D01*
X162927313Y-82284098D01*
X162969590Y-82268186D01*
X162972994Y-82266905D01*
X168857153Y-82266905D01*
X168858627Y-82282498D01*
X168858627Y-82282500D01*
X168860895Y-82306489D01*
X168862000Y-82329923D01*
X168862000Y-84678425D01*
X168862001Y-84678429D01*
X168862001Y-85334876D01*
X168868649Y-85396080D01*
X168918974Y-85530324D01*
X169004954Y-85645046D01*
X169119676Y-85731026D01*
X169136287Y-85737253D01*
X169239304Y-85775872D01*
X169239305Y-85775872D01*
X169253920Y-85781351D01*
X169315123Y-85788000D01*
X169512382Y-85788000D01*
X169709876Y-85787999D01*
X169716569Y-85787272D01*
X169716587Y-85787271D01*
X169735615Y-85785204D01*
X169789386Y-85785204D01*
X169815123Y-85788000D01*
X170012368Y-85788000D01*
X170209876Y-85787999D01*
X170271080Y-85781351D01*
X170405324Y-85731026D01*
X170405332Y-85731047D01*
X170485611Y-85705813D01*
X170582389Y-85714366D01*
X170616052Y-85728310D01*
X170619676Y-85731026D01*
X170636287Y-85737253D01*
X170739304Y-85775872D01*
X170739305Y-85775872D01*
X170753920Y-85781351D01*
X170815123Y-85788000D01*
X171010038Y-85788000D01*
X171105326Y-85806954D01*
X171186108Y-85860930D01*
X171240084Y-85941712D01*
X171258674Y-86024538D01*
X171258041Y-86036626D01*
X171259928Y-86049103D01*
X171259928Y-86049104D01*
X171286458Y-86224523D01*
X171288435Y-86237597D01*
X171358619Y-86428352D01*
X171365263Y-86439067D01*
X171365265Y-86439072D01*
X171426376Y-86537634D01*
X171465726Y-86601099D01*
X171605381Y-86748780D01*
X171615710Y-86756013D01*
X171615713Y-86756015D01*
X171756489Y-86854587D01*
X171771879Y-86865363D01*
X171783451Y-86870371D01*
X171783457Y-86870374D01*
X171861889Y-86904314D01*
X171941813Y-86959552D01*
X171994514Y-87041171D01*
X172012000Y-87132835D01*
X172012000Y-87562366D01*
X172012664Y-87568762D01*
X172012664Y-87568769D01*
X172018277Y-87622861D01*
X172022859Y-87667019D01*
X172027167Y-87679932D01*
X172027168Y-87679936D01*
X172064922Y-87793097D01*
X172078244Y-87833029D01*
X172085854Y-87845326D01*
X172085855Y-87845329D01*
X172118715Y-87898429D01*
X172170334Y-87981845D01*
X172180570Y-87992063D01*
X172277277Y-88088601D01*
X172294189Y-88105484D01*
X172306503Y-88113074D01*
X172306505Y-88113076D01*
X172416695Y-88180997D01*
X172443166Y-88197314D01*
X172523545Y-88223975D01*
X172596364Y-88248129D01*
X172596368Y-88248130D01*
X172609272Y-88252410D01*
X172622800Y-88253796D01*
X172706315Y-88262353D01*
X172706323Y-88262353D01*
X172712634Y-88263000D01*
X173013000Y-88263000D01*
X173108288Y-88281954D01*
X173189070Y-88335930D01*
X173243046Y-88416712D01*
X173262000Y-88512000D01*
X173262000Y-89769940D01*
X173243046Y-89865228D01*
X173189074Y-89946005D01*
X173171014Y-89964066D01*
X173090235Y-90018044D01*
X172994940Y-90037001D01*
X172965124Y-90037001D01*
X172903920Y-90043649D01*
X172769676Y-90093974D01*
X172717181Y-90133317D01*
X172675281Y-90164720D01*
X172654954Y-90179954D01*
X172644313Y-90194152D01*
X172636280Y-90204870D01*
X172568974Y-90294676D01*
X172518649Y-90428920D01*
X172512000Y-90490123D01*
X172512000Y-90989347D01*
X172511266Y-91008450D01*
X172510266Y-91021446D01*
X172502056Y-91050752D01*
X172509036Y-91077076D01*
X172510038Y-91085008D01*
X172512000Y-91116204D01*
X172512000Y-92511712D01*
X172502629Y-92558824D01*
X172512000Y-92617657D01*
X172512000Y-96184614D01*
X172511903Y-96191567D01*
X172509540Y-96276153D01*
X172511730Y-96288570D01*
X172519234Y-96331127D01*
X172521742Y-96349207D01*
X172525880Y-96389945D01*
X172527380Y-96404716D01*
X172531150Y-96416746D01*
X172531151Y-96416751D01*
X172533609Y-96424593D01*
X172541219Y-96455810D01*
X172544836Y-96476321D01*
X172549479Y-96488047D01*
X172549480Y-96488052D01*
X172565378Y-96528207D01*
X172571461Y-96545382D01*
X172573746Y-96552671D01*
X172584163Y-96649266D01*
X172583309Y-96655715D01*
X172583139Y-96656383D01*
X172582882Y-96658934D01*
X172582882Y-96658935D01*
X172558743Y-96898660D01*
X172557816Y-96907861D01*
X172569943Y-97160320D01*
X172619252Y-97408213D01*
X172704660Y-97646095D01*
X172709032Y-97654232D01*
X172709034Y-97654236D01*
X172773358Y-97773947D01*
X172824292Y-97868740D01*
X172975518Y-98071256D01*
X173155017Y-98249196D01*
X173162469Y-98254660D01*
X173259929Y-98326120D01*
X173358846Y-98398649D01*
X173367010Y-98402945D01*
X173367016Y-98402948D01*
X173475892Y-98460230D01*
X173582526Y-98516333D01*
X173821144Y-98599662D01*
X174069458Y-98646806D01*
X174078680Y-98647168D01*
X174078686Y-98647169D01*
X174195736Y-98651768D01*
X174322013Y-98656729D01*
X174331188Y-98655724D01*
X174331193Y-98655724D01*
X174564077Y-98630219D01*
X174564081Y-98630218D01*
X174573260Y-98629213D01*
X174817681Y-98564863D01*
X175049905Y-98465091D01*
X175057757Y-98460232D01*
X175057761Y-98460230D01*
X175256972Y-98336954D01*
X175264831Y-98332091D01*
X175457738Y-98168783D01*
X175543268Y-98071256D01*
X175618302Y-97985696D01*
X175618303Y-97985694D01*
X175624388Y-97978756D01*
X175761119Y-97766184D01*
X175864928Y-97535736D01*
X175933534Y-97292476D01*
X175965431Y-97041747D01*
X175967768Y-96952500D01*
X175949037Y-96700445D01*
X175893256Y-96453928D01*
X175889907Y-96445316D01*
X175887206Y-96436481D01*
X175889548Y-96435765D01*
X175875459Y-96355875D01*
X175896485Y-96261023D01*
X175952208Y-96181436D01*
X176034146Y-96129233D01*
X176134176Y-96112492D01*
X176242013Y-96116729D01*
X176251188Y-96115724D01*
X176251193Y-96115724D01*
X176484077Y-96090219D01*
X176484081Y-96090218D01*
X176493260Y-96089213D01*
X176737681Y-96024863D01*
X176969905Y-95925091D01*
X176977757Y-95920232D01*
X176977761Y-95920230D01*
X177176972Y-95796954D01*
X177184831Y-95792091D01*
X177377738Y-95628783D01*
X177403314Y-95599620D01*
X177538302Y-95445696D01*
X177538303Y-95445694D01*
X177544388Y-95438756D01*
X177681119Y-95226184D01*
X177681980Y-95226738D01*
X177738514Y-95158765D01*
X177824496Y-95113528D01*
X177921243Y-95104639D01*
X178014028Y-95133450D01*
X178071284Y-95176205D01*
X179496731Y-96601652D01*
X179550707Y-96682434D01*
X179569661Y-96777722D01*
X179568408Y-96802668D01*
X179558742Y-96898660D01*
X179558742Y-96898662D01*
X179557816Y-96907861D01*
X179569943Y-97160320D01*
X179619252Y-97408213D01*
X179704660Y-97646095D01*
X179709032Y-97654232D01*
X179709034Y-97654236D01*
X179773358Y-97773947D01*
X179824292Y-97868740D01*
X179975518Y-98071256D01*
X180155017Y-98249196D01*
X180162469Y-98254660D01*
X180259929Y-98326120D01*
X180358846Y-98398649D01*
X180367010Y-98402945D01*
X180367016Y-98402948D01*
X180475892Y-98460230D01*
X180582526Y-98516333D01*
X180821144Y-98599662D01*
X181069458Y-98646806D01*
X181078680Y-98647168D01*
X181078686Y-98647169D01*
X181195736Y-98651768D01*
X181322013Y-98656729D01*
X181331188Y-98655724D01*
X181331193Y-98655724D01*
X181564077Y-98630219D01*
X181564081Y-98630218D01*
X181573260Y-98629213D01*
X181817681Y-98564863D01*
X182049905Y-98465091D01*
X182057757Y-98460232D01*
X182057761Y-98460230D01*
X182256972Y-98336954D01*
X182264831Y-98332091D01*
X182457738Y-98168783D01*
X182543268Y-98071256D01*
X182618302Y-97985696D01*
X182618303Y-97985694D01*
X182624388Y-97978756D01*
X182761119Y-97766184D01*
X182864928Y-97535736D01*
X182933534Y-97292476D01*
X182965431Y-97041747D01*
X182967768Y-96952500D01*
X182949037Y-96700445D01*
X182893256Y-96453928D01*
X182889907Y-96445316D01*
X182887206Y-96436481D01*
X182889548Y-96435765D01*
X182875459Y-96355875D01*
X182896485Y-96261023D01*
X182952208Y-96181436D01*
X183034146Y-96129233D01*
X183134176Y-96112492D01*
X183242013Y-96116729D01*
X183251188Y-96115724D01*
X183251193Y-96115724D01*
X183484077Y-96090219D01*
X183484081Y-96090218D01*
X183493260Y-96089213D01*
X183737681Y-96024863D01*
X183969905Y-95925091D01*
X183977757Y-95920232D01*
X183977761Y-95920230D01*
X184176972Y-95796954D01*
X184184831Y-95792091D01*
X184377738Y-95628783D01*
X184403314Y-95599620D01*
X184538302Y-95445696D01*
X184538303Y-95445694D01*
X184544388Y-95438756D01*
X184681119Y-95226184D01*
X184686489Y-95214265D01*
X184781135Y-95004156D01*
X184784928Y-94995736D01*
X184853534Y-94752476D01*
X184885431Y-94501747D01*
X184887768Y-94412500D01*
X184869037Y-94160445D01*
X184813256Y-93913928D01*
X184745554Y-93739832D01*
X184725002Y-93686982D01*
X184725001Y-93686979D01*
X184721650Y-93678363D01*
X184596231Y-93458926D01*
X184590519Y-93451680D01*
X184590514Y-93451673D01*
X184445471Y-93267688D01*
X184445467Y-93267684D01*
X184439755Y-93260438D01*
X184255660Y-93087258D01*
X184231321Y-93070373D01*
X184120071Y-92993196D01*
X184052581Y-92923309D01*
X184016974Y-92832914D01*
X184013000Y-92788606D01*
X184013000Y-91172757D01*
X184019445Y-91140355D01*
X184018473Y-91135086D01*
X184505720Y-91135086D01*
X184509789Y-91152234D01*
X184509540Y-91161153D01*
X184511479Y-91172147D01*
X184512001Y-91186385D01*
X184512001Y-91584876D01*
X184518649Y-91646080D01*
X184568974Y-91780324D01*
X184654954Y-91895046D01*
X184769676Y-91981026D01*
X184786287Y-91987253D01*
X184889304Y-92025872D01*
X184889305Y-92025872D01*
X184903920Y-92031351D01*
X184919439Y-92033037D01*
X184965123Y-92038000D01*
X184964994Y-92039188D01*
X185051383Y-92061293D01*
X185119853Y-92109774D01*
X187189070Y-94178991D01*
X187243046Y-94259773D01*
X187262000Y-94355061D01*
X187262000Y-95454546D01*
X187243046Y-95549834D01*
X187189070Y-95630616D01*
X187178805Y-95640314D01*
X187035833Y-95767921D01*
X186874215Y-95962246D01*
X186858556Y-95988052D01*
X186747884Y-96170432D01*
X186747881Y-96170438D01*
X186743095Y-96178325D01*
X186739526Y-96186836D01*
X186739524Y-96186840D01*
X186657405Y-96382673D01*
X186645354Y-96411411D01*
X186583139Y-96656383D01*
X186582213Y-96665583D01*
X186558743Y-96898660D01*
X186557816Y-96907861D01*
X186569943Y-97160320D01*
X186619252Y-97408213D01*
X186704660Y-97646095D01*
X186709032Y-97654232D01*
X186709034Y-97654236D01*
X186773358Y-97773947D01*
X186824292Y-97868740D01*
X186975518Y-98071256D01*
X187155017Y-98249196D01*
X187162469Y-98254660D01*
X187259929Y-98326120D01*
X187358846Y-98398649D01*
X187367010Y-98402945D01*
X187367016Y-98402948D01*
X187475892Y-98460230D01*
X187582526Y-98516333D01*
X187821144Y-98599662D01*
X188069458Y-98646806D01*
X188078680Y-98647168D01*
X188078686Y-98647169D01*
X188195736Y-98651768D01*
X188322013Y-98656729D01*
X188331188Y-98655724D01*
X188331193Y-98655724D01*
X188564077Y-98630219D01*
X188564081Y-98630218D01*
X188573260Y-98629213D01*
X188817681Y-98564863D01*
X189049905Y-98465091D01*
X189057757Y-98460232D01*
X189057761Y-98460230D01*
X189256972Y-98336954D01*
X189264831Y-98332091D01*
X189457738Y-98168783D01*
X189543268Y-98071256D01*
X189618302Y-97985696D01*
X189618303Y-97985694D01*
X189624388Y-97978756D01*
X189761119Y-97766184D01*
X189864928Y-97535736D01*
X189933534Y-97292476D01*
X189965431Y-97041747D01*
X189967768Y-96952500D01*
X189949037Y-96700445D01*
X189893256Y-96453928D01*
X189889907Y-96445316D01*
X189887206Y-96436481D01*
X189889548Y-96435765D01*
X189875459Y-96355875D01*
X189896485Y-96261023D01*
X189952208Y-96181436D01*
X190034146Y-96129233D01*
X190134176Y-96112492D01*
X190242013Y-96116729D01*
X190251188Y-96115724D01*
X190251193Y-96115724D01*
X190484077Y-96090219D01*
X190484081Y-96090218D01*
X190493260Y-96089213D01*
X190737681Y-96024863D01*
X190969905Y-95925091D01*
X190977757Y-95920232D01*
X190977761Y-95920230D01*
X191176972Y-95796954D01*
X191184831Y-95792091D01*
X191377738Y-95628783D01*
X191403314Y-95599620D01*
X191538302Y-95445696D01*
X191538303Y-95445694D01*
X191544388Y-95438756D01*
X191681119Y-95226184D01*
X191686489Y-95214265D01*
X191781135Y-95004156D01*
X191784928Y-94995736D01*
X191853534Y-94752476D01*
X191885431Y-94501747D01*
X191887768Y-94412500D01*
X191869037Y-94160445D01*
X191813256Y-93913928D01*
X191745554Y-93739832D01*
X191725002Y-93686982D01*
X191725001Y-93686979D01*
X191721650Y-93678363D01*
X191596231Y-93458926D01*
X191590519Y-93451680D01*
X191590514Y-93451673D01*
X191445471Y-93267688D01*
X191445467Y-93267684D01*
X191439755Y-93260438D01*
X191255660Y-93087258D01*
X191231321Y-93070373D01*
X191120071Y-92993196D01*
X191052581Y-92923309D01*
X191016974Y-92832914D01*
X191013000Y-92788606D01*
X191013000Y-91172757D01*
X191019445Y-91140355D01*
X191013000Y-91105410D01*
X191013000Y-90986700D01*
X191012999Y-90986695D01*
X191012999Y-90490124D01*
X191006351Y-90428920D01*
X190956026Y-90294676D01*
X190945387Y-90280480D01*
X190945385Y-90280477D01*
X190939313Y-90272375D01*
X190897333Y-90184758D01*
X190892079Y-90087745D01*
X190924350Y-89996106D01*
X190943155Y-89968719D01*
X190945263Y-89966050D01*
X190955484Y-89955811D01*
X191003128Y-89878517D01*
X191039720Y-89819154D01*
X191039720Y-89819153D01*
X191047314Y-89806834D01*
X191085167Y-89692713D01*
X191098129Y-89653636D01*
X191098130Y-89653632D01*
X191102410Y-89640728D01*
X191106804Y-89597840D01*
X191112353Y-89543685D01*
X191112353Y-89543677D01*
X191113000Y-89537366D01*
X191113000Y-88537634D01*
X191110341Y-88512000D01*
X191103547Y-88446529D01*
X191103547Y-88446527D01*
X191102141Y-88432981D01*
X191096714Y-88416712D01*
X191051333Y-88280690D01*
X191046756Y-88266971D01*
X191038604Y-88253796D01*
X190985867Y-88168575D01*
X190951843Y-88077572D01*
X190955234Y-87980477D01*
X190985638Y-87906892D01*
X191019329Y-87852234D01*
X191047314Y-87806834D01*
X191089405Y-87679936D01*
X191098129Y-87653636D01*
X191098130Y-87653632D01*
X191102410Y-87640728D01*
X191105183Y-87613662D01*
X191112353Y-87543685D01*
X191112353Y-87543677D01*
X191113000Y-87537366D01*
X191113000Y-86537634D01*
X191111789Y-86525957D01*
X191103547Y-86446529D01*
X191103547Y-86446527D01*
X191102141Y-86432981D01*
X191096244Y-86415303D01*
X191051333Y-86280690D01*
X191046756Y-86266971D01*
X191036550Y-86250477D01*
X190976848Y-86154001D01*
X190954666Y-86118155D01*
X190830811Y-85994516D01*
X190818497Y-85986926D01*
X190818495Y-85986924D01*
X190694154Y-85910280D01*
X190694152Y-85910279D01*
X190681834Y-85902686D01*
X190569293Y-85865357D01*
X190528636Y-85851871D01*
X190528632Y-85851870D01*
X190515728Y-85847590D01*
X190498866Y-85845862D01*
X190418685Y-85837647D01*
X190418677Y-85837647D01*
X190412366Y-85837000D01*
X189662634Y-85837000D01*
X189656238Y-85837664D01*
X189656231Y-85837664D01*
X189571529Y-85846453D01*
X189571527Y-85846453D01*
X189557981Y-85847859D01*
X189545068Y-85852167D01*
X189545064Y-85852168D01*
X189432672Y-85889665D01*
X189391971Y-85903244D01*
X189379674Y-85910854D01*
X189379671Y-85910855D01*
X189293575Y-85964133D01*
X189202572Y-85998157D01*
X189105477Y-85994766D01*
X189031892Y-85964362D01*
X188966248Y-85923899D01*
X188931834Y-85902686D01*
X188819293Y-85865357D01*
X188778636Y-85851871D01*
X188778632Y-85851870D01*
X188765728Y-85847590D01*
X188748866Y-85845862D01*
X188668685Y-85837647D01*
X188668677Y-85837647D01*
X188662366Y-85837000D01*
X187862634Y-85837000D01*
X187856238Y-85837664D01*
X187856231Y-85837664D01*
X187771529Y-85846453D01*
X187771527Y-85846453D01*
X187757981Y-85847859D01*
X187745068Y-85852167D01*
X187745064Y-85852168D01*
X187632672Y-85889665D01*
X187591971Y-85903244D01*
X187579674Y-85910854D01*
X187579671Y-85910855D01*
X187511723Y-85952903D01*
X187443155Y-85995334D01*
X187432937Y-86005570D01*
X187421598Y-86014557D01*
X187419896Y-86012410D01*
X187357892Y-86053919D01*
X187262621Y-86072957D01*
X187167316Y-86054087D01*
X187103907Y-86011799D01*
X187102403Y-86013703D01*
X187091049Y-86004736D01*
X187080811Y-85994516D01*
X187068497Y-85986926D01*
X187068495Y-85986924D01*
X186944154Y-85910280D01*
X186944152Y-85910279D01*
X186931834Y-85902686D01*
X186819293Y-85865357D01*
X186778636Y-85851871D01*
X186778632Y-85851870D01*
X186765728Y-85847590D01*
X186748361Y-85845811D01*
X186734720Y-85844413D01*
X186641860Y-85815845D01*
X186567001Y-85753916D01*
X186560489Y-85745452D01*
X186554359Y-85734835D01*
X186434730Y-85601974D01*
X186390439Y-85569794D01*
X186300650Y-85504558D01*
X186300649Y-85504557D01*
X186290093Y-85496888D01*
X186278167Y-85491578D01*
X186138689Y-85429479D01*
X186126767Y-85424171D01*
X185951891Y-85387000D01*
X185773109Y-85387000D01*
X185598233Y-85424171D01*
X185434908Y-85496888D01*
X185424351Y-85504558D01*
X185424346Y-85504561D01*
X185411750Y-85513713D01*
X185290270Y-85601974D01*
X185281538Y-85611672D01*
X185179375Y-85725134D01*
X185179371Y-85725139D01*
X185170641Y-85734835D01*
X185081250Y-85889665D01*
X185026003Y-86059697D01*
X185007315Y-86237500D01*
X185026003Y-86415303D01*
X185081250Y-86585335D01*
X185087777Y-86596640D01*
X185128640Y-86667417D01*
X185159870Y-86759416D01*
X185162000Y-86791917D01*
X185162000Y-87537366D01*
X185162664Y-87543762D01*
X185162664Y-87543769D01*
X185170871Y-87622861D01*
X185172859Y-87642019D01*
X185177167Y-87654932D01*
X185177168Y-87654936D01*
X185181360Y-87667500D01*
X185228244Y-87808029D01*
X185235854Y-87820326D01*
X185235855Y-87820329D01*
X185289133Y-87906425D01*
X185323157Y-87997428D01*
X185319766Y-88094523D01*
X185289362Y-88168108D01*
X185227686Y-88268166D01*
X185206397Y-88332350D01*
X185177303Y-88420064D01*
X185172590Y-88434272D01*
X185171204Y-88447800D01*
X185163472Y-88523271D01*
X185162000Y-88537634D01*
X185162000Y-88619940D01*
X185143046Y-88715228D01*
X185089070Y-88796010D01*
X184817680Y-89067400D01*
X184812695Y-89072247D01*
X184751220Y-89130381D01*
X184743987Y-89140711D01*
X184719203Y-89176106D01*
X184708196Y-89190659D01*
X184689522Y-89213556D01*
X184672927Y-89233903D01*
X184667084Y-89245081D01*
X184667082Y-89245083D01*
X184663280Y-89252356D01*
X184646586Y-89279815D01*
X184634637Y-89296879D01*
X184629629Y-89308452D01*
X184612475Y-89348093D01*
X184604617Y-89364567D01*
X184578758Y-89414030D01*
X184573014Y-89434063D01*
X184562183Y-89464310D01*
X184553914Y-89483419D01*
X184544006Y-89530848D01*
X184542502Y-89538046D01*
X184538119Y-89555756D01*
X184529354Y-89586326D01*
X184522734Y-89609413D01*
X184521136Y-89630184D01*
X184516609Y-89661988D01*
X184512349Y-89682380D01*
X184512000Y-89689039D01*
X184512000Y-89739347D01*
X184511266Y-89758450D01*
X184509244Y-89784734D01*
X184507140Y-89812071D01*
X184510038Y-89835009D01*
X184512000Y-89866204D01*
X184512000Y-91069614D01*
X184511903Y-91076567D01*
X184510903Y-91112363D01*
X184505720Y-91135086D01*
X184018473Y-91135086D01*
X184013000Y-91105410D01*
X184013000Y-90986700D01*
X184012999Y-90986695D01*
X184012999Y-90490124D01*
X184006351Y-90428920D01*
X183956026Y-90294676D01*
X183888720Y-90204870D01*
X183880687Y-90194152D01*
X183870046Y-90179954D01*
X183849720Y-90164720D01*
X183807819Y-90133317D01*
X183755324Y-90093974D01*
X183671606Y-90062590D01*
X183635696Y-90049128D01*
X183635695Y-90049128D01*
X183621080Y-90043649D01*
X183559877Y-90037000D01*
X183045451Y-90037000D01*
X183032422Y-90036659D01*
X182975973Y-90033701D01*
X182975971Y-90033701D01*
X182963374Y-90033041D01*
X182950901Y-90034928D01*
X182938301Y-90035544D01*
X182938299Y-90035510D01*
X182918466Y-90037001D01*
X182465124Y-90037001D01*
X182403920Y-90043649D01*
X182269676Y-90093974D01*
X182217181Y-90133317D01*
X182175281Y-90164720D01*
X182154954Y-90179954D01*
X182144313Y-90194152D01*
X182136280Y-90204870D01*
X182068974Y-90294676D01*
X182018649Y-90428920D01*
X182012000Y-90490123D01*
X182012000Y-93070373D01*
X181993046Y-93165661D01*
X181954442Y-93229593D01*
X181800121Y-93415144D01*
X181800117Y-93415150D01*
X181794215Y-93422246D01*
X181775602Y-93452920D01*
X181667884Y-93630432D01*
X181667881Y-93630438D01*
X181663095Y-93638325D01*
X181659526Y-93646836D01*
X181659524Y-93646840D01*
X181585229Y-93824014D01*
X181565354Y-93871411D01*
X181503139Y-94116383D01*
X181477816Y-94367861D01*
X181480260Y-94418740D01*
X181487749Y-94574638D01*
X181489943Y-94620320D01*
X181539252Y-94868213D01*
X181542375Y-94876911D01*
X181557633Y-94919410D01*
X181571993Y-95015498D01*
X181548489Y-95109767D01*
X181490699Y-95187865D01*
X181407420Y-95237903D01*
X181320023Y-95252529D01*
X181158396Y-95250413D01*
X181149244Y-95251659D01*
X181149236Y-95251659D01*
X181119603Y-95255692D01*
X181022630Y-95249760D01*
X180935308Y-95207170D01*
X180909957Y-95185036D01*
X179585930Y-93861010D01*
X179531954Y-93780228D01*
X179513000Y-93684940D01*
X179513000Y-90986700D01*
X179512999Y-90986695D01*
X179512999Y-90490124D01*
X179506351Y-90428920D01*
X179456026Y-90294676D01*
X179388720Y-90204870D01*
X179380687Y-90194152D01*
X179370046Y-90179954D01*
X179355321Y-90168918D01*
X179307820Y-90133317D01*
X179242938Y-90061003D01*
X179210667Y-89969364D01*
X179215922Y-89872351D01*
X179257903Y-89784734D01*
X179269436Y-89771846D01*
X179269218Y-89771665D01*
X179294554Y-89741039D01*
X179310342Y-89723687D01*
X180672741Y-88361288D01*
X180677124Y-88357300D01*
X180684790Y-88352435D01*
X180731344Y-88302860D01*
X180736786Y-88297243D01*
X180755761Y-88278268D01*
X180760559Y-88272083D01*
X180762783Y-88269560D01*
X180768051Y-88263771D01*
X180776597Y-88254671D01*
X180797298Y-88232626D01*
X180804844Y-88218899D01*
X180809030Y-88213138D01*
X180817982Y-88199510D01*
X180821609Y-88193376D01*
X180831212Y-88180997D01*
X180846999Y-88144514D01*
X180857318Y-88123452D01*
X180868930Y-88102329D01*
X180868930Y-88102328D01*
X180876477Y-88088601D01*
X180880371Y-88073433D01*
X180882996Y-88066804D01*
X180888274Y-88051386D01*
X180890266Y-88044531D01*
X180896485Y-88030159D01*
X180898935Y-88014694D01*
X180898936Y-88014689D01*
X180902704Y-87990896D01*
X180907461Y-87967925D01*
X180913455Y-87944581D01*
X180913455Y-87944579D01*
X180917350Y-87929410D01*
X180917350Y-87913746D01*
X180918243Y-87906676D01*
X180919522Y-87890428D01*
X180919746Y-87883302D01*
X180922197Y-87867828D01*
X180918777Y-87831652D01*
X180928679Y-87735004D01*
X180974813Y-87649501D01*
X180994957Y-87627899D01*
X181015559Y-87608280D01*
X181025640Y-87598680D01*
X181118817Y-87458438D01*
X181178607Y-87301038D01*
X181202041Y-87134303D01*
X181202335Y-87113215D01*
X181183567Y-86945891D01*
X181128194Y-86786883D01*
X181120815Y-86775074D01*
X181114801Y-86762522D01*
X181118251Y-86760869D01*
X181093581Y-86695395D01*
X181096725Y-86598291D01*
X181106469Y-86566324D01*
X181121575Y-86526557D01*
X181121575Y-86526556D01*
X181126518Y-86513544D01*
X181149952Y-86346809D01*
X181150246Y-86325721D01*
X181148894Y-86313669D01*
X181149066Y-86311645D01*
X181148992Y-86310137D01*
X181149195Y-86310127D01*
X181157105Y-86216864D01*
X181193665Y-86148262D01*
X181190554Y-86146195D01*
X181213090Y-86112276D01*
X181283731Y-86005953D01*
X181343521Y-85848553D01*
X181344357Y-85842603D01*
X181384457Y-85759096D01*
X181434246Y-85709350D01*
X181505848Y-85655687D01*
X181520046Y-85645046D01*
X181606026Y-85530324D01*
X181625106Y-85479428D01*
X181628638Y-85470006D01*
X181679834Y-85387435D01*
X181758929Y-85330651D01*
X181761258Y-85329595D01*
X181774497Y-85325293D01*
X181786452Y-85318166D01*
X181786455Y-85318165D01*
X181907168Y-85246205D01*
X181907170Y-85246203D01*
X181919123Y-85239078D01*
X182041054Y-85122965D01*
X182134231Y-84982723D01*
X182194021Y-84825323D01*
X182217455Y-84658588D01*
X182217749Y-84637500D01*
X182198981Y-84470176D01*
X182143608Y-84311168D01*
X182092681Y-84229667D01*
X182061763Y-84180187D01*
X182061760Y-84180184D01*
X182054384Y-84168379D01*
X181991896Y-84105453D01*
X181945551Y-84058783D01*
X181945548Y-84058780D01*
X181935742Y-84048906D01*
X181793579Y-83958687D01*
X181778731Y-83953400D01*
X181776647Y-83952155D01*
X181767953Y-83947915D01*
X181768313Y-83947178D01*
X181695326Y-83903585D01*
X181637330Y-83825639D01*
X181629109Y-83806251D01*
X181606026Y-83744676D01*
X181520046Y-83629954D01*
X181405324Y-83543974D01*
X181358788Y-83526529D01*
X181285696Y-83499128D01*
X181285695Y-83499128D01*
X181271080Y-83493649D01*
X181209877Y-83487000D01*
X181012618Y-83487000D01*
X180815124Y-83487001D01*
X180808431Y-83487728D01*
X180808413Y-83487729D01*
X180789385Y-83489796D01*
X180735614Y-83489796D01*
X180709877Y-83487000D01*
X180512618Y-83487000D01*
X180315124Y-83487001D01*
X180308431Y-83487728D01*
X180308413Y-83487729D01*
X180289385Y-83489796D01*
X180235614Y-83489796D01*
X180209877Y-83487000D01*
X180012618Y-83487000D01*
X179815124Y-83487001D01*
X179808431Y-83487728D01*
X179808413Y-83487729D01*
X179789385Y-83489796D01*
X179735614Y-83489796D01*
X179709877Y-83487000D01*
X179512618Y-83487000D01*
X179315124Y-83487001D01*
X179308431Y-83487728D01*
X179308413Y-83487729D01*
X179289385Y-83489796D01*
X179235614Y-83489796D01*
X179209877Y-83487000D01*
X179012618Y-83487000D01*
X178815124Y-83487001D01*
X178808431Y-83487728D01*
X178808413Y-83487729D01*
X178789385Y-83489796D01*
X178735614Y-83489796D01*
X178709877Y-83487000D01*
X178512618Y-83487000D01*
X178315124Y-83487001D01*
X178308431Y-83487728D01*
X178308413Y-83487729D01*
X178289385Y-83489796D01*
X178235614Y-83489796D01*
X178209877Y-83487000D01*
X178012618Y-83487000D01*
X177815124Y-83487001D01*
X177808431Y-83487728D01*
X177808413Y-83487729D01*
X177789385Y-83489796D01*
X177735614Y-83489796D01*
X177709877Y-83487000D01*
X177685280Y-83487000D01*
X177416445Y-83487001D01*
X177321158Y-83468047D01*
X177240376Y-83414071D01*
X177186399Y-83333290D01*
X177181296Y-83319890D01*
X177148187Y-83224815D01*
X177143608Y-83211666D01*
X177132824Y-83194408D01*
X177061763Y-83080685D01*
X177061760Y-83080682D01*
X177054384Y-83068877D01*
X177013117Y-83027321D01*
X176945551Y-82959281D01*
X176945548Y-82959278D01*
X176935742Y-82949404D01*
X176829760Y-82882146D01*
X176759463Y-82815085D01*
X176720179Y-82726227D01*
X176715734Y-82699668D01*
X176713978Y-82684011D01*
X176713978Y-82684009D01*
X176712426Y-82670176D01*
X176688906Y-82602635D01*
X176661632Y-82524317D01*
X176657053Y-82511168D01*
X176625943Y-82461381D01*
X176575208Y-82380187D01*
X176575205Y-82380184D01*
X176567829Y-82368379D01*
X176558019Y-82358500D01*
X176458996Y-82258783D01*
X176458993Y-82258780D01*
X176449187Y-82248906D01*
X176307024Y-82158687D01*
X176148407Y-82102206D01*
X176134581Y-82100557D01*
X176134580Y-82100557D01*
X176084277Y-82094559D01*
X175981218Y-82082269D01*
X175967375Y-82083724D01*
X175967372Y-82083724D01*
X175908525Y-82089909D01*
X175813766Y-82099869D01*
X175757586Y-82118994D01*
X175661275Y-82131759D01*
X175567408Y-82106696D01*
X175490279Y-82047619D01*
X175458186Y-81999041D01*
X175457553Y-81997223D01*
X175398919Y-81903388D01*
X175375708Y-81866242D01*
X175375705Y-81866239D01*
X175368329Y-81854434D01*
X175358519Y-81844555D01*
X175259496Y-81744838D01*
X175259493Y-81744835D01*
X175249687Y-81734961D01*
X175107524Y-81644742D01*
X174948907Y-81588261D01*
X174935081Y-81586612D01*
X174935080Y-81586612D01*
X174884777Y-81580614D01*
X174781718Y-81568324D01*
X174767875Y-81569779D01*
X174767872Y-81569779D01*
X174709025Y-81575964D01*
X174614266Y-81585924D01*
X174454876Y-81640185D01*
X174311467Y-81728411D01*
X174271490Y-81767560D01*
X174190152Y-81820686D01*
X174123303Y-81837291D01*
X174116430Y-81838013D01*
X173981857Y-81852157D01*
X173981852Y-81852158D01*
X173968010Y-81853613D01*
X173808620Y-81907874D01*
X173665211Y-81996100D01*
X173655267Y-82005838D01*
X173655263Y-82005841D01*
X173554863Y-82104161D01*
X173544913Y-82113905D01*
X173537370Y-82125610D01*
X173537368Y-82125612D01*
X173518990Y-82154130D01*
X173453704Y-82255434D01*
X173443853Y-82282500D01*
X173414304Y-82363684D01*
X173396116Y-82413653D01*
X173394371Y-82427468D01*
X173394370Y-82427471D01*
X173393085Y-82437639D01*
X173362336Y-82529800D01*
X173305249Y-82595819D01*
X173305384Y-82595957D01*
X173295441Y-82605694D01*
X173215467Y-82684011D01*
X173185086Y-82713762D01*
X173093877Y-82855291D01*
X173036289Y-83013510D01*
X173015187Y-83180556D01*
X173016545Y-83194406D01*
X173016545Y-83194408D01*
X173018764Y-83217035D01*
X173009199Y-83313718D01*
X172963363Y-83399381D01*
X172888235Y-83460983D01*
X172797843Y-83488878D01*
X172789392Y-83489796D01*
X172753920Y-83493649D01*
X172619676Y-83543974D01*
X172619668Y-83543953D01*
X172539389Y-83569187D01*
X172442611Y-83560634D01*
X172408948Y-83546690D01*
X172405324Y-83543974D01*
X172358788Y-83526529D01*
X172285696Y-83499128D01*
X172285695Y-83499128D01*
X172271080Y-83493649D01*
X172209877Y-83487000D01*
X172184224Y-83487000D01*
X171912000Y-83487001D01*
X171816713Y-83468047D01*
X171735931Y-83414071D01*
X171681954Y-83333290D01*
X171663000Y-83238001D01*
X171663000Y-83160086D01*
X171681954Y-83064798D01*
X171735930Y-82984016D01*
X173913954Y-80805992D01*
X173994736Y-80752016D01*
X174013078Y-80745249D01*
X174074497Y-80725293D01*
X174086456Y-80718164D01*
X174207168Y-80646205D01*
X174207170Y-80646203D01*
X174219123Y-80639078D01*
X174341054Y-80522965D01*
X174434231Y-80382723D01*
X174494021Y-80225323D01*
X174517455Y-80058588D01*
X174517749Y-80037500D01*
X174498981Y-79870176D01*
X174443608Y-79711168D01*
X174426640Y-79684013D01*
X174361763Y-79580187D01*
X174361760Y-79580184D01*
X174354384Y-79568379D01*
X174336547Y-79550417D01*
X174245551Y-79458783D01*
X174245548Y-79458780D01*
X174235742Y-79448906D01*
X174093579Y-79358687D01*
X173934962Y-79302206D01*
X173921136Y-79300557D01*
X173921135Y-79300557D01*
X173870832Y-79294559D01*
X173767773Y-79282269D01*
X173753930Y-79283724D01*
X173753927Y-79283724D01*
X173695080Y-79289909D01*
X173600321Y-79299869D01*
X173440931Y-79354130D01*
X173429074Y-79361424D01*
X173429075Y-79361424D01*
X173393433Y-79383351D01*
X173302341Y-79417137D01*
X173205255Y-79413492D01*
X173129539Y-79381508D01*
X173093579Y-79358687D01*
X172934962Y-79302206D01*
X172921136Y-79300557D01*
X172921135Y-79300557D01*
X172870832Y-79294559D01*
X172767773Y-79282269D01*
X172753930Y-79283724D01*
X172753927Y-79283724D01*
X172695080Y-79289909D01*
X172600321Y-79299869D01*
X172440931Y-79354130D01*
X172429074Y-79361424D01*
X172429075Y-79361424D01*
X172393433Y-79383351D01*
X172302341Y-79417137D01*
X172205255Y-79413492D01*
X172129539Y-79381508D01*
X172093579Y-79358687D01*
X171934962Y-79302206D01*
X171921136Y-79300557D01*
X171921135Y-79300557D01*
X171870832Y-79294559D01*
X171767773Y-79282269D01*
X171753930Y-79283724D01*
X171753927Y-79283724D01*
X171695080Y-79289909D01*
X171600321Y-79299869D01*
X171440931Y-79354130D01*
X171297522Y-79442356D01*
X171287578Y-79452094D01*
X171287574Y-79452097D01*
X171187174Y-79550417D01*
X171177224Y-79560161D01*
X171086015Y-79701690D01*
X171081252Y-79714776D01*
X171052048Y-79795012D01*
X171001647Y-79878071D01*
X170994135Y-79885919D01*
X169106609Y-81773445D01*
X169102226Y-81777433D01*
X169094560Y-81782298D01*
X169083835Y-81793719D01*
X169048007Y-81831872D01*
X169042564Y-81837490D01*
X169023589Y-81856465D01*
X169018791Y-81862650D01*
X169016567Y-81865173D01*
X169011305Y-81870956D01*
X168982052Y-81902107D01*
X168974506Y-81915834D01*
X168970320Y-81921595D01*
X168961368Y-81935223D01*
X168957741Y-81941357D01*
X168948138Y-81953736D01*
X168932353Y-81990214D01*
X168922032Y-82011281D01*
X168910420Y-82032404D01*
X168902873Y-82046132D01*
X168898979Y-82061300D01*
X168896354Y-82067929D01*
X168891076Y-82083347D01*
X168889084Y-82090202D01*
X168882865Y-82104574D01*
X168880415Y-82120039D01*
X168880414Y-82120044D01*
X168876646Y-82143837D01*
X168871889Y-82166806D01*
X168862000Y-82205323D01*
X168862000Y-82220987D01*
X168861107Y-82228057D01*
X168859828Y-82244305D01*
X168859604Y-82251431D01*
X168857153Y-82266905D01*
X162972994Y-82266905D01*
X163078832Y-82227070D01*
X163078857Y-82227060D01*
X163080757Y-82226345D01*
X163139344Y-82202077D01*
X163229816Y-82164602D01*
X163229819Y-82164600D01*
X163231682Y-82163829D01*
X163381008Y-82096170D01*
X163382821Y-82095276D01*
X163382842Y-82095266D01*
X163467025Y-82053752D01*
X163467058Y-82053735D01*
X163468800Y-82052876D01*
X163470517Y-82051958D01*
X163470535Y-82051949D01*
X163611606Y-81976545D01*
X163611613Y-81976541D01*
X163613398Y-81975587D01*
X163738451Y-81903388D01*
X163753120Y-81894919D01*
X163753138Y-81894908D01*
X163754886Y-81893899D01*
X163756590Y-81892839D01*
X163756609Y-81892828D01*
X163875463Y-81818920D01*
X163894100Y-81807331D01*
X163975493Y-81752947D01*
X163977140Y-81751767D01*
X164107135Y-81658615D01*
X164107154Y-81658601D01*
X164108788Y-81657430D01*
X164192842Y-81592933D01*
X164236796Y-81559206D01*
X164236815Y-81559191D01*
X164238397Y-81557977D01*
X164290369Y-81515325D01*
X164301762Y-81505974D01*
X164365127Y-81453972D01*
X164469535Y-81362409D01*
X164530305Y-81307330D01*
X164589960Y-81251456D01*
X164648859Y-81194453D01*
X172419453Y-73423859D01*
X172476456Y-73364960D01*
X172532330Y-73305305D01*
X172587409Y-73244535D01*
X172650520Y-73172571D01*
X172677633Y-73141654D01*
X172677637Y-73141649D01*
X172678972Y-73140127D01*
X172688569Y-73128434D01*
X172781687Y-73014971D01*
X172781694Y-73014962D01*
X172782958Y-73013422D01*
X172784191Y-73011815D01*
X172784207Y-73011795D01*
X172829308Y-72953022D01*
X172902354Y-72888965D01*
X172994354Y-72857737D01*
X173091300Y-72864094D01*
G37*
G04 #@! TD.AperFunction*
G04 #@! TA.AperFunction,Conductor*
G36*
X175607288Y-88287751D02*
G01*
X175688070Y-88341727D01*
X175726361Y-88391107D01*
X175726691Y-88391665D01*
X175738852Y-88416498D01*
X175742268Y-88422712D01*
X175748035Y-88437277D01*
X175757240Y-88449947D01*
X175757242Y-88449950D01*
X175771405Y-88469443D01*
X175784280Y-88489044D01*
X175804522Y-88523271D01*
X175815600Y-88534349D01*
X175819964Y-88539975D01*
X175830536Y-88552354D01*
X175835428Y-88557563D01*
X175844640Y-88570243D01*
X175856712Y-88580230D01*
X175856715Y-88580233D01*
X175875266Y-88595579D01*
X175892618Y-88611367D01*
X176934337Y-89653086D01*
X176988313Y-89733868D01*
X177007267Y-89829156D01*
X176988313Y-89924444D01*
X176984190Y-89930614D01*
X176989720Y-89924451D01*
X177077336Y-89882470D01*
X177174349Y-89877214D01*
X177230716Y-89892185D01*
X177239808Y-89895785D01*
X177253531Y-89903329D01*
X177268699Y-89907223D01*
X177275318Y-89909844D01*
X177290743Y-89915125D01*
X177297594Y-89917116D01*
X177311973Y-89923338D01*
X177327446Y-89925789D01*
X177327450Y-89925790D01*
X177351236Y-89929557D01*
X177374209Y-89934314D01*
X177410098Y-89943529D01*
X177497679Y-89985586D01*
X177562499Y-90057956D01*
X177594689Y-90149623D01*
X177589350Y-90246631D01*
X177571937Y-90290722D01*
X177568974Y-90294676D01*
X177518649Y-90428920D01*
X177512000Y-90490123D01*
X177512000Y-92789299D01*
X177493046Y-92884587D01*
X177439070Y-92965369D01*
X177358288Y-93019345D01*
X177263000Y-93038299D01*
X177167712Y-93019345D01*
X177121171Y-92993959D01*
X177120708Y-92993638D01*
X177120170Y-92993265D01*
X177052647Y-92923411D01*
X177016996Y-92833034D01*
X177013000Y-92788606D01*
X177013000Y-90986700D01*
X177012999Y-90986695D01*
X177012999Y-90490124D01*
X177006351Y-90428920D01*
X176956026Y-90294676D01*
X176939804Y-90273032D01*
X176897825Y-90185419D01*
X176892569Y-90088406D01*
X176918020Y-90016129D01*
X176853555Y-90059202D01*
X176758267Y-90078156D01*
X176670866Y-90062312D01*
X176621080Y-90043649D01*
X176559877Y-90037000D01*
X176045451Y-90037000D01*
X176032422Y-90036659D01*
X175975973Y-90033701D01*
X175975971Y-90033701D01*
X175963374Y-90033041D01*
X175950901Y-90034928D01*
X175938301Y-90035544D01*
X175938299Y-90035510D01*
X175918466Y-90037001D01*
X175512000Y-90037001D01*
X175416712Y-90018047D01*
X175335930Y-89964071D01*
X175281954Y-89883289D01*
X175263000Y-89788001D01*
X175263000Y-88517797D01*
X175281954Y-88422509D01*
X175335930Y-88341727D01*
X175416712Y-88287751D01*
X175512000Y-88268797D01*
X175607288Y-88287751D01*
G37*
G04 #@! TD.AperFunction*
G04 #@! TA.AperFunction,Conductor*
G36*
X174815123Y-85788000D02*
G01*
X175012382Y-85788000D01*
X175209876Y-85787999D01*
X175216569Y-85787272D01*
X175216587Y-85787271D01*
X175235615Y-85785204D01*
X175289386Y-85785204D01*
X175315123Y-85788000D01*
X175422016Y-85788000D01*
X175517304Y-85806954D01*
X175598086Y-85860930D01*
X175652062Y-85941712D01*
X175669911Y-86013567D01*
X175670998Y-86025066D01*
X175672103Y-86048499D01*
X175672103Y-86963738D01*
X175653149Y-87059026D01*
X175599173Y-87139808D01*
X175518391Y-87193784D01*
X175423103Y-87212738D01*
X175327815Y-87193784D01*
X175247033Y-87139808D01*
X175194239Y-87061831D01*
X175190610Y-87053363D01*
X175186838Y-87041328D01*
X175176741Y-87023112D01*
X175163009Y-86994062D01*
X175159985Y-86986425D01*
X175155341Y-86974695D01*
X175145547Y-86959728D01*
X175124775Y-86927985D01*
X175115349Y-86912359D01*
X175094412Y-86874588D01*
X175088297Y-86863556D01*
X175074745Y-86847745D01*
X175055446Y-86822041D01*
X175049281Y-86812620D01*
X175044045Y-86804618D01*
X175039583Y-86799662D01*
X175004010Y-86764089D01*
X174991021Y-86750061D01*
X174964233Y-86718807D01*
X174964229Y-86718803D01*
X174956023Y-86709229D01*
X174946061Y-86701501D01*
X174946056Y-86701497D01*
X174937765Y-86695066D01*
X174914308Y-86674387D01*
X174452990Y-86213069D01*
X174399014Y-86132287D01*
X174380060Y-86036999D01*
X174399014Y-85941711D01*
X174452990Y-85860929D01*
X174533772Y-85806953D01*
X174629059Y-85787999D01*
X174709876Y-85787999D01*
X174716569Y-85787272D01*
X174716587Y-85787271D01*
X174735615Y-85785204D01*
X174789386Y-85785204D01*
X174815123Y-85788000D01*
G37*
G04 #@! TD.AperFunction*
G04 #@! TA.AperFunction,Conductor*
G36*
X188306986Y-59540682D02*
G01*
X188400004Y-59547334D01*
X188458029Y-59551484D01*
X188634415Y-59576845D01*
X188738685Y-59599527D01*
X188909654Y-59649728D01*
X189009641Y-59687021D01*
X189171734Y-59761048D01*
X189265375Y-59812180D01*
X189415291Y-59908525D01*
X189500714Y-59972472D01*
X189635391Y-60089171D01*
X189710829Y-60164609D01*
X189827528Y-60299286D01*
X189891475Y-60384709D01*
X189987820Y-60534625D01*
X190038952Y-60628266D01*
X190112979Y-60790359D01*
X190150272Y-60890346D01*
X190200473Y-61061315D01*
X190223155Y-61165585D01*
X190248516Y-61341974D01*
X190259318Y-61493014D01*
X190262500Y-61582112D01*
X190262500Y-71209073D01*
X190279610Y-71470125D01*
X190330648Y-71726711D01*
X190414741Y-71974440D01*
X190530449Y-72209073D01*
X190675793Y-72426596D01*
X190848286Y-72623286D01*
X201391176Y-83166176D01*
X201534681Y-83338066D01*
X201645186Y-83532817D01*
X201719142Y-83744171D01*
X201754171Y-83965333D01*
X201757000Y-84049352D01*
X201757000Y-104742032D01*
X201736928Y-104965050D01*
X201677357Y-105180899D01*
X201580203Y-105382643D01*
X201448586Y-105563797D01*
X201286739Y-105718540D01*
X201099862Y-105841896D01*
X200944487Y-105912280D01*
X200909664Y-105925268D01*
X200738685Y-105975473D01*
X200634415Y-105998155D01*
X200458029Y-106023516D01*
X200400004Y-106027666D01*
X200306986Y-106034318D01*
X200217888Y-106037500D01*
X191111857Y-106037500D01*
X190916471Y-106022123D01*
X190886828Y-106017428D01*
X190569838Y-105967222D01*
X190537184Y-105965511D01*
X190537178Y-105965510D01*
X190215166Y-105948634D01*
X190182500Y-105946922D01*
X190149834Y-105948634D01*
X189827822Y-105965510D01*
X189827816Y-105965511D01*
X189795162Y-105967222D01*
X189478172Y-106017428D01*
X189448529Y-106022123D01*
X189253143Y-106037500D01*
X184111857Y-106037500D01*
X183916471Y-106022123D01*
X183886828Y-106017428D01*
X183569838Y-105967222D01*
X183537184Y-105965511D01*
X183537178Y-105965510D01*
X183215166Y-105948634D01*
X183182500Y-105946922D01*
X183149834Y-105948634D01*
X182827822Y-105965510D01*
X182827816Y-105965511D01*
X182795162Y-105967222D01*
X182478172Y-106017428D01*
X182448529Y-106022123D01*
X182253143Y-106037500D01*
X177111857Y-106037500D01*
X176916471Y-106022123D01*
X176886828Y-106017428D01*
X176569838Y-105967222D01*
X176537184Y-105965511D01*
X176537178Y-105965510D01*
X176215166Y-105948634D01*
X176182500Y-105946922D01*
X176149834Y-105948634D01*
X175827822Y-105965510D01*
X175827816Y-105965511D01*
X175795162Y-105967222D01*
X175478172Y-106017428D01*
X175448529Y-106022123D01*
X175253143Y-106037500D01*
X170111857Y-106037500D01*
X169916471Y-106022123D01*
X169886828Y-106017428D01*
X169569838Y-105967222D01*
X169537184Y-105965511D01*
X169537178Y-105965510D01*
X169215166Y-105948634D01*
X169182500Y-105946922D01*
X169149834Y-105948634D01*
X168827822Y-105965510D01*
X168827816Y-105965511D01*
X168795162Y-105967222D01*
X168478172Y-106017428D01*
X168448529Y-106022123D01*
X168253143Y-106037500D01*
X163111857Y-106037500D01*
X162916471Y-106022123D01*
X162886828Y-106017428D01*
X162569838Y-105967222D01*
X162537184Y-105965511D01*
X162537178Y-105965510D01*
X162215166Y-105948634D01*
X162182500Y-105946922D01*
X162149834Y-105948634D01*
X161827822Y-105965510D01*
X161827816Y-105965511D01*
X161795162Y-105967222D01*
X161478172Y-106017428D01*
X161448529Y-106022123D01*
X161253143Y-106037500D01*
X156111857Y-106037500D01*
X155916471Y-106022123D01*
X155886828Y-106017428D01*
X155569838Y-105967222D01*
X155537184Y-105965511D01*
X155537178Y-105965510D01*
X155215166Y-105948634D01*
X155182500Y-105946922D01*
X155149834Y-105948634D01*
X154827822Y-105965510D01*
X154827816Y-105965511D01*
X154795162Y-105967222D01*
X154478172Y-106017428D01*
X154448529Y-106022123D01*
X154253143Y-106037500D01*
X149111857Y-106037500D01*
X148916471Y-106022123D01*
X148886828Y-106017428D01*
X148569838Y-105967222D01*
X148537184Y-105965511D01*
X148537178Y-105965510D01*
X148215166Y-105948634D01*
X148182500Y-105946922D01*
X148149834Y-105948634D01*
X147827822Y-105965510D01*
X147827816Y-105965511D01*
X147795162Y-105967222D01*
X147478172Y-106017428D01*
X147448529Y-106022123D01*
X147253143Y-106037500D01*
X142111857Y-106037500D01*
X141916471Y-106022123D01*
X141886828Y-106017428D01*
X141569838Y-105967222D01*
X141537184Y-105965511D01*
X141537178Y-105965510D01*
X141215166Y-105948634D01*
X141182500Y-105946922D01*
X141149834Y-105948634D01*
X140827822Y-105965510D01*
X140827816Y-105965511D01*
X140795162Y-105967222D01*
X140478172Y-106017428D01*
X140448529Y-106022123D01*
X140253143Y-106037500D01*
X135111857Y-106037500D01*
X134916471Y-106022123D01*
X134886828Y-106017428D01*
X134569838Y-105967222D01*
X134537184Y-105965511D01*
X134537178Y-105965510D01*
X134215166Y-105948634D01*
X134182500Y-105946922D01*
X134149834Y-105948634D01*
X133827822Y-105965510D01*
X133827816Y-105965511D01*
X133795162Y-105967222D01*
X133478172Y-106017428D01*
X133448529Y-106022123D01*
X133253143Y-106037500D01*
X129262000Y-106037500D01*
X129038982Y-106017428D01*
X128823133Y-105957857D01*
X128621389Y-105860703D01*
X128440235Y-105729086D01*
X128285492Y-105567239D01*
X128162136Y-105380362D01*
X128074130Y-105174462D01*
X128024304Y-104956157D01*
X128013000Y-104788500D01*
X128013000Y-103286500D01*
X128033072Y-103063482D01*
X128092643Y-102847633D01*
X128189797Y-102645889D01*
X128321414Y-102464735D01*
X128483261Y-102309992D01*
X128670138Y-102186636D01*
X128876038Y-102098630D01*
X129094343Y-102048804D01*
X129262000Y-102037500D01*
X196262500Y-102037500D01*
X196415876Y-102026530D01*
X196502643Y-102020325D01*
X196502646Y-102020325D01*
X196547130Y-102017143D01*
X196590710Y-102007663D01*
X196590715Y-102007662D01*
X196667823Y-101990888D01*
X196825965Y-101956486D01*
X197093330Y-101856764D01*
X197343782Y-101720007D01*
X197572221Y-101548999D01*
X197773999Y-101347221D01*
X197945007Y-101118782D01*
X198081764Y-100868330D01*
X198181486Y-100600965D01*
X198242143Y-100322130D01*
X198262500Y-100037500D01*
X198262500Y-99497284D01*
X198282572Y-99274266D01*
X198342143Y-99058417D01*
X198439297Y-98856673D01*
X198448609Y-98841731D01*
X198453814Y-98832716D01*
X198471625Y-98805289D01*
X198647714Y-98459694D01*
X198786714Y-98097587D01*
X198887102Y-97722933D01*
X198947778Y-97339838D01*
X198968078Y-96952500D01*
X198947778Y-96565162D01*
X198887102Y-96182067D01*
X198786714Y-95807413D01*
X198647714Y-95445306D01*
X198471625Y-95099711D01*
X198453808Y-95072275D01*
X198437459Y-95043958D01*
X198440043Y-95042466D01*
X198359870Y-94890770D01*
X198292270Y-94677299D01*
X198263873Y-94455187D01*
X198263000Y-94408486D01*
X198263000Y-94006367D01*
X198263097Y-94002673D01*
X198263966Y-93994800D01*
X198263017Y-93813577D01*
X198263000Y-93807037D01*
X198263000Y-93749311D01*
X198262652Y-93743269D01*
X198262648Y-93743031D01*
X198262517Y-93718029D01*
X198262500Y-93711485D01*
X198262500Y-86865927D01*
X198245390Y-86604875D01*
X198194352Y-86348289D01*
X198110259Y-86100560D01*
X197994551Y-85865927D01*
X197849207Y-85648404D01*
X197676714Y-85451714D01*
X185877203Y-73652203D01*
X185821329Y-73592548D01*
X185729766Y-73488140D01*
X185630312Y-73358529D01*
X185575929Y-73277138D01*
X185494241Y-73135650D01*
X185450947Y-73047858D01*
X185388430Y-72896931D01*
X185356962Y-72804230D01*
X185314678Y-72646424D01*
X185295579Y-72550406D01*
X185274256Y-72388437D01*
X185265174Y-72249872D01*
X185262500Y-72168184D01*
X185262500Y-65037500D01*
X185242143Y-64752870D01*
X185181486Y-64474035D01*
X185081764Y-64206670D01*
X184945007Y-63956218D01*
X184773999Y-63727779D01*
X184572221Y-63526001D01*
X184343782Y-63354993D01*
X184093330Y-63218236D01*
X183825965Y-63118514D01*
X183667823Y-63084112D01*
X183590715Y-63067338D01*
X183590710Y-63067337D01*
X183547130Y-63057857D01*
X183502646Y-63054675D01*
X183502643Y-63054675D01*
X183415876Y-63048470D01*
X183262500Y-63037500D01*
X173262500Y-63037500D01*
X173109124Y-63048470D01*
X173022357Y-63054675D01*
X173022354Y-63054675D01*
X172977870Y-63057857D01*
X172934290Y-63067337D01*
X172934285Y-63067338D01*
X172857177Y-63084112D01*
X172699035Y-63118514D01*
X172431670Y-63218236D01*
X172181218Y-63354993D01*
X171952779Y-63526001D01*
X171751001Y-63727779D01*
X171579993Y-63956218D01*
X171443236Y-64206670D01*
X171343514Y-64474035D01*
X171282857Y-64752870D01*
X171262500Y-65037500D01*
X171262500Y-69453190D01*
X171242428Y-69676208D01*
X171221889Y-69760828D01*
X171222997Y-69761094D01*
X171201037Y-69852564D01*
X171190133Y-69894731D01*
X171164993Y-69985383D01*
X171159353Y-70023122D01*
X171157647Y-70031147D01*
X171156217Y-70039257D01*
X171147307Y-70076370D01*
X171142988Y-70114276D01*
X171142985Y-70114293D01*
X171136656Y-70169841D01*
X171130968Y-70213044D01*
X171117068Y-70306055D01*
X171114540Y-70363958D01*
X171113968Y-70363933D01*
X171114050Y-70368255D01*
X171110602Y-70398520D01*
X171110935Y-70436690D01*
X171110935Y-70436693D01*
X171111952Y-70553184D01*
X171112000Y-70564086D01*
X171112000Y-70654419D01*
X171091928Y-70877437D01*
X171032357Y-71093286D01*
X170935203Y-71295030D01*
X170901478Y-71348367D01*
X170894662Y-71358567D01*
X170795234Y-71488140D01*
X170703671Y-71592548D01*
X170647797Y-71652203D01*
X162877203Y-79422797D01*
X162817548Y-79478671D01*
X162713140Y-79570234D01*
X162583531Y-79669687D01*
X162502138Y-79724071D01*
X162360650Y-79805759D01*
X162272858Y-79849053D01*
X162121933Y-79911569D01*
X162029230Y-79943038D01*
X161871424Y-79985322D01*
X161775407Y-80004421D01*
X161613437Y-80025744D01*
X161566053Y-80028850D01*
X161474870Y-80034826D01*
X161393184Y-80037500D01*
X129262000Y-80037500D01*
X129038982Y-80017428D01*
X128823133Y-79957857D01*
X128621389Y-79860703D01*
X128440235Y-79729086D01*
X128285492Y-79567239D01*
X128162136Y-79380362D01*
X128074130Y-79174462D01*
X128024304Y-78956157D01*
X128013000Y-78788500D01*
X128013000Y-77286500D01*
X128033072Y-77063482D01*
X128092643Y-76847633D01*
X128189797Y-76645889D01*
X128321414Y-76464735D01*
X128483261Y-76309992D01*
X128670138Y-76186636D01*
X128876038Y-76098630D01*
X129094343Y-76048804D01*
X129262000Y-76037500D01*
X131341574Y-76037500D01*
X131536960Y-76052877D01*
X131915162Y-76112778D01*
X131947816Y-76114489D01*
X131947822Y-76114490D01*
X132269834Y-76131366D01*
X132302500Y-76133078D01*
X132335166Y-76131366D01*
X132657178Y-76114490D01*
X132657184Y-76114489D01*
X132689838Y-76112778D01*
X133068040Y-76052877D01*
X133263426Y-76037500D01*
X138341574Y-76037500D01*
X138536960Y-76052877D01*
X138915162Y-76112778D01*
X138947816Y-76114489D01*
X138947822Y-76114490D01*
X139269834Y-76131366D01*
X139302500Y-76133078D01*
X139335166Y-76131366D01*
X139657178Y-76114490D01*
X139657184Y-76114489D01*
X139689838Y-76112778D01*
X140068040Y-76052877D01*
X140263426Y-76037500D01*
X145341574Y-76037500D01*
X145536960Y-76052877D01*
X145915162Y-76112778D01*
X145947816Y-76114489D01*
X145947822Y-76114490D01*
X146269834Y-76131366D01*
X146302500Y-76133078D01*
X146335166Y-76131366D01*
X146657178Y-76114490D01*
X146657184Y-76114489D01*
X146689838Y-76112778D01*
X147068040Y-76052877D01*
X147263426Y-76037500D01*
X152341574Y-76037500D01*
X152536960Y-76052877D01*
X152915162Y-76112778D01*
X152947816Y-76114489D01*
X152947822Y-76114490D01*
X153269834Y-76131366D01*
X153302500Y-76133078D01*
X153335166Y-76131366D01*
X153657178Y-76114490D01*
X153657184Y-76114489D01*
X153689838Y-76112778D01*
X154068040Y-76052877D01*
X154263426Y-76037500D01*
X159341574Y-76037500D01*
X159536960Y-76052877D01*
X159915162Y-76112778D01*
X159947816Y-76114489D01*
X159947822Y-76114490D01*
X160269834Y-76131366D01*
X160302500Y-76133078D01*
X160335166Y-76131366D01*
X160657178Y-76114490D01*
X160657184Y-76114489D01*
X160689838Y-76112778D01*
X161072933Y-76052102D01*
X161412797Y-75961036D01*
X161416007Y-75960176D01*
X161416010Y-75960175D01*
X161447587Y-75951714D01*
X161809694Y-75812714D01*
X162155289Y-75636625D01*
X162182704Y-75618821D01*
X162182710Y-75618818D01*
X162453160Y-75443186D01*
X162453168Y-75443180D01*
X162480584Y-75425376D01*
X162782016Y-75181281D01*
X163056281Y-74907016D01*
X163300376Y-74605584D01*
X163318180Y-74578168D01*
X163318186Y-74578160D01*
X163493818Y-74307710D01*
X163493821Y-74307704D01*
X163511625Y-74280289D01*
X163687714Y-73934694D01*
X163793440Y-73659269D01*
X163892101Y-73458257D01*
X164025068Y-73278092D01*
X164076306Y-73223694D01*
X166676714Y-70623286D01*
X166849207Y-70426596D01*
X166994551Y-70209073D01*
X167110259Y-69974440D01*
X167194352Y-69726711D01*
X167245390Y-69470125D01*
X167262500Y-69209073D01*
X167262500Y-61582112D01*
X167265682Y-61493014D01*
X167276484Y-61341974D01*
X167301845Y-61165585D01*
X167324527Y-61061315D01*
X167374728Y-60890346D01*
X167412021Y-60790359D01*
X167486048Y-60628266D01*
X167537180Y-60534625D01*
X167633525Y-60384709D01*
X167697472Y-60299286D01*
X167814171Y-60164609D01*
X167889609Y-60089171D01*
X168024286Y-59972472D01*
X168109709Y-59908525D01*
X168259625Y-59812180D01*
X168353266Y-59761048D01*
X168515359Y-59687021D01*
X168615346Y-59649728D01*
X168786315Y-59599527D01*
X168890585Y-59576845D01*
X169066971Y-59551484D01*
X169124996Y-59547334D01*
X169218014Y-59540682D01*
X169307112Y-59537500D01*
X188217888Y-59537500D01*
X188306986Y-59540682D01*
G37*
G04 #@! TD.AperFunction*
M02*
