G04 #@! TF.GenerationSoftware,KiCad,Pcbnew,6.0.10+dfsg-1~bpo11+1*
G04 #@! TF.ProjectId,project,70726f6a-6563-4742-9e6b-696361645f70,rev?*
G04 #@! TF.SameCoordinates,Original*
G04 #@! TF.FileFunction,Copper,L2,Bot*
G04 #@! TF.FilePolarity,Positive*
%FSLAX46Y46*%
G04 Gerber Fmt 4.6, Leading zero omitted, Abs format (unit mm)*
%MOMM*%
%LPD*%
G01*
G04 APERTURE LIST*
G04 #@! TA.AperFunction,Profile*
%ADD10C,0.100000*%
G04 #@! TD*
G04 #@! TA.AperFunction,ComponentPad*
%ADD11C,2.400000*%
G04 #@! TD*
G04 #@! TA.AperFunction,ComponentPad*
%ADD12O,2.080000X3.600000*%
G04 #@! TD*
G04 #@! TA.AperFunction,ComponentPad*
%ADD13O,2.100000X3.600000*%
G04 #@! TD*
G04 #@! TA.AperFunction,SMDPad,CuDef*
%ADD14R,1.200000X0.900000*%
G04 #@! TD*
G04 #@! TA.AperFunction,ViaPad*
%ADD15C,0.700000*%
G04 #@! TD*
G04 #@! TA.AperFunction,Conductor*
%ADD16C,0.500000*%
G04 #@! TD*
G04 #@! TA.AperFunction,Conductor*
%ADD17C,0.400000*%
G04 #@! TD*
G04 #@! TA.AperFunction,Conductor*
%ADD18C,0.160000*%
G04 #@! TD*
G04 #@! TA.AperFunction,Conductor*
%ADD19C,1.000000*%
G04 #@! TD*
G04 #@! TA.AperFunction,Conductor*
%ADD20C,2.000000*%
G04 #@! TD*
G04 #@! TA.AperFunction,Conductor*
%ADD21C,0.300000*%
G04 #@! TD*
G04 #@! TA.AperFunction,Conductor*
%ADD22C,2.500000*%
G04 #@! TD*
G04 APERTURE END LIST*
D10*
X211012500Y-48287500D02*
X211012500Y-133787500D01*
X211012500Y-133787500D02*
X125512500Y-133787500D01*
X125512500Y-48287500D02*
X211012500Y-48287500D01*
X125512500Y-133787500D02*
X125512500Y-48287500D01*
D11*
X132302500Y-87667500D03*
X132302500Y-77507500D03*
X132302500Y-72427500D03*
X127222500Y-85127500D03*
X148182500Y-94412500D03*
X148182500Y-104572500D03*
X148182500Y-109652500D03*
X153262500Y-96952500D03*
G04 #@! TA.AperFunction,ComponentPad*
G36*
G01*
X131982500Y-121810001D02*
X131982500Y-118709999D01*
G75*
G02*
X132232499Y-118460000I249999J0D01*
G01*
X133812501Y-118460000D01*
G75*
G02*
X134062500Y-118709999I0J-249999D01*
G01*
X134062500Y-121810001D01*
G75*
G02*
X133812501Y-122060000I-249999J0D01*
G01*
X132232499Y-122060000D01*
G75*
G02*
X131982500Y-121810001I0J249999D01*
G01*
G37*
G04 #@! TD.AperFunction*
D12*
X138102500Y-120260000D03*
X143182500Y-120260000D03*
X148262500Y-120260000D03*
X153342500Y-120260000D03*
X158422500Y-120260000D03*
X163502500Y-120260000D03*
G04 #@! TA.AperFunction,ComponentPad*
G36*
G01*
X203932500Y-60265001D02*
X203932500Y-63364999D01*
G75*
G02*
X203682499Y-63615000I-250001J0D01*
G01*
X202082501Y-63615000D01*
G75*
G02*
X201832500Y-63364999I0J250001D01*
G01*
X201832500Y-60265001D01*
G75*
G02*
X202082501Y-60015000I250001J0D01*
G01*
X203682499Y-60015000D01*
G75*
G02*
X203932500Y-60265001I0J-250001D01*
G01*
G37*
G04 #@! TD.AperFunction*
D13*
X195262500Y-61815000D03*
X187642500Y-61815000D03*
D11*
X141182500Y-94412500D03*
X141182500Y-104572500D03*
X141182500Y-109652500D03*
X146262500Y-96952500D03*
X176182500Y-94412500D03*
X176182500Y-104572500D03*
X176182500Y-109652500D03*
X181262500Y-96952500D03*
X153302500Y-87667500D03*
X153302500Y-77507500D03*
X153302500Y-72427500D03*
X148222500Y-85127500D03*
X127182500Y-94412500D03*
X127182500Y-104572500D03*
X127182500Y-109652500D03*
X132262500Y-96952500D03*
X155182500Y-94412500D03*
X155182500Y-104572500D03*
X155182500Y-109652500D03*
X160262500Y-96952500D03*
G04 #@! TA.AperFunction,ComponentPad*
G36*
G01*
X163542500Y-60264999D02*
X163542500Y-63365001D01*
G75*
G02*
X163292501Y-63615000I-249999J0D01*
G01*
X161712499Y-63615000D01*
G75*
G02*
X161462500Y-63365001I0J249999D01*
G01*
X161462500Y-60264999D01*
G75*
G02*
X161712499Y-60015000I249999J0D01*
G01*
X163292501Y-60015000D01*
G75*
G02*
X163542500Y-60264999I0J-249999D01*
G01*
G37*
G04 #@! TD.AperFunction*
D12*
X157422500Y-61815000D03*
X152342500Y-61815000D03*
X147262500Y-61815000D03*
X142182500Y-61815000D03*
X137102500Y-61815000D03*
X132022500Y-61815000D03*
D11*
X169182500Y-94412500D03*
X169182500Y-104572500D03*
X169182500Y-109652500D03*
X174262500Y-96952500D03*
X146302500Y-87667500D03*
X146302500Y-77507500D03*
X146302500Y-72427500D03*
X141222500Y-85127500D03*
G04 #@! TA.AperFunction,ComponentPad*
G36*
G01*
X170982500Y-121810001D02*
X170982500Y-118709999D01*
G75*
G02*
X171232499Y-118460000I249999J0D01*
G01*
X172812501Y-118460000D01*
G75*
G02*
X173062500Y-118709999I0J-249999D01*
G01*
X173062500Y-121810001D01*
G75*
G02*
X172812501Y-122060000I-249999J0D01*
G01*
X171232499Y-122060000D01*
G75*
G02*
X170982500Y-121810001I0J249999D01*
G01*
G37*
G04 #@! TD.AperFunction*
D12*
X177102500Y-120260000D03*
X182182500Y-120260000D03*
X187262500Y-120260000D03*
X192342500Y-120260000D03*
X197422500Y-120260000D03*
X202502500Y-120260000D03*
D11*
X162182500Y-94412500D03*
X162182500Y-104572500D03*
X162182500Y-109652500D03*
X167262500Y-96952500D03*
X183182500Y-94412500D03*
X183182500Y-104572500D03*
X183182500Y-109652500D03*
X188262500Y-96952500D03*
X190182500Y-94412500D03*
X190182500Y-104572500D03*
X190182500Y-109652500D03*
X195262500Y-96952500D03*
X160302500Y-87667500D03*
X160302500Y-77507500D03*
X160302500Y-72427500D03*
X155222500Y-85127500D03*
X139302500Y-87667500D03*
X139302500Y-77507500D03*
X139302500Y-72427500D03*
X134222500Y-85127500D03*
X134182500Y-94412500D03*
X134182500Y-104572500D03*
X134182500Y-109652500D03*
X139262500Y-96952500D03*
D14*
X136762500Y-84887500D03*
X136762500Y-88187500D03*
X143762500Y-84887500D03*
X143762500Y-88187500D03*
G04 #@! TA.AperFunction,SMDPad,CuDef*
G36*
G01*
X194687500Y-77087500D02*
X194687500Y-77987500D01*
G75*
G02*
X194437500Y-78237500I-250000J0D01*
G01*
X193912500Y-78237500D01*
G75*
G02*
X193662500Y-77987500I0J250000D01*
G01*
X193662500Y-77087500D01*
G75*
G02*
X193912500Y-76837500I250000J0D01*
G01*
X194437500Y-76837500D01*
G75*
G02*
X194687500Y-77087500I0J-250000D01*
G01*
G37*
G04 #@! TD.AperFunction*
G04 #@! TA.AperFunction,SMDPad,CuDef*
G36*
G01*
X192862500Y-77087500D02*
X192862500Y-77987500D01*
G75*
G02*
X192612500Y-78237500I-250000J0D01*
G01*
X192087500Y-78237500D01*
G75*
G02*
X191837500Y-77987500I0J250000D01*
G01*
X191837500Y-77087500D01*
G75*
G02*
X192087500Y-76837500I250000J0D01*
G01*
X192612500Y-76837500D01*
G75*
G02*
X192862500Y-77087500I0J-250000D01*
G01*
G37*
G04 #@! TD.AperFunction*
X150762500Y-97187500D03*
X150762500Y-93887500D03*
G04 #@! TA.AperFunction,SMDPad,CuDef*
G36*
G01*
X179662500Y-68087500D02*
X179662500Y-67187500D01*
G75*
G02*
X179912500Y-66937500I250000J0D01*
G01*
X180562500Y-66937500D01*
G75*
G02*
X180812500Y-67187500I0J-250000D01*
G01*
X180812500Y-68087500D01*
G75*
G02*
X180562500Y-68337500I-250000J0D01*
G01*
X179912500Y-68337500D01*
G75*
G02*
X179662500Y-68087500I0J250000D01*
G01*
G37*
G04 #@! TD.AperFunction*
G04 #@! TA.AperFunction,SMDPad,CuDef*
G36*
G01*
X181712500Y-68087500D02*
X181712500Y-67187500D01*
G75*
G02*
X181962500Y-66937500I250000J0D01*
G01*
X182612500Y-66937500D01*
G75*
G02*
X182862500Y-67187500I0J-250000D01*
G01*
X182862500Y-68087500D01*
G75*
G02*
X182612500Y-68337500I-250000J0D01*
G01*
X181962500Y-68337500D01*
G75*
G02*
X181712500Y-68087500I0J250000D01*
G01*
G37*
G04 #@! TD.AperFunction*
G04 #@! TA.AperFunction,SMDPad,CuDef*
G36*
G01*
X181662500Y-87912500D02*
X181962500Y-87912500D01*
G75*
G02*
X182112500Y-88062500I0J-150000D01*
G01*
X182112500Y-89237500D01*
G75*
G02*
X181962500Y-89387500I-150000J0D01*
G01*
X181662500Y-89387500D01*
G75*
G02*
X181512500Y-89237500I0J150000D01*
G01*
X181512500Y-88062500D01*
G75*
G02*
X181662500Y-87912500I150000J0D01*
G01*
G37*
G04 #@! TD.AperFunction*
G04 #@! TA.AperFunction,SMDPad,CuDef*
G36*
G01*
X183562500Y-87912500D02*
X183862500Y-87912500D01*
G75*
G02*
X184012500Y-88062500I0J-150000D01*
G01*
X184012500Y-89237500D01*
G75*
G02*
X183862500Y-89387500I-150000J0D01*
G01*
X183562500Y-89387500D01*
G75*
G02*
X183412500Y-89237500I0J150000D01*
G01*
X183412500Y-88062500D01*
G75*
G02*
X183562500Y-87912500I150000J0D01*
G01*
G37*
G04 #@! TD.AperFunction*
G04 #@! TA.AperFunction,SMDPad,CuDef*
G36*
G01*
X182612500Y-89787500D02*
X182912500Y-89787500D01*
G75*
G02*
X183062500Y-89937500I0J-150000D01*
G01*
X183062500Y-91112500D01*
G75*
G02*
X182912500Y-91262500I-150000J0D01*
G01*
X182612500Y-91262500D01*
G75*
G02*
X182462500Y-91112500I0J150000D01*
G01*
X182462500Y-89937500D01*
G75*
G02*
X182612500Y-89787500I150000J0D01*
G01*
G37*
G04 #@! TD.AperFunction*
X157762500Y-97187500D03*
X157762500Y-93887500D03*
G04 #@! TA.AperFunction,SMDPad,CuDef*
G36*
G01*
X192162500Y-87862500D02*
X192462500Y-87862500D01*
G75*
G02*
X192612500Y-88012500I0J-150000D01*
G01*
X192612500Y-89187500D01*
G75*
G02*
X192462500Y-89337500I-150000J0D01*
G01*
X192162500Y-89337500D01*
G75*
G02*
X192012500Y-89187500I0J150000D01*
G01*
X192012500Y-88012500D01*
G75*
G02*
X192162500Y-87862500I150000J0D01*
G01*
G37*
G04 #@! TD.AperFunction*
G04 #@! TA.AperFunction,SMDPad,CuDef*
G36*
G01*
X194062500Y-87862500D02*
X194362500Y-87862500D01*
G75*
G02*
X194512500Y-88012500I0J-150000D01*
G01*
X194512500Y-89187500D01*
G75*
G02*
X194362500Y-89337500I-150000J0D01*
G01*
X194062500Y-89337500D01*
G75*
G02*
X193912500Y-89187500I0J150000D01*
G01*
X193912500Y-88012500D01*
G75*
G02*
X194062500Y-87862500I150000J0D01*
G01*
G37*
G04 #@! TD.AperFunction*
G04 #@! TA.AperFunction,SMDPad,CuDef*
G36*
G01*
X193112500Y-89737500D02*
X193412500Y-89737500D01*
G75*
G02*
X193562500Y-89887500I0J-150000D01*
G01*
X193562500Y-91062500D01*
G75*
G02*
X193412500Y-91212500I-150000J0D01*
G01*
X193112500Y-91212500D01*
G75*
G02*
X192962500Y-91062500I0J150000D01*
G01*
X192962500Y-89887500D01*
G75*
G02*
X193112500Y-89737500I150000J0D01*
G01*
G37*
G04 #@! TD.AperFunction*
G04 #@! TA.AperFunction,SMDPad,CuDef*
G36*
G01*
X184462500Y-72137500D02*
X184462500Y-72437500D01*
G75*
G02*
X184312500Y-72587500I-150000J0D01*
G01*
X183287500Y-72587500D01*
G75*
G02*
X183137500Y-72437500I0J150000D01*
G01*
X183137500Y-72137500D01*
G75*
G02*
X183287500Y-71987500I150000J0D01*
G01*
X184312500Y-71987500D01*
G75*
G02*
X184462500Y-72137500I0J-150000D01*
G01*
G37*
G04 #@! TD.AperFunction*
G04 #@! TA.AperFunction,SMDPad,CuDef*
G36*
G01*
X184462500Y-73087500D02*
X184462500Y-73387500D01*
G75*
G02*
X184312500Y-73537500I-150000J0D01*
G01*
X183287500Y-73537500D01*
G75*
G02*
X183137500Y-73387500I0J150000D01*
G01*
X183137500Y-73087500D01*
G75*
G02*
X183287500Y-72937500I150000J0D01*
G01*
X184312500Y-72937500D01*
G75*
G02*
X184462500Y-73087500I0J-150000D01*
G01*
G37*
G04 #@! TD.AperFunction*
G04 #@! TA.AperFunction,SMDPad,CuDef*
G36*
G01*
X184462500Y-74037500D02*
X184462500Y-74337500D01*
G75*
G02*
X184312500Y-74487500I-150000J0D01*
G01*
X183287500Y-74487500D01*
G75*
G02*
X183137500Y-74337500I0J150000D01*
G01*
X183137500Y-74037500D01*
G75*
G02*
X183287500Y-73887500I150000J0D01*
G01*
X184312500Y-73887500D01*
G75*
G02*
X184462500Y-74037500I0J-150000D01*
G01*
G37*
G04 #@! TD.AperFunction*
G04 #@! TA.AperFunction,SMDPad,CuDef*
G36*
G01*
X182187500Y-74037500D02*
X182187500Y-74337500D01*
G75*
G02*
X182037500Y-74487500I-150000J0D01*
G01*
X181012500Y-74487500D01*
G75*
G02*
X180862500Y-74337500I0J150000D01*
G01*
X180862500Y-74037500D01*
G75*
G02*
X181012500Y-73887500I150000J0D01*
G01*
X182037500Y-73887500D01*
G75*
G02*
X182187500Y-74037500I0J-150000D01*
G01*
G37*
G04 #@! TD.AperFunction*
G04 #@! TA.AperFunction,SMDPad,CuDef*
G36*
G01*
X182187500Y-73087500D02*
X182187500Y-73387500D01*
G75*
G02*
X182037500Y-73537500I-150000J0D01*
G01*
X181012500Y-73537500D01*
G75*
G02*
X180862500Y-73387500I0J150000D01*
G01*
X180862500Y-73087500D01*
G75*
G02*
X181012500Y-72937500I150000J0D01*
G01*
X182037500Y-72937500D01*
G75*
G02*
X182187500Y-73087500I0J-150000D01*
G01*
G37*
G04 #@! TD.AperFunction*
G04 #@! TA.AperFunction,SMDPad,CuDef*
G36*
G01*
X182187500Y-72137500D02*
X182187500Y-72437500D01*
G75*
G02*
X182037500Y-72587500I-150000J0D01*
G01*
X181012500Y-72587500D01*
G75*
G02*
X180862500Y-72437500I0J150000D01*
G01*
X180862500Y-72137500D01*
G75*
G02*
X181012500Y-71987500I150000J0D01*
G01*
X182037500Y-71987500D01*
G75*
G02*
X182187500Y-72137500I0J-150000D01*
G01*
G37*
G04 #@! TD.AperFunction*
G04 #@! TA.AperFunction,SMDPad,CuDef*
G36*
G01*
X180687500Y-86087500D02*
X180687500Y-86987500D01*
G75*
G02*
X180437500Y-87237500I-250000J0D01*
G01*
X179912500Y-87237500D01*
G75*
G02*
X179662500Y-86987500I0J250000D01*
G01*
X179662500Y-86087500D01*
G75*
G02*
X179912500Y-85837500I250000J0D01*
G01*
X180437500Y-85837500D01*
G75*
G02*
X180687500Y-86087500I0J-250000D01*
G01*
G37*
G04 #@! TD.AperFunction*
G04 #@! TA.AperFunction,SMDPad,CuDef*
G36*
G01*
X178862500Y-86087500D02*
X178862500Y-86987500D01*
G75*
G02*
X178612500Y-87237500I-250000J0D01*
G01*
X178087500Y-87237500D01*
G75*
G02*
X177837500Y-86987500I0J250000D01*
G01*
X177837500Y-86087500D01*
G75*
G02*
X178087500Y-85837500I250000J0D01*
G01*
X178612500Y-85837500D01*
G75*
G02*
X178862500Y-86087500I0J-250000D01*
G01*
G37*
G04 #@! TD.AperFunction*
G04 #@! TA.AperFunction,SMDPad,CuDef*
G36*
G01*
X185162500Y-78862500D02*
X185462500Y-78862500D01*
G75*
G02*
X185612500Y-79012500I0J-150000D01*
G01*
X185612500Y-80187500D01*
G75*
G02*
X185462500Y-80337500I-150000J0D01*
G01*
X185162500Y-80337500D01*
G75*
G02*
X185012500Y-80187500I0J150000D01*
G01*
X185012500Y-79012500D01*
G75*
G02*
X185162500Y-78862500I150000J0D01*
G01*
G37*
G04 #@! TD.AperFunction*
G04 #@! TA.AperFunction,SMDPad,CuDef*
G36*
G01*
X187062500Y-78862500D02*
X187362500Y-78862500D01*
G75*
G02*
X187512500Y-79012500I0J-150000D01*
G01*
X187512500Y-80187500D01*
G75*
G02*
X187362500Y-80337500I-150000J0D01*
G01*
X187062500Y-80337500D01*
G75*
G02*
X186912500Y-80187500I0J150000D01*
G01*
X186912500Y-79012500D01*
G75*
G02*
X187062500Y-78862500I150000J0D01*
G01*
G37*
G04 #@! TD.AperFunction*
G04 #@! TA.AperFunction,SMDPad,CuDef*
G36*
G01*
X186112500Y-80737500D02*
X186412500Y-80737500D01*
G75*
G02*
X186562500Y-80887500I0J-150000D01*
G01*
X186562500Y-82062500D01*
G75*
G02*
X186412500Y-82212500I-150000J0D01*
G01*
X186112500Y-82212500D01*
G75*
G02*
X185962500Y-82062500I0J150000D01*
G01*
X185962500Y-80887500D01*
G75*
G02*
X186112500Y-80737500I150000J0D01*
G01*
G37*
G04 #@! TD.AperFunction*
G04 #@! TA.AperFunction,SMDPad,CuDef*
G36*
G01*
X170187500Y-86087500D02*
X170187500Y-86987500D01*
G75*
G02*
X169937500Y-87237500I-250000J0D01*
G01*
X169412500Y-87237500D01*
G75*
G02*
X169162500Y-86987500I0J250000D01*
G01*
X169162500Y-86087500D01*
G75*
G02*
X169412500Y-85837500I250000J0D01*
G01*
X169937500Y-85837500D01*
G75*
G02*
X170187500Y-86087500I0J-250000D01*
G01*
G37*
G04 #@! TD.AperFunction*
G04 #@! TA.AperFunction,SMDPad,CuDef*
G36*
G01*
X168362500Y-86087500D02*
X168362500Y-86987500D01*
G75*
G02*
X168112500Y-87237500I-250000J0D01*
G01*
X167587500Y-87237500D01*
G75*
G02*
X167337500Y-86987500I0J250000D01*
G01*
X167337500Y-86087500D01*
G75*
G02*
X167587500Y-85837500I250000J0D01*
G01*
X168112500Y-85837500D01*
G75*
G02*
X168362500Y-86087500I0J-250000D01*
G01*
G37*
G04 #@! TD.AperFunction*
G04 #@! TA.AperFunction,SMDPad,CuDef*
G36*
G01*
X177187500Y-77087500D02*
X177187500Y-77987500D01*
G75*
G02*
X176937500Y-78237500I-250000J0D01*
G01*
X176412500Y-78237500D01*
G75*
G02*
X176162500Y-77987500I0J250000D01*
G01*
X176162500Y-77087500D01*
G75*
G02*
X176412500Y-76837500I250000J0D01*
G01*
X176937500Y-76837500D01*
G75*
G02*
X177187500Y-77087500I0J-250000D01*
G01*
G37*
G04 #@! TD.AperFunction*
G04 #@! TA.AperFunction,SMDPad,CuDef*
G36*
G01*
X175362500Y-77087500D02*
X175362500Y-77987500D01*
G75*
G02*
X175112500Y-78237500I-250000J0D01*
G01*
X174587500Y-78237500D01*
G75*
G02*
X174337500Y-77987500I0J250000D01*
G01*
X174337500Y-77087500D01*
G75*
G02*
X174587500Y-76837500I250000J0D01*
G01*
X175112500Y-76837500D01*
G75*
G02*
X175362500Y-77087500I0J-250000D01*
G01*
G37*
G04 #@! TD.AperFunction*
X157762500Y-84887500D03*
X157762500Y-88187500D03*
G04 #@! TA.AperFunction,SMDPad,CuDef*
G36*
G01*
X171162500Y-78862500D02*
X171462500Y-78862500D01*
G75*
G02*
X171612500Y-79012500I0J-150000D01*
G01*
X171612500Y-80187500D01*
G75*
G02*
X171462500Y-80337500I-150000J0D01*
G01*
X171162500Y-80337500D01*
G75*
G02*
X171012500Y-80187500I0J150000D01*
G01*
X171012500Y-79012500D01*
G75*
G02*
X171162500Y-78862500I150000J0D01*
G01*
G37*
G04 #@! TD.AperFunction*
G04 #@! TA.AperFunction,SMDPad,CuDef*
G36*
G01*
X173062500Y-78862500D02*
X173362500Y-78862500D01*
G75*
G02*
X173512500Y-79012500I0J-150000D01*
G01*
X173512500Y-80187500D01*
G75*
G02*
X173362500Y-80337500I-150000J0D01*
G01*
X173062500Y-80337500D01*
G75*
G02*
X172912500Y-80187500I0J150000D01*
G01*
X172912500Y-79012500D01*
G75*
G02*
X173062500Y-78862500I150000J0D01*
G01*
G37*
G04 #@! TD.AperFunction*
G04 #@! TA.AperFunction,SMDPad,CuDef*
G36*
G01*
X172112500Y-80737500D02*
X172412500Y-80737500D01*
G75*
G02*
X172562500Y-80887500I0J-150000D01*
G01*
X172562500Y-82062500D01*
G75*
G02*
X172412500Y-82212500I-150000J0D01*
G01*
X172112500Y-82212500D01*
G75*
G02*
X171962500Y-82062500I0J150000D01*
G01*
X171962500Y-80887500D01*
G75*
G02*
X172112500Y-80737500I150000J0D01*
G01*
G37*
G04 #@! TD.AperFunction*
G04 #@! TA.AperFunction,SMDPad,CuDef*
G36*
G01*
X185162500Y-87862500D02*
X185462500Y-87862500D01*
G75*
G02*
X185612500Y-88012500I0J-150000D01*
G01*
X185612500Y-89187500D01*
G75*
G02*
X185462500Y-89337500I-150000J0D01*
G01*
X185162500Y-89337500D01*
G75*
G02*
X185012500Y-89187500I0J150000D01*
G01*
X185012500Y-88012500D01*
G75*
G02*
X185162500Y-87862500I150000J0D01*
G01*
G37*
G04 #@! TD.AperFunction*
G04 #@! TA.AperFunction,SMDPad,CuDef*
G36*
G01*
X187062500Y-87862500D02*
X187362500Y-87862500D01*
G75*
G02*
X187512500Y-88012500I0J-150000D01*
G01*
X187512500Y-89187500D01*
G75*
G02*
X187362500Y-89337500I-150000J0D01*
G01*
X187062500Y-89337500D01*
G75*
G02*
X186912500Y-89187500I0J150000D01*
G01*
X186912500Y-88012500D01*
G75*
G02*
X187062500Y-87862500I150000J0D01*
G01*
G37*
G04 #@! TD.AperFunction*
G04 #@! TA.AperFunction,SMDPad,CuDef*
G36*
G01*
X186112500Y-89737500D02*
X186412500Y-89737500D01*
G75*
G02*
X186562500Y-89887500I0J-150000D01*
G01*
X186562500Y-91062500D01*
G75*
G02*
X186412500Y-91212500I-150000J0D01*
G01*
X186112500Y-91212500D01*
G75*
G02*
X185962500Y-91062500I0J150000D01*
G01*
X185962500Y-89887500D01*
G75*
G02*
X186112500Y-89737500I150000J0D01*
G01*
G37*
G04 #@! TD.AperFunction*
G04 #@! TA.AperFunction,SMDPad,CuDef*
G36*
G01*
X177912500Y-75037500D02*
X177012500Y-75037500D01*
G75*
G02*
X176762500Y-74787500I0J250000D01*
G01*
X176762500Y-74087500D01*
G75*
G02*
X177012500Y-73837500I250000J0D01*
G01*
X177912500Y-73837500D01*
G75*
G02*
X178162500Y-74087500I0J-250000D01*
G01*
X178162500Y-74787500D01*
G75*
G02*
X177912500Y-75037500I-250000J0D01*
G01*
G37*
G04 #@! TD.AperFunction*
G04 #@! TA.AperFunction,SMDPad,CuDef*
G36*
G01*
X177912500Y-73037500D02*
X177012500Y-73037500D01*
G75*
G02*
X176762500Y-72787500I0J250000D01*
G01*
X176762500Y-72087500D01*
G75*
G02*
X177012500Y-71837500I250000J0D01*
G01*
X177912500Y-71837500D01*
G75*
G02*
X178162500Y-72087500I0J-250000D01*
G01*
X178162500Y-72787500D01*
G75*
G02*
X177912500Y-73037500I-250000J0D01*
G01*
G37*
G04 #@! TD.AperFunction*
G04 #@! TA.AperFunction,SMDPad,CuDef*
G36*
G01*
X188662500Y-87862500D02*
X188962500Y-87862500D01*
G75*
G02*
X189112500Y-88012500I0J-150000D01*
G01*
X189112500Y-89187500D01*
G75*
G02*
X188962500Y-89337500I-150000J0D01*
G01*
X188662500Y-89337500D01*
G75*
G02*
X188512500Y-89187500I0J150000D01*
G01*
X188512500Y-88012500D01*
G75*
G02*
X188662500Y-87862500I150000J0D01*
G01*
G37*
G04 #@! TD.AperFunction*
G04 #@! TA.AperFunction,SMDPad,CuDef*
G36*
G01*
X190562500Y-87862500D02*
X190862500Y-87862500D01*
G75*
G02*
X191012500Y-88012500I0J-150000D01*
G01*
X191012500Y-89187500D01*
G75*
G02*
X190862500Y-89337500I-150000J0D01*
G01*
X190562500Y-89337500D01*
G75*
G02*
X190412500Y-89187500I0J150000D01*
G01*
X190412500Y-88012500D01*
G75*
G02*
X190562500Y-87862500I150000J0D01*
G01*
G37*
G04 #@! TD.AperFunction*
G04 #@! TA.AperFunction,SMDPad,CuDef*
G36*
G01*
X189612500Y-89737500D02*
X189912500Y-89737500D01*
G75*
G02*
X190062500Y-89887500I0J-150000D01*
G01*
X190062500Y-91062500D01*
G75*
G02*
X189912500Y-91212500I-150000J0D01*
G01*
X189612500Y-91212500D01*
G75*
G02*
X189462500Y-91062500I0J150000D01*
G01*
X189462500Y-89887500D01*
G75*
G02*
X189612500Y-89737500I150000J0D01*
G01*
G37*
G04 #@! TD.AperFunction*
G04 #@! TA.AperFunction,SMDPad,CuDef*
G36*
G01*
X173687500Y-77087500D02*
X173687500Y-77987500D01*
G75*
G02*
X173437500Y-78237500I-250000J0D01*
G01*
X172912500Y-78237500D01*
G75*
G02*
X172662500Y-77987500I0J250000D01*
G01*
X172662500Y-77087500D01*
G75*
G02*
X172912500Y-76837500I250000J0D01*
G01*
X173437500Y-76837500D01*
G75*
G02*
X173687500Y-77087500I0J-250000D01*
G01*
G37*
G04 #@! TD.AperFunction*
G04 #@! TA.AperFunction,SMDPad,CuDef*
G36*
G01*
X171862500Y-77087500D02*
X171862500Y-77987500D01*
G75*
G02*
X171612500Y-78237500I-250000J0D01*
G01*
X171087500Y-78237500D01*
G75*
G02*
X170837500Y-77987500I0J250000D01*
G01*
X170837500Y-77087500D01*
G75*
G02*
X171087500Y-76837500I250000J0D01*
G01*
X171612500Y-76837500D01*
G75*
G02*
X171862500Y-77087500I0J-250000D01*
G01*
G37*
G04 #@! TD.AperFunction*
G04 #@! TA.AperFunction,SMDPad,CuDef*
G36*
G01*
X191187500Y-86087500D02*
X191187500Y-86987500D01*
G75*
G02*
X190937500Y-87237500I-250000J0D01*
G01*
X190412500Y-87237500D01*
G75*
G02*
X190162500Y-86987500I0J250000D01*
G01*
X190162500Y-86087500D01*
G75*
G02*
X190412500Y-85837500I250000J0D01*
G01*
X190937500Y-85837500D01*
G75*
G02*
X191187500Y-86087500I0J-250000D01*
G01*
G37*
G04 #@! TD.AperFunction*
G04 #@! TA.AperFunction,SMDPad,CuDef*
G36*
G01*
X189362500Y-86087500D02*
X189362500Y-86987500D01*
G75*
G02*
X189112500Y-87237500I-250000J0D01*
G01*
X188587500Y-87237500D01*
G75*
G02*
X188337500Y-86987500I0J250000D01*
G01*
X188337500Y-86087500D01*
G75*
G02*
X188587500Y-85837500I250000J0D01*
G01*
X189112500Y-85837500D01*
G75*
G02*
X189362500Y-86087500I0J-250000D01*
G01*
G37*
G04 #@! TD.AperFunction*
G04 #@! TA.AperFunction,SMDPad,CuDef*
G36*
G01*
X159237500Y-84912500D02*
X159237500Y-83962500D01*
G75*
G02*
X159487500Y-83712500I250000J0D01*
G01*
X160162500Y-83712500D01*
G75*
G02*
X160412500Y-83962500I0J-250000D01*
G01*
X160412500Y-84912500D01*
G75*
G02*
X160162500Y-85162500I-250000J0D01*
G01*
X159487500Y-85162500D01*
G75*
G02*
X159237500Y-84912500I0J250000D01*
G01*
G37*
G04 #@! TD.AperFunction*
G04 #@! TA.AperFunction,SMDPad,CuDef*
G36*
G01*
X161312500Y-84912500D02*
X161312500Y-83962500D01*
G75*
G02*
X161562500Y-83712500I250000J0D01*
G01*
X162237500Y-83712500D01*
G75*
G02*
X162487500Y-83962500I0J-250000D01*
G01*
X162487500Y-84912500D01*
G75*
G02*
X162237500Y-85162500I-250000J0D01*
G01*
X161562500Y-85162500D01*
G75*
G02*
X161312500Y-84912500I0J250000D01*
G01*
G37*
G04 #@! TD.AperFunction*
G04 #@! TA.AperFunction,SMDPad,CuDef*
G36*
G01*
X187687500Y-77087500D02*
X187687500Y-77987500D01*
G75*
G02*
X187437500Y-78237500I-250000J0D01*
G01*
X186912500Y-78237500D01*
G75*
G02*
X186662500Y-77987500I0J250000D01*
G01*
X186662500Y-77087500D01*
G75*
G02*
X186912500Y-76837500I250000J0D01*
G01*
X187437500Y-76837500D01*
G75*
G02*
X187687500Y-77087500I0J-250000D01*
G01*
G37*
G04 #@! TD.AperFunction*
G04 #@! TA.AperFunction,SMDPad,CuDef*
G36*
G01*
X185862500Y-77087500D02*
X185862500Y-77987500D01*
G75*
G02*
X185612500Y-78237500I-250000J0D01*
G01*
X185087500Y-78237500D01*
G75*
G02*
X184837500Y-77987500I0J250000D01*
G01*
X184837500Y-77087500D01*
G75*
G02*
X185087500Y-76837500I250000J0D01*
G01*
X185612500Y-76837500D01*
G75*
G02*
X185862500Y-77087500I0J-250000D01*
G01*
G37*
G04 #@! TD.AperFunction*
G04 #@! TA.AperFunction,SMDPad,CuDef*
G36*
G01*
X174662500Y-78862500D02*
X174962500Y-78862500D01*
G75*
G02*
X175112500Y-79012500I0J-150000D01*
G01*
X175112500Y-80187500D01*
G75*
G02*
X174962500Y-80337500I-150000J0D01*
G01*
X174662500Y-80337500D01*
G75*
G02*
X174512500Y-80187500I0J150000D01*
G01*
X174512500Y-79012500D01*
G75*
G02*
X174662500Y-78862500I150000J0D01*
G01*
G37*
G04 #@! TD.AperFunction*
G04 #@! TA.AperFunction,SMDPad,CuDef*
G36*
G01*
X176562500Y-78862500D02*
X176862500Y-78862500D01*
G75*
G02*
X177012500Y-79012500I0J-150000D01*
G01*
X177012500Y-80187500D01*
G75*
G02*
X176862500Y-80337500I-150000J0D01*
G01*
X176562500Y-80337500D01*
G75*
G02*
X176412500Y-80187500I0J150000D01*
G01*
X176412500Y-79012500D01*
G75*
G02*
X176562500Y-78862500I150000J0D01*
G01*
G37*
G04 #@! TD.AperFunction*
G04 #@! TA.AperFunction,SMDPad,CuDef*
G36*
G01*
X175612500Y-80737500D02*
X175912500Y-80737500D01*
G75*
G02*
X176062500Y-80887500I0J-150000D01*
G01*
X176062500Y-82062500D01*
G75*
G02*
X175912500Y-82212500I-150000J0D01*
G01*
X175612500Y-82212500D01*
G75*
G02*
X175462500Y-82062500I0J150000D01*
G01*
X175462500Y-80887500D01*
G75*
G02*
X175612500Y-80737500I150000J0D01*
G01*
G37*
G04 #@! TD.AperFunction*
G04 #@! TA.AperFunction,SMDPad,CuDef*
G36*
G01*
X191187500Y-77087500D02*
X191187500Y-77987500D01*
G75*
G02*
X190937500Y-78237500I-250000J0D01*
G01*
X190412500Y-78237500D01*
G75*
G02*
X190162500Y-77987500I0J250000D01*
G01*
X190162500Y-77087500D01*
G75*
G02*
X190412500Y-76837500I250000J0D01*
G01*
X190937500Y-76837500D01*
G75*
G02*
X191187500Y-77087500I0J-250000D01*
G01*
G37*
G04 #@! TD.AperFunction*
G04 #@! TA.AperFunction,SMDPad,CuDef*
G36*
G01*
X189362500Y-77087500D02*
X189362500Y-77987500D01*
G75*
G02*
X189112500Y-78237500I-250000J0D01*
G01*
X188587500Y-78237500D01*
G75*
G02*
X188337500Y-77987500I0J250000D01*
G01*
X188337500Y-77087500D01*
G75*
G02*
X188587500Y-76837500I250000J0D01*
G01*
X189112500Y-76837500D01*
G75*
G02*
X189362500Y-77087500I0J-250000D01*
G01*
G37*
G04 #@! TD.AperFunction*
G04 #@! TA.AperFunction,SMDPad,CuDef*
G36*
G01*
X188662500Y-78862500D02*
X188962500Y-78862500D01*
G75*
G02*
X189112500Y-79012500I0J-150000D01*
G01*
X189112500Y-80187500D01*
G75*
G02*
X188962500Y-80337500I-150000J0D01*
G01*
X188662500Y-80337500D01*
G75*
G02*
X188512500Y-80187500I0J150000D01*
G01*
X188512500Y-79012500D01*
G75*
G02*
X188662500Y-78862500I150000J0D01*
G01*
G37*
G04 #@! TD.AperFunction*
G04 #@! TA.AperFunction,SMDPad,CuDef*
G36*
G01*
X190562500Y-78862500D02*
X190862500Y-78862500D01*
G75*
G02*
X191012500Y-79012500I0J-150000D01*
G01*
X191012500Y-80187500D01*
G75*
G02*
X190862500Y-80337500I-150000J0D01*
G01*
X190562500Y-80337500D01*
G75*
G02*
X190412500Y-80187500I0J150000D01*
G01*
X190412500Y-79012500D01*
G75*
G02*
X190562500Y-78862500I150000J0D01*
G01*
G37*
G04 #@! TD.AperFunction*
G04 #@! TA.AperFunction,SMDPad,CuDef*
G36*
G01*
X189612500Y-80737500D02*
X189912500Y-80737500D01*
G75*
G02*
X190062500Y-80887500I0J-150000D01*
G01*
X190062500Y-82062500D01*
G75*
G02*
X189912500Y-82212500I-150000J0D01*
G01*
X189612500Y-82212500D01*
G75*
G02*
X189462500Y-82062500I0J150000D01*
G01*
X189462500Y-80887500D01*
G75*
G02*
X189612500Y-80737500I150000J0D01*
G01*
G37*
G04 #@! TD.AperFunction*
G04 #@! TA.AperFunction,SMDPad,CuDef*
G36*
G01*
X173687500Y-86087500D02*
X173687500Y-86987500D01*
G75*
G02*
X173437500Y-87237500I-250000J0D01*
G01*
X172912500Y-87237500D01*
G75*
G02*
X172662500Y-86987500I0J250000D01*
G01*
X172662500Y-86087500D01*
G75*
G02*
X172912500Y-85837500I250000J0D01*
G01*
X173437500Y-85837500D01*
G75*
G02*
X173687500Y-86087500I0J-250000D01*
G01*
G37*
G04 #@! TD.AperFunction*
G04 #@! TA.AperFunction,SMDPad,CuDef*
G36*
G01*
X171862500Y-86087500D02*
X171862500Y-86987500D01*
G75*
G02*
X171612500Y-87237500I-250000J0D01*
G01*
X171087500Y-87237500D01*
G75*
G02*
X170837500Y-86987500I0J250000D01*
G01*
X170837500Y-86087500D01*
G75*
G02*
X171087500Y-85837500I250000J0D01*
G01*
X171612500Y-85837500D01*
G75*
G02*
X171862500Y-86087500I0J-250000D01*
G01*
G37*
G04 #@! TD.AperFunction*
X143762500Y-97187500D03*
X143762500Y-93887500D03*
G04 #@! TA.AperFunction,SMDPad,CuDef*
G36*
G01*
X167662500Y-87862500D02*
X167962500Y-87862500D01*
G75*
G02*
X168112500Y-88012500I0J-150000D01*
G01*
X168112500Y-89187500D01*
G75*
G02*
X167962500Y-89337500I-150000J0D01*
G01*
X167662500Y-89337500D01*
G75*
G02*
X167512500Y-89187500I0J150000D01*
G01*
X167512500Y-88012500D01*
G75*
G02*
X167662500Y-87862500I150000J0D01*
G01*
G37*
G04 #@! TD.AperFunction*
G04 #@! TA.AperFunction,SMDPad,CuDef*
G36*
G01*
X169562500Y-87862500D02*
X169862500Y-87862500D01*
G75*
G02*
X170012500Y-88012500I0J-150000D01*
G01*
X170012500Y-89187500D01*
G75*
G02*
X169862500Y-89337500I-150000J0D01*
G01*
X169562500Y-89337500D01*
G75*
G02*
X169412500Y-89187500I0J150000D01*
G01*
X169412500Y-88012500D01*
G75*
G02*
X169562500Y-87862500I150000J0D01*
G01*
G37*
G04 #@! TD.AperFunction*
G04 #@! TA.AperFunction,SMDPad,CuDef*
G36*
G01*
X168612500Y-89737500D02*
X168912500Y-89737500D01*
G75*
G02*
X169062500Y-89887500I0J-150000D01*
G01*
X169062500Y-91062500D01*
G75*
G02*
X168912500Y-91212500I-150000J0D01*
G01*
X168612500Y-91212500D01*
G75*
G02*
X168462500Y-91062500I0J150000D01*
G01*
X168462500Y-89887500D01*
G75*
G02*
X168612500Y-89737500I150000J0D01*
G01*
G37*
G04 #@! TD.AperFunction*
G04 #@! TA.AperFunction,SMDPad,CuDef*
G36*
G01*
X192162500Y-78862500D02*
X192462500Y-78862500D01*
G75*
G02*
X192612500Y-79012500I0J-150000D01*
G01*
X192612500Y-80187500D01*
G75*
G02*
X192462500Y-80337500I-150000J0D01*
G01*
X192162500Y-80337500D01*
G75*
G02*
X192012500Y-80187500I0J150000D01*
G01*
X192012500Y-79012500D01*
G75*
G02*
X192162500Y-78862500I150000J0D01*
G01*
G37*
G04 #@! TD.AperFunction*
G04 #@! TA.AperFunction,SMDPad,CuDef*
G36*
G01*
X194062500Y-78862500D02*
X194362500Y-78862500D01*
G75*
G02*
X194512500Y-79012500I0J-150000D01*
G01*
X194512500Y-80187500D01*
G75*
G02*
X194362500Y-80337500I-150000J0D01*
G01*
X194062500Y-80337500D01*
G75*
G02*
X193912500Y-80187500I0J150000D01*
G01*
X193912500Y-79012500D01*
G75*
G02*
X194062500Y-78862500I150000J0D01*
G01*
G37*
G04 #@! TD.AperFunction*
G04 #@! TA.AperFunction,SMDPad,CuDef*
G36*
G01*
X193112500Y-80737500D02*
X193412500Y-80737500D01*
G75*
G02*
X193562500Y-80887500I0J-150000D01*
G01*
X193562500Y-82062500D01*
G75*
G02*
X193412500Y-82212500I-150000J0D01*
G01*
X193112500Y-82212500D01*
G75*
G02*
X192962500Y-82062500I0J150000D01*
G01*
X192962500Y-80887500D01*
G75*
G02*
X193112500Y-80737500I150000J0D01*
G01*
G37*
G04 #@! TD.AperFunction*
G04 #@! TA.AperFunction,SMDPad,CuDef*
G36*
G01*
X187312500Y-75037500D02*
X186412500Y-75037500D01*
G75*
G02*
X186162500Y-74787500I0J250000D01*
G01*
X186162500Y-74087500D01*
G75*
G02*
X186412500Y-73837500I250000J0D01*
G01*
X187312500Y-73837500D01*
G75*
G02*
X187562500Y-74087500I0J-250000D01*
G01*
X187562500Y-74787500D01*
G75*
G02*
X187312500Y-75037500I-250000J0D01*
G01*
G37*
G04 #@! TD.AperFunction*
G04 #@! TA.AperFunction,SMDPad,CuDef*
G36*
G01*
X187312500Y-73037500D02*
X186412500Y-73037500D01*
G75*
G02*
X186162500Y-72787500I0J250000D01*
G01*
X186162500Y-72087500D01*
G75*
G02*
X186412500Y-71837500I250000J0D01*
G01*
X187312500Y-71837500D01*
G75*
G02*
X187562500Y-72087500I0J-250000D01*
G01*
X187562500Y-72787500D01*
G75*
G02*
X187312500Y-73037500I-250000J0D01*
G01*
G37*
G04 #@! TD.AperFunction*
X129762500Y-84887500D03*
X129762500Y-88187500D03*
G04 #@! TA.AperFunction,SMDPad,CuDef*
G36*
G01*
X180687500Y-77087500D02*
X180687500Y-77987500D01*
G75*
G02*
X180437500Y-78237500I-250000J0D01*
G01*
X179912500Y-78237500D01*
G75*
G02*
X179662500Y-77987500I0J250000D01*
G01*
X179662500Y-77087500D01*
G75*
G02*
X179912500Y-76837500I250000J0D01*
G01*
X180437500Y-76837500D01*
G75*
G02*
X180687500Y-77087500I0J-250000D01*
G01*
G37*
G04 #@! TD.AperFunction*
G04 #@! TA.AperFunction,SMDPad,CuDef*
G36*
G01*
X178862500Y-77087500D02*
X178862500Y-77987500D01*
G75*
G02*
X178612500Y-78237500I-250000J0D01*
G01*
X178087500Y-78237500D01*
G75*
G02*
X177837500Y-77987500I0J250000D01*
G01*
X177837500Y-77087500D01*
G75*
G02*
X178087500Y-76837500I250000J0D01*
G01*
X178612500Y-76837500D01*
G75*
G02*
X178862500Y-77087500I0J-250000D01*
G01*
G37*
G04 #@! TD.AperFunction*
X129762500Y-97187500D03*
X129762500Y-93887500D03*
X178762500Y-97187500D03*
X178762500Y-93887500D03*
G04 #@! TA.AperFunction,SMDPad,CuDef*
G36*
G01*
X174662500Y-87862500D02*
X174962500Y-87862500D01*
G75*
G02*
X175112500Y-88012500I0J-150000D01*
G01*
X175112500Y-89187500D01*
G75*
G02*
X174962500Y-89337500I-150000J0D01*
G01*
X174662500Y-89337500D01*
G75*
G02*
X174512500Y-89187500I0J150000D01*
G01*
X174512500Y-88012500D01*
G75*
G02*
X174662500Y-87862500I150000J0D01*
G01*
G37*
G04 #@! TD.AperFunction*
G04 #@! TA.AperFunction,SMDPad,CuDef*
G36*
G01*
X176562500Y-87862500D02*
X176862500Y-87862500D01*
G75*
G02*
X177012500Y-88012500I0J-150000D01*
G01*
X177012500Y-89187500D01*
G75*
G02*
X176862500Y-89337500I-150000J0D01*
G01*
X176562500Y-89337500D01*
G75*
G02*
X176412500Y-89187500I0J150000D01*
G01*
X176412500Y-88012500D01*
G75*
G02*
X176562500Y-87862500I150000J0D01*
G01*
G37*
G04 #@! TD.AperFunction*
G04 #@! TA.AperFunction,SMDPad,CuDef*
G36*
G01*
X175612500Y-89737500D02*
X175912500Y-89737500D01*
G75*
G02*
X176062500Y-89887500I0J-150000D01*
G01*
X176062500Y-91062500D01*
G75*
G02*
X175912500Y-91212500I-150000J0D01*
G01*
X175612500Y-91212500D01*
G75*
G02*
X175462500Y-91062500I0J150000D01*
G01*
X175462500Y-89887500D01*
G75*
G02*
X175612500Y-89737500I150000J0D01*
G01*
G37*
G04 #@! TD.AperFunction*
G04 #@! TA.AperFunction,SMDPad,CuDef*
G36*
G01*
X171162500Y-87862500D02*
X171462500Y-87862500D01*
G75*
G02*
X171612500Y-88012500I0J-150000D01*
G01*
X171612500Y-89187500D01*
G75*
G02*
X171462500Y-89337500I-150000J0D01*
G01*
X171162500Y-89337500D01*
G75*
G02*
X171012500Y-89187500I0J150000D01*
G01*
X171012500Y-88012500D01*
G75*
G02*
X171162500Y-87862500I150000J0D01*
G01*
G37*
G04 #@! TD.AperFunction*
G04 #@! TA.AperFunction,SMDPad,CuDef*
G36*
G01*
X173062500Y-87862500D02*
X173362500Y-87862500D01*
G75*
G02*
X173512500Y-88012500I0J-150000D01*
G01*
X173512500Y-89187500D01*
G75*
G02*
X173362500Y-89337500I-150000J0D01*
G01*
X173062500Y-89337500D01*
G75*
G02*
X172912500Y-89187500I0J150000D01*
G01*
X172912500Y-88012500D01*
G75*
G02*
X173062500Y-87862500I150000J0D01*
G01*
G37*
G04 #@! TD.AperFunction*
G04 #@! TA.AperFunction,SMDPad,CuDef*
G36*
G01*
X172112500Y-89737500D02*
X172412500Y-89737500D01*
G75*
G02*
X172562500Y-89887500I0J-150000D01*
G01*
X172562500Y-91062500D01*
G75*
G02*
X172412500Y-91212500I-150000J0D01*
G01*
X172112500Y-91212500D01*
G75*
G02*
X171962500Y-91062500I0J150000D01*
G01*
X171962500Y-89887500D01*
G75*
G02*
X172112500Y-89737500I150000J0D01*
G01*
G37*
G04 #@! TD.AperFunction*
X185762500Y-97187500D03*
X185762500Y-93887500D03*
G04 #@! TA.AperFunction,SMDPad,CuDef*
G36*
G01*
X184187500Y-77087500D02*
X184187500Y-77987500D01*
G75*
G02*
X183937500Y-78237500I-250000J0D01*
G01*
X183412500Y-78237500D01*
G75*
G02*
X183162500Y-77987500I0J250000D01*
G01*
X183162500Y-77087500D01*
G75*
G02*
X183412500Y-76837500I250000J0D01*
G01*
X183937500Y-76837500D01*
G75*
G02*
X184187500Y-77087500I0J-250000D01*
G01*
G37*
G04 #@! TD.AperFunction*
G04 #@! TA.AperFunction,SMDPad,CuDef*
G36*
G01*
X182362500Y-77087500D02*
X182362500Y-77987500D01*
G75*
G02*
X182112500Y-78237500I-250000J0D01*
G01*
X181587500Y-78237500D01*
G75*
G02*
X181337500Y-77987500I0J250000D01*
G01*
X181337500Y-77087500D01*
G75*
G02*
X181587500Y-76837500I250000J0D01*
G01*
X182112500Y-76837500D01*
G75*
G02*
X182362500Y-77087500I0J-250000D01*
G01*
G37*
G04 #@! TD.AperFunction*
G04 #@! TA.AperFunction,SMDPad,CuDef*
G36*
G01*
X181662500Y-78862500D02*
X181962500Y-78862500D01*
G75*
G02*
X182112500Y-79012500I0J-150000D01*
G01*
X182112500Y-80187500D01*
G75*
G02*
X181962500Y-80337500I-150000J0D01*
G01*
X181662500Y-80337500D01*
G75*
G02*
X181512500Y-80187500I0J150000D01*
G01*
X181512500Y-79012500D01*
G75*
G02*
X181662500Y-78862500I150000J0D01*
G01*
G37*
G04 #@! TD.AperFunction*
G04 #@! TA.AperFunction,SMDPad,CuDef*
G36*
G01*
X183562500Y-78862500D02*
X183862500Y-78862500D01*
G75*
G02*
X184012500Y-79012500I0J-150000D01*
G01*
X184012500Y-80187500D01*
G75*
G02*
X183862500Y-80337500I-150000J0D01*
G01*
X183562500Y-80337500D01*
G75*
G02*
X183412500Y-80187500I0J150000D01*
G01*
X183412500Y-79012500D01*
G75*
G02*
X183562500Y-78862500I150000J0D01*
G01*
G37*
G04 #@! TD.AperFunction*
G04 #@! TA.AperFunction,SMDPad,CuDef*
G36*
G01*
X182612500Y-80737500D02*
X182912500Y-80737500D01*
G75*
G02*
X183062500Y-80887500I0J-150000D01*
G01*
X183062500Y-82062500D01*
G75*
G02*
X182912500Y-82212500I-150000J0D01*
G01*
X182612500Y-82212500D01*
G75*
G02*
X182462500Y-82062500I0J150000D01*
G01*
X182462500Y-80887500D01*
G75*
G02*
X182612500Y-80737500I150000J0D01*
G01*
G37*
G04 #@! TD.AperFunction*
G04 #@! TA.AperFunction,SMDPad,CuDef*
G36*
G01*
X178162500Y-87862500D02*
X178462500Y-87862500D01*
G75*
G02*
X178612500Y-88012500I0J-150000D01*
G01*
X178612500Y-89187500D01*
G75*
G02*
X178462500Y-89337500I-150000J0D01*
G01*
X178162500Y-89337500D01*
G75*
G02*
X178012500Y-89187500I0J150000D01*
G01*
X178012500Y-88012500D01*
G75*
G02*
X178162500Y-87862500I150000J0D01*
G01*
G37*
G04 #@! TD.AperFunction*
G04 #@! TA.AperFunction,SMDPad,CuDef*
G36*
G01*
X180062500Y-87862500D02*
X180362500Y-87862500D01*
G75*
G02*
X180512500Y-88012500I0J-150000D01*
G01*
X180512500Y-89187500D01*
G75*
G02*
X180362500Y-89337500I-150000J0D01*
G01*
X180062500Y-89337500D01*
G75*
G02*
X179912500Y-89187500I0J150000D01*
G01*
X179912500Y-88012500D01*
G75*
G02*
X180062500Y-87862500I150000J0D01*
G01*
G37*
G04 #@! TD.AperFunction*
G04 #@! TA.AperFunction,SMDPad,CuDef*
G36*
G01*
X179112500Y-89737500D02*
X179412500Y-89737500D01*
G75*
G02*
X179562500Y-89887500I0J-150000D01*
G01*
X179562500Y-91062500D01*
G75*
G02*
X179412500Y-91212500I-150000J0D01*
G01*
X179112500Y-91212500D01*
G75*
G02*
X178962500Y-91062500I0J150000D01*
G01*
X178962500Y-89887500D01*
G75*
G02*
X179112500Y-89737500I150000J0D01*
G01*
G37*
G04 #@! TD.AperFunction*
G04 #@! TA.AperFunction,SMDPad,CuDef*
G36*
G01*
X179662500Y-70487500D02*
X179662500Y-69587500D01*
G75*
G02*
X179912500Y-69337500I250000J0D01*
G01*
X180562500Y-69337500D01*
G75*
G02*
X180812500Y-69587500I0J-250000D01*
G01*
X180812500Y-70487500D01*
G75*
G02*
X180562500Y-70737500I-250000J0D01*
G01*
X179912500Y-70737500D01*
G75*
G02*
X179662500Y-70487500I0J250000D01*
G01*
G37*
G04 #@! TD.AperFunction*
G04 #@! TA.AperFunction,SMDPad,CuDef*
G36*
G01*
X181712500Y-70487500D02*
X181712500Y-69587500D01*
G75*
G02*
X181962500Y-69337500I250000J0D01*
G01*
X182612500Y-69337500D01*
G75*
G02*
X182862500Y-69587500I0J-250000D01*
G01*
X182862500Y-70487500D01*
G75*
G02*
X182612500Y-70737500I-250000J0D01*
G01*
X181962500Y-70737500D01*
G75*
G02*
X181712500Y-70487500I0J250000D01*
G01*
G37*
G04 #@! TD.AperFunction*
X171762500Y-97187500D03*
X171762500Y-93887500D03*
G04 #@! TA.AperFunction,SMDPad,CuDef*
G36*
G01*
X179937500Y-75062500D02*
X178987500Y-75062500D01*
G75*
G02*
X178737500Y-74812500I0J250000D01*
G01*
X178737500Y-74137500D01*
G75*
G02*
X178987500Y-73887500I250000J0D01*
G01*
X179937500Y-73887500D01*
G75*
G02*
X180187500Y-74137500I0J-250000D01*
G01*
X180187500Y-74812500D01*
G75*
G02*
X179937500Y-75062500I-250000J0D01*
G01*
G37*
G04 #@! TD.AperFunction*
G04 #@! TA.AperFunction,SMDPad,CuDef*
G36*
G01*
X179937500Y-72987500D02*
X178987500Y-72987500D01*
G75*
G02*
X178737500Y-72737500I0J250000D01*
G01*
X178737500Y-72062500D01*
G75*
G02*
X178987500Y-71812500I250000J0D01*
G01*
X179937500Y-71812500D01*
G75*
G02*
X180187500Y-72062500I0J-250000D01*
G01*
X180187500Y-72737500D01*
G75*
G02*
X179937500Y-72987500I-250000J0D01*
G01*
G37*
G04 #@! TD.AperFunction*
X150762500Y-84887500D03*
X150762500Y-88187500D03*
G04 #@! TA.AperFunction,SMDPad,CuDef*
G36*
G01*
X187687500Y-86087500D02*
X187687500Y-86987500D01*
G75*
G02*
X187437500Y-87237500I-250000J0D01*
G01*
X186912500Y-87237500D01*
G75*
G02*
X186662500Y-86987500I0J250000D01*
G01*
X186662500Y-86087500D01*
G75*
G02*
X186912500Y-85837500I250000J0D01*
G01*
X187437500Y-85837500D01*
G75*
G02*
X187687500Y-86087500I0J-250000D01*
G01*
G37*
G04 #@! TD.AperFunction*
G04 #@! TA.AperFunction,SMDPad,CuDef*
G36*
G01*
X185862500Y-86087500D02*
X185862500Y-86987500D01*
G75*
G02*
X185612500Y-87237500I-250000J0D01*
G01*
X185087500Y-87237500D01*
G75*
G02*
X184837500Y-86987500I0J250000D01*
G01*
X184837500Y-86087500D01*
G75*
G02*
X185087500Y-85837500I250000J0D01*
G01*
X185612500Y-85837500D01*
G75*
G02*
X185862500Y-86087500I0J-250000D01*
G01*
G37*
G04 #@! TD.AperFunction*
X164762500Y-97187500D03*
X164762500Y-93887500D03*
X192762500Y-97187500D03*
X192762500Y-93887500D03*
G04 #@! TA.AperFunction,SMDPad,CuDef*
G36*
G01*
X191637500Y-84512500D02*
X191637500Y-83562500D01*
G75*
G02*
X191887500Y-83312500I250000J0D01*
G01*
X192562500Y-83312500D01*
G75*
G02*
X192812500Y-83562500I0J-250000D01*
G01*
X192812500Y-84512500D01*
G75*
G02*
X192562500Y-84762500I-250000J0D01*
G01*
X191887500Y-84762500D01*
G75*
G02*
X191637500Y-84512500I0J250000D01*
G01*
G37*
G04 #@! TD.AperFunction*
G04 #@! TA.AperFunction,SMDPad,CuDef*
G36*
G01*
X193712500Y-84512500D02*
X193712500Y-83562500D01*
G75*
G02*
X193962500Y-83312500I250000J0D01*
G01*
X194637500Y-83312500D01*
G75*
G02*
X194887500Y-83562500I0J-250000D01*
G01*
X194887500Y-84512500D01*
G75*
G02*
X194637500Y-84762500I-250000J0D01*
G01*
X193962500Y-84762500D01*
G75*
G02*
X193712500Y-84512500I0J250000D01*
G01*
G37*
G04 #@! TD.AperFunction*
G04 #@! TA.AperFunction,SMDPad,CuDef*
G36*
G01*
X177187500Y-86087500D02*
X177187500Y-86987500D01*
G75*
G02*
X176937500Y-87237500I-250000J0D01*
G01*
X176412500Y-87237500D01*
G75*
G02*
X176162500Y-86987500I0J250000D01*
G01*
X176162500Y-86087500D01*
G75*
G02*
X176412500Y-85837500I250000J0D01*
G01*
X176937500Y-85837500D01*
G75*
G02*
X177187500Y-86087500I0J-250000D01*
G01*
G37*
G04 #@! TD.AperFunction*
G04 #@! TA.AperFunction,SMDPad,CuDef*
G36*
G01*
X175362500Y-86087500D02*
X175362500Y-86987500D01*
G75*
G02*
X175112500Y-87237500I-250000J0D01*
G01*
X174587500Y-87237500D01*
G75*
G02*
X174337500Y-86987500I0J250000D01*
G01*
X174337500Y-86087500D01*
G75*
G02*
X174587500Y-85837500I250000J0D01*
G01*
X175112500Y-85837500D01*
G75*
G02*
X175362500Y-86087500I0J-250000D01*
G01*
G37*
G04 #@! TD.AperFunction*
G04 #@! TA.AperFunction,SMDPad,CuDef*
G36*
G01*
X194687500Y-86087500D02*
X194687500Y-86987500D01*
G75*
G02*
X194437500Y-87237500I-250000J0D01*
G01*
X193912500Y-87237500D01*
G75*
G02*
X193662500Y-86987500I0J250000D01*
G01*
X193662500Y-86087500D01*
G75*
G02*
X193912500Y-85837500I250000J0D01*
G01*
X194437500Y-85837500D01*
G75*
G02*
X194687500Y-86087500I0J-250000D01*
G01*
G37*
G04 #@! TD.AperFunction*
G04 #@! TA.AperFunction,SMDPad,CuDef*
G36*
G01*
X192862500Y-86087500D02*
X192862500Y-86987500D01*
G75*
G02*
X192612500Y-87237500I-250000J0D01*
G01*
X192087500Y-87237500D01*
G75*
G02*
X191837500Y-86987500I0J250000D01*
G01*
X191837500Y-86087500D01*
G75*
G02*
X192087500Y-85837500I250000J0D01*
G01*
X192612500Y-85837500D01*
G75*
G02*
X192862500Y-86087500I0J-250000D01*
G01*
G37*
G04 #@! TD.AperFunction*
G04 #@! TA.AperFunction,SMDPad,CuDef*
G36*
G01*
X178162500Y-78862500D02*
X178462500Y-78862500D01*
G75*
G02*
X178612500Y-79012500I0J-150000D01*
G01*
X178612500Y-80187500D01*
G75*
G02*
X178462500Y-80337500I-150000J0D01*
G01*
X178162500Y-80337500D01*
G75*
G02*
X178012500Y-80187500I0J150000D01*
G01*
X178012500Y-79012500D01*
G75*
G02*
X178162500Y-78862500I150000J0D01*
G01*
G37*
G04 #@! TD.AperFunction*
G04 #@! TA.AperFunction,SMDPad,CuDef*
G36*
G01*
X180062500Y-78862500D02*
X180362500Y-78862500D01*
G75*
G02*
X180512500Y-79012500I0J-150000D01*
G01*
X180512500Y-80187500D01*
G75*
G02*
X180362500Y-80337500I-150000J0D01*
G01*
X180062500Y-80337500D01*
G75*
G02*
X179912500Y-80187500I0J150000D01*
G01*
X179912500Y-79012500D01*
G75*
G02*
X180062500Y-78862500I150000J0D01*
G01*
G37*
G04 #@! TD.AperFunction*
G04 #@! TA.AperFunction,SMDPad,CuDef*
G36*
G01*
X179112500Y-80737500D02*
X179412500Y-80737500D01*
G75*
G02*
X179562500Y-80887500I0J-150000D01*
G01*
X179562500Y-82062500D01*
G75*
G02*
X179412500Y-82212500I-150000J0D01*
G01*
X179112500Y-82212500D01*
G75*
G02*
X178962500Y-82062500I0J150000D01*
G01*
X178962500Y-80887500D01*
G75*
G02*
X179112500Y-80737500I150000J0D01*
G01*
G37*
G04 #@! TD.AperFunction*
G04 #@! TA.AperFunction,SMDPad,CuDef*
G36*
G01*
X184187500Y-86087500D02*
X184187500Y-86987500D01*
G75*
G02*
X183937500Y-87237500I-250000J0D01*
G01*
X183412500Y-87237500D01*
G75*
G02*
X183162500Y-86987500I0J250000D01*
G01*
X183162500Y-86087500D01*
G75*
G02*
X183412500Y-85837500I250000J0D01*
G01*
X183937500Y-85837500D01*
G75*
G02*
X184187500Y-86087500I0J-250000D01*
G01*
G37*
G04 #@! TD.AperFunction*
G04 #@! TA.AperFunction,SMDPad,CuDef*
G36*
G01*
X182362500Y-86087500D02*
X182362500Y-86987500D01*
G75*
G02*
X182112500Y-87237500I-250000J0D01*
G01*
X181587500Y-87237500D01*
G75*
G02*
X181337500Y-86987500I0J250000D01*
G01*
X181337500Y-86087500D01*
G75*
G02*
X181587500Y-85837500I250000J0D01*
G01*
X182112500Y-85837500D01*
G75*
G02*
X182362500Y-86087500I0J-250000D01*
G01*
G37*
G04 #@! TD.AperFunction*
X136762500Y-97187500D03*
X136762500Y-93887500D03*
D15*
X179262500Y-67237500D03*
X194862500Y-88637500D03*
X176862500Y-89637500D03*
X190062500Y-79637500D03*
X191062500Y-89637500D03*
X194262500Y-85037500D03*
X179262500Y-68037500D03*
X179462500Y-77037500D03*
X193462500Y-79637500D03*
X186262500Y-80037500D03*
X176062500Y-77037500D03*
X195062500Y-86637500D03*
X183062500Y-79637500D03*
X170062500Y-89637500D03*
X188262500Y-82037500D03*
X173462500Y-89637500D03*
X180062500Y-71237500D03*
X179262500Y-71237500D03*
X187462500Y-89637500D03*
X194262500Y-83037500D03*
X183862500Y-89837500D03*
X180462500Y-89637500D03*
X184562997Y-73267000D03*
X180862500Y-71237500D03*
X173262500Y-76637500D03*
X180562000Y-74938000D03*
X185554540Y-74111848D03*
X192262500Y-84437500D03*
X192262500Y-83637500D03*
X187862500Y-74637500D03*
X174662500Y-82037500D03*
X167812500Y-87487500D03*
X173262500Y-81437500D03*
X174812500Y-87487500D03*
X171312500Y-87587500D03*
X191963000Y-88600000D03*
X188462500Y-88927000D03*
X181417376Y-89282624D03*
X184862500Y-89287000D03*
X182020213Y-80515347D03*
X171633000Y-78437500D03*
X178862500Y-79637500D03*
X175462500Y-78208000D03*
X185023000Y-74837500D03*
X183793799Y-80968799D03*
X178312500Y-87587500D03*
D16*
X194212500Y-79600000D02*
X193500000Y-79600000D01*
X183712500Y-79600000D02*
X183712500Y-77575000D01*
X194212500Y-86575000D02*
X194175000Y-86537500D01*
D17*
X194862500Y-88637500D02*
X194250000Y-88637500D01*
D16*
X169712500Y-88600000D02*
X169712500Y-86575000D01*
X183100000Y-79600000D02*
X183062500Y-79637500D01*
D18*
X183612500Y-73437500D02*
X184392497Y-73437500D01*
D16*
X176562500Y-77537500D02*
X176062500Y-77037500D01*
X193500000Y-79600000D02*
X193462500Y-79637500D01*
D17*
X194250000Y-88637500D02*
X194212500Y-88600000D01*
X169712500Y-89287500D02*
X169712500Y-88600000D01*
D16*
X187175000Y-77537500D02*
X187175000Y-79562500D01*
D17*
X176862500Y-89637500D02*
X176712500Y-89487500D01*
D16*
X173212500Y-79600000D02*
X173212500Y-77575000D01*
X180212500Y-88600000D02*
X180212500Y-86575000D01*
X173212500Y-86575000D02*
X173175000Y-86537500D01*
D17*
X194275000Y-86637500D02*
X194175000Y-86537500D01*
D16*
X173212500Y-77575000D02*
X173175000Y-77537500D01*
X190712500Y-79600000D02*
X190712500Y-77575000D01*
X190712500Y-77575000D02*
X190675000Y-77537500D01*
D19*
X194262500Y-85037500D02*
X194262500Y-84075000D01*
D17*
X180462500Y-89637500D02*
X180212500Y-89387500D01*
D19*
X194262500Y-83037500D02*
X194262500Y-84000000D01*
D17*
X176712500Y-89487500D02*
X176712500Y-88600000D01*
D16*
X176712500Y-88600000D02*
X176712500Y-86575000D01*
D17*
X183862500Y-89837500D02*
X183712500Y-89687500D01*
D16*
X183712500Y-79600000D02*
X183100000Y-79600000D01*
X176712500Y-79600000D02*
X176712500Y-77575000D01*
D17*
X190712500Y-89287500D02*
X190712500Y-88600000D01*
D16*
X173175000Y-77537500D02*
X173175000Y-76725000D01*
D17*
X187212500Y-89387500D02*
X187212500Y-88600000D01*
D18*
X184392497Y-73437500D02*
X184562997Y-73267000D01*
D16*
X190712500Y-86575000D02*
X190675000Y-86537500D01*
X187212500Y-88600000D02*
X187212500Y-86575000D01*
X187212500Y-79600000D02*
X186700000Y-79600000D01*
X190712500Y-88600000D02*
X190712500Y-86575000D01*
X186700000Y-79600000D02*
X186262500Y-80037500D01*
D17*
X183712500Y-89687500D02*
X183712500Y-88650000D01*
D16*
X187175000Y-79562500D02*
X187212500Y-79600000D01*
X180212500Y-86575000D02*
X180175000Y-86537500D01*
X179962500Y-77537500D02*
X179462500Y-77037500D01*
X190712500Y-79600000D02*
X190100000Y-79600000D01*
X176712500Y-77575000D02*
X176675000Y-77537500D01*
D17*
X195062500Y-86637500D02*
X194275000Y-86637500D01*
D19*
X194262500Y-84075000D02*
X194300000Y-84037500D01*
D17*
X173212500Y-89387500D02*
X173212500Y-88600000D01*
D16*
X183712500Y-88650000D02*
X183712500Y-86575000D01*
X194212500Y-77575000D02*
X194175000Y-77537500D01*
X187212500Y-86575000D02*
X187175000Y-86537500D01*
X194212500Y-79600000D02*
X194212500Y-77575000D01*
X180212500Y-79600000D02*
X180212500Y-77575000D01*
D19*
X194262500Y-84000000D02*
X194300000Y-84037500D01*
D16*
X176675000Y-77537500D02*
X176562500Y-77537500D01*
X169712500Y-86575000D02*
X169675000Y-86537500D01*
X173212500Y-88600000D02*
X173212500Y-86575000D01*
D17*
X191062500Y-89637500D02*
X190712500Y-89287500D01*
D16*
X184533497Y-73237500D02*
X184562997Y-73267000D01*
X190100000Y-79600000D02*
X190062500Y-79637500D01*
X194212500Y-88600000D02*
X194212500Y-86575000D01*
D17*
X170062500Y-89637500D02*
X169712500Y-89287500D01*
D16*
X180212500Y-77575000D02*
X180175000Y-77537500D01*
X180175000Y-77537500D02*
X179962500Y-77537500D01*
X183800000Y-73237500D02*
X184533497Y-73237500D01*
D17*
X187462500Y-89637500D02*
X187212500Y-89387500D01*
X180212500Y-89387500D02*
X180212500Y-88600000D01*
D16*
X183712500Y-77575000D02*
X183675000Y-77537500D01*
X173175000Y-76725000D02*
X173262500Y-76637500D01*
X176712500Y-86575000D02*
X176675000Y-86537500D01*
D17*
X173462500Y-89637500D02*
X173212500Y-89387500D01*
D16*
X183712500Y-86575000D02*
X183675000Y-86537500D01*
D17*
X179750000Y-74187500D02*
X181525000Y-74187500D01*
X180562000Y-74938000D02*
X179925500Y-74938000D01*
X179462500Y-74475000D02*
X179750000Y-74187500D01*
X179925500Y-74938000D02*
X179462500Y-74475000D01*
D16*
X179425000Y-74437500D02*
X179462500Y-74475000D01*
X177462500Y-74437500D02*
X179425000Y-74437500D01*
X185554540Y-74111848D02*
X185554540Y-72729540D01*
X185554540Y-72729540D02*
X185112500Y-72287500D01*
X185112500Y-72287500D02*
X183800000Y-72287500D01*
D20*
X181262500Y-96952500D02*
X188262500Y-96952500D01*
X195262500Y-96952500D02*
X188262500Y-96952500D01*
D19*
X157762500Y-84887500D02*
X158212500Y-84437500D01*
D20*
X132262500Y-96952500D02*
X139262500Y-96952500D01*
X141222500Y-85127500D02*
X148222500Y-85127500D01*
D19*
X132027500Y-97187500D02*
X132262500Y-96952500D01*
D20*
X153262500Y-96952500D02*
X160262500Y-96952500D01*
D19*
X157762500Y-84887500D02*
X155462500Y-84887500D01*
X129762500Y-97187500D02*
X132027500Y-97187500D01*
D20*
X174262500Y-96952500D02*
X181262500Y-96952500D01*
D19*
X155462500Y-84887500D02*
X155222500Y-85127500D01*
D20*
X167262500Y-96952500D02*
X174262500Y-96952500D01*
D19*
X158212500Y-84437500D02*
X159825000Y-84437500D01*
D20*
X134222500Y-85127500D02*
X141222500Y-85127500D01*
X160262500Y-96952500D02*
X167262500Y-96952500D01*
X146262500Y-96952500D02*
X153262500Y-96952500D01*
X139262500Y-96952500D02*
X146262500Y-96952500D01*
D16*
X187062500Y-74637500D02*
X186862500Y-74437500D01*
D20*
X148222500Y-85127500D02*
X155222500Y-85127500D01*
D16*
X187862500Y-74637500D02*
X187062500Y-74637500D01*
D20*
X127222500Y-85127500D02*
X134222500Y-85127500D01*
D21*
X129762500Y-93887500D02*
X132612500Y-91037500D01*
D19*
X129762500Y-93887500D02*
X127707500Y-93887500D01*
D21*
X188712500Y-84987500D02*
X189762500Y-83937500D01*
X161555394Y-90537500D02*
X167105394Y-84987500D01*
D19*
X127707500Y-93887500D02*
X127182500Y-94412500D01*
D21*
X156262500Y-91037500D02*
X156762500Y-90537500D01*
X167105394Y-84987500D02*
X188712500Y-84987500D01*
X156762500Y-90537500D02*
X161555394Y-90537500D01*
X132612500Y-91037500D02*
X156262500Y-91037500D01*
X189762500Y-83937500D02*
X189762500Y-81475000D01*
X161762500Y-91037500D02*
X167312500Y-85487500D01*
X139112500Y-91537500D02*
X156762500Y-91537500D01*
D19*
X136762500Y-93887500D02*
X134707500Y-93887500D01*
D21*
X190737500Y-83962500D02*
X190737500Y-82562500D01*
X191825000Y-81475000D02*
X193262500Y-81475000D01*
X190737500Y-82562500D02*
X191825000Y-81475000D01*
D19*
X134707500Y-93887500D02*
X134182500Y-94412500D01*
D21*
X189212500Y-85487500D02*
X190737500Y-83962500D01*
X157262500Y-91037500D02*
X161762500Y-91037500D01*
X136762500Y-93887500D02*
X139112500Y-91537500D01*
X156762500Y-91537500D02*
X157262500Y-91037500D01*
X167312500Y-85487500D02*
X189212500Y-85487500D01*
D19*
X143762500Y-93887500D02*
X141707500Y-93887500D01*
X141707500Y-93887500D02*
X141182500Y-94412500D01*
D21*
X143762500Y-93887500D02*
X145612500Y-92037500D01*
X157762500Y-91537500D02*
X164991179Y-91537500D01*
X157262500Y-92037500D02*
X157762500Y-91537500D01*
X145612500Y-92037500D02*
X157262500Y-92037500D01*
X166053679Y-90475000D02*
X168762500Y-90475000D01*
X164991179Y-91537500D02*
X166053679Y-90475000D01*
D19*
X148707500Y-93887500D02*
X148182500Y-94412500D01*
D21*
X165673286Y-91562500D02*
X171675000Y-91562500D01*
X158262500Y-92037500D02*
X165198286Y-92037500D01*
D19*
X150762500Y-93887500D02*
X148707500Y-93887500D01*
D21*
X152112500Y-92537500D02*
X157762500Y-92537500D01*
X150762500Y-93887500D02*
X152112500Y-92537500D01*
X171675000Y-91562500D02*
X172262500Y-90975000D01*
X157762500Y-92537500D02*
X158262500Y-92037500D01*
X165198286Y-92037500D02*
X165673286Y-91562500D01*
D19*
X155707500Y-93887500D02*
X155182500Y-94412500D01*
D21*
X174675000Y-92062500D02*
X175762500Y-90975000D01*
X157762500Y-93887500D02*
X159112500Y-92537500D01*
X165880393Y-92062500D02*
X174675000Y-92062500D01*
D19*
X157762500Y-93887500D02*
X155707500Y-93887500D01*
D21*
X165405393Y-92537500D02*
X165880393Y-92062500D01*
X159112500Y-92537500D02*
X165405393Y-92537500D01*
X175230393Y-92362500D02*
X177875000Y-92362500D01*
X166087500Y-92562500D02*
X175030393Y-92562500D01*
D19*
X162707500Y-93887500D02*
X162182500Y-94412500D01*
D21*
X177875000Y-92362500D02*
X179262500Y-90975000D01*
D19*
X164762500Y-93887500D02*
X162707500Y-93887500D01*
D21*
X164762500Y-93887500D02*
X166087500Y-92562500D01*
X175030393Y-92562500D02*
X175230393Y-92362500D01*
X172112500Y-93537500D02*
X174762500Y-93537500D01*
D19*
X171762500Y-93887500D02*
X169707500Y-93887500D01*
D21*
X180925000Y-92862500D02*
X182762500Y-91025000D01*
X174762500Y-93537500D02*
X175437500Y-92862500D01*
D19*
X169707500Y-93887500D02*
X169182500Y-94412500D01*
D21*
X175437500Y-92862500D02*
X180925000Y-92862500D01*
X171762500Y-93887500D02*
X172112500Y-93537500D01*
D19*
X178762500Y-93887500D02*
X176707500Y-93887500D01*
D21*
X180912500Y-93887500D02*
X182262500Y-92537500D01*
X182262500Y-92537500D02*
X184700000Y-92537500D01*
D19*
X176707500Y-93887500D02*
X176182500Y-94412500D01*
D21*
X184700000Y-92537500D02*
X186262500Y-90975000D01*
X178762500Y-93887500D02*
X180912500Y-93887500D01*
X185762500Y-93887500D02*
X186912500Y-93887500D01*
D19*
X185762500Y-93887500D02*
X183707500Y-93887500D01*
D21*
X189762500Y-91037500D02*
X189762500Y-90975000D01*
X186912500Y-93887500D02*
X189762500Y-91037500D01*
D19*
X183707500Y-93887500D02*
X183182500Y-94412500D01*
X192762500Y-93887500D02*
X190707500Y-93887500D01*
D21*
X193262500Y-93387500D02*
X193262500Y-90975000D01*
X192762500Y-93887500D02*
X193262500Y-93387500D01*
D19*
X190707500Y-93887500D02*
X190182500Y-94412500D01*
D21*
X166484076Y-83487500D02*
X178312500Y-83487500D01*
X160302500Y-87667500D02*
X162304076Y-87667500D01*
X162304076Y-87667500D02*
X166484076Y-83487500D01*
D19*
X157762500Y-88187500D02*
X159782500Y-88187500D01*
D21*
X179262500Y-82537500D02*
X179262500Y-81475000D01*
D19*
X159782500Y-88187500D02*
X160302500Y-87667500D01*
D21*
X178312500Y-83487500D02*
X179262500Y-82537500D01*
X166069864Y-82487500D02*
X171250000Y-82487500D01*
X159533362Y-85537500D02*
X163019864Y-85537500D01*
D19*
X150762500Y-88187500D02*
X152782500Y-88187500D01*
D21*
X156762500Y-86537500D02*
X158533362Y-86537500D01*
X163019864Y-85537500D02*
X166069864Y-82487500D01*
X171250000Y-82487500D02*
X172262500Y-81475000D01*
X158533362Y-86537500D02*
X159533362Y-85537500D01*
X155632500Y-87667500D02*
X156762500Y-86537500D01*
X153302500Y-87667500D02*
X155632500Y-87667500D01*
D19*
X152782500Y-88187500D02*
X153302500Y-87667500D01*
D21*
X158740468Y-87037500D02*
X159740468Y-86037500D01*
X175762500Y-82537500D02*
X175762500Y-81475000D01*
X175312500Y-82987500D02*
X175762500Y-82537500D01*
X163226970Y-86037500D02*
X166276970Y-82987500D01*
X159740468Y-86037500D02*
X163226970Y-86037500D01*
X154662500Y-89537500D02*
X157162500Y-87037500D01*
X157162500Y-87037500D02*
X158740468Y-87037500D01*
X146302500Y-87667500D02*
X148172500Y-89537500D01*
D19*
X145782500Y-88187500D02*
X146302500Y-87667500D01*
D21*
X166276970Y-82987500D02*
X175312500Y-82987500D01*
X148172500Y-89537500D02*
X154662500Y-89537500D01*
D19*
X143762500Y-88187500D02*
X145782500Y-88187500D01*
D21*
X181312500Y-83987500D02*
X182762500Y-82537500D01*
D19*
X138782500Y-88187500D02*
X139302500Y-87667500D01*
D21*
X139302500Y-87667500D02*
X141672500Y-90037500D01*
X161141182Y-89537500D02*
X166691182Y-83987500D01*
X155762500Y-89537500D02*
X161141182Y-89537500D01*
X141672500Y-90037500D02*
X155262500Y-90037500D01*
X155262500Y-90037500D02*
X155762500Y-89537500D01*
X182762500Y-82537500D02*
X182762500Y-81475000D01*
D19*
X136762500Y-88187500D02*
X138782500Y-88187500D01*
D21*
X166691182Y-83987500D02*
X181312500Y-83987500D01*
X155762500Y-90537500D02*
X156262500Y-90037500D01*
X132302500Y-87667500D02*
X135172500Y-90537500D01*
D19*
X129762500Y-88187500D02*
X131782500Y-88187500D01*
D21*
X184262500Y-84487500D02*
X186262500Y-82487500D01*
X166898288Y-84487500D02*
X184262500Y-84487500D01*
X156262500Y-90037500D02*
X161348288Y-90037500D01*
X135172500Y-90537500D02*
X155762500Y-90537500D01*
X161348288Y-90037500D02*
X166898288Y-84487500D01*
D19*
X131782500Y-88187500D02*
X132302500Y-87667500D01*
D21*
X186262500Y-82487500D02*
X186262500Y-81475000D01*
D22*
X127182500Y-104572500D02*
X134182500Y-104572500D01*
D16*
X188812500Y-77575000D02*
X188850000Y-77537500D01*
X187577449Y-76237500D02*
X174662500Y-76237500D01*
D18*
X173967500Y-81342500D02*
X174662500Y-82037500D01*
X173967500Y-76932500D02*
X173967500Y-81342500D01*
D16*
X188812500Y-79600000D02*
X188812500Y-77575000D01*
X188850000Y-77510051D02*
X187577449Y-76237500D01*
X188850000Y-77537500D02*
X188850000Y-77510051D01*
D18*
X174662500Y-76237500D02*
X173967500Y-76932500D01*
D16*
X167812500Y-88600000D02*
X167812500Y-87487500D01*
X167812500Y-86575000D02*
X167850000Y-86537500D01*
X167812500Y-87487500D02*
X167812500Y-86575000D01*
D18*
X172381129Y-76387500D02*
X172381129Y-80156129D01*
D16*
X192312500Y-77575000D02*
X192350000Y-77537500D01*
D21*
X191277449Y-76437500D02*
X188625977Y-76437500D01*
X192350000Y-77537500D02*
X192350000Y-77510051D01*
X188625977Y-76437500D02*
X187825977Y-75637500D01*
X187825977Y-75637500D02*
X173131129Y-75637500D01*
D18*
X173262500Y-81037500D02*
X173262500Y-81437500D01*
D21*
X173131129Y-75637500D02*
X172381129Y-76387500D01*
D16*
X192312500Y-79600000D02*
X192312500Y-77575000D01*
D18*
X172381129Y-80156129D02*
X173262500Y-81037500D01*
D21*
X192350000Y-77510051D02*
X191277449Y-76437500D01*
D16*
X174812500Y-86575000D02*
X174850000Y-86537500D01*
X174812500Y-88600000D02*
X174812500Y-87487500D01*
X174812500Y-87487500D02*
X174812500Y-86575000D01*
X171312500Y-88600000D02*
X171312500Y-87587500D01*
X171312500Y-86575000D02*
X171350000Y-86537500D01*
X171312500Y-87587500D02*
X171312500Y-86575000D01*
X192312500Y-86575000D02*
X192350000Y-86537500D01*
X192312500Y-88600000D02*
X191963000Y-88600000D01*
X192312500Y-88600000D02*
X192312500Y-86575000D01*
D18*
X188485500Y-88927000D02*
X188812500Y-88600000D01*
X188462500Y-88927000D02*
X188485500Y-88927000D01*
D16*
X188812500Y-88600000D02*
X188812500Y-86575000D01*
X188812500Y-86575000D02*
X188850000Y-86537500D01*
X181812500Y-86575000D02*
X181850000Y-86537500D01*
D18*
X181417376Y-89282624D02*
X181417376Y-89045124D01*
D16*
X181812500Y-88650000D02*
X181812500Y-86575000D01*
D18*
X181417376Y-89045124D02*
X181812500Y-88650000D01*
X184862500Y-89050000D02*
X185312500Y-88600000D01*
D16*
X185312500Y-86575000D02*
X185350000Y-86537500D01*
D18*
X184862500Y-89287000D02*
X184862500Y-89050000D01*
D16*
X185312500Y-88600000D02*
X185312500Y-86575000D01*
D18*
X182020213Y-79807713D02*
X181812500Y-79600000D01*
X182020213Y-80515347D02*
X182020213Y-79807713D01*
D16*
X181812500Y-77575000D02*
X181850000Y-77537500D01*
X181812500Y-79600000D02*
X181812500Y-80307634D01*
X181812500Y-79600000D02*
X181812500Y-77575000D01*
X181812500Y-80307634D02*
X182020213Y-80515347D01*
X171350000Y-78154500D02*
X171350000Y-77537500D01*
X171350000Y-77537500D02*
X171350000Y-79562500D01*
X171633000Y-78437500D02*
X171350000Y-78154500D01*
X171350000Y-79562500D02*
X171312500Y-79600000D01*
D18*
X178350000Y-79637500D02*
X178312500Y-79600000D01*
D16*
X178825000Y-79600000D02*
X178862500Y-79637500D01*
X178312500Y-79600000D02*
X178312500Y-77575000D01*
D18*
X178862500Y-79637500D02*
X178350000Y-79637500D01*
D16*
X178312500Y-77575000D02*
X178350000Y-77537500D01*
X178312500Y-79600000D02*
X178825000Y-79600000D01*
X174812500Y-79600000D02*
X174812500Y-77575000D01*
X174850000Y-77595500D02*
X175462500Y-78208000D01*
D18*
X175462500Y-78208000D02*
X175462500Y-78150000D01*
D16*
X174812500Y-77575000D02*
X174850000Y-77537500D01*
D18*
X175462500Y-78150000D02*
X174850000Y-77537500D01*
D16*
X174850000Y-77537500D02*
X174850000Y-77595500D01*
D20*
X133022500Y-115297500D02*
X133022500Y-120260000D01*
X127182500Y-109652500D02*
X127377500Y-109652500D01*
X127377500Y-109652500D02*
X133022500Y-115297500D01*
X138102500Y-113572500D02*
X138102500Y-120260000D01*
X134182500Y-109652500D02*
X138102500Y-113572500D01*
X143182500Y-111652500D02*
X143182500Y-120260000D01*
X141182500Y-109652500D02*
X143182500Y-111652500D01*
X148182500Y-120180000D02*
X148262500Y-120260000D01*
X148182500Y-109652500D02*
X148182500Y-120180000D01*
X153342500Y-111492500D02*
X153342500Y-120260000D01*
X155182500Y-109652500D02*
X153342500Y-111492500D01*
X177102500Y-117572500D02*
X177102500Y-120260000D01*
X169182500Y-109652500D02*
X177102500Y-117572500D01*
X182182500Y-115652500D02*
X182182500Y-120260000D01*
X176182500Y-109652500D02*
X182182500Y-115652500D01*
X183182500Y-109652500D02*
X187262500Y-113732500D01*
X187262500Y-113732500D02*
X187262500Y-120260000D01*
X192342500Y-111812500D02*
X192342500Y-120260000D01*
X190182500Y-109652500D02*
X192342500Y-111812500D01*
X162262500Y-62055000D02*
X162502500Y-61815000D01*
X160302500Y-72427500D02*
X162262500Y-70467500D01*
X162262500Y-70467500D02*
X162262500Y-62055000D01*
X157262500Y-68467500D02*
X157262500Y-61975000D01*
X157262500Y-61975000D02*
X157422500Y-61815000D01*
X153302500Y-72427500D02*
X157262500Y-68467500D01*
X152262500Y-61895000D02*
X152342500Y-61815000D01*
X152262500Y-66467500D02*
X152262500Y-61895000D01*
X146302500Y-72427500D02*
X152262500Y-66467500D01*
X147262500Y-65527803D02*
X147262500Y-61815000D01*
X139302500Y-72427500D02*
X140362803Y-72427500D01*
X140362803Y-72427500D02*
X147262500Y-65527803D01*
D16*
X182662500Y-74837500D02*
X182662500Y-72837500D01*
X185023000Y-74877000D02*
X184862500Y-75037500D01*
X182662500Y-72837500D02*
X182112500Y-72287500D01*
X184862500Y-75037500D02*
X182862500Y-75037500D01*
X182112500Y-72287500D02*
X181525000Y-72287500D01*
X182862500Y-75037500D02*
X182662500Y-74837500D01*
X185023000Y-74837500D02*
X185023000Y-74877000D01*
D20*
X132302500Y-72427500D02*
X136502500Y-68227500D01*
X138762500Y-68227500D02*
X142182500Y-64807500D01*
X142182500Y-64807500D02*
X142182500Y-61815000D01*
X136502500Y-68227500D02*
X138762500Y-68227500D01*
D16*
X185312500Y-77575000D02*
X185350000Y-77537500D01*
X183793799Y-80968799D02*
X183943701Y-80968799D01*
X185312500Y-79600000D02*
X185312500Y-77575000D01*
X183943701Y-80968799D02*
X185312500Y-79600000D01*
D20*
X162182500Y-109652500D02*
X162182500Y-110420000D01*
X162182500Y-110420000D02*
X172022500Y-120260000D01*
D16*
X178312500Y-87587500D02*
X178312500Y-86575000D01*
X178312500Y-86575000D02*
X178350000Y-86537500D01*
X178312500Y-88600000D02*
X178312500Y-87587500D01*
X186862500Y-72437500D02*
X182287500Y-67862500D01*
X182287500Y-67862500D02*
X182287500Y-67637500D01*
D21*
X177462500Y-72437500D02*
X177462500Y-71188972D01*
X177462500Y-71188972D02*
X179813972Y-68837500D01*
X181462500Y-68837500D02*
X182287500Y-69662500D01*
X182287500Y-69662500D02*
X182287500Y-70037500D01*
X179813972Y-68837500D02*
X181462500Y-68837500D01*
G04 #@! TA.AperFunction,Conductor*
G36*
X183716836Y-65561954D02*
G01*
X183797618Y-65615930D01*
X195684070Y-77502382D01*
X195738046Y-77583164D01*
X195757000Y-77678452D01*
X195757000Y-94407716D01*
X195757438Y-94454547D01*
X195757446Y-94454975D01*
X195758116Y-94490793D01*
X195758311Y-94501245D01*
X195778101Y-94772146D01*
X195778529Y-94775493D01*
X195806467Y-94994026D01*
X195799749Y-95090948D01*
X195756453Y-95177922D01*
X195683169Y-95241707D01*
X195591053Y-95272592D01*
X195519456Y-95271364D01*
X195411124Y-95253721D01*
X195401894Y-95253600D01*
X195401892Y-95253600D01*
X195228201Y-95251327D01*
X195158396Y-95250413D01*
X195149241Y-95251659D01*
X195149240Y-95251659D01*
X194917107Y-95283250D01*
X194917101Y-95283251D01*
X194907955Y-95284496D01*
X194665303Y-95355223D01*
X194640345Y-95366729D01*
X194504990Y-95429128D01*
X194400744Y-95452000D01*
X191964660Y-95452000D01*
X191869372Y-95433046D01*
X191788590Y-95379070D01*
X191734614Y-95298288D01*
X191715660Y-95203000D01*
X191737631Y-95100731D01*
X191767362Y-95034731D01*
X191823781Y-94955635D01*
X191906173Y-94904151D01*
X191994391Y-94888000D01*
X192813300Y-94888000D01*
X192819567Y-94887363D01*
X192819576Y-94887363D01*
X192952165Y-94873895D01*
X192952166Y-94873895D01*
X192964716Y-94872620D01*
X193038833Y-94849393D01*
X193113295Y-94837999D01*
X193409876Y-94837999D01*
X193471080Y-94831351D01*
X193605324Y-94781026D01*
X193720046Y-94695046D01*
X193806026Y-94580324D01*
X193846908Y-94471269D01*
X193850872Y-94460696D01*
X193850872Y-94460695D01*
X193856351Y-94446080D01*
X193863000Y-94384877D01*
X193862999Y-93694088D01*
X193875287Y-93629674D01*
X193872128Y-93628863D01*
X193874960Y-93617834D01*
X193883925Y-93591650D01*
X193885914Y-93584805D01*
X193892136Y-93570426D01*
X193894587Y-93554953D01*
X193894588Y-93554949D01*
X193898355Y-93531163D01*
X193903112Y-93508191D01*
X193909104Y-93484853D01*
X193909104Y-93484850D01*
X193913000Y-93469677D01*
X193913000Y-93454010D01*
X193913893Y-93446940D01*
X193915172Y-93430685D01*
X193915396Y-93423571D01*
X193917847Y-93408095D01*
X193914105Y-93368511D01*
X193913000Y-93345077D01*
X193913000Y-91562212D01*
X193931954Y-91466924D01*
X193947675Y-91435461D01*
X194006271Y-91336381D01*
X194006273Y-91336376D01*
X194014244Y-91322898D01*
X194060098Y-91165069D01*
X194063000Y-91128194D01*
X194063000Y-89821806D01*
X194060098Y-89784931D01*
X194037045Y-89705581D01*
X194026013Y-89667612D01*
X194014244Y-89627102D01*
X193998476Y-89600440D01*
X193938555Y-89499118D01*
X193938554Y-89499117D01*
X193930581Y-89485635D01*
X193814365Y-89369419D01*
X193770926Y-89343729D01*
X193686380Y-89293729D01*
X193686379Y-89293728D01*
X193672898Y-89285756D01*
X193592583Y-89262422D01*
X193527289Y-89243452D01*
X193527286Y-89243452D01*
X193515069Y-89239902D01*
X193502384Y-89238904D01*
X193502380Y-89238903D01*
X193488754Y-89237831D01*
X193478194Y-89237000D01*
X193362000Y-89237000D01*
X193266712Y-89218046D01*
X193185930Y-89164070D01*
X193131954Y-89083288D01*
X193113000Y-88988000D01*
X193113000Y-87946806D01*
X193110098Y-87909931D01*
X193106278Y-87896780D01*
X193072887Y-87781851D01*
X193063000Y-87712382D01*
X193063000Y-87701556D01*
X193081954Y-87606268D01*
X193135777Y-87525640D01*
X193195263Y-87466050D01*
X193195264Y-87466049D01*
X193205484Y-87455811D01*
X193224685Y-87424662D01*
X193289720Y-87319154D01*
X193289720Y-87319153D01*
X193297314Y-87306834D01*
X193325067Y-87223164D01*
X193348129Y-87153636D01*
X193348130Y-87153632D01*
X193352410Y-87140728D01*
X193363000Y-87037366D01*
X193363000Y-86037634D01*
X193352141Y-85932981D01*
X193334193Y-85879182D01*
X193301333Y-85780690D01*
X193296756Y-85766971D01*
X193282266Y-85743554D01*
X193212276Y-85630453D01*
X193204666Y-85618155D01*
X193139050Y-85552653D01*
X193091050Y-85504737D01*
X193091049Y-85504736D01*
X193080811Y-85494516D01*
X193068495Y-85486924D01*
X193057144Y-85477960D01*
X193059147Y-85475424D01*
X193006322Y-85426338D01*
X192965877Y-85338002D01*
X192962315Y-85240912D01*
X192996178Y-85149850D01*
X193031924Y-85104587D01*
X193145263Y-84991050D01*
X193145264Y-84991049D01*
X193155484Y-84980811D01*
X193213310Y-84887000D01*
X193239720Y-84844154D01*
X193239720Y-84844153D01*
X193247314Y-84831834D01*
X193302410Y-84665728D01*
X193313000Y-84562366D01*
X193313000Y-83512634D01*
X193308560Y-83469836D01*
X193303547Y-83421529D01*
X193303547Y-83421527D01*
X193302141Y-83407981D01*
X193293854Y-83383140D01*
X193251333Y-83255690D01*
X193246756Y-83241971D01*
X193234930Y-83222859D01*
X193154666Y-83093155D01*
X193157999Y-83091092D01*
X193126682Y-83029696D01*
X193119016Y-82932844D01*
X193148997Y-82840431D01*
X193212061Y-82766525D01*
X193298607Y-82722379D01*
X193366303Y-82713000D01*
X193478194Y-82713000D01*
X193488754Y-82712169D01*
X193502380Y-82711097D01*
X193502384Y-82711096D01*
X193515069Y-82710098D01*
X193527286Y-82706548D01*
X193527289Y-82706548D01*
X193614663Y-82681163D01*
X193672898Y-82664244D01*
X193722596Y-82634853D01*
X193800882Y-82588555D01*
X193800883Y-82588554D01*
X193814365Y-82580581D01*
X193930581Y-82464365D01*
X193949346Y-82432636D01*
X194006271Y-82336380D01*
X194006273Y-82336376D01*
X194014244Y-82322898D01*
X194045504Y-82215303D01*
X194056548Y-82177289D01*
X194056548Y-82177286D01*
X194060098Y-82165069D01*
X194061096Y-82152384D01*
X194061097Y-82152380D01*
X194062615Y-82133084D01*
X194063000Y-82128194D01*
X194063000Y-80821806D01*
X194060098Y-80784931D01*
X194037045Y-80705581D01*
X194018614Y-80642144D01*
X194014244Y-80627102D01*
X193998476Y-80600440D01*
X193938555Y-80499118D01*
X193938554Y-80499117D01*
X193930581Y-80485635D01*
X193814365Y-80369419D01*
X193672898Y-80285756D01*
X193612129Y-80268101D01*
X193527289Y-80243452D01*
X193527286Y-80243452D01*
X193515069Y-80239902D01*
X193502384Y-80238904D01*
X193502380Y-80238903D01*
X193487419Y-80237726D01*
X193478194Y-80237000D01*
X193362000Y-80237000D01*
X193266712Y-80218046D01*
X193185930Y-80164070D01*
X193131954Y-80083288D01*
X193113000Y-79988000D01*
X193113000Y-78946806D01*
X193110098Y-78909931D01*
X193090806Y-78843526D01*
X193072887Y-78781851D01*
X193063000Y-78712382D01*
X193063000Y-78701556D01*
X193081954Y-78606268D01*
X193135777Y-78525640D01*
X193195263Y-78466050D01*
X193195264Y-78466049D01*
X193205484Y-78455811D01*
X193240987Y-78398215D01*
X193289720Y-78319154D01*
X193289720Y-78319153D01*
X193297314Y-78306834D01*
X193325792Y-78220977D01*
X193348129Y-78153636D01*
X193348130Y-78153632D01*
X193352410Y-78140728D01*
X193363000Y-78037366D01*
X193363000Y-77037634D01*
X193352141Y-76932981D01*
X193296756Y-76766971D01*
X193204666Y-76618155D01*
X193080811Y-76494516D01*
X193068497Y-76486926D01*
X193068495Y-76486924D01*
X192944154Y-76410280D01*
X192944153Y-76410280D01*
X192931834Y-76402686D01*
X192850431Y-76375685D01*
X192778636Y-76351871D01*
X192778632Y-76351870D01*
X192765728Y-76347590D01*
X192748866Y-76345862D01*
X192668685Y-76337647D01*
X192668677Y-76337647D01*
X192662366Y-76337000D01*
X192200035Y-76337000D01*
X192104747Y-76318046D01*
X192023965Y-76264070D01*
X191791504Y-76031609D01*
X191787516Y-76027226D01*
X191782651Y-76019560D01*
X191733076Y-75973006D01*
X191727459Y-75967564D01*
X191708484Y-75948589D01*
X191702299Y-75943791D01*
X191699776Y-75941567D01*
X191693987Y-75936299D01*
X191674262Y-75917776D01*
X191662842Y-75907052D01*
X191649115Y-75899506D01*
X191643354Y-75895320D01*
X191629726Y-75886368D01*
X191623592Y-75882741D01*
X191611213Y-75873138D01*
X191574730Y-75857351D01*
X191553668Y-75847032D01*
X191532545Y-75835420D01*
X191532544Y-75835420D01*
X191518817Y-75827873D01*
X191503649Y-75823979D01*
X191497020Y-75821354D01*
X191481602Y-75816076D01*
X191474747Y-75814084D01*
X191460375Y-75807865D01*
X191444910Y-75805415D01*
X191444905Y-75805414D01*
X191421112Y-75801646D01*
X191398141Y-75796889D01*
X191374797Y-75790895D01*
X191374795Y-75790895D01*
X191359626Y-75787000D01*
X191343962Y-75787000D01*
X191336892Y-75786107D01*
X191320644Y-75784828D01*
X191313518Y-75784604D01*
X191298044Y-75782153D01*
X191282451Y-75783627D01*
X191282449Y-75783627D01*
X191258460Y-75785895D01*
X191235026Y-75787000D01*
X188998563Y-75787000D01*
X188903275Y-75768046D01*
X188822493Y-75714070D01*
X188575089Y-75466666D01*
X188521113Y-75385884D01*
X188502159Y-75290596D01*
X188521113Y-75195308D01*
X188548104Y-75147112D01*
X188554359Y-75140165D01*
X188643750Y-74985335D01*
X188698997Y-74815303D01*
X188717685Y-74637500D01*
X188698997Y-74459697D01*
X188643750Y-74289665D01*
X188554359Y-74134835D01*
X188545629Y-74125139D01*
X188545625Y-74125134D01*
X188443456Y-74011665D01*
X188443455Y-74011664D01*
X188434730Y-74001974D01*
X188290093Y-73896888D01*
X188126767Y-73824171D01*
X188114003Y-73821458D01*
X188101591Y-73817425D01*
X188102447Y-73814791D01*
X188032583Y-73784780D01*
X187961867Y-73710591D01*
X187912276Y-73630453D01*
X187904666Y-73618155D01*
X187894430Y-73607937D01*
X187885443Y-73596598D01*
X187887590Y-73594896D01*
X187846081Y-73532892D01*
X187827043Y-73437621D01*
X187845913Y-73342316D01*
X187888201Y-73278907D01*
X187886297Y-73277403D01*
X187895264Y-73266049D01*
X187905484Y-73255811D01*
X187997314Y-73106834D01*
X188028839Y-73011791D01*
X188048129Y-72953636D01*
X188048130Y-72953632D01*
X188052410Y-72940728D01*
X188058410Y-72882165D01*
X188062353Y-72843685D01*
X188062353Y-72843677D01*
X188063000Y-72837366D01*
X188063000Y-72037634D01*
X188052141Y-71932981D01*
X188033499Y-71877102D01*
X188001333Y-71780690D01*
X187996756Y-71766971D01*
X187985709Y-71749118D01*
X187929860Y-71658868D01*
X187904666Y-71618155D01*
X187780811Y-71494516D01*
X187768497Y-71486926D01*
X187768495Y-71486924D01*
X187644154Y-71410280D01*
X187644153Y-71410280D01*
X187631834Y-71402686D01*
X187512787Y-71363199D01*
X187478636Y-71351871D01*
X187478632Y-71351870D01*
X187465728Y-71347590D01*
X187448866Y-71345862D01*
X187368685Y-71337647D01*
X187368677Y-71337647D01*
X187362366Y-71337000D01*
X186926507Y-71337000D01*
X186831219Y-71318046D01*
X186750437Y-71264070D01*
X183435930Y-67949563D01*
X183381954Y-67868781D01*
X183363000Y-67773493D01*
X183363000Y-67137634D01*
X183352141Y-67032981D01*
X183331824Y-66972081D01*
X183301333Y-66880690D01*
X183296756Y-66866971D01*
X183204666Y-66718155D01*
X183080811Y-66594516D01*
X183068497Y-66586926D01*
X183068495Y-66586924D01*
X182944154Y-66510280D01*
X182944153Y-66510280D01*
X182931834Y-66502686D01*
X182850431Y-66475685D01*
X182778636Y-66451871D01*
X182778632Y-66451870D01*
X182765728Y-66447590D01*
X182748866Y-66445862D01*
X182668685Y-66437647D01*
X182668677Y-66437647D01*
X182662366Y-66437000D01*
X181912634Y-66437000D01*
X181906238Y-66437664D01*
X181906231Y-66437664D01*
X181821529Y-66446453D01*
X181821527Y-66446453D01*
X181807981Y-66447859D01*
X181795068Y-66452167D01*
X181795064Y-66452168D01*
X181657300Y-66498130D01*
X181641971Y-66503244D01*
X181629674Y-66510854D01*
X181629671Y-66510855D01*
X181545919Y-66562683D01*
X181493155Y-66595334D01*
X181369516Y-66719189D01*
X181277686Y-66868166D01*
X181273131Y-66881900D01*
X181267614Y-66893730D01*
X181210166Y-66972081D01*
X181127108Y-67022483D01*
X181041943Y-67037500D01*
X180862500Y-67037500D01*
X180862500Y-67938000D01*
X180843546Y-68033288D01*
X180789570Y-68114070D01*
X180708788Y-68168046D01*
X180613500Y-68187000D01*
X179890465Y-68187000D01*
X179884536Y-68186720D01*
X179875676Y-68184740D01*
X179838920Y-68185895D01*
X179807669Y-68186877D01*
X179799848Y-68187000D01*
X179773047Y-68187000D01*
X179765301Y-68187978D01*
X179761917Y-68188191D01*
X179754118Y-68188559D01*
X179737395Y-68189085D01*
X179711403Y-68189902D01*
X179696355Y-68194274D01*
X179689326Y-68195387D01*
X179673351Y-68198695D01*
X179666456Y-68200465D01*
X179650914Y-68202429D01*
X179613961Y-68217060D01*
X179591760Y-68224661D01*
X179568621Y-68231383D01*
X179568617Y-68231385D01*
X179553574Y-68235755D01*
X179540092Y-68243728D01*
X179533553Y-68246558D01*
X179518916Y-68253729D01*
X179512663Y-68257166D01*
X179498101Y-68262932D01*
X179465930Y-68286305D01*
X179446338Y-68299174D01*
X179425590Y-68311444D01*
X179425585Y-68311448D01*
X179412107Y-68319419D01*
X179401036Y-68330490D01*
X179395414Y-68334851D01*
X179383024Y-68345433D01*
X179377815Y-68350325D01*
X179365135Y-68359537D01*
X179355148Y-68371609D01*
X179355145Y-68371612D01*
X179339799Y-68390163D01*
X179324011Y-68407515D01*
X177056609Y-70674917D01*
X177052226Y-70678905D01*
X177044560Y-70683770D01*
X177033835Y-70695191D01*
X176998007Y-70733344D01*
X176992564Y-70738962D01*
X176973589Y-70757937D01*
X176968791Y-70764122D01*
X176966567Y-70766645D01*
X176961305Y-70772428D01*
X176932052Y-70803579D01*
X176924506Y-70817306D01*
X176920320Y-70823067D01*
X176911368Y-70836695D01*
X176907741Y-70842829D01*
X176898138Y-70855208D01*
X176888522Y-70877430D01*
X176882353Y-70891686D01*
X176872032Y-70912753D01*
X176860420Y-70933876D01*
X176852873Y-70947604D01*
X176848979Y-70962772D01*
X176846354Y-70969401D01*
X176841076Y-70984819D01*
X176839084Y-70991674D01*
X176832865Y-71006046D01*
X176830415Y-71021511D01*
X176830414Y-71021516D01*
X176826646Y-71045309D01*
X176821889Y-71068280D01*
X176818966Y-71079666D01*
X176812000Y-71106795D01*
X176812000Y-71122459D01*
X176811107Y-71129529D01*
X176809828Y-71145777D01*
X176809604Y-71152903D01*
X176807153Y-71168377D01*
X176808627Y-71183973D01*
X176808135Y-71199634D01*
X176804100Y-71199507D01*
X176797318Y-71265718D01*
X176751186Y-71351222D01*
X176690353Y-71404245D01*
X176543155Y-71495334D01*
X176419516Y-71619189D01*
X176411926Y-71631503D01*
X176411924Y-71631505D01*
X176368284Y-71702303D01*
X176327686Y-71768166D01*
X176323130Y-71781903D01*
X176277303Y-71920064D01*
X176272590Y-71934272D01*
X176271204Y-71947800D01*
X176263219Y-72025739D01*
X176262000Y-72037634D01*
X176262000Y-72837366D01*
X176262664Y-72843762D01*
X176262664Y-72843769D01*
X176266648Y-72882165D01*
X176272859Y-72942019D01*
X176277167Y-72954932D01*
X176277168Y-72954936D01*
X176314794Y-73067714D01*
X176328244Y-73108029D01*
X176335854Y-73120326D01*
X176335855Y-73120329D01*
X176367708Y-73171803D01*
X176420334Y-73256845D01*
X176430570Y-73267063D01*
X176439557Y-73278402D01*
X176437410Y-73280104D01*
X176478919Y-73342108D01*
X176497957Y-73437379D01*
X176479087Y-73532684D01*
X176436799Y-73596093D01*
X176438703Y-73597597D01*
X176429736Y-73608951D01*
X176419516Y-73619189D01*
X176327686Y-73768166D01*
X176272590Y-73934272D01*
X176271204Y-73947800D01*
X176264661Y-74011665D01*
X176262000Y-74037634D01*
X176262000Y-74738000D01*
X176243046Y-74833288D01*
X176189070Y-74914070D01*
X176108288Y-74968046D01*
X176013000Y-74987000D01*
X173207620Y-74987000D01*
X173201692Y-74986720D01*
X173192832Y-74984740D01*
X173177176Y-74985232D01*
X173124839Y-74986877D01*
X173117017Y-74987000D01*
X173090204Y-74987000D01*
X173082439Y-74987981D01*
X173079081Y-74988192D01*
X173071274Y-74988560D01*
X173059275Y-74988937D01*
X173028560Y-74989903D01*
X173013515Y-74994274D01*
X173006457Y-74995392D01*
X172990515Y-74998694D01*
X172983614Y-75000466D01*
X172968071Y-75002429D01*
X172953506Y-75008196D01*
X172953505Y-75008196D01*
X172942863Y-75012410D01*
X172931102Y-75017066D01*
X172908919Y-75024662D01*
X172870730Y-75035756D01*
X172857241Y-75043733D01*
X172850702Y-75046563D01*
X172836080Y-75053725D01*
X172829820Y-75057166D01*
X172815258Y-75062932D01*
X172802586Y-75072139D01*
X172802580Y-75072142D01*
X172783089Y-75086303D01*
X172763490Y-75099178D01*
X172729264Y-75119419D01*
X172718190Y-75130493D01*
X172712577Y-75134847D01*
X172700181Y-75145433D01*
X172694972Y-75150325D01*
X172682292Y-75159537D01*
X172672305Y-75171609D01*
X172672302Y-75171612D01*
X172656956Y-75190163D01*
X172641168Y-75207515D01*
X171892218Y-75956465D01*
X171816767Y-76053736D01*
X171810547Y-76068109D01*
X171810545Y-76068113D01*
X171759147Y-76186889D01*
X171703909Y-76266813D01*
X171622290Y-76319514D01*
X171530626Y-76337000D01*
X171037634Y-76337000D01*
X171031238Y-76337664D01*
X171031231Y-76337664D01*
X170946529Y-76346453D01*
X170946527Y-76346453D01*
X170932981Y-76347859D01*
X170920068Y-76352167D01*
X170920064Y-76352168D01*
X170782300Y-76398130D01*
X170766971Y-76403244D01*
X170754674Y-76410854D01*
X170754671Y-76410855D01*
X170670919Y-76462683D01*
X170618155Y-76495334D01*
X170494516Y-76619189D01*
X170486926Y-76631503D01*
X170486924Y-76631505D01*
X170428094Y-76726946D01*
X170402686Y-76768166D01*
X170398130Y-76781903D01*
X170352303Y-76920064D01*
X170347590Y-76934272D01*
X170337000Y-77037634D01*
X170337000Y-78037366D01*
X170347859Y-78142019D01*
X170403244Y-78308029D01*
X170495334Y-78456845D01*
X170505569Y-78467062D01*
X170511865Y-78473347D01*
X170565912Y-78554081D01*
X170584950Y-78649352D01*
X170565309Y-78744403D01*
X170560756Y-78752102D01*
X170514902Y-78909931D01*
X170512000Y-78946806D01*
X170512000Y-80253194D01*
X170514902Y-80290069D01*
X170518452Y-80302286D01*
X170518452Y-80302289D01*
X170541173Y-80380494D01*
X170560756Y-80447898D01*
X170568728Y-80461379D01*
X170568729Y-80461380D01*
X170621970Y-80551405D01*
X170644419Y-80589365D01*
X170760635Y-80705581D01*
X170774117Y-80713554D01*
X170774118Y-80713555D01*
X170853720Y-80760631D01*
X170902102Y-80789244D01*
X170930932Y-80797620D01*
X171047711Y-80831548D01*
X171047714Y-80831548D01*
X171059931Y-80835098D01*
X171072616Y-80836096D01*
X171072620Y-80836097D01*
X171086246Y-80837169D01*
X171096806Y-80838000D01*
X171213000Y-80838000D01*
X171308288Y-80856954D01*
X171389070Y-80910930D01*
X171443046Y-80991712D01*
X171462000Y-81087000D01*
X171462000Y-81252414D01*
X171443046Y-81347702D01*
X171389070Y-81428484D01*
X171053484Y-81764070D01*
X170972702Y-81818046D01*
X170877414Y-81837000D01*
X166146355Y-81837000D01*
X166140427Y-81836720D01*
X166131567Y-81834740D01*
X166115911Y-81835232D01*
X166063574Y-81836877D01*
X166055752Y-81837000D01*
X166028939Y-81837000D01*
X166021174Y-81837981D01*
X166017815Y-81838192D01*
X166010008Y-81838560D01*
X165991001Y-81839158D01*
X165967294Y-81839903D01*
X165952253Y-81844273D01*
X165945206Y-81845389D01*
X165929257Y-81848692D01*
X165922349Y-81850466D01*
X165906806Y-81852429D01*
X165869844Y-81867063D01*
X165847661Y-81874658D01*
X165824508Y-81881385D01*
X165824505Y-81881386D01*
X165809465Y-81885756D01*
X165795983Y-81893729D01*
X165789444Y-81896559D01*
X165774815Y-81903725D01*
X165768555Y-81907166D01*
X165753993Y-81912932D01*
X165741321Y-81922139D01*
X165741315Y-81922142D01*
X165721824Y-81936303D01*
X165702225Y-81949178D01*
X165667999Y-81969419D01*
X165656925Y-81980493D01*
X165651312Y-81984847D01*
X165638916Y-81995433D01*
X165633707Y-82000325D01*
X165621027Y-82009537D01*
X165611040Y-82021609D01*
X165611037Y-82021612D01*
X165595691Y-82040163D01*
X165579903Y-82057515D01*
X162823348Y-84814070D01*
X162742566Y-84868046D01*
X162647278Y-84887000D01*
X161162000Y-84887000D01*
X161066712Y-84868046D01*
X160985930Y-84814070D01*
X160931954Y-84733288D01*
X160913000Y-84638000D01*
X160913000Y-83912634D01*
X160910341Y-83887000D01*
X160903547Y-83821529D01*
X160903547Y-83821527D01*
X160902141Y-83807981D01*
X160887492Y-83764070D01*
X160851333Y-83655690D01*
X160846756Y-83641971D01*
X160836415Y-83625259D01*
X160764710Y-83509386D01*
X160754666Y-83493155D01*
X160630811Y-83369516D01*
X160618497Y-83361926D01*
X160618495Y-83361924D01*
X160494154Y-83285280D01*
X160494153Y-83285280D01*
X160481834Y-83277686D01*
X160374159Y-83241971D01*
X160328636Y-83226871D01*
X160328632Y-83226870D01*
X160315728Y-83222590D01*
X160298866Y-83220862D01*
X160218685Y-83212647D01*
X160218677Y-83212647D01*
X160212366Y-83212000D01*
X159437634Y-83212000D01*
X159431238Y-83212664D01*
X159431231Y-83212664D01*
X159346529Y-83221453D01*
X159346527Y-83221453D01*
X159332981Y-83222859D01*
X159320068Y-83227167D01*
X159320064Y-83227168D01*
X159209456Y-83264070D01*
X159166971Y-83278244D01*
X159154674Y-83285854D01*
X159154671Y-83285855D01*
X159072022Y-83337000D01*
X159018155Y-83370334D01*
X159007938Y-83380569D01*
X159004694Y-83383140D01*
X158918244Y-83427474D01*
X158850029Y-83437000D01*
X158230363Y-83437000D01*
X158223411Y-83436903D01*
X158151453Y-83434893D01*
X158151452Y-83434893D01*
X158138847Y-83434541D01*
X158126428Y-83436731D01*
X158126425Y-83436731D01*
X158083885Y-83444232D01*
X158065810Y-83446740D01*
X158022834Y-83451105D01*
X158022831Y-83451106D01*
X158010284Y-83452380D01*
X157998247Y-83456152D01*
X157998248Y-83456152D01*
X157990407Y-83458609D01*
X157959191Y-83466219D01*
X157938678Y-83469836D01*
X157926955Y-83474477D01*
X157926953Y-83474478D01*
X157886788Y-83490380D01*
X157869588Y-83496470D01*
X157828374Y-83509386D01*
X157828366Y-83509390D01*
X157816328Y-83513162D01*
X157798331Y-83523138D01*
X157798105Y-83523263D01*
X157769054Y-83536995D01*
X157749695Y-83544660D01*
X157702994Y-83575220D01*
X157687379Y-83584640D01*
X157638556Y-83611703D01*
X157628979Y-83619911D01*
X157628974Y-83619915D01*
X157622739Y-83625259D01*
X157597047Y-83644549D01*
X157591144Y-83648412D01*
X157579617Y-83655955D01*
X157574662Y-83660417D01*
X157539090Y-83695989D01*
X157525063Y-83708977D01*
X157493808Y-83735766D01*
X157493804Y-83735770D01*
X157484229Y-83743977D01*
X157476501Y-83753940D01*
X157476496Y-83753945D01*
X157470065Y-83762236D01*
X157449387Y-83785692D01*
X157421009Y-83814070D01*
X157340227Y-83868046D01*
X157244939Y-83887000D01*
X156484455Y-83887000D01*
X156389167Y-83868046D01*
X156313843Y-83819363D01*
X156308216Y-83814070D01*
X156295660Y-83802258D01*
X156288081Y-83797000D01*
X156288077Y-83796997D01*
X156095583Y-83663459D01*
X156095581Y-83663458D01*
X156087989Y-83658191D01*
X156079700Y-83654103D01*
X156079696Y-83654101D01*
X155869591Y-83550489D01*
X155869589Y-83550488D01*
X155861305Y-83546403D01*
X155755810Y-83512634D01*
X155629386Y-83472165D01*
X155629379Y-83472163D01*
X155620587Y-83469349D01*
X155481764Y-83446740D01*
X155380239Y-83430205D01*
X155380233Y-83430204D01*
X155371124Y-83428721D01*
X155361894Y-83428600D01*
X155361892Y-83428600D01*
X155188201Y-83426327D01*
X155118396Y-83425413D01*
X155109241Y-83426659D01*
X155109240Y-83426659D01*
X154877107Y-83458250D01*
X154877101Y-83458251D01*
X154867955Y-83459496D01*
X154625303Y-83530223D01*
X154500539Y-83587740D01*
X154464990Y-83604128D01*
X154360744Y-83627000D01*
X149082798Y-83627000D01*
X148987510Y-83608046D01*
X148972668Y-83601321D01*
X148869591Y-83550489D01*
X148869589Y-83550488D01*
X148861305Y-83546403D01*
X148755810Y-83512634D01*
X148629386Y-83472165D01*
X148629379Y-83472163D01*
X148620587Y-83469349D01*
X148481764Y-83446740D01*
X148380239Y-83430205D01*
X148380233Y-83430204D01*
X148371124Y-83428721D01*
X148361894Y-83428600D01*
X148361892Y-83428600D01*
X148188201Y-83426327D01*
X148118396Y-83425413D01*
X148109241Y-83426659D01*
X148109240Y-83426659D01*
X147877107Y-83458250D01*
X147877101Y-83458251D01*
X147867955Y-83459496D01*
X147625303Y-83530223D01*
X147500539Y-83587740D01*
X147464990Y-83604128D01*
X147360744Y-83627000D01*
X142082798Y-83627000D01*
X141987510Y-83608046D01*
X141972668Y-83601321D01*
X141869591Y-83550489D01*
X141869589Y-83550488D01*
X141861305Y-83546403D01*
X141755810Y-83512634D01*
X141629386Y-83472165D01*
X141629379Y-83472163D01*
X141620587Y-83469349D01*
X141481764Y-83446740D01*
X141380239Y-83430205D01*
X141380233Y-83430204D01*
X141371124Y-83428721D01*
X141361894Y-83428600D01*
X141361892Y-83428600D01*
X141188201Y-83426327D01*
X141118396Y-83425413D01*
X141109241Y-83426659D01*
X141109240Y-83426659D01*
X140877107Y-83458250D01*
X140877101Y-83458251D01*
X140867955Y-83459496D01*
X140625303Y-83530223D01*
X140500539Y-83587740D01*
X140464990Y-83604128D01*
X140360744Y-83627000D01*
X135082798Y-83627000D01*
X134987510Y-83608046D01*
X134972668Y-83601321D01*
X134869591Y-83550489D01*
X134869589Y-83550488D01*
X134861305Y-83546403D01*
X134755810Y-83512634D01*
X134629386Y-83472165D01*
X134629379Y-83472163D01*
X134620587Y-83469349D01*
X134481764Y-83446740D01*
X134380239Y-83430205D01*
X134380233Y-83430204D01*
X134371124Y-83428721D01*
X134361894Y-83428600D01*
X134361892Y-83428600D01*
X134188201Y-83426327D01*
X134118396Y-83425413D01*
X134109241Y-83426659D01*
X134109240Y-83426659D01*
X133877107Y-83458250D01*
X133877101Y-83458251D01*
X133867955Y-83459496D01*
X133625303Y-83530223D01*
X133500539Y-83587740D01*
X133464990Y-83604128D01*
X133360744Y-83627000D01*
X128082798Y-83627000D01*
X127987510Y-83608046D01*
X127972668Y-83601321D01*
X127869591Y-83550489D01*
X127869589Y-83550488D01*
X127861305Y-83546403D01*
X127755810Y-83512634D01*
X127629386Y-83472165D01*
X127629379Y-83472163D01*
X127620587Y-83469349D01*
X127481764Y-83446740D01*
X127380239Y-83430205D01*
X127380233Y-83430204D01*
X127371124Y-83428721D01*
X127361894Y-83428600D01*
X127361892Y-83428600D01*
X127188201Y-83426327D01*
X127118396Y-83425413D01*
X127109241Y-83426659D01*
X127109240Y-83426659D01*
X126877107Y-83458250D01*
X126877101Y-83458251D01*
X126867955Y-83459496D01*
X126625303Y-83530223D01*
X126616924Y-83534086D01*
X126616918Y-83534088D01*
X126448559Y-83611703D01*
X126395770Y-83636039D01*
X126388045Y-83641104D01*
X126382721Y-83644055D01*
X126290191Y-83673676D01*
X126193370Y-83665632D01*
X126106997Y-83621149D01*
X126044222Y-83546998D01*
X126014601Y-83454468D01*
X126013000Y-83426277D01*
X126013000Y-81432895D01*
X126031954Y-81337607D01*
X126085930Y-81256825D01*
X126166712Y-81202849D01*
X126262000Y-81183895D01*
X126357288Y-81202849D01*
X126438070Y-81256825D01*
X126452424Y-81272459D01*
X126474537Y-81298705D01*
X126629280Y-81460552D01*
X126663130Y-81494099D01*
X126721136Y-81551587D01*
X126721143Y-81551593D01*
X126725096Y-81555511D01*
X126967532Y-81756073D01*
X127051465Y-81817054D01*
X127120296Y-81867063D01*
X127148686Y-81887690D01*
X127150045Y-81888622D01*
X127150057Y-81888631D01*
X127255342Y-81960876D01*
X127255351Y-81960881D01*
X127259948Y-81964036D01*
X127264818Y-81966770D01*
X127264822Y-81966773D01*
X127340983Y-82009537D01*
X127534300Y-82118084D01*
X127736044Y-82215238D01*
X127737568Y-82215922D01*
X127831825Y-82258226D01*
X127859123Y-82270478D01*
X128156573Y-82373065D01*
X128372422Y-82432636D01*
X128503403Y-82465016D01*
X128814391Y-82512842D01*
X129037409Y-82532914D01*
X129040189Y-82533039D01*
X129040206Y-82533040D01*
X129259207Y-82542875D01*
X129259226Y-82542875D01*
X129262000Y-82543000D01*
X161393184Y-82543000D01*
X161471368Y-82541721D01*
X161474181Y-82541675D01*
X161474183Y-82541675D01*
X161475158Y-82541659D01*
X161556844Y-82538985D01*
X161557854Y-82538935D01*
X161557888Y-82538934D01*
X161637761Y-82535010D01*
X161637780Y-82535009D01*
X161638735Y-82534962D01*
X161639677Y-82534900D01*
X161639699Y-82534899D01*
X161775249Y-82526015D01*
X161775276Y-82526013D01*
X161777302Y-82525880D01*
X161779338Y-82525679D01*
X161779356Y-82525678D01*
X161938449Y-82510009D01*
X161938451Y-82510009D01*
X161940459Y-82509811D01*
X162021875Y-82499093D01*
X162100395Y-82488756D01*
X162100409Y-82488754D01*
X162102429Y-82488488D01*
X162104432Y-82488157D01*
X162104461Y-82488153D01*
X162262178Y-82462113D01*
X162264207Y-82461778D01*
X162332629Y-82448168D01*
X162358254Y-82443071D01*
X162358262Y-82443069D01*
X162360224Y-82442679D01*
X162362185Y-82442222D01*
X162362207Y-82442217D01*
X162452703Y-82421116D01*
X162519895Y-82405449D01*
X162677701Y-82363165D01*
X162679621Y-82362582D01*
X162679637Y-82362578D01*
X162832630Y-82316168D01*
X162832650Y-82316161D01*
X162834610Y-82315567D01*
X162927313Y-82284098D01*
X162969590Y-82268186D01*
X163078832Y-82227070D01*
X163078857Y-82227060D01*
X163080757Y-82226345D01*
X163148149Y-82198430D01*
X163229816Y-82164602D01*
X163229819Y-82164600D01*
X163231682Y-82163829D01*
X163381008Y-82096170D01*
X163382821Y-82095276D01*
X163382842Y-82095266D01*
X163467025Y-82053752D01*
X163467058Y-82053735D01*
X163468800Y-82052876D01*
X163470517Y-82051958D01*
X163470535Y-82051949D01*
X163611606Y-81976545D01*
X163611613Y-81976541D01*
X163613398Y-81975587D01*
X163659135Y-81949181D01*
X163753120Y-81894919D01*
X163753138Y-81894908D01*
X163754886Y-81893899D01*
X163756590Y-81892839D01*
X163756609Y-81892828D01*
X163850022Y-81834740D01*
X163894100Y-81807331D01*
X163975493Y-81752947D01*
X163977140Y-81751767D01*
X164107135Y-81658615D01*
X164107154Y-81658601D01*
X164108788Y-81657430D01*
X164217371Y-81574111D01*
X164236796Y-81559206D01*
X164236815Y-81559191D01*
X164238397Y-81557977D01*
X164243027Y-81554178D01*
X164363551Y-81455265D01*
X164365127Y-81453972D01*
X164469535Y-81362409D01*
X164530305Y-81307330D01*
X164589960Y-81251456D01*
X164648859Y-81194453D01*
X172419453Y-73423859D01*
X172476456Y-73364960D01*
X172532330Y-73305305D01*
X172587409Y-73244535D01*
X172678972Y-73140127D01*
X172738400Y-73067714D01*
X172781688Y-73014968D01*
X172781699Y-73014954D01*
X172782981Y-73013392D01*
X172882435Y-72883781D01*
X172919563Y-72831969D01*
X172976766Y-72752141D01*
X172976768Y-72752138D01*
X172977944Y-72750497D01*
X172984754Y-72740306D01*
X173031199Y-72670794D01*
X173032327Y-72669106D01*
X173118899Y-72529886D01*
X173131487Y-72508084D01*
X173199557Y-72390182D01*
X173200587Y-72388398D01*
X173277876Y-72243800D01*
X173278735Y-72242058D01*
X173278752Y-72242025D01*
X173320266Y-72157842D01*
X173320276Y-72157821D01*
X173321170Y-72156008D01*
X173374805Y-72037634D01*
X173387980Y-72008556D01*
X173387984Y-72008546D01*
X173388828Y-72006684D01*
X173389608Y-72004802D01*
X173389621Y-72004771D01*
X173450552Y-71857672D01*
X173450557Y-71857660D01*
X173451345Y-71855757D01*
X173509101Y-71702303D01*
X173540569Y-71609602D01*
X173588165Y-71452701D01*
X173601567Y-71402686D01*
X173629923Y-71296858D01*
X173630449Y-71294895D01*
X173667680Y-71135219D01*
X173686779Y-71039201D01*
X173713487Y-70877430D01*
X173716413Y-70855208D01*
X173721159Y-70819154D01*
X173734810Y-70715461D01*
X173736807Y-70695191D01*
X173750681Y-70554325D01*
X173750681Y-70554322D01*
X173750880Y-70552304D01*
X173751859Y-70537366D01*
X173759893Y-70414798D01*
X173759896Y-70414749D01*
X173759962Y-70413739D01*
X173763985Y-70331844D01*
X173766659Y-70250156D01*
X173768000Y-70168184D01*
X173768000Y-65792000D01*
X173786954Y-65696712D01*
X173840930Y-65615930D01*
X173921712Y-65561954D01*
X174017000Y-65543000D01*
X183621548Y-65543000D01*
X183716836Y-65561954D01*
G37*
G04 #@! TD.AperFunction*
G04 #@! TA.AperFunction,Conductor*
G36*
X187683288Y-86156954D02*
G01*
X187764070Y-86210930D01*
X187818046Y-86291712D01*
X187837000Y-86387000D01*
X187837000Y-87037366D01*
X187847859Y-87142019D01*
X187852167Y-87154932D01*
X187852168Y-87154936D01*
X187867997Y-87202380D01*
X187903244Y-87308029D01*
X187910854Y-87320326D01*
X187910855Y-87320329D01*
X187977730Y-87428397D01*
X187995334Y-87456845D01*
X188005569Y-87467062D01*
X188008140Y-87470306D01*
X188052474Y-87556756D01*
X188062000Y-87624971D01*
X188062000Y-87712382D01*
X188052113Y-87781851D01*
X188018723Y-87896780D01*
X188014902Y-87909931D01*
X188012000Y-87946806D01*
X188012000Y-88076160D01*
X187993046Y-88171448D01*
X187939070Y-88252230D01*
X187909359Y-88277605D01*
X187890270Y-88291474D01*
X187881538Y-88301172D01*
X187779375Y-88414634D01*
X187779371Y-88414639D01*
X187770641Y-88424335D01*
X187681250Y-88579165D01*
X187626003Y-88749197D01*
X187607315Y-88927000D01*
X187626003Y-89104803D01*
X187681250Y-89274835D01*
X187770641Y-89429665D01*
X187779371Y-89439361D01*
X187779375Y-89439366D01*
X187856085Y-89524560D01*
X187890270Y-89562526D01*
X187900816Y-89570188D01*
X187900818Y-89570190D01*
X188024350Y-89659942D01*
X188034907Y-89667612D01*
X188198233Y-89740329D01*
X188210998Y-89743042D01*
X188210997Y-89743042D01*
X188362160Y-89775173D01*
X188397240Y-89786369D01*
X188402102Y-89789244D01*
X188436942Y-89799366D01*
X188547711Y-89831548D01*
X188547714Y-89831548D01*
X188559931Y-89835098D01*
X188572616Y-89836096D01*
X188572620Y-89836097D01*
X188586246Y-89837169D01*
X188596806Y-89838000D01*
X188713000Y-89838000D01*
X188808288Y-89856954D01*
X188889070Y-89910930D01*
X188943046Y-89991712D01*
X188962000Y-90087000D01*
X188962000Y-90814914D01*
X188943046Y-90910202D01*
X188889070Y-90990984D01*
X186916855Y-92963199D01*
X186836073Y-93017175D01*
X186740785Y-93036129D01*
X186645497Y-93017175D01*
X186621209Y-93005538D01*
X186619520Y-93004613D01*
X186605324Y-92993974D01*
X186558788Y-92976529D01*
X186485696Y-92949128D01*
X186485695Y-92949128D01*
X186471080Y-92943649D01*
X186409877Y-92937000D01*
X186126403Y-92937000D01*
X186066819Y-92927776D01*
X186066581Y-92928914D01*
X185876985Y-92889305D01*
X185876979Y-92889304D01*
X185867620Y-92887349D01*
X185860961Y-92887000D01*
X185859237Y-92887000D01*
X185848580Y-92885616D01*
X185848845Y-92883575D01*
X185770048Y-92865749D01*
X185690705Y-92809680D01*
X185638858Y-92727516D01*
X185622400Y-92631765D01*
X185643837Y-92537004D01*
X185695245Y-92462201D01*
X186378906Y-91778540D01*
X186459688Y-91724564D01*
X186506464Y-91710775D01*
X186515069Y-91710098D01*
X186672898Y-91664244D01*
X186715465Y-91639070D01*
X186800882Y-91588555D01*
X186800883Y-91588554D01*
X186814365Y-91580581D01*
X186930581Y-91464365D01*
X186961550Y-91412000D01*
X187006271Y-91336380D01*
X187006272Y-91336379D01*
X187014244Y-91322898D01*
X187060098Y-91165069D01*
X187063000Y-91128194D01*
X187063000Y-89821806D01*
X187060098Y-89784931D01*
X187037045Y-89705581D01*
X187026013Y-89667612D01*
X187014244Y-89627102D01*
X186998476Y-89600440D01*
X186938555Y-89499118D01*
X186938554Y-89499117D01*
X186930581Y-89485635D01*
X186814365Y-89369419D01*
X186770926Y-89343729D01*
X186686380Y-89293729D01*
X186686379Y-89293728D01*
X186672898Y-89285756D01*
X186592583Y-89262422D01*
X186527289Y-89243452D01*
X186527286Y-89243452D01*
X186515069Y-89239902D01*
X186502384Y-89238904D01*
X186502380Y-89238903D01*
X186488754Y-89237831D01*
X186478194Y-89237000D01*
X186362000Y-89237000D01*
X186266712Y-89218046D01*
X186185930Y-89164070D01*
X186131954Y-89083288D01*
X186113000Y-88988000D01*
X186113000Y-87946806D01*
X186110098Y-87909931D01*
X186106278Y-87896780D01*
X186072887Y-87781851D01*
X186063000Y-87712382D01*
X186063000Y-87701556D01*
X186081954Y-87606268D01*
X186135777Y-87525640D01*
X186195263Y-87466050D01*
X186195264Y-87466049D01*
X186205484Y-87455811D01*
X186224685Y-87424662D01*
X186289720Y-87319154D01*
X186289720Y-87319153D01*
X186297314Y-87306834D01*
X186325067Y-87223164D01*
X186348129Y-87153636D01*
X186348130Y-87153632D01*
X186352410Y-87140728D01*
X186363000Y-87037366D01*
X186363000Y-86387000D01*
X186381954Y-86291712D01*
X186435930Y-86210930D01*
X186516712Y-86156954D01*
X186612000Y-86138000D01*
X187588000Y-86138000D01*
X187683288Y-86156954D01*
G37*
G04 #@! TD.AperFunction*
G04 #@! TA.AperFunction,Conductor*
G36*
X191093111Y-84744217D02*
G01*
X191173893Y-84798193D01*
X191209561Y-84843237D01*
X191287721Y-84969544D01*
X191287725Y-84969549D01*
X191295334Y-84981845D01*
X191419189Y-85105484D01*
X191491165Y-85149850D01*
X191515371Y-85164771D01*
X191586541Y-85230907D01*
X191626985Y-85319244D01*
X191630544Y-85416333D01*
X191596679Y-85507395D01*
X191560936Y-85552653D01*
X191494516Y-85619189D01*
X191402686Y-85768166D01*
X191398130Y-85781903D01*
X191352303Y-85920064D01*
X191347590Y-85934272D01*
X191337000Y-86037634D01*
X191337000Y-87037366D01*
X191347859Y-87142019D01*
X191352167Y-87154932D01*
X191352168Y-87154936D01*
X191367997Y-87202380D01*
X191403244Y-87308029D01*
X191410854Y-87320326D01*
X191410855Y-87320329D01*
X191477730Y-87428397D01*
X191495334Y-87456845D01*
X191505569Y-87467062D01*
X191508140Y-87470306D01*
X191552474Y-87556756D01*
X191562000Y-87624971D01*
X191562000Y-87712382D01*
X191552102Y-87781888D01*
X191551802Y-87782920D01*
X191507003Y-87869130D01*
X191459059Y-87914859D01*
X191390770Y-87964474D01*
X191382038Y-87974172D01*
X191279875Y-88087634D01*
X191279871Y-88087639D01*
X191271141Y-88097335D01*
X191181750Y-88252165D01*
X191126503Y-88422197D01*
X191107815Y-88600000D01*
X191126503Y-88777803D01*
X191181750Y-88947835D01*
X191271141Y-89102665D01*
X191279871Y-89112361D01*
X191279875Y-89112366D01*
X191334739Y-89173298D01*
X191390770Y-89235526D01*
X191453891Y-89281386D01*
X191459059Y-89285141D01*
X191525008Y-89356484D01*
X191551812Y-89417113D01*
X191560756Y-89447898D01*
X191568728Y-89461379D01*
X191568729Y-89461380D01*
X191628547Y-89562526D01*
X191644419Y-89589365D01*
X191760635Y-89705581D01*
X191774117Y-89713554D01*
X191774118Y-89713555D01*
X191888620Y-89781271D01*
X191902102Y-89789244D01*
X191921880Y-89794990D01*
X192047711Y-89831548D01*
X192047714Y-89831548D01*
X192059931Y-89835098D01*
X192072616Y-89836096D01*
X192072620Y-89836097D01*
X192086246Y-89837169D01*
X192096806Y-89838000D01*
X192213000Y-89838000D01*
X192308288Y-89856954D01*
X192389070Y-89910930D01*
X192443046Y-89991712D01*
X192462000Y-90087000D01*
X192462000Y-91128194D01*
X192464902Y-91165069D01*
X192510756Y-91322898D01*
X192518727Y-91336376D01*
X192518729Y-91336381D01*
X192577325Y-91435461D01*
X192609516Y-91527129D01*
X192612000Y-91562212D01*
X192612000Y-92638000D01*
X192593046Y-92733288D01*
X192539070Y-92814070D01*
X192458288Y-92868046D01*
X192363000Y-92887000D01*
X190992103Y-92887000D01*
X190896815Y-92868046D01*
X190881986Y-92861327D01*
X190821305Y-92831403D01*
X190737678Y-92804634D01*
X190589386Y-92757165D01*
X190589379Y-92757163D01*
X190580587Y-92754349D01*
X190451269Y-92733288D01*
X190340239Y-92715205D01*
X190340233Y-92715204D01*
X190331124Y-92713721D01*
X190321894Y-92713600D01*
X190321892Y-92713600D01*
X190148201Y-92711327D01*
X190078396Y-92710413D01*
X190069241Y-92711659D01*
X190069240Y-92711659D01*
X189837107Y-92743250D01*
X189837101Y-92743251D01*
X189827955Y-92744496D01*
X189782466Y-92757755D01*
X189594177Y-92812636D01*
X189594172Y-92812638D01*
X189585303Y-92815223D01*
X189576913Y-92819091D01*
X189571344Y-92821173D01*
X189475452Y-92836788D01*
X189380884Y-92814519D01*
X189302036Y-92757755D01*
X189250913Y-92675138D01*
X189235298Y-92579246D01*
X189257567Y-92484678D01*
X189308076Y-92411870D01*
X189962504Y-91757442D01*
X190043286Y-91703466D01*
X190069100Y-91694400D01*
X190172898Y-91664244D01*
X190215465Y-91639070D01*
X190300882Y-91588555D01*
X190300883Y-91588554D01*
X190314365Y-91580581D01*
X190430581Y-91464365D01*
X190461550Y-91412000D01*
X190506271Y-91336380D01*
X190506272Y-91336379D01*
X190514244Y-91322898D01*
X190560098Y-91165069D01*
X190563000Y-91128194D01*
X190563000Y-89821806D01*
X190560098Y-89784931D01*
X190537045Y-89705581D01*
X190526013Y-89667612D01*
X190514244Y-89627102D01*
X190498476Y-89600440D01*
X190438555Y-89499118D01*
X190438554Y-89499117D01*
X190430581Y-89485635D01*
X190314365Y-89369419D01*
X190270926Y-89343729D01*
X190186380Y-89293729D01*
X190186379Y-89293728D01*
X190172898Y-89285756D01*
X190092583Y-89262422D01*
X190027289Y-89243452D01*
X190027286Y-89243452D01*
X190015069Y-89239902D01*
X190002384Y-89238904D01*
X190002380Y-89238903D01*
X189988754Y-89237831D01*
X189978194Y-89237000D01*
X189862000Y-89237000D01*
X189766712Y-89218046D01*
X189685930Y-89164070D01*
X189631954Y-89083288D01*
X189613000Y-88988000D01*
X189613000Y-87946806D01*
X189610098Y-87909931D01*
X189606278Y-87896780D01*
X189572887Y-87781851D01*
X189563000Y-87712382D01*
X189563000Y-87701556D01*
X189581954Y-87606268D01*
X189635777Y-87525640D01*
X189695263Y-87466050D01*
X189695264Y-87466049D01*
X189705484Y-87455811D01*
X189724685Y-87424662D01*
X189789720Y-87319154D01*
X189789720Y-87319153D01*
X189797314Y-87306834D01*
X189825067Y-87223164D01*
X189848129Y-87153636D01*
X189848130Y-87153632D01*
X189852410Y-87140728D01*
X189863000Y-87037366D01*
X189863000Y-86037634D01*
X189852141Y-85932981D01*
X189850137Y-85926976D01*
X189848618Y-85833908D01*
X189884327Y-85743554D01*
X189917524Y-85702422D01*
X190821753Y-84798193D01*
X190902535Y-84744217D01*
X190997823Y-84725263D01*
X191093111Y-84744217D01*
G37*
G04 #@! TD.AperFunction*
G04 #@! TA.AperFunction,Conductor*
G36*
X180683288Y-86156954D02*
G01*
X180764070Y-86210930D01*
X180818046Y-86291712D01*
X180837000Y-86387000D01*
X180837000Y-87037366D01*
X180847859Y-87142019D01*
X180852167Y-87154932D01*
X180852168Y-87154936D01*
X180867997Y-87202380D01*
X180903244Y-87308029D01*
X180910854Y-87320326D01*
X180910855Y-87320329D01*
X180977730Y-87428397D01*
X180995334Y-87456845D01*
X181005569Y-87467062D01*
X181008140Y-87470306D01*
X181052474Y-87556756D01*
X181062000Y-87624971D01*
X181062000Y-87762382D01*
X181052113Y-87831851D01*
X181021549Y-87937053D01*
X181014902Y-87959931D01*
X181012000Y-87996806D01*
X181012000Y-88398999D01*
X180993046Y-88494287D01*
X180939070Y-88575069D01*
X180909360Y-88600443D01*
X180892109Y-88612977D01*
X180845146Y-88647098D01*
X180836414Y-88656796D01*
X180734251Y-88770258D01*
X180734247Y-88770263D01*
X180725517Y-88779959D01*
X180636126Y-88934789D01*
X180580879Y-89104821D01*
X180562191Y-89282624D01*
X180580879Y-89460427D01*
X180636126Y-89630459D01*
X180725517Y-89785289D01*
X180734247Y-89794985D01*
X180734251Y-89794990D01*
X180836420Y-89908459D01*
X180845146Y-89918150D01*
X180855692Y-89925812D01*
X180855694Y-89925814D01*
X180970343Y-90009112D01*
X180989783Y-90023236D01*
X181153109Y-90095953D01*
X181327985Y-90133124D01*
X181506767Y-90133124D01*
X181661230Y-90100292D01*
X181758377Y-90099021D01*
X181848615Y-90135022D01*
X181918208Y-90202816D01*
X181956559Y-90292081D01*
X181962000Y-90343851D01*
X181962000Y-90802414D01*
X181943046Y-90897702D01*
X181889070Y-90978484D01*
X180728484Y-92139070D01*
X180647702Y-92193046D01*
X180552414Y-92212000D01*
X179546586Y-92212000D01*
X179451298Y-92193046D01*
X179370516Y-92139070D01*
X179316540Y-92058288D01*
X179297586Y-91963000D01*
X179316540Y-91867712D01*
X179370516Y-91786930D01*
X179378906Y-91778540D01*
X179459688Y-91724564D01*
X179506464Y-91710775D01*
X179515069Y-91710098D01*
X179672898Y-91664244D01*
X179715465Y-91639070D01*
X179800882Y-91588555D01*
X179800883Y-91588554D01*
X179814365Y-91580581D01*
X179930581Y-91464365D01*
X179961550Y-91412000D01*
X180006271Y-91336380D01*
X180006272Y-91336379D01*
X180014244Y-91322898D01*
X180060098Y-91165069D01*
X180063000Y-91128194D01*
X180063000Y-89821806D01*
X180060098Y-89784931D01*
X180037045Y-89705581D01*
X180026013Y-89667612D01*
X180014244Y-89627102D01*
X179998476Y-89600440D01*
X179938555Y-89499118D01*
X179938554Y-89499117D01*
X179930581Y-89485635D01*
X179814365Y-89369419D01*
X179770926Y-89343729D01*
X179686380Y-89293729D01*
X179686379Y-89293728D01*
X179672898Y-89285756D01*
X179592583Y-89262422D01*
X179527289Y-89243452D01*
X179527286Y-89243452D01*
X179515069Y-89239902D01*
X179502384Y-89238904D01*
X179502380Y-89238903D01*
X179488754Y-89237831D01*
X179478194Y-89237000D01*
X179362000Y-89237000D01*
X179266712Y-89218046D01*
X179185930Y-89164070D01*
X179131954Y-89083288D01*
X179113000Y-88988000D01*
X179113000Y-87946806D01*
X179112405Y-87939246D01*
X179112484Y-87938580D01*
X179112424Y-87937053D01*
X179112666Y-87937043D01*
X179123825Y-87842774D01*
X179144964Y-87777715D01*
X179148997Y-87765303D01*
X179167685Y-87587500D01*
X179167328Y-87584102D01*
X179185275Y-87493876D01*
X179207043Y-87456772D01*
X179205484Y-87455811D01*
X179289720Y-87319154D01*
X179289720Y-87319153D01*
X179297314Y-87306834D01*
X179325067Y-87223164D01*
X179348129Y-87153636D01*
X179348130Y-87153632D01*
X179352410Y-87140728D01*
X179363000Y-87037366D01*
X179363000Y-86387000D01*
X179381954Y-86291712D01*
X179435930Y-86210930D01*
X179516712Y-86156954D01*
X179612000Y-86138000D01*
X180588000Y-86138000D01*
X180683288Y-86156954D01*
G37*
G04 #@! TD.AperFunction*
G04 #@! TA.AperFunction,Conductor*
G36*
X184183288Y-86156954D02*
G01*
X184264070Y-86210930D01*
X184318046Y-86291712D01*
X184337000Y-86387000D01*
X184337000Y-87037366D01*
X184347859Y-87142019D01*
X184352167Y-87154932D01*
X184352168Y-87154936D01*
X184367997Y-87202380D01*
X184403244Y-87308029D01*
X184410854Y-87320326D01*
X184410855Y-87320329D01*
X184477730Y-87428397D01*
X184495334Y-87456845D01*
X184505569Y-87467062D01*
X184508140Y-87470306D01*
X184552474Y-87556756D01*
X184562000Y-87624971D01*
X184562000Y-87712382D01*
X184552113Y-87781851D01*
X184518723Y-87896780D01*
X184514902Y-87909931D01*
X184512000Y-87946806D01*
X184512000Y-88363505D01*
X184493046Y-88458793D01*
X184439070Y-88539575D01*
X184409359Y-88564950D01*
X184300829Y-88643802D01*
X184300827Y-88643804D01*
X184290270Y-88651474D01*
X184281538Y-88661172D01*
X184179375Y-88774634D01*
X184179371Y-88774639D01*
X184170641Y-88784335D01*
X184081250Y-88939165D01*
X184026003Y-89109197D01*
X184007315Y-89287000D01*
X184026003Y-89464803D01*
X184081250Y-89634835D01*
X184170641Y-89789665D01*
X184179371Y-89799361D01*
X184179375Y-89799366D01*
X184263000Y-89892240D01*
X184290270Y-89922526D01*
X184300816Y-89930188D01*
X184300818Y-89930190D01*
X184409444Y-90009112D01*
X184434907Y-90027612D01*
X184598233Y-90100329D01*
X184773109Y-90137500D01*
X184951891Y-90137500D01*
X185126767Y-90100329D01*
X185137022Y-90095763D01*
X185232534Y-90084457D01*
X185326042Y-90110829D01*
X185402340Y-90170976D01*
X185449812Y-90255743D01*
X185462000Y-90332690D01*
X185462000Y-90752414D01*
X185443046Y-90847702D01*
X185389070Y-90928484D01*
X184503484Y-91814070D01*
X184422702Y-91868046D01*
X184327414Y-91887000D01*
X183646749Y-91887000D01*
X183551461Y-91868046D01*
X183470679Y-91814070D01*
X183416703Y-91733288D01*
X183397749Y-91638000D01*
X183416703Y-91542712D01*
X183432424Y-91511249D01*
X183506271Y-91386380D01*
X183506272Y-91386379D01*
X183514244Y-91372898D01*
X183560098Y-91215069D01*
X183563000Y-91178194D01*
X183563000Y-89871806D01*
X183562169Y-89861246D01*
X183561097Y-89847620D01*
X183561096Y-89847616D01*
X183560098Y-89834931D01*
X183554038Y-89814070D01*
X183518614Y-89692144D01*
X183514244Y-89677102D01*
X183491119Y-89638000D01*
X183438555Y-89549118D01*
X183438554Y-89549117D01*
X183430581Y-89535635D01*
X183314365Y-89419419D01*
X183259548Y-89387000D01*
X183186380Y-89343729D01*
X183186379Y-89343728D01*
X183172898Y-89335756D01*
X183095877Y-89313379D01*
X183027289Y-89293452D01*
X183027286Y-89293452D01*
X183015069Y-89289902D01*
X183002384Y-89288904D01*
X183002380Y-89288903D01*
X182988754Y-89287831D01*
X182978194Y-89287000D01*
X182862000Y-89287000D01*
X182766712Y-89268046D01*
X182685930Y-89214070D01*
X182631954Y-89133288D01*
X182613000Y-89038000D01*
X182613000Y-87996806D01*
X182610098Y-87959931D01*
X182603452Y-87937053D01*
X182572887Y-87831851D01*
X182563000Y-87762382D01*
X182563000Y-87701556D01*
X182581954Y-87606268D01*
X182635777Y-87525640D01*
X182695263Y-87466050D01*
X182695264Y-87466049D01*
X182705484Y-87455811D01*
X182724685Y-87424662D01*
X182789720Y-87319154D01*
X182789720Y-87319153D01*
X182797314Y-87306834D01*
X182825067Y-87223164D01*
X182848129Y-87153636D01*
X182848130Y-87153632D01*
X182852410Y-87140728D01*
X182863000Y-87037366D01*
X182863000Y-86387000D01*
X182881954Y-86291712D01*
X182935930Y-86210930D01*
X183016712Y-86156954D01*
X183112000Y-86138000D01*
X184088000Y-86138000D01*
X184183288Y-86156954D01*
G37*
G04 #@! TD.AperFunction*
G04 #@! TA.AperFunction,Conductor*
G36*
X177183288Y-86156954D02*
G01*
X177264070Y-86210930D01*
X177318046Y-86291712D01*
X177337000Y-86387000D01*
X177337000Y-87037366D01*
X177347859Y-87142019D01*
X177352167Y-87154932D01*
X177352168Y-87154936D01*
X177367997Y-87202380D01*
X177403244Y-87308029D01*
X177410854Y-87320326D01*
X177410855Y-87320329D01*
X177429777Y-87350906D01*
X177463801Y-87441908D01*
X177465675Y-87507961D01*
X177464053Y-87523395D01*
X177457315Y-87587500D01*
X177476003Y-87765303D01*
X177480036Y-87777715D01*
X177501175Y-87842774D01*
X177512334Y-87937043D01*
X177512576Y-87937053D01*
X177512516Y-87938580D01*
X177512595Y-87939246D01*
X177512000Y-87946806D01*
X177512000Y-89253194D01*
X177514902Y-89290069D01*
X177518452Y-89302286D01*
X177518452Y-89302289D01*
X177538335Y-89370724D01*
X177560756Y-89447898D01*
X177568728Y-89461379D01*
X177568729Y-89461380D01*
X177628547Y-89562526D01*
X177644419Y-89589365D01*
X177760635Y-89705581D01*
X177774117Y-89713554D01*
X177774118Y-89713555D01*
X177888620Y-89781271D01*
X177902102Y-89789244D01*
X177921880Y-89794990D01*
X178047711Y-89831548D01*
X178047714Y-89831548D01*
X178059931Y-89835098D01*
X178072616Y-89836096D01*
X178072620Y-89836097D01*
X178086246Y-89837169D01*
X178096806Y-89838000D01*
X178213000Y-89838000D01*
X178308288Y-89856954D01*
X178389070Y-89910930D01*
X178443046Y-89991712D01*
X178462000Y-90087000D01*
X178462000Y-90752414D01*
X178443046Y-90847702D01*
X178389070Y-90928484D01*
X177678484Y-91639070D01*
X177597702Y-91693046D01*
X177502414Y-91712000D01*
X176720673Y-91712000D01*
X176625385Y-91693046D01*
X176544603Y-91639070D01*
X176490627Y-91558288D01*
X176471673Y-91463000D01*
X176490627Y-91367712D01*
X176506191Y-91336564D01*
X176506271Y-91336380D01*
X176514244Y-91322898D01*
X176560098Y-91165069D01*
X176563000Y-91128194D01*
X176563000Y-89821806D01*
X176560098Y-89784931D01*
X176537045Y-89705581D01*
X176526013Y-89667612D01*
X176514244Y-89627102D01*
X176498476Y-89600440D01*
X176438555Y-89499118D01*
X176438554Y-89499117D01*
X176430581Y-89485635D01*
X176314365Y-89369419D01*
X176270926Y-89343729D01*
X176186380Y-89293729D01*
X176186379Y-89293728D01*
X176172898Y-89285756D01*
X176092583Y-89262422D01*
X176027289Y-89243452D01*
X176027286Y-89243452D01*
X176015069Y-89239902D01*
X176002384Y-89238904D01*
X176002380Y-89238903D01*
X175988754Y-89237831D01*
X175978194Y-89237000D01*
X175862000Y-89237000D01*
X175766712Y-89218046D01*
X175685930Y-89164070D01*
X175631954Y-89083288D01*
X175613000Y-88988000D01*
X175613000Y-87946806D01*
X175610098Y-87909931D01*
X175606550Y-87897720D01*
X175605949Y-87894427D01*
X175607477Y-87797284D01*
X175614085Y-87772752D01*
X175644964Y-87677717D01*
X175644965Y-87677712D01*
X175648997Y-87665303D01*
X175658515Y-87574748D01*
X175687324Y-87481965D01*
X175702789Y-87458511D01*
X175705484Y-87455811D01*
X175797314Y-87306834D01*
X175825067Y-87223164D01*
X175848129Y-87153636D01*
X175848130Y-87153632D01*
X175852410Y-87140728D01*
X175863000Y-87037366D01*
X175863000Y-86387000D01*
X175881954Y-86291712D01*
X175935930Y-86210930D01*
X176016712Y-86156954D01*
X176112000Y-86138000D01*
X177088000Y-86138000D01*
X177183288Y-86156954D01*
G37*
G04 #@! TD.AperFunction*
G04 #@! TA.AperFunction,Conductor*
G36*
X173683288Y-86156954D02*
G01*
X173764070Y-86210930D01*
X173818046Y-86291712D01*
X173837000Y-86387000D01*
X173837000Y-87037366D01*
X173847859Y-87142019D01*
X173852167Y-87154932D01*
X173852168Y-87154936D01*
X173867997Y-87202380D01*
X173903244Y-87308029D01*
X173910854Y-87320327D01*
X173910856Y-87320331D01*
X173921416Y-87337395D01*
X173955441Y-87428397D01*
X173958679Y-87468423D01*
X173958679Y-87474522D01*
X173957315Y-87487500D01*
X173976003Y-87665303D01*
X173980037Y-87677717D01*
X173980037Y-87677718D01*
X174010915Y-87772752D01*
X174022334Y-87869233D01*
X174019051Y-87894427D01*
X174018450Y-87897720D01*
X174014902Y-87909931D01*
X174012000Y-87946806D01*
X174012000Y-89253194D01*
X174014902Y-89290069D01*
X174018452Y-89302286D01*
X174018452Y-89302289D01*
X174038335Y-89370724D01*
X174060756Y-89447898D01*
X174068728Y-89461379D01*
X174068729Y-89461380D01*
X174128547Y-89562526D01*
X174144419Y-89589365D01*
X174260635Y-89705581D01*
X174274117Y-89713554D01*
X174274118Y-89713555D01*
X174388620Y-89781271D01*
X174402102Y-89789244D01*
X174421880Y-89794990D01*
X174547711Y-89831548D01*
X174547714Y-89831548D01*
X174559931Y-89835098D01*
X174572616Y-89836096D01*
X174572620Y-89836097D01*
X174586246Y-89837169D01*
X174596806Y-89838000D01*
X174713000Y-89838000D01*
X174808288Y-89856954D01*
X174889070Y-89910930D01*
X174943046Y-89991712D01*
X174962000Y-90087000D01*
X174962000Y-90752414D01*
X174943046Y-90847702D01*
X174889070Y-90928484D01*
X174478484Y-91339070D01*
X174397702Y-91393046D01*
X174302414Y-91412000D01*
X173310030Y-91412000D01*
X173214742Y-91393046D01*
X173133960Y-91339070D01*
X173079984Y-91258288D01*
X173061030Y-91163000D01*
X173061797Y-91143474D01*
X173063000Y-91128194D01*
X173063000Y-89821806D01*
X173060098Y-89784931D01*
X173037045Y-89705581D01*
X173026013Y-89667612D01*
X173014244Y-89627102D01*
X172998476Y-89600440D01*
X172938555Y-89499118D01*
X172938554Y-89499117D01*
X172930581Y-89485635D01*
X172814365Y-89369419D01*
X172770926Y-89343729D01*
X172686380Y-89293729D01*
X172686379Y-89293728D01*
X172672898Y-89285756D01*
X172592583Y-89262422D01*
X172527289Y-89243452D01*
X172527286Y-89243452D01*
X172515069Y-89239902D01*
X172502384Y-89238904D01*
X172502380Y-89238903D01*
X172488754Y-89237831D01*
X172478194Y-89237000D01*
X172362000Y-89237000D01*
X172266712Y-89218046D01*
X172185930Y-89164070D01*
X172131954Y-89083288D01*
X172113000Y-88988000D01*
X172113000Y-87946806D01*
X172112405Y-87939246D01*
X172112484Y-87938580D01*
X172112424Y-87937053D01*
X172112666Y-87937043D01*
X172123825Y-87842774D01*
X172144964Y-87777715D01*
X172148997Y-87765303D01*
X172167685Y-87587500D01*
X172167328Y-87584102D01*
X172185275Y-87493876D01*
X172207043Y-87456772D01*
X172205484Y-87455811D01*
X172289720Y-87319154D01*
X172289720Y-87319153D01*
X172297314Y-87306834D01*
X172325067Y-87223164D01*
X172348129Y-87153636D01*
X172348130Y-87153632D01*
X172352410Y-87140728D01*
X172363000Y-87037366D01*
X172363000Y-86387000D01*
X172381954Y-86291712D01*
X172435930Y-86210930D01*
X172516712Y-86156954D01*
X172612000Y-86138000D01*
X173588000Y-86138000D01*
X173683288Y-86156954D01*
G37*
G04 #@! TD.AperFunction*
G04 #@! TA.AperFunction,Conductor*
G36*
X170183288Y-86156954D02*
G01*
X170264070Y-86210930D01*
X170318046Y-86291712D01*
X170337000Y-86387000D01*
X170337000Y-87037366D01*
X170347859Y-87142019D01*
X170352167Y-87154932D01*
X170352168Y-87154936D01*
X170367997Y-87202380D01*
X170403244Y-87308029D01*
X170410854Y-87320326D01*
X170410855Y-87320329D01*
X170429777Y-87350906D01*
X170463801Y-87441908D01*
X170465675Y-87507961D01*
X170464053Y-87523395D01*
X170457315Y-87587500D01*
X170476003Y-87765303D01*
X170480036Y-87777715D01*
X170501175Y-87842774D01*
X170512334Y-87937043D01*
X170512576Y-87937053D01*
X170512516Y-87938580D01*
X170512595Y-87939246D01*
X170512000Y-87946806D01*
X170512000Y-89253194D01*
X170514902Y-89290069D01*
X170518452Y-89302286D01*
X170518452Y-89302289D01*
X170538335Y-89370724D01*
X170560756Y-89447898D01*
X170568728Y-89461379D01*
X170568729Y-89461380D01*
X170628547Y-89562526D01*
X170644419Y-89589365D01*
X170760635Y-89705581D01*
X170774117Y-89713554D01*
X170774118Y-89713555D01*
X170888620Y-89781271D01*
X170902102Y-89789244D01*
X170921880Y-89794990D01*
X171047711Y-89831548D01*
X171047714Y-89831548D01*
X171059931Y-89835098D01*
X171072616Y-89836096D01*
X171072620Y-89836097D01*
X171086246Y-89837169D01*
X171096806Y-89838000D01*
X171213000Y-89838000D01*
X171308288Y-89856954D01*
X171389070Y-89910930D01*
X171443046Y-89991712D01*
X171462000Y-90087000D01*
X171462000Y-90663000D01*
X171443046Y-90758288D01*
X171389070Y-90839070D01*
X171308288Y-90893046D01*
X171213000Y-90912000D01*
X169812000Y-90912000D01*
X169716712Y-90893046D01*
X169635930Y-90839070D01*
X169581954Y-90758288D01*
X169563000Y-90663000D01*
X169563000Y-89821806D01*
X169560098Y-89784931D01*
X169537045Y-89705581D01*
X169526013Y-89667612D01*
X169514244Y-89627102D01*
X169498476Y-89600440D01*
X169438555Y-89499118D01*
X169438554Y-89499117D01*
X169430581Y-89485635D01*
X169314365Y-89369419D01*
X169270926Y-89343729D01*
X169186380Y-89293729D01*
X169186379Y-89293728D01*
X169172898Y-89285756D01*
X169092583Y-89262422D01*
X169027289Y-89243452D01*
X169027286Y-89243452D01*
X169015069Y-89239902D01*
X169002384Y-89238904D01*
X169002380Y-89238903D01*
X168988754Y-89237831D01*
X168978194Y-89237000D01*
X168862000Y-89237000D01*
X168766712Y-89218046D01*
X168685930Y-89164070D01*
X168631954Y-89083288D01*
X168613000Y-88988000D01*
X168613000Y-87946806D01*
X168610098Y-87909931D01*
X168606550Y-87897720D01*
X168605949Y-87894427D01*
X168607477Y-87797284D01*
X168614085Y-87772752D01*
X168644964Y-87677717D01*
X168644965Y-87677712D01*
X168648997Y-87665303D01*
X168658515Y-87574748D01*
X168687324Y-87481965D01*
X168702789Y-87458511D01*
X168705484Y-87455811D01*
X168797314Y-87306834D01*
X168825067Y-87223164D01*
X168848129Y-87153636D01*
X168848130Y-87153632D01*
X168852410Y-87140728D01*
X168863000Y-87037366D01*
X168863000Y-86387000D01*
X168881954Y-86291712D01*
X168935930Y-86210930D01*
X169016712Y-86156954D01*
X169112000Y-86138000D01*
X170088000Y-86138000D01*
X170183288Y-86156954D01*
G37*
G04 #@! TD.AperFunction*
G04 #@! TA.AperFunction,Conductor*
G36*
X187258731Y-77006954D02*
G01*
X187339513Y-77060931D01*
X187764070Y-77485489D01*
X187818046Y-77566270D01*
X187837000Y-77661558D01*
X187837000Y-78037366D01*
X187847859Y-78142019D01*
X187903244Y-78308029D01*
X187910854Y-78320326D01*
X187910855Y-78320329D01*
X187987073Y-78443495D01*
X187995334Y-78456845D01*
X188005569Y-78467062D01*
X188008140Y-78470306D01*
X188052474Y-78556756D01*
X188062000Y-78624971D01*
X188062000Y-78712382D01*
X188052113Y-78781851D01*
X188034195Y-78843526D01*
X188014902Y-78909931D01*
X188012000Y-78946806D01*
X188012000Y-80253194D01*
X188014902Y-80290069D01*
X188018452Y-80302286D01*
X188018452Y-80302289D01*
X188041173Y-80380494D01*
X188060756Y-80447898D01*
X188068728Y-80461379D01*
X188068729Y-80461380D01*
X188121970Y-80551405D01*
X188144419Y-80589365D01*
X188260635Y-80705581D01*
X188274117Y-80713554D01*
X188274118Y-80713555D01*
X188353720Y-80760631D01*
X188402102Y-80789244D01*
X188430932Y-80797620D01*
X188547711Y-80831548D01*
X188547714Y-80831548D01*
X188559931Y-80835098D01*
X188572616Y-80836096D01*
X188572620Y-80836097D01*
X188586246Y-80837169D01*
X188596806Y-80838000D01*
X188713000Y-80838000D01*
X188808288Y-80856954D01*
X188889070Y-80910930D01*
X188943046Y-80991712D01*
X188962000Y-81087000D01*
X188962000Y-82128194D01*
X188962385Y-82133084D01*
X188963903Y-82152380D01*
X188963904Y-82152384D01*
X188964902Y-82165069D01*
X188968452Y-82177286D01*
X188968452Y-82177289D01*
X188979496Y-82215303D01*
X189010756Y-82322898D01*
X189018727Y-82336376D01*
X189018729Y-82336381D01*
X189077325Y-82435461D01*
X189109516Y-82527129D01*
X189112000Y-82562212D01*
X189112000Y-83564914D01*
X189093046Y-83660202D01*
X189039070Y-83740984D01*
X188515984Y-84264070D01*
X188435202Y-84318046D01*
X188339914Y-84337000D01*
X185934086Y-84337000D01*
X185838798Y-84318046D01*
X185758016Y-84264070D01*
X185704040Y-84183288D01*
X185685086Y-84088000D01*
X185704040Y-83992712D01*
X185758016Y-83911930D01*
X186668391Y-83001555D01*
X186672774Y-82997567D01*
X186680440Y-82992702D01*
X186726994Y-82943127D01*
X186732436Y-82937510D01*
X186751411Y-82918535D01*
X186756209Y-82912350D01*
X186758433Y-82909827D01*
X186763701Y-82904038D01*
X186782224Y-82884313D01*
X186792948Y-82872893D01*
X186800494Y-82859166D01*
X186804680Y-82853405D01*
X186813632Y-82839777D01*
X186817259Y-82833643D01*
X186826862Y-82821264D01*
X186842649Y-82784781D01*
X186852968Y-82763719D01*
X186864580Y-82742596D01*
X186864580Y-82742595D01*
X186872127Y-82728868D01*
X186876021Y-82713700D01*
X186878646Y-82707071D01*
X186883921Y-82691663D01*
X186885915Y-82684800D01*
X186892135Y-82670426D01*
X186898353Y-82631166D01*
X186903110Y-82608195D01*
X186905234Y-82599925D01*
X186913000Y-82569677D01*
X186913000Y-82554015D01*
X186914964Y-82538468D01*
X186917655Y-82538808D01*
X186931954Y-82466924D01*
X186947675Y-82435461D01*
X187006271Y-82336381D01*
X187006273Y-82336376D01*
X187014244Y-82322898D01*
X187045504Y-82215303D01*
X187056548Y-82177289D01*
X187056548Y-82177286D01*
X187060098Y-82165069D01*
X187061096Y-82152384D01*
X187061097Y-82152380D01*
X187062615Y-82133084D01*
X187063000Y-82128194D01*
X187063000Y-80821806D01*
X187060098Y-80784931D01*
X187037045Y-80705581D01*
X187018614Y-80642144D01*
X187014244Y-80627102D01*
X186998476Y-80600440D01*
X186938555Y-80499118D01*
X186938554Y-80499117D01*
X186930581Y-80485635D01*
X186814365Y-80369419D01*
X186672898Y-80285756D01*
X186612129Y-80268101D01*
X186527289Y-80243452D01*
X186527286Y-80243452D01*
X186515069Y-80239902D01*
X186502384Y-80238904D01*
X186502380Y-80238903D01*
X186487419Y-80237726D01*
X186478194Y-80237000D01*
X186362000Y-80237000D01*
X186266712Y-80218046D01*
X186185930Y-80164070D01*
X186131954Y-80083288D01*
X186113000Y-79988000D01*
X186113000Y-78946806D01*
X186110098Y-78909931D01*
X186090806Y-78843526D01*
X186072887Y-78781851D01*
X186063000Y-78712382D01*
X186063000Y-78701556D01*
X186081954Y-78606268D01*
X186135777Y-78525640D01*
X186195263Y-78466050D01*
X186195264Y-78466049D01*
X186205484Y-78455811D01*
X186240987Y-78398215D01*
X186289720Y-78319154D01*
X186289720Y-78319153D01*
X186297314Y-78306834D01*
X186325792Y-78220977D01*
X186348129Y-78153636D01*
X186348130Y-78153632D01*
X186352410Y-78140728D01*
X186363000Y-78037366D01*
X186363000Y-77237000D01*
X186381954Y-77141712D01*
X186435930Y-77060930D01*
X186516712Y-77006954D01*
X186612000Y-76988000D01*
X187163443Y-76988000D01*
X187258731Y-77006954D01*
G37*
G04 #@! TD.AperFunction*
G04 #@! TA.AperFunction,Conductor*
G36*
X180683288Y-77006954D02*
G01*
X180764070Y-77060930D01*
X180818046Y-77141712D01*
X180837000Y-77237000D01*
X180837000Y-78037366D01*
X180847859Y-78142019D01*
X180903244Y-78308029D01*
X180910854Y-78320326D01*
X180910855Y-78320329D01*
X180987073Y-78443495D01*
X180995334Y-78456845D01*
X181005569Y-78467062D01*
X181008140Y-78470306D01*
X181052474Y-78556756D01*
X181062000Y-78624971D01*
X181062000Y-78712382D01*
X181052113Y-78781851D01*
X181034195Y-78843526D01*
X181014902Y-78909931D01*
X181012000Y-78946806D01*
X181012000Y-80253194D01*
X181014902Y-80290069D01*
X181018452Y-80302286D01*
X181018452Y-80302289D01*
X181041173Y-80380494D01*
X181060756Y-80447898D01*
X181068732Y-80461384D01*
X181072810Y-80470809D01*
X181078348Y-80484743D01*
X181101066Y-80547332D01*
X181103887Y-80555548D01*
X181125473Y-80622180D01*
X181132348Y-80633509D01*
X181136869Y-80645965D01*
X181175296Y-80704576D01*
X181179901Y-80711876D01*
X181186212Y-80722275D01*
X181210147Y-80774496D01*
X181238963Y-80863182D01*
X181328354Y-81018012D01*
X181337084Y-81027708D01*
X181337088Y-81027713D01*
X181413888Y-81113007D01*
X181447983Y-81150873D01*
X181592620Y-81255959D01*
X181604543Y-81261267D01*
X181604544Y-81261268D01*
X181729594Y-81316943D01*
X181755946Y-81328676D01*
X181768710Y-81331389D01*
X181781122Y-81335422D01*
X181780508Y-81337312D01*
X181854044Y-81368910D01*
X181921835Y-81438505D01*
X181957832Y-81528745D01*
X181962000Y-81574111D01*
X181962000Y-82128194D01*
X181962385Y-82133084D01*
X181963903Y-82152380D01*
X181963904Y-82152384D01*
X181964902Y-82165069D01*
X181969321Y-82180279D01*
X181980118Y-82217443D01*
X181988500Y-82314236D01*
X181959203Y-82406868D01*
X181917074Y-82462980D01*
X181115984Y-83264070D01*
X181035202Y-83318046D01*
X180939914Y-83337000D01*
X179978345Y-83337000D01*
X179883057Y-83318046D01*
X179802275Y-83264070D01*
X179748299Y-83183288D01*
X179729345Y-83088000D01*
X179748299Y-82992712D01*
X179776900Y-82941641D01*
X179782224Y-82934313D01*
X179792948Y-82922893D01*
X179800497Y-82909162D01*
X179804681Y-82903403D01*
X179813633Y-82889776D01*
X179817257Y-82883648D01*
X179826863Y-82871264D01*
X179842654Y-82834773D01*
X179852970Y-82813714D01*
X179872127Y-82778868D01*
X179876023Y-82763696D01*
X179878642Y-82757080D01*
X179883925Y-82741650D01*
X179885914Y-82734805D01*
X179892136Y-82720426D01*
X179894587Y-82704953D01*
X179894588Y-82704949D01*
X179898355Y-82681163D01*
X179903112Y-82658191D01*
X179909104Y-82634853D01*
X179909104Y-82634850D01*
X179913000Y-82619677D01*
X179913000Y-82604010D01*
X179913893Y-82596940D01*
X179915172Y-82580685D01*
X179915396Y-82573572D01*
X179917847Y-82558095D01*
X179916765Y-82546646D01*
X179938097Y-82454609D01*
X179950713Y-82430323D01*
X180006270Y-82336382D01*
X180006273Y-82336376D01*
X180014244Y-82322898D01*
X180045504Y-82215303D01*
X180056548Y-82177289D01*
X180056548Y-82177286D01*
X180060098Y-82165069D01*
X180061096Y-82152384D01*
X180061097Y-82152380D01*
X180062615Y-82133084D01*
X180063000Y-82128194D01*
X180063000Y-80821806D01*
X180060098Y-80784931D01*
X180037045Y-80705581D01*
X180018614Y-80642144D01*
X180014244Y-80627102D01*
X179998476Y-80600440D01*
X179938555Y-80499118D01*
X179938554Y-80499117D01*
X179930581Y-80485635D01*
X179814365Y-80369419D01*
X179733722Y-80321727D01*
X179661352Y-80256907D01*
X179619296Y-80169326D01*
X179613957Y-80072318D01*
X179633002Y-80006121D01*
X179637225Y-79996638D01*
X179643750Y-79985335D01*
X179698997Y-79815303D01*
X179717685Y-79637500D01*
X179698997Y-79459697D01*
X179643750Y-79289665D01*
X179554359Y-79134835D01*
X179545629Y-79125139D01*
X179545625Y-79125134D01*
X179443456Y-79011665D01*
X179443455Y-79011664D01*
X179434730Y-79001974D01*
X179368592Y-78953921D01*
X179300650Y-78904558D01*
X179300649Y-78904557D01*
X179290093Y-78896888D01*
X179257357Y-78882313D01*
X179178016Y-78826240D01*
X179126172Y-78744074D01*
X179109719Y-78648322D01*
X179131161Y-78553563D01*
X179182412Y-78478923D01*
X179187979Y-78473347D01*
X179205484Y-78455811D01*
X179240987Y-78398215D01*
X179289720Y-78319154D01*
X179289720Y-78319153D01*
X179297314Y-78306834D01*
X179325792Y-78220977D01*
X179348129Y-78153636D01*
X179348130Y-78153632D01*
X179352410Y-78140728D01*
X179363000Y-78037366D01*
X179363000Y-77237000D01*
X179381954Y-77141712D01*
X179435930Y-77060930D01*
X179516712Y-77006954D01*
X179612000Y-76988000D01*
X180588000Y-76988000D01*
X180683288Y-77006954D01*
G37*
G04 #@! TD.AperFunction*
G04 #@! TA.AperFunction,Conductor*
G36*
X177183288Y-77006954D02*
G01*
X177264070Y-77060930D01*
X177318046Y-77141712D01*
X177337000Y-77237000D01*
X177337000Y-78037366D01*
X177347859Y-78142019D01*
X177403244Y-78308029D01*
X177410854Y-78320326D01*
X177410855Y-78320329D01*
X177487073Y-78443495D01*
X177495334Y-78456845D01*
X177505569Y-78467062D01*
X177508140Y-78470306D01*
X177552474Y-78556756D01*
X177562000Y-78624971D01*
X177562000Y-78712382D01*
X177552113Y-78781851D01*
X177534195Y-78843526D01*
X177514902Y-78909931D01*
X177512000Y-78946806D01*
X177512000Y-80253194D01*
X177514902Y-80290069D01*
X177518452Y-80302286D01*
X177518452Y-80302289D01*
X177541173Y-80380494D01*
X177560756Y-80447898D01*
X177568728Y-80461379D01*
X177568729Y-80461380D01*
X177621970Y-80551405D01*
X177644419Y-80589365D01*
X177760635Y-80705581D01*
X177774117Y-80713554D01*
X177774118Y-80713555D01*
X177853720Y-80760631D01*
X177902102Y-80789244D01*
X177930932Y-80797620D01*
X178047711Y-80831548D01*
X178047714Y-80831548D01*
X178059931Y-80835098D01*
X178072616Y-80836096D01*
X178072620Y-80836097D01*
X178086246Y-80837169D01*
X178096806Y-80838000D01*
X178213000Y-80838000D01*
X178308288Y-80856954D01*
X178389070Y-80910930D01*
X178443046Y-80991712D01*
X178462000Y-81087000D01*
X178462000Y-82128194D01*
X178462385Y-82133084D01*
X178463903Y-82152380D01*
X178463904Y-82152384D01*
X178464902Y-82165069D01*
X178469321Y-82180279D01*
X178480118Y-82217443D01*
X178488500Y-82314236D01*
X178459203Y-82406868D01*
X178417074Y-82462980D01*
X178115984Y-82764070D01*
X178035202Y-82818046D01*
X177939914Y-82837000D01*
X176664064Y-82837000D01*
X176568776Y-82818046D01*
X176487994Y-82764070D01*
X176434018Y-82683288D01*
X176415187Y-82580177D01*
X176415395Y-82573572D01*
X176417846Y-82558095D01*
X176416764Y-82546645D01*
X176438097Y-82454608D01*
X176450703Y-82430341D01*
X176514244Y-82322898D01*
X176545504Y-82215303D01*
X176556548Y-82177289D01*
X176556548Y-82177286D01*
X176560098Y-82165069D01*
X176561096Y-82152384D01*
X176561097Y-82152380D01*
X176562615Y-82133084D01*
X176563000Y-82128194D01*
X176563000Y-80821806D01*
X176560098Y-80784931D01*
X176537045Y-80705581D01*
X176518614Y-80642144D01*
X176514244Y-80627102D01*
X176498476Y-80600440D01*
X176438555Y-80499118D01*
X176438554Y-80499117D01*
X176430581Y-80485635D01*
X176314365Y-80369419D01*
X176172898Y-80285756D01*
X176112129Y-80268101D01*
X176027289Y-80243452D01*
X176027286Y-80243452D01*
X176015069Y-80239902D01*
X176002384Y-80238904D01*
X176002380Y-80238903D01*
X175987419Y-80237726D01*
X175978194Y-80237000D01*
X175862000Y-80237000D01*
X175766712Y-80218046D01*
X175685930Y-80164070D01*
X175631954Y-80083288D01*
X175613000Y-79988000D01*
X175613000Y-79233684D01*
X175631954Y-79138396D01*
X175685930Y-79057614D01*
X175760723Y-79006211D01*
X175878169Y-78953921D01*
X175878170Y-78953920D01*
X175890093Y-78948612D01*
X175925868Y-78922620D01*
X176024182Y-78851190D01*
X176024184Y-78851188D01*
X176034730Y-78843526D01*
X176043456Y-78833835D01*
X176145625Y-78720366D01*
X176145629Y-78720361D01*
X176154359Y-78710665D01*
X176243750Y-78555835D01*
X176298997Y-78385803D01*
X176317685Y-78208000D01*
X176298997Y-78030197D01*
X176243750Y-77860165D01*
X176154359Y-77705335D01*
X176145629Y-77695639D01*
X176145625Y-77695634D01*
X176043456Y-77582165D01*
X176043455Y-77582164D01*
X176034730Y-77572474D01*
X176024181Y-77564809D01*
X176024178Y-77564807D01*
X175965641Y-77522277D01*
X175899692Y-77450934D01*
X175866066Y-77359784D01*
X175863000Y-77320832D01*
X175863000Y-77237000D01*
X175881954Y-77141712D01*
X175935930Y-77060930D01*
X176016712Y-77006954D01*
X176112000Y-76988000D01*
X177088000Y-76988000D01*
X177183288Y-77006954D01*
G37*
G04 #@! TD.AperFunction*
G04 #@! TA.AperFunction,Conductor*
G36*
X191000151Y-77106954D02*
G01*
X191080933Y-77160930D01*
X191264070Y-77344067D01*
X191318046Y-77424849D01*
X191337000Y-77520137D01*
X191337000Y-78037366D01*
X191347859Y-78142019D01*
X191403244Y-78308029D01*
X191410854Y-78320326D01*
X191410855Y-78320329D01*
X191487073Y-78443495D01*
X191495334Y-78456845D01*
X191505569Y-78467062D01*
X191508140Y-78470306D01*
X191552474Y-78556756D01*
X191562000Y-78624971D01*
X191562000Y-78712382D01*
X191552113Y-78781851D01*
X191534195Y-78843526D01*
X191514902Y-78909931D01*
X191512000Y-78946806D01*
X191512000Y-80253194D01*
X191514902Y-80290069D01*
X191518452Y-80302286D01*
X191518452Y-80302289D01*
X191541173Y-80380494D01*
X191560756Y-80447898D01*
X191568729Y-80461380D01*
X191568731Y-80461384D01*
X191620256Y-80548509D01*
X191652447Y-80640176D01*
X191647108Y-80737184D01*
X191605052Y-80824764D01*
X191525886Y-80893460D01*
X191523692Y-80894666D01*
X191509129Y-80900432D01*
X191496459Y-80909637D01*
X191496454Y-80909640D01*
X191476960Y-80923803D01*
X191457361Y-80936678D01*
X191423135Y-80956919D01*
X191412061Y-80967993D01*
X191406448Y-80972347D01*
X191394052Y-80982933D01*
X191388843Y-80987825D01*
X191376163Y-80997037D01*
X191366176Y-81009109D01*
X191366173Y-81009112D01*
X191350827Y-81027663D01*
X191335039Y-81045015D01*
X190988070Y-81391984D01*
X190907288Y-81445960D01*
X190812000Y-81464914D01*
X190716712Y-81445960D01*
X190635930Y-81391984D01*
X190581954Y-81311202D01*
X190563000Y-81215914D01*
X190563000Y-80821806D01*
X190560098Y-80784931D01*
X190537045Y-80705581D01*
X190518614Y-80642144D01*
X190514244Y-80627102D01*
X190498476Y-80600440D01*
X190438555Y-80499118D01*
X190438554Y-80499117D01*
X190430581Y-80485635D01*
X190314365Y-80369419D01*
X190172898Y-80285756D01*
X190112129Y-80268101D01*
X190027289Y-80243452D01*
X190027286Y-80243452D01*
X190015069Y-80239902D01*
X190002384Y-80238904D01*
X190002380Y-80238903D01*
X189987419Y-80237726D01*
X189978194Y-80237000D01*
X189862000Y-80237000D01*
X189766712Y-80218046D01*
X189685930Y-80164070D01*
X189631954Y-80083288D01*
X189613000Y-79988000D01*
X189613000Y-78946806D01*
X189610098Y-78909931D01*
X189590806Y-78843526D01*
X189572887Y-78781851D01*
X189563000Y-78712382D01*
X189563000Y-78701556D01*
X189581954Y-78606268D01*
X189635777Y-78525640D01*
X189695263Y-78466050D01*
X189695264Y-78466049D01*
X189705484Y-78455811D01*
X189740987Y-78398215D01*
X189789720Y-78319154D01*
X189789720Y-78319153D01*
X189797314Y-78306834D01*
X189825792Y-78220977D01*
X189848129Y-78153636D01*
X189848130Y-78153632D01*
X189852410Y-78140728D01*
X189863000Y-78037366D01*
X189863000Y-77337000D01*
X189881954Y-77241712D01*
X189935930Y-77160930D01*
X190016712Y-77106954D01*
X190112000Y-77088000D01*
X190904863Y-77088000D01*
X191000151Y-77106954D01*
G37*
G04 #@! TD.AperFunction*
G04 #@! TA.AperFunction,Conductor*
G36*
X184183288Y-77006954D02*
G01*
X184264070Y-77060930D01*
X184318046Y-77141712D01*
X184337000Y-77237000D01*
X184337000Y-78037366D01*
X184347859Y-78142019D01*
X184403244Y-78308029D01*
X184410854Y-78320326D01*
X184410855Y-78320329D01*
X184487073Y-78443495D01*
X184495334Y-78456845D01*
X184505569Y-78467062D01*
X184508140Y-78470306D01*
X184552474Y-78556756D01*
X184562000Y-78624971D01*
X184562000Y-78712382D01*
X184552113Y-78781851D01*
X184534195Y-78843526D01*
X184514902Y-78909931D01*
X184512000Y-78946806D01*
X184512000Y-79235993D01*
X184493046Y-79331281D01*
X184439070Y-79412063D01*
X183792661Y-80058472D01*
X183711879Y-80112448D01*
X183668361Y-80125961D01*
X183529532Y-80155470D01*
X183366207Y-80228187D01*
X183353549Y-80237384D01*
X183353078Y-80237726D01*
X183349783Y-80239245D01*
X183344348Y-80242383D01*
X183344060Y-80241884D01*
X183264849Y-80278403D01*
X183167769Y-80282221D01*
X183137252Y-80275400D01*
X183015069Y-80239902D01*
X183002384Y-80238904D01*
X183002380Y-80238903D01*
X182983078Y-80237384D01*
X182983069Y-80237384D01*
X182978194Y-80237000D01*
X182975336Y-80237000D01*
X182881265Y-80214417D01*
X182802664Y-80157312D01*
X182769872Y-80112795D01*
X182712072Y-80012682D01*
X182703342Y-80002986D01*
X182703338Y-80002981D01*
X182676957Y-79973683D01*
X182627282Y-79890187D01*
X182613000Y-79807069D01*
X182613000Y-78946806D01*
X182610098Y-78909931D01*
X182590806Y-78843526D01*
X182572887Y-78781851D01*
X182563000Y-78712382D01*
X182563000Y-78701556D01*
X182581954Y-78606268D01*
X182635777Y-78525640D01*
X182695263Y-78466050D01*
X182695264Y-78466049D01*
X182705484Y-78455811D01*
X182740987Y-78398215D01*
X182789720Y-78319154D01*
X182789720Y-78319153D01*
X182797314Y-78306834D01*
X182825792Y-78220977D01*
X182848129Y-78153636D01*
X182848130Y-78153632D01*
X182852410Y-78140728D01*
X182863000Y-78037366D01*
X182863000Y-77237000D01*
X182881954Y-77141712D01*
X182935930Y-77060930D01*
X183016712Y-77006954D01*
X183112000Y-76988000D01*
X184088000Y-76988000D01*
X184183288Y-77006954D01*
G37*
G04 #@! TD.AperFunction*
G04 #@! TA.AperFunction,Conductor*
G36*
X180708788Y-69506954D02*
G01*
X180789570Y-69560930D01*
X180843546Y-69641712D01*
X180862500Y-69737000D01*
X180862500Y-70637500D01*
X181041931Y-70637500D01*
X181137219Y-70656454D01*
X181218001Y-70710430D01*
X181265824Y-70782003D01*
X181267528Y-70781205D01*
X181273667Y-70794311D01*
X181278244Y-70808029D01*
X181285854Y-70820326D01*
X181285855Y-70820329D01*
X181322437Y-70879445D01*
X181370334Y-70956845D01*
X181380570Y-70967063D01*
X181475449Y-71061777D01*
X181529496Y-71142511D01*
X181548533Y-71237783D01*
X181529662Y-71333088D01*
X181475756Y-71413916D01*
X181395022Y-71467963D01*
X181299533Y-71487000D01*
X180946806Y-71487000D01*
X180936246Y-71487831D01*
X180922620Y-71488903D01*
X180922616Y-71488904D01*
X180909931Y-71489902D01*
X180897714Y-71493452D01*
X180897711Y-71493452D01*
X180812871Y-71518101D01*
X180752102Y-71535756D01*
X180738621Y-71543728D01*
X180738620Y-71543729D01*
X180627235Y-71609602D01*
X180610635Y-71619419D01*
X180494419Y-71735635D01*
X180486446Y-71749117D01*
X180486445Y-71749118D01*
X180423379Y-71855757D01*
X180410756Y-71877102D01*
X180394146Y-71934272D01*
X180372565Y-72008556D01*
X180364902Y-72034931D01*
X180362000Y-72071806D01*
X180362000Y-72503194D01*
X180364902Y-72540069D01*
X180368452Y-72552286D01*
X180368452Y-72552289D01*
X180409342Y-72693031D01*
X180417725Y-72789823D01*
X180409342Y-72831969D01*
X180381675Y-72927200D01*
X180364902Y-72984931D01*
X180362000Y-73021806D01*
X180362000Y-73149569D01*
X180343046Y-73244857D01*
X180289070Y-73325639D01*
X180208288Y-73379615D01*
X180113000Y-73398569D01*
X180087627Y-73397272D01*
X180046131Y-73393021D01*
X179993685Y-73387647D01*
X179993677Y-73387647D01*
X179987366Y-73387000D01*
X178937634Y-73387000D01*
X178924234Y-73388390D01*
X178872324Y-73393776D01*
X178775588Y-73384757D01*
X178689668Y-73339406D01*
X178627643Y-73264626D01*
X178598957Y-73171803D01*
X178610289Y-73067718D01*
X178652410Y-72940728D01*
X178658410Y-72882165D01*
X178662353Y-72843685D01*
X178662353Y-72843677D01*
X178663000Y-72837366D01*
X178663000Y-72037634D01*
X178652141Y-71932981D01*
X178633499Y-71877102D01*
X178601333Y-71780690D01*
X178596756Y-71766971D01*
X178585709Y-71749118D01*
X178529860Y-71658868D01*
X178504666Y-71618155D01*
X178405098Y-71518761D01*
X178351054Y-71438030D01*
X178332017Y-71342759D01*
X178350888Y-71247454D01*
X178404947Y-71166471D01*
X180010488Y-69560930D01*
X180091270Y-69506954D01*
X180186558Y-69488000D01*
X180613500Y-69488000D01*
X180708788Y-69506954D01*
G37*
G04 #@! TD.AperFunction*
G04 #@! TA.AperFunction,Conductor*
G36*
X188381315Y-59546851D02*
G01*
X188399166Y-59548256D01*
X188592732Y-59578914D01*
X188630450Y-59587969D01*
X188816816Y-59648522D01*
X188852662Y-59663369D01*
X189027314Y-59752360D01*
X189060387Y-59772628D01*
X189218915Y-59887806D01*
X189248413Y-59913000D01*
X189387000Y-60051587D01*
X189412194Y-60081085D01*
X189527372Y-60239613D01*
X189547640Y-60272686D01*
X189636631Y-60447338D01*
X189651478Y-60483184D01*
X189712031Y-60669550D01*
X189721086Y-60707268D01*
X189751745Y-60900841D01*
X189758650Y-60988578D01*
X189762500Y-61086573D01*
X189762500Y-61709073D01*
X189779610Y-61970125D01*
X189830648Y-62226711D01*
X189914741Y-62474440D01*
X190030449Y-62709073D01*
X190167831Y-62914680D01*
X190254633Y-63066662D01*
X190283239Y-63126064D01*
X190313905Y-63189741D01*
X190370113Y-63306459D01*
X190374108Y-63314193D01*
X190374123Y-63314222D01*
X190430598Y-63423538D01*
X190434630Y-63431342D01*
X190461592Y-63480125D01*
X190532986Y-63601154D01*
X190682057Y-63838399D01*
X190760146Y-63955267D01*
X190765245Y-63962453D01*
X190787338Y-63993591D01*
X190787363Y-63993625D01*
X190792412Y-64000741D01*
X190876903Y-64113010D01*
X191051622Y-64332103D01*
X191142306Y-64439494D01*
X191226275Y-64533455D01*
X191273832Y-64585192D01*
X191370103Y-64687021D01*
X191419093Y-64737405D01*
X195670539Y-68988851D01*
X195734980Y-69049577D01*
X195772000Y-69084463D01*
X195772021Y-69084482D01*
X195778737Y-69090811D01*
X195785643Y-69096943D01*
X195785659Y-69096957D01*
X195906052Y-69203845D01*
X196000406Y-69287616D01*
X196006937Y-69292737D01*
X196145672Y-69432075D01*
X196147240Y-69430692D01*
X196340175Y-69649534D01*
X196354777Y-69666097D01*
X196361507Y-69673264D01*
X196361510Y-69673267D01*
X196411697Y-69726711D01*
X196462526Y-69780838D01*
X201391176Y-74709488D01*
X201534681Y-74881378D01*
X201645186Y-75076129D01*
X201719142Y-75287483D01*
X201754171Y-75508645D01*
X201757000Y-75592664D01*
X201757000Y-104742032D01*
X201736928Y-104965050D01*
X201677357Y-105180899D01*
X201580203Y-105382643D01*
X201448586Y-105563797D01*
X201286739Y-105718540D01*
X201099862Y-105841896D01*
X200944487Y-105912280D01*
X200909664Y-105925268D01*
X200738685Y-105975473D01*
X200634415Y-105998155D01*
X200458029Y-106023516D01*
X200400004Y-106027666D01*
X200306986Y-106034318D01*
X200217888Y-106037500D01*
X191111857Y-106037500D01*
X190916471Y-106022123D01*
X190886828Y-106017428D01*
X190569838Y-105967222D01*
X190537184Y-105965511D01*
X190537178Y-105965510D01*
X190215166Y-105948634D01*
X190182500Y-105946922D01*
X190149834Y-105948634D01*
X189827822Y-105965510D01*
X189827816Y-105965511D01*
X189795162Y-105967222D01*
X189478172Y-106017428D01*
X189448529Y-106022123D01*
X189253143Y-106037500D01*
X184111857Y-106037500D01*
X183916471Y-106022123D01*
X183886828Y-106017428D01*
X183569838Y-105967222D01*
X183537184Y-105965511D01*
X183537178Y-105965510D01*
X183215166Y-105948634D01*
X183182500Y-105946922D01*
X183149834Y-105948634D01*
X182827822Y-105965510D01*
X182827816Y-105965511D01*
X182795162Y-105967222D01*
X182478172Y-106017428D01*
X182448529Y-106022123D01*
X182253143Y-106037500D01*
X177111857Y-106037500D01*
X176916471Y-106022123D01*
X176886828Y-106017428D01*
X176569838Y-105967222D01*
X176537184Y-105965511D01*
X176537178Y-105965510D01*
X176215166Y-105948634D01*
X176182500Y-105946922D01*
X176149834Y-105948634D01*
X175827822Y-105965510D01*
X175827816Y-105965511D01*
X175795162Y-105967222D01*
X175478172Y-106017428D01*
X175448529Y-106022123D01*
X175253143Y-106037500D01*
X170111857Y-106037500D01*
X169916471Y-106022123D01*
X169886828Y-106017428D01*
X169569838Y-105967222D01*
X169537184Y-105965511D01*
X169537178Y-105965510D01*
X169215166Y-105948634D01*
X169182500Y-105946922D01*
X169149834Y-105948634D01*
X168827822Y-105965510D01*
X168827816Y-105965511D01*
X168795162Y-105967222D01*
X168478172Y-106017428D01*
X168448529Y-106022123D01*
X168253143Y-106037500D01*
X163111857Y-106037500D01*
X162916471Y-106022123D01*
X162886828Y-106017428D01*
X162569838Y-105967222D01*
X162537184Y-105965511D01*
X162537178Y-105965510D01*
X162215166Y-105948634D01*
X162182500Y-105946922D01*
X162149834Y-105948634D01*
X161827822Y-105965510D01*
X161827816Y-105965511D01*
X161795162Y-105967222D01*
X161478172Y-106017428D01*
X161448529Y-106022123D01*
X161253143Y-106037500D01*
X156111857Y-106037500D01*
X155916471Y-106022123D01*
X155886828Y-106017428D01*
X155569838Y-105967222D01*
X155537184Y-105965511D01*
X155537178Y-105965510D01*
X155215166Y-105948634D01*
X155182500Y-105946922D01*
X155149834Y-105948634D01*
X154827822Y-105965510D01*
X154827816Y-105965511D01*
X154795162Y-105967222D01*
X154478172Y-106017428D01*
X154448529Y-106022123D01*
X154253143Y-106037500D01*
X149111857Y-106037500D01*
X148916471Y-106022123D01*
X148886828Y-106017428D01*
X148569838Y-105967222D01*
X148537184Y-105965511D01*
X148537178Y-105965510D01*
X148215166Y-105948634D01*
X148182500Y-105946922D01*
X148149834Y-105948634D01*
X147827822Y-105965510D01*
X147827816Y-105965511D01*
X147795162Y-105967222D01*
X147478172Y-106017428D01*
X147448529Y-106022123D01*
X147253143Y-106037500D01*
X142111857Y-106037500D01*
X141916471Y-106022123D01*
X141886828Y-106017428D01*
X141569838Y-105967222D01*
X141537184Y-105965511D01*
X141537178Y-105965510D01*
X141215166Y-105948634D01*
X141182500Y-105946922D01*
X141149834Y-105948634D01*
X140827822Y-105965510D01*
X140827816Y-105965511D01*
X140795162Y-105967222D01*
X140478172Y-106017428D01*
X140448529Y-106022123D01*
X140253143Y-106037500D01*
X135111857Y-106037500D01*
X134916471Y-106022123D01*
X134886828Y-106017428D01*
X134569838Y-105967222D01*
X134537184Y-105965511D01*
X134537178Y-105965510D01*
X134215166Y-105948634D01*
X134182500Y-105946922D01*
X134149834Y-105948634D01*
X133827822Y-105965510D01*
X133827816Y-105965511D01*
X133795162Y-105967222D01*
X133478172Y-106017428D01*
X133448529Y-106022123D01*
X133253143Y-106037500D01*
X129262000Y-106037500D01*
X129038982Y-106017428D01*
X128823133Y-105957857D01*
X128621389Y-105860703D01*
X128440235Y-105729086D01*
X128285492Y-105567239D01*
X128162136Y-105380362D01*
X128074130Y-105174462D01*
X128024304Y-104956157D01*
X128013000Y-104788500D01*
X128013000Y-103286500D01*
X128033072Y-103063482D01*
X128092643Y-102847633D01*
X128189797Y-102645889D01*
X128321414Y-102464735D01*
X128483261Y-102309992D01*
X128670138Y-102186636D01*
X128876038Y-102098630D01*
X129094343Y-102048804D01*
X129262000Y-102037500D01*
X196262500Y-102037500D01*
X196415876Y-102026530D01*
X196502643Y-102020325D01*
X196502646Y-102020325D01*
X196547130Y-102017143D01*
X196590710Y-102007663D01*
X196590715Y-102007662D01*
X196667823Y-101990888D01*
X196825965Y-101956486D01*
X197093330Y-101856764D01*
X197343782Y-101720007D01*
X197572221Y-101548999D01*
X197773999Y-101347221D01*
X197945007Y-101118782D01*
X198081764Y-100868330D01*
X198181486Y-100600965D01*
X198242143Y-100322130D01*
X198262500Y-100037500D01*
X198262500Y-99497284D01*
X198282572Y-99274266D01*
X198342143Y-99058417D01*
X198439297Y-98856673D01*
X198448609Y-98841731D01*
X198453814Y-98832716D01*
X198471625Y-98805289D01*
X198647714Y-98459694D01*
X198786714Y-98097587D01*
X198887102Y-97722933D01*
X198947778Y-97339838D01*
X198968078Y-96952500D01*
X198947778Y-96565162D01*
X198887102Y-96182067D01*
X198786714Y-95807413D01*
X198647714Y-95445306D01*
X198471625Y-95099711D01*
X198453808Y-95072275D01*
X198437459Y-95043958D01*
X198439973Y-95042507D01*
X198359369Y-94889997D01*
X198291769Y-94676525D01*
X198263373Y-94454414D01*
X198262500Y-94407716D01*
X198262500Y-77365927D01*
X198245390Y-77104875D01*
X198194352Y-76848289D01*
X198110259Y-76600560D01*
X197994551Y-76365927D01*
X197849207Y-76148404D01*
X197676714Y-75951714D01*
X185348286Y-63623286D01*
X185151596Y-63450793D01*
X184934073Y-63305449D01*
X184699440Y-63189741D01*
X184451711Y-63105648D01*
X184195125Y-63054610D01*
X183934073Y-63037500D01*
X173262500Y-63037500D01*
X173109124Y-63048470D01*
X173022357Y-63054675D01*
X173022354Y-63054675D01*
X172977870Y-63057857D01*
X172934290Y-63067337D01*
X172934285Y-63067338D01*
X172857177Y-63084112D01*
X172699035Y-63118514D01*
X172431670Y-63218236D01*
X172181218Y-63354993D01*
X171952779Y-63526001D01*
X171751001Y-63727779D01*
X171579993Y-63956218D01*
X171443236Y-64206670D01*
X171343514Y-64474035D01*
X171282857Y-64752870D01*
X171262500Y-65037500D01*
X171262500Y-70168184D01*
X171259826Y-70249872D01*
X171250744Y-70388437D01*
X171229421Y-70550406D01*
X171210322Y-70646424D01*
X171168038Y-70804230D01*
X171136570Y-70896931D01*
X171074053Y-71047858D01*
X171030759Y-71135650D01*
X170949071Y-71277138D01*
X170894688Y-71358529D01*
X170795234Y-71488140D01*
X170703671Y-71592548D01*
X170647797Y-71652203D01*
X162877203Y-79422797D01*
X162817548Y-79478671D01*
X162713140Y-79570234D01*
X162583531Y-79669687D01*
X162502138Y-79724071D01*
X162360650Y-79805759D01*
X162272858Y-79849053D01*
X162121933Y-79911569D01*
X162029230Y-79943038D01*
X161871424Y-79985322D01*
X161775407Y-80004421D01*
X161613437Y-80025744D01*
X161566053Y-80028850D01*
X161474870Y-80034826D01*
X161393184Y-80037500D01*
X129262000Y-80037500D01*
X129038982Y-80017428D01*
X128823133Y-79957857D01*
X128621389Y-79860703D01*
X128440235Y-79729086D01*
X128285492Y-79567239D01*
X128162136Y-79380362D01*
X128074130Y-79174462D01*
X128024304Y-78956157D01*
X128013000Y-78788500D01*
X128013000Y-77286500D01*
X128033072Y-77063482D01*
X128092643Y-76847633D01*
X128189797Y-76645889D01*
X128321414Y-76464735D01*
X128483261Y-76309992D01*
X128670138Y-76186636D01*
X128876038Y-76098630D01*
X129094343Y-76048804D01*
X129262000Y-76037500D01*
X131341574Y-76037500D01*
X131536960Y-76052877D01*
X131915162Y-76112778D01*
X131947816Y-76114489D01*
X131947822Y-76114490D01*
X132269834Y-76131366D01*
X132302500Y-76133078D01*
X132335166Y-76131366D01*
X132657178Y-76114490D01*
X132657184Y-76114489D01*
X132689838Y-76112778D01*
X133068040Y-76052877D01*
X133263426Y-76037500D01*
X138341574Y-76037500D01*
X138536960Y-76052877D01*
X138915162Y-76112778D01*
X138947816Y-76114489D01*
X138947822Y-76114490D01*
X139269834Y-76131366D01*
X139302500Y-76133078D01*
X139335166Y-76131366D01*
X139657178Y-76114490D01*
X139657184Y-76114489D01*
X139689838Y-76112778D01*
X140068040Y-76052877D01*
X140263426Y-76037500D01*
X145341574Y-76037500D01*
X145536960Y-76052877D01*
X145915162Y-76112778D01*
X145947816Y-76114489D01*
X145947822Y-76114490D01*
X146269834Y-76131366D01*
X146302500Y-76133078D01*
X146335166Y-76131366D01*
X146657178Y-76114490D01*
X146657184Y-76114489D01*
X146689838Y-76112778D01*
X147068040Y-76052877D01*
X147263426Y-76037500D01*
X152341574Y-76037500D01*
X152536960Y-76052877D01*
X152915162Y-76112778D01*
X152947816Y-76114489D01*
X152947822Y-76114490D01*
X153269834Y-76131366D01*
X153302500Y-76133078D01*
X153335166Y-76131366D01*
X153657178Y-76114490D01*
X153657184Y-76114489D01*
X153689838Y-76112778D01*
X154068040Y-76052877D01*
X154263426Y-76037500D01*
X159341574Y-76037500D01*
X159536960Y-76052877D01*
X159915162Y-76112778D01*
X159947816Y-76114489D01*
X159947822Y-76114490D01*
X160269834Y-76131366D01*
X160302500Y-76133078D01*
X160335166Y-76131366D01*
X160657178Y-76114490D01*
X160657184Y-76114489D01*
X160689838Y-76112778D01*
X161072933Y-76052102D01*
X161299528Y-75991386D01*
X161416007Y-75960176D01*
X161416010Y-75960175D01*
X161447587Y-75951714D01*
X161518891Y-75924343D01*
X161779160Y-75824435D01*
X161779161Y-75824434D01*
X161809694Y-75812714D01*
X162155289Y-75636625D01*
X162182704Y-75618821D01*
X162182710Y-75618818D01*
X162453160Y-75443186D01*
X162453168Y-75443180D01*
X162480584Y-75425376D01*
X162707342Y-75241751D01*
X162756607Y-75201857D01*
X162756609Y-75201855D01*
X162782016Y-75181281D01*
X163056281Y-74907016D01*
X163300376Y-74605584D01*
X163318180Y-74578168D01*
X163318186Y-74578160D01*
X163493810Y-74307722D01*
X163493812Y-74307719D01*
X163511625Y-74280289D01*
X163537605Y-74229301D01*
X163656734Y-74039707D01*
X163767295Y-73913159D01*
X164146120Y-73534335D01*
X164624830Y-73055625D01*
X164673578Y-73010048D01*
X164681356Y-73002484D01*
X164706390Y-72980607D01*
X164769955Y-72911843D01*
X164780688Y-72900379D01*
X164791881Y-72888574D01*
X164803658Y-72876797D01*
X164843840Y-72832092D01*
X164855523Y-72819276D01*
X164859626Y-72814838D01*
X164959606Y-72706680D01*
X164974230Y-72687024D01*
X164990607Y-72668804D01*
X165080469Y-72544436D01*
X165090707Y-72530473D01*
X165162430Y-72434074D01*
X165162430Y-72434073D01*
X165182279Y-72407396D01*
X165194732Y-72386297D01*
X165209079Y-72366441D01*
X165285186Y-72233282D01*
X165293928Y-72218233D01*
X165354982Y-72114790D01*
X165354989Y-72114777D01*
X165371888Y-72086145D01*
X165382024Y-72063852D01*
X165394186Y-72042573D01*
X165407523Y-72012117D01*
X165422465Y-71982409D01*
X165423797Y-71983079D01*
X165514138Y-71818697D01*
X165667219Y-71632781D01*
X166676714Y-70623286D01*
X166849207Y-70426596D01*
X166994551Y-70209073D01*
X167110259Y-69974440D01*
X167194352Y-69726711D01*
X167245390Y-69470125D01*
X167262500Y-69209073D01*
X167262500Y-61582112D01*
X167265682Y-61493014D01*
X167276484Y-61341974D01*
X167301845Y-61165585D01*
X167324527Y-61061315D01*
X167374728Y-60890346D01*
X167412021Y-60790359D01*
X167486048Y-60628266D01*
X167537180Y-60534625D01*
X167633525Y-60384709D01*
X167697472Y-60299286D01*
X167814171Y-60164609D01*
X167889609Y-60089171D01*
X168024286Y-59972472D01*
X168109709Y-59908525D01*
X168259625Y-59812180D01*
X168353266Y-59761048D01*
X168515359Y-59687021D01*
X168615346Y-59649728D01*
X168786315Y-59599527D01*
X168890585Y-59576845D01*
X169066978Y-59551484D01*
X169141117Y-59546182D01*
X169230211Y-59543000D01*
X188283313Y-59543000D01*
X188381315Y-59546851D01*
G37*
G04 #@! TD.AperFunction*
G04 #@! TA.AperFunction,Conductor*
G36*
X208026208Y-49107705D02*
G01*
X208334476Y-49166511D01*
X208632943Y-49263489D01*
X208916902Y-49397110D01*
X209181875Y-49565267D01*
X209423683Y-49765307D01*
X209638513Y-49994077D01*
X209822975Y-50247969D01*
X209974163Y-50522978D01*
X210089690Y-50814767D01*
X210167736Y-51118734D01*
X210207069Y-51430086D01*
X210212000Y-51587000D01*
X210212000Y-130488000D01*
X210192295Y-130801208D01*
X210133489Y-131109476D01*
X210036511Y-131407943D01*
X209902890Y-131691902D01*
X209734733Y-131956875D01*
X209534693Y-132198683D01*
X209305923Y-132413513D01*
X209052031Y-132597975D01*
X208777022Y-132749163D01*
X208485233Y-132864690D01*
X208181266Y-132942736D01*
X207869914Y-132982069D01*
X207713000Y-132987000D01*
X158261500Y-132987000D01*
X157948292Y-132967295D01*
X157640024Y-132908489D01*
X157341557Y-132811511D01*
X157057598Y-132677890D01*
X156792625Y-132509733D01*
X156550817Y-132309693D01*
X156335987Y-132080923D01*
X156151525Y-131827031D01*
X156000337Y-131552022D01*
X155884810Y-131260233D01*
X155806764Y-130956266D01*
X155767431Y-130644914D01*
X155762500Y-130488000D01*
X155762500Y-123567631D01*
X155782205Y-123254423D01*
X155841011Y-122946155D01*
X155937989Y-122647688D01*
X156039849Y-122423399D01*
X156092213Y-122321728D01*
X156092216Y-122321721D01*
X156124673Y-122258703D01*
X156247014Y-121935790D01*
X156332013Y-121601102D01*
X156378579Y-121258945D01*
X156383000Y-121146421D01*
X156383000Y-120555462D01*
X156402705Y-120242254D01*
X156461511Y-119933986D01*
X156558489Y-119635519D01*
X156692110Y-119351560D01*
X156860267Y-119086587D01*
X157060307Y-118844779D01*
X157289077Y-118629949D01*
X157542969Y-118445487D01*
X157817978Y-118294299D01*
X158109767Y-118178772D01*
X158413734Y-118100726D01*
X158725086Y-118061393D01*
X159038914Y-118061393D01*
X159350266Y-118100726D01*
X159573816Y-118154131D01*
X159618485Y-118167000D01*
X159883017Y-118259565D01*
X159934518Y-118280898D01*
X160186969Y-118402473D01*
X160235752Y-118429434D01*
X160473032Y-118578524D01*
X160518506Y-118610790D01*
X160737621Y-118785528D01*
X160779209Y-118822694D01*
X160977306Y-119020791D01*
X161014472Y-119062379D01*
X161189229Y-119281521D01*
X161201115Y-119298272D01*
X161366284Y-119565118D01*
X161496705Y-119850561D01*
X161590322Y-120150100D01*
X161645658Y-120459009D01*
X161662000Y-120744331D01*
X161662000Y-121087850D01*
X161665274Y-121132971D01*
X161670376Y-121203287D01*
X161676406Y-121286398D01*
X161689381Y-121345167D01*
X161689382Y-121345175D01*
X161703735Y-121410184D01*
X161752017Y-121720275D01*
X161762500Y-121948934D01*
X161762500Y-122037500D01*
X161781363Y-122373393D01*
X161837716Y-122705063D01*
X161930850Y-123028337D01*
X162059593Y-123339151D01*
X162222327Y-123633596D01*
X162417006Y-123907969D01*
X162641180Y-124158820D01*
X162892031Y-124382994D01*
X163166404Y-124577673D01*
X163227772Y-124611590D01*
X163227777Y-124611593D01*
X163295355Y-124648942D01*
X163460849Y-124740407D01*
X163771663Y-124869150D01*
X164094937Y-124962284D01*
X164426607Y-125018637D01*
X164762500Y-125037500D01*
X191762500Y-125037500D01*
X192098393Y-125018637D01*
X192430063Y-124962284D01*
X192753337Y-124869150D01*
X193064151Y-124740407D01*
X193229645Y-124648942D01*
X193297223Y-124611593D01*
X193297228Y-124611590D01*
X193358596Y-124577673D01*
X193632969Y-124382994D01*
X193883820Y-124158820D01*
X194107994Y-123907969D01*
X194302673Y-123633596D01*
X194465407Y-123339151D01*
X194475478Y-123314837D01*
X194609982Y-123075294D01*
X194712057Y-122929284D01*
X194728914Y-122906914D01*
X194774718Y-122852808D01*
X194841072Y-122753502D01*
X194927181Y-122624631D01*
X194927184Y-122624626D01*
X194966563Y-122565691D01*
X195018451Y-122464946D01*
X195087921Y-122330061D01*
X195124673Y-122258703D01*
X195247014Y-121935790D01*
X195332013Y-121601102D01*
X195378579Y-121258945D01*
X195383000Y-121146421D01*
X195383000Y-121036500D01*
X195402705Y-120723292D01*
X195461511Y-120415024D01*
X195558489Y-120116557D01*
X195692110Y-119832598D01*
X195860267Y-119567625D01*
X196060307Y-119325817D01*
X196289077Y-119110987D01*
X196542969Y-118926525D01*
X196817978Y-118775337D01*
X197109767Y-118659810D01*
X197413734Y-118581764D01*
X197725086Y-118542431D01*
X197882000Y-118537500D01*
X198163000Y-118537500D01*
X198476208Y-118557205D01*
X198784476Y-118616011D01*
X199082943Y-118712989D01*
X199366902Y-118846610D01*
X199631875Y-119014767D01*
X199873683Y-119214807D01*
X200088513Y-119443577D01*
X200272975Y-119697469D01*
X200424163Y-119972478D01*
X200539690Y-120264267D01*
X200617736Y-120568234D01*
X200657069Y-120879586D01*
X200662000Y-121036500D01*
X200662000Y-121087850D01*
X200665274Y-121132971D01*
X200670376Y-121203287D01*
X200676406Y-121286398D01*
X200689382Y-121345172D01*
X200715363Y-121462849D01*
X200733989Y-121547216D01*
X200828620Y-121796989D01*
X200857842Y-121849599D01*
X200857845Y-121849605D01*
X200905717Y-121935790D01*
X200958316Y-122030486D01*
X200994827Y-122078326D01*
X200994829Y-122078330D01*
X201033808Y-122129404D01*
X201120360Y-122242814D01*
X201311358Y-122429527D01*
X201527308Y-122586712D01*
X201580566Y-122614732D01*
X201580567Y-122614733D01*
X201670852Y-122662234D01*
X201763687Y-122711077D01*
X201820424Y-122731113D01*
X201820429Y-122731115D01*
X201941488Y-122773865D01*
X201941493Y-122773866D01*
X202015543Y-122800016D01*
X202277600Y-122851667D01*
X202544368Y-122864948D01*
X202604268Y-122859233D01*
X202604272Y-122859233D01*
X202732079Y-122847039D01*
X202732080Y-122847039D01*
X202810259Y-122839580D01*
X202971943Y-122800016D01*
X202993423Y-122794760D01*
X202993427Y-122794759D01*
X203069703Y-122776094D01*
X203317265Y-122675821D01*
X203421596Y-122614733D01*
X203479991Y-122580541D01*
X203479993Y-122580540D01*
X203547759Y-122540861D01*
X203756357Y-122374042D01*
X203805233Y-122321721D01*
X203885073Y-122236252D01*
X203885075Y-122236250D01*
X203938688Y-122178857D01*
X204090933Y-121959397D01*
X204209903Y-121720257D01*
X204293106Y-121466448D01*
X204338798Y-121203287D01*
X204343000Y-121118885D01*
X204343000Y-119432150D01*
X204335285Y-119325817D01*
X204334278Y-119311936D01*
X204334277Y-119311931D01*
X204328594Y-119233602D01*
X204271011Y-118972784D01*
X204214147Y-118822694D01*
X204204207Y-118796458D01*
X204204205Y-118796454D01*
X204176380Y-118723011D01*
X204162037Y-118697189D01*
X204065021Y-118441121D01*
X203991493Y-118136029D01*
X203956783Y-117824128D01*
X203961438Y-117510335D01*
X204005385Y-117199601D01*
X204086528Y-116900945D01*
X204148950Y-116717058D01*
X204175248Y-116639587D01*
X204240593Y-116311073D01*
X204262500Y-115976840D01*
X204262500Y-75280141D01*
X204243637Y-74944247D01*
X204187284Y-74612578D01*
X204141557Y-74453858D01*
X204113557Y-74356665D01*
X204113554Y-74356656D01*
X204094150Y-74289304D01*
X203965407Y-73978489D01*
X203802673Y-73684044D01*
X203607994Y-73409671D01*
X203561273Y-73357390D01*
X203407187Y-73184967D01*
X203407176Y-73184955D01*
X203383820Y-73158820D01*
X198234182Y-68009182D01*
X198026645Y-67773777D01*
X197886532Y-67567607D01*
X197663864Y-67414000D01*
X197442195Y-67217195D01*
X193690336Y-63465336D01*
X201032000Y-63465336D01*
X201032321Y-63471672D01*
X201073041Y-63673622D01*
X201152211Y-63863816D01*
X201238851Y-63993236D01*
X201266816Y-64035010D01*
X201264356Y-64036657D01*
X201322250Y-64123136D01*
X201411790Y-64181730D01*
X201412490Y-64180684D01*
X201583684Y-64295289D01*
X201623941Y-64312046D01*
X201623949Y-64312050D01*
X201656180Y-64325466D01*
X201773878Y-64374459D01*
X201816623Y-64383078D01*
X201816632Y-64383080D01*
X201898842Y-64399656D01*
X201975828Y-64415179D01*
X201982164Y-64415500D01*
X203782836Y-64415500D01*
X203789172Y-64415179D01*
X203991122Y-64374459D01*
X204181316Y-64295289D01*
X204352510Y-64180684D01*
X204498184Y-64035010D01*
X204612789Y-63863816D01*
X204691959Y-63673622D01*
X204732679Y-63471672D01*
X204733000Y-63465336D01*
X204733000Y-60164664D01*
X204732679Y-60158328D01*
X204691959Y-59956378D01*
X204612789Y-59766184D01*
X204498184Y-59594990D01*
X204352510Y-59449316D01*
X204181316Y-59334711D01*
X204141059Y-59317954D01*
X204141051Y-59317950D01*
X204080686Y-59292823D01*
X203991122Y-59255541D01*
X203948377Y-59246922D01*
X203948368Y-59246920D01*
X203866158Y-59230344D01*
X203789172Y-59214821D01*
X203782836Y-59214500D01*
X201982164Y-59214500D01*
X201975828Y-59214821D01*
X201773878Y-59255541D01*
X201583684Y-59334711D01*
X201412490Y-59449316D01*
X201266816Y-59594990D01*
X201152211Y-59766184D01*
X201073041Y-59956378D01*
X201032321Y-60158328D01*
X201032000Y-60164664D01*
X201032000Y-63465336D01*
X193690336Y-63465336D01*
X193190749Y-62965749D01*
X193094478Y-62863920D01*
X193010509Y-62769959D01*
X192835790Y-62550866D01*
X192803524Y-62505392D01*
X192654453Y-62268147D01*
X192627491Y-62219364D01*
X192505879Y-61966834D01*
X192484548Y-61915335D01*
X192391998Y-61650838D01*
X192376564Y-61597265D01*
X192314213Y-61324094D01*
X192304874Y-61269127D01*
X192273494Y-60990628D01*
X192266431Y-60864849D01*
X192262500Y-60724741D01*
X192262500Y-59537500D01*
X192248110Y-59317950D01*
X192246463Y-59292823D01*
X192246463Y-59292821D01*
X192241112Y-59211185D01*
X192177315Y-58890452D01*
X192072199Y-58580791D01*
X191927564Y-58287500D01*
X191745883Y-58015596D01*
X191530267Y-57769733D01*
X191284404Y-57554117D01*
X191012500Y-57372436D01*
X190719209Y-57227801D01*
X190409548Y-57122685D01*
X190088815Y-57058888D01*
X190007179Y-57053537D01*
X190007177Y-57053537D01*
X189968189Y-57050982D01*
X189762500Y-57037500D01*
X143012500Y-57037500D01*
X142718816Y-57056749D01*
X142430157Y-57114167D01*
X142151462Y-57208771D01*
X141887500Y-57338943D01*
X141642787Y-57502455D01*
X141421510Y-57696510D01*
X141227455Y-57917787D01*
X141226429Y-57916887D01*
X141090405Y-58072814D01*
X140856091Y-58281582D01*
X140621937Y-58440563D01*
X140621952Y-58440585D01*
X140620080Y-58441824D01*
X140573043Y-58473760D01*
X140501594Y-58515428D01*
X140444795Y-58557842D01*
X140444792Y-58557844D01*
X140365605Y-58616976D01*
X140224912Y-58722037D01*
X140173278Y-58770610D01*
X140173276Y-58770611D01*
X140041003Y-58895041D01*
X139973396Y-58958639D01*
X139750282Y-59222192D01*
X139668970Y-59343885D01*
X139611703Y-59429591D01*
X139558437Y-59509309D01*
X139525983Y-59572321D01*
X139525980Y-59572327D01*
X139484996Y-59651902D01*
X139400327Y-59816297D01*
X139277986Y-60139210D01*
X139192987Y-60473898D01*
X139146421Y-60816055D01*
X139142000Y-60928579D01*
X139142000Y-61538500D01*
X139122295Y-61851708D01*
X139063489Y-62159976D01*
X138966511Y-62458443D01*
X138832890Y-62742402D01*
X138664733Y-63007375D01*
X138464693Y-63249183D01*
X138235923Y-63464013D01*
X137982031Y-63648475D01*
X137707022Y-63799663D01*
X137415233Y-63915190D01*
X137111266Y-63993236D01*
X136799914Y-64032569D01*
X136643000Y-64037500D01*
X136362000Y-64037500D01*
X136048792Y-64017795D01*
X135740524Y-63958989D01*
X135442057Y-63862011D01*
X135158098Y-63728390D01*
X134893125Y-63560233D01*
X134651317Y-63360193D01*
X134436487Y-63131423D01*
X134252025Y-62877531D01*
X134100837Y-62602522D01*
X133985310Y-62310733D01*
X133907264Y-62006766D01*
X133867931Y-61695414D01*
X133863000Y-61538500D01*
X133863000Y-60987150D01*
X133854935Y-60875991D01*
X133854278Y-60866936D01*
X133854277Y-60866931D01*
X133848594Y-60788602D01*
X133813401Y-60629197D01*
X133807943Y-60604475D01*
X133807942Y-60604471D01*
X133791011Y-60527784D01*
X133696380Y-60278011D01*
X133667158Y-60225401D01*
X133667155Y-60225395D01*
X133604820Y-60113172D01*
X133566684Y-60044514D01*
X133525171Y-59990118D01*
X133452280Y-59894609D01*
X133452279Y-59894607D01*
X133404640Y-59832186D01*
X133338640Y-59767666D01*
X133269800Y-59700371D01*
X133269799Y-59700370D01*
X133213642Y-59645473D01*
X132997692Y-59488288D01*
X132925620Y-59450369D01*
X132830810Y-59400487D01*
X132830808Y-59400486D01*
X132761313Y-59363923D01*
X132704576Y-59343887D01*
X132704571Y-59343885D01*
X132583512Y-59301135D01*
X132583507Y-59301134D01*
X132509457Y-59274984D01*
X132247400Y-59223333D01*
X131980632Y-59210052D01*
X131920732Y-59215767D01*
X131920728Y-59215767D01*
X131792921Y-59227961D01*
X131714741Y-59235420D01*
X131600618Y-59263346D01*
X131531577Y-59280240D01*
X131531573Y-59280241D01*
X131455297Y-59298906D01*
X131207735Y-59399179D01*
X131155797Y-59429590D01*
X131155795Y-59429591D01*
X131045009Y-59494459D01*
X130977241Y-59534139D01*
X130768643Y-59700958D01*
X130727560Y-59744937D01*
X130727557Y-59744940D01*
X130638167Y-59840632D01*
X130409960Y-60056060D01*
X130156552Y-60241187D01*
X129881941Y-60393094D01*
X129590455Y-60509386D01*
X129286693Y-60588227D01*
X128975445Y-60628375D01*
X128661619Y-60629197D01*
X128350164Y-60590680D01*
X128045994Y-60513431D01*
X127753903Y-60398668D01*
X127478499Y-60248201D01*
X127224126Y-60064404D01*
X126994794Y-59850174D01*
X126794120Y-59608891D01*
X126625270Y-59344359D01*
X126490906Y-59060751D01*
X126393147Y-58762539D01*
X126333534Y-58454426D01*
X126313000Y-58134726D01*
X126313000Y-51587000D01*
X126332705Y-51273792D01*
X126391511Y-50965524D01*
X126488489Y-50667057D01*
X126622110Y-50383098D01*
X126790267Y-50118125D01*
X126990307Y-49876317D01*
X127219077Y-49661487D01*
X127472969Y-49477025D01*
X127747978Y-49325837D01*
X128039767Y-49210310D01*
X128343734Y-49132264D01*
X128655086Y-49092931D01*
X128812000Y-49088000D01*
X207713000Y-49088000D01*
X208026208Y-49107705D01*
G37*
G04 #@! TD.AperFunction*
M02*
