M48
; FORMAT={-:-/ absolute / metric / decimal}
; #@! TF.GenerationSoftware,Kicad,Pcbnew,6.0.10+dfsg-1~bpo11+1
; #@! TF.FileFunction,Plated,1,2,PTH
FMAT,2
METRIC
; #@! TA.AperFunction,Plated,PTH,ViaDrill
T1C0.300
; #@! TA.AperFunction,Plated,PTH,ComponentDrill
T2C1.100
; #@! TA.AperFunction,Plated,PTH,ComponentDrill
T3C1.400
%
G90
G05
T1
X167.812Y-87.487
X170.062Y-89.638
X171.312Y-87.587
X171.633Y-78.438
X173.262Y-76.638
X173.262Y-81.438
X173.463Y-89.638
X174.662Y-82.037
X174.812Y-87.487
X175.463Y-78.208
X176.062Y-77.037
X176.862Y-89.638
X178.312Y-87.587
X178.862Y-79.638
X179.262Y-67.237
X179.262Y-68.037
X179.262Y-71.237
X179.463Y-77.037
X180.062Y-71.237
X180.463Y-89.638
X180.562Y-74.938
X180.862Y-71.237
X181.417Y-89.283
X182.02Y-80.515
X183.062Y-79.638
X183.794Y-80.969
X183.862Y-89.837
X184.563Y-73.267
X184.862Y-89.287
X185.023Y-74.837
X185.555Y-74.112
X186.262Y-80.037
X187.463Y-89.638
X187.862Y-74.638
X188.262Y-82.037
X188.462Y-88.927
X190.062Y-79.638
X191.062Y-89.638
X191.963Y-88.6
X192.262Y-83.638
X192.262Y-84.438
X193.462Y-79.638
X194.262Y-83.037
X194.262Y-85.037
X194.862Y-88.638
X195.062Y-86.638
T2
X127.182Y-94.412
X127.182Y-104.572
X127.182Y-109.652
X127.222Y-85.127
X132.262Y-96.953
X132.302Y-72.427
X132.302Y-77.507
X132.302Y-87.667
X134.183Y-94.412
X134.183Y-104.572
X134.183Y-109.652
X134.222Y-85.127
X139.262Y-96.953
X139.302Y-72.427
X139.302Y-77.507
X139.302Y-87.667
X141.183Y-94.412
X141.183Y-104.572
X141.183Y-109.652
X141.222Y-85.127
X146.262Y-96.953
X146.302Y-72.427
X146.302Y-77.507
X146.302Y-87.667
X148.183Y-94.412
X148.183Y-104.572
X148.183Y-109.652
X148.222Y-85.127
X153.262Y-96.953
X153.302Y-72.427
X153.302Y-77.507
X153.302Y-87.667
X155.183Y-94.412
X155.183Y-104.572
X155.183Y-109.652
X155.222Y-85.127
X160.262Y-96.953
X160.302Y-72.427
X160.302Y-77.507
X160.302Y-87.667
X162.183Y-94.412
X162.183Y-104.572
X162.183Y-109.652
X167.262Y-96.953
X169.183Y-94.412
X169.183Y-104.572
X169.183Y-109.652
X174.262Y-96.953
X176.183Y-94.412
X176.183Y-104.572
X176.183Y-109.652
X181.262Y-96.953
X183.183Y-94.412
X183.183Y-104.572
X183.183Y-109.652
X188.262Y-96.953
X190.183Y-94.412
X190.183Y-104.572
X190.183Y-109.652
X195.262Y-96.953
T3
X132.023Y-61.815
X133.023Y-120.26
X137.102Y-61.815
X138.102Y-120.26
X142.183Y-61.815
X143.183Y-120.26
X147.262Y-61.815
X148.262Y-120.26
X152.343Y-61.815
X153.343Y-120.26
X157.422Y-61.815
X158.422Y-120.26
X162.502Y-61.815
X163.502Y-120.26
X172.022Y-120.26
X177.102Y-120.26
X182.183Y-120.26
X187.262Y-120.26
X187.642Y-61.815
X192.343Y-120.26
X195.262Y-61.815
X197.422Y-120.26
X202.502Y-120.26
X202.882Y-61.815
T0
M30
