G04 #@! TF.GenerationSoftware,KiCad,Pcbnew,6.0.10+dfsg-1~bpo11+1*
G04 #@! TF.CreationDate,2025-01-07T06:02:24+00:00*
G04 #@! TF.ProjectId,project,70726f6a-6563-4742-9e6b-696361645f70,rev?*
G04 #@! TF.SameCoordinates,Original*
G04 #@! TF.FileFunction,Soldermask,Top*
G04 #@! TF.FilePolarity,Negative*
%FSLAX46Y46*%
G04 Gerber Fmt 4.6, Leading zero omitted, Abs format (unit mm)*
G04 Created by KiCad (PCBNEW 6.0.10+dfsg-1~bpo11+1) date 2025-01-07 06:02:24*
%MOMM*%
%LPD*%
G01*
G04 APERTURE LIST*
G04 #@! TA.AperFunction,Profile*
%ADD10C,0.100000*%
G04 #@! TD*
%ADD11R,1.000000X1.000000*%
%ADD12C,2.400000*%
%ADD13O,2.080000X3.600000*%
%ADD14O,2.100000X3.600000*%
%ADD15C,1.552000*%
%ADD16C,7.000000*%
%ADD17C,5.000000*%
G04 APERTURE END LIST*
D10*
X125512500Y-133037500D02*
G75*
G03*
X126512500Y-134037500I1000000J0D01*
G01*
X211012500Y-49037500D02*
X211012500Y-133037500D01*
X210012500Y-134037500D02*
X126512500Y-134037500D01*
X126512500Y-48037500D02*
X210012500Y-48037500D01*
X210012500Y-134037500D02*
G75*
G03*
X211012500Y-133037500I0J1000000D01*
G01*
X211012500Y-49037500D02*
G75*
G03*
X210012500Y-48037500I-1000000J0D01*
G01*
X126512500Y-48037500D02*
G75*
G03*
X125512500Y-49037500I0J-1000000D01*
G01*
X125512500Y-133037500D02*
X125512500Y-49037500D01*
D11*
X139012500Y-91037500D03*
X141512500Y-91037500D03*
D12*
X132302500Y-87667500D03*
X132302500Y-77507500D03*
X132302500Y-72427500D03*
X127222500Y-85127500D03*
X148182500Y-94412500D03*
X148182500Y-104572500D03*
X148182500Y-109652500D03*
X153262500Y-96952500D03*
D11*
X147012500Y-91037500D03*
X149512500Y-91037500D03*
X153512500Y-91037500D03*
X151012500Y-91037500D03*
G36*
G01*
X192662500Y-88587500D02*
X192662500Y-89487500D01*
G75*
G02*
X192412500Y-89737500I-250000J0D01*
G01*
X191762500Y-89737500D01*
G75*
G02*
X191512500Y-89487500I0J250000D01*
G01*
X191512500Y-88587500D01*
G75*
G02*
X191762500Y-88337500I250000J0D01*
G01*
X192412500Y-88337500D01*
G75*
G02*
X192662500Y-88587500I0J-250000D01*
G01*
G37*
G36*
G01*
X190612500Y-88587500D02*
X190612500Y-89487500D01*
G75*
G02*
X190362500Y-89737500I-250000J0D01*
G01*
X189712500Y-89737500D01*
G75*
G02*
X189462500Y-89487500I0J250000D01*
G01*
X189462500Y-88587500D01*
G75*
G02*
X189712500Y-88337500I250000J0D01*
G01*
X190362500Y-88337500D01*
G75*
G02*
X190612500Y-88587500I0J-250000D01*
G01*
G37*
X161512500Y-91037500D03*
X159012500Y-91037500D03*
G36*
G01*
X131982500Y-120310001D02*
X131982500Y-117209999D01*
G75*
G02*
X132232499Y-116960000I249999J0D01*
G01*
X133812501Y-116960000D01*
G75*
G02*
X134062500Y-117209999I0J-249999D01*
G01*
X134062500Y-120310001D01*
G75*
G02*
X133812501Y-120560000I-249999J0D01*
G01*
X132232499Y-120560000D01*
G75*
G02*
X131982500Y-120310001I0J249999D01*
G01*
G37*
D13*
X138102500Y-118760000D03*
X143182500Y-118760000D03*
X148262500Y-118760000D03*
X153342500Y-118760000D03*
X158422500Y-118760000D03*
X163502500Y-118760000D03*
G36*
G01*
X178262500Y-67837500D02*
X178262500Y-67537500D01*
G75*
G02*
X178412500Y-67387500I150000J0D01*
G01*
X179437500Y-67387500D01*
G75*
G02*
X179587500Y-67537500I0J-150000D01*
G01*
X179587500Y-67837500D01*
G75*
G02*
X179437500Y-67987500I-150000J0D01*
G01*
X178412500Y-67987500D01*
G75*
G02*
X178262500Y-67837500I0J150000D01*
G01*
G37*
G36*
G01*
X178262500Y-68787500D02*
X178262500Y-68487500D01*
G75*
G02*
X178412500Y-68337500I150000J0D01*
G01*
X179437500Y-68337500D01*
G75*
G02*
X179587500Y-68487500I0J-150000D01*
G01*
X179587500Y-68787500D01*
G75*
G02*
X179437500Y-68937500I-150000J0D01*
G01*
X178412500Y-68937500D01*
G75*
G02*
X178262500Y-68787500I0J150000D01*
G01*
G37*
G36*
G01*
X178262500Y-69737500D02*
X178262500Y-69437500D01*
G75*
G02*
X178412500Y-69287500I150000J0D01*
G01*
X179437500Y-69287500D01*
G75*
G02*
X179587500Y-69437500I0J-150000D01*
G01*
X179587500Y-69737500D01*
G75*
G02*
X179437500Y-69887500I-150000J0D01*
G01*
X178412500Y-69887500D01*
G75*
G02*
X178262500Y-69737500I0J150000D01*
G01*
G37*
G36*
G01*
X180537500Y-69737500D02*
X180537500Y-69437500D01*
G75*
G02*
X180687500Y-69287500I150000J0D01*
G01*
X181712500Y-69287500D01*
G75*
G02*
X181862500Y-69437500I0J-150000D01*
G01*
X181862500Y-69737500D01*
G75*
G02*
X181712500Y-69887500I-150000J0D01*
G01*
X180687500Y-69887500D01*
G75*
G02*
X180537500Y-69737500I0J150000D01*
G01*
G37*
G36*
G01*
X180537500Y-68787500D02*
X180537500Y-68487500D01*
G75*
G02*
X180687500Y-68337500I150000J0D01*
G01*
X181712500Y-68337500D01*
G75*
G02*
X181862500Y-68487500I0J-150000D01*
G01*
X181862500Y-68787500D01*
G75*
G02*
X181712500Y-68937500I-150000J0D01*
G01*
X180687500Y-68937500D01*
G75*
G02*
X180537500Y-68787500I0J150000D01*
G01*
G37*
G36*
G01*
X180537500Y-67837500D02*
X180537500Y-67537500D01*
G75*
G02*
X180687500Y-67387500I150000J0D01*
G01*
X181712500Y-67387500D01*
G75*
G02*
X181862500Y-67537500I0J-150000D01*
G01*
X181862500Y-67837500D01*
G75*
G02*
X181712500Y-67987500I-150000J0D01*
G01*
X180687500Y-67987500D01*
G75*
G02*
X180537500Y-67837500I0J150000D01*
G01*
G37*
G36*
G01*
X203932500Y-61765001D02*
X203932500Y-64864999D01*
G75*
G02*
X203682499Y-65115000I-250001J0D01*
G01*
X202082501Y-65115000D01*
G75*
G02*
X201832500Y-64864999I0J250001D01*
G01*
X201832500Y-61765001D01*
G75*
G02*
X202082501Y-61515000I250001J0D01*
G01*
X203682499Y-61515000D01*
G75*
G02*
X203932500Y-61765001I0J-250001D01*
G01*
G37*
D14*
X195262500Y-63315000D03*
X187642500Y-63315000D03*
D12*
X141182500Y-94412500D03*
X141182500Y-104572500D03*
X141182500Y-109652500D03*
X146262500Y-96952500D03*
D15*
X127262500Y-122037500D03*
D12*
X176182500Y-94412500D03*
X176182500Y-104572500D03*
X176182500Y-109652500D03*
X181262500Y-96952500D03*
D11*
X163012500Y-91037500D03*
X165512500Y-91037500D03*
D12*
X153302500Y-87667500D03*
X153302500Y-77507500D03*
X153302500Y-72427500D03*
X148222500Y-85127500D03*
G36*
G01*
X185662500Y-87487500D02*
X185662500Y-86587500D01*
G75*
G02*
X185912500Y-86337500I250000J0D01*
G01*
X186612500Y-86337500D01*
G75*
G02*
X186862500Y-86587500I0J-250000D01*
G01*
X186862500Y-87487500D01*
G75*
G02*
X186612500Y-87737500I-250000J0D01*
G01*
X185912500Y-87737500D01*
G75*
G02*
X185662500Y-87487500I0J250000D01*
G01*
G37*
G36*
G01*
X187662500Y-87487500D02*
X187662500Y-86587500D01*
G75*
G02*
X187912500Y-86337500I250000J0D01*
G01*
X188612500Y-86337500D01*
G75*
G02*
X188862500Y-86587500I0J-250000D01*
G01*
X188862500Y-87487500D01*
G75*
G02*
X188612500Y-87737500I-250000J0D01*
G01*
X187912500Y-87737500D01*
G75*
G02*
X187662500Y-87487500I0J250000D01*
G01*
G37*
X127182500Y-94412500D03*
X127182500Y-104572500D03*
X127182500Y-109652500D03*
X132262500Y-96952500D03*
G36*
G01*
X161637500Y-85512500D02*
X161637500Y-84562500D01*
G75*
G02*
X161887500Y-84312500I250000J0D01*
G01*
X162562500Y-84312500D01*
G75*
G02*
X162812500Y-84562500I0J-250000D01*
G01*
X162812500Y-85512500D01*
G75*
G02*
X162562500Y-85762500I-250000J0D01*
G01*
X161887500Y-85762500D01*
G75*
G02*
X161637500Y-85512500I0J250000D01*
G01*
G37*
G36*
G01*
X163712500Y-85512500D02*
X163712500Y-84562500D01*
G75*
G02*
X163962500Y-84312500I250000J0D01*
G01*
X164637500Y-84312500D01*
G75*
G02*
X164887500Y-84562500I0J-250000D01*
G01*
X164887500Y-85512500D01*
G75*
G02*
X164637500Y-85762500I-250000J0D01*
G01*
X163962500Y-85762500D01*
G75*
G02*
X163712500Y-85512500I0J250000D01*
G01*
G37*
X155182500Y-94412500D03*
X155182500Y-104572500D03*
X155182500Y-109652500D03*
X160262500Y-96952500D03*
G36*
G01*
X163542500Y-61764999D02*
X163542500Y-64865001D01*
G75*
G02*
X163292501Y-65115000I-249999J0D01*
G01*
X161712499Y-65115000D01*
G75*
G02*
X161462500Y-64865001I0J249999D01*
G01*
X161462500Y-61764999D01*
G75*
G02*
X161712499Y-61515000I249999J0D01*
G01*
X163292501Y-61515000D01*
G75*
G02*
X163542500Y-61764999I0J-249999D01*
G01*
G37*
D13*
X157422500Y-63315000D03*
X152342500Y-63315000D03*
X147262500Y-63315000D03*
X142182500Y-63315000D03*
X137102500Y-63315000D03*
X132022500Y-63315000D03*
D12*
X169182500Y-94412500D03*
X169182500Y-104572500D03*
X169182500Y-109652500D03*
X174262500Y-96952500D03*
D15*
X127262500Y-50037500D03*
G36*
G01*
X169712500Y-84537500D02*
X169712500Y-85687500D01*
G75*
G02*
X169612500Y-85787500I-100000J0D01*
G01*
X169412500Y-85787500D01*
G75*
G02*
X169312500Y-85687500I0J100000D01*
G01*
X169312500Y-84537500D01*
G75*
G02*
X169412500Y-84437500I100000J0D01*
G01*
X169612500Y-84437500D01*
G75*
G02*
X169712500Y-84537500I0J-100000D01*
G01*
G37*
G36*
G01*
X170212500Y-82387500D02*
X170212500Y-83537500D01*
G75*
G02*
X170112500Y-83637500I-100000J0D01*
G01*
X169912500Y-83637500D01*
G75*
G02*
X169812500Y-83537500I0J100000D01*
G01*
X169812500Y-82387500D01*
G75*
G02*
X169912500Y-82287500I100000J0D01*
G01*
X170112500Y-82287500D01*
G75*
G02*
X170212500Y-82387500I0J-100000D01*
G01*
G37*
G36*
G01*
X170712500Y-84537500D02*
X170712500Y-85687500D01*
G75*
G02*
X170612500Y-85787500I-100000J0D01*
G01*
X170412500Y-85787500D01*
G75*
G02*
X170312500Y-85687500I0J100000D01*
G01*
X170312500Y-84537500D01*
G75*
G02*
X170412500Y-84437500I100000J0D01*
G01*
X170612500Y-84437500D01*
G75*
G02*
X170712500Y-84537500I0J-100000D01*
G01*
G37*
G36*
G01*
X171212500Y-82387500D02*
X171212500Y-83537500D01*
G75*
G02*
X171112500Y-83637500I-100000J0D01*
G01*
X170912500Y-83637500D01*
G75*
G02*
X170812500Y-83537500I0J100000D01*
G01*
X170812500Y-82387500D01*
G75*
G02*
X170912500Y-82287500I100000J0D01*
G01*
X171112500Y-82287500D01*
G75*
G02*
X171212500Y-82387500I0J-100000D01*
G01*
G37*
G36*
G01*
X171712500Y-84537500D02*
X171712500Y-85687500D01*
G75*
G02*
X171612500Y-85787500I-100000J0D01*
G01*
X171412500Y-85787500D01*
G75*
G02*
X171312500Y-85687500I0J100000D01*
G01*
X171312500Y-84537500D01*
G75*
G02*
X171412500Y-84437500I100000J0D01*
G01*
X171612500Y-84437500D01*
G75*
G02*
X171712500Y-84537500I0J-100000D01*
G01*
G37*
G36*
G01*
X172212500Y-82387500D02*
X172212500Y-83537500D01*
G75*
G02*
X172112500Y-83637500I-100000J0D01*
G01*
X171912500Y-83637500D01*
G75*
G02*
X171812500Y-83537500I0J100000D01*
G01*
X171812500Y-82387500D01*
G75*
G02*
X171912500Y-82287500I100000J0D01*
G01*
X172112500Y-82287500D01*
G75*
G02*
X172212500Y-82387500I0J-100000D01*
G01*
G37*
G36*
G01*
X172712500Y-84537500D02*
X172712500Y-85687500D01*
G75*
G02*
X172612500Y-85787500I-100000J0D01*
G01*
X172412500Y-85787500D01*
G75*
G02*
X172312500Y-85687500I0J100000D01*
G01*
X172312500Y-84537500D01*
G75*
G02*
X172412500Y-84437500I100000J0D01*
G01*
X172612500Y-84437500D01*
G75*
G02*
X172712500Y-84537500I0J-100000D01*
G01*
G37*
G36*
G01*
X173212500Y-82387500D02*
X173212500Y-83537500D01*
G75*
G02*
X173112500Y-83637500I-100000J0D01*
G01*
X172912500Y-83637500D01*
G75*
G02*
X172812500Y-83537500I0J100000D01*
G01*
X172812500Y-82387500D01*
G75*
G02*
X172912500Y-82287500I100000J0D01*
G01*
X173112500Y-82287500D01*
G75*
G02*
X173212500Y-82387500I0J-100000D01*
G01*
G37*
G36*
G01*
X173712500Y-84537500D02*
X173712500Y-85687500D01*
G75*
G02*
X173612500Y-85787500I-100000J0D01*
G01*
X173412500Y-85787500D01*
G75*
G02*
X173312500Y-85687500I0J100000D01*
G01*
X173312500Y-84537500D01*
G75*
G02*
X173412500Y-84437500I100000J0D01*
G01*
X173612500Y-84437500D01*
G75*
G02*
X173712500Y-84537500I0J-100000D01*
G01*
G37*
G36*
G01*
X174212500Y-82387500D02*
X174212500Y-83537500D01*
G75*
G02*
X174112500Y-83637500I-100000J0D01*
G01*
X173912500Y-83637500D01*
G75*
G02*
X173812500Y-83537500I0J100000D01*
G01*
X173812500Y-82387500D01*
G75*
G02*
X173912500Y-82287500I100000J0D01*
G01*
X174112500Y-82287500D01*
G75*
G02*
X174212500Y-82387500I0J-100000D01*
G01*
G37*
G36*
G01*
X174712500Y-84537500D02*
X174712500Y-85687500D01*
G75*
G02*
X174612500Y-85787500I-100000J0D01*
G01*
X174412500Y-85787500D01*
G75*
G02*
X174312500Y-85687500I0J100000D01*
G01*
X174312500Y-84537500D01*
G75*
G02*
X174412500Y-84437500I100000J0D01*
G01*
X174612500Y-84437500D01*
G75*
G02*
X174712500Y-84537500I0J-100000D01*
G01*
G37*
G36*
G01*
X175212500Y-82387500D02*
X175212500Y-83537500D01*
G75*
G02*
X175112500Y-83637500I-100000J0D01*
G01*
X174912500Y-83637500D01*
G75*
G02*
X174812500Y-83537500I0J100000D01*
G01*
X174812500Y-82387500D01*
G75*
G02*
X174912500Y-82287500I100000J0D01*
G01*
X175112500Y-82287500D01*
G75*
G02*
X175212500Y-82387500I0J-100000D01*
G01*
G37*
G36*
G01*
X175712500Y-84537500D02*
X175712500Y-85687500D01*
G75*
G02*
X175612500Y-85787500I-100000J0D01*
G01*
X175412500Y-85787500D01*
G75*
G02*
X175312500Y-85687500I0J100000D01*
G01*
X175312500Y-84537500D01*
G75*
G02*
X175412500Y-84437500I100000J0D01*
G01*
X175612500Y-84437500D01*
G75*
G02*
X175712500Y-84537500I0J-100000D01*
G01*
G37*
G36*
G01*
X176212500Y-82387500D02*
X176212500Y-83537500D01*
G75*
G02*
X176112500Y-83637500I-100000J0D01*
G01*
X175912500Y-83637500D01*
G75*
G02*
X175812500Y-83537500I0J100000D01*
G01*
X175812500Y-82387500D01*
G75*
G02*
X175912500Y-82287500I100000J0D01*
G01*
X176112500Y-82287500D01*
G75*
G02*
X176212500Y-82387500I0J-100000D01*
G01*
G37*
G36*
G01*
X176712500Y-84537500D02*
X176712500Y-85687500D01*
G75*
G02*
X176612500Y-85787500I-100000J0D01*
G01*
X176412500Y-85787500D01*
G75*
G02*
X176312500Y-85687500I0J100000D01*
G01*
X176312500Y-84537500D01*
G75*
G02*
X176412500Y-84437500I100000J0D01*
G01*
X176612500Y-84437500D01*
G75*
G02*
X176712500Y-84537500I0J-100000D01*
G01*
G37*
G36*
G01*
X177212500Y-82387500D02*
X177212500Y-83537500D01*
G75*
G02*
X177112500Y-83637500I-100000J0D01*
G01*
X176912500Y-83637500D01*
G75*
G02*
X176812500Y-83537500I0J100000D01*
G01*
X176812500Y-82387500D01*
G75*
G02*
X176912500Y-82287500I100000J0D01*
G01*
X177112500Y-82287500D01*
G75*
G02*
X177212500Y-82387500I0J-100000D01*
G01*
G37*
G36*
G01*
X177712500Y-84537500D02*
X177712500Y-85687500D01*
G75*
G02*
X177612500Y-85787500I-100000J0D01*
G01*
X177412500Y-85787500D01*
G75*
G02*
X177312500Y-85687500I0J100000D01*
G01*
X177312500Y-84537500D01*
G75*
G02*
X177412500Y-84437500I100000J0D01*
G01*
X177612500Y-84437500D01*
G75*
G02*
X177712500Y-84537500I0J-100000D01*
G01*
G37*
G36*
G01*
X178212500Y-82387500D02*
X178212500Y-83537500D01*
G75*
G02*
X178112500Y-83637500I-100000J0D01*
G01*
X177912500Y-83637500D01*
G75*
G02*
X177812500Y-83537500I0J100000D01*
G01*
X177812500Y-82387500D01*
G75*
G02*
X177912500Y-82287500I100000J0D01*
G01*
X178112500Y-82287500D01*
G75*
G02*
X178212500Y-82387500I0J-100000D01*
G01*
G37*
G36*
G01*
X178712500Y-84537500D02*
X178712500Y-85687500D01*
G75*
G02*
X178612500Y-85787500I-100000J0D01*
G01*
X178412500Y-85787500D01*
G75*
G02*
X178312500Y-85687500I0J100000D01*
G01*
X178312500Y-84537500D01*
G75*
G02*
X178412500Y-84437500I100000J0D01*
G01*
X178612500Y-84437500D01*
G75*
G02*
X178712500Y-84537500I0J-100000D01*
G01*
G37*
G36*
G01*
X179212500Y-82387500D02*
X179212500Y-83537500D01*
G75*
G02*
X179112500Y-83637500I-100000J0D01*
G01*
X178912500Y-83637500D01*
G75*
G02*
X178812500Y-83537500I0J100000D01*
G01*
X178812500Y-82387500D01*
G75*
G02*
X178912500Y-82287500I100000J0D01*
G01*
X179112500Y-82287500D01*
G75*
G02*
X179212500Y-82387500I0J-100000D01*
G01*
G37*
G36*
G01*
X179712500Y-84537500D02*
X179712500Y-85687500D01*
G75*
G02*
X179612500Y-85787500I-100000J0D01*
G01*
X179412500Y-85787500D01*
G75*
G02*
X179312500Y-85687500I0J100000D01*
G01*
X179312500Y-84537500D01*
G75*
G02*
X179412500Y-84437500I100000J0D01*
G01*
X179612500Y-84437500D01*
G75*
G02*
X179712500Y-84537500I0J-100000D01*
G01*
G37*
G36*
G01*
X180212500Y-82387500D02*
X180212500Y-83537500D01*
G75*
G02*
X180112500Y-83637500I-100000J0D01*
G01*
X179912500Y-83637500D01*
G75*
G02*
X179812500Y-83537500I0J100000D01*
G01*
X179812500Y-82387500D01*
G75*
G02*
X179912500Y-82287500I100000J0D01*
G01*
X180112500Y-82287500D01*
G75*
G02*
X180212500Y-82387500I0J-100000D01*
G01*
G37*
G36*
G01*
X180712500Y-84537500D02*
X180712500Y-85687500D01*
G75*
G02*
X180612500Y-85787500I-100000J0D01*
G01*
X180412500Y-85787500D01*
G75*
G02*
X180312500Y-85687500I0J100000D01*
G01*
X180312500Y-84537500D01*
G75*
G02*
X180412500Y-84437500I100000J0D01*
G01*
X180612500Y-84437500D01*
G75*
G02*
X180712500Y-84537500I0J-100000D01*
G01*
G37*
G36*
G01*
X181212500Y-82387500D02*
X181212500Y-83537500D01*
G75*
G02*
X181112500Y-83637500I-100000J0D01*
G01*
X180912500Y-83637500D01*
G75*
G02*
X180812500Y-83537500I0J100000D01*
G01*
X180812500Y-82387500D01*
G75*
G02*
X180912500Y-82287500I100000J0D01*
G01*
X181112500Y-82287500D01*
G75*
G02*
X181212500Y-82387500I0J-100000D01*
G01*
G37*
G36*
G01*
X169062500Y-83077500D02*
X169062500Y-84997500D01*
G75*
G02*
X168822500Y-85237500I-240000J0D01*
G01*
X166902500Y-85237500D01*
G75*
G02*
X166662500Y-84997500I0J240000D01*
G01*
X166662500Y-83077500D01*
G75*
G02*
X166902500Y-82837500I240000J0D01*
G01*
X168822500Y-82837500D01*
G75*
G02*
X169062500Y-83077500I0J-240000D01*
G01*
G37*
G36*
G01*
X183862500Y-83077500D02*
X183862500Y-84997500D01*
G75*
G02*
X183622500Y-85237500I-240000J0D01*
G01*
X181702500Y-85237500D01*
G75*
G02*
X181462500Y-84997500I0J240000D01*
G01*
X181462500Y-83077500D01*
G75*
G02*
X181702500Y-82837500I240000J0D01*
G01*
X183622500Y-82837500D01*
G75*
G02*
X183862500Y-83077500I0J-240000D01*
G01*
G37*
D11*
X145512500Y-91037500D03*
X143012500Y-91037500D03*
D16*
X200262500Y-73537500D03*
D17*
X200262500Y-73537500D03*
D15*
X209262500Y-50037500D03*
G36*
G01*
X185662500Y-89487500D02*
X185662500Y-88587500D01*
G75*
G02*
X185912500Y-88337500I250000J0D01*
G01*
X186612500Y-88337500D01*
G75*
G02*
X186862500Y-88587500I0J-250000D01*
G01*
X186862500Y-89487500D01*
G75*
G02*
X186612500Y-89737500I-250000J0D01*
G01*
X185912500Y-89737500D01*
G75*
G02*
X185662500Y-89487500I0J250000D01*
G01*
G37*
G36*
G01*
X187662500Y-89487500D02*
X187662500Y-88587500D01*
G75*
G02*
X187912500Y-88337500I250000J0D01*
G01*
X188612500Y-88337500D01*
G75*
G02*
X188862500Y-88587500I0J-250000D01*
G01*
X188862500Y-89487500D01*
G75*
G02*
X188612500Y-89737500I-250000J0D01*
G01*
X187912500Y-89737500D01*
G75*
G02*
X187662500Y-89487500I0J250000D01*
G01*
G37*
D11*
X131012500Y-91037500D03*
X133512500Y-91037500D03*
X129512500Y-91037500D03*
X127012500Y-91037500D03*
D12*
X146302500Y-87667500D03*
X146302500Y-77507500D03*
X146302500Y-72427500D03*
X141222500Y-85127500D03*
D11*
X178512500Y-91037500D03*
X176012500Y-91037500D03*
G36*
G01*
X170982500Y-120310001D02*
X170982500Y-117209999D01*
G75*
G02*
X171232499Y-116960000I249999J0D01*
G01*
X172812501Y-116960000D01*
G75*
G02*
X173062500Y-117209999I0J-249999D01*
G01*
X173062500Y-120310001D01*
G75*
G02*
X172812501Y-120560000I-249999J0D01*
G01*
X171232499Y-120560000D01*
G75*
G02*
X170982500Y-120310001I0J249999D01*
G01*
G37*
D13*
X177102500Y-118760000D03*
X182182500Y-118760000D03*
X187262500Y-118760000D03*
X192342500Y-118760000D03*
X197422500Y-118760000D03*
X202502500Y-118760000D03*
D12*
X162182500Y-94412500D03*
X162182500Y-104572500D03*
X162182500Y-109652500D03*
X167262500Y-96952500D03*
D11*
X185512500Y-91037500D03*
X183012500Y-91037500D03*
D12*
X183182500Y-94412500D03*
X183182500Y-104572500D03*
X183182500Y-109652500D03*
X188262500Y-96952500D03*
G36*
G01*
X192662500Y-86587500D02*
X192662500Y-87487500D01*
G75*
G02*
X192412500Y-87737500I-250000J0D01*
G01*
X191762500Y-87737500D01*
G75*
G02*
X191512500Y-87487500I0J250000D01*
G01*
X191512500Y-86587500D01*
G75*
G02*
X191762500Y-86337500I250000J0D01*
G01*
X192412500Y-86337500D01*
G75*
G02*
X192662500Y-86587500I0J-250000D01*
G01*
G37*
G36*
G01*
X190612500Y-86587500D02*
X190612500Y-87487500D01*
G75*
G02*
X190362500Y-87737500I-250000J0D01*
G01*
X189712500Y-87737500D01*
G75*
G02*
X189462500Y-87487500I0J250000D01*
G01*
X189462500Y-86587500D01*
G75*
G02*
X189712500Y-86337500I250000J0D01*
G01*
X190362500Y-86337500D01*
G75*
G02*
X190612500Y-86587500I0J-250000D01*
G01*
G37*
D11*
X173512500Y-91037500D03*
X171012500Y-91037500D03*
G36*
G01*
X181687500Y-70962500D02*
X181687500Y-71912500D01*
G75*
G02*
X181437500Y-72162500I-250000J0D01*
G01*
X180762500Y-72162500D01*
G75*
G02*
X180512500Y-71912500I0J250000D01*
G01*
X180512500Y-70962500D01*
G75*
G02*
X180762500Y-70712500I250000J0D01*
G01*
X181437500Y-70712500D01*
G75*
G02*
X181687500Y-70962500I0J-250000D01*
G01*
G37*
G36*
G01*
X179612500Y-70962500D02*
X179612500Y-71912500D01*
G75*
G02*
X179362500Y-72162500I-250000J0D01*
G01*
X178687500Y-72162500D01*
G75*
G02*
X178437500Y-71912500I0J250000D01*
G01*
X178437500Y-70962500D01*
G75*
G02*
X178687500Y-70712500I250000J0D01*
G01*
X179362500Y-70712500D01*
G75*
G02*
X179612500Y-70962500I0J-250000D01*
G01*
G37*
X155012500Y-91037500D03*
X157512500Y-91037500D03*
X169512500Y-91037500D03*
X167012500Y-91037500D03*
X192512500Y-91037500D03*
X190012500Y-91037500D03*
D12*
X190182500Y-94412500D03*
X190182500Y-104572500D03*
X190182500Y-109652500D03*
X195262500Y-96952500D03*
G36*
G01*
X178437500Y-88912500D02*
X178437500Y-87962500D01*
G75*
G02*
X178687500Y-87712500I250000J0D01*
G01*
X179362500Y-87712500D01*
G75*
G02*
X179612500Y-87962500I0J-250000D01*
G01*
X179612500Y-88912500D01*
G75*
G02*
X179362500Y-89162500I-250000J0D01*
G01*
X178687500Y-89162500D01*
G75*
G02*
X178437500Y-88912500I0J250000D01*
G01*
G37*
G36*
G01*
X180512500Y-88912500D02*
X180512500Y-87962500D01*
G75*
G02*
X180762500Y-87712500I250000J0D01*
G01*
X181437500Y-87712500D01*
G75*
G02*
X181687500Y-87962500I0J-250000D01*
G01*
X181687500Y-88912500D01*
G75*
G02*
X181437500Y-89162500I-250000J0D01*
G01*
X180762500Y-89162500D01*
G75*
G02*
X180512500Y-88912500I0J250000D01*
G01*
G37*
X160302500Y-87667500D03*
X160302500Y-77507500D03*
X160302500Y-72427500D03*
X155222500Y-85127500D03*
X139302500Y-87667500D03*
X139302500Y-77507500D03*
X139302500Y-72427500D03*
X134222500Y-85127500D03*
X134182500Y-94412500D03*
X134182500Y-104572500D03*
X134182500Y-109652500D03*
X139262500Y-96952500D03*
D11*
X137512500Y-91037500D03*
X135012500Y-91037500D03*
M02*
