%TF.GenerationSoftware,KiCad,Pcbnew,6.0.10+dfsg-1~bpo11+1*%
%TF.ProjectId,project,70726f6a-6563-4742-9e6b-696361645f70,rev?*%
%TF.SameCoordinates,Original*%
%TF.FileFunction,Drillmap*%
%TF.FilePolarity,Positive*%
%FSLAX45Y45*%
G04 Gerber Fmt 4.5, Leading zero omitted, Abs format (unit mm)*
%MOMM*%
%LPD*%
G01*
G04 APERTURE LIST*
%ADD10C,0.100000*%
%ADD11C,0.200000*%
G04 APERTURE END LIST*
D10*
X21101250Y-4828750D02*
X21101250Y-13378750D01*
X21101250Y-13378750D02*
X12551250Y-13378750D01*
X12551250Y-4828750D02*
X21101250Y-4828750D01*
X12551250Y-13378750D02*
X12551250Y-4828750D01*
D11*
X12803869Y-13694226D02*
X12803869Y-13494226D01*
X12851488Y-13494226D01*
X12880059Y-13503750D01*
X12899107Y-13522798D01*
X12908631Y-13541845D01*
X12918155Y-13579940D01*
X12918155Y-13608512D01*
X12908631Y-13646607D01*
X12899107Y-13665655D01*
X12880059Y-13684702D01*
X12851488Y-13694226D01*
X12803869Y-13694226D01*
X13003869Y-13694226D02*
X13003869Y-13560893D01*
X13003869Y-13598988D02*
X13013393Y-13579940D01*
X13022917Y-13570417D01*
X13041964Y-13560893D01*
X13061012Y-13560893D01*
X13127678Y-13694226D02*
X13127678Y-13560893D01*
X13127678Y-13494226D02*
X13118155Y-13503750D01*
X13127678Y-13513274D01*
X13137202Y-13503750D01*
X13127678Y-13494226D01*
X13127678Y-13513274D01*
X13251488Y-13694226D02*
X13232440Y-13684702D01*
X13222917Y-13665655D01*
X13222917Y-13494226D01*
X13356250Y-13694226D02*
X13337202Y-13684702D01*
X13327678Y-13665655D01*
X13327678Y-13494226D01*
X13584821Y-13694226D02*
X13584821Y-13494226D01*
X13651488Y-13637083D01*
X13718155Y-13494226D01*
X13718155Y-13694226D01*
X13899107Y-13694226D02*
X13899107Y-13589464D01*
X13889583Y-13570417D01*
X13870536Y-13560893D01*
X13832440Y-13560893D01*
X13813393Y-13570417D01*
X13899107Y-13684702D02*
X13880059Y-13694226D01*
X13832440Y-13694226D01*
X13813393Y-13684702D01*
X13803869Y-13665655D01*
X13803869Y-13646607D01*
X13813393Y-13627559D01*
X13832440Y-13618036D01*
X13880059Y-13618036D01*
X13899107Y-13608512D01*
X13994345Y-13560893D02*
X13994345Y-13760893D01*
X13994345Y-13570417D02*
X14013393Y-13560893D01*
X14051488Y-13560893D01*
X14070536Y-13570417D01*
X14080059Y-13579940D01*
X14089583Y-13598988D01*
X14089583Y-13656131D01*
X14080059Y-13675178D01*
X14070536Y-13684702D01*
X14051488Y-13694226D01*
X14013393Y-13694226D01*
X13994345Y-13684702D01*
X14175298Y-13675178D02*
X14184821Y-13684702D01*
X14175298Y-13694226D01*
X14165774Y-13684702D01*
X14175298Y-13675178D01*
X14175298Y-13694226D01*
X14175298Y-13570417D02*
X14184821Y-13579940D01*
X14175298Y-13589464D01*
X14165774Y-13579940D01*
X14175298Y-13570417D01*
X14175298Y-13589464D01*
M02*
