G04 #@! TF.GenerationSoftware,KiCad,Pcbnew,6.0.10+dfsg-1~bpo11+1*
G04 #@! TF.CreationDate,2025-01-07T06:02:24+00:00*
G04 #@! TF.ProjectId,project,70726f6a-6563-4742-9e6b-696361645f70,rev?*
G04 #@! TF.SameCoordinates,Original*
G04 #@! TF.FileFunction,Legend,Bot*
G04 #@! TF.FilePolarity,Positive*
%FSLAX46Y46*%
G04 Gerber Fmt 4.6, Leading zero omitted, Abs format (unit mm)*
G04 Created by KiCad (PCBNEW 6.0.10+dfsg-1~bpo11+1) date 2025-01-07 06:02:24*
%MOMM*%
%LPD*%
G01*
G04 APERTURE LIST*
G04 #@! TA.AperFunction,Profile*
%ADD10C,0.100000*%
G04 #@! TD*
%ADD11C,2.400000*%
%ADD12O,2.080000X3.600000*%
%ADD13O,2.100000X3.600000*%
%ADD14C,1.552000*%
%ADD15C,5.000000*%
G04 APERTURE END LIST*
D10*
X125512500Y-133037500D02*
G75*
G03*
X126512500Y-134037500I1000000J0D01*
G01*
X211012500Y-49037500D02*
X211012500Y-133037500D01*
X210012500Y-134037500D02*
X126512500Y-134037500D01*
X126512500Y-48037500D02*
X210012500Y-48037500D01*
X210012500Y-134037500D02*
G75*
G03*
X211012500Y-133037500I0J1000000D01*
G01*
X211012500Y-49037500D02*
G75*
G03*
X210012500Y-48037500I-1000000J0D01*
G01*
X126512500Y-48037500D02*
G75*
G03*
X125512500Y-49037500I0J-1000000D01*
G01*
X125512500Y-133037500D02*
X125512500Y-49037500D01*
G36*
X147626766Y-52566191D02*
G01*
X147766605Y-52699124D01*
X147851199Y-52904567D01*
X147879397Y-53166405D01*
X147853501Y-53428819D01*
X147775813Y-53635987D01*
X147640577Y-53770647D01*
X147442041Y-53815534D01*
X147248108Y-53770647D01*
X147108269Y-53635987D01*
X147023675Y-53428819D01*
X146995477Y-53166405D01*
X147021373Y-52904567D01*
X147099061Y-52699124D01*
X147234296Y-52566191D01*
X147432833Y-52521880D01*
X147626766Y-52566191D01*
G37*
G36*
X205173641Y-52566191D02*
G01*
X205313480Y-52699124D01*
X205398074Y-52904567D01*
X205426272Y-53166405D01*
X205400376Y-53428819D01*
X205322688Y-53635987D01*
X205187452Y-53770647D01*
X204988916Y-53815534D01*
X204794983Y-53770647D01*
X204655144Y-53635987D01*
X204570550Y-53428819D01*
X204542352Y-53166405D01*
X204568248Y-52904567D01*
X204645936Y-52699124D01*
X204781171Y-52566191D01*
X204979708Y-52521880D01*
X205173641Y-52566191D01*
G37*
G36*
X177529849Y-52540295D02*
G01*
X177663358Y-52641577D01*
X177746225Y-52788897D01*
X177785357Y-52959236D01*
X176919852Y-52959236D01*
X176942871Y-52791199D01*
X177016531Y-52646181D01*
X177145436Y-52542597D01*
X177338793Y-52503465D01*
X177529849Y-52540295D01*
G37*
G36*
X136117391Y-52566191D02*
G01*
X136257230Y-52699124D01*
X136341824Y-52904567D01*
X136370022Y-53166405D01*
X136344126Y-53428819D01*
X136266438Y-53635987D01*
X136131202Y-53770647D01*
X135932666Y-53815534D01*
X135738733Y-53770647D01*
X135598894Y-53635987D01*
X135514300Y-53428819D01*
X135486102Y-53166405D01*
X135511998Y-52904567D01*
X135589686Y-52699124D01*
X135724921Y-52566191D01*
X135923458Y-52521880D01*
X136117391Y-52566191D01*
G37*
G36*
X143001724Y-52540295D02*
G01*
X143135233Y-52641577D01*
X143218100Y-52788897D01*
X143257232Y-52959236D01*
X142391727Y-52959236D01*
X142414746Y-52791199D01*
X142488406Y-52646181D01*
X142617311Y-52542597D01*
X142810668Y-52503465D01*
X143001724Y-52540295D01*
G37*
G36*
X127961287Y-55393960D02*
G01*
X127731431Y-55359864D01*
X127506024Y-55303403D01*
X127287237Y-55225119D01*
X127077176Y-55125768D01*
X126877865Y-55006305D01*
X126691222Y-54867882D01*
X126519047Y-54711831D01*
X126362996Y-54539656D01*
X126224573Y-54353014D01*
X126105110Y-54153702D01*
X126005759Y-53943642D01*
X125927476Y-53724854D01*
X125871014Y-53499447D01*
X125836918Y-53269591D01*
X125825516Y-53037500D01*
X125836918Y-52805409D01*
X125871014Y-52575553D01*
X125927476Y-52350146D01*
X126005759Y-52131358D01*
X126105110Y-51921298D01*
X126224573Y-51721986D01*
X126362996Y-51535344D01*
X126519047Y-51363169D01*
X126691222Y-51207118D01*
X126877865Y-51068695D01*
X126903577Y-51053284D01*
X128193762Y-51053284D01*
X128193762Y-54183834D01*
X128367553Y-54229871D01*
X128575873Y-54266701D01*
X128799155Y-54290871D01*
X129017833Y-54298927D01*
X129328075Y-54265678D01*
X129583583Y-54165930D01*
X129784358Y-53999684D01*
X129928864Y-53775635D01*
X130015568Y-53502479D01*
X130044469Y-53180216D01*
X130020172Y-52852071D01*
X129947279Y-52573544D01*
X129825791Y-52344636D01*
X129656731Y-52174553D01*
X129573513Y-52135165D01*
X130362128Y-52135165D01*
X130463411Y-52659992D01*
X130594618Y-52632370D01*
X130748843Y-52607049D01*
X130900767Y-52590936D01*
X131025068Y-52586332D01*
X131259859Y-52597842D01*
X131494651Y-52641577D01*
X131494651Y-54248286D01*
X132065516Y-54248286D01*
X132065516Y-54197645D01*
X132746871Y-54197645D01*
X133115171Y-54262097D01*
X133374132Y-54289720D01*
X133663017Y-54298927D01*
X134038223Y-54262097D01*
X134325957Y-54140098D01*
X134510107Y-53919118D01*
X134574559Y-53585346D01*
X134500899Y-53267687D01*
X134399719Y-53161801D01*
X134906029Y-53161801D01*
X134924444Y-53407526D01*
X134979689Y-53629082D01*
X135068312Y-53824166D01*
X135186858Y-53990476D01*
X135333603Y-54125136D01*
X135506819Y-54225267D01*
X135704205Y-54287418D01*
X135923458Y-54308135D01*
X136142712Y-54287418D01*
X136340098Y-54225267D01*
X136513889Y-54125136D01*
X136662360Y-53990476D01*
X136782633Y-53824166D01*
X136871831Y-53629082D01*
X136927076Y-53407526D01*
X136928585Y-53387385D01*
X137221716Y-53387385D01*
X137243583Y-53623903D01*
X137309187Y-53817836D01*
X137546280Y-54094061D01*
X137709713Y-54182683D01*
X137900769Y-54241381D01*
X138113117Y-54274182D01*
X138340427Y-54285116D01*
X138532633Y-54279937D01*
X138731746Y-54264399D01*
X138933160Y-54238503D01*
X139132272Y-54202249D01*
X139132272Y-52135165D01*
X139569628Y-52135165D01*
X139670911Y-52659992D01*
X139802118Y-52632370D01*
X139956343Y-52607049D01*
X140108267Y-52590936D01*
X140232568Y-52586332D01*
X140467359Y-52597842D01*
X140702151Y-52641577D01*
X140702151Y-54248286D01*
X141273016Y-54248286D01*
X141273016Y-53138782D01*
X141843881Y-53138782D01*
X141846183Y-53253876D01*
X141853088Y-53350555D01*
X143257232Y-53350555D01*
X143213496Y-53539884D01*
X143082289Y-53684327D01*
X142882026Y-53775826D01*
X142631122Y-53806326D01*
X142306558Y-53769496D01*
X142046446Y-53695836D01*
X141968182Y-54179230D01*
X142281237Y-54264399D01*
X142654141Y-54298927D01*
X142915979Y-54281088D01*
X143149044Y-54227569D01*
X143351609Y-54138947D01*
X143521948Y-54015797D01*
X143658334Y-53858694D01*
X143759041Y-53668214D01*
X143821191Y-53443781D01*
X143841908Y-53184820D01*
X143820040Y-52916652D01*
X143754437Y-52683011D01*
X143653154Y-52484475D01*
X143524249Y-52321617D01*
X143371175Y-52194438D01*
X143197383Y-52102939D01*
X143135232Y-52084524D01*
X144035266Y-52084524D01*
X144063032Y-52395277D01*
X144095690Y-52696822D01*
X144133239Y-52989161D01*
X144175680Y-53272291D01*
X144237831Y-53628315D01*
X144304585Y-53953646D01*
X144375943Y-54248286D01*
X144804092Y-54248286D01*
X144898469Y-53985872D01*
X144981336Y-53753383D01*
X145059600Y-53518592D01*
X145140166Y-53249272D01*
X145223033Y-53513988D01*
X145298995Y-53746477D01*
X145379561Y-53981269D01*
X145480843Y-54248286D01*
X145908992Y-54248286D01*
X145962510Y-54034787D01*
X146012576Y-53799421D01*
X146059189Y-53545063D01*
X146102349Y-53274593D01*
X146117907Y-53161801D01*
X146415404Y-53161801D01*
X146433819Y-53407526D01*
X146489064Y-53629082D01*
X146577687Y-53824166D01*
X146696233Y-53990476D01*
X146842978Y-54125136D01*
X147016194Y-54225267D01*
X147213580Y-54287418D01*
X147432833Y-54308135D01*
X147652087Y-54287418D01*
X147849473Y-54225267D01*
X148023264Y-54125136D01*
X148171735Y-53990476D01*
X148292008Y-53824166D01*
X148381206Y-53629082D01*
X148436451Y-53407526D01*
X148454866Y-53161801D01*
X148435875Y-52919529D01*
X148378904Y-52699124D01*
X148287980Y-52504616D01*
X148167131Y-52340032D01*
X148143802Y-52319315D01*
X148717279Y-52319315D01*
X148750784Y-52628534D01*
X148851300Y-52874834D01*
X149018825Y-53058217D01*
X149247734Y-53184820D01*
X149532399Y-53260782D01*
X149872821Y-53286102D01*
X150075386Y-53286102D01*
X150075386Y-54248286D01*
X150641647Y-54248286D01*
X150641647Y-53387385D01*
X153436123Y-53387385D01*
X153505179Y-53753383D01*
X153716952Y-54045721D01*
X153876932Y-54156211D01*
X154071441Y-54239079D01*
X154300477Y-54290871D01*
X154564042Y-54308135D01*
X154789626Y-54294324D01*
X155010606Y-54259796D01*
X155056097Y-54248286D01*
X155682753Y-54248286D01*
X157413763Y-54248286D01*
X157413763Y-54179230D01*
X157924779Y-54179230D01*
X158263155Y-54271305D01*
X158615342Y-54298927D01*
X158965227Y-54266701D01*
X159223037Y-54142400D01*
X159384168Y-53882288D01*
X159425602Y-53688355D01*
X159439413Y-53442630D01*
X159439413Y-53387385D01*
X160341748Y-53387385D01*
X160410804Y-53753383D01*
X160622577Y-54045721D01*
X160782557Y-54156211D01*
X160977066Y-54239079D01*
X161206102Y-54290871D01*
X161469667Y-54308135D01*
X161695251Y-54294324D01*
X161916231Y-54259796D01*
X161961722Y-54248286D01*
X162487096Y-54248286D01*
X163076376Y-54248286D01*
X163200677Y-54026155D01*
X163324978Y-53829345D01*
X163445827Y-53654402D01*
X163559769Y-53497875D01*
X163690976Y-53679723D01*
X163808372Y-53856967D01*
X163920013Y-54042268D01*
X164033956Y-54248286D01*
X164609424Y-54248286D01*
X164450595Y-53978967D01*
X164261841Y-53693534D01*
X164054673Y-53405800D01*
X164040472Y-53387385D01*
X164945498Y-53387385D01*
X165014554Y-53753383D01*
X165226327Y-54045721D01*
X165386307Y-54156211D01*
X165580816Y-54239079D01*
X165809852Y-54290871D01*
X166073417Y-54308135D01*
X166299001Y-54294324D01*
X166519981Y-54259796D01*
X166565472Y-54248286D01*
X167192128Y-54248286D01*
X168923138Y-54248286D01*
X168923138Y-53778704D01*
X168324651Y-53778704D01*
X168324651Y-52185806D01*
X168619291Y-52349239D01*
X168900119Y-52462031D01*
X169048161Y-52084524D01*
X169434154Y-52084524D01*
X169519899Y-52385494D01*
X169602191Y-52680709D01*
X169684483Y-52969595D01*
X169770228Y-53251574D01*
X169860577Y-53527224D01*
X169956680Y-53797119D01*
X170059689Y-54060683D01*
X170170754Y-54317342D01*
X170343395Y-54635001D01*
X170532149Y-54853679D01*
X170762336Y-54980282D01*
X171059278Y-55021716D01*
X171319390Y-54998697D01*
X171515049Y-54938849D01*
X171409163Y-54464662D01*
X171245730Y-54522209D01*
X171091504Y-54538322D01*
X170824487Y-54427832D01*
X170683144Y-54197645D01*
X171878746Y-54197645D01*
X172247046Y-54262097D01*
X172506007Y-54289720D01*
X172794892Y-54298927D01*
X173170098Y-54262097D01*
X173419830Y-54156211D01*
X174060923Y-54156211D01*
X174123074Y-54188437D01*
X174249677Y-54236777D01*
X174440733Y-54280512D01*
X174696241Y-54298927D01*
X175034616Y-54240805D01*
X175267106Y-54066438D01*
X175401765Y-53780430D01*
X175446652Y-53387385D01*
X175446652Y-53138782D01*
X176372006Y-53138782D01*
X176374308Y-53253876D01*
X176381213Y-53350555D01*
X177785357Y-53350555D01*
X177741621Y-53539884D01*
X177610414Y-53684327D01*
X177410151Y-53775826D01*
X177159247Y-53806326D01*
X176834683Y-53769496D01*
X176574571Y-53695836D01*
X176496307Y-54179230D01*
X176809362Y-54264399D01*
X177182266Y-54298927D01*
X177444104Y-54281088D01*
X177586950Y-54248286D01*
X178563391Y-54248286D01*
X179157274Y-54248286D01*
X179271793Y-53977240D01*
X179403575Y-53716553D01*
X179549169Y-53459319D01*
X179705121Y-53198631D01*
X179999761Y-53198631D01*
X179999761Y-54248286D01*
X180566022Y-54248286D01*
X180566022Y-54156211D01*
X183268423Y-54156211D01*
X183330574Y-54188437D01*
X183457177Y-54236777D01*
X183648233Y-54280512D01*
X183903741Y-54298927D01*
X184242116Y-54240805D01*
X184474606Y-54066438D01*
X184609265Y-53780430D01*
X184654152Y-53387385D01*
X184654152Y-53161801D01*
X185547279Y-53161801D01*
X185565694Y-53407526D01*
X185620939Y-53629082D01*
X185709562Y-53824166D01*
X185828108Y-53990476D01*
X185974853Y-54125136D01*
X186148069Y-54225267D01*
X186345455Y-54287418D01*
X186564708Y-54308135D01*
X186783962Y-54287418D01*
X186981348Y-54225267D01*
X187155139Y-54125136D01*
X187303610Y-53990476D01*
X187423883Y-53824166D01*
X187513081Y-53629082D01*
X187568326Y-53407526D01*
X187586741Y-53161801D01*
X187567750Y-52919529D01*
X187510779Y-52699124D01*
X187419855Y-52504616D01*
X187299006Y-52340032D01*
X187149960Y-52207674D01*
X187019871Y-52135165D01*
X187909003Y-52135165D01*
X188010286Y-52659992D01*
X188141493Y-52632370D01*
X188295718Y-52607049D01*
X188447642Y-52590936D01*
X188571943Y-52586332D01*
X188806734Y-52597842D01*
X189041526Y-52641577D01*
X189041526Y-54248286D01*
X189612391Y-54248286D01*
X189612391Y-54179230D01*
X190151029Y-54179230D01*
X190489405Y-54271305D01*
X190841592Y-54298927D01*
X191191477Y-54266701D01*
X191229671Y-54248286D01*
X192595621Y-54248286D01*
X193161882Y-54248286D01*
X193161882Y-53101952D01*
X193179146Y-52840690D01*
X193230938Y-52664596D01*
X193511767Y-52531087D01*
X193638370Y-52535691D01*
X193769577Y-52549502D01*
X193769577Y-54248286D01*
X194335838Y-54248286D01*
X194335838Y-53161801D01*
X194754779Y-53161801D01*
X194773194Y-53407526D01*
X194828439Y-53629082D01*
X194917062Y-53824166D01*
X195035608Y-53990476D01*
X195182353Y-54125136D01*
X195355569Y-54225267D01*
X195552955Y-54287418D01*
X195772208Y-54308135D01*
X195991462Y-54287418D01*
X196188848Y-54225267D01*
X196362639Y-54125136D01*
X196379136Y-54110174D01*
X197070466Y-54110174D01*
X197395030Y-54245984D01*
X197615435Y-54292597D01*
X197866914Y-54308135D01*
X198237261Y-54265167D01*
X198277454Y-54248286D01*
X199363133Y-54248286D01*
X199823508Y-54248286D01*
X199823508Y-52927010D01*
X199839621Y-52719841D01*
X199881055Y-52600144D01*
X199940904Y-52544899D01*
X200012262Y-52531087D01*
X200099733Y-52537993D01*
X200182601Y-52563314D01*
X200159582Y-52756671D01*
X200150374Y-52991462D01*
X200150374Y-53424215D01*
X200610749Y-53424215D01*
X200610749Y-52927010D01*
X200654485Y-52618559D01*
X200794899Y-52531087D01*
X200861654Y-52535691D01*
X200937616Y-52549502D01*
X200937616Y-54248286D01*
X201397991Y-54248286D01*
X201397991Y-52167391D01*
X201252027Y-52135165D01*
X201720253Y-52135165D01*
X201821536Y-52659992D01*
X201952743Y-52632370D01*
X202106968Y-52607049D01*
X202258892Y-52590936D01*
X202383193Y-52586332D01*
X202617984Y-52597842D01*
X202852776Y-52641577D01*
X202852776Y-54248286D01*
X203423641Y-54248286D01*
X203423641Y-53161801D01*
X203962279Y-53161801D01*
X203980694Y-53407526D01*
X204035939Y-53629082D01*
X204124562Y-53824166D01*
X204243108Y-53990476D01*
X204389853Y-54125136D01*
X204563069Y-54225267D01*
X204760455Y-54287418D01*
X204979708Y-54308135D01*
X205198962Y-54287418D01*
X205396348Y-54225267D01*
X205570139Y-54125136D01*
X205718610Y-53990476D01*
X205838883Y-53824166D01*
X205928081Y-53629082D01*
X205983326Y-53407526D01*
X206001741Y-53161801D01*
X205982750Y-52919529D01*
X205925779Y-52699124D01*
X205834855Y-52504616D01*
X205714006Y-52340032D01*
X205564960Y-52207674D01*
X205389442Y-52109844D01*
X205192632Y-52049420D01*
X204979708Y-52029279D01*
X204763907Y-52049420D01*
X204567673Y-52109844D01*
X204393881Y-52207674D01*
X204245410Y-52340032D01*
X204125137Y-52504616D01*
X204035939Y-52699124D01*
X203980694Y-52919529D01*
X203962279Y-53161801D01*
X203423641Y-53161801D01*
X203423641Y-52227240D01*
X203195180Y-52152429D01*
X202960964Y-52093731D01*
X202703729Y-52055750D01*
X202406212Y-52043090D01*
X202275005Y-52047694D01*
X202093157Y-52063807D01*
X201897498Y-52091429D01*
X201720253Y-52135165D01*
X201252027Y-52135165D01*
X201043502Y-52089127D01*
X200735051Y-52061505D01*
X200520976Y-52091429D01*
X200357543Y-52190410D01*
X200173393Y-52100637D01*
X199952413Y-52061505D01*
X199657773Y-52116750D01*
X199475925Y-52282485D01*
X199386152Y-52561012D01*
X199368888Y-52743435D01*
X199363133Y-52954632D01*
X199363133Y-54248286D01*
X198277454Y-54248286D01*
X198544177Y-54136262D01*
X198787664Y-53921420D01*
X198926640Y-53707633D01*
X199025908Y-53452988D01*
X199085469Y-53157485D01*
X199105323Y-52821124D01*
X199081153Y-52486201D01*
X199008644Y-52190410D01*
X198892975Y-51935477D01*
X198739325Y-51723129D01*
X198550571Y-51555092D01*
X198329591Y-51433093D01*
X198214229Y-51398565D01*
X206241136Y-51398565D01*
X206254947Y-51753629D01*
X206268758Y-52119052D01*
X206283720Y-52488503D01*
X206300984Y-52855652D01*
X206321126Y-53218773D01*
X206344720Y-53576139D01*
X206371767Y-53921420D01*
X206402267Y-54248286D01*
X206871849Y-54248286D01*
X206973132Y-53947316D01*
X207074414Y-53624478D01*
X207175697Y-53298187D01*
X207276979Y-52986859D01*
X207380564Y-53289555D01*
X207488752Y-53617572D01*
X207594638Y-53945590D01*
X207691317Y-54248286D01*
X208160899Y-54248286D01*
X208195428Y-53920845D01*
X208225352Y-53573837D01*
X208251248Y-53214744D01*
X208273691Y-52851048D01*
X208292682Y-52483899D01*
X208308219Y-52114448D01*
X208320880Y-51750176D01*
X208331238Y-51398565D01*
X207806411Y-51398565D01*
X207811014Y-51674790D01*
X207815618Y-51960222D01*
X207820222Y-52249683D01*
X207824826Y-52537993D01*
X207829429Y-52822275D01*
X207834033Y-53099651D01*
X207837486Y-53364942D01*
X207838637Y-53612969D01*
X207744260Y-53290706D01*
X207642978Y-52945425D01*
X207553204Y-52632370D01*
X207488752Y-52406786D01*
X207074414Y-52406786D01*
X207019169Y-52623162D01*
X206938604Y-52908595D01*
X206841925Y-53244669D01*
X206738341Y-53612969D01*
X206739492Y-53364942D01*
X206742944Y-53099651D01*
X206747548Y-52822850D01*
X206752152Y-52540295D01*
X206756756Y-52253136D01*
X206761359Y-51962524D01*
X206764812Y-51675365D01*
X206765963Y-51398565D01*
X206241136Y-51398565D01*
X198214229Y-51398565D01*
X198081564Y-51358858D01*
X197811669Y-51334112D01*
X197537746Y-51359433D01*
X197323672Y-51416980D01*
X197169446Y-51486036D01*
X197075069Y-51541281D01*
X197222389Y-51992449D01*
X197477898Y-51875053D01*
X197820877Y-51826714D01*
X198080989Y-51875053D01*
X198306573Y-52036184D01*
X198467704Y-52337730D01*
X198514317Y-52549502D01*
X198529854Y-52807312D01*
X198511184Y-53107324D01*
X198455171Y-53356693D01*
X198361818Y-53555422D01*
X198140262Y-53750506D01*
X197811669Y-53815534D01*
X197445671Y-53764892D01*
X197213182Y-53663610D01*
X197070466Y-54110174D01*
X196379136Y-54110174D01*
X196511110Y-53990476D01*
X196631383Y-53824166D01*
X196720581Y-53629082D01*
X196775826Y-53407526D01*
X196794241Y-53161801D01*
X196775250Y-52919529D01*
X196718279Y-52699124D01*
X196627355Y-52504616D01*
X196506506Y-52340032D01*
X196357460Y-52207674D01*
X196181942Y-52109844D01*
X195985132Y-52049420D01*
X195772208Y-52029279D01*
X195556407Y-52049420D01*
X195360173Y-52109844D01*
X195186381Y-52207674D01*
X195037910Y-52340032D01*
X194917637Y-52504616D01*
X194828439Y-52699124D01*
X194773194Y-52919529D01*
X194754779Y-53161801D01*
X194335838Y-53161801D01*
X194335838Y-52153580D01*
X194166075Y-52113297D01*
X193960633Y-52075316D01*
X193727568Y-52047694D01*
X193474937Y-52038486D01*
X193238995Y-52056326D01*
X193046788Y-52109844D01*
X192777469Y-52312409D01*
X192637054Y-52625464D01*
X192605979Y-52817095D01*
X192595621Y-53028292D01*
X192595621Y-54248286D01*
X191229671Y-54248286D01*
X191449287Y-54142400D01*
X191610418Y-53882288D01*
X191651852Y-53688355D01*
X191665663Y-53442630D01*
X191665663Y-52554106D01*
X192158264Y-52554106D01*
X192158264Y-52084524D01*
X191665663Y-52084524D01*
X191665663Y-51541281D01*
X191099402Y-51449206D01*
X191099402Y-52084524D01*
X190192463Y-52084524D01*
X190192463Y-52554106D01*
X191099402Y-52554106D01*
X191099402Y-53428819D01*
X191076383Y-53622176D01*
X191011931Y-53737270D01*
X190910648Y-53792515D01*
X190777139Y-53806326D01*
X190632121Y-53801722D01*
X190503216Y-53785609D01*
X190374311Y-53751081D01*
X190229293Y-53691232D01*
X190151029Y-54179230D01*
X189612391Y-54179230D01*
X189612391Y-52227240D01*
X189383930Y-52152429D01*
X189149714Y-52093731D01*
X188892479Y-52055750D01*
X188594962Y-52043090D01*
X188463755Y-52047694D01*
X188281907Y-52063807D01*
X188086248Y-52091429D01*
X187909003Y-52135165D01*
X187019871Y-52135165D01*
X186974442Y-52109844D01*
X186777632Y-52049420D01*
X186564708Y-52029279D01*
X186348907Y-52049420D01*
X186152673Y-52109844D01*
X185978881Y-52207674D01*
X185830410Y-52340032D01*
X185710137Y-52504616D01*
X185620939Y-52699124D01*
X185565694Y-52919529D01*
X185547279Y-53161801D01*
X184654152Y-53161801D01*
X184654152Y-51550489D01*
X185252639Y-51550489D01*
X185252639Y-51080906D01*
X184087891Y-51080906D01*
X184087891Y-53428819D01*
X184000419Y-53728062D01*
X183779439Y-53806326D01*
X183494007Y-53760289D01*
X183342083Y-53700440D01*
X183268423Y-54156211D01*
X180566022Y-54156211D01*
X180566022Y-53345951D01*
X181334848Y-53345951D01*
X182596276Y-53345951D01*
X182596276Y-52788897D01*
X181334848Y-52788897D01*
X181334848Y-53345951D01*
X180566022Y-53345951D01*
X180566022Y-51439999D01*
X180384174Y-51405471D01*
X180183911Y-51382452D01*
X179990553Y-51370942D01*
X179829422Y-51366339D01*
X179596933Y-51380150D01*
X179387462Y-51421584D01*
X179203312Y-51491791D01*
X179046784Y-51591922D01*
X178828106Y-51884261D01*
X178771135Y-52077043D01*
X178752144Y-52300900D01*
X178777465Y-52537993D01*
X178853427Y-52752067D01*
X178988087Y-52930463D01*
X179189501Y-53060519D01*
X179023766Y-53325234D01*
X178853427Y-53629082D01*
X178694598Y-53946741D01*
X178563391Y-54248286D01*
X177586950Y-54248286D01*
X177677169Y-54227569D01*
X177879734Y-54138947D01*
X178050073Y-54015797D01*
X178186459Y-53858694D01*
X178287166Y-53668214D01*
X178349316Y-53443781D01*
X178370033Y-53184820D01*
X178348165Y-52916652D01*
X178282562Y-52683011D01*
X178181279Y-52484475D01*
X178052374Y-52321617D01*
X177899300Y-52194438D01*
X177725508Y-52102939D01*
X177539056Y-52047694D01*
X177348001Y-52029279D01*
X177054384Y-52060738D01*
X176811920Y-52155115D01*
X176620608Y-52312409D01*
X176482496Y-52530064D01*
X176399628Y-52805522D01*
X176372006Y-53138782D01*
X175446652Y-53138782D01*
X175446652Y-51550489D01*
X176045139Y-51550489D01*
X176045139Y-51080906D01*
X174880391Y-51080906D01*
X174880391Y-53428819D01*
X174792919Y-53728062D01*
X174571939Y-53806326D01*
X174286507Y-53760289D01*
X174134583Y-53700440D01*
X174060923Y-54156211D01*
X173419830Y-54156211D01*
X173457832Y-54140098D01*
X173641982Y-53919118D01*
X173706434Y-53585346D01*
X173632774Y-53267687D01*
X173434813Y-53060519D01*
X173149381Y-52947727D01*
X172813307Y-52913199D01*
X172604987Y-52922406D01*
X172421988Y-52950029D01*
X172421988Y-52880972D01*
X172523271Y-52611653D01*
X172661383Y-52530512D01*
X172873156Y-52503465D01*
X173183909Y-52526484D01*
X173425606Y-52581729D01*
X173503869Y-52125957D01*
X173204626Y-52059203D01*
X173007815Y-52036760D01*
X172804099Y-52029279D01*
X172559525Y-52044816D01*
X172359838Y-52091429D01*
X172076707Y-52266372D01*
X171924783Y-52542597D01*
X171878746Y-52908595D01*
X171878746Y-54197645D01*
X170683144Y-54197645D01*
X170663356Y-54165419D01*
X170798399Y-53882288D01*
X170933442Y-53573070D01*
X171068486Y-53237763D01*
X171167466Y-52969739D01*
X171261843Y-52688190D01*
X171351616Y-52393119D01*
X171436786Y-52084524D01*
X170847506Y-52084524D01*
X170753129Y-52448220D01*
X170698459Y-52641577D01*
X170640337Y-52834935D01*
X170578762Y-53026566D01*
X170513734Y-53214744D01*
X170377923Y-53562327D01*
X170281244Y-53214744D01*
X170231754Y-53027142D01*
X170184566Y-52837237D01*
X170139104Y-52645606D01*
X170094793Y-52452824D01*
X170014227Y-52084524D01*
X169434154Y-52084524D01*
X169048161Y-52084524D01*
X169084269Y-51992449D01*
X168844874Y-51886562D01*
X168587064Y-51743846D01*
X168343066Y-51578111D01*
X168145104Y-51398565D01*
X167758389Y-51398565D01*
X167758389Y-53778704D01*
X167192128Y-53778704D01*
X167192128Y-54248286D01*
X166565472Y-54248286D01*
X166711036Y-54211456D01*
X166842243Y-54160815D01*
X166727149Y-53691232D01*
X166469339Y-53783307D01*
X166293246Y-53814383D01*
X166078021Y-53824741D01*
X165804098Y-53787911D01*
X165633759Y-53693534D01*
X165548589Y-53562327D01*
X165525571Y-53410404D01*
X165564703Y-53191726D01*
X165721230Y-53021387D01*
X166055002Y-52910897D01*
X166304755Y-52881548D01*
X166621263Y-52871765D01*
X166579829Y-52489078D01*
X166547603Y-52114448D01*
X166523433Y-51750176D01*
X166506169Y-51398565D01*
X165051384Y-51398565D01*
X165051384Y-51868147D01*
X166031983Y-51868147D01*
X166055002Y-52176599D01*
X166078021Y-52439012D01*
X165729670Y-52486073D01*
X165445772Y-52578148D01*
X165226327Y-52715237D01*
X165070311Y-52896318D01*
X164976701Y-53120367D01*
X164945498Y-53387385D01*
X164040472Y-53387385D01*
X163845202Y-53134179D01*
X164604821Y-52084524D01*
X164010937Y-52084524D01*
X163532147Y-52761275D01*
X163090187Y-52084524D01*
X162514718Y-52084524D01*
X163214488Y-53124971D01*
X162998112Y-53408102D01*
X162795547Y-53709647D01*
X162620604Y-53999684D01*
X162487096Y-54248286D01*
X161961722Y-54248286D01*
X162107286Y-54211456D01*
X162238493Y-54160815D01*
X162123399Y-53691232D01*
X161865589Y-53783307D01*
X161689496Y-53814383D01*
X161474271Y-53824741D01*
X161200348Y-53787911D01*
X161030009Y-53693534D01*
X160944839Y-53562327D01*
X160921821Y-53410404D01*
X160960953Y-53191726D01*
X161117480Y-53021387D01*
X161451252Y-52910897D01*
X161701005Y-52881548D01*
X162017513Y-52871765D01*
X161976079Y-52489078D01*
X161943853Y-52114448D01*
X161919683Y-51750176D01*
X161902419Y-51398565D01*
X160447634Y-51398565D01*
X160447634Y-51868147D01*
X161428233Y-51868147D01*
X161451252Y-52176599D01*
X161474271Y-52439012D01*
X161125920Y-52486073D01*
X160842022Y-52578148D01*
X160622577Y-52715237D01*
X160466561Y-52896318D01*
X160372951Y-53120367D01*
X160341748Y-53387385D01*
X159439413Y-53387385D01*
X159439413Y-52554106D01*
X159932014Y-52554106D01*
X159932014Y-52084524D01*
X159439413Y-52084524D01*
X159439413Y-51541281D01*
X158873152Y-51449206D01*
X158873152Y-52084524D01*
X157966213Y-52084524D01*
X157966213Y-52554106D01*
X158873152Y-52554106D01*
X158873152Y-53428819D01*
X158850133Y-53622176D01*
X158785681Y-53737270D01*
X158684398Y-53792515D01*
X158550889Y-53806326D01*
X158405871Y-53801722D01*
X158276966Y-53785609D01*
X158148061Y-53751081D01*
X158003043Y-53691232D01*
X157924779Y-54179230D01*
X157413763Y-54179230D01*
X157413763Y-53778704D01*
X156815276Y-53778704D01*
X156815276Y-52185806D01*
X157109916Y-52349239D01*
X157390744Y-52462031D01*
X157574894Y-51992449D01*
X157335499Y-51886562D01*
X157077689Y-51743846D01*
X156833691Y-51578111D01*
X156635729Y-51398565D01*
X156249014Y-51398565D01*
X156249014Y-53778704D01*
X155682753Y-53778704D01*
X155682753Y-54248286D01*
X155056097Y-54248286D01*
X155201661Y-54211456D01*
X155332868Y-54160815D01*
X155217774Y-53691232D01*
X154959964Y-53783307D01*
X154783871Y-53814383D01*
X154568646Y-53824741D01*
X154294723Y-53787911D01*
X154124384Y-53693534D01*
X154039214Y-53562327D01*
X154016196Y-53410404D01*
X154055328Y-53191726D01*
X154211855Y-53021387D01*
X154545627Y-52910897D01*
X154795380Y-52881548D01*
X155111888Y-52871765D01*
X155070454Y-52489078D01*
X155038228Y-52114448D01*
X155014058Y-51750176D01*
X154996794Y-51398565D01*
X153542009Y-51398565D01*
X153542009Y-51868147D01*
X154522608Y-51868147D01*
X154545627Y-52176599D01*
X154568646Y-52439012D01*
X154220295Y-52486073D01*
X153936397Y-52578148D01*
X153716952Y-52715237D01*
X153560936Y-52896318D01*
X153467326Y-53120367D01*
X153436123Y-53387385D01*
X150641647Y-53387385D01*
X150641647Y-53345951D01*
X151410473Y-53345951D01*
X152671901Y-53345951D01*
X152671901Y-52788897D01*
X151410473Y-52788897D01*
X151410473Y-53345951D01*
X150641647Y-53345951D01*
X150641647Y-51435395D01*
X150455195Y-51403169D01*
X150245724Y-51382452D01*
X150038556Y-51370942D01*
X149859009Y-51366339D01*
X149523959Y-51391148D01*
X149243130Y-51465575D01*
X149016523Y-51589621D01*
X148850277Y-51769934D01*
X148750529Y-52013166D01*
X148717279Y-52319315D01*
X148143802Y-52319315D01*
X148018085Y-52207674D01*
X147842567Y-52109844D01*
X147645757Y-52049420D01*
X147432833Y-52029279D01*
X147217032Y-52049420D01*
X147020798Y-52109844D01*
X146847006Y-52207674D01*
X146698535Y-52340032D01*
X146578262Y-52504616D01*
X146489064Y-52699124D01*
X146433819Y-52919529D01*
X146415404Y-53161801D01*
X146117907Y-53161801D01*
X146141481Y-52990887D01*
X146176009Y-52696822D01*
X146207085Y-52394126D01*
X146235858Y-52084524D01*
X145752464Y-52084524D01*
X145739932Y-52349495D01*
X145726888Y-52610374D01*
X145713333Y-52867161D01*
X145695685Y-53124460D01*
X145670364Y-53386873D01*
X145637371Y-53654402D01*
X145533786Y-53329838D01*
X145455523Y-53044406D01*
X145391070Y-52781992D01*
X145328919Y-52521880D01*
X144919186Y-52521880D01*
X144861639Y-52781992D01*
X144797186Y-53044406D01*
X144723526Y-53329838D01*
X144629149Y-53654402D01*
X144603829Y-53447234D01*
X144583112Y-53249272D01*
X144566423Y-53056490D01*
X144553188Y-52864859D01*
X144534773Y-52482748D01*
X144527291Y-52287664D01*
X144518659Y-52084524D01*
X144035266Y-52084524D01*
X143135232Y-52084524D01*
X143010931Y-52047694D01*
X142819876Y-52029279D01*
X142526259Y-52060738D01*
X142283795Y-52155115D01*
X142092483Y-52312409D01*
X141954371Y-52530064D01*
X141871503Y-52805522D01*
X141843881Y-53138782D01*
X141273016Y-53138782D01*
X141273016Y-52227240D01*
X141044555Y-52152429D01*
X140810339Y-52093731D01*
X140553104Y-52055750D01*
X140255587Y-52043090D01*
X140124380Y-52047694D01*
X139942532Y-52063807D01*
X139746873Y-52091429D01*
X139569628Y-52135165D01*
X139132272Y-52135165D01*
X139132272Y-51435395D01*
X138777783Y-51387056D01*
X138395672Y-51366339D01*
X138103334Y-51383027D01*
X137870844Y-51433093D01*
X137553186Y-51608036D01*
X137396658Y-51849732D01*
X137355224Y-52116750D01*
X137379970Y-52307806D01*
X137454205Y-52475842D01*
X137718921Y-52724445D01*
X137475497Y-52848746D01*
X137325300Y-53009877D01*
X137247612Y-53194027D01*
X137221716Y-53387385D01*
X136928585Y-53387385D01*
X136945491Y-53161801D01*
X136926500Y-52919529D01*
X136869529Y-52699124D01*
X136778605Y-52504616D01*
X136657756Y-52340032D01*
X136508710Y-52207674D01*
X136333192Y-52109844D01*
X136136382Y-52049420D01*
X135923458Y-52029279D01*
X135707657Y-52049420D01*
X135511423Y-52109844D01*
X135337631Y-52207674D01*
X135189160Y-52340032D01*
X135068887Y-52504616D01*
X134979689Y-52699124D01*
X134924444Y-52919529D01*
X134906029Y-53161801D01*
X134399719Y-53161801D01*
X134302938Y-53060519D01*
X134017506Y-52947727D01*
X133681432Y-52913199D01*
X133473112Y-52922406D01*
X133290113Y-52950029D01*
X133290113Y-52880972D01*
X133391396Y-52611653D01*
X133529508Y-52530512D01*
X133741281Y-52503465D01*
X134052034Y-52526484D01*
X134293731Y-52581729D01*
X134371994Y-52125957D01*
X134072751Y-52059203D01*
X133875940Y-52036760D01*
X133672224Y-52029279D01*
X133427650Y-52044816D01*
X133227963Y-52091429D01*
X132944832Y-52266372D01*
X132792908Y-52542597D01*
X132746871Y-52908595D01*
X132746871Y-54197645D01*
X132065516Y-54197645D01*
X132065516Y-52227240D01*
X131837055Y-52152429D01*
X131602839Y-52093731D01*
X131345604Y-52055750D01*
X131048087Y-52043090D01*
X130916880Y-52047694D01*
X130735032Y-52063807D01*
X130539373Y-52091429D01*
X130362128Y-52135165D01*
X129573513Y-52135165D01*
X129441122Y-52072503D01*
X129178964Y-52038486D01*
X128953381Y-52063807D01*
X128760023Y-52135165D01*
X128760023Y-51149962D01*
X128193762Y-51053284D01*
X126903577Y-51053284D01*
X127077176Y-50949232D01*
X127287237Y-50849881D01*
X127506024Y-50771597D01*
X127731431Y-50715136D01*
X127961287Y-50681040D01*
X128193378Y-50669638D01*
X208331622Y-50669638D01*
X208563713Y-50681040D01*
X208793569Y-50715136D01*
X209018976Y-50771597D01*
X209237763Y-50849881D01*
X209447824Y-50949232D01*
X209647135Y-51068695D01*
X209833778Y-51207118D01*
X210005953Y-51363169D01*
X210162004Y-51535344D01*
X210300427Y-51721986D01*
X210419890Y-51921298D01*
X210519241Y-52131358D01*
X210597524Y-52350146D01*
X210653986Y-52575553D01*
X210688082Y-52805409D01*
X210699484Y-53037500D01*
X210688082Y-53269591D01*
X210653986Y-53499447D01*
X210597524Y-53724854D01*
X210519241Y-53943642D01*
X210419890Y-54153702D01*
X210300427Y-54353014D01*
X210162004Y-54539656D01*
X210005953Y-54711831D01*
X209833778Y-54867882D01*
X209647135Y-55006305D01*
X209447824Y-55125768D01*
X209237763Y-55225119D01*
X209018976Y-55303403D01*
X208793569Y-55359864D01*
X208563713Y-55393960D01*
X208331622Y-55405362D01*
X128193378Y-55405362D01*
X127961287Y-55393960D01*
G37*
G36*
X138566011Y-53774100D02*
G01*
X138434804Y-53787911D01*
X138294389Y-53792515D01*
X138105636Y-53776402D01*
X137942203Y-53716553D01*
X137824807Y-53592252D01*
X137778769Y-53387385D01*
X137909976Y-53090443D01*
X138262163Y-53000670D01*
X138566011Y-53000670D01*
X138566011Y-53774100D01*
G37*
G36*
X179907686Y-51861242D02*
G01*
X179999761Y-51872751D01*
X179999761Y-52729049D01*
X179875459Y-52729049D01*
X179625706Y-52700851D01*
X179456518Y-52616257D01*
X179327613Y-52296296D01*
X179362141Y-52100637D01*
X179465726Y-51964826D01*
X179625706Y-51885412D01*
X179829422Y-51858940D01*
X179907686Y-51861242D01*
G37*
G36*
X149934971Y-51861242D02*
G01*
X150075386Y-51872751D01*
X150075386Y-52793501D01*
X149845198Y-52793501D01*
X149606954Y-52766454D01*
X149435464Y-52685313D01*
X149331880Y-52538569D01*
X149297352Y-52314711D01*
X149331305Y-52102363D01*
X149433163Y-51962524D01*
X149591416Y-51884836D01*
X149794557Y-51858940D01*
X149934971Y-51861242D01*
G37*
G36*
X172868552Y-53320631D02*
G01*
X173013570Y-53359762D01*
X173112551Y-53438026D01*
X173149381Y-53571535D01*
X173038891Y-53781006D01*
X172753458Y-53843156D01*
X172573912Y-53840854D01*
X172421988Y-53829345D01*
X172421988Y-53332140D01*
X172555497Y-53316027D01*
X172698213Y-53309121D01*
X172868552Y-53320631D01*
G37*
G36*
X138441709Y-51863544D02*
G01*
X138566011Y-51877355D01*
X138566011Y-52531087D01*
X138345031Y-52531087D01*
X138018164Y-52436711D01*
X137907674Y-52176599D01*
X137939901Y-52013166D01*
X138027372Y-51916487D01*
X138156277Y-51870449D01*
X138308201Y-51858940D01*
X138441709Y-51863544D01*
G37*
G36*
X195966141Y-52566191D02*
G01*
X196105980Y-52699124D01*
X196190574Y-52904567D01*
X196218772Y-53166405D01*
X196192876Y-53428819D01*
X196115188Y-53635987D01*
X195979952Y-53770647D01*
X195781416Y-53815534D01*
X195587483Y-53770647D01*
X195447644Y-53635987D01*
X195363050Y-53428819D01*
X195334852Y-53166405D01*
X195360748Y-52904567D01*
X195438436Y-52699124D01*
X195573671Y-52566191D01*
X195772208Y-52521880D01*
X195966141Y-52566191D01*
G37*
G36*
X129257228Y-52566767D02*
G01*
X129376926Y-52687615D01*
X129445982Y-52884425D01*
X129469001Y-53152594D01*
X129441954Y-53416158D01*
X129360813Y-53626780D01*
X129219823Y-53764892D01*
X129013229Y-53810930D01*
X128884324Y-53806326D01*
X128760023Y-53792515D01*
X128760023Y-52613955D01*
X128907343Y-52551804D01*
X129082286Y-52526484D01*
X129257228Y-52566767D01*
G37*
G36*
X133736677Y-53320631D02*
G01*
X133881695Y-53359762D01*
X133980676Y-53438026D01*
X134017506Y-53571535D01*
X133907016Y-53781006D01*
X133621583Y-53843156D01*
X133442037Y-53840854D01*
X133290113Y-53829345D01*
X133290113Y-53332140D01*
X133423622Y-53316027D01*
X133566338Y-53309121D01*
X133736677Y-53320631D01*
G37*
G36*
X186758641Y-52566191D02*
G01*
X186898480Y-52699124D01*
X186983074Y-52904567D01*
X187011272Y-53166405D01*
X186985376Y-53428819D01*
X186907688Y-53635987D01*
X186772452Y-53770647D01*
X186573916Y-53815534D01*
X186379983Y-53770647D01*
X186240144Y-53635987D01*
X186155550Y-53428819D01*
X186127352Y-53166405D01*
X186153248Y-52904567D01*
X186230936Y-52699124D01*
X186366171Y-52566191D01*
X186564708Y-52521880D01*
X186758641Y-52566191D01*
G37*
%LPC*%
D11*
X132302500Y-87667500D03*
X132302500Y-77507500D03*
X132302500Y-72427500D03*
X127222500Y-85127500D03*
X148182500Y-94412500D03*
X148182500Y-104572500D03*
X148182500Y-109652500D03*
X153262500Y-96952500D03*
G36*
G01*
X131982500Y-120310001D02*
X131982500Y-117209999D01*
G75*
G02*
X132232499Y-116960000I249999J0D01*
G01*
X133812501Y-116960000D01*
G75*
G02*
X134062500Y-117209999I0J-249999D01*
G01*
X134062500Y-120310001D01*
G75*
G02*
X133812501Y-120560000I-249999J0D01*
G01*
X132232499Y-120560000D01*
G75*
G02*
X131982500Y-120310001I0J249999D01*
G01*
G37*
D12*
X138102500Y-118760000D03*
X143182500Y-118760000D03*
X148262500Y-118760000D03*
X153342500Y-118760000D03*
X158422500Y-118760000D03*
X163502500Y-118760000D03*
G36*
G01*
X203932500Y-61765001D02*
X203932500Y-64864999D01*
G75*
G02*
X203682499Y-65115000I-250001J0D01*
G01*
X202082501Y-65115000D01*
G75*
G02*
X201832500Y-64864999I0J250001D01*
G01*
X201832500Y-61765001D01*
G75*
G02*
X202082501Y-61515000I250001J0D01*
G01*
X203682499Y-61515000D01*
G75*
G02*
X203932500Y-61765001I0J-250001D01*
G01*
G37*
D13*
X195262500Y-63315000D03*
X187642500Y-63315000D03*
D11*
X141182500Y-94412500D03*
X141182500Y-104572500D03*
X141182500Y-109652500D03*
X146262500Y-96952500D03*
D14*
X127262500Y-122037500D03*
D11*
X176182500Y-94412500D03*
X176182500Y-104572500D03*
X176182500Y-109652500D03*
X181262500Y-96952500D03*
X153302500Y-87667500D03*
X153302500Y-77507500D03*
X153302500Y-72427500D03*
X148222500Y-85127500D03*
X127182500Y-94412500D03*
X127182500Y-104572500D03*
X127182500Y-109652500D03*
X132262500Y-96952500D03*
X155182500Y-94412500D03*
X155182500Y-104572500D03*
X155182500Y-109652500D03*
X160262500Y-96952500D03*
G36*
G01*
X163542500Y-61764999D02*
X163542500Y-64865001D01*
G75*
G02*
X163292501Y-65115000I-249999J0D01*
G01*
X161712499Y-65115000D01*
G75*
G02*
X161462500Y-64865001I0J249999D01*
G01*
X161462500Y-61764999D01*
G75*
G02*
X161712499Y-61515000I249999J0D01*
G01*
X163292501Y-61515000D01*
G75*
G02*
X163542500Y-61764999I0J-249999D01*
G01*
G37*
D12*
X157422500Y-63315000D03*
X152342500Y-63315000D03*
X147262500Y-63315000D03*
X142182500Y-63315000D03*
X137102500Y-63315000D03*
X132022500Y-63315000D03*
D11*
X169182500Y-94412500D03*
X169182500Y-104572500D03*
X169182500Y-109652500D03*
X174262500Y-96952500D03*
D14*
X127262500Y-50037500D03*
D15*
X200262500Y-73537500D03*
D14*
X209262500Y-50037500D03*
D11*
X146302500Y-87667500D03*
X146302500Y-77507500D03*
X146302500Y-72427500D03*
X141222500Y-85127500D03*
G36*
G01*
X170982500Y-120310001D02*
X170982500Y-117209999D01*
G75*
G02*
X171232499Y-116960000I249999J0D01*
G01*
X172812501Y-116960000D01*
G75*
G02*
X173062500Y-117209999I0J-249999D01*
G01*
X173062500Y-120310001D01*
G75*
G02*
X172812501Y-120560000I-249999J0D01*
G01*
X171232499Y-120560000D01*
G75*
G02*
X170982500Y-120310001I0J249999D01*
G01*
G37*
D12*
X177102500Y-118760000D03*
X182182500Y-118760000D03*
X187262500Y-118760000D03*
X192342500Y-118760000D03*
X197422500Y-118760000D03*
X202502500Y-118760000D03*
D11*
X162182500Y-94412500D03*
X162182500Y-104572500D03*
X162182500Y-109652500D03*
X167262500Y-96952500D03*
X183182500Y-94412500D03*
X183182500Y-104572500D03*
X183182500Y-109652500D03*
X188262500Y-96952500D03*
X190182500Y-94412500D03*
X190182500Y-104572500D03*
X190182500Y-109652500D03*
X195262500Y-96952500D03*
X160302500Y-87667500D03*
X160302500Y-77507500D03*
X160302500Y-72427500D03*
X155222500Y-85127500D03*
X139302500Y-87667500D03*
X139302500Y-77507500D03*
X139302500Y-72427500D03*
X134222500Y-85127500D03*
X134182500Y-94412500D03*
X134182500Y-104572500D03*
X134182500Y-109652500D03*
X139262500Y-96952500D03*
M02*
