G04 #@! TF.GenerationSoftware,KiCad,Pcbnew,6.0.10+dfsg-1~bpo11+1*
G04 #@! TF.ProjectId,project,70726f6a-6563-4742-9e6b-696361645f70,rev?*
G04 #@! TF.SameCoordinates,Original*
G04 #@! TF.FileFunction,Paste,Top*
G04 #@! TF.FilePolarity,Positive*
%FSLAX46Y46*%
G04 Gerber Fmt 4.6, Leading zero omitted, Abs format (unit mm)*
%MOMM*%
%LPD*%
G01*
G04 APERTURE LIST*
G04 #@! TA.AperFunction,Profile*
%ADD10C,0.100000*%
G04 #@! TD*
%ADD11C,0.120000*%
%ADD12R,1.000000X1.000000*%
%ADD13R,0.300000X1.300000*%
%ADD14R,2.000000X3.000000*%
G04 APERTURE END LIST*
D10*
X125512500Y-133037500D02*
G75*
G03*
X126512500Y-134037500I1000000J0D01*
G01*
X211012500Y-49037500D02*
X211012500Y-133037500D01*
X210012500Y-134037500D02*
X126512500Y-134037500D01*
X126512500Y-48037500D02*
X210012500Y-48037500D01*
X210012500Y-134037500D02*
G75*
G03*
X211012500Y-133037500I0J1000000D01*
G01*
X211012500Y-49037500D02*
G75*
G03*
X210012500Y-48037500I-1000000J0D01*
G01*
X126512500Y-48037500D02*
G75*
G03*
X125512500Y-49037500I0J-1000000D01*
G01*
X125512500Y-133037500D02*
X125512500Y-49037500D01*
G36*
X198064928Y-73880369D02*
G01*
X198105592Y-74163199D01*
X198186094Y-74437363D01*
X198304794Y-74697280D01*
X198459276Y-74937659D01*
X198646395Y-75153605D01*
X198862341Y-75340724D01*
X199102720Y-75495206D01*
X199362637Y-75613906D01*
X199636801Y-75694408D01*
X199919631Y-75735072D01*
X200062500Y-75737500D01*
X200062500Y-76937500D01*
X199882928Y-76935075D01*
X199526042Y-76894864D01*
X199175903Y-76814947D01*
X198836913Y-76696329D01*
X198513335Y-76540503D01*
X198209239Y-76349427D01*
X197928449Y-76125504D01*
X197674496Y-75871551D01*
X197450573Y-75590761D01*
X197259497Y-75286665D01*
X197103671Y-74963087D01*
X196985053Y-74624097D01*
X196905136Y-74273958D01*
X196864925Y-73917072D01*
X196862500Y-73737500D01*
X198062500Y-73737500D01*
X198064928Y-73880369D01*
G37*
D11*
X198064928Y-73880369D02*
X198105592Y-74163199D01*
X198186094Y-74437363D01*
X198304794Y-74697280D01*
X198459276Y-74937659D01*
X198646395Y-75153605D01*
X198862341Y-75340724D01*
X199102720Y-75495206D01*
X199362637Y-75613906D01*
X199636801Y-75694408D01*
X199919631Y-75735072D01*
X200062500Y-75737500D01*
X200062500Y-76937500D01*
X199882928Y-76935075D01*
X199526042Y-76894864D01*
X199175903Y-76814947D01*
X198836913Y-76696329D01*
X198513335Y-76540503D01*
X198209239Y-76349427D01*
X197928449Y-76125504D01*
X197674496Y-75871551D01*
X197450573Y-75590761D01*
X197259497Y-75286665D01*
X197103671Y-74963087D01*
X196985053Y-74624097D01*
X196905136Y-74273958D01*
X196864925Y-73917072D01*
X196862500Y-73737500D01*
X198062500Y-73737500D01*
X198064928Y-73880369D01*
G36*
X200062500Y-71337500D02*
G01*
X199919631Y-71339928D01*
X199636801Y-71380592D01*
X199362637Y-71461094D01*
X199102720Y-71579794D01*
X198862341Y-71734276D01*
X198646395Y-71921395D01*
X198459276Y-72137341D01*
X198304794Y-72377720D01*
X198186094Y-72637637D01*
X198105592Y-72911801D01*
X198064928Y-73194631D01*
X198062500Y-73337500D01*
X196862500Y-73337500D01*
X196864925Y-73157928D01*
X196905136Y-72801042D01*
X196985053Y-72450903D01*
X197103671Y-72111913D01*
X197259497Y-71788335D01*
X197450573Y-71484239D01*
X197674496Y-71203449D01*
X197928449Y-70949496D01*
X198209239Y-70725573D01*
X198513335Y-70534497D01*
X198836913Y-70378671D01*
X199175903Y-70260053D01*
X199526042Y-70180136D01*
X199882928Y-70139925D01*
X200062500Y-70137500D01*
X200062500Y-71337500D01*
G37*
X200062500Y-71337500D02*
X199919631Y-71339928D01*
X199636801Y-71380592D01*
X199362637Y-71461094D01*
X199102720Y-71579794D01*
X198862341Y-71734276D01*
X198646395Y-71921395D01*
X198459276Y-72137341D01*
X198304794Y-72377720D01*
X198186094Y-72637637D01*
X198105592Y-72911801D01*
X198064928Y-73194631D01*
X198062500Y-73337500D01*
X196862500Y-73337500D01*
X196864925Y-73157928D01*
X196905136Y-72801042D01*
X196985053Y-72450903D01*
X197103671Y-72111913D01*
X197259497Y-71788335D01*
X197450573Y-71484239D01*
X197674496Y-71203449D01*
X197928449Y-70949496D01*
X198209239Y-70725573D01*
X198513335Y-70534497D01*
X198836913Y-70378671D01*
X199175903Y-70260053D01*
X199526042Y-70180136D01*
X199882928Y-70139925D01*
X200062500Y-70137500D01*
X200062500Y-71337500D01*
G36*
X200642067Y-70140017D02*
G01*
X200998942Y-70180227D01*
X201349072Y-70260142D01*
X201688052Y-70378756D01*
X202011620Y-70534579D01*
X202315707Y-70725649D01*
X202596489Y-70949565D01*
X202850435Y-71203511D01*
X203074351Y-71484293D01*
X203265421Y-71788380D01*
X203421244Y-72111948D01*
X203539858Y-72450928D01*
X203619773Y-72801058D01*
X203659983Y-73157933D01*
X203662500Y-73337500D01*
X202462500Y-73337500D01*
X202460072Y-73194631D01*
X202419408Y-72911801D01*
X202338906Y-72637637D01*
X202220206Y-72377720D01*
X202065724Y-72137341D01*
X201878605Y-71921395D01*
X201662659Y-71734276D01*
X201422280Y-71579794D01*
X201162363Y-71461094D01*
X200888199Y-71380592D01*
X200605369Y-71339928D01*
X200462500Y-71337500D01*
X200462500Y-70137500D01*
X200642067Y-70140017D01*
G37*
X200642067Y-70140017D02*
X200998942Y-70180227D01*
X201349072Y-70260142D01*
X201688052Y-70378756D01*
X202011620Y-70534579D01*
X202315707Y-70725649D01*
X202596489Y-70949565D01*
X202850435Y-71203511D01*
X203074351Y-71484293D01*
X203265421Y-71788380D01*
X203421244Y-72111948D01*
X203539858Y-72450928D01*
X203619773Y-72801058D01*
X203659983Y-73157933D01*
X203662500Y-73337500D01*
X202462500Y-73337500D01*
X202460072Y-73194631D01*
X202419408Y-72911801D01*
X202338906Y-72637637D01*
X202220206Y-72377720D01*
X202065724Y-72137341D01*
X201878605Y-71921395D01*
X201662659Y-71734276D01*
X201422280Y-71579794D01*
X201162363Y-71461094D01*
X200888199Y-71380592D01*
X200605369Y-71339928D01*
X200462500Y-71337500D01*
X200462500Y-70137500D01*
X200642067Y-70140017D01*
G36*
X203660075Y-73917072D02*
G01*
X203619864Y-74273958D01*
X203539947Y-74624097D01*
X203421329Y-74963087D01*
X203265503Y-75286665D01*
X203074427Y-75590761D01*
X202850504Y-75871551D01*
X202596551Y-76125504D01*
X202315761Y-76349427D01*
X202011665Y-76540503D01*
X201688087Y-76696329D01*
X201349097Y-76814947D01*
X200998958Y-76894864D01*
X200642072Y-76935075D01*
X200462500Y-76937500D01*
X200462500Y-75737500D01*
X200605369Y-75735072D01*
X200888199Y-75694408D01*
X201162363Y-75613906D01*
X201422280Y-75495206D01*
X201662659Y-75340724D01*
X201878605Y-75153605D01*
X202065724Y-74937659D01*
X202220206Y-74697280D01*
X202338906Y-74437363D01*
X202419408Y-74163199D01*
X202460072Y-73880369D01*
X202462500Y-73737500D01*
X203662500Y-73737500D01*
X203660075Y-73917072D01*
G37*
X203660075Y-73917072D02*
X203619864Y-74273958D01*
X203539947Y-74624097D01*
X203421329Y-74963087D01*
X203265503Y-75286665D01*
X203074427Y-75590761D01*
X202850504Y-75871551D01*
X202596551Y-76125504D01*
X202315761Y-76349427D01*
X202011665Y-76540503D01*
X201688087Y-76696329D01*
X201349097Y-76814947D01*
X200998958Y-76894864D01*
X200642072Y-76935075D01*
X200462500Y-76937500D01*
X200462500Y-75737500D01*
X200605369Y-75735072D01*
X200888199Y-75694408D01*
X201162363Y-75613906D01*
X201422280Y-75495206D01*
X201662659Y-75340724D01*
X201878605Y-75153605D01*
X202065724Y-74937659D01*
X202220206Y-74697280D01*
X202338906Y-74437363D01*
X202419408Y-74163199D01*
X202460072Y-73880369D01*
X202462500Y-73737500D01*
X203662500Y-73737500D01*
X203660075Y-73917072D01*
D12*
X139012500Y-91037500D03*
X141512500Y-91037500D03*
X147012500Y-91037500D03*
X149512500Y-91037500D03*
X153512500Y-91037500D03*
X151012500Y-91037500D03*
G36*
G01*
X192662500Y-88587500D02*
X192662500Y-89487500D01*
G75*
G02*
X192412500Y-89737500I-250000J0D01*
G01*
X191762500Y-89737500D01*
G75*
G02*
X191512500Y-89487500I0J250000D01*
G01*
X191512500Y-88587500D01*
G75*
G02*
X191762500Y-88337500I250000J0D01*
G01*
X192412500Y-88337500D01*
G75*
G02*
X192662500Y-88587500I0J-250000D01*
G01*
G37*
G36*
G01*
X190612500Y-88587500D02*
X190612500Y-89487500D01*
G75*
G02*
X190362500Y-89737500I-250000J0D01*
G01*
X189712500Y-89737500D01*
G75*
G02*
X189462500Y-89487500I0J250000D01*
G01*
X189462500Y-88587500D01*
G75*
G02*
X189712500Y-88337500I250000J0D01*
G01*
X190362500Y-88337500D01*
G75*
G02*
X190612500Y-88587500I0J-250000D01*
G01*
G37*
X161512500Y-91037500D03*
X159012500Y-91037500D03*
G36*
G01*
X179612500Y-67700000D02*
X179912500Y-67700000D01*
G75*
G02*
X180062500Y-67850000I0J-150000D01*
G01*
X180062500Y-68875000D01*
G75*
G02*
X179912500Y-69025000I-150000J0D01*
G01*
X179612500Y-69025000D01*
G75*
G02*
X179462500Y-68875000I0J150000D01*
G01*
X179462500Y-67850000D01*
G75*
G02*
X179612500Y-67700000I150000J0D01*
G01*
G37*
G36*
G01*
X178662500Y-67700000D02*
X178962500Y-67700000D01*
G75*
G02*
X179112500Y-67850000I0J-150000D01*
G01*
X179112500Y-68875000D01*
G75*
G02*
X178962500Y-69025000I-150000J0D01*
G01*
X178662500Y-69025000D01*
G75*
G02*
X178512500Y-68875000I0J150000D01*
G01*
X178512500Y-67850000D01*
G75*
G02*
X178662500Y-67700000I150000J0D01*
G01*
G37*
G36*
G01*
X177712500Y-67700000D02*
X178012500Y-67700000D01*
G75*
G02*
X178162500Y-67850000I0J-150000D01*
G01*
X178162500Y-68875000D01*
G75*
G02*
X178012500Y-69025000I-150000J0D01*
G01*
X177712500Y-69025000D01*
G75*
G02*
X177562500Y-68875000I0J150000D01*
G01*
X177562500Y-67850000D01*
G75*
G02*
X177712500Y-67700000I150000J0D01*
G01*
G37*
G36*
G01*
X177712500Y-69975000D02*
X178012500Y-69975000D01*
G75*
G02*
X178162500Y-70125000I0J-150000D01*
G01*
X178162500Y-71150000D01*
G75*
G02*
X178012500Y-71300000I-150000J0D01*
G01*
X177712500Y-71300000D01*
G75*
G02*
X177562500Y-71150000I0J150000D01*
G01*
X177562500Y-70125000D01*
G75*
G02*
X177712500Y-69975000I150000J0D01*
G01*
G37*
G36*
G01*
X178662500Y-69975000D02*
X178962500Y-69975000D01*
G75*
G02*
X179112500Y-70125000I0J-150000D01*
G01*
X179112500Y-71150000D01*
G75*
G02*
X178962500Y-71300000I-150000J0D01*
G01*
X178662500Y-71300000D01*
G75*
G02*
X178512500Y-71150000I0J150000D01*
G01*
X178512500Y-70125000D01*
G75*
G02*
X178662500Y-69975000I150000J0D01*
G01*
G37*
G36*
G01*
X179612500Y-69975000D02*
X179912500Y-69975000D01*
G75*
G02*
X180062500Y-70125000I0J-150000D01*
G01*
X180062500Y-71150000D01*
G75*
G02*
X179912500Y-71300000I-150000J0D01*
G01*
X179612500Y-71300000D01*
G75*
G02*
X179462500Y-71150000I0J150000D01*
G01*
X179462500Y-70125000D01*
G75*
G02*
X179612500Y-69975000I150000J0D01*
G01*
G37*
X163012500Y-91037500D03*
X165512500Y-91037500D03*
G36*
G01*
X185662500Y-87487500D02*
X185662500Y-86587500D01*
G75*
G02*
X185912500Y-86337500I250000J0D01*
G01*
X186612500Y-86337500D01*
G75*
G02*
X186862500Y-86587500I0J-250000D01*
G01*
X186862500Y-87487500D01*
G75*
G02*
X186612500Y-87737500I-250000J0D01*
G01*
X185912500Y-87737500D01*
G75*
G02*
X185662500Y-87487500I0J250000D01*
G01*
G37*
G36*
G01*
X187662500Y-87487500D02*
X187662500Y-86587500D01*
G75*
G02*
X187912500Y-86337500I250000J0D01*
G01*
X188612500Y-86337500D01*
G75*
G02*
X188862500Y-86587500I0J-250000D01*
G01*
X188862500Y-87487500D01*
G75*
G02*
X188612500Y-87737500I-250000J0D01*
G01*
X187912500Y-87737500D01*
G75*
G02*
X187662500Y-87487500I0J250000D01*
G01*
G37*
G36*
G01*
X161637500Y-85512500D02*
X161637500Y-84562500D01*
G75*
G02*
X161887500Y-84312500I250000J0D01*
G01*
X162562500Y-84312500D01*
G75*
G02*
X162812500Y-84562500I0J-250000D01*
G01*
X162812500Y-85512500D01*
G75*
G02*
X162562500Y-85762500I-250000J0D01*
G01*
X161887500Y-85762500D01*
G75*
G02*
X161637500Y-85512500I0J250000D01*
G01*
G37*
G36*
G01*
X163712500Y-85512500D02*
X163712500Y-84562500D01*
G75*
G02*
X163962500Y-84312500I250000J0D01*
G01*
X164637500Y-84312500D01*
G75*
G02*
X164887500Y-84562500I0J-250000D01*
G01*
X164887500Y-85512500D01*
G75*
G02*
X164637500Y-85762500I-250000J0D01*
G01*
X163962500Y-85762500D01*
G75*
G02*
X163712500Y-85512500I0J250000D01*
G01*
G37*
D13*
X181012500Y-84637500D03*
X180512500Y-84637500D03*
X180012500Y-84637500D03*
X179512500Y-84637500D03*
X179012500Y-84637500D03*
X178512500Y-84637500D03*
X178012500Y-84637500D03*
X177512500Y-84637500D03*
X177012500Y-84637500D03*
X176512500Y-84637500D03*
X176012500Y-84637500D03*
X175512500Y-84637500D03*
X175012500Y-84637500D03*
X174512500Y-84637500D03*
X174012500Y-84637500D03*
X173512500Y-84637500D03*
X173012500Y-84637500D03*
X172512500Y-84637500D03*
X172012500Y-84637500D03*
X171512500Y-84637500D03*
X171012500Y-84637500D03*
X170512500Y-84637500D03*
X170012500Y-84637500D03*
X169512500Y-84637500D03*
D14*
X182662500Y-82287500D03*
X167862500Y-82287500D03*
D12*
X145512500Y-91037500D03*
X143012500Y-91037500D03*
G36*
G01*
X185662500Y-89487500D02*
X185662500Y-88587500D01*
G75*
G02*
X185912500Y-88337500I250000J0D01*
G01*
X186612500Y-88337500D01*
G75*
G02*
X186862500Y-88587500I0J-250000D01*
G01*
X186862500Y-89487500D01*
G75*
G02*
X186612500Y-89737500I-250000J0D01*
G01*
X185912500Y-89737500D01*
G75*
G02*
X185662500Y-89487500I0J250000D01*
G01*
G37*
G36*
G01*
X187662500Y-89487500D02*
X187662500Y-88587500D01*
G75*
G02*
X187912500Y-88337500I250000J0D01*
G01*
X188612500Y-88337500D01*
G75*
G02*
X188862500Y-88587500I0J-250000D01*
G01*
X188862500Y-89487500D01*
G75*
G02*
X188612500Y-89737500I-250000J0D01*
G01*
X187912500Y-89737500D01*
G75*
G02*
X187662500Y-89487500I0J250000D01*
G01*
G37*
X131012500Y-91037500D03*
X133512500Y-91037500D03*
X129512500Y-91037500D03*
X127012500Y-91037500D03*
X178512500Y-91037500D03*
X176012500Y-91037500D03*
X185512500Y-91037500D03*
X183012500Y-91037500D03*
G36*
G01*
X192662500Y-86587500D02*
X192662500Y-87487500D01*
G75*
G02*
X192412500Y-87737500I-250000J0D01*
G01*
X191762500Y-87737500D01*
G75*
G02*
X191512500Y-87487500I0J250000D01*
G01*
X191512500Y-86587500D01*
G75*
G02*
X191762500Y-86337500I250000J0D01*
G01*
X192412500Y-86337500D01*
G75*
G02*
X192662500Y-86587500I0J-250000D01*
G01*
G37*
G36*
G01*
X190612500Y-86587500D02*
X190612500Y-87487500D01*
G75*
G02*
X190362500Y-87737500I-250000J0D01*
G01*
X189712500Y-87737500D01*
G75*
G02*
X189462500Y-87487500I0J250000D01*
G01*
X189462500Y-86587500D01*
G75*
G02*
X189712500Y-86337500I250000J0D01*
G01*
X190362500Y-86337500D01*
G75*
G02*
X190612500Y-86587500I0J-250000D01*
G01*
G37*
X173512500Y-91037500D03*
X171012500Y-91037500D03*
G36*
G01*
X176287500Y-71125000D02*
X175337500Y-71125000D01*
G75*
G02*
X175087500Y-70875000I0J250000D01*
G01*
X175087500Y-70200000D01*
G75*
G02*
X175337500Y-69950000I250000J0D01*
G01*
X176287500Y-69950000D01*
G75*
G02*
X176537500Y-70200000I0J-250000D01*
G01*
X176537500Y-70875000D01*
G75*
G02*
X176287500Y-71125000I-250000J0D01*
G01*
G37*
G36*
G01*
X176287500Y-69050000D02*
X175337500Y-69050000D01*
G75*
G02*
X175087500Y-68800000I0J250000D01*
G01*
X175087500Y-68125000D01*
G75*
G02*
X175337500Y-67875000I250000J0D01*
G01*
X176287500Y-67875000D01*
G75*
G02*
X176537500Y-68125000I0J-250000D01*
G01*
X176537500Y-68800000D01*
G75*
G02*
X176287500Y-69050000I-250000J0D01*
G01*
G37*
X155012500Y-91037500D03*
X157512500Y-91037500D03*
X169512500Y-91037500D03*
X167012500Y-91037500D03*
X192512500Y-91037500D03*
X190012500Y-91037500D03*
G36*
G01*
X173687500Y-86562500D02*
X173687500Y-87512500D01*
G75*
G02*
X173437500Y-87762500I-250000J0D01*
G01*
X172762500Y-87762500D01*
G75*
G02*
X172512500Y-87512500I0J250000D01*
G01*
X172512500Y-86562500D01*
G75*
G02*
X172762500Y-86312500I250000J0D01*
G01*
X173437500Y-86312500D01*
G75*
G02*
X173687500Y-86562500I0J-250000D01*
G01*
G37*
G36*
G01*
X171612500Y-86562500D02*
X171612500Y-87512500D01*
G75*
G02*
X171362500Y-87762500I-250000J0D01*
G01*
X170687500Y-87762500D01*
G75*
G02*
X170437500Y-87512500I0J250000D01*
G01*
X170437500Y-86562500D01*
G75*
G02*
X170687500Y-86312500I250000J0D01*
G01*
X171362500Y-86312500D01*
G75*
G02*
X171612500Y-86562500I0J-250000D01*
G01*
G37*
X137512500Y-91037500D03*
X135012500Y-91037500D03*
M02*
