G04 #@! TF.GenerationSoftware,KiCad,Pcbnew,6.0.10+dfsg-1~bpo11+1*
G04 #@! TF.ProjectId,project,70726f6a-6563-4742-9e6b-696361645f70,rev?*
G04 #@! TF.SameCoordinates,Original*
G04 #@! TF.FileFunction,Legend,Bot*
G04 #@! TF.FilePolarity,Positive*
%FSLAX46Y46*%
G04 Gerber Fmt 4.6, Leading zero omitted, Abs format (unit mm)*
%MOMM*%
%LPD*%
G01*
G04 APERTURE LIST*
G04 #@! TA.AperFunction,Profile*
%ADD10C,0.100000*%
G04 #@! TD*
%ADD11C,2.400000*%
%ADD12O,2.080000X3.600000*%
%ADD13O,2.100000X3.600000*%
%ADD14C,1.552000*%
%ADD15C,5.000000*%
G04 APERTURE END LIST*
D10*
X125512500Y-133037500D02*
G75*
G03*
X126512500Y-134037500I1000000J0D01*
G01*
X211012500Y-49037500D02*
X211012500Y-133037500D01*
X210012500Y-134037500D02*
X126512500Y-134037500D01*
X126512500Y-48037500D02*
X210012500Y-48037500D01*
X210012500Y-134037500D02*
G75*
G03*
X211012500Y-133037500I0J1000000D01*
G01*
X211012500Y-49037500D02*
G75*
G03*
X210012500Y-48037500I-1000000J0D01*
G01*
X126512500Y-48037500D02*
G75*
G03*
X125512500Y-49037500I0J-1000000D01*
G01*
X125512500Y-133037500D02*
X125512500Y-49037500D01*
G36*
X193462500Y-80837500D02*
G01*
X193462500Y-80337500D01*
X193962500Y-80337500D01*
X195462500Y-80337500D01*
X195462500Y-78837500D01*
X193962500Y-78837500D01*
X193962500Y-80337500D01*
X193462500Y-80337500D01*
X193462500Y-78337500D01*
X195962500Y-78337500D01*
X195962500Y-80837500D01*
X193462500Y-80837500D01*
G37*
G36*
X192462500Y-94837500D02*
G01*
X192462500Y-94087500D01*
X192962500Y-94087500D01*
X192963556Y-94133571D01*
X193022199Y-94296197D01*
X193212500Y-94337500D01*
X193258572Y-94336444D01*
X193421198Y-94277801D01*
X193462500Y-94087500D01*
X193461445Y-94041428D01*
X193402802Y-93878802D01*
X193212500Y-93837500D01*
X193166429Y-93838555D01*
X193003803Y-93897198D01*
X192962500Y-94087500D01*
X192462500Y-94087500D01*
X192462500Y-93337500D01*
X192962500Y-93337500D01*
X193962500Y-93337500D01*
X193962500Y-92337500D01*
X192962500Y-92337500D01*
X192962500Y-93337500D01*
X192462500Y-93337500D01*
X192462500Y-91087500D01*
X192962500Y-91087500D01*
X192963420Y-91350925D01*
X192974842Y-91626993D01*
X193010802Y-91772027D01*
X193085340Y-91828153D01*
X193212500Y-91837500D01*
X193300309Y-91834742D01*
X193392332Y-91800474D01*
X193440676Y-91692596D01*
X193459385Y-91468981D01*
X193462500Y-91087500D01*
X193463420Y-90824074D01*
X193474842Y-90548006D01*
X193510802Y-90402972D01*
X193585340Y-90346846D01*
X193712500Y-90337500D01*
X193758572Y-90338555D01*
X193921198Y-90397198D01*
X193962500Y-90587500D01*
X193967237Y-90687830D01*
X194017716Y-90788029D01*
X194165756Y-90829394D01*
X194462500Y-90837500D01*
X194663162Y-90839868D01*
X194863559Y-90865107D01*
X194946289Y-90939127D01*
X194962500Y-91087500D01*
X194961445Y-91133571D01*
X194902802Y-91296197D01*
X194712500Y-91337500D01*
X194666429Y-91338555D01*
X194503803Y-91397198D01*
X194462500Y-91587500D01*
X194463556Y-91633571D01*
X194522199Y-91796197D01*
X194712500Y-91837500D01*
X194758572Y-91838555D01*
X194921198Y-91897198D01*
X194962500Y-92087500D01*
X194965258Y-92175308D01*
X194999526Y-92267331D01*
X195107404Y-92315675D01*
X195331019Y-92334384D01*
X195712500Y-92337500D01*
X195975926Y-92338419D01*
X196251994Y-92349841D01*
X196397028Y-92385801D01*
X196453154Y-92460339D01*
X196462500Y-92587500D01*
X196461445Y-92633571D01*
X196402802Y-92796197D01*
X196212500Y-92837500D01*
X196166429Y-92838555D01*
X196003803Y-92897198D01*
X195962500Y-93087500D01*
X195961445Y-93133571D01*
X195902802Y-93296197D01*
X195712500Y-93337500D01*
X195666429Y-93336444D01*
X195503803Y-93277801D01*
X195462500Y-93087500D01*
X195457764Y-92987169D01*
X195407285Y-92886970D01*
X195259245Y-92845605D01*
X194962500Y-92837500D01*
X194462500Y-92837500D01*
X194462500Y-93587500D01*
X194463420Y-93850925D01*
X194473208Y-94087500D01*
X194474842Y-94126993D01*
X194510802Y-94272027D01*
X194585340Y-94328153D01*
X194712500Y-94337500D01*
X194812831Y-94332763D01*
X194913030Y-94282284D01*
X194954395Y-94134244D01*
X194962500Y-93837500D01*
X194964869Y-93636838D01*
X194990108Y-93436441D01*
X195064128Y-93353711D01*
X195212500Y-93337500D01*
X195258572Y-93338555D01*
X195421198Y-93397198D01*
X195462500Y-93587500D01*
X195463556Y-93633571D01*
X195522199Y-93796197D01*
X195712500Y-93837500D01*
X195758572Y-93836444D01*
X195921198Y-93777801D01*
X195962500Y-93587500D01*
X195963556Y-93541428D01*
X196022199Y-93378802D01*
X196212500Y-93337500D01*
X196258572Y-93336444D01*
X196421198Y-93277801D01*
X196462500Y-93087500D01*
X196463556Y-93041428D01*
X196522199Y-92878802D01*
X196712500Y-92837500D01*
X196812831Y-92842236D01*
X196913030Y-92892715D01*
X196954395Y-93040755D01*
X196962500Y-93337500D01*
X196960132Y-93538161D01*
X196934893Y-93738558D01*
X196860873Y-93821288D01*
X196712500Y-93837500D01*
X196666429Y-93838555D01*
X196503803Y-93897198D01*
X196462500Y-94087500D01*
X196467237Y-94187830D01*
X196517716Y-94288029D01*
X196665756Y-94329394D01*
X196962500Y-94337500D01*
X197462500Y-94337500D01*
X197462500Y-93587500D01*
X197962500Y-93587500D01*
X197963556Y-93633571D01*
X198022199Y-93796197D01*
X198212500Y-93837500D01*
X198258572Y-93836444D01*
X198421198Y-93777801D01*
X198462500Y-93587500D01*
X198461445Y-93541428D01*
X198402802Y-93378802D01*
X198212500Y-93337500D01*
X198166429Y-93338555D01*
X198003803Y-93397198D01*
X197962500Y-93587500D01*
X197462500Y-93587500D01*
X197462500Y-92837500D01*
X197962500Y-92837500D01*
X198163162Y-92835131D01*
X198363559Y-92809892D01*
X198446289Y-92735872D01*
X198462500Y-92587500D01*
X198461445Y-92541428D01*
X198402802Y-92378802D01*
X198212500Y-92337500D01*
X198166429Y-92336444D01*
X198003803Y-92277801D01*
X197962500Y-92087500D01*
X197963556Y-92041428D01*
X198022199Y-91878802D01*
X198212500Y-91837500D01*
X198258572Y-91836444D01*
X198421198Y-91777801D01*
X198462500Y-91587500D01*
X198457764Y-91487169D01*
X198407285Y-91386970D01*
X198259245Y-91345605D01*
X197962500Y-91337500D01*
X197462500Y-91337500D01*
X197462500Y-89337500D01*
X199462500Y-89337500D01*
X199462500Y-89587500D01*
X199461445Y-89633571D01*
X199402802Y-89796197D01*
X199212500Y-89837500D01*
X199166429Y-89838555D01*
X199003803Y-89897198D01*
X198962500Y-90087500D01*
X198961445Y-90133571D01*
X198902802Y-90296197D01*
X198712500Y-90337500D01*
X198666429Y-90338555D01*
X198503803Y-90397198D01*
X198462500Y-90587500D01*
X198463556Y-90633571D01*
X198522199Y-90796197D01*
X198712500Y-90837500D01*
X198758572Y-90838555D01*
X198921198Y-90897198D01*
X198962500Y-91087500D01*
X198963556Y-91133571D01*
X199022199Y-91296197D01*
X199212500Y-91337500D01*
X199312831Y-91342236D01*
X199413030Y-91392715D01*
X199454395Y-91540755D01*
X199462500Y-91837500D01*
X199460132Y-92038161D01*
X199434893Y-92238558D01*
X199360873Y-92321288D01*
X199212500Y-92337500D01*
X199166429Y-92338555D01*
X199003803Y-92397198D01*
X198962500Y-92587500D01*
X198963556Y-92633571D01*
X199022199Y-92796197D01*
X199212500Y-92837500D01*
X199258572Y-92838555D01*
X199421198Y-92897198D01*
X199462500Y-93087500D01*
X199461445Y-93133571D01*
X199402802Y-93296197D01*
X199212500Y-93337500D01*
X199112170Y-93342236D01*
X199011971Y-93392715D01*
X198970606Y-93540755D01*
X198969329Y-93587500D01*
X198962500Y-93837500D01*
X198962500Y-94337500D01*
X199462500Y-94337500D01*
X199663162Y-94335131D01*
X199863559Y-94309892D01*
X199946289Y-94235872D01*
X199962500Y-94087500D01*
X199963556Y-94041428D01*
X200022199Y-93878802D01*
X200212500Y-93837500D01*
X200258572Y-93836444D01*
X200421198Y-93777801D01*
X200462500Y-93587500D01*
X200463556Y-93541428D01*
X200522199Y-93378802D01*
X200712500Y-93337500D01*
X200758572Y-93336444D01*
X200921198Y-93277801D01*
X200962500Y-93087500D01*
X200963556Y-93041428D01*
X201022199Y-92878802D01*
X201212500Y-92837500D01*
X201312831Y-92842236D01*
X201413030Y-92892715D01*
X201454395Y-93040755D01*
X201462500Y-93337500D01*
X201460132Y-93538161D01*
X201434893Y-93738558D01*
X201360873Y-93821288D01*
X201212500Y-93837500D01*
X201166429Y-93838555D01*
X201003803Y-93897198D01*
X200962500Y-94087500D01*
X200967237Y-94187830D01*
X201017716Y-94288029D01*
X201165756Y-94329394D01*
X201462500Y-94337500D01*
X201962500Y-94337500D01*
X202462500Y-94337500D01*
X203212500Y-94337500D01*
X203475926Y-94336580D01*
X203751994Y-94325158D01*
X203897028Y-94289198D01*
X203953154Y-94214660D01*
X203962500Y-94087500D01*
X203957764Y-93987169D01*
X203907285Y-93886970D01*
X203759245Y-93845605D01*
X203462500Y-93837500D01*
X203261839Y-93835131D01*
X203061442Y-93809892D01*
X202978712Y-93735872D01*
X202962500Y-93587500D01*
X202961445Y-93541428D01*
X202902802Y-93378802D01*
X202712500Y-93337500D01*
X202612170Y-93342236D01*
X202511971Y-93392715D01*
X202470606Y-93540755D01*
X202462500Y-93837500D01*
X202462500Y-94337500D01*
X201962500Y-94337500D01*
X201962500Y-93087500D01*
X203462500Y-93087500D01*
X203465258Y-93175308D01*
X203499526Y-93267331D01*
X203607404Y-93315675D01*
X203831019Y-93334384D01*
X204212500Y-93337500D01*
X204962500Y-93337500D01*
X204962500Y-93837500D01*
X204964869Y-94038161D01*
X204971083Y-94087500D01*
X204990108Y-94238558D01*
X205064128Y-94321288D01*
X205212500Y-94337500D01*
X205962500Y-94337500D01*
X209462500Y-94337500D01*
X209462500Y-90837500D01*
X205962500Y-90837500D01*
X205962500Y-94337500D01*
X205212500Y-94337500D01*
X205300309Y-94334742D01*
X205392332Y-94300474D01*
X205440676Y-94192596D01*
X205459385Y-93968981D01*
X205462500Y-93587500D01*
X205461581Y-93324074D01*
X205450159Y-93048006D01*
X205414199Y-92902972D01*
X205339661Y-92846846D01*
X205212500Y-92837500D01*
X205166429Y-92836444D01*
X205003803Y-92777801D01*
X204962500Y-92587500D01*
X204957764Y-92487169D01*
X204907285Y-92386970D01*
X204759245Y-92345605D01*
X204462500Y-92337500D01*
X204261839Y-92339868D01*
X204061442Y-92365107D01*
X203978712Y-92439127D01*
X203962500Y-92587500D01*
X203961445Y-92633571D01*
X203902802Y-92796197D01*
X203712500Y-92837500D01*
X203666429Y-92838555D01*
X203503803Y-92897198D01*
X203462500Y-93087500D01*
X201962500Y-93087500D01*
X201962500Y-92837500D01*
X202962500Y-92837500D01*
X202962500Y-91837500D01*
X203462500Y-91837500D01*
X203663162Y-91835131D01*
X203863559Y-91809892D01*
X203946289Y-91735872D01*
X203962500Y-91587500D01*
X204962500Y-91587500D01*
X204963556Y-91633571D01*
X205022199Y-91796197D01*
X205212500Y-91837500D01*
X205258572Y-91836444D01*
X205421198Y-91777801D01*
X205462500Y-91587500D01*
X205461445Y-91541428D01*
X205402802Y-91378802D01*
X205212500Y-91337500D01*
X205166429Y-91338555D01*
X205003803Y-91397198D01*
X204962500Y-91587500D01*
X203962500Y-91587500D01*
X203963556Y-91541428D01*
X204022199Y-91378802D01*
X204212500Y-91337500D01*
X204258572Y-91336444D01*
X204421198Y-91277801D01*
X204462500Y-91087500D01*
X204467237Y-90987169D01*
X204517716Y-90886970D01*
X204665756Y-90845605D01*
X204962500Y-90837500D01*
X205462500Y-90837500D01*
X205462500Y-90337500D01*
X205460132Y-90136838D01*
X205434893Y-89936441D01*
X205360873Y-89853711D01*
X205212500Y-89837500D01*
X205112170Y-89832763D01*
X205011971Y-89782284D01*
X204970606Y-89634244D01*
X204962500Y-89337500D01*
X204962500Y-88837500D01*
X204212500Y-88837500D01*
X203949075Y-88838419D01*
X203673007Y-88849841D01*
X203527973Y-88885801D01*
X203471847Y-88960339D01*
X203462500Y-89087500D01*
X203463556Y-89133571D01*
X203522199Y-89296197D01*
X203712500Y-89337500D01*
X203758572Y-89338555D01*
X203921198Y-89397198D01*
X203962500Y-89587500D01*
X203957764Y-89687830D01*
X203907285Y-89788029D01*
X203759245Y-89829394D01*
X203462500Y-89837500D01*
X203261839Y-89835131D01*
X203061442Y-89809892D01*
X202978712Y-89735872D01*
X202962500Y-89587500D01*
X202961445Y-89541428D01*
X202902802Y-89378802D01*
X202712500Y-89337500D01*
X202612170Y-89342236D01*
X202511971Y-89392715D01*
X202470606Y-89540755D01*
X202462500Y-89837500D01*
X202464869Y-90038161D01*
X202490108Y-90238558D01*
X202564128Y-90321288D01*
X202712500Y-90337500D01*
X202758572Y-90338555D01*
X202921198Y-90397198D01*
X202962500Y-90587500D01*
X202957764Y-90687830D01*
X202907285Y-90788029D01*
X202759245Y-90829394D01*
X202462500Y-90837500D01*
X202261839Y-90835131D01*
X202061442Y-90809892D01*
X201978712Y-90735872D01*
X201962500Y-90587500D01*
X201961445Y-90541428D01*
X201902802Y-90378802D01*
X201712500Y-90337500D01*
X201666429Y-90336444D01*
X201503803Y-90277801D01*
X201462500Y-90087500D01*
X201463556Y-90041428D01*
X201522199Y-89878802D01*
X201712500Y-89837500D01*
X201812831Y-89832763D01*
X201913030Y-89782284D01*
X201954395Y-89634244D01*
X201962500Y-89337500D01*
X201962500Y-88837500D01*
X202962500Y-88837500D01*
X202962500Y-87837500D01*
X203462500Y-87837500D01*
X203663162Y-87839868D01*
X203863559Y-87865107D01*
X203946289Y-87939127D01*
X203962500Y-88087500D01*
X203963556Y-88133571D01*
X204022199Y-88296197D01*
X204212500Y-88337500D01*
X204258572Y-88336444D01*
X204421198Y-88277801D01*
X204462500Y-88087500D01*
X204463556Y-88041428D01*
X204522199Y-87878802D01*
X204712500Y-87837500D01*
X204758572Y-87838555D01*
X204921198Y-87897198D01*
X204962500Y-88087500D01*
X204963556Y-88133571D01*
X205022199Y-88296197D01*
X205212500Y-88337500D01*
X205258572Y-88338555D01*
X205421198Y-88397198D01*
X205462500Y-88587500D01*
X205463556Y-88633571D01*
X205522199Y-88796197D01*
X205712500Y-88837500D01*
X205758572Y-88838555D01*
X205921198Y-88897198D01*
X205962500Y-89087500D01*
X205963556Y-89133571D01*
X206022199Y-89296197D01*
X206212500Y-89337500D01*
X206258572Y-89338555D01*
X206421198Y-89397198D01*
X206462500Y-89587500D01*
X206461445Y-89633571D01*
X206402802Y-89796197D01*
X206212500Y-89837500D01*
X206166429Y-89838555D01*
X206003803Y-89897198D01*
X205962500Y-90087500D01*
X205963556Y-90133571D01*
X206022199Y-90296197D01*
X206212500Y-90337500D01*
X206258572Y-90336444D01*
X206421198Y-90277801D01*
X206462500Y-90087500D01*
X206463556Y-90041428D01*
X206522199Y-89878802D01*
X206712500Y-89837500D01*
X206758572Y-89838555D01*
X206921198Y-89897198D01*
X206962500Y-90087500D01*
X206962500Y-90337500D01*
X209462500Y-90337500D01*
X209462500Y-90087500D01*
X209457764Y-89987169D01*
X209407285Y-89886970D01*
X209259245Y-89845605D01*
X208962500Y-89837500D01*
X208761839Y-89835131D01*
X208561442Y-89809892D01*
X208478712Y-89735872D01*
X208462500Y-89587500D01*
X208467237Y-89487169D01*
X208517716Y-89386970D01*
X208665756Y-89345605D01*
X208962500Y-89337500D01*
X209163162Y-89335131D01*
X209363559Y-89309892D01*
X209446289Y-89235872D01*
X209462500Y-89087500D01*
X209457764Y-88987169D01*
X209407285Y-88886970D01*
X209259245Y-88845605D01*
X208962500Y-88837500D01*
X208761839Y-88835131D01*
X208561442Y-88809892D01*
X208478712Y-88735872D01*
X208462500Y-88587500D01*
X208461445Y-88541428D01*
X208402802Y-88378802D01*
X208212500Y-88337500D01*
X208166429Y-88336444D01*
X208003803Y-88277801D01*
X207962500Y-88087500D01*
X207967237Y-87987169D01*
X208017716Y-87886970D01*
X208165756Y-87845605D01*
X208462500Y-87837500D01*
X208663162Y-87839868D01*
X208863559Y-87865107D01*
X208946289Y-87939127D01*
X208962500Y-88087500D01*
X208963556Y-88133571D01*
X209022199Y-88296197D01*
X209212500Y-88337500D01*
X209258572Y-88336444D01*
X209421198Y-88277801D01*
X209462500Y-88087500D01*
X209461445Y-88041428D01*
X209402802Y-87878802D01*
X209212500Y-87837500D01*
X209166429Y-87836444D01*
X209003803Y-87777801D01*
X208962500Y-87587500D01*
X208962500Y-87337500D01*
X206962500Y-87337500D01*
X206962500Y-87087500D01*
X206959743Y-86999691D01*
X206925475Y-86907668D01*
X206817597Y-86859324D01*
X206593982Y-86840615D01*
X206212500Y-86837500D01*
X205949075Y-86836580D01*
X205673007Y-86825158D01*
X205527973Y-86789198D01*
X205471847Y-86714660D01*
X205462500Y-86587500D01*
X205459743Y-86499691D01*
X205425475Y-86407668D01*
X205317597Y-86359324D01*
X205093982Y-86340615D01*
X204712500Y-86337500D01*
X204449075Y-86336580D01*
X204173007Y-86325158D01*
X204027973Y-86289198D01*
X203971847Y-86214660D01*
X203962500Y-86087500D01*
X203967237Y-85987169D01*
X204017716Y-85886970D01*
X204165756Y-85845605D01*
X204462500Y-85837500D01*
X204663162Y-85835131D01*
X204863559Y-85809892D01*
X204946289Y-85735872D01*
X204962500Y-85587500D01*
X204963556Y-85541428D01*
X205022199Y-85378802D01*
X205212500Y-85337500D01*
X205258572Y-85338555D01*
X205421198Y-85397198D01*
X205462500Y-85587500D01*
X205463556Y-85633571D01*
X205522199Y-85796197D01*
X205712500Y-85837500D01*
X205758572Y-85838555D01*
X205921198Y-85897198D01*
X205962500Y-86087500D01*
X205963556Y-86133571D01*
X206022199Y-86296197D01*
X206212500Y-86337500D01*
X206258572Y-86336444D01*
X206421198Y-86277801D01*
X206462500Y-86087500D01*
X206463556Y-86041428D01*
X206522199Y-85878802D01*
X206712500Y-85837500D01*
X206758572Y-85838555D01*
X206921198Y-85897198D01*
X206962500Y-86087500D01*
X206963556Y-86133571D01*
X207022199Y-86296197D01*
X207212500Y-86337500D01*
X207258572Y-86338555D01*
X207421198Y-86397198D01*
X207462500Y-86587500D01*
X207463556Y-86633571D01*
X207522199Y-86796197D01*
X207712500Y-86837500D01*
X207758572Y-86836444D01*
X207921198Y-86777801D01*
X207962500Y-86587500D01*
X208462500Y-86587500D01*
X208467237Y-86687830D01*
X208517716Y-86788029D01*
X208665756Y-86829394D01*
X208962500Y-86837500D01*
X209163162Y-86835131D01*
X209363559Y-86809892D01*
X209446289Y-86735872D01*
X209462500Y-86587500D01*
X209457764Y-86487169D01*
X209407285Y-86386970D01*
X209259245Y-86345605D01*
X208962500Y-86337500D01*
X208761839Y-86339868D01*
X208561442Y-86365107D01*
X208478712Y-86439127D01*
X208462500Y-86587500D01*
X207962500Y-86587500D01*
X207961445Y-86541428D01*
X207902802Y-86378802D01*
X207712500Y-86337500D01*
X207666429Y-86336444D01*
X207503803Y-86277801D01*
X207462500Y-86087500D01*
X207467237Y-85987169D01*
X207517716Y-85886970D01*
X207665756Y-85845605D01*
X207962500Y-85837500D01*
X208163162Y-85835131D01*
X208363559Y-85809892D01*
X208446289Y-85735872D01*
X208462500Y-85587500D01*
X208463556Y-85541428D01*
X208522199Y-85378802D01*
X208712500Y-85337500D01*
X208758572Y-85338555D01*
X208921198Y-85397198D01*
X208962500Y-85587500D01*
X208963556Y-85633571D01*
X209022199Y-85796197D01*
X209212500Y-85837500D01*
X209462500Y-85837500D01*
X209462500Y-83837500D01*
X209212500Y-83837500D01*
X209166429Y-83838555D01*
X209003803Y-83897198D01*
X208962500Y-84087500D01*
X208961445Y-84133571D01*
X208902802Y-84296197D01*
X208712500Y-84337500D01*
X208612170Y-84332763D01*
X208511971Y-84282284D01*
X208470606Y-84134244D01*
X208462500Y-83837500D01*
X208462500Y-83337500D01*
X208962500Y-83337500D01*
X209163162Y-83335131D01*
X209363559Y-83309892D01*
X209446289Y-83235872D01*
X209462500Y-83087500D01*
X209459743Y-82999691D01*
X209425475Y-82907668D01*
X209317597Y-82859324D01*
X209093982Y-82840615D01*
X208712500Y-82837500D01*
X208449075Y-82836580D01*
X208173007Y-82825158D01*
X208027973Y-82789198D01*
X207971847Y-82714660D01*
X207962500Y-82587500D01*
X207965258Y-82499691D01*
X207999526Y-82407668D01*
X208107404Y-82359324D01*
X208331019Y-82340615D01*
X208712500Y-82337500D01*
X208975926Y-82336580D01*
X209251994Y-82325158D01*
X209397028Y-82289198D01*
X209453154Y-82214660D01*
X209462500Y-82087500D01*
X209459743Y-81999691D01*
X209425475Y-81907668D01*
X209317597Y-81859324D01*
X209093982Y-81840615D01*
X208712500Y-81837500D01*
X208449075Y-81838419D01*
X208173007Y-81849841D01*
X208027973Y-81885801D01*
X207971847Y-81960339D01*
X207962500Y-82087500D01*
X207961445Y-82133571D01*
X207902802Y-82296197D01*
X207712500Y-82337500D01*
X207666429Y-82338555D01*
X207503803Y-82397198D01*
X207462500Y-82587500D01*
X207459743Y-82675308D01*
X207425475Y-82767331D01*
X207317597Y-82815675D01*
X207093982Y-82834384D01*
X206712500Y-82837500D01*
X206449075Y-82838419D01*
X206173007Y-82849841D01*
X206027973Y-82885801D01*
X205971847Y-82960339D01*
X205962500Y-83087500D01*
X205957764Y-83187830D01*
X205907285Y-83288029D01*
X205759245Y-83329394D01*
X205462500Y-83337500D01*
X205261839Y-83335131D01*
X205061442Y-83309892D01*
X204978712Y-83235872D01*
X204962500Y-83087500D01*
X204963556Y-83041428D01*
X205022199Y-82878802D01*
X205212500Y-82837500D01*
X205462500Y-82837500D01*
X205462500Y-82087500D01*
X205962500Y-82087500D01*
X205967237Y-82187830D01*
X206017716Y-82288029D01*
X206165756Y-82329394D01*
X206462500Y-82337500D01*
X206663162Y-82335131D01*
X206863559Y-82309892D01*
X206946289Y-82235872D01*
X206962500Y-82087500D01*
X206957764Y-81987169D01*
X206907285Y-81886970D01*
X206759245Y-81845605D01*
X206462500Y-81837500D01*
X206261839Y-81839868D01*
X206061442Y-81865107D01*
X205978712Y-81939127D01*
X205962500Y-82087500D01*
X205462500Y-82087500D01*
X205462500Y-81337500D01*
X205962500Y-81337500D01*
X209462500Y-81337500D01*
X209462500Y-77837500D01*
X205962500Y-77837500D01*
X205962500Y-81337500D01*
X205462500Y-81337500D01*
X205462500Y-79837500D01*
X205212500Y-79837500D01*
X205166429Y-79838555D01*
X205003803Y-79897198D01*
X204962500Y-80087500D01*
X204957764Y-80187830D01*
X204907285Y-80288029D01*
X204759245Y-80329394D01*
X204462500Y-80337500D01*
X203962500Y-80337500D01*
X203962500Y-79337500D01*
X202962500Y-79337500D01*
X202962500Y-78837500D01*
X202960132Y-78636838D01*
X202934893Y-78436441D01*
X202860873Y-78353711D01*
X202712500Y-78337500D01*
X203462500Y-78337500D01*
X203464869Y-78538161D01*
X203490108Y-78738558D01*
X203564128Y-78821288D01*
X203712500Y-78837500D01*
X203758572Y-78836444D01*
X203921198Y-78777801D01*
X203962500Y-78587500D01*
X203967237Y-78487169D01*
X204017716Y-78386970D01*
X204165756Y-78345605D01*
X204462500Y-78337500D01*
X204663162Y-78339868D01*
X204863559Y-78365107D01*
X204946289Y-78439127D01*
X204962500Y-78587500D01*
X204961445Y-78633571D01*
X204902802Y-78796197D01*
X204712500Y-78837500D01*
X204666429Y-78838555D01*
X204503803Y-78897198D01*
X204462500Y-79087500D01*
X204463556Y-79133571D01*
X204522199Y-79296197D01*
X204712500Y-79337500D01*
X204758572Y-79336444D01*
X204921198Y-79277801D01*
X204962500Y-79087500D01*
X204963556Y-79041428D01*
X205022199Y-78878802D01*
X205212500Y-78837500D01*
X205312831Y-78832763D01*
X205413030Y-78782284D01*
X205454395Y-78634244D01*
X205462500Y-78337500D01*
X205462500Y-77837500D01*
X203462500Y-77837500D01*
X203462500Y-78337500D01*
X202712500Y-78337500D01*
X202666429Y-78336444D01*
X202503803Y-78277801D01*
X202462500Y-78087500D01*
X202461445Y-78041428D01*
X202402802Y-77878802D01*
X202212500Y-77837500D01*
X202112170Y-77842236D01*
X202011971Y-77892715D01*
X201970606Y-78040755D01*
X201969329Y-78087500D01*
X201962500Y-78337500D01*
X201962500Y-78837500D01*
X200462500Y-78837500D01*
X200462500Y-78337500D01*
X200460132Y-78136838D01*
X200453918Y-78087500D01*
X200962500Y-78087500D01*
X200963556Y-78133571D01*
X201022199Y-78296197D01*
X201212500Y-78337500D01*
X201258572Y-78336444D01*
X201421198Y-78277801D01*
X201462500Y-78087500D01*
X201461445Y-78041428D01*
X201402802Y-77878802D01*
X201212500Y-77837500D01*
X201166429Y-77838555D01*
X201003803Y-77897198D01*
X200962500Y-78087500D01*
X200453918Y-78087500D01*
X200434893Y-77936441D01*
X200360873Y-77853711D01*
X200212500Y-77837500D01*
X200112170Y-77842236D01*
X200011971Y-77892715D01*
X199970606Y-78040755D01*
X199962500Y-78337500D01*
X199964869Y-78538161D01*
X199990108Y-78738558D01*
X200064128Y-78821288D01*
X200212500Y-78837500D01*
X200258572Y-78838555D01*
X200421198Y-78897198D01*
X200462500Y-79087500D01*
X200457764Y-79187830D01*
X200407285Y-79288029D01*
X200259245Y-79329394D01*
X199962500Y-79337500D01*
X199761839Y-79339868D01*
X199561442Y-79365107D01*
X199478712Y-79439127D01*
X199462500Y-79587500D01*
X199461445Y-79633571D01*
X199402802Y-79796197D01*
X199212500Y-79837500D01*
X199112170Y-79832763D01*
X199011971Y-79782284D01*
X198970606Y-79634244D01*
X198962500Y-79337500D01*
X198960132Y-79136838D01*
X198934893Y-78936441D01*
X198860873Y-78853711D01*
X198712500Y-78837500D01*
X198666429Y-78836444D01*
X198503803Y-78777801D01*
X198462500Y-78587500D01*
X198463556Y-78541428D01*
X198522199Y-78378802D01*
X198712500Y-78337500D01*
X198758572Y-78336444D01*
X198921198Y-78277801D01*
X198962500Y-78087500D01*
X198961445Y-78041428D01*
X198902802Y-77878802D01*
X198712500Y-77837500D01*
X198666429Y-77838555D01*
X198503803Y-77897198D01*
X198462500Y-78087500D01*
X198461445Y-78133571D01*
X198402802Y-78296197D01*
X198212500Y-78337500D01*
X198166429Y-78338555D01*
X198003803Y-78397198D01*
X197962500Y-78587500D01*
X197957764Y-78687830D01*
X197907285Y-78788029D01*
X197759245Y-78829394D01*
X197462500Y-78837500D01*
X196962500Y-78837500D01*
X196962500Y-79837500D01*
X197712500Y-79837500D01*
X197975926Y-79838419D01*
X198251994Y-79849841D01*
X198397028Y-79885801D01*
X198453154Y-79960339D01*
X198462500Y-80087500D01*
X198461445Y-80133571D01*
X198402802Y-80296197D01*
X198212500Y-80337500D01*
X198112170Y-80342236D01*
X198011971Y-80392715D01*
X197970606Y-80540755D01*
X197962500Y-80837500D01*
X197964869Y-81038161D01*
X197990108Y-81238558D01*
X198064128Y-81321288D01*
X198212500Y-81337500D01*
X198312831Y-81332763D01*
X198413030Y-81282284D01*
X198454395Y-81134244D01*
X198462500Y-80837500D01*
X198462500Y-80337500D01*
X198962500Y-80337500D01*
X199163162Y-80335131D01*
X199363559Y-80309892D01*
X199446289Y-80235872D01*
X199462500Y-80087500D01*
X199463556Y-80041428D01*
X199522199Y-79878802D01*
X199712500Y-79837500D01*
X199758572Y-79838555D01*
X199921198Y-79897198D01*
X199962500Y-80087500D01*
X199965258Y-80175308D01*
X199999526Y-80267331D01*
X200107404Y-80315675D01*
X200331019Y-80334384D01*
X200712500Y-80337500D01*
X201462500Y-80337500D01*
X201462500Y-79337500D01*
X202462500Y-79337500D01*
X202462500Y-80087500D01*
X202461581Y-80350925D01*
X202450159Y-80626993D01*
X202414199Y-80772027D01*
X202339661Y-80828153D01*
X202212500Y-80837500D01*
X202166429Y-80838555D01*
X202003803Y-80897198D01*
X201962500Y-81087500D01*
X201961445Y-81133571D01*
X201902802Y-81296197D01*
X201712500Y-81337500D01*
X201666429Y-81336444D01*
X201503803Y-81277801D01*
X201462500Y-81087500D01*
X201461445Y-81041428D01*
X201402802Y-80878802D01*
X201212500Y-80837500D01*
X201112170Y-80842236D01*
X201011971Y-80892715D01*
X200970606Y-81040755D01*
X200962500Y-81337500D01*
X200964869Y-81538161D01*
X200990108Y-81738558D01*
X201064128Y-81821288D01*
X201212500Y-81837500D01*
X201258572Y-81838555D01*
X201421198Y-81897198D01*
X201462500Y-82087500D01*
X201457764Y-82187830D01*
X201407285Y-82288029D01*
X201259245Y-82329394D01*
X200962500Y-82337500D01*
X200761839Y-82339868D01*
X200561442Y-82365107D01*
X200478712Y-82439127D01*
X200462500Y-82587500D01*
X200461445Y-82633571D01*
X200402802Y-82796197D01*
X200212500Y-82837500D01*
X200112170Y-82832763D01*
X200011971Y-82782284D01*
X199970606Y-82634244D01*
X199962500Y-82337500D01*
X199964869Y-82136838D01*
X199990108Y-81936441D01*
X200064128Y-81853711D01*
X200212500Y-81837500D01*
X200312831Y-81832763D01*
X200413030Y-81782284D01*
X200454395Y-81634244D01*
X200462500Y-81337500D01*
X200460132Y-81136838D01*
X200434893Y-80936441D01*
X200360873Y-80853711D01*
X200212500Y-80837500D01*
X200112170Y-80842236D01*
X200011971Y-80892715D01*
X199970606Y-81040755D01*
X199962500Y-81337500D01*
X199960132Y-81538161D01*
X199934893Y-81738558D01*
X199860873Y-81821288D01*
X199712500Y-81837500D01*
X199612170Y-81832763D01*
X199511971Y-81782284D01*
X199470606Y-81634244D01*
X199462500Y-81337500D01*
X199460132Y-81136838D01*
X199434893Y-80936441D01*
X199360873Y-80853711D01*
X199212500Y-80837500D01*
X198962500Y-80837500D01*
X198962500Y-82837500D01*
X198712500Y-82837500D01*
X198612170Y-82832763D01*
X198511971Y-82782284D01*
X198470606Y-82634244D01*
X198462500Y-82337500D01*
X198462500Y-81837500D01*
X197462500Y-81837500D01*
X197462500Y-81087500D01*
X197461581Y-80824074D01*
X197450159Y-80548006D01*
X197414199Y-80402972D01*
X197339661Y-80346846D01*
X197212500Y-80337500D01*
X197124692Y-80340257D01*
X197032669Y-80374525D01*
X196984325Y-80482403D01*
X196965616Y-80706018D01*
X196962500Y-81087500D01*
X196962500Y-81837500D01*
X194962500Y-81837500D01*
X194962500Y-82087500D01*
X194963556Y-82133571D01*
X195022199Y-82296197D01*
X195212500Y-82337500D01*
X195258572Y-82338555D01*
X195421198Y-82397198D01*
X195462500Y-82587500D01*
X195457764Y-82687830D01*
X195407285Y-82788029D01*
X195259245Y-82829394D01*
X194962500Y-82837500D01*
X194761839Y-82835131D01*
X194561442Y-82809892D01*
X194478712Y-82735872D01*
X194462500Y-82587500D01*
X194461445Y-82541428D01*
X194402802Y-82378802D01*
X194212500Y-82337500D01*
X194166429Y-82336444D01*
X194003803Y-82277801D01*
X193962500Y-82087500D01*
X193957764Y-81987169D01*
X193907285Y-81886970D01*
X193759245Y-81845605D01*
X193462500Y-81837500D01*
X192962500Y-81837500D01*
X192962500Y-83337500D01*
X193462500Y-83337500D01*
X193663162Y-83335131D01*
X193863559Y-83309892D01*
X193946289Y-83235872D01*
X193962500Y-83087500D01*
X193963556Y-83041428D01*
X194022199Y-82878802D01*
X194212500Y-82837500D01*
X194258572Y-82838555D01*
X194421198Y-82897198D01*
X194462500Y-83087500D01*
X194467237Y-83187830D01*
X194517716Y-83288029D01*
X194665756Y-83329394D01*
X194962500Y-83337500D01*
X195163162Y-83339868D01*
X195363559Y-83365107D01*
X195446289Y-83439127D01*
X195462500Y-83587500D01*
X195463556Y-83633571D01*
X195522199Y-83796197D01*
X195712500Y-83837500D01*
X195758572Y-83838555D01*
X195921198Y-83897198D01*
X195962500Y-84087500D01*
X195961445Y-84133571D01*
X195902802Y-84296197D01*
X195712500Y-84337500D01*
X195612170Y-84342236D01*
X195511971Y-84392715D01*
X195470606Y-84540755D01*
X195462500Y-84837500D01*
X195460132Y-85038161D01*
X195434893Y-85238558D01*
X195360873Y-85321288D01*
X195212500Y-85337500D01*
X195166429Y-85338555D01*
X195003803Y-85397198D01*
X194962500Y-85587500D01*
X194961445Y-85633571D01*
X194902802Y-85796197D01*
X194712500Y-85837500D01*
X194666429Y-85838555D01*
X194503803Y-85897198D01*
X194462500Y-86087500D01*
X194457764Y-86187830D01*
X194407285Y-86288029D01*
X194259245Y-86329394D01*
X193962500Y-86337500D01*
X193761839Y-86335131D01*
X193561442Y-86309892D01*
X193478712Y-86235872D01*
X193462500Y-86087500D01*
X193461445Y-86041428D01*
X193402802Y-85878802D01*
X193212500Y-85837500D01*
X193124692Y-85840257D01*
X193032669Y-85874525D01*
X192984325Y-85982403D01*
X192965616Y-86206018D01*
X192962500Y-86587500D01*
X192963420Y-86850925D01*
X192974842Y-87126993D01*
X193010802Y-87272027D01*
X193085340Y-87328153D01*
X193212500Y-87337500D01*
X193258572Y-87336444D01*
X193421198Y-87277801D01*
X193462500Y-87087500D01*
X193465258Y-86999691D01*
X193499526Y-86907668D01*
X193607404Y-86859324D01*
X193831019Y-86840615D01*
X194212500Y-86837500D01*
X194962500Y-86837500D01*
X194962500Y-86337500D01*
X194964869Y-86136838D01*
X194990108Y-85936441D01*
X195064128Y-85853711D01*
X195212500Y-85837500D01*
X195312831Y-85842236D01*
X195413030Y-85892715D01*
X195454395Y-86040755D01*
X195462500Y-86337500D01*
X195462500Y-86837500D01*
X196462500Y-86837500D01*
X196462500Y-86337500D01*
X196464869Y-86136838D01*
X196490108Y-85936441D01*
X196564128Y-85853711D01*
X196712500Y-85837500D01*
X196758572Y-85836444D01*
X196921198Y-85777801D01*
X196962500Y-85587500D01*
X196957764Y-85487169D01*
X196907285Y-85386970D01*
X196759245Y-85345605D01*
X196462500Y-85337500D01*
X196261839Y-85335131D01*
X196061442Y-85309892D01*
X195978712Y-85235872D01*
X195962500Y-85087500D01*
X195963556Y-85041428D01*
X196022199Y-84878802D01*
X196212500Y-84837500D01*
X196300309Y-84834742D01*
X196392332Y-84800474D01*
X196440676Y-84692596D01*
X196459385Y-84468981D01*
X196462500Y-84087500D01*
X196463420Y-83824074D01*
X196474842Y-83548006D01*
X196510802Y-83402972D01*
X196585340Y-83346846D01*
X196712500Y-83337500D01*
X196800309Y-83334742D01*
X196892332Y-83300474D01*
X196940676Y-83192596D01*
X196959385Y-82968981D01*
X196962500Y-82587500D01*
X196963420Y-82324074D01*
X196974842Y-82048006D01*
X197010802Y-81902972D01*
X197085340Y-81846846D01*
X197212500Y-81837500D01*
X197300309Y-81840257D01*
X197392332Y-81874525D01*
X197440676Y-81982403D01*
X197459385Y-82206018D01*
X197462500Y-82587500D01*
X197463420Y-82850925D01*
X197474842Y-83126993D01*
X197510802Y-83272027D01*
X197585340Y-83328153D01*
X197712500Y-83337500D01*
X197758572Y-83338555D01*
X197921198Y-83397198D01*
X197962500Y-83587500D01*
X197961445Y-83633571D01*
X197902802Y-83796197D01*
X197712500Y-83837500D01*
X197624692Y-83840257D01*
X197532669Y-83874525D01*
X197484325Y-83982403D01*
X197465616Y-84206018D01*
X197462500Y-84587500D01*
X197463420Y-84850925D01*
X197474842Y-85126993D01*
X197510802Y-85272027D01*
X197585340Y-85328153D01*
X197712500Y-85337500D01*
X197812831Y-85342236D01*
X197913030Y-85392715D01*
X197954395Y-85540755D01*
X197962500Y-85837500D01*
X197962500Y-86337500D01*
X197462500Y-86337500D01*
X197261839Y-86339868D01*
X197061442Y-86365107D01*
X196978712Y-86439127D01*
X196962500Y-86587500D01*
X196963556Y-86633571D01*
X197022199Y-86796197D01*
X197212500Y-86837500D01*
X197258572Y-86838555D01*
X197421198Y-86897198D01*
X197462500Y-87087500D01*
X197463556Y-87133571D01*
X197522199Y-87296197D01*
X197712500Y-87337500D01*
X197758572Y-87338555D01*
X197921198Y-87397198D01*
X197962500Y-87587500D01*
X197962500Y-87837500D01*
X195962500Y-87837500D01*
X195962500Y-87587500D01*
X195959743Y-87499691D01*
X195925475Y-87407668D01*
X195817597Y-87359324D01*
X195593982Y-87340615D01*
X195212500Y-87337500D01*
X194949075Y-87338419D01*
X194673007Y-87349841D01*
X194527973Y-87385801D01*
X194471847Y-87460339D01*
X194462500Y-87587500D01*
X194461445Y-87633571D01*
X194402802Y-87796197D01*
X194212500Y-87837500D01*
X194166429Y-87838555D01*
X194003803Y-87897198D01*
X193962500Y-88087500D01*
X193961445Y-88133571D01*
X193902802Y-88296197D01*
X193712500Y-88337500D01*
X193666429Y-88336444D01*
X193503803Y-88277801D01*
X193462500Y-88087500D01*
X193461445Y-88041428D01*
X193402802Y-87878802D01*
X193212500Y-87837500D01*
X193124692Y-87840257D01*
X193032669Y-87874525D01*
X192984325Y-87982403D01*
X192965616Y-88206018D01*
X192962500Y-88587500D01*
X192963420Y-88850925D01*
X192974842Y-89126993D01*
X193010802Y-89272027D01*
X193085340Y-89328153D01*
X193212500Y-89337500D01*
X193258572Y-89336444D01*
X193421198Y-89277801D01*
X193462500Y-89087500D01*
X193463556Y-89041428D01*
X193522199Y-88878802D01*
X193712500Y-88837500D01*
X193758572Y-88836444D01*
X193921198Y-88777801D01*
X193962500Y-88587500D01*
X193963556Y-88541428D01*
X194022199Y-88378802D01*
X194212500Y-88337500D01*
X194258572Y-88338555D01*
X194421198Y-88397198D01*
X194462500Y-88587500D01*
X194463556Y-88633571D01*
X194522199Y-88796197D01*
X194712500Y-88837500D01*
X194758572Y-88836444D01*
X194921198Y-88777801D01*
X194962500Y-88587500D01*
X194961445Y-88541428D01*
X194902802Y-88378802D01*
X194712500Y-88337500D01*
X194666429Y-88336444D01*
X194503803Y-88277801D01*
X194462500Y-88087500D01*
X194467237Y-87987169D01*
X194517716Y-87886970D01*
X194665756Y-87845605D01*
X194962500Y-87837500D01*
X195462500Y-87837500D01*
X195462500Y-88837500D01*
X195962500Y-88837500D01*
X196163162Y-88835131D01*
X196363559Y-88809892D01*
X196446289Y-88735872D01*
X196462500Y-88587500D01*
X196463556Y-88541428D01*
X196522199Y-88378802D01*
X196712500Y-88337500D01*
X196812831Y-88342236D01*
X196913030Y-88392715D01*
X196954395Y-88540755D01*
X196962500Y-88837500D01*
X196960132Y-89038161D01*
X196934893Y-89238558D01*
X196860873Y-89321288D01*
X196712500Y-89337500D01*
X196666429Y-89338555D01*
X196503803Y-89397198D01*
X196462500Y-89587500D01*
X196459743Y-89675308D01*
X196425475Y-89767331D01*
X196317597Y-89815675D01*
X196093982Y-89834384D01*
X195712500Y-89837500D01*
X195449075Y-89836580D01*
X195173007Y-89825158D01*
X195027973Y-89789198D01*
X194971847Y-89714660D01*
X194962500Y-89587500D01*
X194961445Y-89541428D01*
X194902802Y-89378802D01*
X194712500Y-89337500D01*
X194612170Y-89342236D01*
X194511971Y-89392715D01*
X194470606Y-89540755D01*
X194462500Y-89837500D01*
X194460132Y-90038161D01*
X194434893Y-90238558D01*
X194360873Y-90321288D01*
X194212500Y-90337500D01*
X194166429Y-90336444D01*
X194003803Y-90277801D01*
X193962500Y-90087500D01*
X193961445Y-90041428D01*
X193902802Y-89878802D01*
X193712500Y-89837500D01*
X193666429Y-89838555D01*
X193503803Y-89897198D01*
X193462500Y-90087500D01*
X193461445Y-90133571D01*
X193402802Y-90296197D01*
X193212500Y-90337500D01*
X193124692Y-90340257D01*
X193032669Y-90374525D01*
X192984325Y-90482403D01*
X192965616Y-90706018D01*
X192962500Y-91087500D01*
X192462500Y-91087500D01*
X192462500Y-84587500D01*
X192962500Y-84587500D01*
X192963420Y-84850925D01*
X192974842Y-85126993D01*
X193010802Y-85272027D01*
X193085340Y-85328153D01*
X193212500Y-85337500D01*
X193258572Y-85336444D01*
X193421198Y-85277801D01*
X193462500Y-85087500D01*
X193465258Y-84999691D01*
X193499526Y-84907668D01*
X193607404Y-84859324D01*
X193831019Y-84840615D01*
X194212500Y-84837500D01*
X194962500Y-84837500D01*
X194962500Y-84337500D01*
X194960132Y-84136838D01*
X194934893Y-83936441D01*
X194860873Y-83853711D01*
X194712500Y-83837500D01*
X194666429Y-83838555D01*
X194503803Y-83897198D01*
X194462500Y-84087500D01*
X194461445Y-84133571D01*
X194402802Y-84296197D01*
X194212500Y-84337500D01*
X194166429Y-84336444D01*
X194003803Y-84277801D01*
X193962500Y-84087500D01*
X193957764Y-83987169D01*
X193907285Y-83886970D01*
X193759245Y-83845605D01*
X193462500Y-83837500D01*
X192962500Y-83837500D01*
X192962500Y-84587500D01*
X192462500Y-84587500D01*
X192462500Y-81337500D01*
X192962500Y-81337500D01*
X196462500Y-81337500D01*
X196462500Y-78087500D01*
X196962500Y-78087500D01*
X196963556Y-78133571D01*
X197022199Y-78296197D01*
X197212500Y-78337500D01*
X197258572Y-78336444D01*
X197421198Y-78277801D01*
X197462500Y-78087500D01*
X197461445Y-78041428D01*
X197402802Y-77878802D01*
X197212500Y-77837500D01*
X197166429Y-77838555D01*
X197003803Y-77897198D01*
X196962500Y-78087500D01*
X196462500Y-78087500D01*
X196462500Y-77837500D01*
X192962500Y-77837500D01*
X192962500Y-81337500D01*
X192462500Y-81337500D01*
X192462500Y-77337500D01*
X209962500Y-77337500D01*
X209962500Y-94837500D01*
X192462500Y-94837500D01*
G37*
G36*
X207462500Y-89837500D02*
G01*
X207212500Y-89837500D01*
X207166429Y-89836444D01*
X207003803Y-89777801D01*
X206962500Y-89587500D01*
X206961445Y-89541428D01*
X206902802Y-89378802D01*
X206712500Y-89337500D01*
X206666429Y-89336444D01*
X206503803Y-89277801D01*
X206462500Y-89087500D01*
X206461445Y-89041428D01*
X206402802Y-88878802D01*
X206212500Y-88837500D01*
X206166429Y-88836444D01*
X206003803Y-88777801D01*
X205962500Y-88587500D01*
X205967237Y-88487169D01*
X206017716Y-88386970D01*
X206165756Y-88345605D01*
X206462500Y-88337500D01*
X206663162Y-88335131D01*
X206863559Y-88309892D01*
X206946289Y-88235872D01*
X206962500Y-88087500D01*
X206963556Y-88041428D01*
X207022199Y-87878802D01*
X207212500Y-87837500D01*
X207462500Y-87837500D01*
X207462500Y-89837500D01*
G37*
G36*
X197258572Y-92338555D02*
G01*
X197421198Y-92397198D01*
X197462500Y-92587500D01*
X197461445Y-92633571D01*
X197402802Y-92796197D01*
X197212500Y-92837500D01*
X197166429Y-92836444D01*
X197003803Y-92777801D01*
X196962500Y-92587500D01*
X196963556Y-92541428D01*
X197022199Y-92378802D01*
X197212500Y-92337500D01*
X197258572Y-92338555D01*
G37*
G36*
X202758572Y-87338555D02*
G01*
X202921198Y-87397198D01*
X202962500Y-87587500D01*
X202961445Y-87633571D01*
X202902802Y-87796197D01*
X202712500Y-87837500D01*
X202666429Y-87836444D01*
X202503803Y-87777801D01*
X202462500Y-87587500D01*
X202463556Y-87541428D01*
X202522199Y-87378802D01*
X202712500Y-87337500D01*
X202758572Y-87338555D01*
G37*
G36*
X206462500Y-93837500D02*
G01*
X206462500Y-93337500D01*
X206962500Y-93337500D01*
X208462500Y-93337500D01*
X208462500Y-91837500D01*
X206962500Y-91837500D01*
X206962500Y-93337500D01*
X206462500Y-93337500D01*
X206462500Y-91337500D01*
X208962500Y-91337500D01*
X208962500Y-93837500D01*
X206462500Y-93837500D01*
G37*
G36*
X202758572Y-91338555D02*
G01*
X202921198Y-91397198D01*
X202962500Y-91587500D01*
X202961445Y-91633571D01*
X202902802Y-91796197D01*
X202712500Y-91837500D01*
X202666429Y-91836444D01*
X202503803Y-91777801D01*
X202462500Y-91587500D01*
X202463556Y-91541428D01*
X202522199Y-91378802D01*
X202712500Y-91337500D01*
X202758572Y-91338555D01*
G37*
G36*
X199758572Y-93338555D02*
G01*
X199921198Y-93397198D01*
X199962500Y-93587500D01*
X199961445Y-93633571D01*
X199902802Y-93796197D01*
X199712500Y-93837500D01*
X199666429Y-93836444D01*
X199503803Y-93777801D01*
X199462500Y-93587500D01*
X199463556Y-93541428D01*
X199522199Y-93378802D01*
X199712500Y-93337500D01*
X199758572Y-93338555D01*
G37*
G36*
X203962500Y-83837500D02*
G01*
X203962500Y-84337500D01*
X203964869Y-84538161D01*
X203990108Y-84738558D01*
X204064128Y-84821288D01*
X204212500Y-84837500D01*
X204258572Y-84836444D01*
X204421198Y-84777801D01*
X204462500Y-84587500D01*
X204463556Y-84541428D01*
X204522199Y-84378802D01*
X204712500Y-84337500D01*
X204812831Y-84342236D01*
X204913030Y-84392715D01*
X204954395Y-84540755D01*
X204962500Y-84837500D01*
X204962500Y-85337500D01*
X204462500Y-85337500D01*
X204261839Y-85339868D01*
X204061442Y-85365107D01*
X203978712Y-85439127D01*
X203962500Y-85587500D01*
X203957764Y-85687830D01*
X203907285Y-85788029D01*
X203759245Y-85829394D01*
X203462500Y-85837500D01*
X203261839Y-85835131D01*
X203061442Y-85809892D01*
X202978712Y-85735872D01*
X202962500Y-85587500D01*
X202961445Y-85541428D01*
X202902802Y-85378802D01*
X202712500Y-85337500D01*
X202612170Y-85342236D01*
X202511971Y-85392715D01*
X202470606Y-85540755D01*
X202462500Y-85837500D01*
X202464869Y-86038161D01*
X202490108Y-86238558D01*
X202564128Y-86321288D01*
X202712500Y-86337500D01*
X202758572Y-86338555D01*
X202921198Y-86397198D01*
X202962500Y-86587500D01*
X202957764Y-86687830D01*
X202907285Y-86788029D01*
X202759245Y-86829394D01*
X202462500Y-86837500D01*
X201962500Y-86837500D01*
X201962500Y-86337500D01*
X201960132Y-86136838D01*
X201934893Y-85936441D01*
X201860873Y-85853711D01*
X201712500Y-85837500D01*
X201666429Y-85838555D01*
X201503803Y-85897198D01*
X201462500Y-86087500D01*
X201461445Y-86133571D01*
X201402802Y-86296197D01*
X201212500Y-86337500D01*
X200962500Y-86337500D01*
X200962500Y-90337500D01*
X201212500Y-90337500D01*
X201312831Y-90342236D01*
X201413030Y-90392715D01*
X201454395Y-90540755D01*
X201462500Y-90837500D01*
X201464869Y-91038161D01*
X201490108Y-91238558D01*
X201564128Y-91321288D01*
X201712500Y-91337500D01*
X201758572Y-91338555D01*
X201921198Y-91397198D01*
X201962500Y-91587500D01*
X201961445Y-91633571D01*
X201902802Y-91796197D01*
X201712500Y-91837500D01*
X201666429Y-91836444D01*
X201503803Y-91777801D01*
X201462500Y-91587500D01*
X201461445Y-91541428D01*
X201402802Y-91378802D01*
X201212500Y-91337500D01*
X201124692Y-91340257D01*
X201032669Y-91374525D01*
X200984325Y-91482403D01*
X200965616Y-91706018D01*
X200962500Y-92087500D01*
X200962500Y-92837500D01*
X199962500Y-92837500D01*
X199962500Y-91337500D01*
X200462500Y-91337500D01*
X200663162Y-91335131D01*
X200863559Y-91309892D01*
X200946289Y-91235872D01*
X200962500Y-91087500D01*
X200961445Y-91041428D01*
X200902802Y-90878802D01*
X200712500Y-90837500D01*
X200666429Y-90836444D01*
X200503803Y-90777801D01*
X200462500Y-90587500D01*
X200461445Y-90541428D01*
X200402802Y-90378802D01*
X200212500Y-90337500D01*
X200166429Y-90338555D01*
X200003803Y-90397198D01*
X199962500Y-90587500D01*
X199961445Y-90633571D01*
X199902802Y-90796197D01*
X199712500Y-90837500D01*
X199666429Y-90836444D01*
X199503803Y-90777801D01*
X199462500Y-90587500D01*
X199463556Y-90541428D01*
X199522199Y-90378802D01*
X199712500Y-90337500D01*
X199758572Y-90336444D01*
X199921198Y-90277801D01*
X199962500Y-90087500D01*
X199963556Y-90041428D01*
X200022199Y-89878802D01*
X200212500Y-89837500D01*
X200300309Y-89834742D01*
X200392332Y-89800474D01*
X200440676Y-89692596D01*
X200459385Y-89468981D01*
X200462500Y-89087500D01*
X200462500Y-88337500D01*
X199962500Y-88337500D01*
X199761839Y-88335131D01*
X199561442Y-88309892D01*
X199478712Y-88235872D01*
X199462500Y-88087500D01*
X199463556Y-88041428D01*
X199522199Y-87878802D01*
X199712500Y-87837500D01*
X199758572Y-87836444D01*
X199921198Y-87777801D01*
X199962500Y-87587500D01*
X199963556Y-87541428D01*
X200022199Y-87378802D01*
X200212500Y-87337500D01*
X200312831Y-87332763D01*
X200413030Y-87282284D01*
X200454395Y-87134244D01*
X200462500Y-86837500D01*
X200460132Y-86636838D01*
X200434893Y-86436441D01*
X200360873Y-86353711D01*
X200212500Y-86337500D01*
X200166429Y-86336444D01*
X200003803Y-86277801D01*
X199962500Y-86087500D01*
X199957764Y-85987169D01*
X199907285Y-85886970D01*
X199759245Y-85845605D01*
X199462500Y-85837500D01*
X199261839Y-85839868D01*
X199061442Y-85865107D01*
X198978712Y-85939127D01*
X198962500Y-86087500D01*
X198961445Y-86133571D01*
X198902802Y-86296197D01*
X198712500Y-86337500D01*
X198612170Y-86342236D01*
X198511971Y-86392715D01*
X198470606Y-86540755D01*
X198462500Y-86837500D01*
X198464869Y-87038161D01*
X198490108Y-87238558D01*
X198564128Y-87321288D01*
X198712500Y-87337500D01*
X198758572Y-87336444D01*
X198921198Y-87277801D01*
X198962500Y-87087500D01*
X198963556Y-87041428D01*
X199022199Y-86878802D01*
X199212500Y-86837500D01*
X199258572Y-86838555D01*
X199421198Y-86897198D01*
X199462500Y-87087500D01*
X199461445Y-87133571D01*
X199402802Y-87296197D01*
X199212500Y-87337500D01*
X199166429Y-87338555D01*
X199003803Y-87397198D01*
X198962500Y-87587500D01*
X198961445Y-87633571D01*
X198902802Y-87796197D01*
X198712500Y-87837500D01*
X198666429Y-87838555D01*
X198503803Y-87897198D01*
X198462500Y-88087500D01*
X198463556Y-88133571D01*
X198522199Y-88296197D01*
X198712500Y-88337500D01*
X198758572Y-88338555D01*
X198921198Y-88397198D01*
X198962500Y-88587500D01*
X198961445Y-88633571D01*
X198902802Y-88796197D01*
X198712500Y-88837500D01*
X198666429Y-88836444D01*
X198503803Y-88777801D01*
X198462500Y-88587500D01*
X198461445Y-88541428D01*
X198402802Y-88378802D01*
X198212500Y-88337500D01*
X198166429Y-88336444D01*
X198003803Y-88277801D01*
X197962500Y-88087500D01*
X197963556Y-88041428D01*
X198022199Y-87878802D01*
X198212500Y-87837500D01*
X198258572Y-87836444D01*
X198421198Y-87777801D01*
X198462500Y-87587500D01*
X198461445Y-87541428D01*
X198402802Y-87378802D01*
X198212500Y-87337500D01*
X198112170Y-87332763D01*
X198011971Y-87282284D01*
X197970606Y-87134244D01*
X197962500Y-86837500D01*
X197964869Y-86636838D01*
X197990108Y-86436441D01*
X198064128Y-86353711D01*
X198212500Y-86337500D01*
X198312831Y-86332763D01*
X198413030Y-86282284D01*
X198454395Y-86134244D01*
X198462500Y-85837500D01*
X198460132Y-85636838D01*
X198434893Y-85436441D01*
X198360873Y-85353711D01*
X198212500Y-85337500D01*
X198166429Y-85336444D01*
X198003803Y-85277801D01*
X197962500Y-85087500D01*
X198462500Y-85087500D01*
X198463556Y-85133571D01*
X198522199Y-85296197D01*
X198712500Y-85337500D01*
X198758572Y-85336444D01*
X198921198Y-85277801D01*
X198962500Y-85087500D01*
X198961445Y-85041428D01*
X198902802Y-84878802D01*
X198712500Y-84837500D01*
X198666429Y-84838555D01*
X198503803Y-84897198D01*
X198462500Y-85087500D01*
X197962500Y-85087500D01*
X197963556Y-85041428D01*
X198022199Y-84878802D01*
X198212500Y-84837500D01*
X198300309Y-84834742D01*
X198392332Y-84800474D01*
X198440676Y-84692596D01*
X198459385Y-84468981D01*
X198462500Y-84087500D01*
X198462500Y-83337500D01*
X199462500Y-83337500D01*
X199462500Y-83837500D01*
X199460132Y-84038161D01*
X199434893Y-84238558D01*
X199360873Y-84321288D01*
X199212500Y-84337500D01*
X199166429Y-84338555D01*
X199003803Y-84397198D01*
X198962500Y-84587500D01*
X198963556Y-84633571D01*
X199022199Y-84796197D01*
X199212500Y-84837500D01*
X199258572Y-84838555D01*
X199421198Y-84897198D01*
X199462500Y-85087500D01*
X199463556Y-85133571D01*
X199522199Y-85296197D01*
X199712500Y-85337500D01*
X199800309Y-85334742D01*
X199892332Y-85300474D01*
X199940676Y-85192596D01*
X199959385Y-84968981D01*
X199962500Y-84587500D01*
X199963420Y-84324074D01*
X199974842Y-84048006D01*
X200010802Y-83902972D01*
X200085340Y-83846846D01*
X200212500Y-83837500D01*
X200312831Y-83832763D01*
X200413030Y-83782284D01*
X200454395Y-83634244D01*
X200462500Y-83337500D01*
X200462500Y-82837500D01*
X200962500Y-82837500D01*
X201163162Y-82839868D01*
X201363559Y-82865107D01*
X201446289Y-82939127D01*
X201462500Y-83087500D01*
X201461445Y-83133571D01*
X201402802Y-83296197D01*
X201212500Y-83337500D01*
X201112170Y-83342236D01*
X201011971Y-83392715D01*
X200970606Y-83540755D01*
X200962500Y-83837500D01*
X200964869Y-84038161D01*
X200990108Y-84238558D01*
X201064128Y-84321288D01*
X201212500Y-84337500D01*
X201258572Y-84336444D01*
X201421198Y-84277801D01*
X201462500Y-84087500D01*
X201463556Y-84041428D01*
X201522199Y-83878802D01*
X201712500Y-83837500D01*
X201758572Y-83836444D01*
X201921198Y-83777801D01*
X201962500Y-83587500D01*
X201963556Y-83541428D01*
X202022199Y-83378802D01*
X202212500Y-83337500D01*
X202258572Y-83336444D01*
X202421198Y-83277801D01*
X202462500Y-83087500D01*
X202461445Y-83041428D01*
X202402802Y-82878802D01*
X202212500Y-82837500D01*
X202166429Y-82836444D01*
X202003803Y-82777801D01*
X201962500Y-82587500D01*
X201963556Y-82541428D01*
X202022199Y-82378802D01*
X202212500Y-82337500D01*
X202258572Y-82338555D01*
X202421198Y-82397198D01*
X202462500Y-82587500D01*
X202463556Y-82633571D01*
X202522199Y-82796197D01*
X202712500Y-82837500D01*
X202812831Y-82842236D01*
X202913030Y-82892715D01*
X202954395Y-83040755D01*
X202962500Y-83337500D01*
X202962500Y-83837500D01*
X202462500Y-83837500D01*
X202261839Y-83839868D01*
X202061442Y-83865107D01*
X201978712Y-83939127D01*
X201962500Y-84087500D01*
X201961445Y-84133571D01*
X201902802Y-84296197D01*
X201712500Y-84337500D01*
X201666429Y-84338555D01*
X201503803Y-84397198D01*
X201462500Y-84587500D01*
X201457764Y-84687830D01*
X201407285Y-84788029D01*
X201259245Y-84829394D01*
X200962500Y-84837500D01*
X200761839Y-84839868D01*
X200561442Y-84865107D01*
X200478712Y-84939127D01*
X200462500Y-85087500D01*
X200461445Y-85133571D01*
X200402802Y-85296197D01*
X200212500Y-85337500D01*
X200166429Y-85338555D01*
X200003803Y-85397198D01*
X199962500Y-85587500D01*
X199963556Y-85633571D01*
X200022199Y-85796197D01*
X200212500Y-85837500D01*
X200258572Y-85836444D01*
X200421198Y-85777801D01*
X200462500Y-85587500D01*
X200463556Y-85541428D01*
X200522199Y-85378802D01*
X200712500Y-85337500D01*
X200758572Y-85338555D01*
X200921198Y-85397198D01*
X200962500Y-85587500D01*
X200963556Y-85633571D01*
X201022199Y-85796197D01*
X201212500Y-85837500D01*
X201258572Y-85836444D01*
X201421198Y-85777801D01*
X201462500Y-85587500D01*
X201463556Y-85541428D01*
X201522199Y-85378802D01*
X201712500Y-85337500D01*
X201812831Y-85332763D01*
X201913030Y-85282284D01*
X201954395Y-85134244D01*
X201955672Y-85087500D01*
X203462500Y-85087500D01*
X203463556Y-85133571D01*
X203522199Y-85296197D01*
X203712500Y-85337500D01*
X203758572Y-85336444D01*
X203921198Y-85277801D01*
X203962500Y-85087500D01*
X203961445Y-85041428D01*
X203902802Y-84878802D01*
X203712500Y-84837500D01*
X203666429Y-84838555D01*
X203503803Y-84897198D01*
X203462500Y-85087500D01*
X201955672Y-85087500D01*
X201962500Y-84837500D01*
X201964869Y-84636838D01*
X201990108Y-84436441D01*
X202064128Y-84353711D01*
X202212500Y-84337500D01*
X202258572Y-84338555D01*
X202421198Y-84397198D01*
X202462500Y-84587500D01*
X202463556Y-84633571D01*
X202522199Y-84796197D01*
X202712500Y-84837500D01*
X202812831Y-84832763D01*
X202913030Y-84782284D01*
X202954395Y-84634244D01*
X202962500Y-84337500D01*
X202962500Y-83837500D01*
X203962500Y-83837500D01*
G37*
G36*
X201812831Y-87342236D02*
G01*
X201913030Y-87392715D01*
X201954395Y-87540755D01*
X201962500Y-87837500D01*
X201960132Y-88038161D01*
X201934893Y-88238558D01*
X201860873Y-88321288D01*
X201712500Y-88337500D01*
X201612170Y-88332763D01*
X201511971Y-88282284D01*
X201470606Y-88134244D01*
X201462500Y-87837500D01*
X201464869Y-87636838D01*
X201490108Y-87436441D01*
X201564128Y-87353711D01*
X201712500Y-87337500D01*
X201812831Y-87342236D01*
G37*
G36*
X203812831Y-86342236D02*
G01*
X203913030Y-86392715D01*
X203954395Y-86540755D01*
X203962500Y-86837500D01*
X203960132Y-87038161D01*
X203934893Y-87238558D01*
X203860873Y-87321288D01*
X203712500Y-87337500D01*
X203612170Y-87332763D01*
X203511971Y-87282284D01*
X203470606Y-87134244D01*
X203462500Y-86837500D01*
X203464869Y-86636838D01*
X203490108Y-86436441D01*
X203564128Y-86353711D01*
X203712500Y-86337500D01*
X203812831Y-86342236D01*
G37*
G36*
X208462500Y-84837500D02*
G01*
X208460132Y-85038161D01*
X208434893Y-85238558D01*
X208360873Y-85321288D01*
X208212500Y-85337500D01*
X208166429Y-85336444D01*
X208003803Y-85277801D01*
X207962500Y-85087500D01*
X207961445Y-85041428D01*
X207902802Y-84878802D01*
X207712500Y-84837500D01*
X207612170Y-84842236D01*
X207511971Y-84892715D01*
X207470606Y-85040755D01*
X207462500Y-85337500D01*
X207460132Y-85538161D01*
X207434893Y-85738558D01*
X207360873Y-85821288D01*
X207212500Y-85837500D01*
X207166429Y-85836444D01*
X207003803Y-85777801D01*
X206962500Y-85587500D01*
X206961445Y-85541428D01*
X206902802Y-85378802D01*
X206712500Y-85337500D01*
X206666429Y-85338555D01*
X206503803Y-85397198D01*
X206462500Y-85587500D01*
X206461445Y-85633571D01*
X206402802Y-85796197D01*
X206212500Y-85837500D01*
X206166429Y-85836444D01*
X206003803Y-85777801D01*
X205962500Y-85587500D01*
X205963556Y-85541428D01*
X206022199Y-85378802D01*
X206212500Y-85337500D01*
X206258572Y-85336444D01*
X206421198Y-85277801D01*
X206462500Y-85087500D01*
X206461445Y-85041428D01*
X206402802Y-84878802D01*
X206212500Y-84837500D01*
X206166429Y-84836444D01*
X206003803Y-84777801D01*
X205962500Y-84587500D01*
X205967237Y-84487169D01*
X206017716Y-84386970D01*
X206165756Y-84345605D01*
X206462500Y-84337500D01*
X206663162Y-84339868D01*
X206863559Y-84365107D01*
X206946289Y-84439127D01*
X206962500Y-84587500D01*
X206963556Y-84633571D01*
X207022199Y-84796197D01*
X207212500Y-84837500D01*
X207258572Y-84836444D01*
X207421198Y-84777801D01*
X207462500Y-84587500D01*
X207467237Y-84487169D01*
X207517716Y-84386970D01*
X207665756Y-84345605D01*
X207962500Y-84337500D01*
X208462500Y-84337500D01*
X208462500Y-84837500D01*
G37*
G36*
X204258572Y-89838555D02*
G01*
X204421198Y-89897198D01*
X204462500Y-90087500D01*
X204461445Y-90133571D01*
X204402802Y-90296197D01*
X204212500Y-90337500D01*
X204112170Y-90342236D01*
X204011971Y-90392715D01*
X203970606Y-90540755D01*
X203962500Y-90837500D01*
X203960132Y-91038161D01*
X203934893Y-91238558D01*
X203860873Y-91321288D01*
X203712500Y-91337500D01*
X203612170Y-91332763D01*
X203511971Y-91282284D01*
X203470606Y-91134244D01*
X203462500Y-90837500D01*
X203464869Y-90636838D01*
X203490108Y-90436441D01*
X203564128Y-90353711D01*
X203712500Y-90337500D01*
X203758572Y-90336444D01*
X203921198Y-90277801D01*
X203962500Y-90087500D01*
X203963556Y-90041428D01*
X204022199Y-89878802D01*
X204212500Y-89837500D01*
X204258572Y-89838555D01*
G37*
G36*
X203812831Y-80342236D02*
G01*
X203913030Y-80392715D01*
X203954395Y-80540755D01*
X203962500Y-80837500D01*
X203964869Y-81038161D01*
X203990108Y-81238558D01*
X204064128Y-81321288D01*
X204212500Y-81337500D01*
X204258572Y-81336444D01*
X204421198Y-81277801D01*
X204462500Y-81087500D01*
X204463556Y-81041428D01*
X204522199Y-80878802D01*
X204712500Y-80837500D01*
X204758572Y-80838555D01*
X204921198Y-80897198D01*
X204962500Y-81087500D01*
X204961445Y-81133571D01*
X204902802Y-81296197D01*
X204712500Y-81337500D01*
X204612170Y-81342236D01*
X204511971Y-81392715D01*
X204470606Y-81540755D01*
X204462500Y-81837500D01*
X204464869Y-82038161D01*
X204490108Y-82238558D01*
X204564128Y-82321288D01*
X204712500Y-82337500D01*
X204758572Y-82338555D01*
X204921198Y-82397198D01*
X204962500Y-82587500D01*
X204957764Y-82687830D01*
X204907285Y-82788029D01*
X204759245Y-82829394D01*
X204462500Y-82837500D01*
X204261839Y-82839868D01*
X204061442Y-82865107D01*
X203978712Y-82939127D01*
X203962500Y-83087500D01*
X203961445Y-83133571D01*
X203902802Y-83296197D01*
X203712500Y-83337500D01*
X203612170Y-83332763D01*
X203511971Y-83282284D01*
X203470606Y-83134244D01*
X203462500Y-82837500D01*
X203464869Y-82636838D01*
X203490108Y-82436441D01*
X203564128Y-82353711D01*
X203712500Y-82337500D01*
X203758572Y-82336444D01*
X203921198Y-82277801D01*
X203962500Y-82087500D01*
X203959743Y-81999691D01*
X203925475Y-81907668D01*
X203817597Y-81859324D01*
X203593982Y-81840615D01*
X203212500Y-81837500D01*
X202462500Y-81837500D01*
X202462500Y-81337500D01*
X202464869Y-81136838D01*
X202490108Y-80936441D01*
X202564128Y-80853711D01*
X202712500Y-80837500D01*
X202758572Y-80838555D01*
X202921198Y-80897198D01*
X202962500Y-81087500D01*
X202963556Y-81133571D01*
X203022199Y-81296197D01*
X203212500Y-81337500D01*
X203312831Y-81332763D01*
X203413030Y-81282284D01*
X203454395Y-81134244D01*
X203462500Y-80837500D01*
X203464869Y-80636838D01*
X203490108Y-80436441D01*
X203564128Y-80353711D01*
X203712500Y-80337500D01*
X203812831Y-80342236D01*
G37*
G36*
X205258572Y-86838555D02*
G01*
X205421198Y-86897198D01*
X205462500Y-87087500D01*
X205467237Y-87187830D01*
X205517716Y-87288029D01*
X205665756Y-87329394D01*
X205962500Y-87337500D01*
X206163162Y-87339868D01*
X206363559Y-87365107D01*
X206446289Y-87439127D01*
X206462500Y-87587500D01*
X206459743Y-87675308D01*
X206425475Y-87767331D01*
X206317597Y-87815675D01*
X206093982Y-87834384D01*
X205712500Y-87837500D01*
X204962500Y-87837500D01*
X204962500Y-87337500D01*
X204964869Y-87136838D01*
X204990108Y-86936441D01*
X205064128Y-86853711D01*
X205212500Y-86837500D01*
X205258572Y-86838555D01*
G37*
G36*
X195462500Y-91837500D02*
G01*
X195462500Y-91087500D01*
X195962500Y-91087500D01*
X195963556Y-91133571D01*
X196022199Y-91296197D01*
X196212500Y-91337500D01*
X196258572Y-91336444D01*
X196421198Y-91277801D01*
X196462500Y-91087500D01*
X196461445Y-91041428D01*
X196402802Y-90878802D01*
X196212500Y-90837500D01*
X196166429Y-90838555D01*
X196003803Y-90897198D01*
X195962500Y-91087500D01*
X195462500Y-91087500D01*
X195462500Y-90337500D01*
X196962500Y-90337500D01*
X196962500Y-91837500D01*
X195462500Y-91837500D01*
G37*
G36*
X204758572Y-83338555D02*
G01*
X204921198Y-83397198D01*
X204962500Y-83587500D01*
X204961445Y-83633571D01*
X204902802Y-83796197D01*
X204712500Y-83837500D01*
X204666429Y-83836444D01*
X204503803Y-83777801D01*
X204462500Y-83587500D01*
X204463556Y-83541428D01*
X204522199Y-83378802D01*
X204712500Y-83337500D01*
X204758572Y-83338555D01*
G37*
G36*
X206462500Y-80837500D02*
G01*
X206462500Y-80337500D01*
X206962500Y-80337500D01*
X208462500Y-80337500D01*
X208462500Y-78837500D01*
X206962500Y-78837500D01*
X206962500Y-80337500D01*
X206462500Y-80337500D01*
X206462500Y-78337500D01*
X208962500Y-78337500D01*
X208962500Y-80837500D01*
X206462500Y-80837500D01*
G37*
G36*
X206975926Y-83338419D02*
G01*
X207251994Y-83349841D01*
X207397028Y-83385801D01*
X207453154Y-83460339D01*
X207462500Y-83587500D01*
X207459743Y-83675308D01*
X207425475Y-83767331D01*
X207317597Y-83815675D01*
X207093982Y-83834384D01*
X206712500Y-83837500D01*
X206449075Y-83836580D01*
X206173007Y-83825158D01*
X206027973Y-83789198D01*
X205971847Y-83714660D01*
X205962500Y-83587500D01*
X205965258Y-83499691D01*
X205999526Y-83407668D01*
X206107404Y-83359324D01*
X206331019Y-83340615D01*
X206712500Y-83337500D01*
X206975926Y-83338419D01*
G37*
G36*
X208258572Y-88838555D02*
G01*
X208421198Y-88897198D01*
X208462500Y-89087500D01*
X208461445Y-89133571D01*
X208402802Y-89296197D01*
X208212500Y-89337500D01*
X208166429Y-89336444D01*
X208003803Y-89277801D01*
X207962500Y-89087500D01*
X207963556Y-89041428D01*
X208022199Y-88878802D01*
X208212500Y-88837500D01*
X208258572Y-88838555D01*
G37*
G36*
X198258572Y-78838555D02*
G01*
X198421198Y-78897198D01*
X198462500Y-79087500D01*
X198461445Y-79133571D01*
X198402802Y-79296197D01*
X198212500Y-79337500D01*
X198166429Y-79336444D01*
X198003803Y-79277801D01*
X197962500Y-79087500D01*
X197963556Y-79041428D01*
X198022199Y-78878802D01*
X198212500Y-78837500D01*
X198258572Y-78838555D01*
G37*
G36*
X147626766Y-52566191D02*
G01*
X147766605Y-52699124D01*
X147851199Y-52904567D01*
X147879397Y-53166405D01*
X147853501Y-53428819D01*
X147775813Y-53635987D01*
X147640577Y-53770647D01*
X147442041Y-53815534D01*
X147248108Y-53770647D01*
X147108269Y-53635987D01*
X147023675Y-53428819D01*
X146995477Y-53166405D01*
X147021373Y-52904567D01*
X147099061Y-52699124D01*
X147234296Y-52566191D01*
X147432833Y-52521880D01*
X147626766Y-52566191D01*
G37*
G36*
X205173641Y-52566191D02*
G01*
X205313480Y-52699124D01*
X205398074Y-52904567D01*
X205426272Y-53166405D01*
X205400376Y-53428819D01*
X205322688Y-53635987D01*
X205187452Y-53770647D01*
X204988916Y-53815534D01*
X204794983Y-53770647D01*
X204655144Y-53635987D01*
X204570550Y-53428819D01*
X204542352Y-53166405D01*
X204568248Y-52904567D01*
X204645936Y-52699124D01*
X204781171Y-52566191D01*
X204979708Y-52521880D01*
X205173641Y-52566191D01*
G37*
G36*
X177529849Y-52540295D02*
G01*
X177663358Y-52641577D01*
X177746225Y-52788897D01*
X177785357Y-52959236D01*
X176919852Y-52959236D01*
X176942871Y-52791199D01*
X177016531Y-52646181D01*
X177145436Y-52542597D01*
X177338793Y-52503465D01*
X177529849Y-52540295D01*
G37*
G36*
X136117391Y-52566191D02*
G01*
X136257230Y-52699124D01*
X136341824Y-52904567D01*
X136370022Y-53166405D01*
X136344126Y-53428819D01*
X136266438Y-53635987D01*
X136131202Y-53770647D01*
X135932666Y-53815534D01*
X135738733Y-53770647D01*
X135598894Y-53635987D01*
X135514300Y-53428819D01*
X135486102Y-53166405D01*
X135511998Y-52904567D01*
X135589686Y-52699124D01*
X135724921Y-52566191D01*
X135923458Y-52521880D01*
X136117391Y-52566191D01*
G37*
G36*
X143001724Y-52540295D02*
G01*
X143135233Y-52641577D01*
X143218100Y-52788897D01*
X143257232Y-52959236D01*
X142391727Y-52959236D01*
X142414746Y-52791199D01*
X142488406Y-52646181D01*
X142617311Y-52542597D01*
X142810668Y-52503465D01*
X143001724Y-52540295D01*
G37*
G36*
X127961287Y-55393960D02*
G01*
X127731431Y-55359864D01*
X127506024Y-55303403D01*
X127287237Y-55225119D01*
X127077176Y-55125768D01*
X126877865Y-55006305D01*
X126691222Y-54867882D01*
X126519047Y-54711831D01*
X126362996Y-54539656D01*
X126224573Y-54353014D01*
X126105110Y-54153702D01*
X126005759Y-53943642D01*
X125927476Y-53724854D01*
X125871014Y-53499447D01*
X125836918Y-53269591D01*
X125825516Y-53037500D01*
X125836918Y-52805409D01*
X125871014Y-52575553D01*
X125927476Y-52350146D01*
X126005759Y-52131358D01*
X126105110Y-51921298D01*
X126224573Y-51721986D01*
X126362996Y-51535344D01*
X126519047Y-51363169D01*
X126691222Y-51207118D01*
X126877865Y-51068695D01*
X126903577Y-51053284D01*
X128193762Y-51053284D01*
X128193762Y-54183834D01*
X128367553Y-54229871D01*
X128575873Y-54266701D01*
X128799155Y-54290871D01*
X129017833Y-54298927D01*
X129328075Y-54265678D01*
X129583583Y-54165930D01*
X129784358Y-53999684D01*
X129928864Y-53775635D01*
X130015568Y-53502479D01*
X130044469Y-53180216D01*
X130020172Y-52852071D01*
X129947279Y-52573544D01*
X129825791Y-52344636D01*
X129656731Y-52174553D01*
X129573513Y-52135165D01*
X130362128Y-52135165D01*
X130463411Y-52659992D01*
X130594618Y-52632370D01*
X130748843Y-52607049D01*
X130900767Y-52590936D01*
X131025068Y-52586332D01*
X131259859Y-52597842D01*
X131494651Y-52641577D01*
X131494651Y-54248286D01*
X132065516Y-54248286D01*
X132065516Y-54197645D01*
X132746871Y-54197645D01*
X133115171Y-54262097D01*
X133374132Y-54289720D01*
X133663017Y-54298927D01*
X134038223Y-54262097D01*
X134325957Y-54140098D01*
X134510107Y-53919118D01*
X134574559Y-53585346D01*
X134500899Y-53267687D01*
X134399719Y-53161801D01*
X134906029Y-53161801D01*
X134924444Y-53407526D01*
X134979689Y-53629082D01*
X135068312Y-53824166D01*
X135186858Y-53990476D01*
X135333603Y-54125136D01*
X135506819Y-54225267D01*
X135704205Y-54287418D01*
X135923458Y-54308135D01*
X136142712Y-54287418D01*
X136340098Y-54225267D01*
X136513889Y-54125136D01*
X136662360Y-53990476D01*
X136782633Y-53824166D01*
X136871831Y-53629082D01*
X136927076Y-53407526D01*
X136928585Y-53387385D01*
X137221716Y-53387385D01*
X137243583Y-53623903D01*
X137309187Y-53817836D01*
X137546280Y-54094061D01*
X137709713Y-54182683D01*
X137900769Y-54241381D01*
X138113117Y-54274182D01*
X138340427Y-54285116D01*
X138532633Y-54279937D01*
X138731746Y-54264399D01*
X138933160Y-54238503D01*
X139132272Y-54202249D01*
X139132272Y-52135165D01*
X139569628Y-52135165D01*
X139670911Y-52659992D01*
X139802118Y-52632370D01*
X139956343Y-52607049D01*
X140108267Y-52590936D01*
X140232568Y-52586332D01*
X140467359Y-52597842D01*
X140702151Y-52641577D01*
X140702151Y-54248286D01*
X141273016Y-54248286D01*
X141273016Y-53138782D01*
X141843881Y-53138782D01*
X141846183Y-53253876D01*
X141853088Y-53350555D01*
X143257232Y-53350555D01*
X143213496Y-53539884D01*
X143082289Y-53684327D01*
X142882026Y-53775826D01*
X142631122Y-53806326D01*
X142306558Y-53769496D01*
X142046446Y-53695836D01*
X141968182Y-54179230D01*
X142281237Y-54264399D01*
X142654141Y-54298927D01*
X142915979Y-54281088D01*
X143149044Y-54227569D01*
X143351609Y-54138947D01*
X143521948Y-54015797D01*
X143658334Y-53858694D01*
X143759041Y-53668214D01*
X143821191Y-53443781D01*
X143841908Y-53184820D01*
X143820040Y-52916652D01*
X143754437Y-52683011D01*
X143653154Y-52484475D01*
X143524249Y-52321617D01*
X143371175Y-52194438D01*
X143197383Y-52102939D01*
X143135232Y-52084524D01*
X144035266Y-52084524D01*
X144063032Y-52395277D01*
X144095690Y-52696822D01*
X144133239Y-52989161D01*
X144175680Y-53272291D01*
X144237831Y-53628315D01*
X144304585Y-53953646D01*
X144375943Y-54248286D01*
X144804092Y-54248286D01*
X144898469Y-53985872D01*
X144981336Y-53753383D01*
X145059600Y-53518592D01*
X145140166Y-53249272D01*
X145223033Y-53513988D01*
X145298995Y-53746477D01*
X145379561Y-53981269D01*
X145480843Y-54248286D01*
X145908992Y-54248286D01*
X145962510Y-54034787D01*
X146012576Y-53799421D01*
X146059189Y-53545063D01*
X146102349Y-53274593D01*
X146117907Y-53161801D01*
X146415404Y-53161801D01*
X146433819Y-53407526D01*
X146489064Y-53629082D01*
X146577687Y-53824166D01*
X146696233Y-53990476D01*
X146842978Y-54125136D01*
X147016194Y-54225267D01*
X147213580Y-54287418D01*
X147432833Y-54308135D01*
X147652087Y-54287418D01*
X147849473Y-54225267D01*
X148023264Y-54125136D01*
X148171735Y-53990476D01*
X148292008Y-53824166D01*
X148381206Y-53629082D01*
X148436451Y-53407526D01*
X148454866Y-53161801D01*
X148435875Y-52919529D01*
X148378904Y-52699124D01*
X148287980Y-52504616D01*
X148167131Y-52340032D01*
X148143802Y-52319315D01*
X148717279Y-52319315D01*
X148750784Y-52628534D01*
X148851300Y-52874834D01*
X149018825Y-53058217D01*
X149247734Y-53184820D01*
X149532399Y-53260782D01*
X149872821Y-53286102D01*
X150075386Y-53286102D01*
X150075386Y-54248286D01*
X150641647Y-54248286D01*
X150641647Y-53387385D01*
X153436123Y-53387385D01*
X153505179Y-53753383D01*
X153716952Y-54045721D01*
X153876932Y-54156211D01*
X154071441Y-54239079D01*
X154300477Y-54290871D01*
X154564042Y-54308135D01*
X154789626Y-54294324D01*
X155010606Y-54259796D01*
X155056097Y-54248286D01*
X155682753Y-54248286D01*
X157413763Y-54248286D01*
X157413763Y-54179230D01*
X157924779Y-54179230D01*
X158263155Y-54271305D01*
X158615342Y-54298927D01*
X158965227Y-54266701D01*
X159223037Y-54142400D01*
X159384168Y-53882288D01*
X159425602Y-53688355D01*
X159439413Y-53442630D01*
X159439413Y-53387385D01*
X160341748Y-53387385D01*
X160410804Y-53753383D01*
X160622577Y-54045721D01*
X160782557Y-54156211D01*
X160977066Y-54239079D01*
X161206102Y-54290871D01*
X161469667Y-54308135D01*
X161695251Y-54294324D01*
X161916231Y-54259796D01*
X161961722Y-54248286D01*
X162487096Y-54248286D01*
X163076376Y-54248286D01*
X163200677Y-54026155D01*
X163324978Y-53829345D01*
X163445827Y-53654402D01*
X163559769Y-53497875D01*
X163690976Y-53679723D01*
X163808372Y-53856967D01*
X163920013Y-54042268D01*
X164033956Y-54248286D01*
X164609424Y-54248286D01*
X164450595Y-53978967D01*
X164261841Y-53693534D01*
X164054673Y-53405800D01*
X164040472Y-53387385D01*
X164945498Y-53387385D01*
X165014554Y-53753383D01*
X165226327Y-54045721D01*
X165386307Y-54156211D01*
X165580816Y-54239079D01*
X165809852Y-54290871D01*
X166073417Y-54308135D01*
X166299001Y-54294324D01*
X166519981Y-54259796D01*
X166565472Y-54248286D01*
X167192128Y-54248286D01*
X168923138Y-54248286D01*
X168923138Y-53778704D01*
X168324651Y-53778704D01*
X168324651Y-52185806D01*
X168619291Y-52349239D01*
X168900119Y-52462031D01*
X169048161Y-52084524D01*
X169434154Y-52084524D01*
X169519899Y-52385494D01*
X169602191Y-52680709D01*
X169684483Y-52969595D01*
X169770228Y-53251574D01*
X169860577Y-53527224D01*
X169956680Y-53797119D01*
X170059689Y-54060683D01*
X170170754Y-54317342D01*
X170343395Y-54635001D01*
X170532149Y-54853679D01*
X170762336Y-54980282D01*
X171059278Y-55021716D01*
X171319390Y-54998697D01*
X171515049Y-54938849D01*
X171409163Y-54464662D01*
X171245730Y-54522209D01*
X171091504Y-54538322D01*
X170824487Y-54427832D01*
X170683144Y-54197645D01*
X171878746Y-54197645D01*
X172247046Y-54262097D01*
X172506007Y-54289720D01*
X172794892Y-54298927D01*
X173170098Y-54262097D01*
X173419830Y-54156211D01*
X174060923Y-54156211D01*
X174123074Y-54188437D01*
X174249677Y-54236777D01*
X174440733Y-54280512D01*
X174696241Y-54298927D01*
X175034616Y-54240805D01*
X175267106Y-54066438D01*
X175401765Y-53780430D01*
X175446652Y-53387385D01*
X175446652Y-53138782D01*
X176372006Y-53138782D01*
X176374308Y-53253876D01*
X176381213Y-53350555D01*
X177785357Y-53350555D01*
X177741621Y-53539884D01*
X177610414Y-53684327D01*
X177410151Y-53775826D01*
X177159247Y-53806326D01*
X176834683Y-53769496D01*
X176574571Y-53695836D01*
X176496307Y-54179230D01*
X176809362Y-54264399D01*
X177182266Y-54298927D01*
X177444104Y-54281088D01*
X177586950Y-54248286D01*
X178563391Y-54248286D01*
X179157274Y-54248286D01*
X179271793Y-53977240D01*
X179403575Y-53716553D01*
X179549169Y-53459319D01*
X179705121Y-53198631D01*
X179999761Y-53198631D01*
X179999761Y-54248286D01*
X180566022Y-54248286D01*
X180566022Y-54156211D01*
X183268423Y-54156211D01*
X183330574Y-54188437D01*
X183457177Y-54236777D01*
X183648233Y-54280512D01*
X183903741Y-54298927D01*
X184242116Y-54240805D01*
X184474606Y-54066438D01*
X184609265Y-53780430D01*
X184654152Y-53387385D01*
X184654152Y-53161801D01*
X185547279Y-53161801D01*
X185565694Y-53407526D01*
X185620939Y-53629082D01*
X185709562Y-53824166D01*
X185828108Y-53990476D01*
X185974853Y-54125136D01*
X186148069Y-54225267D01*
X186345455Y-54287418D01*
X186564708Y-54308135D01*
X186783962Y-54287418D01*
X186981348Y-54225267D01*
X187155139Y-54125136D01*
X187303610Y-53990476D01*
X187423883Y-53824166D01*
X187513081Y-53629082D01*
X187568326Y-53407526D01*
X187586741Y-53161801D01*
X187567750Y-52919529D01*
X187510779Y-52699124D01*
X187419855Y-52504616D01*
X187299006Y-52340032D01*
X187149960Y-52207674D01*
X187019871Y-52135165D01*
X187909003Y-52135165D01*
X188010286Y-52659992D01*
X188141493Y-52632370D01*
X188295718Y-52607049D01*
X188447642Y-52590936D01*
X188571943Y-52586332D01*
X188806734Y-52597842D01*
X189041526Y-52641577D01*
X189041526Y-54248286D01*
X189612391Y-54248286D01*
X189612391Y-54179230D01*
X190151029Y-54179230D01*
X190489405Y-54271305D01*
X190841592Y-54298927D01*
X191191477Y-54266701D01*
X191229671Y-54248286D01*
X192595621Y-54248286D01*
X193161882Y-54248286D01*
X193161882Y-53101952D01*
X193179146Y-52840690D01*
X193230938Y-52664596D01*
X193511767Y-52531087D01*
X193638370Y-52535691D01*
X193769577Y-52549502D01*
X193769577Y-54248286D01*
X194335838Y-54248286D01*
X194335838Y-53161801D01*
X194754779Y-53161801D01*
X194773194Y-53407526D01*
X194828439Y-53629082D01*
X194917062Y-53824166D01*
X195035608Y-53990476D01*
X195182353Y-54125136D01*
X195355569Y-54225267D01*
X195552955Y-54287418D01*
X195772208Y-54308135D01*
X195991462Y-54287418D01*
X196188848Y-54225267D01*
X196362639Y-54125136D01*
X196379136Y-54110174D01*
X197070466Y-54110174D01*
X197395030Y-54245984D01*
X197615435Y-54292597D01*
X197866914Y-54308135D01*
X198237261Y-54265167D01*
X198277454Y-54248286D01*
X199363133Y-54248286D01*
X199823508Y-54248286D01*
X199823508Y-52927010D01*
X199839621Y-52719841D01*
X199881055Y-52600144D01*
X199940904Y-52544899D01*
X200012262Y-52531087D01*
X200099733Y-52537993D01*
X200182601Y-52563314D01*
X200159582Y-52756671D01*
X200150374Y-52991462D01*
X200150374Y-53424215D01*
X200610749Y-53424215D01*
X200610749Y-52927010D01*
X200654485Y-52618559D01*
X200794899Y-52531087D01*
X200861654Y-52535691D01*
X200937616Y-52549502D01*
X200937616Y-54248286D01*
X201397991Y-54248286D01*
X201397991Y-52167391D01*
X201252027Y-52135165D01*
X201720253Y-52135165D01*
X201821536Y-52659992D01*
X201952743Y-52632370D01*
X202106968Y-52607049D01*
X202258892Y-52590936D01*
X202383193Y-52586332D01*
X202617984Y-52597842D01*
X202852776Y-52641577D01*
X202852776Y-54248286D01*
X203423641Y-54248286D01*
X203423641Y-53161801D01*
X203962279Y-53161801D01*
X203980694Y-53407526D01*
X204035939Y-53629082D01*
X204124562Y-53824166D01*
X204243108Y-53990476D01*
X204389853Y-54125136D01*
X204563069Y-54225267D01*
X204760455Y-54287418D01*
X204979708Y-54308135D01*
X205198962Y-54287418D01*
X205396348Y-54225267D01*
X205570139Y-54125136D01*
X205718610Y-53990476D01*
X205838883Y-53824166D01*
X205928081Y-53629082D01*
X205983326Y-53407526D01*
X206001741Y-53161801D01*
X205982750Y-52919529D01*
X205925779Y-52699124D01*
X205834855Y-52504616D01*
X205714006Y-52340032D01*
X205564960Y-52207674D01*
X205389442Y-52109844D01*
X205192632Y-52049420D01*
X204979708Y-52029279D01*
X204763907Y-52049420D01*
X204567673Y-52109844D01*
X204393881Y-52207674D01*
X204245410Y-52340032D01*
X204125137Y-52504616D01*
X204035939Y-52699124D01*
X203980694Y-52919529D01*
X203962279Y-53161801D01*
X203423641Y-53161801D01*
X203423641Y-52227240D01*
X203195180Y-52152429D01*
X202960964Y-52093731D01*
X202703729Y-52055750D01*
X202406212Y-52043090D01*
X202275005Y-52047694D01*
X202093157Y-52063807D01*
X201897498Y-52091429D01*
X201720253Y-52135165D01*
X201252027Y-52135165D01*
X201043502Y-52089127D01*
X200735051Y-52061505D01*
X200520976Y-52091429D01*
X200357543Y-52190410D01*
X200173393Y-52100637D01*
X199952413Y-52061505D01*
X199657773Y-52116750D01*
X199475925Y-52282485D01*
X199386152Y-52561012D01*
X199368888Y-52743435D01*
X199363133Y-52954632D01*
X199363133Y-54248286D01*
X198277454Y-54248286D01*
X198544177Y-54136262D01*
X198787664Y-53921420D01*
X198926640Y-53707633D01*
X199025908Y-53452988D01*
X199085469Y-53157485D01*
X199105323Y-52821124D01*
X199081153Y-52486201D01*
X199008644Y-52190410D01*
X198892975Y-51935477D01*
X198739325Y-51723129D01*
X198550571Y-51555092D01*
X198329591Y-51433093D01*
X198214229Y-51398565D01*
X206241136Y-51398565D01*
X206254947Y-51753629D01*
X206268758Y-52119052D01*
X206283720Y-52488503D01*
X206300984Y-52855652D01*
X206321126Y-53218773D01*
X206344720Y-53576139D01*
X206371767Y-53921420D01*
X206402267Y-54248286D01*
X206871849Y-54248286D01*
X206973132Y-53947316D01*
X207074414Y-53624478D01*
X207175697Y-53298187D01*
X207276979Y-52986859D01*
X207380564Y-53289555D01*
X207488752Y-53617572D01*
X207594638Y-53945590D01*
X207691317Y-54248286D01*
X208160899Y-54248286D01*
X208195428Y-53920845D01*
X208225352Y-53573837D01*
X208251248Y-53214744D01*
X208273691Y-52851048D01*
X208292682Y-52483899D01*
X208308219Y-52114448D01*
X208320880Y-51750176D01*
X208331238Y-51398565D01*
X207806411Y-51398565D01*
X207811014Y-51674790D01*
X207815618Y-51960222D01*
X207820222Y-52249683D01*
X207824826Y-52537993D01*
X207829429Y-52822275D01*
X207834033Y-53099651D01*
X207837486Y-53364942D01*
X207838637Y-53612969D01*
X207744260Y-53290706D01*
X207642978Y-52945425D01*
X207553204Y-52632370D01*
X207488752Y-52406786D01*
X207074414Y-52406786D01*
X207019169Y-52623162D01*
X206938604Y-52908595D01*
X206841925Y-53244669D01*
X206738341Y-53612969D01*
X206739492Y-53364942D01*
X206742944Y-53099651D01*
X206747548Y-52822850D01*
X206752152Y-52540295D01*
X206756756Y-52253136D01*
X206761359Y-51962524D01*
X206764812Y-51675365D01*
X206765963Y-51398565D01*
X206241136Y-51398565D01*
X198214229Y-51398565D01*
X198081564Y-51358858D01*
X197811669Y-51334112D01*
X197537746Y-51359433D01*
X197323672Y-51416980D01*
X197169446Y-51486036D01*
X197075069Y-51541281D01*
X197222389Y-51992449D01*
X197477898Y-51875053D01*
X197820877Y-51826714D01*
X198080989Y-51875053D01*
X198306573Y-52036184D01*
X198467704Y-52337730D01*
X198514317Y-52549502D01*
X198529854Y-52807312D01*
X198511184Y-53107324D01*
X198455171Y-53356693D01*
X198361818Y-53555422D01*
X198140262Y-53750506D01*
X197811669Y-53815534D01*
X197445671Y-53764892D01*
X197213182Y-53663610D01*
X197070466Y-54110174D01*
X196379136Y-54110174D01*
X196511110Y-53990476D01*
X196631383Y-53824166D01*
X196720581Y-53629082D01*
X196775826Y-53407526D01*
X196794241Y-53161801D01*
X196775250Y-52919529D01*
X196718279Y-52699124D01*
X196627355Y-52504616D01*
X196506506Y-52340032D01*
X196357460Y-52207674D01*
X196181942Y-52109844D01*
X195985132Y-52049420D01*
X195772208Y-52029279D01*
X195556407Y-52049420D01*
X195360173Y-52109844D01*
X195186381Y-52207674D01*
X195037910Y-52340032D01*
X194917637Y-52504616D01*
X194828439Y-52699124D01*
X194773194Y-52919529D01*
X194754779Y-53161801D01*
X194335838Y-53161801D01*
X194335838Y-52153580D01*
X194166075Y-52113297D01*
X193960633Y-52075316D01*
X193727568Y-52047694D01*
X193474937Y-52038486D01*
X193238995Y-52056326D01*
X193046788Y-52109844D01*
X192777469Y-52312409D01*
X192637054Y-52625464D01*
X192605979Y-52817095D01*
X192595621Y-53028292D01*
X192595621Y-54248286D01*
X191229671Y-54248286D01*
X191449287Y-54142400D01*
X191610418Y-53882288D01*
X191651852Y-53688355D01*
X191665663Y-53442630D01*
X191665663Y-52554106D01*
X192158264Y-52554106D01*
X192158264Y-52084524D01*
X191665663Y-52084524D01*
X191665663Y-51541281D01*
X191099402Y-51449206D01*
X191099402Y-52084524D01*
X190192463Y-52084524D01*
X190192463Y-52554106D01*
X191099402Y-52554106D01*
X191099402Y-53428819D01*
X191076383Y-53622176D01*
X191011931Y-53737270D01*
X190910648Y-53792515D01*
X190777139Y-53806326D01*
X190632121Y-53801722D01*
X190503216Y-53785609D01*
X190374311Y-53751081D01*
X190229293Y-53691232D01*
X190151029Y-54179230D01*
X189612391Y-54179230D01*
X189612391Y-52227240D01*
X189383930Y-52152429D01*
X189149714Y-52093731D01*
X188892479Y-52055750D01*
X188594962Y-52043090D01*
X188463755Y-52047694D01*
X188281907Y-52063807D01*
X188086248Y-52091429D01*
X187909003Y-52135165D01*
X187019871Y-52135165D01*
X186974442Y-52109844D01*
X186777632Y-52049420D01*
X186564708Y-52029279D01*
X186348907Y-52049420D01*
X186152673Y-52109844D01*
X185978881Y-52207674D01*
X185830410Y-52340032D01*
X185710137Y-52504616D01*
X185620939Y-52699124D01*
X185565694Y-52919529D01*
X185547279Y-53161801D01*
X184654152Y-53161801D01*
X184654152Y-51550489D01*
X185252639Y-51550489D01*
X185252639Y-51080906D01*
X184087891Y-51080906D01*
X184087891Y-53428819D01*
X184000419Y-53728062D01*
X183779439Y-53806326D01*
X183494007Y-53760289D01*
X183342083Y-53700440D01*
X183268423Y-54156211D01*
X180566022Y-54156211D01*
X180566022Y-53345951D01*
X181334848Y-53345951D01*
X182596276Y-53345951D01*
X182596276Y-52788897D01*
X181334848Y-52788897D01*
X181334848Y-53345951D01*
X180566022Y-53345951D01*
X180566022Y-51439999D01*
X180384174Y-51405471D01*
X180183911Y-51382452D01*
X179990553Y-51370942D01*
X179829422Y-51366339D01*
X179596933Y-51380150D01*
X179387462Y-51421584D01*
X179203312Y-51491791D01*
X179046784Y-51591922D01*
X178828106Y-51884261D01*
X178771135Y-52077043D01*
X178752144Y-52300900D01*
X178777465Y-52537993D01*
X178853427Y-52752067D01*
X178988087Y-52930463D01*
X179189501Y-53060519D01*
X179023766Y-53325234D01*
X178853427Y-53629082D01*
X178694598Y-53946741D01*
X178563391Y-54248286D01*
X177586950Y-54248286D01*
X177677169Y-54227569D01*
X177879734Y-54138947D01*
X178050073Y-54015797D01*
X178186459Y-53858694D01*
X178287166Y-53668214D01*
X178349316Y-53443781D01*
X178370033Y-53184820D01*
X178348165Y-52916652D01*
X178282562Y-52683011D01*
X178181279Y-52484475D01*
X178052374Y-52321617D01*
X177899300Y-52194438D01*
X177725508Y-52102939D01*
X177539056Y-52047694D01*
X177348001Y-52029279D01*
X177054384Y-52060738D01*
X176811920Y-52155115D01*
X176620608Y-52312409D01*
X176482496Y-52530064D01*
X176399628Y-52805522D01*
X176372006Y-53138782D01*
X175446652Y-53138782D01*
X175446652Y-51550489D01*
X176045139Y-51550489D01*
X176045139Y-51080906D01*
X174880391Y-51080906D01*
X174880391Y-53428819D01*
X174792919Y-53728062D01*
X174571939Y-53806326D01*
X174286507Y-53760289D01*
X174134583Y-53700440D01*
X174060923Y-54156211D01*
X173419830Y-54156211D01*
X173457832Y-54140098D01*
X173641982Y-53919118D01*
X173706434Y-53585346D01*
X173632774Y-53267687D01*
X173434813Y-53060519D01*
X173149381Y-52947727D01*
X172813307Y-52913199D01*
X172604987Y-52922406D01*
X172421988Y-52950029D01*
X172421988Y-52880972D01*
X172523271Y-52611653D01*
X172661383Y-52530512D01*
X172873156Y-52503465D01*
X173183909Y-52526484D01*
X173425606Y-52581729D01*
X173503869Y-52125957D01*
X173204626Y-52059203D01*
X173007815Y-52036760D01*
X172804099Y-52029279D01*
X172559525Y-52044816D01*
X172359838Y-52091429D01*
X172076707Y-52266372D01*
X171924783Y-52542597D01*
X171878746Y-52908595D01*
X171878746Y-54197645D01*
X170683144Y-54197645D01*
X170663356Y-54165419D01*
X170798399Y-53882288D01*
X170933442Y-53573070D01*
X171068486Y-53237763D01*
X171167466Y-52969739D01*
X171261843Y-52688190D01*
X171351616Y-52393119D01*
X171436786Y-52084524D01*
X170847506Y-52084524D01*
X170753129Y-52448220D01*
X170698459Y-52641577D01*
X170640337Y-52834935D01*
X170578762Y-53026566D01*
X170513734Y-53214744D01*
X170377923Y-53562327D01*
X170281244Y-53214744D01*
X170231754Y-53027142D01*
X170184566Y-52837237D01*
X170139104Y-52645606D01*
X170094793Y-52452824D01*
X170014227Y-52084524D01*
X169434154Y-52084524D01*
X169048161Y-52084524D01*
X169084269Y-51992449D01*
X168844874Y-51886562D01*
X168587064Y-51743846D01*
X168343066Y-51578111D01*
X168145104Y-51398565D01*
X167758389Y-51398565D01*
X167758389Y-53778704D01*
X167192128Y-53778704D01*
X167192128Y-54248286D01*
X166565472Y-54248286D01*
X166711036Y-54211456D01*
X166842243Y-54160815D01*
X166727149Y-53691232D01*
X166469339Y-53783307D01*
X166293246Y-53814383D01*
X166078021Y-53824741D01*
X165804098Y-53787911D01*
X165633759Y-53693534D01*
X165548589Y-53562327D01*
X165525571Y-53410404D01*
X165564703Y-53191726D01*
X165721230Y-53021387D01*
X166055002Y-52910897D01*
X166304755Y-52881548D01*
X166621263Y-52871765D01*
X166579829Y-52489078D01*
X166547603Y-52114448D01*
X166523433Y-51750176D01*
X166506169Y-51398565D01*
X165051384Y-51398565D01*
X165051384Y-51868147D01*
X166031983Y-51868147D01*
X166055002Y-52176599D01*
X166078021Y-52439012D01*
X165729670Y-52486073D01*
X165445772Y-52578148D01*
X165226327Y-52715237D01*
X165070311Y-52896318D01*
X164976701Y-53120367D01*
X164945498Y-53387385D01*
X164040472Y-53387385D01*
X163845202Y-53134179D01*
X164604821Y-52084524D01*
X164010937Y-52084524D01*
X163532147Y-52761275D01*
X163090187Y-52084524D01*
X162514718Y-52084524D01*
X163214488Y-53124971D01*
X162998112Y-53408102D01*
X162795547Y-53709647D01*
X162620604Y-53999684D01*
X162487096Y-54248286D01*
X161961722Y-54248286D01*
X162107286Y-54211456D01*
X162238493Y-54160815D01*
X162123399Y-53691232D01*
X161865589Y-53783307D01*
X161689496Y-53814383D01*
X161474271Y-53824741D01*
X161200348Y-53787911D01*
X161030009Y-53693534D01*
X160944839Y-53562327D01*
X160921821Y-53410404D01*
X160960953Y-53191726D01*
X161117480Y-53021387D01*
X161451252Y-52910897D01*
X161701005Y-52881548D01*
X162017513Y-52871765D01*
X161976079Y-52489078D01*
X161943853Y-52114448D01*
X161919683Y-51750176D01*
X161902419Y-51398565D01*
X160447634Y-51398565D01*
X160447634Y-51868147D01*
X161428233Y-51868147D01*
X161451252Y-52176599D01*
X161474271Y-52439012D01*
X161125920Y-52486073D01*
X160842022Y-52578148D01*
X160622577Y-52715237D01*
X160466561Y-52896318D01*
X160372951Y-53120367D01*
X160341748Y-53387385D01*
X159439413Y-53387385D01*
X159439413Y-52554106D01*
X159932014Y-52554106D01*
X159932014Y-52084524D01*
X159439413Y-52084524D01*
X159439413Y-51541281D01*
X158873152Y-51449206D01*
X158873152Y-52084524D01*
X157966213Y-52084524D01*
X157966213Y-52554106D01*
X158873152Y-52554106D01*
X158873152Y-53428819D01*
X158850133Y-53622176D01*
X158785681Y-53737270D01*
X158684398Y-53792515D01*
X158550889Y-53806326D01*
X158405871Y-53801722D01*
X158276966Y-53785609D01*
X158148061Y-53751081D01*
X158003043Y-53691232D01*
X157924779Y-54179230D01*
X157413763Y-54179230D01*
X157413763Y-53778704D01*
X156815276Y-53778704D01*
X156815276Y-52185806D01*
X157109916Y-52349239D01*
X157390744Y-52462031D01*
X157574894Y-51992449D01*
X157335499Y-51886562D01*
X157077689Y-51743846D01*
X156833691Y-51578111D01*
X156635729Y-51398565D01*
X156249014Y-51398565D01*
X156249014Y-53778704D01*
X155682753Y-53778704D01*
X155682753Y-54248286D01*
X155056097Y-54248286D01*
X155201661Y-54211456D01*
X155332868Y-54160815D01*
X155217774Y-53691232D01*
X154959964Y-53783307D01*
X154783871Y-53814383D01*
X154568646Y-53824741D01*
X154294723Y-53787911D01*
X154124384Y-53693534D01*
X154039214Y-53562327D01*
X154016196Y-53410404D01*
X154055328Y-53191726D01*
X154211855Y-53021387D01*
X154545627Y-52910897D01*
X154795380Y-52881548D01*
X155111888Y-52871765D01*
X155070454Y-52489078D01*
X155038228Y-52114448D01*
X155014058Y-51750176D01*
X154996794Y-51398565D01*
X153542009Y-51398565D01*
X153542009Y-51868147D01*
X154522608Y-51868147D01*
X154545627Y-52176599D01*
X154568646Y-52439012D01*
X154220295Y-52486073D01*
X153936397Y-52578148D01*
X153716952Y-52715237D01*
X153560936Y-52896318D01*
X153467326Y-53120367D01*
X153436123Y-53387385D01*
X150641647Y-53387385D01*
X150641647Y-53345951D01*
X151410473Y-53345951D01*
X152671901Y-53345951D01*
X152671901Y-52788897D01*
X151410473Y-52788897D01*
X151410473Y-53345951D01*
X150641647Y-53345951D01*
X150641647Y-51435395D01*
X150455195Y-51403169D01*
X150245724Y-51382452D01*
X150038556Y-51370942D01*
X149859009Y-51366339D01*
X149523959Y-51391148D01*
X149243130Y-51465575D01*
X149016523Y-51589621D01*
X148850277Y-51769934D01*
X148750529Y-52013166D01*
X148717279Y-52319315D01*
X148143802Y-52319315D01*
X148018085Y-52207674D01*
X147842567Y-52109844D01*
X147645757Y-52049420D01*
X147432833Y-52029279D01*
X147217032Y-52049420D01*
X147020798Y-52109844D01*
X146847006Y-52207674D01*
X146698535Y-52340032D01*
X146578262Y-52504616D01*
X146489064Y-52699124D01*
X146433819Y-52919529D01*
X146415404Y-53161801D01*
X146117907Y-53161801D01*
X146141481Y-52990887D01*
X146176009Y-52696822D01*
X146207085Y-52394126D01*
X146235858Y-52084524D01*
X145752464Y-52084524D01*
X145739932Y-52349495D01*
X145726888Y-52610374D01*
X145713333Y-52867161D01*
X145695685Y-53124460D01*
X145670364Y-53386873D01*
X145637371Y-53654402D01*
X145533786Y-53329838D01*
X145455523Y-53044406D01*
X145391070Y-52781992D01*
X145328919Y-52521880D01*
X144919186Y-52521880D01*
X144861639Y-52781992D01*
X144797186Y-53044406D01*
X144723526Y-53329838D01*
X144629149Y-53654402D01*
X144603829Y-53447234D01*
X144583112Y-53249272D01*
X144566423Y-53056490D01*
X144553188Y-52864859D01*
X144534773Y-52482748D01*
X144527291Y-52287664D01*
X144518659Y-52084524D01*
X144035266Y-52084524D01*
X143135232Y-52084524D01*
X143010931Y-52047694D01*
X142819876Y-52029279D01*
X142526259Y-52060738D01*
X142283795Y-52155115D01*
X142092483Y-52312409D01*
X141954371Y-52530064D01*
X141871503Y-52805522D01*
X141843881Y-53138782D01*
X141273016Y-53138782D01*
X141273016Y-52227240D01*
X141044555Y-52152429D01*
X140810339Y-52093731D01*
X140553104Y-52055750D01*
X140255587Y-52043090D01*
X140124380Y-52047694D01*
X139942532Y-52063807D01*
X139746873Y-52091429D01*
X139569628Y-52135165D01*
X139132272Y-52135165D01*
X139132272Y-51435395D01*
X138777783Y-51387056D01*
X138395672Y-51366339D01*
X138103334Y-51383027D01*
X137870844Y-51433093D01*
X137553186Y-51608036D01*
X137396658Y-51849732D01*
X137355224Y-52116750D01*
X137379970Y-52307806D01*
X137454205Y-52475842D01*
X137718921Y-52724445D01*
X137475497Y-52848746D01*
X137325300Y-53009877D01*
X137247612Y-53194027D01*
X137221716Y-53387385D01*
X136928585Y-53387385D01*
X136945491Y-53161801D01*
X136926500Y-52919529D01*
X136869529Y-52699124D01*
X136778605Y-52504616D01*
X136657756Y-52340032D01*
X136508710Y-52207674D01*
X136333192Y-52109844D01*
X136136382Y-52049420D01*
X135923458Y-52029279D01*
X135707657Y-52049420D01*
X135511423Y-52109844D01*
X135337631Y-52207674D01*
X135189160Y-52340032D01*
X135068887Y-52504616D01*
X134979689Y-52699124D01*
X134924444Y-52919529D01*
X134906029Y-53161801D01*
X134399719Y-53161801D01*
X134302938Y-53060519D01*
X134017506Y-52947727D01*
X133681432Y-52913199D01*
X133473112Y-52922406D01*
X133290113Y-52950029D01*
X133290113Y-52880972D01*
X133391396Y-52611653D01*
X133529508Y-52530512D01*
X133741281Y-52503465D01*
X134052034Y-52526484D01*
X134293731Y-52581729D01*
X134371994Y-52125957D01*
X134072751Y-52059203D01*
X133875940Y-52036760D01*
X133672224Y-52029279D01*
X133427650Y-52044816D01*
X133227963Y-52091429D01*
X132944832Y-52266372D01*
X132792908Y-52542597D01*
X132746871Y-52908595D01*
X132746871Y-54197645D01*
X132065516Y-54197645D01*
X132065516Y-52227240D01*
X131837055Y-52152429D01*
X131602839Y-52093731D01*
X131345604Y-52055750D01*
X131048087Y-52043090D01*
X130916880Y-52047694D01*
X130735032Y-52063807D01*
X130539373Y-52091429D01*
X130362128Y-52135165D01*
X129573513Y-52135165D01*
X129441122Y-52072503D01*
X129178964Y-52038486D01*
X128953381Y-52063807D01*
X128760023Y-52135165D01*
X128760023Y-51149962D01*
X128193762Y-51053284D01*
X126903577Y-51053284D01*
X127077176Y-50949232D01*
X127287237Y-50849881D01*
X127506024Y-50771597D01*
X127731431Y-50715136D01*
X127961287Y-50681040D01*
X128193378Y-50669638D01*
X208331622Y-50669638D01*
X208563713Y-50681040D01*
X208793569Y-50715136D01*
X209018976Y-50771597D01*
X209237763Y-50849881D01*
X209447824Y-50949232D01*
X209647135Y-51068695D01*
X209833778Y-51207118D01*
X210005953Y-51363169D01*
X210162004Y-51535344D01*
X210300427Y-51721986D01*
X210419890Y-51921298D01*
X210519241Y-52131358D01*
X210597524Y-52350146D01*
X210653986Y-52575553D01*
X210688082Y-52805409D01*
X210699484Y-53037500D01*
X210688082Y-53269591D01*
X210653986Y-53499447D01*
X210597524Y-53724854D01*
X210519241Y-53943642D01*
X210419890Y-54153702D01*
X210300427Y-54353014D01*
X210162004Y-54539656D01*
X210005953Y-54711831D01*
X209833778Y-54867882D01*
X209647135Y-55006305D01*
X209447824Y-55125768D01*
X209237763Y-55225119D01*
X209018976Y-55303403D01*
X208793569Y-55359864D01*
X208563713Y-55393960D01*
X208331622Y-55405362D01*
X128193378Y-55405362D01*
X127961287Y-55393960D01*
G37*
G36*
X138566011Y-53774100D02*
G01*
X138434804Y-53787911D01*
X138294389Y-53792515D01*
X138105636Y-53776402D01*
X137942203Y-53716553D01*
X137824807Y-53592252D01*
X137778769Y-53387385D01*
X137909976Y-53090443D01*
X138262163Y-53000670D01*
X138566011Y-53000670D01*
X138566011Y-53774100D01*
G37*
G36*
X179907686Y-51861242D02*
G01*
X179999761Y-51872751D01*
X179999761Y-52729049D01*
X179875459Y-52729049D01*
X179625706Y-52700851D01*
X179456518Y-52616257D01*
X179327613Y-52296296D01*
X179362141Y-52100637D01*
X179465726Y-51964826D01*
X179625706Y-51885412D01*
X179829422Y-51858940D01*
X179907686Y-51861242D01*
G37*
G36*
X149934971Y-51861242D02*
G01*
X150075386Y-51872751D01*
X150075386Y-52793501D01*
X149845198Y-52793501D01*
X149606954Y-52766454D01*
X149435464Y-52685313D01*
X149331880Y-52538569D01*
X149297352Y-52314711D01*
X149331305Y-52102363D01*
X149433163Y-51962524D01*
X149591416Y-51884836D01*
X149794557Y-51858940D01*
X149934971Y-51861242D01*
G37*
G36*
X172868552Y-53320631D02*
G01*
X173013570Y-53359762D01*
X173112551Y-53438026D01*
X173149381Y-53571535D01*
X173038891Y-53781006D01*
X172753458Y-53843156D01*
X172573912Y-53840854D01*
X172421988Y-53829345D01*
X172421988Y-53332140D01*
X172555497Y-53316027D01*
X172698213Y-53309121D01*
X172868552Y-53320631D01*
G37*
G36*
X138441709Y-51863544D02*
G01*
X138566011Y-51877355D01*
X138566011Y-52531087D01*
X138345031Y-52531087D01*
X138018164Y-52436711D01*
X137907674Y-52176599D01*
X137939901Y-52013166D01*
X138027372Y-51916487D01*
X138156277Y-51870449D01*
X138308201Y-51858940D01*
X138441709Y-51863544D01*
G37*
G36*
X195966141Y-52566191D02*
G01*
X196105980Y-52699124D01*
X196190574Y-52904567D01*
X196218772Y-53166405D01*
X196192876Y-53428819D01*
X196115188Y-53635987D01*
X195979952Y-53770647D01*
X195781416Y-53815534D01*
X195587483Y-53770647D01*
X195447644Y-53635987D01*
X195363050Y-53428819D01*
X195334852Y-53166405D01*
X195360748Y-52904567D01*
X195438436Y-52699124D01*
X195573671Y-52566191D01*
X195772208Y-52521880D01*
X195966141Y-52566191D01*
G37*
G36*
X129257228Y-52566767D02*
G01*
X129376926Y-52687615D01*
X129445982Y-52884425D01*
X129469001Y-53152594D01*
X129441954Y-53416158D01*
X129360813Y-53626780D01*
X129219823Y-53764892D01*
X129013229Y-53810930D01*
X128884324Y-53806326D01*
X128760023Y-53792515D01*
X128760023Y-52613955D01*
X128907343Y-52551804D01*
X129082286Y-52526484D01*
X129257228Y-52566767D01*
G37*
G36*
X133736677Y-53320631D02*
G01*
X133881695Y-53359762D01*
X133980676Y-53438026D01*
X134017506Y-53571535D01*
X133907016Y-53781006D01*
X133621583Y-53843156D01*
X133442037Y-53840854D01*
X133290113Y-53829345D01*
X133290113Y-53332140D01*
X133423622Y-53316027D01*
X133566338Y-53309121D01*
X133736677Y-53320631D01*
G37*
G36*
X186758641Y-52566191D02*
G01*
X186898480Y-52699124D01*
X186983074Y-52904567D01*
X187011272Y-53166405D01*
X186985376Y-53428819D01*
X186907688Y-53635987D01*
X186772452Y-53770647D01*
X186573916Y-53815534D01*
X186379983Y-53770647D01*
X186240144Y-53635987D01*
X186155550Y-53428819D01*
X186127352Y-53166405D01*
X186153248Y-52904567D01*
X186230936Y-52699124D01*
X186366171Y-52566191D01*
X186564708Y-52521880D01*
X186758641Y-52566191D01*
G37*
G36*
X175074293Y-61820214D02*
G01*
X175002942Y-61613160D01*
X174960131Y-61350639D01*
X174945860Y-61032653D01*
X174948054Y-60984188D01*
X175178493Y-60984188D01*
X175253615Y-61209552D01*
X175445052Y-61304059D01*
X175643760Y-61209552D01*
X175716458Y-60984188D01*
X175643760Y-60756401D01*
X175445052Y-60659471D01*
X175253615Y-60756401D01*
X175178493Y-60984188D01*
X174948054Y-60984188D01*
X174960131Y-60717360D01*
X175002942Y-60456455D01*
X175074293Y-60249939D01*
X175232411Y-60048203D01*
X175449899Y-59980957D01*
X175664358Y-60048203D01*
X175823082Y-60249939D01*
X175895779Y-60456455D01*
X175939398Y-60717360D01*
X175953938Y-61032653D01*
X175939398Y-61350639D01*
X175895779Y-61613160D01*
X175823082Y-61820214D01*
X175664358Y-62021951D01*
X175449899Y-62089196D01*
X175445052Y-62087698D01*
X175232411Y-62021951D01*
X175074293Y-61820214D01*
G37*
G36*
X169415590Y-63399255D02*
G01*
X169185218Y-63365082D01*
X168959304Y-63308494D01*
X168740025Y-63230035D01*
X168529492Y-63130460D01*
X168329733Y-63010729D01*
X168142672Y-62871995D01*
X167970109Y-62715593D01*
X167813708Y-62543031D01*
X167674974Y-62355970D01*
X167555243Y-62156210D01*
X167455668Y-61945678D01*
X167377209Y-61726399D01*
X167353970Y-61633623D01*
X169648607Y-61633623D01*
X169721304Y-62018922D01*
X169944245Y-62326676D01*
X170112661Y-62442993D01*
X170317427Y-62530230D01*
X170558542Y-62584754D01*
X170836006Y-62602928D01*
X171073485Y-62588389D01*
X171306119Y-62552040D01*
X171354010Y-62539923D01*
X171999172Y-62539923D01*
X173957169Y-62539923D01*
X173969285Y-62418760D01*
X173966862Y-62316983D01*
X173944447Y-62084350D01*
X173877201Y-61871103D01*
X173775424Y-61675424D01*
X173649414Y-61495497D01*
X173506442Y-61329503D01*
X173353776Y-61175626D01*
X173203027Y-61032653D01*
X174407896Y-61032653D01*
X174424556Y-61404624D01*
X174474535Y-61725707D01*
X174557835Y-61995901D01*
X174674455Y-62215206D01*
X174879086Y-62430607D01*
X175137567Y-62559848D01*
X175449899Y-62602928D01*
X175762231Y-62559848D01*
X175802081Y-62539923D01*
X176845699Y-62539923D01*
X178803695Y-62539923D01*
X178815812Y-62418760D01*
X178813388Y-62316983D01*
X178790973Y-62084350D01*
X178723728Y-61871103D01*
X178621951Y-61675424D01*
X178495941Y-61495497D01*
X178352968Y-61329503D01*
X178200303Y-61175626D01*
X178047637Y-61030836D01*
X177904665Y-60892104D01*
X177676878Y-60630392D01*
X177587217Y-60373526D01*
X177698687Y-60090004D01*
X177979786Y-59990650D01*
X178275424Y-60058502D01*
X178580755Y-60286288D01*
X178876393Y-59869487D01*
X178667387Y-59692589D01*
X178428090Y-59569002D01*
X178174253Y-59496305D01*
X177921628Y-59472072D01*
X177567831Y-59525384D01*
X177267346Y-59685319D01*
X177058946Y-59954301D01*
X176981401Y-60329907D01*
X177039560Y-60627968D01*
X177194649Y-60906644D01*
X177412742Y-61168356D01*
X177659915Y-61410683D01*
X177805311Y-61548809D01*
X177960400Y-61713590D01*
X178083986Y-61885642D01*
X178134875Y-62045578D01*
X176845699Y-62045578D01*
X176845699Y-62539923D01*
X175802081Y-62539923D01*
X176020712Y-62430607D01*
X176225343Y-62215206D01*
X176341963Y-61995901D01*
X176425262Y-61725707D01*
X176475242Y-61404624D01*
X176491902Y-61032653D01*
X176474939Y-60664923D01*
X176424051Y-60346870D01*
X176339237Y-60078494D01*
X176220497Y-59859794D01*
X176014250Y-59644393D01*
X175757384Y-59515152D01*
X175449899Y-59472072D01*
X175137567Y-59514883D01*
X174879086Y-59643316D01*
X174674455Y-59857371D01*
X174557835Y-60075313D01*
X174474535Y-60343841D01*
X174424556Y-60662954D01*
X174407896Y-61032653D01*
X173203027Y-61032653D01*
X173201111Y-61030836D01*
X173058138Y-60892104D01*
X172830351Y-60630392D01*
X172740691Y-60373526D01*
X172852161Y-60090004D01*
X173133259Y-59990650D01*
X173428897Y-60058502D01*
X173734229Y-60286288D01*
X174029867Y-59869487D01*
X173820860Y-59692589D01*
X173581563Y-59569002D01*
X173327726Y-59496305D01*
X173075101Y-59472072D01*
X172721304Y-59525384D01*
X172420820Y-59685319D01*
X172212419Y-59954301D01*
X172134875Y-60329907D01*
X172193033Y-60627968D01*
X172348122Y-60906644D01*
X172566216Y-61168356D01*
X172813388Y-61410683D01*
X172958784Y-61548809D01*
X173113873Y-61713590D01*
X173237460Y-61885642D01*
X173288348Y-62045578D01*
X171999172Y-62045578D01*
X171999172Y-62539923D01*
X171354010Y-62539923D01*
X171507250Y-62501151D01*
X171645376Y-62447839D01*
X171524212Y-61953494D01*
X171252807Y-62050424D01*
X171067427Y-62083138D01*
X170840852Y-62094043D01*
X170552484Y-62055271D01*
X170373162Y-61955917D01*
X170283502Y-61817791D01*
X170259269Y-61657855D01*
X170300464Y-61427645D01*
X170465246Y-61248324D01*
X170816619Y-61132007D01*
X171079544Y-61101111D01*
X171412742Y-61090812D01*
X171369124Y-60687944D01*
X171335198Y-60293558D01*
X171309754Y-59910077D01*
X171291579Y-59539923D01*
X169760077Y-59539923D01*
X169760077Y-60034269D01*
X170792387Y-60034269D01*
X170816619Y-60358986D01*
X170840852Y-60635238D01*
X170474132Y-60684781D01*
X170175262Y-60781711D01*
X169944245Y-60926030D01*
X169780001Y-61116660D01*
X169681455Y-61352524D01*
X169648607Y-61633623D01*
X167353970Y-61633623D01*
X167320620Y-61500485D01*
X167286448Y-61270113D01*
X167275020Y-61037500D01*
X167286448Y-60804887D01*
X167320620Y-60574515D01*
X167377209Y-60348601D01*
X167455668Y-60129322D01*
X167555243Y-59918790D01*
X167674974Y-59719030D01*
X167813708Y-59531969D01*
X167970109Y-59359407D01*
X168142672Y-59203005D01*
X168329733Y-59064271D01*
X168529492Y-58944540D01*
X168740025Y-58844965D01*
X168959304Y-58766506D01*
X169185218Y-58709918D01*
X169415590Y-58675745D01*
X169648203Y-58664317D01*
X178876797Y-58664317D01*
X179109410Y-58675745D01*
X179339782Y-58709917D01*
X179565696Y-58766506D01*
X179784975Y-58844965D01*
X179995508Y-58944540D01*
X180195267Y-59064271D01*
X180382328Y-59203005D01*
X180554891Y-59359407D01*
X180711292Y-59531969D01*
X180850026Y-59719030D01*
X180969757Y-59918789D01*
X181069332Y-60129322D01*
X181147791Y-60348601D01*
X181204380Y-60574515D01*
X181238552Y-60804887D01*
X181249980Y-61037500D01*
X181238552Y-61270113D01*
X181204380Y-61500485D01*
X181147791Y-61726399D01*
X181069332Y-61945678D01*
X180969757Y-62156211D01*
X180850026Y-62355970D01*
X180711292Y-62543031D01*
X180554891Y-62715593D01*
X180382328Y-62871995D01*
X180195267Y-63010729D01*
X179995508Y-63130460D01*
X179784975Y-63230035D01*
X179565696Y-63308494D01*
X179339782Y-63365083D01*
X179109410Y-63399255D01*
X178876797Y-63410683D01*
X169648203Y-63410683D01*
X169415590Y-63399255D01*
G37*
%LPC*%
D11*
X132302500Y-87667500D03*
X132302500Y-77507500D03*
X132302500Y-72427500D03*
X127222500Y-85127500D03*
X148182500Y-94412500D03*
X148182500Y-104572500D03*
X148182500Y-109652500D03*
X153262500Y-96952500D03*
G36*
G01*
X131982500Y-120310001D02*
X131982500Y-117209999D01*
G75*
G02*
X132232499Y-116960000I249999J0D01*
G01*
X133812501Y-116960000D01*
G75*
G02*
X134062500Y-117209999I0J-249999D01*
G01*
X134062500Y-120310001D01*
G75*
G02*
X133812501Y-120560000I-249999J0D01*
G01*
X132232499Y-120560000D01*
G75*
G02*
X131982500Y-120310001I0J249999D01*
G01*
G37*
D12*
X138102500Y-118760000D03*
X143182500Y-118760000D03*
X148262500Y-118760000D03*
X153342500Y-118760000D03*
X158422500Y-118760000D03*
X163502500Y-118760000D03*
G36*
G01*
X203932500Y-61765001D02*
X203932500Y-64864999D01*
G75*
G02*
X203682499Y-65115000I-250001J0D01*
G01*
X202082501Y-65115000D01*
G75*
G02*
X201832500Y-64864999I0J250001D01*
G01*
X201832500Y-61765001D01*
G75*
G02*
X202082501Y-61515000I250001J0D01*
G01*
X203682499Y-61515000D01*
G75*
G02*
X203932500Y-61765001I0J-250001D01*
G01*
G37*
D13*
X195262500Y-63315000D03*
X187642500Y-63315000D03*
D11*
X141182500Y-94412500D03*
X141182500Y-104572500D03*
X141182500Y-109652500D03*
X146262500Y-96952500D03*
D14*
X127262500Y-122037500D03*
D11*
X176182500Y-94412500D03*
X176182500Y-104572500D03*
X176182500Y-109652500D03*
X181262500Y-96952500D03*
X153302500Y-87667500D03*
X153302500Y-77507500D03*
X153302500Y-72427500D03*
X148222500Y-85127500D03*
X127182500Y-94412500D03*
X127182500Y-104572500D03*
X127182500Y-109652500D03*
X132262500Y-96952500D03*
X155182500Y-94412500D03*
X155182500Y-104572500D03*
X155182500Y-109652500D03*
X160262500Y-96952500D03*
G36*
G01*
X163542500Y-61764999D02*
X163542500Y-64865001D01*
G75*
G02*
X163292501Y-65115000I-249999J0D01*
G01*
X161712499Y-65115000D01*
G75*
G02*
X161462500Y-64865001I0J249999D01*
G01*
X161462500Y-61764999D01*
G75*
G02*
X161712499Y-61515000I249999J0D01*
G01*
X163292501Y-61515000D01*
G75*
G02*
X163542500Y-61764999I0J-249999D01*
G01*
G37*
D12*
X157422500Y-63315000D03*
X152342500Y-63315000D03*
X147262500Y-63315000D03*
X142182500Y-63315000D03*
X137102500Y-63315000D03*
X132022500Y-63315000D03*
D11*
X169182500Y-94412500D03*
X169182500Y-104572500D03*
X169182500Y-109652500D03*
X174262500Y-96952500D03*
D14*
X127262500Y-50037500D03*
D15*
X200262500Y-73537500D03*
D14*
X209262500Y-50037500D03*
D11*
X146302500Y-87667500D03*
X146302500Y-77507500D03*
X146302500Y-72427500D03*
X141222500Y-85127500D03*
G36*
G01*
X170982500Y-120310001D02*
X170982500Y-117209999D01*
G75*
G02*
X171232499Y-116960000I249999J0D01*
G01*
X172812501Y-116960000D01*
G75*
G02*
X173062500Y-117209999I0J-249999D01*
G01*
X173062500Y-120310001D01*
G75*
G02*
X172812501Y-120560000I-249999J0D01*
G01*
X171232499Y-120560000D01*
G75*
G02*
X170982500Y-120310001I0J249999D01*
G01*
G37*
D12*
X177102500Y-118760000D03*
X182182500Y-118760000D03*
X187262500Y-118760000D03*
X192342500Y-118760000D03*
X197422500Y-118760000D03*
X202502500Y-118760000D03*
D11*
X162182500Y-94412500D03*
X162182500Y-104572500D03*
X162182500Y-109652500D03*
X167262500Y-96952500D03*
X183182500Y-94412500D03*
X183182500Y-104572500D03*
X183182500Y-109652500D03*
X188262500Y-96952500D03*
X190182500Y-94412500D03*
X190182500Y-104572500D03*
X190182500Y-109652500D03*
X195262500Y-96952500D03*
X160302500Y-87667500D03*
X160302500Y-77507500D03*
X160302500Y-72427500D03*
X155222500Y-85127500D03*
X139302500Y-87667500D03*
X139302500Y-77507500D03*
X139302500Y-72427500D03*
X134222500Y-85127500D03*
X134182500Y-94412500D03*
X134182500Y-104572500D03*
X134182500Y-109652500D03*
X139262500Y-96952500D03*
M02*
