M48
; FORMAT={-:-/ absolute / metric / decimal}
; #@! TF.GenerationSoftware,Kicad,Pcbnew,6.0.10+dfsg-1~bpo11+1
; #@! TF.FileFunction,Plated,1,2,PTH
FMAT,2
METRIC
; #@! TA.AperFunction,Plated,PTH,ViaDrill
T1C0.300
; #@! TA.AperFunction,Plated,PTH,ComponentDrill
T2C1.100
; #@! TA.AperFunction,Plated,PTH,ComponentDrill
T3C1.400
; #@! TA.AperFunction,Plated,PTH,ComponentDrill
T4C4.200
%
G90
G05
T1
X128.862Y-83.037
X129.662Y-83.037
X130.463Y-83.037
X163.662Y-84.037
X164.262Y-84.037
X164.862Y-84.037
X166.262Y-80.537
X166.262Y-81.537
X166.262Y-82.537
X166.762Y-81.037
X166.762Y-82.037
X167.262Y-80.537
X167.262Y-81.537
X167.762Y-81.037
X168.262Y-79.537
X168.262Y-80.537
X169.262Y-79.037
X169.262Y-80.037
X170.262Y-78.037
X170.262Y-79.037
X170.262Y-80.037
X170.262Y-89.537
X170.762Y-89.037
X171.262Y-77.037
X171.262Y-78.037
X171.262Y-79.037
X171.262Y-88.537
X171.262Y-89.537
X171.262Y-94.037
X171.262Y-95.037
X171.762Y-80.037
X171.762Y-88.037
X171.762Y-89.037
X171.762Y-90.037
X172.262Y-76.037
X172.262Y-77.037
X172.262Y-78.037
X172.262Y-88.537
X172.262Y-89.537
X172.262Y-93.037
X172.262Y-94.037
X172.262Y-95.037
X172.762Y-80.037
X172.762Y-89.037
X172.762Y-90.037
X173.262Y-74.037
X173.262Y-75.037
X173.262Y-76.037
X173.262Y-77.037
X173.262Y-88.537
X173.262Y-89.537
X173.762Y-80.037
X173.77Y-83.191
X174.13Y-82.591
X174.762Y-77.037
X174.776Y-82.324
X175.463Y-88.438
X175.762Y-76.337
X175.762Y-80.037
X175.912Y-88.888
X175.976Y-82.837
X176.262Y-79.037
X176.412Y-89.388
X176.463Y-83.538
X176.762Y-76.337
X176.762Y-80.037
X176.762Y-82.037
X176.912Y-89.888
X177.262Y-79.037
X177.262Y-81.037
X177.262Y-83.037
X177.762Y-76.037
X177.762Y-78.037
X177.762Y-80.037
X177.762Y-82.037
X178.158Y-87.694
X178.262Y-75.037
X178.262Y-79.037
X178.262Y-81.037
X178.262Y-83.037
X178.423Y-87.046
X178.762Y-76.037
X178.762Y-78.037
X178.762Y-80.037
X178.762Y-82.037
X178.853Y-87.616
X179.171Y-86.947
X179.262Y-75.037
X179.262Y-79.037
X179.262Y-81.037
X179.262Y-83.037
X179.667Y-87.441
X179.762Y-76.037
X179.762Y-78.037
X179.762Y-80.037
X179.762Y-82.037
X179.762Y-90.037
X179.762Y-91.037
X179.762Y-92.037
X179.762Y-93.037
X179.845Y-86.758
X180.262Y-75.037
X180.262Y-79.037
X180.262Y-81.037
X180.262Y-83.037
X180.395Y-86.326
X180.447Y-87.113
X180.612Y-85.661
X180.762Y-76.037
X180.762Y-80.037
X180.762Y-82.037
X180.762Y-90.037
X180.762Y-91.037
X180.762Y-92.037
X180.762Y-93.037
X181.262Y-75.037
X181.262Y-79.037
X181.262Y-81.037
X181.262Y-83.037
X181.463Y-84.638
X181.762Y-76.037
X181.762Y-80.037
X181.762Y-91.037
X181.762Y-92.037
X182.262Y-75.037
X182.262Y-77.037
X182.262Y-86.037
X182.762Y-76.037
X182.762Y-78.037
X182.762Y-85.037
X183.262Y-77.037
X183.262Y-79.837
X183.262Y-84.037
X183.262Y-86.037
X183.762Y-78.037
X183.762Y-85.037
X184.262Y-79.037
X184.762Y-80.037
X185.862Y-86.237
X186.262Y-81.537
X186.262Y-82.537
X186.262Y-83.537
X186.262Y-84.537
X187.262Y-81.537
X187.262Y-82.537
X187.262Y-83.537
X187.262Y-84.537
X187.262Y-85.537
X188.262Y-82.537
X188.262Y-83.537
X188.262Y-84.537
X188.262Y-85.537
X189.262Y-83.537
X189.262Y-84.537
X189.262Y-85.537
X191.262Y-86.037
X191.262Y-88.037
X191.262Y-90.037
X191.262Y-92.037
T2
X127.182Y-94.412
X127.182Y-104.572
X127.182Y-109.652
X127.222Y-85.127
X132.262Y-96.953
X132.302Y-72.427
X132.302Y-77.507
X132.302Y-87.667
X134.183Y-94.412
X134.183Y-104.572
X134.183Y-109.652
X134.222Y-85.127
X139.262Y-96.953
X139.302Y-72.427
X139.302Y-77.507
X139.302Y-87.667
X141.183Y-94.412
X141.183Y-104.572
X141.183Y-109.652
X141.222Y-85.127
X146.262Y-96.953
X146.302Y-72.427
X146.302Y-77.507
X146.302Y-87.667
X148.183Y-94.412
X148.183Y-104.572
X148.183Y-109.652
X148.222Y-85.127
X153.262Y-96.953
X153.302Y-72.427
X153.302Y-77.507
X153.302Y-87.667
X155.183Y-94.412
X155.183Y-104.572
X155.183Y-109.652
X155.222Y-85.127
X160.262Y-96.953
X160.302Y-72.427
X160.302Y-77.507
X160.302Y-87.667
X162.183Y-94.412
X162.183Y-104.572
X162.183Y-109.652
X167.262Y-96.953
X169.183Y-94.412
X169.183Y-104.572
X169.183Y-109.652
X174.262Y-96.953
X176.183Y-94.412
X176.183Y-104.572
X176.183Y-109.652
X181.262Y-96.953
X183.183Y-94.412
X183.183Y-104.572
X183.183Y-109.652
X188.262Y-96.953
X190.183Y-94.412
X190.183Y-104.572
X190.183Y-109.652
X195.262Y-96.953
T3
X132.023Y-63.315
X133.023Y-118.76
X137.102Y-63.315
X138.102Y-118.76
X142.183Y-63.315
X143.183Y-118.76
X147.262Y-63.315
X148.262Y-118.76
X152.343Y-63.315
X153.343Y-118.76
X157.422Y-63.315
X158.422Y-118.76
X162.502Y-63.315
X163.502Y-118.76
X172.022Y-118.76
X177.102Y-118.76
X182.183Y-118.76
X187.262Y-118.76
X187.642Y-63.315
X192.343Y-118.76
X195.262Y-63.315
X197.422Y-118.76
X202.502Y-118.76
X202.882Y-63.315
T4
X200.262Y-73.537
T0
M30
