G04 #@! TF.GenerationSoftware,KiCad,Pcbnew,6.0.10+dfsg-1~bpo11+1*
G04 #@! TF.ProjectId,project,70726f6a-6563-4742-9e6b-696361645f70,rev?*
G04 #@! TF.SameCoordinates,Original*
G04 #@! TF.FileFunction,Soldermask,Top*
G04 #@! TF.FilePolarity,Negative*
%FSLAX46Y46*%
G04 Gerber Fmt 4.6, Leading zero omitted, Abs format (unit mm)*
%MOMM*%
%LPD*%
G01*
G04 APERTURE LIST*
G04 #@! TA.AperFunction,Profile*
%ADD10C,0.100000*%
G04 #@! TD*
%ADD11R,1.000000X1.000000*%
%ADD12C,2.400000*%
%ADD13O,2.080000X3.600000*%
%ADD14O,2.100000X3.600000*%
%ADD15C,1.552000*%
%ADD16R,0.300000X1.300000*%
%ADD17R,2.000000X3.000000*%
%ADD18C,7.000000*%
%ADD19C,5.000000*%
G04 APERTURE END LIST*
D10*
X125512500Y-133037500D02*
G75*
G03*
X126512500Y-134037500I1000000J0D01*
G01*
X211012500Y-49037500D02*
X211012500Y-133037500D01*
X210012500Y-134037500D02*
X126512500Y-134037500D01*
X126512500Y-48037500D02*
X210012500Y-48037500D01*
X210012500Y-134037500D02*
G75*
G03*
X211012500Y-133037500I0J1000000D01*
G01*
X211012500Y-49037500D02*
G75*
G03*
X210012500Y-48037500I-1000000J0D01*
G01*
X126512500Y-48037500D02*
G75*
G03*
X125512500Y-49037500I0J-1000000D01*
G01*
X125512500Y-133037500D02*
X125512500Y-49037500D01*
D11*
X139012500Y-91037500D03*
X141512500Y-91037500D03*
D12*
X132302500Y-87667500D03*
X132302500Y-77507500D03*
X132302500Y-72427500D03*
X127222500Y-85127500D03*
X148182500Y-94412500D03*
X148182500Y-104572500D03*
X148182500Y-109652500D03*
X153262500Y-96952500D03*
D11*
X147012500Y-91037500D03*
X149512500Y-91037500D03*
X153512500Y-91037500D03*
X151012500Y-91037500D03*
G36*
G01*
X192662500Y-88587500D02*
X192662500Y-89487500D01*
G75*
G02*
X192412500Y-89737500I-250000J0D01*
G01*
X191762500Y-89737500D01*
G75*
G02*
X191512500Y-89487500I0J250000D01*
G01*
X191512500Y-88587500D01*
G75*
G02*
X191762500Y-88337500I250000J0D01*
G01*
X192412500Y-88337500D01*
G75*
G02*
X192662500Y-88587500I0J-250000D01*
G01*
G37*
G36*
G01*
X190612500Y-88587500D02*
X190612500Y-89487500D01*
G75*
G02*
X190362500Y-89737500I-250000J0D01*
G01*
X189712500Y-89737500D01*
G75*
G02*
X189462500Y-89487500I0J250000D01*
G01*
X189462500Y-88587500D01*
G75*
G02*
X189712500Y-88337500I250000J0D01*
G01*
X190362500Y-88337500D01*
G75*
G02*
X190612500Y-88587500I0J-250000D01*
G01*
G37*
X161512500Y-91037500D03*
X159012500Y-91037500D03*
G36*
G01*
X131982500Y-120310001D02*
X131982500Y-117209999D01*
G75*
G02*
X132232499Y-116960000I249999J0D01*
G01*
X133812501Y-116960000D01*
G75*
G02*
X134062500Y-117209999I0J-249999D01*
G01*
X134062500Y-120310001D01*
G75*
G02*
X133812501Y-120560000I-249999J0D01*
G01*
X132232499Y-120560000D01*
G75*
G02*
X131982500Y-120310001I0J249999D01*
G01*
G37*
D13*
X138102500Y-118760000D03*
X143182500Y-118760000D03*
X148262500Y-118760000D03*
X153342500Y-118760000D03*
X158422500Y-118760000D03*
X163502500Y-118760000D03*
G36*
G01*
X179612500Y-67700000D02*
X179912500Y-67700000D01*
G75*
G02*
X180062500Y-67850000I0J-150000D01*
G01*
X180062500Y-68875000D01*
G75*
G02*
X179912500Y-69025000I-150000J0D01*
G01*
X179612500Y-69025000D01*
G75*
G02*
X179462500Y-68875000I0J150000D01*
G01*
X179462500Y-67850000D01*
G75*
G02*
X179612500Y-67700000I150000J0D01*
G01*
G37*
G36*
G01*
X178662500Y-67700000D02*
X178962500Y-67700000D01*
G75*
G02*
X179112500Y-67850000I0J-150000D01*
G01*
X179112500Y-68875000D01*
G75*
G02*
X178962500Y-69025000I-150000J0D01*
G01*
X178662500Y-69025000D01*
G75*
G02*
X178512500Y-68875000I0J150000D01*
G01*
X178512500Y-67850000D01*
G75*
G02*
X178662500Y-67700000I150000J0D01*
G01*
G37*
G36*
G01*
X177712500Y-67700000D02*
X178012500Y-67700000D01*
G75*
G02*
X178162500Y-67850000I0J-150000D01*
G01*
X178162500Y-68875000D01*
G75*
G02*
X178012500Y-69025000I-150000J0D01*
G01*
X177712500Y-69025000D01*
G75*
G02*
X177562500Y-68875000I0J150000D01*
G01*
X177562500Y-67850000D01*
G75*
G02*
X177712500Y-67700000I150000J0D01*
G01*
G37*
G36*
G01*
X177712500Y-69975000D02*
X178012500Y-69975000D01*
G75*
G02*
X178162500Y-70125000I0J-150000D01*
G01*
X178162500Y-71150000D01*
G75*
G02*
X178012500Y-71300000I-150000J0D01*
G01*
X177712500Y-71300000D01*
G75*
G02*
X177562500Y-71150000I0J150000D01*
G01*
X177562500Y-70125000D01*
G75*
G02*
X177712500Y-69975000I150000J0D01*
G01*
G37*
G36*
G01*
X178662500Y-69975000D02*
X178962500Y-69975000D01*
G75*
G02*
X179112500Y-70125000I0J-150000D01*
G01*
X179112500Y-71150000D01*
G75*
G02*
X178962500Y-71300000I-150000J0D01*
G01*
X178662500Y-71300000D01*
G75*
G02*
X178512500Y-71150000I0J150000D01*
G01*
X178512500Y-70125000D01*
G75*
G02*
X178662500Y-69975000I150000J0D01*
G01*
G37*
G36*
G01*
X179612500Y-69975000D02*
X179912500Y-69975000D01*
G75*
G02*
X180062500Y-70125000I0J-150000D01*
G01*
X180062500Y-71150000D01*
G75*
G02*
X179912500Y-71300000I-150000J0D01*
G01*
X179612500Y-71300000D01*
G75*
G02*
X179462500Y-71150000I0J150000D01*
G01*
X179462500Y-70125000D01*
G75*
G02*
X179612500Y-69975000I150000J0D01*
G01*
G37*
G36*
G01*
X203932500Y-61765001D02*
X203932500Y-64864999D01*
G75*
G02*
X203682499Y-65115000I-250001J0D01*
G01*
X202082501Y-65115000D01*
G75*
G02*
X201832500Y-64864999I0J250001D01*
G01*
X201832500Y-61765001D01*
G75*
G02*
X202082501Y-61515000I250001J0D01*
G01*
X203682499Y-61515000D01*
G75*
G02*
X203932500Y-61765001I0J-250001D01*
G01*
G37*
D14*
X195262500Y-63315000D03*
X187642500Y-63315000D03*
D12*
X141182500Y-94412500D03*
X141182500Y-104572500D03*
X141182500Y-109652500D03*
X146262500Y-96952500D03*
D15*
X127262500Y-122037500D03*
D12*
X176182500Y-94412500D03*
X176182500Y-104572500D03*
X176182500Y-109652500D03*
X181262500Y-96952500D03*
D11*
X163012500Y-91037500D03*
X165512500Y-91037500D03*
D12*
X153302500Y-87667500D03*
X153302500Y-77507500D03*
X153302500Y-72427500D03*
X148222500Y-85127500D03*
G36*
G01*
X185662500Y-87487500D02*
X185662500Y-86587500D01*
G75*
G02*
X185912500Y-86337500I250000J0D01*
G01*
X186612500Y-86337500D01*
G75*
G02*
X186862500Y-86587500I0J-250000D01*
G01*
X186862500Y-87487500D01*
G75*
G02*
X186612500Y-87737500I-250000J0D01*
G01*
X185912500Y-87737500D01*
G75*
G02*
X185662500Y-87487500I0J250000D01*
G01*
G37*
G36*
G01*
X187662500Y-87487500D02*
X187662500Y-86587500D01*
G75*
G02*
X187912500Y-86337500I250000J0D01*
G01*
X188612500Y-86337500D01*
G75*
G02*
X188862500Y-86587500I0J-250000D01*
G01*
X188862500Y-87487500D01*
G75*
G02*
X188612500Y-87737500I-250000J0D01*
G01*
X187912500Y-87737500D01*
G75*
G02*
X187662500Y-87487500I0J250000D01*
G01*
G37*
X127182500Y-94412500D03*
X127182500Y-104572500D03*
X127182500Y-109652500D03*
X132262500Y-96952500D03*
G36*
G01*
X161637500Y-85512500D02*
X161637500Y-84562500D01*
G75*
G02*
X161887500Y-84312500I250000J0D01*
G01*
X162562500Y-84312500D01*
G75*
G02*
X162812500Y-84562500I0J-250000D01*
G01*
X162812500Y-85512500D01*
G75*
G02*
X162562500Y-85762500I-250000J0D01*
G01*
X161887500Y-85762500D01*
G75*
G02*
X161637500Y-85512500I0J250000D01*
G01*
G37*
G36*
G01*
X163712500Y-85512500D02*
X163712500Y-84562500D01*
G75*
G02*
X163962500Y-84312500I250000J0D01*
G01*
X164637500Y-84312500D01*
G75*
G02*
X164887500Y-84562500I0J-250000D01*
G01*
X164887500Y-85512500D01*
G75*
G02*
X164637500Y-85762500I-250000J0D01*
G01*
X163962500Y-85762500D01*
G75*
G02*
X163712500Y-85512500I0J250000D01*
G01*
G37*
X155182500Y-94412500D03*
X155182500Y-104572500D03*
X155182500Y-109652500D03*
X160262500Y-96952500D03*
G36*
G01*
X163542500Y-61764999D02*
X163542500Y-64865001D01*
G75*
G02*
X163292501Y-65115000I-249999J0D01*
G01*
X161712499Y-65115000D01*
G75*
G02*
X161462500Y-64865001I0J249999D01*
G01*
X161462500Y-61764999D01*
G75*
G02*
X161712499Y-61515000I249999J0D01*
G01*
X163292501Y-61515000D01*
G75*
G02*
X163542500Y-61764999I0J-249999D01*
G01*
G37*
D13*
X157422500Y-63315000D03*
X152342500Y-63315000D03*
X147262500Y-63315000D03*
X142182500Y-63315000D03*
X137102500Y-63315000D03*
X132022500Y-63315000D03*
D12*
X169182500Y-94412500D03*
X169182500Y-104572500D03*
X169182500Y-109652500D03*
X174262500Y-96952500D03*
D15*
X127262500Y-50037500D03*
D16*
X181012500Y-84637500D03*
X180512500Y-84637500D03*
X180012500Y-84637500D03*
X179512500Y-84637500D03*
X179012500Y-84637500D03*
X178512500Y-84637500D03*
X178012500Y-84637500D03*
X177512500Y-84637500D03*
X177012500Y-84637500D03*
X176512500Y-84637500D03*
X176012500Y-84637500D03*
X175512500Y-84637500D03*
X175012500Y-84637500D03*
X174512500Y-84637500D03*
X174012500Y-84637500D03*
X173512500Y-84637500D03*
X173012500Y-84637500D03*
X172512500Y-84637500D03*
X172012500Y-84637500D03*
X171512500Y-84637500D03*
X171012500Y-84637500D03*
X170512500Y-84637500D03*
X170012500Y-84637500D03*
X169512500Y-84637500D03*
D17*
X182662500Y-82287500D03*
X167862500Y-82287500D03*
D11*
X145512500Y-91037500D03*
X143012500Y-91037500D03*
D18*
X200262500Y-73537500D03*
D19*
X200262500Y-73537500D03*
D15*
X209262500Y-50037500D03*
G36*
G01*
X185662500Y-89487500D02*
X185662500Y-88587500D01*
G75*
G02*
X185912500Y-88337500I250000J0D01*
G01*
X186612500Y-88337500D01*
G75*
G02*
X186862500Y-88587500I0J-250000D01*
G01*
X186862500Y-89487500D01*
G75*
G02*
X186612500Y-89737500I-250000J0D01*
G01*
X185912500Y-89737500D01*
G75*
G02*
X185662500Y-89487500I0J250000D01*
G01*
G37*
G36*
G01*
X187662500Y-89487500D02*
X187662500Y-88587500D01*
G75*
G02*
X187912500Y-88337500I250000J0D01*
G01*
X188612500Y-88337500D01*
G75*
G02*
X188862500Y-88587500I0J-250000D01*
G01*
X188862500Y-89487500D01*
G75*
G02*
X188612500Y-89737500I-250000J0D01*
G01*
X187912500Y-89737500D01*
G75*
G02*
X187662500Y-89487500I0J250000D01*
G01*
G37*
D11*
X131012500Y-91037500D03*
X133512500Y-91037500D03*
X129512500Y-91037500D03*
X127012500Y-91037500D03*
D12*
X146302500Y-87667500D03*
X146302500Y-77507500D03*
X146302500Y-72427500D03*
X141222500Y-85127500D03*
D11*
X178512500Y-91037500D03*
X176012500Y-91037500D03*
G36*
G01*
X170982500Y-120310001D02*
X170982500Y-117209999D01*
G75*
G02*
X171232499Y-116960000I249999J0D01*
G01*
X172812501Y-116960000D01*
G75*
G02*
X173062500Y-117209999I0J-249999D01*
G01*
X173062500Y-120310001D01*
G75*
G02*
X172812501Y-120560000I-249999J0D01*
G01*
X171232499Y-120560000D01*
G75*
G02*
X170982500Y-120310001I0J249999D01*
G01*
G37*
D13*
X177102500Y-118760000D03*
X182182500Y-118760000D03*
X187262500Y-118760000D03*
X192342500Y-118760000D03*
X197422500Y-118760000D03*
X202502500Y-118760000D03*
D12*
X162182500Y-94412500D03*
X162182500Y-104572500D03*
X162182500Y-109652500D03*
X167262500Y-96952500D03*
D11*
X185512500Y-91037500D03*
X183012500Y-91037500D03*
D12*
X183182500Y-94412500D03*
X183182500Y-104572500D03*
X183182500Y-109652500D03*
X188262500Y-96952500D03*
G36*
G01*
X192662500Y-86587500D02*
X192662500Y-87487500D01*
G75*
G02*
X192412500Y-87737500I-250000J0D01*
G01*
X191762500Y-87737500D01*
G75*
G02*
X191512500Y-87487500I0J250000D01*
G01*
X191512500Y-86587500D01*
G75*
G02*
X191762500Y-86337500I250000J0D01*
G01*
X192412500Y-86337500D01*
G75*
G02*
X192662500Y-86587500I0J-250000D01*
G01*
G37*
G36*
G01*
X190612500Y-86587500D02*
X190612500Y-87487500D01*
G75*
G02*
X190362500Y-87737500I-250000J0D01*
G01*
X189712500Y-87737500D01*
G75*
G02*
X189462500Y-87487500I0J250000D01*
G01*
X189462500Y-86587500D01*
G75*
G02*
X189712500Y-86337500I250000J0D01*
G01*
X190362500Y-86337500D01*
G75*
G02*
X190612500Y-86587500I0J-250000D01*
G01*
G37*
D11*
X173512500Y-91037500D03*
X171012500Y-91037500D03*
G36*
G01*
X176287500Y-71125000D02*
X175337500Y-71125000D01*
G75*
G02*
X175087500Y-70875000I0J250000D01*
G01*
X175087500Y-70200000D01*
G75*
G02*
X175337500Y-69950000I250000J0D01*
G01*
X176287500Y-69950000D01*
G75*
G02*
X176537500Y-70200000I0J-250000D01*
G01*
X176537500Y-70875000D01*
G75*
G02*
X176287500Y-71125000I-250000J0D01*
G01*
G37*
G36*
G01*
X176287500Y-69050000D02*
X175337500Y-69050000D01*
G75*
G02*
X175087500Y-68800000I0J250000D01*
G01*
X175087500Y-68125000D01*
G75*
G02*
X175337500Y-67875000I250000J0D01*
G01*
X176287500Y-67875000D01*
G75*
G02*
X176537500Y-68125000I0J-250000D01*
G01*
X176537500Y-68800000D01*
G75*
G02*
X176287500Y-69050000I-250000J0D01*
G01*
G37*
X155012500Y-91037500D03*
X157512500Y-91037500D03*
X169512500Y-91037500D03*
X167012500Y-91037500D03*
X192512500Y-91037500D03*
X190012500Y-91037500D03*
D12*
X190182500Y-94412500D03*
X190182500Y-104572500D03*
X190182500Y-109652500D03*
X195262500Y-96952500D03*
G36*
G01*
X173687500Y-86562500D02*
X173687500Y-87512500D01*
G75*
G02*
X173437500Y-87762500I-250000J0D01*
G01*
X172762500Y-87762500D01*
G75*
G02*
X172512500Y-87512500I0J250000D01*
G01*
X172512500Y-86562500D01*
G75*
G02*
X172762500Y-86312500I250000J0D01*
G01*
X173437500Y-86312500D01*
G75*
G02*
X173687500Y-86562500I0J-250000D01*
G01*
G37*
G36*
G01*
X171612500Y-86562500D02*
X171612500Y-87512500D01*
G75*
G02*
X171362500Y-87762500I-250000J0D01*
G01*
X170687500Y-87762500D01*
G75*
G02*
X170437500Y-87512500I0J250000D01*
G01*
X170437500Y-86562500D01*
G75*
G02*
X170687500Y-86312500I250000J0D01*
G01*
X171362500Y-86312500D01*
G75*
G02*
X171612500Y-86562500I0J-250000D01*
G01*
G37*
X160302500Y-87667500D03*
X160302500Y-77507500D03*
X160302500Y-72427500D03*
X155222500Y-85127500D03*
X139302500Y-87667500D03*
X139302500Y-77507500D03*
X139302500Y-72427500D03*
X134222500Y-85127500D03*
X134182500Y-94412500D03*
X134182500Y-104572500D03*
X134182500Y-109652500D03*
X139262500Y-96952500D03*
D11*
X137512500Y-91037500D03*
X135012500Y-91037500D03*
M02*
