%TF.GenerationSoftware,KiCad,Pcbnew,6.0.10+dfsg-1~bpo11+1*%
%TF.ProjectId,project,70726f6a-6563-4742-9e6b-696361645f70,rev?*%
%TF.SameCoordinates,Original*%
%TF.FileFunction,Drillmap*%
%TF.FilePolarity,Positive*%
%FSLAX45Y45*%
G04 Gerber Fmt 4.5, Leading zero omitted, Abs format (unit mm)*
%MOMM*%
%LPD*%
G01*
G04 APERTURE LIST*
%ADD10C,0.100000*%
%ADD11C,0.200000*%
%ADD12C,0.030000*%
%ADD13C,0.110000*%
%ADD14C,0.140000*%
%ADD15C,0.420000*%
G04 APERTURE END LIST*
D10*
X12551250Y-13303750D02*
G75*
G03*
X12651250Y-13403750I100000J0D01*
G01*
X21101250Y-4903750D02*
X21101250Y-13303750D01*
X21001250Y-13403750D02*
X12651250Y-13403750D01*
X12651250Y-4803750D02*
X21001250Y-4803750D01*
X21001250Y-13403750D02*
G75*
G03*
X21101250Y-13303750I0J100000D01*
G01*
X21101250Y-4903750D02*
G75*
G03*
X21001250Y-4803750I-100000J0D01*
G01*
X12651250Y-4803750D02*
G75*
G03*
X12551250Y-4903750I0J-100000D01*
G01*
X12551250Y-13303750D02*
X12551250Y-4903750D01*
D11*
D12*
X12871250Y-8288750D02*
X12901250Y-8318750D01*
X12901250Y-8288750D02*
X12871250Y-8318750D01*
X12951250Y-8288750D02*
X12981250Y-8318750D01*
X12981250Y-8288750D02*
X12951250Y-8318750D01*
X13031250Y-8288750D02*
X13061250Y-8318750D01*
X13061250Y-8288750D02*
X13031250Y-8318750D01*
X16351250Y-8388750D02*
X16381250Y-8418750D01*
X16381250Y-8388750D02*
X16351250Y-8418750D01*
X16411250Y-8388750D02*
X16441250Y-8418750D01*
X16441250Y-8388750D02*
X16411250Y-8418750D01*
X16471250Y-8388750D02*
X16501250Y-8418750D01*
X16501250Y-8388750D02*
X16471250Y-8418750D01*
X16871250Y-8568750D02*
X16901250Y-8598750D01*
X16901250Y-8568750D02*
X16871250Y-8598750D01*
X16951250Y-8368750D02*
X16981250Y-8398750D01*
X16981250Y-8368750D02*
X16951250Y-8398750D01*
X16978716Y-8660209D02*
X17008716Y-8690209D01*
X17008716Y-8660209D02*
X16978716Y-8690209D01*
X17053269Y-8369851D02*
X17083269Y-8399852D01*
X17083269Y-8369851D02*
X17053269Y-8399852D01*
X17121200Y-8588750D02*
X17151200Y-8618750D01*
X17151200Y-8588750D02*
X17121200Y-8618750D01*
X17153269Y-8369851D02*
X17183269Y-8399852D01*
X17183269Y-8369851D02*
X17153269Y-8399852D01*
X17241200Y-8681703D02*
X17271200Y-8711703D01*
X17271200Y-8681703D02*
X17241200Y-8711703D01*
X17271250Y-8368750D02*
X17301250Y-8398750D01*
X17301250Y-8368750D02*
X17271250Y-8398750D01*
X17348197Y-8588750D02*
X17378197Y-8618750D01*
X17378197Y-8588750D02*
X17348197Y-8618750D01*
X17371250Y-8368750D02*
X17401250Y-8398750D01*
X17401250Y-8368750D02*
X17371250Y-8398750D01*
X17391250Y-8048800D02*
X17421250Y-8078800D01*
X17421250Y-8048800D02*
X17391250Y-8078800D01*
X17488147Y-8665647D02*
X17518147Y-8695647D01*
X17518147Y-8665647D02*
X17488147Y-8695647D01*
X17500827Y-8403539D02*
X17530827Y-8433539D01*
X17530827Y-8403539D02*
X17500827Y-8433539D01*
X17511250Y-8808750D02*
X17541250Y-8838750D01*
X17541250Y-8808750D02*
X17511250Y-8838750D01*
X17511250Y-8928750D02*
X17541250Y-8958750D01*
X17541250Y-8928750D02*
X17511250Y-8958750D01*
X17536701Y-8172934D02*
X17566701Y-8202934D01*
X17566701Y-8172934D02*
X17536701Y-8202934D01*
X17571250Y-8868750D02*
X17601250Y-8898750D01*
X17601250Y-8868750D02*
X17571250Y-8898750D01*
X17606284Y-8584860D02*
X17636284Y-8614860D01*
X17636284Y-8584860D02*
X17606284Y-8614860D01*
X17631250Y-8808750D02*
X17661250Y-8838750D01*
X17661250Y-8808750D02*
X17631250Y-8838750D01*
X17631250Y-8928750D02*
X17661250Y-8958750D01*
X17661250Y-8928750D02*
X17631250Y-8958750D01*
X17831250Y-8188750D02*
X17861250Y-8218750D01*
X17861250Y-8188750D02*
X17831250Y-8218750D01*
X17831250Y-8248750D02*
X17861250Y-8278750D01*
X17861250Y-8248750D02*
X17831250Y-8278750D01*
X17831250Y-8308750D02*
X17861250Y-8338750D01*
X17861250Y-8308750D02*
X17831250Y-8338750D01*
X17911250Y-7388750D02*
X17941250Y-7418750D01*
X17941250Y-7388750D02*
X17911250Y-7418750D01*
X17931250Y-8188750D02*
X17961250Y-8218750D01*
X17961250Y-8188750D02*
X17931250Y-8218750D01*
X17931250Y-8248750D02*
X17961250Y-8278750D01*
X17961250Y-8248750D02*
X17931250Y-8278750D01*
X17931250Y-8308750D02*
X17961250Y-8338750D01*
X17961250Y-8308750D02*
X17931250Y-8338750D01*
X17971673Y-8403539D02*
X18001673Y-8433539D01*
X18001673Y-8403539D02*
X17971673Y-8433539D01*
X17991300Y-7769204D02*
X18021300Y-7799204D01*
X18021300Y-7769204D02*
X17991300Y-7799204D01*
X18051250Y-7688750D02*
X18081250Y-7718750D01*
X18081250Y-7688750D02*
X18051250Y-7718750D01*
X18076300Y-8403700D02*
X18106300Y-8433700D01*
X18106300Y-8403700D02*
X18076300Y-8433700D01*
X18091250Y-8728750D02*
X18121250Y-8758750D01*
X18121250Y-8728750D02*
X18091250Y-8758750D01*
X18091250Y-8928750D02*
X18121250Y-8958750D01*
X18121250Y-8928750D02*
X18091250Y-8958750D01*
X18131250Y-8188750D02*
X18161250Y-8218750D01*
X18161250Y-8188750D02*
X18131250Y-8218750D01*
X18131704Y-7728977D02*
X18161704Y-7758977D01*
X18161704Y-7728977D02*
X18131704Y-7758977D01*
X18191250Y-8728750D02*
X18221250Y-8758750D01*
X18221250Y-8728750D02*
X18191250Y-8758750D01*
X18191250Y-8828750D02*
X18221250Y-8858750D01*
X18221250Y-8828750D02*
X18191250Y-8858750D01*
X18191250Y-8928750D02*
X18221250Y-8958750D01*
X18221250Y-8928750D02*
X18191250Y-8958750D01*
X18211250Y-8248750D02*
X18241250Y-8278750D01*
X18241250Y-8248750D02*
X18211250Y-8278750D01*
X18211250Y-8528750D02*
X18241250Y-8558750D01*
X18241250Y-8528750D02*
X18211250Y-8558750D01*
X18291250Y-8248750D02*
X18321250Y-8278750D01*
X18321250Y-8248750D02*
X18291250Y-8278750D01*
X18291250Y-8528750D02*
X18321250Y-8558750D01*
X18321250Y-8528750D02*
X18291250Y-8558750D01*
X18371250Y-8248750D02*
X18401250Y-8278750D01*
X18401250Y-8248750D02*
X18371250Y-8278750D01*
X18371250Y-8528750D02*
X18401250Y-8558750D01*
X18401250Y-8528750D02*
X18371250Y-8558750D01*
X18571250Y-8608750D02*
X18601250Y-8638750D01*
X18601250Y-8608750D02*
X18571250Y-8638750D01*
X19271250Y-9328750D02*
X19301250Y-9358750D01*
X19301250Y-9328750D02*
X19271250Y-9358750D01*
X19271250Y-9408750D02*
X19301250Y-9438750D01*
X19301250Y-9408750D02*
X19271250Y-9438750D01*
X19271250Y-9488750D02*
X19301250Y-9518750D01*
X19301250Y-9488750D02*
X19271250Y-9518750D01*
D13*
X12773250Y-9441250D02*
G75*
G03*
X12773250Y-9441250I-55000J0D01*
G01*
X12773250Y-10457250D02*
G75*
G03*
X12773250Y-10457250I-55000J0D01*
G01*
X12773250Y-10965250D02*
G75*
G03*
X12773250Y-10965250I-55000J0D01*
G01*
X12777250Y-8512750D02*
G75*
G03*
X12777250Y-8512750I-55000J0D01*
G01*
X13281250Y-9695250D02*
G75*
G03*
X13281250Y-9695250I-55000J0D01*
G01*
X13285250Y-7242750D02*
G75*
G03*
X13285250Y-7242750I-55000J0D01*
G01*
X13285250Y-7750750D02*
G75*
G03*
X13285250Y-7750750I-55000J0D01*
G01*
X13285250Y-8766750D02*
G75*
G03*
X13285250Y-8766750I-55000J0D01*
G01*
X13473250Y-9441250D02*
G75*
G03*
X13473250Y-9441250I-55000J0D01*
G01*
X13473250Y-10457250D02*
G75*
G03*
X13473250Y-10457250I-55000J0D01*
G01*
X13473250Y-10965250D02*
G75*
G03*
X13473250Y-10965250I-55000J0D01*
G01*
X13477250Y-8512750D02*
G75*
G03*
X13477250Y-8512750I-55000J0D01*
G01*
X13981250Y-9695250D02*
G75*
G03*
X13981250Y-9695250I-55000J0D01*
G01*
X13985250Y-7242750D02*
G75*
G03*
X13985250Y-7242750I-55000J0D01*
G01*
X13985250Y-7750750D02*
G75*
G03*
X13985250Y-7750750I-55000J0D01*
G01*
X13985250Y-8766750D02*
G75*
G03*
X13985250Y-8766750I-55000J0D01*
G01*
X14173250Y-9441250D02*
G75*
G03*
X14173250Y-9441250I-55000J0D01*
G01*
X14173250Y-10457250D02*
G75*
G03*
X14173250Y-10457250I-55000J0D01*
G01*
X14173250Y-10965250D02*
G75*
G03*
X14173250Y-10965250I-55000J0D01*
G01*
X14177250Y-8512750D02*
G75*
G03*
X14177250Y-8512750I-55000J0D01*
G01*
X14681250Y-9695250D02*
G75*
G03*
X14681250Y-9695250I-55000J0D01*
G01*
X14685250Y-7242750D02*
G75*
G03*
X14685250Y-7242750I-55000J0D01*
G01*
X14685250Y-7750750D02*
G75*
G03*
X14685250Y-7750750I-55000J0D01*
G01*
X14685250Y-8766750D02*
G75*
G03*
X14685250Y-8766750I-55000J0D01*
G01*
X14873250Y-9441250D02*
G75*
G03*
X14873250Y-9441250I-55000J0D01*
G01*
X14873250Y-10457250D02*
G75*
G03*
X14873250Y-10457250I-55000J0D01*
G01*
X14873250Y-10965250D02*
G75*
G03*
X14873250Y-10965250I-55000J0D01*
G01*
X14877250Y-8512750D02*
G75*
G03*
X14877250Y-8512750I-55000J0D01*
G01*
X15381250Y-9695250D02*
G75*
G03*
X15381250Y-9695250I-55000J0D01*
G01*
X15385250Y-7242750D02*
G75*
G03*
X15385250Y-7242750I-55000J0D01*
G01*
X15385250Y-7750750D02*
G75*
G03*
X15385250Y-7750750I-55000J0D01*
G01*
X15385250Y-8766750D02*
G75*
G03*
X15385250Y-8766750I-55000J0D01*
G01*
X15573250Y-9441250D02*
G75*
G03*
X15573250Y-9441250I-55000J0D01*
G01*
X15573250Y-10457250D02*
G75*
G03*
X15573250Y-10457250I-55000J0D01*
G01*
X15573250Y-10965250D02*
G75*
G03*
X15573250Y-10965250I-55000J0D01*
G01*
X15577250Y-8512750D02*
G75*
G03*
X15577250Y-8512750I-55000J0D01*
G01*
X16081250Y-9695250D02*
G75*
G03*
X16081250Y-9695250I-55000J0D01*
G01*
X16085250Y-7242750D02*
G75*
G03*
X16085250Y-7242750I-55000J0D01*
G01*
X16085250Y-7750750D02*
G75*
G03*
X16085250Y-7750750I-55000J0D01*
G01*
X16085250Y-8766750D02*
G75*
G03*
X16085250Y-8766750I-55000J0D01*
G01*
X16273250Y-9441250D02*
G75*
G03*
X16273250Y-9441250I-55000J0D01*
G01*
X16273250Y-10457250D02*
G75*
G03*
X16273250Y-10457250I-55000J0D01*
G01*
X16273250Y-10965250D02*
G75*
G03*
X16273250Y-10965250I-55000J0D01*
G01*
X16781250Y-9695250D02*
G75*
G03*
X16781250Y-9695250I-55000J0D01*
G01*
X16973250Y-9441250D02*
G75*
G03*
X16973250Y-9441250I-55000J0D01*
G01*
X16973250Y-10457250D02*
G75*
G03*
X16973250Y-10457250I-55000J0D01*
G01*
X16973250Y-10965250D02*
G75*
G03*
X16973250Y-10965250I-55000J0D01*
G01*
X17481250Y-9695250D02*
G75*
G03*
X17481250Y-9695250I-55000J0D01*
G01*
X17673250Y-9441250D02*
G75*
G03*
X17673250Y-9441250I-55000J0D01*
G01*
X17673250Y-10457250D02*
G75*
G03*
X17673250Y-10457250I-55000J0D01*
G01*
X17673250Y-10965250D02*
G75*
G03*
X17673250Y-10965250I-55000J0D01*
G01*
X18181250Y-9695250D02*
G75*
G03*
X18181250Y-9695250I-55000J0D01*
G01*
X18373250Y-9441250D02*
G75*
G03*
X18373250Y-9441250I-55000J0D01*
G01*
X18373250Y-10457250D02*
G75*
G03*
X18373250Y-10457250I-55000J0D01*
G01*
X18373250Y-10965250D02*
G75*
G03*
X18373250Y-10965250I-55000J0D01*
G01*
X18881250Y-9695250D02*
G75*
G03*
X18881250Y-9695250I-55000J0D01*
G01*
X19073250Y-9441250D02*
G75*
G03*
X19073250Y-9441250I-55000J0D01*
G01*
X19073250Y-10457250D02*
G75*
G03*
X19073250Y-10457250I-55000J0D01*
G01*
X19073250Y-10965250D02*
G75*
G03*
X19073250Y-10965250I-55000J0D01*
G01*
X19581250Y-9695250D02*
G75*
G03*
X19581250Y-9695250I-55000J0D01*
G01*
D14*
X13202250Y-6261500D02*
X13202250Y-6401500D01*
X13132250Y-6331500D02*
X13272250Y-6331500D01*
X13302250Y-11806000D02*
X13302250Y-11946000D01*
X13232250Y-11876000D02*
X13372250Y-11876000D01*
X13710250Y-6261500D02*
X13710250Y-6401500D01*
X13640250Y-6331500D02*
X13780250Y-6331500D01*
X13810250Y-11806000D02*
X13810250Y-11946000D01*
X13740250Y-11876000D02*
X13880250Y-11876000D01*
X14218250Y-6261500D02*
X14218250Y-6401500D01*
X14148250Y-6331500D02*
X14288250Y-6331500D01*
X14318250Y-11806000D02*
X14318250Y-11946000D01*
X14248250Y-11876000D02*
X14388250Y-11876000D01*
X14726250Y-6261500D02*
X14726250Y-6401500D01*
X14656250Y-6331500D02*
X14796250Y-6331500D01*
X14826250Y-11806000D02*
X14826250Y-11946000D01*
X14756250Y-11876000D02*
X14896250Y-11876000D01*
X15234250Y-6261500D02*
X15234250Y-6401500D01*
X15164250Y-6331500D02*
X15304250Y-6331500D01*
X15334250Y-11806000D02*
X15334250Y-11946000D01*
X15264250Y-11876000D02*
X15404250Y-11876000D01*
X15742250Y-6261500D02*
X15742250Y-6401500D01*
X15672250Y-6331500D02*
X15812250Y-6331500D01*
X15842250Y-11806000D02*
X15842250Y-11946000D01*
X15772250Y-11876000D02*
X15912250Y-11876000D01*
X16250250Y-6261500D02*
X16250250Y-6401500D01*
X16180250Y-6331500D02*
X16320250Y-6331500D01*
X16350250Y-11806000D02*
X16350250Y-11946000D01*
X16280250Y-11876000D02*
X16420250Y-11876000D01*
X17202250Y-11806000D02*
X17202250Y-11946000D01*
X17132250Y-11876000D02*
X17272250Y-11876000D01*
X17710250Y-11806000D02*
X17710250Y-11946000D01*
X17640250Y-11876000D02*
X17780250Y-11876000D01*
X18218250Y-11806000D02*
X18218250Y-11946000D01*
X18148250Y-11876000D02*
X18288250Y-11876000D01*
X18726250Y-11806000D02*
X18726250Y-11946000D01*
X18656250Y-11876000D02*
X18796250Y-11876000D01*
X18764250Y-6261500D02*
X18764250Y-6401500D01*
X18694250Y-6331500D02*
X18834250Y-6331500D01*
X19234250Y-11806000D02*
X19234250Y-11946000D01*
X19164250Y-11876000D02*
X19304250Y-11876000D01*
X19526250Y-6261500D02*
X19526250Y-6401500D01*
X19456250Y-6331500D02*
X19596250Y-6331500D01*
X19742250Y-11806000D02*
X19742250Y-11946000D01*
X19672250Y-11876000D02*
X19812250Y-11876000D01*
X20250250Y-11806000D02*
X20250250Y-11946000D01*
X20180250Y-11876000D02*
X20320250Y-11876000D01*
X20288250Y-6261500D02*
X20288250Y-6401500D01*
X20218250Y-6331500D02*
X20358250Y-6331500D01*
D15*
X20174744Y-7502244D02*
X20174744Y-7205256D01*
X19877756Y-7205256D01*
X19877756Y-7502244D01*
X20174744Y-7502244D01*
D11*
X12803869Y-13719226D02*
X12803869Y-13519226D01*
X12851488Y-13519226D01*
X12880059Y-13528750D01*
X12899107Y-13547798D01*
X12908631Y-13566845D01*
X12918155Y-13604940D01*
X12918155Y-13633512D01*
X12908631Y-13671607D01*
X12899107Y-13690655D01*
X12880059Y-13709702D01*
X12851488Y-13719226D01*
X12803869Y-13719226D01*
X13003869Y-13719226D02*
X13003869Y-13585893D01*
X13003869Y-13623988D02*
X13013393Y-13604940D01*
X13022917Y-13595417D01*
X13041964Y-13585893D01*
X13061012Y-13585893D01*
X13127678Y-13719226D02*
X13127678Y-13585893D01*
X13127678Y-13519226D02*
X13118155Y-13528750D01*
X13127678Y-13538274D01*
X13137202Y-13528750D01*
X13127678Y-13519226D01*
X13127678Y-13538274D01*
X13251488Y-13719226D02*
X13232440Y-13709702D01*
X13222917Y-13690655D01*
X13222917Y-13519226D01*
X13356250Y-13719226D02*
X13337202Y-13709702D01*
X13327678Y-13690655D01*
X13327678Y-13519226D01*
X13584821Y-13719226D02*
X13584821Y-13519226D01*
X13651488Y-13662083D01*
X13718155Y-13519226D01*
X13718155Y-13719226D01*
X13899107Y-13719226D02*
X13899107Y-13614464D01*
X13889583Y-13595417D01*
X13870536Y-13585893D01*
X13832440Y-13585893D01*
X13813393Y-13595417D01*
X13899107Y-13709702D02*
X13880059Y-13719226D01*
X13832440Y-13719226D01*
X13813393Y-13709702D01*
X13803869Y-13690655D01*
X13803869Y-13671607D01*
X13813393Y-13652559D01*
X13832440Y-13643036D01*
X13880059Y-13643036D01*
X13899107Y-13633512D01*
X13994345Y-13585893D02*
X13994345Y-13785893D01*
X13994345Y-13595417D02*
X14013393Y-13585893D01*
X14051488Y-13585893D01*
X14070536Y-13595417D01*
X14080059Y-13604940D01*
X14089583Y-13623988D01*
X14089583Y-13681131D01*
X14080059Y-13700178D01*
X14070536Y-13709702D01*
X14051488Y-13719226D01*
X14013393Y-13719226D01*
X13994345Y-13709702D01*
X14175298Y-13700178D02*
X14184821Y-13709702D01*
X14175298Y-13719226D01*
X14165774Y-13709702D01*
X14175298Y-13700178D01*
X14175298Y-13719226D01*
X14175298Y-13595417D02*
X14184821Y-13604940D01*
X14175298Y-13614464D01*
X14165774Y-13604940D01*
X14175298Y-13595417D01*
X14175298Y-13614464D01*
D12*
X12516250Y-14033750D02*
X12546250Y-14063750D01*
X12546250Y-14033750D02*
X12516250Y-14063750D01*
D11*
X12841964Y-13939226D02*
X12861012Y-13939226D01*
X12880059Y-13948750D01*
X12889583Y-13958274D01*
X12899107Y-13977321D01*
X12908631Y-14015417D01*
X12908631Y-14063036D01*
X12899107Y-14101131D01*
X12889583Y-14120178D01*
X12880059Y-14129702D01*
X12861012Y-14139226D01*
X12841964Y-14139226D01*
X12822917Y-14129702D01*
X12813393Y-14120178D01*
X12803869Y-14101131D01*
X12794345Y-14063036D01*
X12794345Y-14015417D01*
X12803869Y-13977321D01*
X12813393Y-13958274D01*
X12822917Y-13948750D01*
X12841964Y-13939226D01*
X12994345Y-14120178D02*
X13003869Y-14129702D01*
X12994345Y-14139226D01*
X12984821Y-14129702D01*
X12994345Y-14120178D01*
X12994345Y-14139226D01*
X13070536Y-13939226D02*
X13194345Y-13939226D01*
X13127678Y-14015417D01*
X13156250Y-14015417D01*
X13175298Y-14024940D01*
X13184821Y-14034464D01*
X13194345Y-14053512D01*
X13194345Y-14101131D01*
X13184821Y-14120178D01*
X13175298Y-14129702D01*
X13156250Y-14139226D01*
X13099107Y-14139226D01*
X13080059Y-14129702D01*
X13070536Y-14120178D01*
X13318155Y-13939226D02*
X13337202Y-13939226D01*
X13356250Y-13948750D01*
X13365774Y-13958274D01*
X13375298Y-13977321D01*
X13384821Y-14015417D01*
X13384821Y-14063036D01*
X13375298Y-14101131D01*
X13365774Y-14120178D01*
X13356250Y-14129702D01*
X13337202Y-14139226D01*
X13318155Y-14139226D01*
X13299107Y-14129702D01*
X13289583Y-14120178D01*
X13280059Y-14101131D01*
X13270536Y-14063036D01*
X13270536Y-14015417D01*
X13280059Y-13977321D01*
X13289583Y-13958274D01*
X13299107Y-13948750D01*
X13318155Y-13939226D01*
X13508631Y-13939226D02*
X13527678Y-13939226D01*
X13546726Y-13948750D01*
X13556250Y-13958274D01*
X13565774Y-13977321D01*
X13575298Y-14015417D01*
X13575298Y-14063036D01*
X13565774Y-14101131D01*
X13556250Y-14120178D01*
X13546726Y-14129702D01*
X13527678Y-14139226D01*
X13508631Y-14139226D01*
X13489583Y-14129702D01*
X13480059Y-14120178D01*
X13470536Y-14101131D01*
X13461012Y-14063036D01*
X13461012Y-14015417D01*
X13470536Y-13977321D01*
X13480059Y-13958274D01*
X13489583Y-13948750D01*
X13508631Y-13939226D01*
X13661012Y-14139226D02*
X13661012Y-14005893D01*
X13661012Y-14024940D02*
X13670536Y-14015417D01*
X13689583Y-14005893D01*
X13718155Y-14005893D01*
X13737202Y-14015417D01*
X13746726Y-14034464D01*
X13746726Y-14139226D01*
X13746726Y-14034464D02*
X13756250Y-14015417D01*
X13775298Y-14005893D01*
X13803869Y-14005893D01*
X13822917Y-14015417D01*
X13832440Y-14034464D01*
X13832440Y-14139226D01*
X13927678Y-14139226D02*
X13927678Y-14005893D01*
X13927678Y-14024940D02*
X13937202Y-14015417D01*
X13956250Y-14005893D01*
X13984821Y-14005893D01*
X14003869Y-14015417D01*
X14013393Y-14034464D01*
X14013393Y-14139226D01*
X14013393Y-14034464D02*
X14022917Y-14015417D01*
X14041964Y-14005893D01*
X14070536Y-14005893D01*
X14089583Y-14015417D01*
X14099107Y-14034464D01*
X14099107Y-14139226D01*
X14489583Y-13929702D02*
X14318155Y-14186845D01*
X14746726Y-13939226D02*
X14765774Y-13939226D01*
X14784821Y-13948750D01*
X14794345Y-13958274D01*
X14803869Y-13977321D01*
X14813393Y-14015417D01*
X14813393Y-14063036D01*
X14803869Y-14101131D01*
X14794345Y-14120178D01*
X14784821Y-14129702D01*
X14765774Y-14139226D01*
X14746726Y-14139226D01*
X14727678Y-14129702D01*
X14718155Y-14120178D01*
X14708631Y-14101131D01*
X14699107Y-14063036D01*
X14699107Y-14015417D01*
X14708631Y-13977321D01*
X14718155Y-13958274D01*
X14727678Y-13948750D01*
X14746726Y-13939226D01*
X14899107Y-14120178D02*
X14908631Y-14129702D01*
X14899107Y-14139226D01*
X14889583Y-14129702D01*
X14899107Y-14120178D01*
X14899107Y-14139226D01*
X15032440Y-13939226D02*
X15051488Y-13939226D01*
X15070536Y-13948750D01*
X15080059Y-13958274D01*
X15089583Y-13977321D01*
X15099107Y-14015417D01*
X15099107Y-14063036D01*
X15089583Y-14101131D01*
X15080059Y-14120178D01*
X15070536Y-14129702D01*
X15051488Y-14139226D01*
X15032440Y-14139226D01*
X15013393Y-14129702D01*
X15003869Y-14120178D01*
X14994345Y-14101131D01*
X14984821Y-14063036D01*
X14984821Y-14015417D01*
X14994345Y-13977321D01*
X15003869Y-13958274D01*
X15013393Y-13948750D01*
X15032440Y-13939226D01*
X15289583Y-14139226D02*
X15175298Y-14139226D01*
X15232440Y-14139226D02*
X15232440Y-13939226D01*
X15213393Y-13967798D01*
X15194345Y-13986845D01*
X15175298Y-13996369D01*
X15480059Y-14139226D02*
X15365774Y-14139226D01*
X15422917Y-14139226D02*
X15422917Y-13939226D01*
X15403869Y-13967798D01*
X15384821Y-13986845D01*
X15365774Y-13996369D01*
X15594345Y-14024940D02*
X15575298Y-14015417D01*
X15565774Y-14005893D01*
X15556250Y-13986845D01*
X15556250Y-13977321D01*
X15565774Y-13958274D01*
X15575298Y-13948750D01*
X15594345Y-13939226D01*
X15632440Y-13939226D01*
X15651488Y-13948750D01*
X15661012Y-13958274D01*
X15670536Y-13977321D01*
X15670536Y-13986845D01*
X15661012Y-14005893D01*
X15651488Y-14015417D01*
X15632440Y-14024940D01*
X15594345Y-14024940D01*
X15575298Y-14034464D01*
X15565774Y-14043988D01*
X15556250Y-14063036D01*
X15556250Y-14101131D01*
X15565774Y-14120178D01*
X15575298Y-14129702D01*
X15594345Y-14139226D01*
X15632440Y-14139226D01*
X15651488Y-14129702D01*
X15661012Y-14120178D01*
X15670536Y-14101131D01*
X15670536Y-14063036D01*
X15661012Y-14043988D01*
X15651488Y-14034464D01*
X15632440Y-14024940D01*
X15746726Y-13939226D02*
X15746726Y-13977321D01*
X15822917Y-13939226D02*
X15822917Y-13977321D01*
X16118155Y-14215417D02*
X16108631Y-14205893D01*
X16089583Y-14177321D01*
X16080059Y-14158274D01*
X16070536Y-14129702D01*
X16061012Y-14082083D01*
X16061012Y-14043988D01*
X16070536Y-13996369D01*
X16080059Y-13967798D01*
X16089583Y-13948750D01*
X16108631Y-13920178D01*
X16118155Y-13910655D01*
X16289583Y-13939226D02*
X16194345Y-13939226D01*
X16184821Y-14034464D01*
X16194345Y-14024940D01*
X16213393Y-14015417D01*
X16261012Y-14015417D01*
X16280059Y-14024940D01*
X16289583Y-14034464D01*
X16299107Y-14053512D01*
X16299107Y-14101131D01*
X16289583Y-14120178D01*
X16280059Y-14129702D01*
X16261012Y-14139226D01*
X16213393Y-14139226D01*
X16194345Y-14129702D01*
X16184821Y-14120178D01*
X16470536Y-14005893D02*
X16470536Y-14139226D01*
X16422917Y-13929702D02*
X16375298Y-14072559D01*
X16499107Y-14072559D01*
X16727678Y-14139226D02*
X16727678Y-13939226D01*
X16813393Y-14139226D02*
X16813393Y-14034464D01*
X16803869Y-14015417D01*
X16784821Y-14005893D01*
X16756250Y-14005893D01*
X16737202Y-14015417D01*
X16727678Y-14024940D01*
X16937202Y-14139226D02*
X16918155Y-14129702D01*
X16908631Y-14120178D01*
X16899107Y-14101131D01*
X16899107Y-14043988D01*
X16908631Y-14024940D01*
X16918155Y-14015417D01*
X16937202Y-14005893D01*
X16965774Y-14005893D01*
X16984821Y-14015417D01*
X16994345Y-14024940D01*
X17003869Y-14043988D01*
X17003869Y-14101131D01*
X16994345Y-14120178D01*
X16984821Y-14129702D01*
X16965774Y-14139226D01*
X16937202Y-14139226D01*
X17118155Y-14139226D02*
X17099107Y-14129702D01*
X17089583Y-14110655D01*
X17089583Y-13939226D01*
X17270536Y-14129702D02*
X17251488Y-14139226D01*
X17213393Y-14139226D01*
X17194345Y-14129702D01*
X17184821Y-14110655D01*
X17184821Y-14034464D01*
X17194345Y-14015417D01*
X17213393Y-14005893D01*
X17251488Y-14005893D01*
X17270536Y-14015417D01*
X17280060Y-14034464D01*
X17280060Y-14053512D01*
X17184821Y-14072559D01*
X17356250Y-14129702D02*
X17375298Y-14139226D01*
X17413393Y-14139226D01*
X17432440Y-14129702D01*
X17441964Y-14110655D01*
X17441964Y-14101131D01*
X17432440Y-14082083D01*
X17413393Y-14072559D01*
X17384821Y-14072559D01*
X17365774Y-14063036D01*
X17356250Y-14043988D01*
X17356250Y-14034464D01*
X17365774Y-14015417D01*
X17384821Y-14005893D01*
X17413393Y-14005893D01*
X17432440Y-14015417D01*
X17508631Y-14215417D02*
X17518155Y-14205893D01*
X17537202Y-14177321D01*
X17546726Y-14158274D01*
X17556250Y-14129702D01*
X17565774Y-14082083D01*
X17565774Y-14043988D01*
X17556250Y-13996369D01*
X17546726Y-13967798D01*
X17537202Y-13948750D01*
X17518155Y-13920178D01*
X17508631Y-13910655D01*
D13*
X12546250Y-14312750D02*
G75*
G03*
X12546250Y-14312750I-55000J0D01*
G01*
D11*
X12908631Y-14403226D02*
X12794345Y-14403226D01*
X12851488Y-14403226D02*
X12851488Y-14203226D01*
X12832440Y-14231798D01*
X12813393Y-14250845D01*
X12794345Y-14260369D01*
X12994345Y-14384178D02*
X13003869Y-14393702D01*
X12994345Y-14403226D01*
X12984821Y-14393702D01*
X12994345Y-14384178D01*
X12994345Y-14403226D01*
X13194345Y-14403226D02*
X13080059Y-14403226D01*
X13137202Y-14403226D02*
X13137202Y-14203226D01*
X13118155Y-14231798D01*
X13099107Y-14250845D01*
X13080059Y-14260369D01*
X13318155Y-14203226D02*
X13337202Y-14203226D01*
X13356250Y-14212750D01*
X13365774Y-14222274D01*
X13375298Y-14241321D01*
X13384821Y-14279417D01*
X13384821Y-14327036D01*
X13375298Y-14365131D01*
X13365774Y-14384178D01*
X13356250Y-14393702D01*
X13337202Y-14403226D01*
X13318155Y-14403226D01*
X13299107Y-14393702D01*
X13289583Y-14384178D01*
X13280059Y-14365131D01*
X13270536Y-14327036D01*
X13270536Y-14279417D01*
X13280059Y-14241321D01*
X13289583Y-14222274D01*
X13299107Y-14212750D01*
X13318155Y-14203226D01*
X13508631Y-14203226D02*
X13527678Y-14203226D01*
X13546726Y-14212750D01*
X13556250Y-14222274D01*
X13565774Y-14241321D01*
X13575298Y-14279417D01*
X13575298Y-14327036D01*
X13565774Y-14365131D01*
X13556250Y-14384178D01*
X13546726Y-14393702D01*
X13527678Y-14403226D01*
X13508631Y-14403226D01*
X13489583Y-14393702D01*
X13480059Y-14384178D01*
X13470536Y-14365131D01*
X13461012Y-14327036D01*
X13461012Y-14279417D01*
X13470536Y-14241321D01*
X13480059Y-14222274D01*
X13489583Y-14212750D01*
X13508631Y-14203226D01*
X13661012Y-14403226D02*
X13661012Y-14269893D01*
X13661012Y-14288940D02*
X13670536Y-14279417D01*
X13689583Y-14269893D01*
X13718155Y-14269893D01*
X13737202Y-14279417D01*
X13746726Y-14298464D01*
X13746726Y-14403226D01*
X13746726Y-14298464D02*
X13756250Y-14279417D01*
X13775298Y-14269893D01*
X13803869Y-14269893D01*
X13822917Y-14279417D01*
X13832440Y-14298464D01*
X13832440Y-14403226D01*
X13927678Y-14403226D02*
X13927678Y-14269893D01*
X13927678Y-14288940D02*
X13937202Y-14279417D01*
X13956250Y-14269893D01*
X13984821Y-14269893D01*
X14003869Y-14279417D01*
X14013393Y-14298464D01*
X14013393Y-14403226D01*
X14013393Y-14298464D02*
X14022917Y-14279417D01*
X14041964Y-14269893D01*
X14070536Y-14269893D01*
X14089583Y-14279417D01*
X14099107Y-14298464D01*
X14099107Y-14403226D01*
X14489583Y-14193702D02*
X14318155Y-14450845D01*
X14746726Y-14203226D02*
X14765774Y-14203226D01*
X14784821Y-14212750D01*
X14794345Y-14222274D01*
X14803869Y-14241321D01*
X14813393Y-14279417D01*
X14813393Y-14327036D01*
X14803869Y-14365131D01*
X14794345Y-14384178D01*
X14784821Y-14393702D01*
X14765774Y-14403226D01*
X14746726Y-14403226D01*
X14727678Y-14393702D01*
X14718155Y-14384178D01*
X14708631Y-14365131D01*
X14699107Y-14327036D01*
X14699107Y-14279417D01*
X14708631Y-14241321D01*
X14718155Y-14222274D01*
X14727678Y-14212750D01*
X14746726Y-14203226D01*
X14899107Y-14384178D02*
X14908631Y-14393702D01*
X14899107Y-14403226D01*
X14889583Y-14393702D01*
X14899107Y-14384178D01*
X14899107Y-14403226D01*
X15032440Y-14203226D02*
X15051488Y-14203226D01*
X15070536Y-14212750D01*
X15080059Y-14222274D01*
X15089583Y-14241321D01*
X15099107Y-14279417D01*
X15099107Y-14327036D01*
X15089583Y-14365131D01*
X15080059Y-14384178D01*
X15070536Y-14393702D01*
X15051488Y-14403226D01*
X15032440Y-14403226D01*
X15013393Y-14393702D01*
X15003869Y-14384178D01*
X14994345Y-14365131D01*
X14984821Y-14327036D01*
X14984821Y-14279417D01*
X14994345Y-14241321D01*
X15003869Y-14222274D01*
X15013393Y-14212750D01*
X15032440Y-14203226D01*
X15270536Y-14269893D02*
X15270536Y-14403226D01*
X15222917Y-14193702D02*
X15175298Y-14336559D01*
X15299107Y-14336559D01*
X15356250Y-14203226D02*
X15480059Y-14203226D01*
X15413393Y-14279417D01*
X15441964Y-14279417D01*
X15461012Y-14288940D01*
X15470536Y-14298464D01*
X15480059Y-14317512D01*
X15480059Y-14365131D01*
X15470536Y-14384178D01*
X15461012Y-14393702D01*
X15441964Y-14403226D01*
X15384821Y-14403226D01*
X15365774Y-14393702D01*
X15356250Y-14384178D01*
X15546726Y-14203226D02*
X15670536Y-14203226D01*
X15603869Y-14279417D01*
X15632440Y-14279417D01*
X15651488Y-14288940D01*
X15661012Y-14298464D01*
X15670536Y-14317512D01*
X15670536Y-14365131D01*
X15661012Y-14384178D01*
X15651488Y-14393702D01*
X15632440Y-14403226D01*
X15575298Y-14403226D01*
X15556250Y-14393702D01*
X15546726Y-14384178D01*
X15746726Y-14203226D02*
X15746726Y-14241321D01*
X15822917Y-14203226D02*
X15822917Y-14241321D01*
X16118155Y-14479417D02*
X16108631Y-14469893D01*
X16089583Y-14441321D01*
X16080059Y-14422274D01*
X16070536Y-14393702D01*
X16061012Y-14346083D01*
X16061012Y-14307988D01*
X16070536Y-14260369D01*
X16080059Y-14231798D01*
X16089583Y-14212750D01*
X16108631Y-14184178D01*
X16118155Y-14174655D01*
X16280059Y-14203226D02*
X16241964Y-14203226D01*
X16222917Y-14212750D01*
X16213393Y-14222274D01*
X16194345Y-14250845D01*
X16184821Y-14288940D01*
X16184821Y-14365131D01*
X16194345Y-14384178D01*
X16203869Y-14393702D01*
X16222917Y-14403226D01*
X16261012Y-14403226D01*
X16280059Y-14393702D01*
X16289583Y-14384178D01*
X16299107Y-14365131D01*
X16299107Y-14317512D01*
X16289583Y-14298464D01*
X16280059Y-14288940D01*
X16261012Y-14279417D01*
X16222917Y-14279417D01*
X16203869Y-14288940D01*
X16194345Y-14298464D01*
X16184821Y-14317512D01*
X16422917Y-14203226D02*
X16441964Y-14203226D01*
X16461012Y-14212750D01*
X16470536Y-14222274D01*
X16480059Y-14241321D01*
X16489583Y-14279417D01*
X16489583Y-14327036D01*
X16480059Y-14365131D01*
X16470536Y-14384178D01*
X16461012Y-14393702D01*
X16441964Y-14403226D01*
X16422917Y-14403226D01*
X16403869Y-14393702D01*
X16394345Y-14384178D01*
X16384821Y-14365131D01*
X16375298Y-14327036D01*
X16375298Y-14279417D01*
X16384821Y-14241321D01*
X16394345Y-14222274D01*
X16403869Y-14212750D01*
X16422917Y-14203226D01*
X16727678Y-14403226D02*
X16727678Y-14203226D01*
X16813393Y-14403226D02*
X16813393Y-14298464D01*
X16803869Y-14279417D01*
X16784821Y-14269893D01*
X16756250Y-14269893D01*
X16737202Y-14279417D01*
X16727678Y-14288940D01*
X16937202Y-14403226D02*
X16918155Y-14393702D01*
X16908631Y-14384178D01*
X16899107Y-14365131D01*
X16899107Y-14307988D01*
X16908631Y-14288940D01*
X16918155Y-14279417D01*
X16937202Y-14269893D01*
X16965774Y-14269893D01*
X16984821Y-14279417D01*
X16994345Y-14288940D01*
X17003869Y-14307988D01*
X17003869Y-14365131D01*
X16994345Y-14384178D01*
X16984821Y-14393702D01*
X16965774Y-14403226D01*
X16937202Y-14403226D01*
X17118155Y-14403226D02*
X17099107Y-14393702D01*
X17089583Y-14374655D01*
X17089583Y-14203226D01*
X17270536Y-14393702D02*
X17251488Y-14403226D01*
X17213393Y-14403226D01*
X17194345Y-14393702D01*
X17184821Y-14374655D01*
X17184821Y-14298464D01*
X17194345Y-14279417D01*
X17213393Y-14269893D01*
X17251488Y-14269893D01*
X17270536Y-14279417D01*
X17280060Y-14298464D01*
X17280060Y-14317512D01*
X17184821Y-14336559D01*
X17356250Y-14393702D02*
X17375298Y-14403226D01*
X17413393Y-14403226D01*
X17432440Y-14393702D01*
X17441964Y-14374655D01*
X17441964Y-14365131D01*
X17432440Y-14346083D01*
X17413393Y-14336559D01*
X17384821Y-14336559D01*
X17365774Y-14327036D01*
X17356250Y-14307988D01*
X17356250Y-14298464D01*
X17365774Y-14279417D01*
X17384821Y-14269893D01*
X17413393Y-14269893D01*
X17432440Y-14279417D01*
X17508631Y-14479417D02*
X17518155Y-14469893D01*
X17537202Y-14441321D01*
X17546726Y-14422274D01*
X17556250Y-14393702D01*
X17565774Y-14346083D01*
X17565774Y-14307988D01*
X17556250Y-14260369D01*
X17546726Y-14231798D01*
X17537202Y-14212750D01*
X17518155Y-14184178D01*
X17508631Y-14174655D01*
D14*
X12476250Y-14506750D02*
X12476250Y-14646750D01*
X12406250Y-14576750D02*
X12546250Y-14576750D01*
D11*
X12908631Y-14667226D02*
X12794345Y-14667226D01*
X12851488Y-14667226D02*
X12851488Y-14467226D01*
X12832440Y-14495798D01*
X12813393Y-14514845D01*
X12794345Y-14524369D01*
X12994345Y-14648178D02*
X13003869Y-14657702D01*
X12994345Y-14667226D01*
X12984821Y-14657702D01*
X12994345Y-14648178D01*
X12994345Y-14667226D01*
X13175298Y-14533893D02*
X13175298Y-14667226D01*
X13127678Y-14457702D02*
X13080059Y-14600559D01*
X13203869Y-14600559D01*
X13318155Y-14467226D02*
X13337202Y-14467226D01*
X13356250Y-14476750D01*
X13365774Y-14486274D01*
X13375298Y-14505321D01*
X13384821Y-14543417D01*
X13384821Y-14591036D01*
X13375298Y-14629131D01*
X13365774Y-14648178D01*
X13356250Y-14657702D01*
X13337202Y-14667226D01*
X13318155Y-14667226D01*
X13299107Y-14657702D01*
X13289583Y-14648178D01*
X13280059Y-14629131D01*
X13270536Y-14591036D01*
X13270536Y-14543417D01*
X13280059Y-14505321D01*
X13289583Y-14486274D01*
X13299107Y-14476750D01*
X13318155Y-14467226D01*
X13508631Y-14467226D02*
X13527678Y-14467226D01*
X13546726Y-14476750D01*
X13556250Y-14486274D01*
X13565774Y-14505321D01*
X13575298Y-14543417D01*
X13575298Y-14591036D01*
X13565774Y-14629131D01*
X13556250Y-14648178D01*
X13546726Y-14657702D01*
X13527678Y-14667226D01*
X13508631Y-14667226D01*
X13489583Y-14657702D01*
X13480059Y-14648178D01*
X13470536Y-14629131D01*
X13461012Y-14591036D01*
X13461012Y-14543417D01*
X13470536Y-14505321D01*
X13480059Y-14486274D01*
X13489583Y-14476750D01*
X13508631Y-14467226D01*
X13661012Y-14667226D02*
X13661012Y-14533893D01*
X13661012Y-14552940D02*
X13670536Y-14543417D01*
X13689583Y-14533893D01*
X13718155Y-14533893D01*
X13737202Y-14543417D01*
X13746726Y-14562464D01*
X13746726Y-14667226D01*
X13746726Y-14562464D02*
X13756250Y-14543417D01*
X13775298Y-14533893D01*
X13803869Y-14533893D01*
X13822917Y-14543417D01*
X13832440Y-14562464D01*
X13832440Y-14667226D01*
X13927678Y-14667226D02*
X13927678Y-14533893D01*
X13927678Y-14552940D02*
X13937202Y-14543417D01*
X13956250Y-14533893D01*
X13984821Y-14533893D01*
X14003869Y-14543417D01*
X14013393Y-14562464D01*
X14013393Y-14667226D01*
X14013393Y-14562464D02*
X14022917Y-14543417D01*
X14041964Y-14533893D01*
X14070536Y-14533893D01*
X14089583Y-14543417D01*
X14099107Y-14562464D01*
X14099107Y-14667226D01*
X14489583Y-14457702D02*
X14318155Y-14714845D01*
X14746726Y-14467226D02*
X14765774Y-14467226D01*
X14784821Y-14476750D01*
X14794345Y-14486274D01*
X14803869Y-14505321D01*
X14813393Y-14543417D01*
X14813393Y-14591036D01*
X14803869Y-14629131D01*
X14794345Y-14648178D01*
X14784821Y-14657702D01*
X14765774Y-14667226D01*
X14746726Y-14667226D01*
X14727678Y-14657702D01*
X14718155Y-14648178D01*
X14708631Y-14629131D01*
X14699107Y-14591036D01*
X14699107Y-14543417D01*
X14708631Y-14505321D01*
X14718155Y-14486274D01*
X14727678Y-14476750D01*
X14746726Y-14467226D01*
X14899107Y-14648178D02*
X14908631Y-14657702D01*
X14899107Y-14667226D01*
X14889583Y-14657702D01*
X14899107Y-14648178D01*
X14899107Y-14667226D01*
X15032440Y-14467226D02*
X15051488Y-14467226D01*
X15070536Y-14476750D01*
X15080059Y-14486274D01*
X15089583Y-14505321D01*
X15099107Y-14543417D01*
X15099107Y-14591036D01*
X15089583Y-14629131D01*
X15080059Y-14648178D01*
X15070536Y-14657702D01*
X15051488Y-14667226D01*
X15032440Y-14667226D01*
X15013393Y-14657702D01*
X15003869Y-14648178D01*
X14994345Y-14629131D01*
X14984821Y-14591036D01*
X14984821Y-14543417D01*
X14994345Y-14505321D01*
X15003869Y-14486274D01*
X15013393Y-14476750D01*
X15032440Y-14467226D01*
X15280059Y-14467226D02*
X15184821Y-14467226D01*
X15175298Y-14562464D01*
X15184821Y-14552940D01*
X15203869Y-14543417D01*
X15251488Y-14543417D01*
X15270536Y-14552940D01*
X15280059Y-14562464D01*
X15289583Y-14581512D01*
X15289583Y-14629131D01*
X15280059Y-14648178D01*
X15270536Y-14657702D01*
X15251488Y-14667226D01*
X15203869Y-14667226D01*
X15184821Y-14657702D01*
X15175298Y-14648178D01*
X15470536Y-14467226D02*
X15375298Y-14467226D01*
X15365774Y-14562464D01*
X15375298Y-14552940D01*
X15394345Y-14543417D01*
X15441964Y-14543417D01*
X15461012Y-14552940D01*
X15470536Y-14562464D01*
X15480059Y-14581512D01*
X15480059Y-14629131D01*
X15470536Y-14648178D01*
X15461012Y-14657702D01*
X15441964Y-14667226D01*
X15394345Y-14667226D01*
X15375298Y-14657702D01*
X15365774Y-14648178D01*
X15670536Y-14667226D02*
X15556250Y-14667226D01*
X15613393Y-14667226D02*
X15613393Y-14467226D01*
X15594345Y-14495798D01*
X15575298Y-14514845D01*
X15556250Y-14524369D01*
X15746726Y-14467226D02*
X15746726Y-14505321D01*
X15822917Y-14467226D02*
X15822917Y-14505321D01*
X16118155Y-14743417D02*
X16108631Y-14733893D01*
X16089583Y-14705321D01*
X16080059Y-14686274D01*
X16070536Y-14657702D01*
X16061012Y-14610083D01*
X16061012Y-14571988D01*
X16070536Y-14524369D01*
X16080059Y-14495798D01*
X16089583Y-14476750D01*
X16108631Y-14448178D01*
X16118155Y-14438655D01*
X16184821Y-14486274D02*
X16194345Y-14476750D01*
X16213393Y-14467226D01*
X16261012Y-14467226D01*
X16280059Y-14476750D01*
X16289583Y-14486274D01*
X16299107Y-14505321D01*
X16299107Y-14524369D01*
X16289583Y-14552940D01*
X16175298Y-14667226D01*
X16299107Y-14667226D01*
X16470536Y-14533893D02*
X16470536Y-14667226D01*
X16422917Y-14457702D02*
X16375298Y-14600559D01*
X16499107Y-14600559D01*
X16727678Y-14667226D02*
X16727678Y-14467226D01*
X16813393Y-14667226D02*
X16813393Y-14562464D01*
X16803869Y-14543417D01*
X16784821Y-14533893D01*
X16756250Y-14533893D01*
X16737202Y-14543417D01*
X16727678Y-14552940D01*
X16937202Y-14667226D02*
X16918155Y-14657702D01*
X16908631Y-14648178D01*
X16899107Y-14629131D01*
X16899107Y-14571988D01*
X16908631Y-14552940D01*
X16918155Y-14543417D01*
X16937202Y-14533893D01*
X16965774Y-14533893D01*
X16984821Y-14543417D01*
X16994345Y-14552940D01*
X17003869Y-14571988D01*
X17003869Y-14629131D01*
X16994345Y-14648178D01*
X16984821Y-14657702D01*
X16965774Y-14667226D01*
X16937202Y-14667226D01*
X17118155Y-14667226D02*
X17099107Y-14657702D01*
X17089583Y-14638655D01*
X17089583Y-14467226D01*
X17270536Y-14657702D02*
X17251488Y-14667226D01*
X17213393Y-14667226D01*
X17194345Y-14657702D01*
X17184821Y-14638655D01*
X17184821Y-14562464D01*
X17194345Y-14543417D01*
X17213393Y-14533893D01*
X17251488Y-14533893D01*
X17270536Y-14543417D01*
X17280060Y-14562464D01*
X17280060Y-14581512D01*
X17184821Y-14600559D01*
X17356250Y-14657702D02*
X17375298Y-14667226D01*
X17413393Y-14667226D01*
X17432440Y-14657702D01*
X17441964Y-14638655D01*
X17441964Y-14629131D01*
X17432440Y-14610083D01*
X17413393Y-14600559D01*
X17384821Y-14600559D01*
X17365774Y-14591036D01*
X17356250Y-14571988D01*
X17356250Y-14562464D01*
X17365774Y-14543417D01*
X17384821Y-14533893D01*
X17413393Y-14533893D01*
X17432440Y-14543417D01*
X17508631Y-14743417D02*
X17518155Y-14733893D01*
X17537202Y-14705321D01*
X17546726Y-14686274D01*
X17556250Y-14657702D01*
X17565774Y-14610083D01*
X17565774Y-14571988D01*
X17556250Y-14524369D01*
X17546726Y-14495798D01*
X17537202Y-14476750D01*
X17518155Y-14448178D01*
X17508631Y-14438655D01*
X12516961Y-14911461D02*
X12516961Y-14770039D01*
X12375539Y-14770039D01*
X12375539Y-14911461D01*
X12516961Y-14911461D01*
X12889583Y-14797893D02*
X12889583Y-14931226D01*
X12841964Y-14721702D02*
X12794345Y-14864559D01*
X12918155Y-14864559D01*
X12994345Y-14912178D02*
X13003869Y-14921702D01*
X12994345Y-14931226D01*
X12984821Y-14921702D01*
X12994345Y-14912178D01*
X12994345Y-14931226D01*
X13080059Y-14750274D02*
X13089583Y-14740750D01*
X13108631Y-14731226D01*
X13156250Y-14731226D01*
X13175298Y-14740750D01*
X13184821Y-14750274D01*
X13194345Y-14769321D01*
X13194345Y-14788369D01*
X13184821Y-14816940D01*
X13070536Y-14931226D01*
X13194345Y-14931226D01*
X13318155Y-14731226D02*
X13337202Y-14731226D01*
X13356250Y-14740750D01*
X13365774Y-14750274D01*
X13375298Y-14769321D01*
X13384821Y-14807417D01*
X13384821Y-14855036D01*
X13375298Y-14893131D01*
X13365774Y-14912178D01*
X13356250Y-14921702D01*
X13337202Y-14931226D01*
X13318155Y-14931226D01*
X13299107Y-14921702D01*
X13289583Y-14912178D01*
X13280059Y-14893131D01*
X13270536Y-14855036D01*
X13270536Y-14807417D01*
X13280059Y-14769321D01*
X13289583Y-14750274D01*
X13299107Y-14740750D01*
X13318155Y-14731226D01*
X13508631Y-14731226D02*
X13527678Y-14731226D01*
X13546726Y-14740750D01*
X13556250Y-14750274D01*
X13565774Y-14769321D01*
X13575298Y-14807417D01*
X13575298Y-14855036D01*
X13565774Y-14893131D01*
X13556250Y-14912178D01*
X13546726Y-14921702D01*
X13527678Y-14931226D01*
X13508631Y-14931226D01*
X13489583Y-14921702D01*
X13480059Y-14912178D01*
X13470536Y-14893131D01*
X13461012Y-14855036D01*
X13461012Y-14807417D01*
X13470536Y-14769321D01*
X13480059Y-14750274D01*
X13489583Y-14740750D01*
X13508631Y-14731226D01*
X13661012Y-14931226D02*
X13661012Y-14797893D01*
X13661012Y-14816940D02*
X13670536Y-14807417D01*
X13689583Y-14797893D01*
X13718155Y-14797893D01*
X13737202Y-14807417D01*
X13746726Y-14826464D01*
X13746726Y-14931226D01*
X13746726Y-14826464D02*
X13756250Y-14807417D01*
X13775298Y-14797893D01*
X13803869Y-14797893D01*
X13822917Y-14807417D01*
X13832440Y-14826464D01*
X13832440Y-14931226D01*
X13927678Y-14931226D02*
X13927678Y-14797893D01*
X13927678Y-14816940D02*
X13937202Y-14807417D01*
X13956250Y-14797893D01*
X13984821Y-14797893D01*
X14003869Y-14807417D01*
X14013393Y-14826464D01*
X14013393Y-14931226D01*
X14013393Y-14826464D02*
X14022917Y-14807417D01*
X14041964Y-14797893D01*
X14070536Y-14797893D01*
X14089583Y-14807417D01*
X14099107Y-14826464D01*
X14099107Y-14931226D01*
X14489583Y-14721702D02*
X14318155Y-14978845D01*
X14746726Y-14731226D02*
X14765774Y-14731226D01*
X14784821Y-14740750D01*
X14794345Y-14750274D01*
X14803869Y-14769321D01*
X14813393Y-14807417D01*
X14813393Y-14855036D01*
X14803869Y-14893131D01*
X14794345Y-14912178D01*
X14784821Y-14921702D01*
X14765774Y-14931226D01*
X14746726Y-14931226D01*
X14727678Y-14921702D01*
X14718155Y-14912178D01*
X14708631Y-14893131D01*
X14699107Y-14855036D01*
X14699107Y-14807417D01*
X14708631Y-14769321D01*
X14718155Y-14750274D01*
X14727678Y-14740750D01*
X14746726Y-14731226D01*
X14899107Y-14912178D02*
X14908631Y-14921702D01*
X14899107Y-14931226D01*
X14889583Y-14921702D01*
X14899107Y-14912178D01*
X14899107Y-14931226D01*
X15099107Y-14931226D02*
X14984821Y-14931226D01*
X15041964Y-14931226D02*
X15041964Y-14731226D01*
X15022917Y-14759798D01*
X15003869Y-14778845D01*
X14984821Y-14788369D01*
X15270536Y-14731226D02*
X15232440Y-14731226D01*
X15213393Y-14740750D01*
X15203869Y-14750274D01*
X15184821Y-14778845D01*
X15175298Y-14816940D01*
X15175298Y-14893131D01*
X15184821Y-14912178D01*
X15194345Y-14921702D01*
X15213393Y-14931226D01*
X15251488Y-14931226D01*
X15270536Y-14921702D01*
X15280059Y-14912178D01*
X15289583Y-14893131D01*
X15289583Y-14845512D01*
X15280059Y-14826464D01*
X15270536Y-14816940D01*
X15251488Y-14807417D01*
X15213393Y-14807417D01*
X15194345Y-14816940D01*
X15184821Y-14826464D01*
X15175298Y-14845512D01*
X15470536Y-14731226D02*
X15375298Y-14731226D01*
X15365774Y-14826464D01*
X15375298Y-14816940D01*
X15394345Y-14807417D01*
X15441964Y-14807417D01*
X15461012Y-14816940D01*
X15470536Y-14826464D01*
X15480059Y-14845512D01*
X15480059Y-14893131D01*
X15470536Y-14912178D01*
X15461012Y-14921702D01*
X15441964Y-14931226D01*
X15394345Y-14931226D01*
X15375298Y-14921702D01*
X15365774Y-14912178D01*
X15651488Y-14797893D02*
X15651488Y-14931226D01*
X15603869Y-14721702D02*
X15556250Y-14864559D01*
X15680059Y-14864559D01*
X15746726Y-14731226D02*
X15746726Y-14769321D01*
X15822917Y-14731226D02*
X15822917Y-14769321D01*
X16118155Y-15007417D02*
X16108631Y-14997893D01*
X16089583Y-14969321D01*
X16080059Y-14950274D01*
X16070536Y-14921702D01*
X16061012Y-14874083D01*
X16061012Y-14835988D01*
X16070536Y-14788369D01*
X16080059Y-14759798D01*
X16089583Y-14740750D01*
X16108631Y-14712178D01*
X16118155Y-14702655D01*
X16299107Y-14931226D02*
X16184821Y-14931226D01*
X16241964Y-14931226D02*
X16241964Y-14731226D01*
X16222917Y-14759798D01*
X16203869Y-14778845D01*
X16184821Y-14788369D01*
X16537202Y-14931226D02*
X16537202Y-14731226D01*
X16622917Y-14931226D02*
X16622917Y-14826464D01*
X16613393Y-14807417D01*
X16594345Y-14797893D01*
X16565774Y-14797893D01*
X16546726Y-14807417D01*
X16537202Y-14816940D01*
X16746726Y-14931226D02*
X16727678Y-14921702D01*
X16718155Y-14912178D01*
X16708631Y-14893131D01*
X16708631Y-14835988D01*
X16718155Y-14816940D01*
X16727678Y-14807417D01*
X16746726Y-14797893D01*
X16775298Y-14797893D01*
X16794345Y-14807417D01*
X16803869Y-14816940D01*
X16813393Y-14835988D01*
X16813393Y-14893131D01*
X16803869Y-14912178D01*
X16794345Y-14921702D01*
X16775298Y-14931226D01*
X16746726Y-14931226D01*
X16927679Y-14931226D02*
X16908631Y-14921702D01*
X16899107Y-14902655D01*
X16899107Y-14731226D01*
X17080060Y-14921702D02*
X17061012Y-14931226D01*
X17022917Y-14931226D01*
X17003869Y-14921702D01*
X16994345Y-14902655D01*
X16994345Y-14826464D01*
X17003869Y-14807417D01*
X17022917Y-14797893D01*
X17061012Y-14797893D01*
X17080060Y-14807417D01*
X17089583Y-14826464D01*
X17089583Y-14845512D01*
X16994345Y-14864559D01*
X17156250Y-15007417D02*
X17165774Y-14997893D01*
X17184821Y-14969321D01*
X17194345Y-14950274D01*
X17203869Y-14921702D01*
X17213393Y-14874083D01*
X17213393Y-14835988D01*
X17203869Y-14788369D01*
X17194345Y-14759798D01*
X17184821Y-14740750D01*
X17165774Y-14712178D01*
X17156250Y-14702655D01*
M02*
