%TF.GenerationSoftware,KiCad,Pcbnew,6.0.10+dfsg-1~bpo11+1*%
%TF.ProjectId,project,70726f6a-6563-4742-9e6b-696361645f70,rev?*%
%TF.SameCoordinates,Original*%
%TF.FileFunction,Drillmap*%
%TF.FilePolarity,Positive*%
%FSLAX45Y45*%
G04 Gerber Fmt 4.5, Leading zero omitted, Abs format (unit mm)*
%MOMM*%
%LPD*%
G01*
G04 APERTURE LIST*
%ADD10C,0.100000*%
%ADD11C,0.200000*%
%ADD12C,0.115200*%
G04 APERTURE END LIST*
D10*
X12551250Y-13303750D02*
G75*
G03*
X12651250Y-13403750I100000J0D01*
G01*
X21101250Y-4903750D02*
X21101250Y-13303750D01*
X21001250Y-13403750D02*
X12651250Y-13403750D01*
X12651250Y-4803750D02*
X21001250Y-4803750D01*
X21001250Y-13403750D02*
G75*
G03*
X21101250Y-13303750I0J100000D01*
G01*
X21101250Y-4903750D02*
G75*
G03*
X21001250Y-4803750I-100000J0D01*
G01*
X12651250Y-4803750D02*
G75*
G03*
X12551250Y-4903750I0J-100000D01*
G01*
X12551250Y-13303750D02*
X12551250Y-4903750D01*
D11*
D12*
X12668650Y-4946150D02*
X12783850Y-5061350D01*
X12783850Y-4946150D02*
X12668650Y-5061350D01*
X12668650Y-12146150D02*
X12783850Y-12261350D01*
X12783850Y-12146150D02*
X12668650Y-12261350D01*
X20868650Y-4946150D02*
X20983850Y-5061350D01*
X20983850Y-4946150D02*
X20868650Y-5061350D01*
D11*
X12803869Y-13719226D02*
X12803869Y-13519226D01*
X12851488Y-13519226D01*
X12880059Y-13528750D01*
X12899107Y-13547798D01*
X12908631Y-13566845D01*
X12918155Y-13604940D01*
X12918155Y-13633512D01*
X12908631Y-13671607D01*
X12899107Y-13690655D01*
X12880059Y-13709702D01*
X12851488Y-13719226D01*
X12803869Y-13719226D01*
X13003869Y-13719226D02*
X13003869Y-13585893D01*
X13003869Y-13623988D02*
X13013393Y-13604940D01*
X13022917Y-13595417D01*
X13041964Y-13585893D01*
X13061012Y-13585893D01*
X13127678Y-13719226D02*
X13127678Y-13585893D01*
X13127678Y-13519226D02*
X13118155Y-13528750D01*
X13127678Y-13538274D01*
X13137202Y-13528750D01*
X13127678Y-13519226D01*
X13127678Y-13538274D01*
X13251488Y-13719226D02*
X13232440Y-13709702D01*
X13222917Y-13690655D01*
X13222917Y-13519226D01*
X13356250Y-13719226D02*
X13337202Y-13709702D01*
X13327678Y-13690655D01*
X13327678Y-13519226D01*
X13584821Y-13719226D02*
X13584821Y-13519226D01*
X13651488Y-13662083D01*
X13718155Y-13519226D01*
X13718155Y-13719226D01*
X13899107Y-13719226D02*
X13899107Y-13614464D01*
X13889583Y-13595417D01*
X13870536Y-13585893D01*
X13832440Y-13585893D01*
X13813393Y-13595417D01*
X13899107Y-13709702D02*
X13880059Y-13719226D01*
X13832440Y-13719226D01*
X13813393Y-13709702D01*
X13803869Y-13690655D01*
X13803869Y-13671607D01*
X13813393Y-13652559D01*
X13832440Y-13643036D01*
X13880059Y-13643036D01*
X13899107Y-13633512D01*
X13994345Y-13585893D02*
X13994345Y-13785893D01*
X13994345Y-13595417D02*
X14013393Y-13585893D01*
X14051488Y-13585893D01*
X14070536Y-13595417D01*
X14080059Y-13604940D01*
X14089583Y-13623988D01*
X14089583Y-13681131D01*
X14080059Y-13700178D01*
X14070536Y-13709702D01*
X14051488Y-13719226D01*
X14013393Y-13719226D01*
X13994345Y-13709702D01*
X14175298Y-13700178D02*
X14184821Y-13709702D01*
X14175298Y-13719226D01*
X14165774Y-13709702D01*
X14175298Y-13700178D01*
X14175298Y-13719226D01*
X14175298Y-13595417D02*
X14184821Y-13604940D01*
X14175298Y-13614464D01*
X14165774Y-13604940D01*
X14175298Y-13595417D01*
X14175298Y-13614464D01*
D12*
X12431050Y-13991150D02*
X12546250Y-14106350D01*
X12546250Y-13991150D02*
X12431050Y-14106350D01*
D11*
X12908631Y-14139226D02*
X12794345Y-14139226D01*
X12851488Y-14139226D02*
X12851488Y-13939226D01*
X12832440Y-13967798D01*
X12813393Y-13986845D01*
X12794345Y-13996369D01*
X12994345Y-14120178D02*
X13003869Y-14129702D01*
X12994345Y-14139226D01*
X12984821Y-14129702D01*
X12994345Y-14120178D01*
X12994345Y-14139226D01*
X13194345Y-14139226D02*
X13080059Y-14139226D01*
X13137202Y-14139226D02*
X13137202Y-13939226D01*
X13118155Y-13967798D01*
X13099107Y-13986845D01*
X13080059Y-13996369D01*
X13375298Y-13939226D02*
X13280059Y-13939226D01*
X13270536Y-14034464D01*
X13280059Y-14024940D01*
X13299107Y-14015417D01*
X13346726Y-14015417D01*
X13365774Y-14024940D01*
X13375298Y-14034464D01*
X13384821Y-14053512D01*
X13384821Y-14101131D01*
X13375298Y-14120178D01*
X13365774Y-14129702D01*
X13346726Y-14139226D01*
X13299107Y-14139226D01*
X13280059Y-14129702D01*
X13270536Y-14120178D01*
X13461012Y-13958274D02*
X13470536Y-13948750D01*
X13489583Y-13939226D01*
X13537202Y-13939226D01*
X13556250Y-13948750D01*
X13565774Y-13958274D01*
X13575298Y-13977321D01*
X13575298Y-13996369D01*
X13565774Y-14024940D01*
X13451488Y-14139226D01*
X13575298Y-14139226D01*
X13661012Y-14139226D02*
X13661012Y-14005893D01*
X13661012Y-14024940D02*
X13670536Y-14015417D01*
X13689583Y-14005893D01*
X13718155Y-14005893D01*
X13737202Y-14015417D01*
X13746726Y-14034464D01*
X13746726Y-14139226D01*
X13746726Y-14034464D02*
X13756250Y-14015417D01*
X13775298Y-14005893D01*
X13803869Y-14005893D01*
X13822917Y-14015417D01*
X13832440Y-14034464D01*
X13832440Y-14139226D01*
X13927678Y-14139226D02*
X13927678Y-14005893D01*
X13927678Y-14024940D02*
X13937202Y-14015417D01*
X13956250Y-14005893D01*
X13984821Y-14005893D01*
X14003869Y-14015417D01*
X14013393Y-14034464D01*
X14013393Y-14139226D01*
X14013393Y-14034464D02*
X14022917Y-14015417D01*
X14041964Y-14005893D01*
X14070536Y-14005893D01*
X14089583Y-14015417D01*
X14099107Y-14034464D01*
X14099107Y-14139226D01*
X14489583Y-13929702D02*
X14318155Y-14186845D01*
X14746726Y-13939226D02*
X14765774Y-13939226D01*
X14784821Y-13948750D01*
X14794345Y-13958274D01*
X14803869Y-13977321D01*
X14813393Y-14015417D01*
X14813393Y-14063036D01*
X14803869Y-14101131D01*
X14794345Y-14120178D01*
X14784821Y-14129702D01*
X14765774Y-14139226D01*
X14746726Y-14139226D01*
X14727678Y-14129702D01*
X14718155Y-14120178D01*
X14708631Y-14101131D01*
X14699107Y-14063036D01*
X14699107Y-14015417D01*
X14708631Y-13977321D01*
X14718155Y-13958274D01*
X14727678Y-13948750D01*
X14746726Y-13939226D01*
X14899107Y-14120178D02*
X14908631Y-14129702D01*
X14899107Y-14139226D01*
X14889583Y-14129702D01*
X14899107Y-14120178D01*
X14899107Y-14139226D01*
X15032440Y-13939226D02*
X15051488Y-13939226D01*
X15070536Y-13948750D01*
X15080059Y-13958274D01*
X15089583Y-13977321D01*
X15099107Y-14015417D01*
X15099107Y-14063036D01*
X15089583Y-14101131D01*
X15080059Y-14120178D01*
X15070536Y-14129702D01*
X15051488Y-14139226D01*
X15032440Y-14139226D01*
X15013393Y-14129702D01*
X15003869Y-14120178D01*
X14994345Y-14101131D01*
X14984821Y-14063036D01*
X14984821Y-14015417D01*
X14994345Y-13977321D01*
X15003869Y-13958274D01*
X15013393Y-13948750D01*
X15032440Y-13939226D01*
X15270536Y-14005893D02*
X15270536Y-14139226D01*
X15222917Y-13929702D02*
X15175298Y-14072559D01*
X15299107Y-14072559D01*
X15470536Y-13939226D02*
X15375298Y-13939226D01*
X15365774Y-14034464D01*
X15375298Y-14024940D01*
X15394345Y-14015417D01*
X15441964Y-14015417D01*
X15461012Y-14024940D01*
X15470536Y-14034464D01*
X15480059Y-14053512D01*
X15480059Y-14101131D01*
X15470536Y-14120178D01*
X15461012Y-14129702D01*
X15441964Y-14139226D01*
X15394345Y-14139226D01*
X15375298Y-14129702D01*
X15365774Y-14120178D01*
X15651488Y-14005893D02*
X15651488Y-14139226D01*
X15603869Y-13929702D02*
X15556250Y-14072559D01*
X15680059Y-14072559D01*
X15746726Y-13939226D02*
X15746726Y-13977321D01*
X15822917Y-13939226D02*
X15822917Y-13977321D01*
X16118155Y-14215417D02*
X16108631Y-14205893D01*
X16089583Y-14177321D01*
X16080059Y-14158274D01*
X16070536Y-14129702D01*
X16061012Y-14082083D01*
X16061012Y-14043988D01*
X16070536Y-13996369D01*
X16080059Y-13967798D01*
X16089583Y-13948750D01*
X16108631Y-13920178D01*
X16118155Y-13910655D01*
X16175298Y-13939226D02*
X16299107Y-13939226D01*
X16232440Y-14015417D01*
X16261012Y-14015417D01*
X16280059Y-14024940D01*
X16289583Y-14034464D01*
X16299107Y-14053512D01*
X16299107Y-14101131D01*
X16289583Y-14120178D01*
X16280059Y-14129702D01*
X16261012Y-14139226D01*
X16203869Y-14139226D01*
X16184821Y-14129702D01*
X16175298Y-14120178D01*
X16537202Y-14139226D02*
X16537202Y-13939226D01*
X16622917Y-14139226D02*
X16622917Y-14034464D01*
X16613393Y-14015417D01*
X16594345Y-14005893D01*
X16565774Y-14005893D01*
X16546726Y-14015417D01*
X16537202Y-14024940D01*
X16746726Y-14139226D02*
X16727678Y-14129702D01*
X16718155Y-14120178D01*
X16708631Y-14101131D01*
X16708631Y-14043988D01*
X16718155Y-14024940D01*
X16727678Y-14015417D01*
X16746726Y-14005893D01*
X16775298Y-14005893D01*
X16794345Y-14015417D01*
X16803869Y-14024940D01*
X16813393Y-14043988D01*
X16813393Y-14101131D01*
X16803869Y-14120178D01*
X16794345Y-14129702D01*
X16775298Y-14139226D01*
X16746726Y-14139226D01*
X16927679Y-14139226D02*
X16908631Y-14129702D01*
X16899107Y-14110655D01*
X16899107Y-13939226D01*
X17080060Y-14129702D02*
X17061012Y-14139226D01*
X17022917Y-14139226D01*
X17003869Y-14129702D01*
X16994345Y-14110655D01*
X16994345Y-14034464D01*
X17003869Y-14015417D01*
X17022917Y-14005893D01*
X17061012Y-14005893D01*
X17080060Y-14015417D01*
X17089583Y-14034464D01*
X17089583Y-14053512D01*
X16994345Y-14072559D01*
X17165774Y-14129702D02*
X17184821Y-14139226D01*
X17222917Y-14139226D01*
X17241964Y-14129702D01*
X17251488Y-14110655D01*
X17251488Y-14101131D01*
X17241964Y-14082083D01*
X17222917Y-14072559D01*
X17194345Y-14072559D01*
X17175298Y-14063036D01*
X17165774Y-14043988D01*
X17165774Y-14034464D01*
X17175298Y-14015417D01*
X17194345Y-14005893D01*
X17222917Y-14005893D01*
X17241964Y-14015417D01*
X17318155Y-14215417D02*
X17327679Y-14205893D01*
X17346726Y-14177321D01*
X17356250Y-14158274D01*
X17365774Y-14129702D01*
X17375298Y-14082083D01*
X17375298Y-14043988D01*
X17365774Y-13996369D01*
X17356250Y-13967798D01*
X17346726Y-13948750D01*
X17327679Y-13920178D01*
X17318155Y-13910655D01*
X17680060Y-14215417D02*
X17670536Y-14205893D01*
X17651488Y-14177321D01*
X17641964Y-14158274D01*
X17632440Y-14129702D01*
X17622917Y-14082083D01*
X17622917Y-14043988D01*
X17632440Y-13996369D01*
X17641964Y-13967798D01*
X17651488Y-13948750D01*
X17670536Y-13920178D01*
X17680060Y-13910655D01*
X17756250Y-14005893D02*
X17756250Y-14139226D01*
X17756250Y-14024940D02*
X17765774Y-14015417D01*
X17784821Y-14005893D01*
X17813393Y-14005893D01*
X17832440Y-14015417D01*
X17841964Y-14034464D01*
X17841964Y-14139226D01*
X17965774Y-14139226D02*
X17946726Y-14129702D01*
X17937202Y-14120178D01*
X17927679Y-14101131D01*
X17927679Y-14043988D01*
X17937202Y-14024940D01*
X17946726Y-14015417D01*
X17965774Y-14005893D01*
X17994345Y-14005893D01*
X18013393Y-14015417D01*
X18022917Y-14024940D01*
X18032440Y-14043988D01*
X18032440Y-14101131D01*
X18022917Y-14120178D01*
X18013393Y-14129702D01*
X17994345Y-14139226D01*
X17965774Y-14139226D01*
X18089583Y-14005893D02*
X18165774Y-14005893D01*
X18118155Y-13939226D02*
X18118155Y-14110655D01*
X18127679Y-14129702D01*
X18146726Y-14139226D01*
X18165774Y-14139226D01*
X18384821Y-14005893D02*
X18384821Y-14205893D01*
X18384821Y-14015417D02*
X18403869Y-14005893D01*
X18441964Y-14005893D01*
X18461012Y-14015417D01*
X18470536Y-14024940D01*
X18480060Y-14043988D01*
X18480060Y-14101131D01*
X18470536Y-14120178D01*
X18461012Y-14129702D01*
X18441964Y-14139226D01*
X18403869Y-14139226D01*
X18384821Y-14129702D01*
X18594345Y-14139226D02*
X18575298Y-14129702D01*
X18565774Y-14110655D01*
X18565774Y-13939226D01*
X18756250Y-14139226D02*
X18756250Y-14034464D01*
X18746726Y-14015417D01*
X18727679Y-14005893D01*
X18689583Y-14005893D01*
X18670536Y-14015417D01*
X18756250Y-14129702D02*
X18737202Y-14139226D01*
X18689583Y-14139226D01*
X18670536Y-14129702D01*
X18661012Y-14110655D01*
X18661012Y-14091607D01*
X18670536Y-14072559D01*
X18689583Y-14063036D01*
X18737202Y-14063036D01*
X18756250Y-14053512D01*
X18822917Y-14005893D02*
X18899107Y-14005893D01*
X18851488Y-13939226D02*
X18851488Y-14110655D01*
X18861012Y-14129702D01*
X18880060Y-14139226D01*
X18899107Y-14139226D01*
X19041964Y-14129702D02*
X19022917Y-14139226D01*
X18984821Y-14139226D01*
X18965774Y-14129702D01*
X18956250Y-14110655D01*
X18956250Y-14034464D01*
X18965774Y-14015417D01*
X18984821Y-14005893D01*
X19022917Y-14005893D01*
X19041964Y-14015417D01*
X19051488Y-14034464D01*
X19051488Y-14053512D01*
X18956250Y-14072559D01*
X19222917Y-14139226D02*
X19222917Y-13939226D01*
X19222917Y-14129702D02*
X19203869Y-14139226D01*
X19165774Y-14139226D01*
X19146726Y-14129702D01*
X19137202Y-14120178D01*
X19127679Y-14101131D01*
X19127679Y-14043988D01*
X19137202Y-14024940D01*
X19146726Y-14015417D01*
X19165774Y-14005893D01*
X19203869Y-14005893D01*
X19222917Y-14015417D01*
X19299107Y-14215417D02*
X19308631Y-14205893D01*
X19327679Y-14177321D01*
X19337202Y-14158274D01*
X19346726Y-14129702D01*
X19356250Y-14082083D01*
X19356250Y-14043988D01*
X19346726Y-13996369D01*
X19337202Y-13967798D01*
X19327679Y-13948750D01*
X19308631Y-13920178D01*
X19299107Y-13910655D01*
M02*
