G04 #@! TF.GenerationSoftware,KiCad,Pcbnew,6.0.10+dfsg-1~bpo11+1*
G04 #@! TF.ProjectId,project,70726f6a-6563-4742-9e6b-696361645f70,rev?*
G04 #@! TF.SameCoordinates,Original*
G04 #@! TF.FileFunction,Copper,L1,Top*
G04 #@! TF.FilePolarity,Positive*
%FSLAX46Y46*%
G04 Gerber Fmt 4.6, Leading zero omitted, Abs format (unit mm)*
%MOMM*%
%LPD*%
G01*
G04 APERTURE LIST*
G04 #@! TA.AperFunction,Profile*
%ADD10C,0.100000*%
G04 #@! TD*
G04 #@! TA.AperFunction,ComponentPad*
%ADD11C,2.400000*%
G04 #@! TD*
G04 #@! TA.AperFunction,ComponentPad*
%ADD12O,2.080000X3.600000*%
G04 #@! TD*
G04 #@! TA.AperFunction,ComponentPad*
%ADD13O,2.100000X3.600000*%
G04 #@! TD*
G04 #@! TA.AperFunction,ViaPad*
%ADD14C,0.700000*%
G04 #@! TD*
G04 #@! TA.AperFunction,Conductor*
%ADD15C,0.400000*%
G04 #@! TD*
G04 #@! TA.AperFunction,Conductor*
%ADD16C,0.160000*%
G04 #@! TD*
G04 #@! TA.AperFunction,Conductor*
%ADD17C,1.500000*%
G04 #@! TD*
G04 #@! TA.AperFunction,Conductor*
%ADD18C,2.000000*%
G04 #@! TD*
G04 #@! TA.AperFunction,Conductor*
%ADD19C,0.300000*%
G04 #@! TD*
G04 #@! TA.AperFunction,Conductor*
%ADD20C,2.500000*%
G04 #@! TD*
G04 APERTURE END LIST*
D10*
X211012500Y-48287500D02*
X211012500Y-133787500D01*
X211012500Y-133787500D02*
X125512500Y-133787500D01*
X125512500Y-48287500D02*
X211012500Y-48287500D01*
X125512500Y-133787500D02*
X125512500Y-48287500D01*
D11*
X132302500Y-87667500D03*
X132302500Y-77507500D03*
X132302500Y-72427500D03*
X127222500Y-85127500D03*
X148182500Y-94412500D03*
X148182500Y-104572500D03*
X148182500Y-109652500D03*
X153262500Y-96952500D03*
G04 #@! TA.AperFunction,ComponentPad*
G36*
G01*
X131982500Y-121810001D02*
X131982500Y-118709999D01*
G75*
G02*
X132232499Y-118460000I249999J0D01*
G01*
X133812501Y-118460000D01*
G75*
G02*
X134062500Y-118709999I0J-249999D01*
G01*
X134062500Y-121810001D01*
G75*
G02*
X133812501Y-122060000I-249999J0D01*
G01*
X132232499Y-122060000D01*
G75*
G02*
X131982500Y-121810001I0J249999D01*
G01*
G37*
G04 #@! TD.AperFunction*
D12*
X138102500Y-120260000D03*
X143182500Y-120260000D03*
X148262500Y-120260000D03*
X153342500Y-120260000D03*
X158422500Y-120260000D03*
X163502500Y-120260000D03*
G04 #@! TA.AperFunction,ComponentPad*
G36*
G01*
X203932500Y-60265001D02*
X203932500Y-63364999D01*
G75*
G02*
X203682499Y-63615000I-250001J0D01*
G01*
X202082501Y-63615000D01*
G75*
G02*
X201832500Y-63364999I0J250001D01*
G01*
X201832500Y-60265001D01*
G75*
G02*
X202082501Y-60015000I250001J0D01*
G01*
X203682499Y-60015000D01*
G75*
G02*
X203932500Y-60265001I0J-250001D01*
G01*
G37*
G04 #@! TD.AperFunction*
D13*
X195262500Y-61815000D03*
X187642500Y-61815000D03*
D11*
X141182500Y-94412500D03*
X141182500Y-104572500D03*
X141182500Y-109652500D03*
X146262500Y-96952500D03*
X176182500Y-94412500D03*
X176182500Y-104572500D03*
X176182500Y-109652500D03*
X181262500Y-96952500D03*
X153302500Y-87667500D03*
X153302500Y-77507500D03*
X153302500Y-72427500D03*
X148222500Y-85127500D03*
X127182500Y-94412500D03*
X127182500Y-104572500D03*
X127182500Y-109652500D03*
X132262500Y-96952500D03*
X155182500Y-94412500D03*
X155182500Y-104572500D03*
X155182500Y-109652500D03*
X160262500Y-96952500D03*
G04 #@! TA.AperFunction,ComponentPad*
G36*
G01*
X163542500Y-60264999D02*
X163542500Y-63365001D01*
G75*
G02*
X163292501Y-63615000I-249999J0D01*
G01*
X161712499Y-63615000D01*
G75*
G02*
X161462500Y-63365001I0J249999D01*
G01*
X161462500Y-60264999D01*
G75*
G02*
X161712499Y-60015000I249999J0D01*
G01*
X163292501Y-60015000D01*
G75*
G02*
X163542500Y-60264999I0J-249999D01*
G01*
G37*
G04 #@! TD.AperFunction*
D12*
X157422500Y-61815000D03*
X152342500Y-61815000D03*
X147262500Y-61815000D03*
X142182500Y-61815000D03*
X137102500Y-61815000D03*
X132022500Y-61815000D03*
D11*
X169182500Y-94412500D03*
X169182500Y-104572500D03*
X169182500Y-109652500D03*
X174262500Y-96952500D03*
G04 #@! TA.AperFunction,SMDPad,CuDef*
G36*
G01*
X175712500Y-84537500D02*
X175712500Y-85687500D01*
G75*
G02*
X175612500Y-85787500I-100000J0D01*
G01*
X175412500Y-85787500D01*
G75*
G02*
X175312500Y-85687500I0J100000D01*
G01*
X175312500Y-84537500D01*
G75*
G02*
X175412500Y-84437500I100000J0D01*
G01*
X175612500Y-84437500D01*
G75*
G02*
X175712500Y-84537500I0J-100000D01*
G01*
G37*
G04 #@! TD.AperFunction*
G04 #@! TA.AperFunction,SMDPad,CuDef*
G36*
G01*
X176212500Y-82387500D02*
X176212500Y-83537500D01*
G75*
G02*
X176112500Y-83637500I-100000J0D01*
G01*
X175912500Y-83637500D01*
G75*
G02*
X175812500Y-83537500I0J100000D01*
G01*
X175812500Y-82387500D01*
G75*
G02*
X175912500Y-82287500I100000J0D01*
G01*
X176112500Y-82287500D01*
G75*
G02*
X176212500Y-82387500I0J-100000D01*
G01*
G37*
G04 #@! TD.AperFunction*
G04 #@! TA.AperFunction,SMDPad,CuDef*
G36*
G01*
X176712500Y-84537500D02*
X176712500Y-85687500D01*
G75*
G02*
X176612500Y-85787500I-100000J0D01*
G01*
X176412500Y-85787500D01*
G75*
G02*
X176312500Y-85687500I0J100000D01*
G01*
X176312500Y-84537500D01*
G75*
G02*
X176412500Y-84437500I100000J0D01*
G01*
X176612500Y-84437500D01*
G75*
G02*
X176712500Y-84537500I0J-100000D01*
G01*
G37*
G04 #@! TD.AperFunction*
G04 #@! TA.AperFunction,SMDPad,CuDef*
G36*
G01*
X177212500Y-82387500D02*
X177212500Y-83537500D01*
G75*
G02*
X177112500Y-83637500I-100000J0D01*
G01*
X176912500Y-83637500D01*
G75*
G02*
X176812500Y-83537500I0J100000D01*
G01*
X176812500Y-82387500D01*
G75*
G02*
X176912500Y-82287500I100000J0D01*
G01*
X177112500Y-82287500D01*
G75*
G02*
X177212500Y-82387500I0J-100000D01*
G01*
G37*
G04 #@! TD.AperFunction*
G04 #@! TA.AperFunction,SMDPad,CuDef*
G36*
G01*
X177712500Y-84537500D02*
X177712500Y-85687500D01*
G75*
G02*
X177612500Y-85787500I-100000J0D01*
G01*
X177412500Y-85787500D01*
G75*
G02*
X177312500Y-85687500I0J100000D01*
G01*
X177312500Y-84537500D01*
G75*
G02*
X177412500Y-84437500I100000J0D01*
G01*
X177612500Y-84437500D01*
G75*
G02*
X177712500Y-84537500I0J-100000D01*
G01*
G37*
G04 #@! TD.AperFunction*
G04 #@! TA.AperFunction,SMDPad,CuDef*
G36*
G01*
X178212500Y-82387500D02*
X178212500Y-83537500D01*
G75*
G02*
X178112500Y-83637500I-100000J0D01*
G01*
X177912500Y-83637500D01*
G75*
G02*
X177812500Y-83537500I0J100000D01*
G01*
X177812500Y-82387500D01*
G75*
G02*
X177912500Y-82287500I100000J0D01*
G01*
X178112500Y-82287500D01*
G75*
G02*
X178212500Y-82387500I0J-100000D01*
G01*
G37*
G04 #@! TD.AperFunction*
G04 #@! TA.AperFunction,SMDPad,CuDef*
G36*
G01*
X178712500Y-84537500D02*
X178712500Y-85687500D01*
G75*
G02*
X178612500Y-85787500I-100000J0D01*
G01*
X178412500Y-85787500D01*
G75*
G02*
X178312500Y-85687500I0J100000D01*
G01*
X178312500Y-84537500D01*
G75*
G02*
X178412500Y-84437500I100000J0D01*
G01*
X178612500Y-84437500D01*
G75*
G02*
X178712500Y-84537500I0J-100000D01*
G01*
G37*
G04 #@! TD.AperFunction*
G04 #@! TA.AperFunction,SMDPad,CuDef*
G36*
G01*
X179212500Y-82387500D02*
X179212500Y-83537500D01*
G75*
G02*
X179112500Y-83637500I-100000J0D01*
G01*
X178912500Y-83637500D01*
G75*
G02*
X178812500Y-83537500I0J100000D01*
G01*
X178812500Y-82387500D01*
G75*
G02*
X178912500Y-82287500I100000J0D01*
G01*
X179112500Y-82287500D01*
G75*
G02*
X179212500Y-82387500I0J-100000D01*
G01*
G37*
G04 #@! TD.AperFunction*
G04 #@! TA.AperFunction,SMDPad,CuDef*
G36*
G01*
X179712500Y-84537500D02*
X179712500Y-85687500D01*
G75*
G02*
X179612500Y-85787500I-100000J0D01*
G01*
X179412500Y-85787500D01*
G75*
G02*
X179312500Y-85687500I0J100000D01*
G01*
X179312500Y-84537500D01*
G75*
G02*
X179412500Y-84437500I100000J0D01*
G01*
X179612500Y-84437500D01*
G75*
G02*
X179712500Y-84537500I0J-100000D01*
G01*
G37*
G04 #@! TD.AperFunction*
G04 #@! TA.AperFunction,SMDPad,CuDef*
G36*
G01*
X180212500Y-82387500D02*
X180212500Y-83537500D01*
G75*
G02*
X180112500Y-83637500I-100000J0D01*
G01*
X179912500Y-83637500D01*
G75*
G02*
X179812500Y-83537500I0J100000D01*
G01*
X179812500Y-82387500D01*
G75*
G02*
X179912500Y-82287500I100000J0D01*
G01*
X180112500Y-82287500D01*
G75*
G02*
X180212500Y-82387500I0J-100000D01*
G01*
G37*
G04 #@! TD.AperFunction*
G04 #@! TA.AperFunction,SMDPad,CuDef*
G36*
G01*
X180712500Y-84537500D02*
X180712500Y-85687500D01*
G75*
G02*
X180612500Y-85787500I-100000J0D01*
G01*
X180412500Y-85787500D01*
G75*
G02*
X180312500Y-85687500I0J100000D01*
G01*
X180312500Y-84537500D01*
G75*
G02*
X180412500Y-84437500I100000J0D01*
G01*
X180612500Y-84437500D01*
G75*
G02*
X180712500Y-84537500I0J-100000D01*
G01*
G37*
G04 #@! TD.AperFunction*
G04 #@! TA.AperFunction,SMDPad,CuDef*
G36*
G01*
X181212500Y-82387500D02*
X181212500Y-83537500D01*
G75*
G02*
X181112500Y-83637500I-100000J0D01*
G01*
X180912500Y-83637500D01*
G75*
G02*
X180812500Y-83537500I0J100000D01*
G01*
X180812500Y-82387500D01*
G75*
G02*
X180912500Y-82287500I100000J0D01*
G01*
X181112500Y-82287500D01*
G75*
G02*
X181212500Y-82387500I0J-100000D01*
G01*
G37*
G04 #@! TD.AperFunction*
G04 #@! TA.AperFunction,SMDPad,CuDef*
G36*
G01*
X181712500Y-84537500D02*
X181712500Y-85687500D01*
G75*
G02*
X181612500Y-85787500I-100000J0D01*
G01*
X181412500Y-85787500D01*
G75*
G02*
X181312500Y-85687500I0J100000D01*
G01*
X181312500Y-84537500D01*
G75*
G02*
X181412500Y-84437500I100000J0D01*
G01*
X181612500Y-84437500D01*
G75*
G02*
X181712500Y-84537500I0J-100000D01*
G01*
G37*
G04 #@! TD.AperFunction*
G04 #@! TA.AperFunction,SMDPad,CuDef*
G36*
G01*
X182212500Y-82387500D02*
X182212500Y-83537500D01*
G75*
G02*
X182112500Y-83637500I-100000J0D01*
G01*
X181912500Y-83637500D01*
G75*
G02*
X181812500Y-83537500I0J100000D01*
G01*
X181812500Y-82387500D01*
G75*
G02*
X181912500Y-82287500I100000J0D01*
G01*
X182112500Y-82287500D01*
G75*
G02*
X182212500Y-82387500I0J-100000D01*
G01*
G37*
G04 #@! TD.AperFunction*
G04 #@! TA.AperFunction,SMDPad,CuDef*
G36*
G01*
X182712500Y-84537500D02*
X182712500Y-85687500D01*
G75*
G02*
X182612500Y-85787500I-100000J0D01*
G01*
X182412500Y-85787500D01*
G75*
G02*
X182312500Y-85687500I0J100000D01*
G01*
X182312500Y-84537500D01*
G75*
G02*
X182412500Y-84437500I100000J0D01*
G01*
X182612500Y-84437500D01*
G75*
G02*
X182712500Y-84537500I0J-100000D01*
G01*
G37*
G04 #@! TD.AperFunction*
G04 #@! TA.AperFunction,SMDPad,CuDef*
G36*
G01*
X183212500Y-82387500D02*
X183212500Y-83537500D01*
G75*
G02*
X183112500Y-83637500I-100000J0D01*
G01*
X182912500Y-83637500D01*
G75*
G02*
X182812500Y-83537500I0J100000D01*
G01*
X182812500Y-82387500D01*
G75*
G02*
X182912500Y-82287500I100000J0D01*
G01*
X183112500Y-82287500D01*
G75*
G02*
X183212500Y-82387500I0J-100000D01*
G01*
G37*
G04 #@! TD.AperFunction*
G04 #@! TA.AperFunction,SMDPad,CuDef*
G36*
G01*
X183712500Y-84537500D02*
X183712500Y-85687500D01*
G75*
G02*
X183612500Y-85787500I-100000J0D01*
G01*
X183412500Y-85787500D01*
G75*
G02*
X183312500Y-85687500I0J100000D01*
G01*
X183312500Y-84537500D01*
G75*
G02*
X183412500Y-84437500I100000J0D01*
G01*
X183612500Y-84437500D01*
G75*
G02*
X183712500Y-84537500I0J-100000D01*
G01*
G37*
G04 #@! TD.AperFunction*
G04 #@! TA.AperFunction,SMDPad,CuDef*
G36*
G01*
X184212500Y-82387500D02*
X184212500Y-83537500D01*
G75*
G02*
X184112500Y-83637500I-100000J0D01*
G01*
X183912500Y-83637500D01*
G75*
G02*
X183812500Y-83537500I0J100000D01*
G01*
X183812500Y-82387500D01*
G75*
G02*
X183912500Y-82287500I100000J0D01*
G01*
X184112500Y-82287500D01*
G75*
G02*
X184212500Y-82387500I0J-100000D01*
G01*
G37*
G04 #@! TD.AperFunction*
G04 #@! TA.AperFunction,SMDPad,CuDef*
G36*
G01*
X184712500Y-84537500D02*
X184712500Y-85687500D01*
G75*
G02*
X184612500Y-85787500I-100000J0D01*
G01*
X184412500Y-85787500D01*
G75*
G02*
X184312500Y-85687500I0J100000D01*
G01*
X184312500Y-84537500D01*
G75*
G02*
X184412500Y-84437500I100000J0D01*
G01*
X184612500Y-84437500D01*
G75*
G02*
X184712500Y-84537500I0J-100000D01*
G01*
G37*
G04 #@! TD.AperFunction*
G04 #@! TA.AperFunction,SMDPad,CuDef*
G36*
G01*
X185212500Y-82387500D02*
X185212500Y-83537500D01*
G75*
G02*
X185112500Y-83637500I-100000J0D01*
G01*
X184912500Y-83637500D01*
G75*
G02*
X184812500Y-83537500I0J100000D01*
G01*
X184812500Y-82387500D01*
G75*
G02*
X184912500Y-82287500I100000J0D01*
G01*
X185112500Y-82287500D01*
G75*
G02*
X185212500Y-82387500I0J-100000D01*
G01*
G37*
G04 #@! TD.AperFunction*
G04 #@! TA.AperFunction,SMDPad,CuDef*
G36*
G01*
X185712500Y-84537500D02*
X185712500Y-85687500D01*
G75*
G02*
X185612500Y-85787500I-100000J0D01*
G01*
X185412500Y-85787500D01*
G75*
G02*
X185312500Y-85687500I0J100000D01*
G01*
X185312500Y-84537500D01*
G75*
G02*
X185412500Y-84437500I100000J0D01*
G01*
X185612500Y-84437500D01*
G75*
G02*
X185712500Y-84537500I0J-100000D01*
G01*
G37*
G04 #@! TD.AperFunction*
G04 #@! TA.AperFunction,SMDPad,CuDef*
G36*
G01*
X186212500Y-82387500D02*
X186212500Y-83537500D01*
G75*
G02*
X186112500Y-83637500I-100000J0D01*
G01*
X185912500Y-83637500D01*
G75*
G02*
X185812500Y-83537500I0J100000D01*
G01*
X185812500Y-82387500D01*
G75*
G02*
X185912500Y-82287500I100000J0D01*
G01*
X186112500Y-82287500D01*
G75*
G02*
X186212500Y-82387500I0J-100000D01*
G01*
G37*
G04 #@! TD.AperFunction*
G04 #@! TA.AperFunction,SMDPad,CuDef*
G36*
G01*
X186712500Y-84537500D02*
X186712500Y-85687500D01*
G75*
G02*
X186612500Y-85787500I-100000J0D01*
G01*
X186412500Y-85787500D01*
G75*
G02*
X186312500Y-85687500I0J100000D01*
G01*
X186312500Y-84537500D01*
G75*
G02*
X186412500Y-84437500I100000J0D01*
G01*
X186612500Y-84437500D01*
G75*
G02*
X186712500Y-84537500I0J-100000D01*
G01*
G37*
G04 #@! TD.AperFunction*
G04 #@! TA.AperFunction,SMDPad,CuDef*
G36*
G01*
X187212500Y-82387500D02*
X187212500Y-83537500D01*
G75*
G02*
X187112500Y-83637500I-100000J0D01*
G01*
X186912500Y-83637500D01*
G75*
G02*
X186812500Y-83537500I0J100000D01*
G01*
X186812500Y-82387500D01*
G75*
G02*
X186912500Y-82287500I100000J0D01*
G01*
X187112500Y-82287500D01*
G75*
G02*
X187212500Y-82387500I0J-100000D01*
G01*
G37*
G04 #@! TD.AperFunction*
G04 #@! TA.AperFunction,SMDPad,CuDef*
G36*
G01*
X189862500Y-83077500D02*
X189862500Y-84997500D01*
G75*
G02*
X189622500Y-85237500I-240000J0D01*
G01*
X187702500Y-85237500D01*
G75*
G02*
X187462500Y-84997500I0J240000D01*
G01*
X187462500Y-83077500D01*
G75*
G02*
X187702500Y-82837500I240000J0D01*
G01*
X189622500Y-82837500D01*
G75*
G02*
X189862500Y-83077500I0J-240000D01*
G01*
G37*
G04 #@! TD.AperFunction*
G04 #@! TA.AperFunction,SMDPad,CuDef*
G36*
G01*
X175062500Y-83077500D02*
X175062500Y-84997500D01*
G75*
G02*
X174822500Y-85237500I-240000J0D01*
G01*
X172902500Y-85237500D01*
G75*
G02*
X172662500Y-84997500I0J240000D01*
G01*
X172662500Y-83077500D01*
G75*
G02*
X172902500Y-82837500I240000J0D01*
G01*
X174822500Y-82837500D01*
G75*
G02*
X175062500Y-83077500I0J-240000D01*
G01*
G37*
G04 #@! TD.AperFunction*
X146302500Y-87667500D03*
X146302500Y-77507500D03*
X146302500Y-72427500D03*
X141222500Y-85127500D03*
G04 #@! TA.AperFunction,ComponentPad*
G36*
G01*
X170982500Y-121810001D02*
X170982500Y-118709999D01*
G75*
G02*
X171232499Y-118460000I249999J0D01*
G01*
X172812501Y-118460000D01*
G75*
G02*
X173062500Y-118709999I0J-249999D01*
G01*
X173062500Y-121810001D01*
G75*
G02*
X172812501Y-122060000I-249999J0D01*
G01*
X171232499Y-122060000D01*
G75*
G02*
X170982500Y-121810001I0J249999D01*
G01*
G37*
G04 #@! TD.AperFunction*
D12*
X177102500Y-120260000D03*
X182182500Y-120260000D03*
X187262500Y-120260000D03*
X192342500Y-120260000D03*
X197422500Y-120260000D03*
X202502500Y-120260000D03*
D11*
X162182500Y-94412500D03*
X162182500Y-104572500D03*
X162182500Y-109652500D03*
X167262500Y-96952500D03*
X183182500Y-94412500D03*
X183182500Y-104572500D03*
X183182500Y-109652500D03*
X188262500Y-96952500D03*
X190182500Y-94412500D03*
X190182500Y-104572500D03*
X190182500Y-109652500D03*
X195262500Y-96952500D03*
X160302500Y-87667500D03*
X160302500Y-77507500D03*
X160302500Y-72427500D03*
X155222500Y-85127500D03*
X139302500Y-87667500D03*
X139302500Y-77507500D03*
X139302500Y-72427500D03*
X134222500Y-85127500D03*
X134182500Y-94412500D03*
X134182500Y-104572500D03*
X134182500Y-109652500D03*
X139262500Y-96952500D03*
D14*
X179262500Y-67237500D03*
X194862500Y-88637500D03*
X176862500Y-89637500D03*
X190062500Y-79637500D03*
X191062500Y-89637500D03*
X194262500Y-85037500D03*
X179262500Y-68037500D03*
X179462500Y-77037500D03*
X193462500Y-79637500D03*
X186262500Y-80037500D03*
X176062500Y-77037500D03*
X195062500Y-86637500D03*
X183062500Y-79637500D03*
X170062500Y-89637500D03*
X188262500Y-82037500D03*
X173462500Y-89637500D03*
X180062500Y-71237500D03*
X179262500Y-71237500D03*
X187462500Y-89637500D03*
X194262500Y-83037500D03*
X183862500Y-89837500D03*
X180462500Y-89637500D03*
X184562997Y-73267000D03*
X180862500Y-71237500D03*
X173262500Y-76637500D03*
X180562000Y-74938000D03*
X185554540Y-74111848D03*
X192262500Y-84437500D03*
X192262500Y-83637500D03*
X187862500Y-74637500D03*
X174662500Y-82037500D03*
X167812500Y-87487500D03*
X173262500Y-81437500D03*
X174812500Y-87487500D03*
X171312500Y-87587500D03*
X191963000Y-88600000D03*
X188462500Y-88927000D03*
X181417376Y-89282624D03*
X184862500Y-89287000D03*
X182020213Y-80515347D03*
X171633000Y-78437500D03*
X178862500Y-79637500D03*
X175462500Y-78208000D03*
X185023000Y-74837500D03*
X183793799Y-80968799D03*
X178312500Y-87587500D03*
D15*
X187382500Y-79157500D02*
X187382500Y-81317500D01*
X187012500Y-81687500D02*
X187012500Y-82962500D01*
X183163000Y-74938000D02*
X187382500Y-79157500D01*
X187382500Y-81317500D02*
X187012500Y-81687500D01*
X180562000Y-74938000D02*
X183163000Y-74938000D01*
D16*
X185652500Y-74209808D02*
X185652500Y-76227500D01*
X188262500Y-80128384D02*
X191062500Y-82928384D01*
X188262500Y-78837500D02*
X188262500Y-80128384D01*
X191062500Y-82928384D02*
X191062500Y-84802007D01*
X185512500Y-85487500D02*
X185512500Y-85112500D01*
X185554540Y-74111848D02*
X185652500Y-74209808D01*
X189627007Y-86237500D02*
X186262500Y-86237500D01*
X185652500Y-76227500D02*
X188262500Y-78837500D01*
X191062500Y-84802007D02*
X189627007Y-86237500D01*
X186262500Y-86237500D02*
X185512500Y-85487500D01*
D17*
X190053647Y-87267500D02*
X192492500Y-87267500D01*
X193262500Y-88037500D02*
X193262500Y-94952500D01*
X192262500Y-84437500D02*
X192262500Y-83637500D01*
D18*
X127222500Y-88497500D02*
X130262500Y-91537500D01*
D17*
X192262500Y-83637500D02*
X192262500Y-83837500D01*
X192262500Y-85058647D02*
X192262500Y-84437500D01*
X190053647Y-87267500D02*
X192262500Y-85058647D01*
X185092500Y-87267500D02*
X190053647Y-87267500D01*
D18*
X130262500Y-91537500D02*
X130262500Y-94952500D01*
D19*
X187862500Y-77437500D02*
X187862500Y-74637500D01*
X188862500Y-78437500D02*
X187862500Y-77437500D01*
D15*
X184137500Y-85112500D02*
X184512500Y-85112500D01*
D17*
X184137500Y-86312500D02*
X185092500Y-87267500D01*
X184137500Y-85112500D02*
X184137500Y-86312500D01*
D19*
X188862500Y-79637500D02*
X188862500Y-78437500D01*
X192262500Y-83037500D02*
X188862500Y-79637500D01*
D17*
X192492500Y-87267500D02*
X193262500Y-88037500D01*
D18*
X130262500Y-94952500D02*
X132262500Y-96952500D01*
D15*
X183512500Y-85112500D02*
X184137500Y-85112500D01*
D18*
X127222500Y-85127500D02*
X127222500Y-88497500D01*
D19*
X192262500Y-83637500D02*
X192262500Y-83037500D01*
D17*
X193262500Y-94952500D02*
X195262500Y-96952500D01*
D20*
X127182500Y-104572500D02*
X134182500Y-104572500D01*
D16*
X175512500Y-82887500D02*
X175512500Y-85112500D01*
X174662500Y-82037500D02*
X175512500Y-82887500D01*
X176232500Y-86067500D02*
X169232500Y-86067500D01*
X176512500Y-85112500D02*
X176512500Y-85787500D01*
X176512500Y-85787500D02*
X176232500Y-86067500D01*
X169232500Y-86067500D02*
X167812500Y-87487500D01*
X175032500Y-81407500D02*
X176012500Y-82387500D01*
X176012500Y-82387500D02*
X176012500Y-82962500D01*
X174371545Y-81437500D02*
X174401545Y-81407500D01*
X173262500Y-81437500D02*
X174371545Y-81437500D01*
X174401545Y-81407500D02*
X175032500Y-81407500D01*
X177512500Y-86096616D02*
X176771616Y-86837500D01*
X176771616Y-86837500D02*
X175462500Y-86837500D01*
X175462500Y-86837500D02*
X174812500Y-87487500D01*
X177512500Y-85112500D02*
X177512500Y-86096616D01*
X176662500Y-86437500D02*
X172262500Y-86437500D01*
X172262500Y-86437500D02*
X171312500Y-87387500D01*
X176992500Y-86107500D02*
X176662500Y-86437500D01*
X177012500Y-82962500D02*
X176992500Y-82982500D01*
X176992500Y-82982500D02*
X176992500Y-86107500D01*
X171312500Y-87387500D02*
X171312500Y-87587500D01*
X182485099Y-88297500D02*
X191660500Y-88297500D01*
X180012500Y-82962500D02*
X180012500Y-85824901D01*
X191660500Y-88297500D02*
X191963000Y-88600000D01*
X180012500Y-85824901D02*
X182485099Y-88297500D01*
X182335982Y-88657500D02*
X186862500Y-88657500D01*
X186862500Y-88657500D02*
X187993000Y-88657500D01*
X179512500Y-85112500D02*
X179512500Y-85834018D01*
X188262500Y-88927000D02*
X188462500Y-88927000D01*
X179512500Y-85834018D02*
X182335982Y-88657500D01*
X187993000Y-88657500D02*
X188262500Y-88927000D01*
X178512500Y-85112500D02*
X178462500Y-85162500D01*
X178462500Y-85162500D02*
X178462500Y-86327748D01*
X178462500Y-86327748D02*
X181417376Y-89282624D01*
X178992500Y-82982500D02*
X178992500Y-85967500D01*
X179012500Y-82962500D02*
X178992500Y-82982500D01*
X184613000Y-89037500D02*
X184862500Y-89287000D01*
X178992500Y-85967500D02*
X182062500Y-89037500D01*
X182062500Y-89037500D02*
X184613000Y-89037500D01*
X182012500Y-82962500D02*
X182012500Y-80523060D01*
X182012500Y-80523060D02*
X182020213Y-80515347D01*
X171633000Y-78437500D02*
X171833000Y-78237500D01*
X171833000Y-78237500D02*
X174601045Y-78237500D01*
X175201545Y-78838000D02*
X178953955Y-78838000D01*
X174601045Y-78237500D02*
X175201545Y-78838000D01*
X178953955Y-78838000D02*
X181012500Y-80896545D01*
X181012500Y-80896545D02*
X181012500Y-82962500D01*
X180512500Y-81287500D02*
X178862500Y-79637500D01*
X180512500Y-85112500D02*
X180512500Y-81287500D01*
X181512500Y-85112500D02*
X181512500Y-80887500D01*
X181512500Y-80887500D02*
X179262500Y-78637500D01*
X178833000Y-78208000D02*
X175462500Y-78208000D01*
X179262500Y-78637500D02*
X178833000Y-78208000D01*
X185023000Y-74837500D02*
X185292500Y-75107000D01*
X190662500Y-84692891D02*
X189837891Y-85517500D01*
X185292500Y-75107000D02*
X185292500Y-76376616D01*
X187862500Y-78946616D02*
X187862500Y-80237500D01*
X187862500Y-80237500D02*
X190662500Y-83037500D01*
X186917500Y-85517500D02*
X186512500Y-85112500D01*
X189837891Y-85517500D02*
X186917500Y-85517500D01*
X185292500Y-76376616D02*
X187862500Y-78946616D01*
X190662500Y-83037500D02*
X190662500Y-84692891D01*
X182512500Y-82250099D02*
X182512500Y-85112500D01*
X183793799Y-80968799D02*
X182512500Y-82250099D01*
X178012500Y-82962500D02*
X178012500Y-87287500D01*
X178012500Y-87287500D02*
X178312500Y-87587500D01*
G04 #@! TA.AperFunction,Conductor*
G36*
X208026208Y-49107705D02*
G01*
X208334476Y-49166511D01*
X208632943Y-49263489D01*
X208916902Y-49397110D01*
X209181875Y-49565267D01*
X209423683Y-49765307D01*
X209638513Y-49994077D01*
X209822975Y-50247969D01*
X209974163Y-50522978D01*
X210089690Y-50814767D01*
X210167736Y-51118734D01*
X210207069Y-51430086D01*
X210212000Y-51587000D01*
X210212000Y-130488000D01*
X210192295Y-130801208D01*
X210133489Y-131109476D01*
X210036511Y-131407943D01*
X209902890Y-131691902D01*
X209734733Y-131956875D01*
X209534693Y-132198683D01*
X209305923Y-132413513D01*
X209052031Y-132597975D01*
X208777022Y-132749163D01*
X208485233Y-132864690D01*
X208181266Y-132942736D01*
X207869914Y-132982069D01*
X207713000Y-132987000D01*
X128812000Y-132987000D01*
X128498792Y-132967295D01*
X128190524Y-132908489D01*
X127892057Y-132811511D01*
X127608098Y-132677890D01*
X127343125Y-132509733D01*
X127101317Y-132309693D01*
X126886487Y-132080923D01*
X126702025Y-131827031D01*
X126550837Y-131552022D01*
X126435310Y-131260233D01*
X126357264Y-130956266D01*
X126317931Y-130644914D01*
X126313000Y-130488000D01*
X126313000Y-127536500D01*
X126332705Y-127223292D01*
X126391511Y-126915024D01*
X126488489Y-126616557D01*
X126622110Y-126332598D01*
X126790267Y-126067625D01*
X126990307Y-125825817D01*
X127219077Y-125610987D01*
X127472969Y-125426525D01*
X127747978Y-125275337D01*
X128039767Y-125159810D01*
X128343734Y-125081764D01*
X128655086Y-125042431D01*
X128812000Y-125037500D01*
X158762500Y-125037500D01*
X159047130Y-125017143D01*
X159325965Y-124956486D01*
X159383803Y-124934914D01*
X159383805Y-124934913D01*
X159519747Y-124884209D01*
X159519746Y-124884209D01*
X159593330Y-124856764D01*
X159843782Y-124720007D01*
X159906644Y-124672949D01*
X160009360Y-124596057D01*
X160009366Y-124596052D01*
X160072221Y-124548999D01*
X160273999Y-124347221D01*
X160445007Y-124118782D01*
X160581764Y-123868330D01*
X160609209Y-123794747D01*
X160654043Y-123674544D01*
X160654045Y-123674536D01*
X160681486Y-123600965D01*
X160742143Y-123322130D01*
X160762500Y-123037500D01*
X160762500Y-120536500D01*
X160782205Y-120223292D01*
X160841011Y-119915024D01*
X160937989Y-119616557D01*
X161071610Y-119332598D01*
X161239767Y-119067625D01*
X161439807Y-118825817D01*
X161668577Y-118610987D01*
X161922469Y-118426525D01*
X162197478Y-118275337D01*
X162489267Y-118159810D01*
X162793234Y-118081764D01*
X163104586Y-118042431D01*
X163261500Y-118037500D01*
X166263500Y-118037500D01*
X166576708Y-118057205D01*
X166884976Y-118116011D01*
X167183443Y-118212989D01*
X167467402Y-118346610D01*
X167732375Y-118514767D01*
X167974183Y-118714807D01*
X168189013Y-118943577D01*
X168373475Y-119197469D01*
X168524663Y-119472478D01*
X168640190Y-119764267D01*
X168718236Y-120068234D01*
X168757569Y-120379586D01*
X168762500Y-120536500D01*
X168762500Y-123037500D01*
X168782857Y-123322130D01*
X168843514Y-123600965D01*
X168865086Y-123658803D01*
X168865087Y-123658805D01*
X168907066Y-123771354D01*
X168943236Y-123868330D01*
X169079993Y-124118782D01*
X169116988Y-124168201D01*
X169116989Y-124168203D01*
X169203943Y-124284360D01*
X169203948Y-124284366D01*
X169251001Y-124347221D01*
X169452779Y-124548999D01*
X169681218Y-124720007D01*
X169808295Y-124789396D01*
X169862742Y-124819127D01*
X169862748Y-124819130D01*
X169931670Y-124856764D01*
X169989504Y-124878335D01*
X170125456Y-124929043D01*
X170125464Y-124929045D01*
X170199035Y-124956486D01*
X170477870Y-125017143D01*
X170539438Y-125021546D01*
X170539442Y-125021547D01*
X170701056Y-125033105D01*
X170762500Y-125037500D01*
X199262500Y-125037500D01*
X199547130Y-125017143D01*
X199825965Y-124956486D01*
X199883803Y-124934914D01*
X199883805Y-124934913D01*
X200019747Y-124884209D01*
X200019746Y-124884209D01*
X200093330Y-124856764D01*
X200343782Y-124720007D01*
X200406644Y-124672949D01*
X200509360Y-124596057D01*
X200509366Y-124596052D01*
X200572221Y-124548999D01*
X200773999Y-124347221D01*
X200945007Y-124118782D01*
X201081764Y-123868330D01*
X201109209Y-123794747D01*
X201154043Y-123674544D01*
X201154045Y-123674536D01*
X201181486Y-123600965D01*
X201242143Y-123322130D01*
X201262500Y-123037500D01*
X201262500Y-120072620D01*
X201282205Y-119759412D01*
X201341011Y-119451144D01*
X201437989Y-119152677D01*
X201571610Y-118868718D01*
X201739767Y-118603745D01*
X201939807Y-118361937D01*
X201994440Y-118305560D01*
X203676714Y-116623286D01*
X203849207Y-116426596D01*
X203994551Y-116209073D01*
X204110259Y-115974440D01*
X204194352Y-115726711D01*
X204245390Y-115470125D01*
X204262500Y-115209073D01*
X204262500Y-66865927D01*
X204245390Y-66604875D01*
X204194352Y-66348289D01*
X204110259Y-66100560D01*
X203994551Y-65865927D01*
X203849207Y-65648404D01*
X203676714Y-65451714D01*
X202494440Y-64269440D01*
X202286903Y-64034035D01*
X202110506Y-63774474D01*
X201968031Y-63494853D01*
X201861726Y-63199579D01*
X201793267Y-62893310D01*
X201763733Y-62580875D01*
X201762500Y-62502380D01*
X201762500Y-59037500D01*
X201742143Y-58752870D01*
X201681486Y-58474035D01*
X201654043Y-58400456D01*
X201609209Y-58280253D01*
X201581764Y-58206670D01*
X201445007Y-57956218D01*
X201397950Y-57893357D01*
X201321057Y-57790640D01*
X201321052Y-57790634D01*
X201273999Y-57727779D01*
X201072221Y-57526001D01*
X200843782Y-57354993D01*
X200716705Y-57285604D01*
X200662258Y-57255873D01*
X200662252Y-57255870D01*
X200593330Y-57218236D01*
X200519747Y-57190791D01*
X200399544Y-57145957D01*
X200399536Y-57145955D01*
X200325965Y-57118514D01*
X200047130Y-57057857D01*
X199985562Y-57053454D01*
X199985558Y-57053453D01*
X199807004Y-57040683D01*
X199807005Y-57040683D01*
X199762500Y-57037500D01*
X136262500Y-57037500D01*
X135977870Y-57057857D01*
X135699035Y-57118514D01*
X135641197Y-57140086D01*
X135641195Y-57140087D01*
X135625457Y-57145957D01*
X135431670Y-57218236D01*
X135181218Y-57354993D01*
X135131799Y-57391988D01*
X135131797Y-57391989D01*
X135015640Y-57478943D01*
X135015634Y-57478948D01*
X134952779Y-57526001D01*
X134751001Y-57727779D01*
X134579993Y-57956218D01*
X134443236Y-58206670D01*
X134421665Y-58264504D01*
X134370957Y-58400456D01*
X134370955Y-58400464D01*
X134343514Y-58474035D01*
X134282857Y-58752870D01*
X134262500Y-59037500D01*
X134262500Y-61538500D01*
X134242795Y-61851708D01*
X134183989Y-62159976D01*
X134087011Y-62458443D01*
X133953390Y-62742402D01*
X133785233Y-63007375D01*
X133585193Y-63249183D01*
X133356423Y-63464013D01*
X133102531Y-63648475D01*
X132827522Y-63799663D01*
X132535733Y-63915190D01*
X132231766Y-63993236D01*
X131920414Y-64032569D01*
X131763500Y-64037500D01*
X128812000Y-64037500D01*
X128498792Y-64017795D01*
X128190524Y-63958989D01*
X127892057Y-63862011D01*
X127608098Y-63728390D01*
X127343125Y-63560233D01*
X127101317Y-63360193D01*
X126886487Y-63131423D01*
X126702025Y-62877531D01*
X126550837Y-62602522D01*
X126435310Y-62310733D01*
X126357264Y-62006766D01*
X126317931Y-61695414D01*
X126313000Y-61538500D01*
X126313000Y-51587000D01*
X126332705Y-51273792D01*
X126391511Y-50965524D01*
X126488489Y-50667057D01*
X126622110Y-50383098D01*
X126790267Y-50118125D01*
X126990307Y-49876317D01*
X127219077Y-49661487D01*
X127472969Y-49477025D01*
X127747978Y-49325837D01*
X128039767Y-49210310D01*
X128343734Y-49132264D01*
X128655086Y-49092931D01*
X128812000Y-49088000D01*
X207713000Y-49088000D01*
X208026208Y-49107705D01*
G37*
G04 #@! TD.AperFunction*
G04 #@! TA.AperFunction,Conductor*
G36*
X183716836Y-65561954D02*
G01*
X183797618Y-65615930D01*
X195684070Y-77502382D01*
X195738046Y-77583164D01*
X195757000Y-77678452D01*
X195757000Y-94407716D01*
X195757438Y-94454547D01*
X195757446Y-94454975D01*
X195758204Y-94495505D01*
X195758311Y-94501245D01*
X195778101Y-94772146D01*
X195778529Y-94775493D01*
X195806467Y-94994026D01*
X195799749Y-95090948D01*
X195756453Y-95177922D01*
X195683169Y-95241707D01*
X195591053Y-95272592D01*
X195519456Y-95271364D01*
X195452592Y-95260475D01*
X195420238Y-95255205D01*
X195420234Y-95255205D01*
X195412980Y-95254023D01*
X195412979Y-95254023D01*
X195412236Y-95253902D01*
X195411124Y-95253721D01*
X195411123Y-95253721D01*
X195411160Y-95253493D01*
X195322388Y-95227617D01*
X195261298Y-95182823D01*
X194585931Y-94507457D01*
X194531954Y-94426675D01*
X194513000Y-94331387D01*
X194513000Y-88136417D01*
X194515130Y-88103915D01*
X194516952Y-88090077D01*
X194513276Y-88012125D01*
X194513000Y-88000397D01*
X194513000Y-87980870D01*
X194510923Y-87957598D01*
X194510215Y-87947218D01*
X194506960Y-87878181D01*
X194506959Y-87878175D01*
X194506437Y-87867102D01*
X194503960Y-87856289D01*
X194503202Y-87850754D01*
X194500179Y-87831665D01*
X194499197Y-87826204D01*
X194498211Y-87815161D01*
X194477044Y-87737788D01*
X194474509Y-87727694D01*
X194459078Y-87660318D01*
X194459078Y-87660317D01*
X194456603Y-87649512D01*
X194452255Y-87639318D01*
X194450546Y-87634058D01*
X194444172Y-87615755D01*
X194442234Y-87610545D01*
X194439308Y-87599849D01*
X194404777Y-87527453D01*
X194400486Y-87517949D01*
X194398041Y-87512216D01*
X194369024Y-87444187D01*
X194362940Y-87434925D01*
X194360310Y-87430020D01*
X194350828Y-87413192D01*
X194347980Y-87408377D01*
X194343208Y-87398371D01*
X194336740Y-87389369D01*
X194336733Y-87389358D01*
X194296399Y-87333228D01*
X194290491Y-87324632D01*
X194289207Y-87322676D01*
X194246469Y-87257615D01*
X194232392Y-87241815D01*
X194224761Y-87232290D01*
X194219420Y-87226102D01*
X194212948Y-87217095D01*
X194204428Y-87208838D01*
X194137453Y-87143935D01*
X194134666Y-87141192D01*
X193446680Y-86453206D01*
X193425213Y-86428727D01*
X193416710Y-86417646D01*
X193359000Y-86365134D01*
X193350510Y-86357036D01*
X193336694Y-86343220D01*
X193318771Y-86328234D01*
X193310946Y-86321409D01*
X193251607Y-86267414D01*
X193242211Y-86261520D01*
X193233381Y-86254817D01*
X193235314Y-86252270D01*
X193180195Y-86200177D01*
X193140498Y-86111502D01*
X193137757Y-86014385D01*
X193172390Y-85923613D01*
X193192217Y-85896339D01*
X193197099Y-85890500D01*
X193201762Y-85884923D01*
X193208587Y-85877098D01*
X193262586Y-85817754D01*
X193268478Y-85808362D01*
X193271833Y-85803942D01*
X193283222Y-85788266D01*
X193286384Y-85783716D01*
X193293497Y-85775209D01*
X193333245Y-85705523D01*
X193338556Y-85696648D01*
X193381207Y-85628657D01*
X193385344Y-85618366D01*
X193387864Y-85613420D01*
X193396294Y-85595981D01*
X193398602Y-85590940D01*
X193404095Y-85581310D01*
X193407795Y-85570861D01*
X193407798Y-85570855D01*
X193430869Y-85505706D01*
X193434554Y-85495954D01*
X193460327Y-85431839D01*
X193460328Y-85431836D01*
X193464466Y-85421542D01*
X193466716Y-85410679D01*
X193468317Y-85405375D01*
X193473534Y-85386689D01*
X193474907Y-85381341D01*
X193478608Y-85370890D01*
X193491568Y-85291752D01*
X193493468Y-85281500D01*
X193507883Y-85211893D01*
X193507884Y-85211886D01*
X193509733Y-85202957D01*
X193510952Y-85181818D01*
X193512295Y-85169651D01*
X193512891Y-85161541D01*
X193514682Y-85150601D01*
X193513031Y-85045496D01*
X193513000Y-85041585D01*
X193513000Y-83580870D01*
X193511915Y-83568707D01*
X193499197Y-83426205D01*
X193499196Y-83426201D01*
X193498211Y-83415161D01*
X193439308Y-83199849D01*
X193343208Y-82998371D01*
X193212948Y-82817095D01*
X193052646Y-82661751D01*
X192867368Y-82537250D01*
X192804261Y-82509548D01*
X192673125Y-82451983D01*
X192673122Y-82451982D01*
X192662971Y-82447526D01*
X192638482Y-82441647D01*
X192550253Y-82400971D01*
X192520543Y-82375597D01*
X189585930Y-79440984D01*
X189531954Y-79360202D01*
X189513000Y-79264914D01*
X189513000Y-78513993D01*
X189513280Y-78508064D01*
X189515260Y-78499204D01*
X189513123Y-78431197D01*
X189513000Y-78423376D01*
X189513000Y-78396575D01*
X189512022Y-78388829D01*
X189511809Y-78385445D01*
X189511441Y-78377646D01*
X189510590Y-78350592D01*
X189510098Y-78334931D01*
X189505726Y-78319883D01*
X189504613Y-78312854D01*
X189501305Y-78296879D01*
X189499535Y-78289984D01*
X189497571Y-78274442D01*
X189482939Y-78237486D01*
X189475339Y-78215288D01*
X189468617Y-78192149D01*
X189468615Y-78192145D01*
X189464245Y-78177102D01*
X189456272Y-78163620D01*
X189453442Y-78157081D01*
X189446271Y-78142444D01*
X189442834Y-78136191D01*
X189437068Y-78121629D01*
X189413695Y-78089458D01*
X189400826Y-78069866D01*
X189388556Y-78049118D01*
X189388552Y-78049113D01*
X189380581Y-78035635D01*
X189369510Y-78024564D01*
X189365149Y-78018942D01*
X189354567Y-78006552D01*
X189349675Y-78001343D01*
X189340463Y-77988663D01*
X189328391Y-77978676D01*
X189328388Y-77978673D01*
X189309837Y-77963327D01*
X189292485Y-77947539D01*
X188585930Y-77240984D01*
X188531954Y-77160202D01*
X188513000Y-77064914D01*
X188513000Y-75275675D01*
X188531954Y-75180387D01*
X188554450Y-75140217D01*
X188554359Y-75140165D01*
X188558358Y-75133239D01*
X188558367Y-75133223D01*
X188561259Y-75128215D01*
X188637223Y-74996640D01*
X188643750Y-74985335D01*
X188698997Y-74815303D01*
X188717685Y-74637500D01*
X188698997Y-74459697D01*
X188643750Y-74289665D01*
X188554359Y-74134835D01*
X188545629Y-74125139D01*
X188545625Y-74125134D01*
X188443456Y-74011665D01*
X188443455Y-74011664D01*
X188434730Y-74001974D01*
X188324152Y-73921633D01*
X188300650Y-73904558D01*
X188300649Y-73904557D01*
X188290093Y-73896888D01*
X188278167Y-73891578D01*
X188138689Y-73829479D01*
X188126767Y-73824171D01*
X187951891Y-73787000D01*
X187773109Y-73787000D01*
X187598233Y-73824171D01*
X187434908Y-73896888D01*
X187424351Y-73904558D01*
X187424346Y-73904561D01*
X187387405Y-73931401D01*
X187290270Y-74001974D01*
X187281538Y-74011672D01*
X187179375Y-74125134D01*
X187179371Y-74125139D01*
X187170641Y-74134835D01*
X187081250Y-74289665D01*
X187026003Y-74459697D01*
X187007315Y-74637500D01*
X187026003Y-74815303D01*
X187081250Y-74985335D01*
X187087777Y-74996640D01*
X187163742Y-75128215D01*
X187164715Y-75129901D01*
X187164716Y-75129903D01*
X187170641Y-75140165D01*
X187169698Y-75140709D01*
X187205121Y-75217550D01*
X187212000Y-75275675D01*
X187212000Y-76364909D01*
X187193046Y-76460197D01*
X187139070Y-76540979D01*
X187058288Y-76594955D01*
X186963000Y-76613909D01*
X186867712Y-76594955D01*
X186786930Y-76540979D01*
X186305930Y-76059979D01*
X186251954Y-75979197D01*
X186233000Y-75883909D01*
X186233000Y-74704439D01*
X186251954Y-74609151D01*
X186266360Y-74579939D01*
X186329263Y-74470988D01*
X186335790Y-74459683D01*
X186391037Y-74289651D01*
X186409725Y-74111848D01*
X186391037Y-73934045D01*
X186335790Y-73764013D01*
X186246399Y-73609183D01*
X186237669Y-73599487D01*
X186237665Y-73599482D01*
X186135496Y-73486013D01*
X186135495Y-73486012D01*
X186126770Y-73476322D01*
X186075852Y-73439327D01*
X185992690Y-73378906D01*
X185992689Y-73378905D01*
X185982133Y-73371236D01*
X185970207Y-73365926D01*
X185830729Y-73303827D01*
X185818807Y-73298519D01*
X185643931Y-73261348D01*
X185465149Y-73261348D01*
X185290273Y-73298519D01*
X185126948Y-73371236D01*
X185116391Y-73378906D01*
X185116386Y-73378909D01*
X185055518Y-73423133D01*
X184982310Y-73476322D01*
X184973578Y-73486020D01*
X184871415Y-73599482D01*
X184871411Y-73599487D01*
X184862681Y-73609183D01*
X184773290Y-73764013D01*
X184769257Y-73776426D01*
X184734707Y-73882760D01*
X184718043Y-73934045D01*
X184717777Y-73936572D01*
X184681647Y-74020666D01*
X184612053Y-74088459D01*
X184605978Y-74092182D01*
X184595408Y-74096888D01*
X184450770Y-74201974D01*
X184435469Y-74218967D01*
X184339875Y-74325134D01*
X184339871Y-74325139D01*
X184331141Y-74334835D01*
X184241750Y-74489665D01*
X184237717Y-74502078D01*
X184235761Y-74508097D01*
X184188288Y-74592864D01*
X184111991Y-74653012D01*
X184018483Y-74679383D01*
X183922002Y-74667964D01*
X183837235Y-74620491D01*
X183822878Y-74607221D01*
X183681535Y-74465878D01*
X183669967Y-74453494D01*
X183664538Y-74447270D01*
X183635169Y-74413604D01*
X183622889Y-74404973D01*
X183622885Y-74404970D01*
X183586159Y-74379159D01*
X183575691Y-74371385D01*
X183528543Y-74334416D01*
X183514859Y-74328238D01*
X183513771Y-74327579D01*
X183511887Y-74326348D01*
X183509852Y-74325345D01*
X183508740Y-74324749D01*
X183496453Y-74316113D01*
X183440638Y-74294351D01*
X183428634Y-74289305D01*
X183387693Y-74270820D01*
X183387691Y-74270819D01*
X183374016Y-74264645D01*
X183359268Y-74261911D01*
X183358035Y-74261525D01*
X183355920Y-74260783D01*
X183353730Y-74260299D01*
X183352470Y-74259976D01*
X183338487Y-74254524D01*
X183289045Y-74248015D01*
X183279084Y-74246704D01*
X183266206Y-74244664D01*
X183222075Y-74236485D01*
X183207308Y-74233748D01*
X183192319Y-74234612D01*
X183192316Y-74234612D01*
X183149394Y-74237087D01*
X183135062Y-74237500D01*
X181123060Y-74237500D01*
X181027772Y-74218546D01*
X180999576Y-74204641D01*
X180989593Y-74197388D01*
X180977677Y-74192083D01*
X180977674Y-74192081D01*
X180838189Y-74129979D01*
X180826267Y-74124671D01*
X180651391Y-74087500D01*
X180472609Y-74087500D01*
X180297733Y-74124671D01*
X180134408Y-74197388D01*
X180123851Y-74205058D01*
X180123846Y-74205061D01*
X180058464Y-74252565D01*
X179989770Y-74302474D01*
X179981038Y-74312172D01*
X179878875Y-74425634D01*
X179878871Y-74425639D01*
X179870141Y-74435335D01*
X179780750Y-74590165D01*
X179725503Y-74760197D01*
X179706815Y-74938000D01*
X179725503Y-75115803D01*
X179780750Y-75285835D01*
X179870141Y-75440665D01*
X179878871Y-75450361D01*
X179878875Y-75450366D01*
X179981044Y-75563835D01*
X179989770Y-75573526D01*
X180000316Y-75581188D01*
X180000318Y-75581190D01*
X180105286Y-75657454D01*
X180134407Y-75678612D01*
X180297733Y-75751329D01*
X180472609Y-75788500D01*
X180651391Y-75788500D01*
X180826267Y-75751329D01*
X180843661Y-75743585D01*
X180977674Y-75683919D01*
X180977677Y-75683917D01*
X180989593Y-75678612D01*
X180999172Y-75671652D01*
X181090558Y-75640630D01*
X181123060Y-75638500D01*
X182769704Y-75638500D01*
X182864992Y-75657454D01*
X182945774Y-75711430D01*
X186609070Y-79374727D01*
X186663046Y-79455509D01*
X186682000Y-79550797D01*
X186682000Y-80924203D01*
X186663046Y-81019491D01*
X186609070Y-81100273D01*
X186540372Y-81168971D01*
X186527988Y-81180538D01*
X186488104Y-81215331D01*
X186479470Y-81227616D01*
X186453659Y-81264341D01*
X186445888Y-81274805D01*
X186408916Y-81321957D01*
X186402738Y-81335641D01*
X186402079Y-81336729D01*
X186400848Y-81338613D01*
X186399845Y-81340648D01*
X186399249Y-81341760D01*
X186390613Y-81354047D01*
X186369997Y-81406923D01*
X186368855Y-81409853D01*
X186363805Y-81421866D01*
X186345320Y-81462807D01*
X186339145Y-81476484D01*
X186336411Y-81491232D01*
X186336025Y-81492465D01*
X186335283Y-81494580D01*
X186334799Y-81496770D01*
X186334476Y-81498030D01*
X186329024Y-81512013D01*
X186324024Y-81549997D01*
X186321204Y-81571416D01*
X186319164Y-81584294D01*
X186315452Y-81604325D01*
X186308248Y-81643192D01*
X186309112Y-81658181D01*
X186309112Y-81658184D01*
X186311587Y-81701106D01*
X186312000Y-81715438D01*
X186312000Y-83005016D01*
X186312001Y-83005020D01*
X186312001Y-83576860D01*
X186313065Y-83584941D01*
X186313065Y-83584944D01*
X186322708Y-83658191D01*
X186327456Y-83694262D01*
X186328614Y-83697057D01*
X186334384Y-83785126D01*
X186303153Y-83877124D01*
X186239094Y-83950168D01*
X186182805Y-83982666D01*
X186109659Y-84012964D01*
X186108191Y-84009419D01*
X186044979Y-84030871D01*
X185948033Y-84024508D01*
X185916047Y-84011259D01*
X185915341Y-84012964D01*
X185769262Y-83952456D01*
X185753085Y-83950326D01*
X185753084Y-83950326D01*
X185727847Y-83947004D01*
X185651861Y-83937000D01*
X185512535Y-83937000D01*
X185373140Y-83937001D01*
X185365060Y-83938065D01*
X185365055Y-83938065D01*
X185328169Y-83942921D01*
X185255738Y-83952456D01*
X185109659Y-84012964D01*
X185108191Y-84009419D01*
X185044979Y-84030871D01*
X184948033Y-84024508D01*
X184916047Y-84011259D01*
X184915341Y-84012964D01*
X184769262Y-83952456D01*
X184753085Y-83950326D01*
X184753084Y-83950326D01*
X184719573Y-83945914D01*
X184651861Y-83937000D01*
X184618664Y-83937000D01*
X184542548Y-83924535D01*
X184537971Y-83922526D01*
X184422812Y-83894879D01*
X184331700Y-83873004D01*
X184331697Y-83873004D01*
X184320915Y-83870415D01*
X184159615Y-83861115D01*
X184109130Y-83858204D01*
X184109128Y-83858204D01*
X184098062Y-83857566D01*
X183876456Y-83884383D01*
X183774467Y-83915759D01*
X183738367Y-83926864D01*
X183651861Y-83936988D01*
X183651861Y-83937000D01*
X183512543Y-83937000D01*
X183373140Y-83937001D01*
X183365055Y-83938065D01*
X183358286Y-83938509D01*
X183261962Y-83925828D01*
X183177823Y-83877250D01*
X183118679Y-83800172D01*
X183093533Y-83706328D01*
X183093000Y-83690042D01*
X183093000Y-82593689D01*
X183111954Y-82498401D01*
X183165930Y-82417620D01*
X183691319Y-81892230D01*
X183772101Y-81838253D01*
X183857233Y-81821319D01*
X183857164Y-81820663D01*
X183864305Y-81819913D01*
X183867389Y-81819299D01*
X183883190Y-81819299D01*
X184058066Y-81782128D01*
X184126258Y-81751767D01*
X184209468Y-81714720D01*
X184209469Y-81714719D01*
X184221392Y-81709411D01*
X184257684Y-81683043D01*
X184355481Y-81611989D01*
X184355483Y-81611987D01*
X184366029Y-81604325D01*
X184384065Y-81584294D01*
X184476924Y-81481165D01*
X184476928Y-81481160D01*
X184485658Y-81471464D01*
X184575049Y-81316634D01*
X184630296Y-81146602D01*
X184648984Y-80968799D01*
X184630296Y-80790996D01*
X184575049Y-80620964D01*
X184485658Y-80466134D01*
X184476928Y-80456438D01*
X184476924Y-80456433D01*
X184374755Y-80342964D01*
X184374754Y-80342963D01*
X184366029Y-80333273D01*
X184293656Y-80280690D01*
X184231949Y-80235857D01*
X184231948Y-80235856D01*
X184221392Y-80228187D01*
X184209466Y-80222877D01*
X184069988Y-80160778D01*
X184058066Y-80155470D01*
X183883190Y-80118299D01*
X183704408Y-80118299D01*
X183529532Y-80155470D01*
X183366207Y-80228187D01*
X183355650Y-80235857D01*
X183355645Y-80235860D01*
X183293943Y-80280690D01*
X183221569Y-80333273D01*
X183219225Y-80335876D01*
X183140125Y-80382935D01*
X183043975Y-80396876D01*
X182949810Y-80372960D01*
X182871964Y-80314830D01*
X182820195Y-80225162D01*
X182805497Y-80179927D01*
X182805497Y-80179926D01*
X182801463Y-80167512D01*
X182712072Y-80012682D01*
X182703342Y-80002986D01*
X182703338Y-80002981D01*
X182601169Y-79889512D01*
X182601168Y-79889511D01*
X182592443Y-79879821D01*
X182552412Y-79850736D01*
X182458363Y-79782405D01*
X182458362Y-79782404D01*
X182447806Y-79774735D01*
X182435880Y-79769425D01*
X182296402Y-79707326D01*
X182284480Y-79702018D01*
X182109604Y-79664847D01*
X181930822Y-79664847D01*
X181755946Y-79702018D01*
X181592621Y-79774735D01*
X181554650Y-79802323D01*
X181549253Y-79806244D01*
X181461023Y-79846920D01*
X181363943Y-79850736D01*
X181272793Y-79817110D01*
X181226822Y-79780871D01*
X179281914Y-77835963D01*
X179260440Y-77811476D01*
X179256954Y-77806933D01*
X179247017Y-77793983D01*
X179216574Y-77770623D01*
X179216572Y-77770621D01*
X179138705Y-77710871D01*
X179138702Y-77710869D01*
X179125754Y-77700934D01*
X178984541Y-77642442D01*
X178984533Y-77642441D01*
X178967109Y-77640147D01*
X178871057Y-77627501D01*
X178871050Y-77627500D01*
X178871045Y-77627500D01*
X178871033Y-77627499D01*
X178854861Y-77625370D01*
X178833000Y-77622492D01*
X178816820Y-77624622D01*
X178816818Y-77624622D01*
X178811136Y-77625370D01*
X178778639Y-77627500D01*
X176189387Y-77627500D01*
X176094099Y-77608546D01*
X176035421Y-77571522D01*
X176034730Y-77572474D01*
X175900650Y-77475058D01*
X175900649Y-77475057D01*
X175890093Y-77467388D01*
X175878167Y-77462078D01*
X175738689Y-77399979D01*
X175726767Y-77394671D01*
X175551891Y-77357500D01*
X175373109Y-77357500D01*
X175198233Y-77394671D01*
X175034908Y-77467388D01*
X175024351Y-77475058D01*
X175024346Y-77475061D01*
X174986743Y-77502382D01*
X174890270Y-77572474D01*
X174881536Y-77582174D01*
X174871840Y-77590904D01*
X174870699Y-77589637D01*
X174805415Y-77638383D01*
X174711249Y-77662295D01*
X174665724Y-77660506D01*
X174649730Y-77658400D01*
X174639092Y-77657000D01*
X174639087Y-77657000D01*
X174639078Y-77656999D01*
X174622906Y-77654870D01*
X174601045Y-77651992D01*
X174584865Y-77654122D01*
X174584863Y-77654122D01*
X174579181Y-77654870D01*
X174546684Y-77657000D01*
X172023928Y-77657000D01*
X171922652Y-77635473D01*
X171909189Y-77629479D01*
X171897267Y-77624171D01*
X171884508Y-77621459D01*
X171884505Y-77621458D01*
X171809829Y-77605585D01*
X171722391Y-77587000D01*
X171543609Y-77587000D01*
X171368733Y-77624171D01*
X171205408Y-77696888D01*
X171194851Y-77704558D01*
X171194846Y-77704561D01*
X171124898Y-77755382D01*
X171060770Y-77801974D01*
X171052038Y-77811672D01*
X170949875Y-77925134D01*
X170949871Y-77925139D01*
X170941141Y-77934835D01*
X170851750Y-78089665D01*
X170796503Y-78259697D01*
X170777815Y-78437500D01*
X170796503Y-78615303D01*
X170851750Y-78785335D01*
X170941141Y-78940165D01*
X170949871Y-78949861D01*
X170949875Y-78949866D01*
X171052044Y-79063335D01*
X171060770Y-79073026D01*
X171205407Y-79178112D01*
X171368733Y-79250829D01*
X171543609Y-79288000D01*
X171722391Y-79288000D01*
X171897267Y-79250829D01*
X172060593Y-79178112D01*
X172205230Y-79073026D01*
X172324859Y-78940165D01*
X172331384Y-78928863D01*
X172337357Y-78920642D01*
X172408700Y-78854693D01*
X172499850Y-78821066D01*
X172538803Y-78818000D01*
X174257454Y-78818000D01*
X174352742Y-78836954D01*
X174433524Y-78890930D01*
X174752631Y-79210037D01*
X174774105Y-79234524D01*
X174787528Y-79252017D01*
X174800478Y-79261954D01*
X174800481Y-79261957D01*
X174817967Y-79275375D01*
X174817973Y-79275379D01*
X174851030Y-79300744D01*
X174851031Y-79300746D01*
X174895841Y-79335130D01*
X174895846Y-79335133D01*
X174908791Y-79345066D01*
X175008643Y-79386426D01*
X175050003Y-79403558D01*
X175066743Y-79405762D01*
X175163498Y-79418500D01*
X175163500Y-79418500D01*
X175163510Y-79418501D01*
X175185364Y-79421378D01*
X175185365Y-79421378D01*
X175201545Y-79423508D01*
X175217725Y-79421378D01*
X175217727Y-79421378D01*
X175223409Y-79420630D01*
X175255906Y-79418500D01*
X177760096Y-79418500D01*
X177855384Y-79437454D01*
X177936166Y-79491430D01*
X177990142Y-79572212D01*
X178007732Y-79641472D01*
X178026003Y-79815303D01*
X178081250Y-79985335D01*
X178170641Y-80140165D01*
X178179371Y-80149861D01*
X178179375Y-80149866D01*
X178256805Y-80235860D01*
X178290270Y-80273026D01*
X178300816Y-80280688D01*
X178300818Y-80280690D01*
X178386530Y-80342964D01*
X178434907Y-80378112D01*
X178598233Y-80450829D01*
X178773109Y-80488000D01*
X178788909Y-80488000D01*
X178791992Y-80488613D01*
X178799135Y-80489364D01*
X178799066Y-80490020D01*
X178884197Y-80506954D01*
X178964979Y-80560930D01*
X179810972Y-81406923D01*
X179864948Y-81487705D01*
X179883902Y-81582993D01*
X179864948Y-81678281D01*
X179810972Y-81759063D01*
X179730190Y-81813038D01*
X179710199Y-81821319D01*
X179609658Y-81862964D01*
X179608190Y-81859420D01*
X179544979Y-81880871D01*
X179448033Y-81874508D01*
X179416047Y-81861259D01*
X179415341Y-81862964D01*
X179269262Y-81802456D01*
X179253085Y-81800326D01*
X179253084Y-81800326D01*
X179225085Y-81796640D01*
X179151861Y-81787000D01*
X179012535Y-81787000D01*
X178873140Y-81787001D01*
X178865060Y-81788065D01*
X178865055Y-81788065D01*
X178810259Y-81795279D01*
X178755738Y-81802456D01*
X178609659Y-81862964D01*
X178608191Y-81859419D01*
X178544979Y-81880871D01*
X178448033Y-81874508D01*
X178416047Y-81861259D01*
X178415341Y-81862964D01*
X178269262Y-81802456D01*
X178253085Y-81800326D01*
X178253084Y-81800326D01*
X178225085Y-81796640D01*
X178151861Y-81787000D01*
X178012535Y-81787000D01*
X177873140Y-81787001D01*
X177865060Y-81788065D01*
X177865055Y-81788065D01*
X177810259Y-81795279D01*
X177755738Y-81802456D01*
X177609659Y-81862964D01*
X177608191Y-81859419D01*
X177544979Y-81880871D01*
X177448033Y-81874508D01*
X177416047Y-81861259D01*
X177415341Y-81862964D01*
X177269262Y-81802456D01*
X177253085Y-81800326D01*
X177253084Y-81800326D01*
X177225085Y-81796640D01*
X177151861Y-81787000D01*
X177012535Y-81787000D01*
X176873140Y-81787001D01*
X176865060Y-81788065D01*
X176865055Y-81788065D01*
X176810259Y-81795279D01*
X176755738Y-81802456D01*
X176609659Y-81862964D01*
X176608191Y-81859419D01*
X176544979Y-81880871D01*
X176448033Y-81874508D01*
X176416047Y-81861259D01*
X176415341Y-81862964D01*
X176279421Y-81806664D01*
X176198639Y-81752688D01*
X175481414Y-81035463D01*
X175459940Y-81010976D01*
X175456454Y-81006433D01*
X175446517Y-80993483D01*
X175416073Y-80970122D01*
X175416072Y-80970121D01*
X175384822Y-80946142D01*
X175338205Y-80910371D01*
X175338202Y-80910369D01*
X175325254Y-80900434D01*
X175184041Y-80841942D01*
X175184033Y-80841941D01*
X175166609Y-80839647D01*
X175070557Y-80827001D01*
X175070550Y-80827000D01*
X175070545Y-80827000D01*
X175070533Y-80826999D01*
X175054361Y-80824870D01*
X175032500Y-80821992D01*
X175016320Y-80824122D01*
X175016318Y-80824122D01*
X175010636Y-80824870D01*
X174978139Y-80827000D01*
X174455906Y-80827000D01*
X174423406Y-80824870D01*
X174401545Y-80821992D01*
X174385365Y-80824122D01*
X174385364Y-80824122D01*
X174363510Y-80826999D01*
X174363501Y-80827000D01*
X174363498Y-80827000D01*
X174266743Y-80839738D01*
X174250003Y-80841942D01*
X174234927Y-80848187D01*
X174233702Y-80848515D01*
X174169254Y-80857000D01*
X173989387Y-80857000D01*
X173894099Y-80838046D01*
X173835421Y-80801022D01*
X173834730Y-80801974D01*
X173700650Y-80704558D01*
X173700649Y-80704557D01*
X173690093Y-80696888D01*
X173678167Y-80691578D01*
X173538689Y-80629479D01*
X173526767Y-80624171D01*
X173351891Y-80587000D01*
X173173109Y-80587000D01*
X172998233Y-80624171D01*
X172834908Y-80696888D01*
X172824351Y-80704558D01*
X172824346Y-80704561D01*
X172754398Y-80755382D01*
X172690270Y-80801974D01*
X172681538Y-80811672D01*
X172579375Y-80925134D01*
X172579371Y-80925139D01*
X172570641Y-80934835D01*
X172481250Y-81089665D01*
X172426003Y-81259697D01*
X172407315Y-81437500D01*
X172426003Y-81615303D01*
X172481250Y-81785335D01*
X172570641Y-81940165D01*
X172579371Y-81949861D01*
X172579375Y-81949866D01*
X172681544Y-82063335D01*
X172690270Y-82073026D01*
X172700816Y-82080688D01*
X172700818Y-82080690D01*
X172815248Y-82163829D01*
X172834907Y-82178112D01*
X172998233Y-82250829D01*
X173173109Y-82288000D01*
X173351891Y-82288000D01*
X173526767Y-82250829D01*
X173546398Y-82242089D01*
X173641156Y-82220645D01*
X173736908Y-82237097D01*
X173819075Y-82288939D01*
X173875150Y-82368281D01*
X173877218Y-82372926D01*
X173881250Y-82385335D01*
X173887774Y-82396635D01*
X173887775Y-82396637D01*
X173914584Y-82443071D01*
X173970641Y-82540165D01*
X173979371Y-82549861D01*
X173979375Y-82549866D01*
X174018834Y-82593689D01*
X174090270Y-82673026D01*
X174234907Y-82778112D01*
X174398233Y-82850829D01*
X174573109Y-82888000D01*
X174588909Y-82888000D01*
X174591992Y-82888613D01*
X174599135Y-82889364D01*
X174599066Y-82890020D01*
X174684197Y-82906954D01*
X174764979Y-82960930D01*
X174859070Y-83055021D01*
X174913046Y-83135803D01*
X174932000Y-83231091D01*
X174932000Y-84095928D01*
X174913046Y-84191216D01*
X174898640Y-84220429D01*
X174897901Y-84221708D01*
X174887964Y-84234659D01*
X174827456Y-84380738D01*
X174812000Y-84498139D01*
X174812001Y-84937000D01*
X174812001Y-85238000D01*
X174793047Y-85333288D01*
X174739071Y-85414069D01*
X174658289Y-85468046D01*
X174563001Y-85487000D01*
X169286861Y-85487000D01*
X169254361Y-85484870D01*
X169232500Y-85481992D01*
X169216320Y-85484122D01*
X169216319Y-85484122D01*
X169194465Y-85486999D01*
X169194456Y-85487000D01*
X169194453Y-85487000D01*
X169097698Y-85499738D01*
X169080958Y-85501942D01*
X169063603Y-85509131D01*
X168939746Y-85560434D01*
X168926801Y-85570367D01*
X168926796Y-85570370D01*
X168888342Y-85599877D01*
X168888341Y-85599879D01*
X168848928Y-85630121D01*
X168848922Y-85630125D01*
X168831436Y-85643543D01*
X168831433Y-85643546D01*
X168818483Y-85653483D01*
X168808546Y-85666433D01*
X168805060Y-85670976D01*
X168783586Y-85695463D01*
X167914979Y-86564070D01*
X167834197Y-86618046D01*
X167749066Y-86634980D01*
X167749135Y-86635636D01*
X167741992Y-86636387D01*
X167738909Y-86637000D01*
X167723109Y-86637000D01*
X167548233Y-86674171D01*
X167384908Y-86746888D01*
X167374351Y-86754558D01*
X167374346Y-86754561D01*
X167347356Y-86774171D01*
X167240270Y-86851974D01*
X167231538Y-86861672D01*
X167129375Y-86975134D01*
X167129371Y-86975139D01*
X167120641Y-86984835D01*
X167031250Y-87139665D01*
X166976003Y-87309697D01*
X166957315Y-87487500D01*
X166976003Y-87665303D01*
X167031250Y-87835335D01*
X167120641Y-87990165D01*
X167129371Y-87999861D01*
X167129375Y-87999866D01*
X167223062Y-88103915D01*
X167240270Y-88123026D01*
X167250816Y-88130688D01*
X167250818Y-88130690D01*
X167364568Y-88213335D01*
X167384907Y-88228112D01*
X167396830Y-88233420D01*
X167396831Y-88233421D01*
X167454633Y-88259156D01*
X167548233Y-88300829D01*
X167723109Y-88338000D01*
X167901891Y-88338000D01*
X168076767Y-88300829D01*
X168170367Y-88259156D01*
X168228169Y-88233421D01*
X168228170Y-88233420D01*
X168240093Y-88228112D01*
X168260432Y-88213335D01*
X168374182Y-88130690D01*
X168374184Y-88130688D01*
X168384730Y-88123026D01*
X168401938Y-88103915D01*
X168495625Y-87999866D01*
X168495629Y-87999861D01*
X168504359Y-87990165D01*
X168593750Y-87835335D01*
X168648997Y-87665303D01*
X168656929Y-87589839D01*
X168662489Y-87536938D01*
X168691300Y-87444153D01*
X168734055Y-87386896D01*
X169400021Y-86720930D01*
X169480803Y-86666954D01*
X169576091Y-86648000D01*
X170454706Y-86648000D01*
X170549994Y-86666954D01*
X170630776Y-86720930D01*
X170684752Y-86801712D01*
X170703706Y-86897000D01*
X170684752Y-86992288D01*
X170639748Y-87063615D01*
X170620641Y-87084835D01*
X170531250Y-87239665D01*
X170476003Y-87409697D01*
X170457315Y-87587500D01*
X170476003Y-87765303D01*
X170531250Y-87935335D01*
X170620641Y-88090165D01*
X170629371Y-88099861D01*
X170629375Y-88099866D01*
X170731544Y-88213335D01*
X170740270Y-88223026D01*
X170750816Y-88230688D01*
X170750818Y-88230690D01*
X170874350Y-88320442D01*
X170884907Y-88328112D01*
X170896830Y-88333420D01*
X170896831Y-88333421D01*
X171021881Y-88389096D01*
X171048233Y-88400829D01*
X171223109Y-88438000D01*
X171401891Y-88438000D01*
X171576767Y-88400829D01*
X171603119Y-88389096D01*
X171728169Y-88333421D01*
X171728170Y-88333420D01*
X171740093Y-88328112D01*
X171750650Y-88320442D01*
X171874182Y-88230690D01*
X171874184Y-88230688D01*
X171884730Y-88223026D01*
X171893456Y-88213335D01*
X171995625Y-88099866D01*
X171995629Y-88099861D01*
X172004359Y-88090165D01*
X172093750Y-87935335D01*
X172148997Y-87765303D01*
X172167685Y-87587500D01*
X172157822Y-87493661D01*
X172166712Y-87396913D01*
X172211948Y-87310932D01*
X172229388Y-87291563D01*
X172430021Y-87090930D01*
X172510803Y-87036954D01*
X172606091Y-87018000D01*
X173731910Y-87018000D01*
X173827198Y-87036954D01*
X173907980Y-87090930D01*
X173961956Y-87171712D01*
X173980910Y-87267000D01*
X173976623Y-87307789D01*
X173976003Y-87309697D01*
X173974639Y-87322672D01*
X173974639Y-87322673D01*
X173968487Y-87381210D01*
X173957315Y-87487500D01*
X173976003Y-87665303D01*
X174031250Y-87835335D01*
X174120641Y-87990165D01*
X174129371Y-87999861D01*
X174129375Y-87999866D01*
X174223062Y-88103915D01*
X174240270Y-88123026D01*
X174250816Y-88130688D01*
X174250818Y-88130690D01*
X174364568Y-88213335D01*
X174384907Y-88228112D01*
X174396830Y-88233420D01*
X174396831Y-88233421D01*
X174454633Y-88259156D01*
X174548233Y-88300829D01*
X174723109Y-88338000D01*
X174901891Y-88338000D01*
X175076767Y-88300829D01*
X175170367Y-88259156D01*
X175228169Y-88233421D01*
X175228170Y-88233420D01*
X175240093Y-88228112D01*
X175260432Y-88213335D01*
X175374182Y-88130690D01*
X175374184Y-88130688D01*
X175384730Y-88123026D01*
X175401938Y-88103915D01*
X175495625Y-87999866D01*
X175495629Y-87999861D01*
X175504359Y-87990165D01*
X175593750Y-87835335D01*
X175648997Y-87665303D01*
X175651554Y-87640975D01*
X175680363Y-87548190D01*
X175742487Y-87473493D01*
X175828467Y-87428255D01*
X175899190Y-87418000D01*
X176717255Y-87418000D01*
X176749754Y-87420130D01*
X176771616Y-87423008D01*
X176809650Y-87418001D01*
X176809661Y-87418000D01*
X176809666Y-87418000D01*
X176809673Y-87417999D01*
X176906979Y-87405188D01*
X176906980Y-87405188D01*
X176923157Y-87403058D01*
X176938232Y-87396814D01*
X176938235Y-87396813D01*
X177049292Y-87350812D01*
X177049295Y-87350810D01*
X177064370Y-87344566D01*
X177077316Y-87334632D01*
X177086941Y-87329075D01*
X177178940Y-87297846D01*
X177275887Y-87304201D01*
X177363023Y-87347172D01*
X177427081Y-87420217D01*
X177458310Y-87512216D01*
X177459076Y-87570740D01*
X177458679Y-87574518D01*
X177457315Y-87587500D01*
X177476003Y-87765303D01*
X177531250Y-87935335D01*
X177620641Y-88090165D01*
X177629371Y-88099861D01*
X177629375Y-88099866D01*
X177731544Y-88213335D01*
X177740270Y-88223026D01*
X177750816Y-88230688D01*
X177750818Y-88230690D01*
X177874350Y-88320442D01*
X177884907Y-88328112D01*
X177896830Y-88333420D01*
X177896831Y-88333421D01*
X178021881Y-88389096D01*
X178048233Y-88400829D01*
X178223109Y-88438000D01*
X178401891Y-88438000D01*
X178576767Y-88400829D01*
X178603119Y-88389096D01*
X178728169Y-88333421D01*
X178728170Y-88333420D01*
X178740093Y-88328112D01*
X178750650Y-88320442D01*
X178874182Y-88230690D01*
X178874184Y-88230688D01*
X178884730Y-88223026D01*
X178893456Y-88213335D01*
X178995628Y-88099862D01*
X178995629Y-88099861D01*
X179004359Y-88090165D01*
X179004890Y-88089246D01*
X179071513Y-88027656D01*
X179162662Y-87994027D01*
X179259742Y-87997838D01*
X179347974Y-88038511D01*
X179377691Y-88063890D01*
X180495821Y-89182020D01*
X180549797Y-89262802D01*
X180567387Y-89332062D01*
X180570586Y-89362499D01*
X180580879Y-89460427D01*
X180636126Y-89630459D01*
X180725517Y-89785289D01*
X180734247Y-89794985D01*
X180734251Y-89794990D01*
X180770365Y-89835098D01*
X180845146Y-89918150D01*
X180989783Y-90023236D01*
X181153109Y-90095953D01*
X181327985Y-90133124D01*
X181506767Y-90133124D01*
X181681643Y-90095953D01*
X181844969Y-90023236D01*
X181989606Y-89918150D01*
X182064387Y-89835098D01*
X182100501Y-89794990D01*
X182100505Y-89794985D01*
X182109235Y-89785289D01*
X182133940Y-89742499D01*
X182197997Y-89669456D01*
X182285132Y-89626485D01*
X182349579Y-89618000D01*
X183927770Y-89618000D01*
X184023058Y-89636954D01*
X184103840Y-89690930D01*
X184143409Y-89742498D01*
X184170641Y-89789665D01*
X184179371Y-89799361D01*
X184179375Y-89799366D01*
X184211549Y-89835098D01*
X184290270Y-89922526D01*
X184434907Y-90027612D01*
X184598233Y-90100329D01*
X184773109Y-90137500D01*
X184951891Y-90137500D01*
X185126767Y-90100329D01*
X185290093Y-90027612D01*
X185434730Y-89922526D01*
X185513451Y-89835098D01*
X185545625Y-89799366D01*
X185545629Y-89799361D01*
X185554359Y-89789665D01*
X185643750Y-89634835D01*
X185698997Y-89464803D01*
X185700361Y-89451823D01*
X185703074Y-89439061D01*
X185706007Y-89439684D01*
X185728221Y-89368168D01*
X185790352Y-89293477D01*
X185876337Y-89248248D01*
X185947036Y-89238000D01*
X187516223Y-89238000D01*
X187611511Y-89256954D01*
X187692293Y-89310930D01*
X187731862Y-89362498D01*
X187770641Y-89429665D01*
X187779371Y-89439361D01*
X187779375Y-89439366D01*
X187813455Y-89477215D01*
X187890270Y-89562526D01*
X187900816Y-89570188D01*
X187900818Y-89570190D01*
X188024350Y-89659942D01*
X188034907Y-89667612D01*
X188198233Y-89740329D01*
X188373109Y-89777500D01*
X188551891Y-89777500D01*
X188726767Y-89740329D01*
X188890093Y-89667612D01*
X188900650Y-89659942D01*
X189024182Y-89570190D01*
X189024184Y-89570188D01*
X189034730Y-89562526D01*
X189111545Y-89477215D01*
X189145625Y-89439366D01*
X189145629Y-89439361D01*
X189154359Y-89429665D01*
X189243750Y-89274835D01*
X189298997Y-89104803D01*
X189300361Y-89091823D01*
X189303074Y-89079061D01*
X189306007Y-89079684D01*
X189328221Y-89008168D01*
X189390352Y-88933477D01*
X189476337Y-88888248D01*
X189547036Y-88878000D01*
X190997671Y-88878000D01*
X191092959Y-88896954D01*
X191173741Y-88950930D01*
X191213307Y-89002494D01*
X191271141Y-89102665D01*
X191279871Y-89112361D01*
X191279875Y-89112366D01*
X191382044Y-89225835D01*
X191390770Y-89235526D01*
X191401316Y-89243188D01*
X191401318Y-89243190D01*
X191523639Y-89332062D01*
X191535407Y-89340612D01*
X191698733Y-89413329D01*
X191711494Y-89416042D01*
X191711499Y-89416043D01*
X191775588Y-89429665D01*
X191814770Y-89437993D01*
X191904034Y-89476344D01*
X191971828Y-89545936D01*
X192007830Y-89636174D01*
X192012000Y-89681552D01*
X192012000Y-93268270D01*
X191993046Y-93363558D01*
X191939070Y-93444340D01*
X191858288Y-93498316D01*
X191763000Y-93517270D01*
X191667712Y-93498316D01*
X191586930Y-93444340D01*
X191567457Y-93422425D01*
X191445478Y-93267696D01*
X191445469Y-93267686D01*
X191439755Y-93260438D01*
X191255660Y-93087258D01*
X191248081Y-93082000D01*
X191248077Y-93081997D01*
X191055583Y-92948459D01*
X191055581Y-92948458D01*
X191047989Y-92943191D01*
X191039700Y-92939103D01*
X191039696Y-92939101D01*
X190829591Y-92835489D01*
X190829589Y-92835488D01*
X190821305Y-92831403D01*
X190737678Y-92804634D01*
X190589386Y-92757165D01*
X190589379Y-92757163D01*
X190580587Y-92754349D01*
X190458636Y-92734488D01*
X190340239Y-92715205D01*
X190340233Y-92715204D01*
X190331124Y-92713721D01*
X190321894Y-92713600D01*
X190321892Y-92713600D01*
X190148201Y-92711327D01*
X190078396Y-92710413D01*
X190069241Y-92711659D01*
X190069240Y-92711659D01*
X189837107Y-92743250D01*
X189837101Y-92743251D01*
X189827955Y-92744496D01*
X189585303Y-92815223D01*
X189576924Y-92819086D01*
X189576918Y-92819088D01*
X189366245Y-92916210D01*
X189355770Y-92921039D01*
X189144399Y-93059620D01*
X189137510Y-93065769D01*
X189137507Y-93065771D01*
X189106345Y-93093584D01*
X188955833Y-93227921D01*
X188794215Y-93422246D01*
X188771957Y-93458926D01*
X188667884Y-93630432D01*
X188667881Y-93630438D01*
X188663095Y-93638325D01*
X188659526Y-93646836D01*
X188659524Y-93646840D01*
X188568930Y-93862883D01*
X188565354Y-93871411D01*
X188503139Y-94116383D01*
X188477816Y-94367861D01*
X188489943Y-94620320D01*
X188539252Y-94868213D01*
X188542375Y-94876911D01*
X188557633Y-94919410D01*
X188571993Y-95015498D01*
X188548489Y-95109767D01*
X188490699Y-95187865D01*
X188407420Y-95237903D01*
X188320023Y-95252529D01*
X188158396Y-95250413D01*
X188149241Y-95251659D01*
X188149240Y-95251659D01*
X187917107Y-95283250D01*
X187917101Y-95283251D01*
X187907955Y-95284496D01*
X187665303Y-95355223D01*
X187656924Y-95359086D01*
X187656918Y-95359088D01*
X187449544Y-95454689D01*
X187435770Y-95461039D01*
X187361072Y-95510013D01*
X187248155Y-95584045D01*
X187224399Y-95599620D01*
X187217510Y-95605769D01*
X187217507Y-95605771D01*
X187084192Y-95724759D01*
X187035833Y-95767921D01*
X186874215Y-95962246D01*
X186838429Y-96021219D01*
X186747884Y-96170432D01*
X186747881Y-96170438D01*
X186743095Y-96178325D01*
X186739526Y-96186836D01*
X186739524Y-96186840D01*
X186708417Y-96261023D01*
X186645354Y-96411411D01*
X186583139Y-96656383D01*
X186557816Y-96907861D01*
X186569943Y-97160320D01*
X186619252Y-97408213D01*
X186622373Y-97416905D01*
X186622373Y-97416906D01*
X186632173Y-97444200D01*
X186704660Y-97646095D01*
X186709032Y-97654232D01*
X186709034Y-97654236D01*
X186773358Y-97773947D01*
X186824292Y-97868740D01*
X186975518Y-98071256D01*
X187155017Y-98249196D01*
X187162469Y-98254660D01*
X187259929Y-98326120D01*
X187358846Y-98398649D01*
X187367010Y-98402945D01*
X187367016Y-98402948D01*
X187475892Y-98460230D01*
X187582526Y-98516333D01*
X187821144Y-98599662D01*
X188069458Y-98646806D01*
X188078680Y-98647168D01*
X188078686Y-98647169D01*
X188195736Y-98651768D01*
X188322013Y-98656729D01*
X188331188Y-98655724D01*
X188331193Y-98655724D01*
X188564077Y-98630219D01*
X188564081Y-98630218D01*
X188573260Y-98629213D01*
X188817681Y-98564863D01*
X189049905Y-98465091D01*
X189057757Y-98460232D01*
X189057761Y-98460230D01*
X189256972Y-98336954D01*
X189264831Y-98332091D01*
X189457738Y-98168783D01*
X189543268Y-98071256D01*
X189618302Y-97985696D01*
X189618303Y-97985694D01*
X189624388Y-97978756D01*
X189761119Y-97766184D01*
X189864928Y-97535736D01*
X189933534Y-97292476D01*
X189965431Y-97041747D01*
X189967768Y-96952500D01*
X189949037Y-96700445D01*
X189893256Y-96453928D01*
X189889907Y-96445316D01*
X189887206Y-96436481D01*
X189889548Y-96435765D01*
X189875459Y-96355875D01*
X189896485Y-96261023D01*
X189952208Y-96181436D01*
X190034146Y-96129233D01*
X190134176Y-96112492D01*
X190242013Y-96116729D01*
X190251188Y-96115724D01*
X190251193Y-96115724D01*
X190484077Y-96090219D01*
X190484081Y-96090218D01*
X190493260Y-96089213D01*
X190737681Y-96024863D01*
X190969905Y-95925091D01*
X190977757Y-95920232D01*
X190977761Y-95920230D01*
X191100034Y-95844565D01*
X191184831Y-95792091D01*
X191377738Y-95628783D01*
X191392784Y-95611627D01*
X191538302Y-95445696D01*
X191538303Y-95445694D01*
X191544388Y-95438756D01*
X191549382Y-95430992D01*
X191549389Y-95430983D01*
X191630526Y-95304842D01*
X191698015Y-95234954D01*
X191787113Y-95196214D01*
X191884253Y-95194519D01*
X191974647Y-95230127D01*
X192044535Y-95297616D01*
X192068979Y-95341851D01*
X192072077Y-95349114D01*
X192080825Y-95374235D01*
X192082766Y-95379454D01*
X192085692Y-95390151D01*
X192116476Y-95454689D01*
X192120218Y-95462535D01*
X192124511Y-95472044D01*
X192151624Y-95535611D01*
X192151627Y-95535616D01*
X192155976Y-95545813D01*
X192162062Y-95555078D01*
X192164691Y-95559981D01*
X192174167Y-95576799D01*
X192177018Y-95581620D01*
X192181792Y-95591629D01*
X192188263Y-95600634D01*
X192188264Y-95600636D01*
X192228600Y-95656769D01*
X192234507Y-95665364D01*
X192273013Y-95723983D01*
X192278531Y-95732384D01*
X192284604Y-95739200D01*
X192284606Y-95739203D01*
X192292614Y-95748192D01*
X192300260Y-95757735D01*
X192305579Y-95763897D01*
X192312052Y-95772905D01*
X192385999Y-95844565D01*
X192387547Y-95846065D01*
X192390334Y-95848808D01*
X193495260Y-96953734D01*
X193549236Y-97034516D01*
X193567903Y-97117856D01*
X193569943Y-97160320D01*
X193619252Y-97408213D01*
X193622373Y-97416905D01*
X193622373Y-97416906D01*
X193632173Y-97444200D01*
X193704660Y-97646095D01*
X193709032Y-97654232D01*
X193709034Y-97654236D01*
X193773358Y-97773947D01*
X193824292Y-97868740D01*
X193975518Y-98071256D01*
X194155017Y-98249196D01*
X194162469Y-98254660D01*
X194259929Y-98326120D01*
X194358846Y-98398649D01*
X194367010Y-98402945D01*
X194367016Y-98402948D01*
X194475892Y-98460230D01*
X194582526Y-98516333D01*
X194821144Y-98599662D01*
X195069458Y-98646806D01*
X195078680Y-98647168D01*
X195078686Y-98647169D01*
X195195736Y-98651768D01*
X195322013Y-98656729D01*
X195331188Y-98655724D01*
X195331193Y-98655724D01*
X195456749Y-98641973D01*
X195534060Y-98633506D01*
X195630843Y-98641973D01*
X195717021Y-98686835D01*
X195779471Y-98761259D01*
X195808686Y-98853918D01*
X195807273Y-98918873D01*
X195787752Y-99045809D01*
X195787750Y-99045826D01*
X195787158Y-99049675D01*
X195767086Y-99272693D01*
X195766961Y-99275482D01*
X195766121Y-99294176D01*
X195742909Y-99388518D01*
X195685361Y-99466795D01*
X195602239Y-99517091D01*
X195517372Y-99532000D01*
X129262000Y-99532000D01*
X129093453Y-99537676D01*
X128925796Y-99548980D01*
X128847370Y-99555506D01*
X128842526Y-99556296D01*
X128842522Y-99556296D01*
X128767820Y-99568471D01*
X128536824Y-99606120D01*
X128533020Y-99606988D01*
X128533011Y-99606990D01*
X128436120Y-99629105D01*
X128318519Y-99655946D01*
X128187830Y-99689502D01*
X127891313Y-99794754D01*
X127685413Y-99882760D01*
X127616472Y-99914448D01*
X127567905Y-99936771D01*
X127567898Y-99936775D01*
X127562828Y-99939105D01*
X127557991Y-99941878D01*
X127557982Y-99941883D01*
X127293261Y-100093666D01*
X127289869Y-100095611D01*
X127102992Y-100218967D01*
X126992421Y-100296307D01*
X126751795Y-100499037D01*
X126589948Y-100653780D01*
X126579790Y-100664030D01*
X126498913Y-100745636D01*
X126498907Y-100745643D01*
X126494989Y-100749596D01*
X126453854Y-100799319D01*
X126378514Y-100860655D01*
X126285433Y-100888492D01*
X126188784Y-100878589D01*
X126103281Y-100832455D01*
X126041942Y-100757111D01*
X126014105Y-100664030D01*
X126013000Y-100640597D01*
X126013000Y-96131146D01*
X126031954Y-96035858D01*
X126085930Y-95955076D01*
X126166712Y-95901100D01*
X126262000Y-95882146D01*
X126357288Y-95901100D01*
X126377938Y-95910784D01*
X126490759Y-95970142D01*
X126502526Y-95976333D01*
X126741144Y-96059662D01*
X126989458Y-96106806D01*
X126998680Y-96107168D01*
X126998686Y-96107169D01*
X127115736Y-96111768D01*
X127242013Y-96116729D01*
X127251188Y-96115724D01*
X127251193Y-96115724D01*
X127484077Y-96090219D01*
X127484081Y-96090218D01*
X127493260Y-96089213D01*
X127737681Y-96024863D01*
X127969905Y-95925091D01*
X127977757Y-95920232D01*
X127977761Y-95920230D01*
X128100034Y-95844565D01*
X128184831Y-95792091D01*
X128377738Y-95628783D01*
X128392784Y-95611627D01*
X128478547Y-95513833D01*
X128555626Y-95454689D01*
X128649470Y-95429544D01*
X128745794Y-95442226D01*
X128829933Y-95490803D01*
X128891791Y-95573565D01*
X128892199Y-95574448D01*
X128895711Y-95584045D01*
X128900744Y-95592940D01*
X128900745Y-95592943D01*
X128911316Y-95611627D01*
X128922940Y-95634941D01*
X128935572Y-95663993D01*
X128941123Y-95672573D01*
X128974381Y-95723983D01*
X128982033Y-95736619D01*
X129010040Y-95786120D01*
X129017212Y-95798797D01*
X129023626Y-95806746D01*
X129023632Y-95806755D01*
X129037111Y-95823460D01*
X129052388Y-95844564D01*
X129069595Y-95871161D01*
X129076471Y-95878717D01*
X129076472Y-95878719D01*
X129094847Y-95898912D01*
X129114245Y-95920230D01*
X129117667Y-95923991D01*
X129127272Y-95935197D01*
X129144417Y-95956445D01*
X129171145Y-95983173D01*
X129179243Y-95991663D01*
X129235654Y-96053658D01*
X129252642Y-96067074D01*
X129274380Y-96086407D01*
X130592737Y-97404764D01*
X130646713Y-97485546D01*
X130651020Y-97496694D01*
X130690363Y-97606274D01*
X130704660Y-97646095D01*
X130709032Y-97654232D01*
X130709034Y-97654236D01*
X130773358Y-97773947D01*
X130824292Y-97868740D01*
X130975518Y-98071256D01*
X131155017Y-98249196D01*
X131162469Y-98254660D01*
X131259929Y-98326120D01*
X131358846Y-98398649D01*
X131367010Y-98402945D01*
X131367016Y-98402948D01*
X131475892Y-98460230D01*
X131582526Y-98516333D01*
X131821144Y-98599662D01*
X132069458Y-98646806D01*
X132078680Y-98647168D01*
X132078686Y-98647169D01*
X132195736Y-98651768D01*
X132322013Y-98656729D01*
X132331188Y-98655724D01*
X132331193Y-98655724D01*
X132564077Y-98630219D01*
X132564081Y-98630218D01*
X132573260Y-98629213D01*
X132817681Y-98564863D01*
X133049905Y-98465091D01*
X133057757Y-98460232D01*
X133057761Y-98460230D01*
X133256972Y-98336954D01*
X133264831Y-98332091D01*
X133457738Y-98168783D01*
X133543268Y-98071256D01*
X133618302Y-97985696D01*
X133618303Y-97985694D01*
X133624388Y-97978756D01*
X133761119Y-97766184D01*
X133864928Y-97535736D01*
X133933534Y-97292476D01*
X133965431Y-97041747D01*
X133967768Y-96952500D01*
X133964451Y-96907861D01*
X137557816Y-96907861D01*
X137569943Y-97160320D01*
X137619252Y-97408213D01*
X137622373Y-97416905D01*
X137622373Y-97416906D01*
X137632173Y-97444200D01*
X137704660Y-97646095D01*
X137709032Y-97654232D01*
X137709034Y-97654236D01*
X137773358Y-97773947D01*
X137824292Y-97868740D01*
X137975518Y-98071256D01*
X138155017Y-98249196D01*
X138162469Y-98254660D01*
X138259929Y-98326120D01*
X138358846Y-98398649D01*
X138367010Y-98402945D01*
X138367016Y-98402948D01*
X138475892Y-98460230D01*
X138582526Y-98516333D01*
X138821144Y-98599662D01*
X139069458Y-98646806D01*
X139078680Y-98647168D01*
X139078686Y-98647169D01*
X139195736Y-98651768D01*
X139322013Y-98656729D01*
X139331188Y-98655724D01*
X139331193Y-98655724D01*
X139564077Y-98630219D01*
X139564081Y-98630218D01*
X139573260Y-98629213D01*
X139817681Y-98564863D01*
X140049905Y-98465091D01*
X140057757Y-98460232D01*
X140057761Y-98460230D01*
X140256972Y-98336954D01*
X140264831Y-98332091D01*
X140457738Y-98168783D01*
X140543268Y-98071256D01*
X140618302Y-97985696D01*
X140618303Y-97985694D01*
X140624388Y-97978756D01*
X140761119Y-97766184D01*
X140864928Y-97535736D01*
X140933534Y-97292476D01*
X140965431Y-97041747D01*
X140967768Y-96952500D01*
X140964451Y-96907861D01*
X144557816Y-96907861D01*
X144569943Y-97160320D01*
X144619252Y-97408213D01*
X144622373Y-97416905D01*
X144622373Y-97416906D01*
X144632173Y-97444200D01*
X144704660Y-97646095D01*
X144709032Y-97654232D01*
X144709034Y-97654236D01*
X144773358Y-97773947D01*
X144824292Y-97868740D01*
X144975518Y-98071256D01*
X145155017Y-98249196D01*
X145162469Y-98254660D01*
X145259929Y-98326120D01*
X145358846Y-98398649D01*
X145367010Y-98402945D01*
X145367016Y-98402948D01*
X145475892Y-98460230D01*
X145582526Y-98516333D01*
X145821144Y-98599662D01*
X146069458Y-98646806D01*
X146078680Y-98647168D01*
X146078686Y-98647169D01*
X146195736Y-98651768D01*
X146322013Y-98656729D01*
X146331188Y-98655724D01*
X146331193Y-98655724D01*
X146564077Y-98630219D01*
X146564081Y-98630218D01*
X146573260Y-98629213D01*
X146817681Y-98564863D01*
X147049905Y-98465091D01*
X147057757Y-98460232D01*
X147057761Y-98460230D01*
X147256972Y-98336954D01*
X147264831Y-98332091D01*
X147457738Y-98168783D01*
X147543268Y-98071256D01*
X147618302Y-97985696D01*
X147618303Y-97985694D01*
X147624388Y-97978756D01*
X147761119Y-97766184D01*
X147864928Y-97535736D01*
X147933534Y-97292476D01*
X147965431Y-97041747D01*
X147967768Y-96952500D01*
X147964451Y-96907861D01*
X151557816Y-96907861D01*
X151569943Y-97160320D01*
X151619252Y-97408213D01*
X151622373Y-97416905D01*
X151622373Y-97416906D01*
X151632173Y-97444200D01*
X151704660Y-97646095D01*
X151709032Y-97654232D01*
X151709034Y-97654236D01*
X151773358Y-97773947D01*
X151824292Y-97868740D01*
X151975518Y-98071256D01*
X152155017Y-98249196D01*
X152162469Y-98254660D01*
X152259929Y-98326120D01*
X152358846Y-98398649D01*
X152367010Y-98402945D01*
X152367016Y-98402948D01*
X152475892Y-98460230D01*
X152582526Y-98516333D01*
X152821144Y-98599662D01*
X153069458Y-98646806D01*
X153078680Y-98647168D01*
X153078686Y-98647169D01*
X153195736Y-98651768D01*
X153322013Y-98656729D01*
X153331188Y-98655724D01*
X153331193Y-98655724D01*
X153564077Y-98630219D01*
X153564081Y-98630218D01*
X153573260Y-98629213D01*
X153817681Y-98564863D01*
X154049905Y-98465091D01*
X154057757Y-98460232D01*
X154057761Y-98460230D01*
X154256972Y-98336954D01*
X154264831Y-98332091D01*
X154457738Y-98168783D01*
X154543268Y-98071256D01*
X154618302Y-97985696D01*
X154618303Y-97985694D01*
X154624388Y-97978756D01*
X154761119Y-97766184D01*
X154864928Y-97535736D01*
X154933534Y-97292476D01*
X154965431Y-97041747D01*
X154967768Y-96952500D01*
X154964451Y-96907861D01*
X158557816Y-96907861D01*
X158569943Y-97160320D01*
X158619252Y-97408213D01*
X158622373Y-97416905D01*
X158622373Y-97416906D01*
X158632173Y-97444200D01*
X158704660Y-97646095D01*
X158709032Y-97654232D01*
X158709034Y-97654236D01*
X158773358Y-97773947D01*
X158824292Y-97868740D01*
X158975518Y-98071256D01*
X159155017Y-98249196D01*
X159162469Y-98254660D01*
X159259929Y-98326120D01*
X159358846Y-98398649D01*
X159367010Y-98402945D01*
X159367016Y-98402948D01*
X159475892Y-98460230D01*
X159582526Y-98516333D01*
X159821144Y-98599662D01*
X160069458Y-98646806D01*
X160078680Y-98647168D01*
X160078686Y-98647169D01*
X160195736Y-98651768D01*
X160322013Y-98656729D01*
X160331188Y-98655724D01*
X160331193Y-98655724D01*
X160564077Y-98630219D01*
X160564081Y-98630218D01*
X160573260Y-98629213D01*
X160817681Y-98564863D01*
X161049905Y-98465091D01*
X161057757Y-98460232D01*
X161057761Y-98460230D01*
X161256972Y-98336954D01*
X161264831Y-98332091D01*
X161457738Y-98168783D01*
X161543268Y-98071256D01*
X161618302Y-97985696D01*
X161618303Y-97985694D01*
X161624388Y-97978756D01*
X161761119Y-97766184D01*
X161864928Y-97535736D01*
X161933534Y-97292476D01*
X161965431Y-97041747D01*
X161967768Y-96952500D01*
X161964451Y-96907861D01*
X165557816Y-96907861D01*
X165569943Y-97160320D01*
X165619252Y-97408213D01*
X165622373Y-97416905D01*
X165622373Y-97416906D01*
X165632173Y-97444200D01*
X165704660Y-97646095D01*
X165709032Y-97654232D01*
X165709034Y-97654236D01*
X165773358Y-97773947D01*
X165824292Y-97868740D01*
X165975518Y-98071256D01*
X166155017Y-98249196D01*
X166162469Y-98254660D01*
X166259929Y-98326120D01*
X166358846Y-98398649D01*
X166367010Y-98402945D01*
X166367016Y-98402948D01*
X166475892Y-98460230D01*
X166582526Y-98516333D01*
X166821144Y-98599662D01*
X167069458Y-98646806D01*
X167078680Y-98647168D01*
X167078686Y-98647169D01*
X167195736Y-98651768D01*
X167322013Y-98656729D01*
X167331188Y-98655724D01*
X167331193Y-98655724D01*
X167564077Y-98630219D01*
X167564081Y-98630218D01*
X167573260Y-98629213D01*
X167817681Y-98564863D01*
X168049905Y-98465091D01*
X168057757Y-98460232D01*
X168057761Y-98460230D01*
X168256972Y-98336954D01*
X168264831Y-98332091D01*
X168457738Y-98168783D01*
X168543268Y-98071256D01*
X168618302Y-97985696D01*
X168618303Y-97985694D01*
X168624388Y-97978756D01*
X168761119Y-97766184D01*
X168864928Y-97535736D01*
X168933534Y-97292476D01*
X168965431Y-97041747D01*
X168967768Y-96952500D01*
X168964451Y-96907861D01*
X172557816Y-96907861D01*
X172569943Y-97160320D01*
X172619252Y-97408213D01*
X172622373Y-97416905D01*
X172622373Y-97416906D01*
X172632173Y-97444200D01*
X172704660Y-97646095D01*
X172709032Y-97654232D01*
X172709034Y-97654236D01*
X172773358Y-97773947D01*
X172824292Y-97868740D01*
X172975518Y-98071256D01*
X173155017Y-98249196D01*
X173162469Y-98254660D01*
X173259929Y-98326120D01*
X173358846Y-98398649D01*
X173367010Y-98402945D01*
X173367016Y-98402948D01*
X173475892Y-98460230D01*
X173582526Y-98516333D01*
X173821144Y-98599662D01*
X174069458Y-98646806D01*
X174078680Y-98647168D01*
X174078686Y-98647169D01*
X174195736Y-98651768D01*
X174322013Y-98656729D01*
X174331188Y-98655724D01*
X174331193Y-98655724D01*
X174564077Y-98630219D01*
X174564081Y-98630218D01*
X174573260Y-98629213D01*
X174817681Y-98564863D01*
X175049905Y-98465091D01*
X175057757Y-98460232D01*
X175057761Y-98460230D01*
X175256972Y-98336954D01*
X175264831Y-98332091D01*
X175457738Y-98168783D01*
X175543268Y-98071256D01*
X175618302Y-97985696D01*
X175618303Y-97985694D01*
X175624388Y-97978756D01*
X175761119Y-97766184D01*
X175864928Y-97535736D01*
X175933534Y-97292476D01*
X175965431Y-97041747D01*
X175967768Y-96952500D01*
X175964451Y-96907861D01*
X179557816Y-96907861D01*
X179569943Y-97160320D01*
X179619252Y-97408213D01*
X179622373Y-97416905D01*
X179622373Y-97416906D01*
X179632173Y-97444200D01*
X179704660Y-97646095D01*
X179709032Y-97654232D01*
X179709034Y-97654236D01*
X179773358Y-97773947D01*
X179824292Y-97868740D01*
X179975518Y-98071256D01*
X180155017Y-98249196D01*
X180162469Y-98254660D01*
X180259929Y-98326120D01*
X180358846Y-98398649D01*
X180367010Y-98402945D01*
X180367016Y-98402948D01*
X180475892Y-98460230D01*
X180582526Y-98516333D01*
X180821144Y-98599662D01*
X181069458Y-98646806D01*
X181078680Y-98647168D01*
X181078686Y-98647169D01*
X181195736Y-98651768D01*
X181322013Y-98656729D01*
X181331188Y-98655724D01*
X181331193Y-98655724D01*
X181564077Y-98630219D01*
X181564081Y-98630218D01*
X181573260Y-98629213D01*
X181817681Y-98564863D01*
X182049905Y-98465091D01*
X182057757Y-98460232D01*
X182057761Y-98460230D01*
X182256972Y-98336954D01*
X182264831Y-98332091D01*
X182457738Y-98168783D01*
X182543268Y-98071256D01*
X182618302Y-97985696D01*
X182618303Y-97985694D01*
X182624388Y-97978756D01*
X182761119Y-97766184D01*
X182864928Y-97535736D01*
X182933534Y-97292476D01*
X182965431Y-97041747D01*
X182967768Y-96952500D01*
X182949037Y-96700445D01*
X182893256Y-96453928D01*
X182889907Y-96445316D01*
X182887206Y-96436481D01*
X182889548Y-96435765D01*
X182875459Y-96355875D01*
X182896485Y-96261023D01*
X182952208Y-96181436D01*
X183034146Y-96129233D01*
X183134176Y-96112492D01*
X183242013Y-96116729D01*
X183251188Y-96115724D01*
X183251193Y-96115724D01*
X183484077Y-96090219D01*
X183484081Y-96090218D01*
X183493260Y-96089213D01*
X183737681Y-96024863D01*
X183969905Y-95925091D01*
X183977757Y-95920232D01*
X183977761Y-95920230D01*
X184100034Y-95844565D01*
X184184831Y-95792091D01*
X184377738Y-95628783D01*
X184392784Y-95611627D01*
X184538302Y-95445696D01*
X184538303Y-95445694D01*
X184544388Y-95438756D01*
X184681119Y-95226184D01*
X184694620Y-95196214D01*
X184781135Y-95004156D01*
X184784928Y-94995736D01*
X184853534Y-94752476D01*
X184885431Y-94501747D01*
X184886680Y-94454068D01*
X184887605Y-94418740D01*
X184887605Y-94418732D01*
X184887768Y-94412500D01*
X184881740Y-94331387D01*
X184869722Y-94169662D01*
X184869722Y-94169661D01*
X184869037Y-94160445D01*
X184813256Y-93913928D01*
X184721650Y-93678363D01*
X184596231Y-93458926D01*
X184590519Y-93451680D01*
X184590514Y-93451673D01*
X184445471Y-93267688D01*
X184445467Y-93267684D01*
X184439755Y-93260438D01*
X184255660Y-93087258D01*
X184248081Y-93082000D01*
X184248077Y-93081997D01*
X184055583Y-92948459D01*
X184055581Y-92948458D01*
X184047989Y-92943191D01*
X184039700Y-92939103D01*
X184039696Y-92939101D01*
X183829591Y-92835489D01*
X183829589Y-92835488D01*
X183821305Y-92831403D01*
X183737678Y-92804634D01*
X183589386Y-92757165D01*
X183589379Y-92757163D01*
X183580587Y-92754349D01*
X183458636Y-92734488D01*
X183340239Y-92715205D01*
X183340233Y-92715204D01*
X183331124Y-92713721D01*
X183321894Y-92713600D01*
X183321892Y-92713600D01*
X183148201Y-92711327D01*
X183078396Y-92710413D01*
X183069241Y-92711659D01*
X183069240Y-92711659D01*
X182837107Y-92743250D01*
X182837101Y-92743251D01*
X182827955Y-92744496D01*
X182585303Y-92815223D01*
X182576924Y-92819086D01*
X182576918Y-92819088D01*
X182366245Y-92916210D01*
X182355770Y-92921039D01*
X182144399Y-93059620D01*
X182137510Y-93065769D01*
X182137507Y-93065771D01*
X182106345Y-93093584D01*
X181955833Y-93227921D01*
X181794215Y-93422246D01*
X181771957Y-93458926D01*
X181667884Y-93630432D01*
X181667881Y-93630438D01*
X181663095Y-93638325D01*
X181659526Y-93646836D01*
X181659524Y-93646840D01*
X181568930Y-93862883D01*
X181565354Y-93871411D01*
X181503139Y-94116383D01*
X181477816Y-94367861D01*
X181489943Y-94620320D01*
X181539252Y-94868213D01*
X181542375Y-94876911D01*
X181557633Y-94919410D01*
X181571993Y-95015498D01*
X181548489Y-95109767D01*
X181490699Y-95187865D01*
X181407420Y-95237903D01*
X181320023Y-95252529D01*
X181158396Y-95250413D01*
X181149241Y-95251659D01*
X181149240Y-95251659D01*
X180917107Y-95283250D01*
X180917101Y-95283251D01*
X180907955Y-95284496D01*
X180665303Y-95355223D01*
X180656924Y-95359086D01*
X180656918Y-95359088D01*
X180449544Y-95454689D01*
X180435770Y-95461039D01*
X180361072Y-95510013D01*
X180248155Y-95584045D01*
X180224399Y-95599620D01*
X180217510Y-95605769D01*
X180217507Y-95605771D01*
X180084192Y-95724759D01*
X180035833Y-95767921D01*
X179874215Y-95962246D01*
X179838429Y-96021219D01*
X179747884Y-96170432D01*
X179747881Y-96170438D01*
X179743095Y-96178325D01*
X179739526Y-96186836D01*
X179739524Y-96186840D01*
X179708417Y-96261023D01*
X179645354Y-96411411D01*
X179583139Y-96656383D01*
X179557816Y-96907861D01*
X175964451Y-96907861D01*
X175949037Y-96700445D01*
X175893256Y-96453928D01*
X175889907Y-96445316D01*
X175887206Y-96436481D01*
X175889548Y-96435765D01*
X175875459Y-96355875D01*
X175896485Y-96261023D01*
X175952208Y-96181436D01*
X176034146Y-96129233D01*
X176134176Y-96112492D01*
X176242013Y-96116729D01*
X176251188Y-96115724D01*
X176251193Y-96115724D01*
X176484077Y-96090219D01*
X176484081Y-96090218D01*
X176493260Y-96089213D01*
X176737681Y-96024863D01*
X176969905Y-95925091D01*
X176977757Y-95920232D01*
X176977761Y-95920230D01*
X177100034Y-95844565D01*
X177184831Y-95792091D01*
X177377738Y-95628783D01*
X177392784Y-95611627D01*
X177538302Y-95445696D01*
X177538303Y-95445694D01*
X177544388Y-95438756D01*
X177681119Y-95226184D01*
X177694620Y-95196214D01*
X177781135Y-95004156D01*
X177784928Y-94995736D01*
X177853534Y-94752476D01*
X177885431Y-94501747D01*
X177886680Y-94454068D01*
X177887605Y-94418740D01*
X177887605Y-94418732D01*
X177887768Y-94412500D01*
X177881740Y-94331387D01*
X177869722Y-94169662D01*
X177869722Y-94169661D01*
X177869037Y-94160445D01*
X177813256Y-93913928D01*
X177721650Y-93678363D01*
X177596231Y-93458926D01*
X177590519Y-93451680D01*
X177590514Y-93451673D01*
X177445471Y-93267688D01*
X177445467Y-93267684D01*
X177439755Y-93260438D01*
X177255660Y-93087258D01*
X177248081Y-93082000D01*
X177248077Y-93081997D01*
X177055583Y-92948459D01*
X177055581Y-92948458D01*
X177047989Y-92943191D01*
X177039700Y-92939103D01*
X177039696Y-92939101D01*
X176829591Y-92835489D01*
X176829589Y-92835488D01*
X176821305Y-92831403D01*
X176737678Y-92804634D01*
X176589386Y-92757165D01*
X176589379Y-92757163D01*
X176580587Y-92754349D01*
X176458636Y-92734488D01*
X176340239Y-92715205D01*
X176340233Y-92715204D01*
X176331124Y-92713721D01*
X176321894Y-92713600D01*
X176321892Y-92713600D01*
X176148201Y-92711327D01*
X176078396Y-92710413D01*
X176069241Y-92711659D01*
X176069240Y-92711659D01*
X175837107Y-92743250D01*
X175837101Y-92743251D01*
X175827955Y-92744496D01*
X175585303Y-92815223D01*
X175576924Y-92819086D01*
X175576918Y-92819088D01*
X175366245Y-92916210D01*
X175355770Y-92921039D01*
X175144399Y-93059620D01*
X175137510Y-93065769D01*
X175137507Y-93065771D01*
X175106345Y-93093584D01*
X174955833Y-93227921D01*
X174794215Y-93422246D01*
X174771957Y-93458926D01*
X174667884Y-93630432D01*
X174667881Y-93630438D01*
X174663095Y-93638325D01*
X174659526Y-93646836D01*
X174659524Y-93646840D01*
X174568930Y-93862883D01*
X174565354Y-93871411D01*
X174503139Y-94116383D01*
X174477816Y-94367861D01*
X174489943Y-94620320D01*
X174539252Y-94868213D01*
X174542375Y-94876911D01*
X174557633Y-94919410D01*
X174571993Y-95015498D01*
X174548489Y-95109767D01*
X174490699Y-95187865D01*
X174407420Y-95237903D01*
X174320023Y-95252529D01*
X174158396Y-95250413D01*
X174149241Y-95251659D01*
X174149240Y-95251659D01*
X173917107Y-95283250D01*
X173917101Y-95283251D01*
X173907955Y-95284496D01*
X173665303Y-95355223D01*
X173656924Y-95359086D01*
X173656918Y-95359088D01*
X173449544Y-95454689D01*
X173435770Y-95461039D01*
X173361072Y-95510013D01*
X173248155Y-95584045D01*
X173224399Y-95599620D01*
X173217510Y-95605769D01*
X173217507Y-95605771D01*
X173084192Y-95724759D01*
X173035833Y-95767921D01*
X172874215Y-95962246D01*
X172838429Y-96021219D01*
X172747884Y-96170432D01*
X172747881Y-96170438D01*
X172743095Y-96178325D01*
X172739526Y-96186836D01*
X172739524Y-96186840D01*
X172708417Y-96261023D01*
X172645354Y-96411411D01*
X172583139Y-96656383D01*
X172557816Y-96907861D01*
X168964451Y-96907861D01*
X168949037Y-96700445D01*
X168893256Y-96453928D01*
X168889907Y-96445316D01*
X168887206Y-96436481D01*
X168889548Y-96435765D01*
X168875459Y-96355875D01*
X168896485Y-96261023D01*
X168952208Y-96181436D01*
X169034146Y-96129233D01*
X169134176Y-96112492D01*
X169242013Y-96116729D01*
X169251188Y-96115724D01*
X169251193Y-96115724D01*
X169484077Y-96090219D01*
X169484081Y-96090218D01*
X169493260Y-96089213D01*
X169737681Y-96024863D01*
X169969905Y-95925091D01*
X169977757Y-95920232D01*
X169977761Y-95920230D01*
X170100034Y-95844565D01*
X170184831Y-95792091D01*
X170377738Y-95628783D01*
X170392784Y-95611627D01*
X170538302Y-95445696D01*
X170538303Y-95445694D01*
X170544388Y-95438756D01*
X170681119Y-95226184D01*
X170694620Y-95196214D01*
X170781135Y-95004156D01*
X170784928Y-94995736D01*
X170853534Y-94752476D01*
X170885431Y-94501747D01*
X170886680Y-94454068D01*
X170887605Y-94418740D01*
X170887605Y-94418732D01*
X170887768Y-94412500D01*
X170881740Y-94331387D01*
X170869722Y-94169662D01*
X170869722Y-94169661D01*
X170869037Y-94160445D01*
X170813256Y-93913928D01*
X170721650Y-93678363D01*
X170596231Y-93458926D01*
X170590519Y-93451680D01*
X170590514Y-93451673D01*
X170445471Y-93267688D01*
X170445467Y-93267684D01*
X170439755Y-93260438D01*
X170255660Y-93087258D01*
X170248081Y-93082000D01*
X170248077Y-93081997D01*
X170055583Y-92948459D01*
X170055581Y-92948458D01*
X170047989Y-92943191D01*
X170039700Y-92939103D01*
X170039696Y-92939101D01*
X169829591Y-92835489D01*
X169829589Y-92835488D01*
X169821305Y-92831403D01*
X169737678Y-92804634D01*
X169589386Y-92757165D01*
X169589379Y-92757163D01*
X169580587Y-92754349D01*
X169458636Y-92734488D01*
X169340239Y-92715205D01*
X169340233Y-92715204D01*
X169331124Y-92713721D01*
X169321894Y-92713600D01*
X169321892Y-92713600D01*
X169148201Y-92711327D01*
X169078396Y-92710413D01*
X169069241Y-92711659D01*
X169069240Y-92711659D01*
X168837107Y-92743250D01*
X168837101Y-92743251D01*
X168827955Y-92744496D01*
X168585303Y-92815223D01*
X168576924Y-92819086D01*
X168576918Y-92819088D01*
X168366245Y-92916210D01*
X168355770Y-92921039D01*
X168144399Y-93059620D01*
X168137510Y-93065769D01*
X168137507Y-93065771D01*
X168106345Y-93093584D01*
X167955833Y-93227921D01*
X167794215Y-93422246D01*
X167771957Y-93458926D01*
X167667884Y-93630432D01*
X167667881Y-93630438D01*
X167663095Y-93638325D01*
X167659526Y-93646836D01*
X167659524Y-93646840D01*
X167568930Y-93862883D01*
X167565354Y-93871411D01*
X167503139Y-94116383D01*
X167477816Y-94367861D01*
X167489943Y-94620320D01*
X167539252Y-94868213D01*
X167542375Y-94876911D01*
X167557633Y-94919410D01*
X167571993Y-95015498D01*
X167548489Y-95109767D01*
X167490699Y-95187865D01*
X167407420Y-95237903D01*
X167320023Y-95252529D01*
X167158396Y-95250413D01*
X167149241Y-95251659D01*
X167149240Y-95251659D01*
X166917107Y-95283250D01*
X166917101Y-95283251D01*
X166907955Y-95284496D01*
X166665303Y-95355223D01*
X166656924Y-95359086D01*
X166656918Y-95359088D01*
X166449544Y-95454689D01*
X166435770Y-95461039D01*
X166361072Y-95510013D01*
X166248155Y-95584045D01*
X166224399Y-95599620D01*
X166217510Y-95605769D01*
X166217507Y-95605771D01*
X166084192Y-95724759D01*
X166035833Y-95767921D01*
X165874215Y-95962246D01*
X165838429Y-96021219D01*
X165747884Y-96170432D01*
X165747881Y-96170438D01*
X165743095Y-96178325D01*
X165739526Y-96186836D01*
X165739524Y-96186840D01*
X165708417Y-96261023D01*
X165645354Y-96411411D01*
X165583139Y-96656383D01*
X165557816Y-96907861D01*
X161964451Y-96907861D01*
X161949037Y-96700445D01*
X161893256Y-96453928D01*
X161889907Y-96445316D01*
X161887206Y-96436481D01*
X161889548Y-96435765D01*
X161875459Y-96355875D01*
X161896485Y-96261023D01*
X161952208Y-96181436D01*
X162034146Y-96129233D01*
X162134176Y-96112492D01*
X162242013Y-96116729D01*
X162251188Y-96115724D01*
X162251193Y-96115724D01*
X162484077Y-96090219D01*
X162484081Y-96090218D01*
X162493260Y-96089213D01*
X162737681Y-96024863D01*
X162969905Y-95925091D01*
X162977757Y-95920232D01*
X162977761Y-95920230D01*
X163100034Y-95844565D01*
X163184831Y-95792091D01*
X163377738Y-95628783D01*
X163392784Y-95611627D01*
X163538302Y-95445696D01*
X163538303Y-95445694D01*
X163544388Y-95438756D01*
X163681119Y-95226184D01*
X163694620Y-95196214D01*
X163781135Y-95004156D01*
X163784928Y-94995736D01*
X163853534Y-94752476D01*
X163885431Y-94501747D01*
X163886680Y-94454068D01*
X163887605Y-94418740D01*
X163887605Y-94418732D01*
X163887768Y-94412500D01*
X163881740Y-94331387D01*
X163869722Y-94169662D01*
X163869722Y-94169661D01*
X163869037Y-94160445D01*
X163813256Y-93913928D01*
X163721650Y-93678363D01*
X163596231Y-93458926D01*
X163590519Y-93451680D01*
X163590514Y-93451673D01*
X163445471Y-93267688D01*
X163445467Y-93267684D01*
X163439755Y-93260438D01*
X163255660Y-93087258D01*
X163248081Y-93082000D01*
X163248077Y-93081997D01*
X163055583Y-92948459D01*
X163055581Y-92948458D01*
X163047989Y-92943191D01*
X163039700Y-92939103D01*
X163039696Y-92939101D01*
X162829591Y-92835489D01*
X162829589Y-92835488D01*
X162821305Y-92831403D01*
X162737678Y-92804634D01*
X162589386Y-92757165D01*
X162589379Y-92757163D01*
X162580587Y-92754349D01*
X162458636Y-92734488D01*
X162340239Y-92715205D01*
X162340233Y-92715204D01*
X162331124Y-92713721D01*
X162321894Y-92713600D01*
X162321892Y-92713600D01*
X162148201Y-92711327D01*
X162078396Y-92710413D01*
X162069241Y-92711659D01*
X162069240Y-92711659D01*
X161837107Y-92743250D01*
X161837101Y-92743251D01*
X161827955Y-92744496D01*
X161585303Y-92815223D01*
X161576924Y-92819086D01*
X161576918Y-92819088D01*
X161366245Y-92916210D01*
X161355770Y-92921039D01*
X161144399Y-93059620D01*
X161137510Y-93065769D01*
X161137507Y-93065771D01*
X161106345Y-93093584D01*
X160955833Y-93227921D01*
X160794215Y-93422246D01*
X160771957Y-93458926D01*
X160667884Y-93630432D01*
X160667881Y-93630438D01*
X160663095Y-93638325D01*
X160659526Y-93646836D01*
X160659524Y-93646840D01*
X160568930Y-93862883D01*
X160565354Y-93871411D01*
X160503139Y-94116383D01*
X160477816Y-94367861D01*
X160489943Y-94620320D01*
X160539252Y-94868213D01*
X160542375Y-94876911D01*
X160557633Y-94919410D01*
X160571993Y-95015498D01*
X160548489Y-95109767D01*
X160490699Y-95187865D01*
X160407420Y-95237903D01*
X160320023Y-95252529D01*
X160158396Y-95250413D01*
X160149241Y-95251659D01*
X160149240Y-95251659D01*
X159917107Y-95283250D01*
X159917101Y-95283251D01*
X159907955Y-95284496D01*
X159665303Y-95355223D01*
X159656924Y-95359086D01*
X159656918Y-95359088D01*
X159449544Y-95454689D01*
X159435770Y-95461039D01*
X159361072Y-95510013D01*
X159248155Y-95584045D01*
X159224399Y-95599620D01*
X159217510Y-95605769D01*
X159217507Y-95605771D01*
X159084192Y-95724759D01*
X159035833Y-95767921D01*
X158874215Y-95962246D01*
X158838429Y-96021219D01*
X158747884Y-96170432D01*
X158747881Y-96170438D01*
X158743095Y-96178325D01*
X158739526Y-96186836D01*
X158739524Y-96186840D01*
X158708417Y-96261023D01*
X158645354Y-96411411D01*
X158583139Y-96656383D01*
X158557816Y-96907861D01*
X154964451Y-96907861D01*
X154949037Y-96700445D01*
X154893256Y-96453928D01*
X154889907Y-96445316D01*
X154887206Y-96436481D01*
X154889548Y-96435765D01*
X154875459Y-96355875D01*
X154896485Y-96261023D01*
X154952208Y-96181436D01*
X155034146Y-96129233D01*
X155134176Y-96112492D01*
X155242013Y-96116729D01*
X155251188Y-96115724D01*
X155251193Y-96115724D01*
X155484077Y-96090219D01*
X155484081Y-96090218D01*
X155493260Y-96089213D01*
X155737681Y-96024863D01*
X155969905Y-95925091D01*
X155977757Y-95920232D01*
X155977761Y-95920230D01*
X156100034Y-95844565D01*
X156184831Y-95792091D01*
X156377738Y-95628783D01*
X156392784Y-95611627D01*
X156538302Y-95445696D01*
X156538303Y-95445694D01*
X156544388Y-95438756D01*
X156681119Y-95226184D01*
X156694620Y-95196214D01*
X156781135Y-95004156D01*
X156784928Y-94995736D01*
X156853534Y-94752476D01*
X156885431Y-94501747D01*
X156886680Y-94454068D01*
X156887605Y-94418740D01*
X156887605Y-94418732D01*
X156887768Y-94412500D01*
X156881740Y-94331387D01*
X156869722Y-94169662D01*
X156869722Y-94169661D01*
X156869037Y-94160445D01*
X156813256Y-93913928D01*
X156721650Y-93678363D01*
X156596231Y-93458926D01*
X156590519Y-93451680D01*
X156590514Y-93451673D01*
X156445471Y-93267688D01*
X156445467Y-93267684D01*
X156439755Y-93260438D01*
X156255660Y-93087258D01*
X156248081Y-93082000D01*
X156248077Y-93081997D01*
X156055583Y-92948459D01*
X156055581Y-92948458D01*
X156047989Y-92943191D01*
X156039700Y-92939103D01*
X156039696Y-92939101D01*
X155829591Y-92835489D01*
X155829589Y-92835488D01*
X155821305Y-92831403D01*
X155737678Y-92804634D01*
X155589386Y-92757165D01*
X155589379Y-92757163D01*
X155580587Y-92754349D01*
X155458636Y-92734488D01*
X155340239Y-92715205D01*
X155340233Y-92715204D01*
X155331124Y-92713721D01*
X155321894Y-92713600D01*
X155321892Y-92713600D01*
X155148201Y-92711327D01*
X155078396Y-92710413D01*
X155069241Y-92711659D01*
X155069240Y-92711659D01*
X154837107Y-92743250D01*
X154837101Y-92743251D01*
X154827955Y-92744496D01*
X154585303Y-92815223D01*
X154576924Y-92819086D01*
X154576918Y-92819088D01*
X154366245Y-92916210D01*
X154355770Y-92921039D01*
X154144399Y-93059620D01*
X154137510Y-93065769D01*
X154137507Y-93065771D01*
X154106345Y-93093584D01*
X153955833Y-93227921D01*
X153794215Y-93422246D01*
X153771957Y-93458926D01*
X153667884Y-93630432D01*
X153667881Y-93630438D01*
X153663095Y-93638325D01*
X153659526Y-93646836D01*
X153659524Y-93646840D01*
X153568930Y-93862883D01*
X153565354Y-93871411D01*
X153503139Y-94116383D01*
X153477816Y-94367861D01*
X153489943Y-94620320D01*
X153539252Y-94868213D01*
X153542375Y-94876911D01*
X153557633Y-94919410D01*
X153571993Y-95015498D01*
X153548489Y-95109767D01*
X153490699Y-95187865D01*
X153407420Y-95237903D01*
X153320023Y-95252529D01*
X153158396Y-95250413D01*
X153149241Y-95251659D01*
X153149240Y-95251659D01*
X152917107Y-95283250D01*
X152917101Y-95283251D01*
X152907955Y-95284496D01*
X152665303Y-95355223D01*
X152656924Y-95359086D01*
X152656918Y-95359088D01*
X152449544Y-95454689D01*
X152435770Y-95461039D01*
X152361072Y-95510013D01*
X152248155Y-95584045D01*
X152224399Y-95599620D01*
X152217510Y-95605769D01*
X152217507Y-95605771D01*
X152084192Y-95724759D01*
X152035833Y-95767921D01*
X151874215Y-95962246D01*
X151838429Y-96021219D01*
X151747884Y-96170432D01*
X151747881Y-96170438D01*
X151743095Y-96178325D01*
X151739526Y-96186836D01*
X151739524Y-96186840D01*
X151708417Y-96261023D01*
X151645354Y-96411411D01*
X151583139Y-96656383D01*
X151557816Y-96907861D01*
X147964451Y-96907861D01*
X147949037Y-96700445D01*
X147893256Y-96453928D01*
X147889907Y-96445316D01*
X147887206Y-96436481D01*
X147889548Y-96435765D01*
X147875459Y-96355875D01*
X147896485Y-96261023D01*
X147952208Y-96181436D01*
X148034146Y-96129233D01*
X148134176Y-96112492D01*
X148242013Y-96116729D01*
X148251188Y-96115724D01*
X148251193Y-96115724D01*
X148484077Y-96090219D01*
X148484081Y-96090218D01*
X148493260Y-96089213D01*
X148737681Y-96024863D01*
X148969905Y-95925091D01*
X148977757Y-95920232D01*
X148977761Y-95920230D01*
X149100034Y-95844565D01*
X149184831Y-95792091D01*
X149377738Y-95628783D01*
X149392784Y-95611627D01*
X149538302Y-95445696D01*
X149538303Y-95445694D01*
X149544388Y-95438756D01*
X149681119Y-95226184D01*
X149694620Y-95196214D01*
X149781135Y-95004156D01*
X149784928Y-94995736D01*
X149853534Y-94752476D01*
X149885431Y-94501747D01*
X149886680Y-94454068D01*
X149887605Y-94418740D01*
X149887605Y-94418732D01*
X149887768Y-94412500D01*
X149881740Y-94331387D01*
X149869722Y-94169662D01*
X149869722Y-94169661D01*
X149869037Y-94160445D01*
X149813256Y-93913928D01*
X149721650Y-93678363D01*
X149596231Y-93458926D01*
X149590519Y-93451680D01*
X149590514Y-93451673D01*
X149445471Y-93267688D01*
X149445467Y-93267684D01*
X149439755Y-93260438D01*
X149255660Y-93087258D01*
X149248081Y-93082000D01*
X149248077Y-93081997D01*
X149055583Y-92948459D01*
X149055581Y-92948458D01*
X149047989Y-92943191D01*
X149039700Y-92939103D01*
X149039696Y-92939101D01*
X148829591Y-92835489D01*
X148829589Y-92835488D01*
X148821305Y-92831403D01*
X148737678Y-92804634D01*
X148589386Y-92757165D01*
X148589379Y-92757163D01*
X148580587Y-92754349D01*
X148458636Y-92734488D01*
X148340239Y-92715205D01*
X148340233Y-92715204D01*
X148331124Y-92713721D01*
X148321894Y-92713600D01*
X148321892Y-92713600D01*
X148148201Y-92711327D01*
X148078396Y-92710413D01*
X148069241Y-92711659D01*
X148069240Y-92711659D01*
X147837107Y-92743250D01*
X147837101Y-92743251D01*
X147827955Y-92744496D01*
X147585303Y-92815223D01*
X147576924Y-92819086D01*
X147576918Y-92819088D01*
X147366245Y-92916210D01*
X147355770Y-92921039D01*
X147144399Y-93059620D01*
X147137510Y-93065769D01*
X147137507Y-93065771D01*
X147106345Y-93093584D01*
X146955833Y-93227921D01*
X146794215Y-93422246D01*
X146771957Y-93458926D01*
X146667884Y-93630432D01*
X146667881Y-93630438D01*
X146663095Y-93638325D01*
X146659526Y-93646836D01*
X146659524Y-93646840D01*
X146568930Y-93862883D01*
X146565354Y-93871411D01*
X146503139Y-94116383D01*
X146477816Y-94367861D01*
X146489943Y-94620320D01*
X146539252Y-94868213D01*
X146542375Y-94876911D01*
X146557633Y-94919410D01*
X146571993Y-95015498D01*
X146548489Y-95109767D01*
X146490699Y-95187865D01*
X146407420Y-95237903D01*
X146320023Y-95252529D01*
X146158396Y-95250413D01*
X146149241Y-95251659D01*
X146149240Y-95251659D01*
X145917107Y-95283250D01*
X145917101Y-95283251D01*
X145907955Y-95284496D01*
X145665303Y-95355223D01*
X145656924Y-95359086D01*
X145656918Y-95359088D01*
X145449544Y-95454689D01*
X145435770Y-95461039D01*
X145361072Y-95510013D01*
X145248155Y-95584045D01*
X145224399Y-95599620D01*
X145217510Y-95605769D01*
X145217507Y-95605771D01*
X145084192Y-95724759D01*
X145035833Y-95767921D01*
X144874215Y-95962246D01*
X144838429Y-96021219D01*
X144747884Y-96170432D01*
X144747881Y-96170438D01*
X144743095Y-96178325D01*
X144739526Y-96186836D01*
X144739524Y-96186840D01*
X144708417Y-96261023D01*
X144645354Y-96411411D01*
X144583139Y-96656383D01*
X144557816Y-96907861D01*
X140964451Y-96907861D01*
X140949037Y-96700445D01*
X140893256Y-96453928D01*
X140889907Y-96445316D01*
X140887206Y-96436481D01*
X140889548Y-96435765D01*
X140875459Y-96355875D01*
X140896485Y-96261023D01*
X140952208Y-96181436D01*
X141034146Y-96129233D01*
X141134176Y-96112492D01*
X141242013Y-96116729D01*
X141251188Y-96115724D01*
X141251193Y-96115724D01*
X141484077Y-96090219D01*
X141484081Y-96090218D01*
X141493260Y-96089213D01*
X141737681Y-96024863D01*
X141969905Y-95925091D01*
X141977757Y-95920232D01*
X141977761Y-95920230D01*
X142100034Y-95844565D01*
X142184831Y-95792091D01*
X142377738Y-95628783D01*
X142392784Y-95611627D01*
X142538302Y-95445696D01*
X142538303Y-95445694D01*
X142544388Y-95438756D01*
X142681119Y-95226184D01*
X142694620Y-95196214D01*
X142781135Y-95004156D01*
X142784928Y-94995736D01*
X142853534Y-94752476D01*
X142885431Y-94501747D01*
X142886680Y-94454068D01*
X142887605Y-94418740D01*
X142887605Y-94418732D01*
X142887768Y-94412500D01*
X142881740Y-94331387D01*
X142869722Y-94169662D01*
X142869722Y-94169661D01*
X142869037Y-94160445D01*
X142813256Y-93913928D01*
X142721650Y-93678363D01*
X142596231Y-93458926D01*
X142590519Y-93451680D01*
X142590514Y-93451673D01*
X142445471Y-93267688D01*
X142445467Y-93267684D01*
X142439755Y-93260438D01*
X142255660Y-93087258D01*
X142248081Y-93082000D01*
X142248077Y-93081997D01*
X142055583Y-92948459D01*
X142055581Y-92948458D01*
X142047989Y-92943191D01*
X142039700Y-92939103D01*
X142039696Y-92939101D01*
X141829591Y-92835489D01*
X141829589Y-92835488D01*
X141821305Y-92831403D01*
X141737678Y-92804634D01*
X141589386Y-92757165D01*
X141589379Y-92757163D01*
X141580587Y-92754349D01*
X141458636Y-92734488D01*
X141340239Y-92715205D01*
X141340233Y-92715204D01*
X141331124Y-92713721D01*
X141321894Y-92713600D01*
X141321892Y-92713600D01*
X141148201Y-92711327D01*
X141078396Y-92710413D01*
X141069241Y-92711659D01*
X141069240Y-92711659D01*
X140837107Y-92743250D01*
X140837101Y-92743251D01*
X140827955Y-92744496D01*
X140585303Y-92815223D01*
X140576924Y-92819086D01*
X140576918Y-92819088D01*
X140366245Y-92916210D01*
X140355770Y-92921039D01*
X140144399Y-93059620D01*
X140137510Y-93065769D01*
X140137507Y-93065771D01*
X140106345Y-93093584D01*
X139955833Y-93227921D01*
X139794215Y-93422246D01*
X139771957Y-93458926D01*
X139667884Y-93630432D01*
X139667881Y-93630438D01*
X139663095Y-93638325D01*
X139659526Y-93646836D01*
X139659524Y-93646840D01*
X139568930Y-93862883D01*
X139565354Y-93871411D01*
X139503139Y-94116383D01*
X139477816Y-94367861D01*
X139489943Y-94620320D01*
X139539252Y-94868213D01*
X139542375Y-94876911D01*
X139557633Y-94919410D01*
X139571993Y-95015498D01*
X139548489Y-95109767D01*
X139490699Y-95187865D01*
X139407420Y-95237903D01*
X139320023Y-95252529D01*
X139158396Y-95250413D01*
X139149241Y-95251659D01*
X139149240Y-95251659D01*
X138917107Y-95283250D01*
X138917101Y-95283251D01*
X138907955Y-95284496D01*
X138665303Y-95355223D01*
X138656924Y-95359086D01*
X138656918Y-95359088D01*
X138449544Y-95454689D01*
X138435770Y-95461039D01*
X138361072Y-95510013D01*
X138248155Y-95584045D01*
X138224399Y-95599620D01*
X138217510Y-95605769D01*
X138217507Y-95605771D01*
X138084192Y-95724759D01*
X138035833Y-95767921D01*
X137874215Y-95962246D01*
X137838429Y-96021219D01*
X137747884Y-96170432D01*
X137747881Y-96170438D01*
X137743095Y-96178325D01*
X137739526Y-96186836D01*
X137739524Y-96186840D01*
X137708417Y-96261023D01*
X137645354Y-96411411D01*
X137583139Y-96656383D01*
X137557816Y-96907861D01*
X133964451Y-96907861D01*
X133949037Y-96700445D01*
X133893256Y-96453928D01*
X133889907Y-96445316D01*
X133887206Y-96436481D01*
X133889548Y-96435765D01*
X133875459Y-96355875D01*
X133896485Y-96261023D01*
X133952208Y-96181436D01*
X134034146Y-96129233D01*
X134134176Y-96112492D01*
X134242013Y-96116729D01*
X134251188Y-96115724D01*
X134251193Y-96115724D01*
X134484077Y-96090219D01*
X134484081Y-96090218D01*
X134493260Y-96089213D01*
X134737681Y-96024863D01*
X134969905Y-95925091D01*
X134977757Y-95920232D01*
X134977761Y-95920230D01*
X135100034Y-95844565D01*
X135184831Y-95792091D01*
X135377738Y-95628783D01*
X135392784Y-95611627D01*
X135538302Y-95445696D01*
X135538303Y-95445694D01*
X135544388Y-95438756D01*
X135681119Y-95226184D01*
X135694620Y-95196214D01*
X135781135Y-95004156D01*
X135784928Y-94995736D01*
X135853534Y-94752476D01*
X135885431Y-94501747D01*
X135886680Y-94454068D01*
X135887605Y-94418740D01*
X135887605Y-94418732D01*
X135887768Y-94412500D01*
X135881740Y-94331387D01*
X135869722Y-94169662D01*
X135869722Y-94169661D01*
X135869037Y-94160445D01*
X135813256Y-93913928D01*
X135721650Y-93678363D01*
X135596231Y-93458926D01*
X135590519Y-93451680D01*
X135590514Y-93451673D01*
X135445471Y-93267688D01*
X135445467Y-93267684D01*
X135439755Y-93260438D01*
X135255660Y-93087258D01*
X135248081Y-93082000D01*
X135248077Y-93081997D01*
X135055583Y-92948459D01*
X135055581Y-92948458D01*
X135047989Y-92943191D01*
X135039700Y-92939103D01*
X135039696Y-92939101D01*
X134829591Y-92835489D01*
X134829589Y-92835488D01*
X134821305Y-92831403D01*
X134737678Y-92804634D01*
X134589386Y-92757165D01*
X134589379Y-92757163D01*
X134580587Y-92754349D01*
X134458636Y-92734488D01*
X134340239Y-92715205D01*
X134340233Y-92715204D01*
X134331124Y-92713721D01*
X134321894Y-92713600D01*
X134321892Y-92713600D01*
X134148201Y-92711327D01*
X134078396Y-92710413D01*
X134069241Y-92711659D01*
X134069240Y-92711659D01*
X133837107Y-92743250D01*
X133837101Y-92743251D01*
X133827955Y-92744496D01*
X133585303Y-92815223D01*
X133576924Y-92819086D01*
X133576918Y-92819088D01*
X133366245Y-92916210D01*
X133355770Y-92921039D01*
X133144399Y-93059620D01*
X133137510Y-93065769D01*
X133137507Y-93065771D01*
X133106345Y-93093584D01*
X132955833Y-93227921D01*
X132794215Y-93422246D01*
X132771957Y-93458926D01*
X132667884Y-93630432D01*
X132667881Y-93630438D01*
X132663095Y-93638325D01*
X132659526Y-93646836D01*
X132659524Y-93646840D01*
X132568930Y-93862883D01*
X132565354Y-93871411D01*
X132503139Y-94116383D01*
X132477816Y-94367861D01*
X132478260Y-94377096D01*
X132478260Y-94377098D01*
X132481102Y-94436276D01*
X132466742Y-94532364D01*
X132416703Y-94615642D01*
X132338604Y-94673432D01*
X132244335Y-94696935D01*
X132148247Y-94682575D01*
X132064969Y-94632536D01*
X132056319Y-94624292D01*
X131835930Y-94403903D01*
X131781954Y-94323121D01*
X131763000Y-94227833D01*
X131763000Y-91661943D01*
X131764052Y-91647149D01*
X131763447Y-91647113D01*
X131764053Y-91636912D01*
X131765493Y-91626794D01*
X131763064Y-91519760D01*
X131763000Y-91514111D01*
X131763000Y-91474946D01*
X131762289Y-91466297D01*
X131761516Y-91451553D01*
X131760127Y-91390330D01*
X131760127Y-91390327D01*
X131759895Y-91380118D01*
X131757998Y-91370077D01*
X131754013Y-91348985D01*
X131750522Y-91323162D01*
X131748764Y-91301785D01*
X131748763Y-91301777D01*
X131747925Y-91291589D01*
X131730519Y-91222290D01*
X131727348Y-91207869D01*
X131715981Y-91147712D01*
X131714083Y-91137667D01*
X131703199Y-91107926D01*
X131695536Y-91083017D01*
X131690306Y-91062197D01*
X131687816Y-91052283D01*
X131659328Y-90986766D01*
X131653840Y-90973047D01*
X131632799Y-90915548D01*
X131632797Y-90915543D01*
X131629288Y-90905955D01*
X131613691Y-90878388D01*
X131602064Y-90855067D01*
X131593506Y-90835384D01*
X131593502Y-90835377D01*
X131589428Y-90826007D01*
X131550621Y-90766020D01*
X131542969Y-90753385D01*
X131512820Y-90700097D01*
X131512820Y-90700096D01*
X131507788Y-90691203D01*
X131501374Y-90683254D01*
X131501370Y-90683248D01*
X131487889Y-90666540D01*
X131472611Y-90645435D01*
X131460954Y-90627417D01*
X131455405Y-90618839D01*
X131407328Y-90566003D01*
X131397728Y-90554803D01*
X131380583Y-90533555D01*
X131353866Y-90506839D01*
X131345765Y-90498347D01*
X131296226Y-90443903D01*
X131296225Y-90443902D01*
X131289346Y-90436342D01*
X131272365Y-90422931D01*
X131250620Y-90403592D01*
X130027119Y-89180091D01*
X128795930Y-87948903D01*
X128741954Y-87868121D01*
X128723000Y-87772833D01*
X128723000Y-87622861D01*
X130597816Y-87622861D01*
X130600260Y-87673740D01*
X130606540Y-87804470D01*
X130609943Y-87875320D01*
X130659252Y-88123213D01*
X130662373Y-88131905D01*
X130662373Y-88131906D01*
X130721117Y-88295521D01*
X130744660Y-88361095D01*
X130749032Y-88369232D01*
X130749034Y-88369236D01*
X130813358Y-88488947D01*
X130864292Y-88583740D01*
X131015518Y-88786256D01*
X131195017Y-88964196D01*
X131202469Y-88969660D01*
X131386782Y-89104803D01*
X131398846Y-89113649D01*
X131407010Y-89117945D01*
X131407016Y-89117948D01*
X131532061Y-89183737D01*
X131622526Y-89231333D01*
X131861144Y-89314662D01*
X132109458Y-89361806D01*
X132118680Y-89362168D01*
X132118686Y-89362169D01*
X132235735Y-89366767D01*
X132362013Y-89371729D01*
X132371188Y-89370724D01*
X132371193Y-89370724D01*
X132604077Y-89345219D01*
X132604081Y-89345218D01*
X132613260Y-89344213D01*
X132857681Y-89279863D01*
X132897392Y-89262802D01*
X132970637Y-89231333D01*
X133089905Y-89180091D01*
X133097757Y-89175232D01*
X133097761Y-89175230D01*
X133296972Y-89051954D01*
X133304831Y-89047091D01*
X133497738Y-88883783D01*
X133583268Y-88786256D01*
X133658302Y-88700696D01*
X133658303Y-88700694D01*
X133664388Y-88693756D01*
X133801119Y-88481184D01*
X133839708Y-88395521D01*
X133901135Y-88259156D01*
X133904928Y-88250736D01*
X133947138Y-88101071D01*
X133971024Y-88016377D01*
X133971025Y-88016373D01*
X133973534Y-88007476D01*
X133980986Y-87948903D01*
X133984291Y-87922922D01*
X134005431Y-87756747D01*
X134007768Y-87667500D01*
X134004451Y-87622861D01*
X137597816Y-87622861D01*
X137600260Y-87673740D01*
X137606540Y-87804470D01*
X137609943Y-87875320D01*
X137659252Y-88123213D01*
X137662373Y-88131905D01*
X137662373Y-88131906D01*
X137721117Y-88295521D01*
X137744660Y-88361095D01*
X137749032Y-88369232D01*
X137749034Y-88369236D01*
X137813358Y-88488947D01*
X137864292Y-88583740D01*
X138015518Y-88786256D01*
X138195017Y-88964196D01*
X138202469Y-88969660D01*
X138386782Y-89104803D01*
X138398846Y-89113649D01*
X138407010Y-89117945D01*
X138407016Y-89117948D01*
X138532061Y-89183737D01*
X138622526Y-89231333D01*
X138861144Y-89314662D01*
X139109458Y-89361806D01*
X139118680Y-89362168D01*
X139118686Y-89362169D01*
X139235735Y-89366767D01*
X139362013Y-89371729D01*
X139371188Y-89370724D01*
X139371193Y-89370724D01*
X139604077Y-89345219D01*
X139604081Y-89345218D01*
X139613260Y-89344213D01*
X139857681Y-89279863D01*
X139897392Y-89262802D01*
X139970637Y-89231333D01*
X140089905Y-89180091D01*
X140097757Y-89175232D01*
X140097761Y-89175230D01*
X140296972Y-89051954D01*
X140304831Y-89047091D01*
X140497738Y-88883783D01*
X140583268Y-88786256D01*
X140658302Y-88700696D01*
X140658303Y-88700694D01*
X140664388Y-88693756D01*
X140801119Y-88481184D01*
X140839708Y-88395521D01*
X140901135Y-88259156D01*
X140904928Y-88250736D01*
X140947138Y-88101071D01*
X140971024Y-88016377D01*
X140971025Y-88016373D01*
X140973534Y-88007476D01*
X140980986Y-87948903D01*
X140984291Y-87922922D01*
X141005431Y-87756747D01*
X141007768Y-87667500D01*
X141004451Y-87622861D01*
X144597816Y-87622861D01*
X144600260Y-87673740D01*
X144606540Y-87804470D01*
X144609943Y-87875320D01*
X144659252Y-88123213D01*
X144662373Y-88131905D01*
X144662373Y-88131906D01*
X144721117Y-88295521D01*
X144744660Y-88361095D01*
X144749032Y-88369232D01*
X144749034Y-88369236D01*
X144813358Y-88488947D01*
X144864292Y-88583740D01*
X145015518Y-88786256D01*
X145195017Y-88964196D01*
X145202469Y-88969660D01*
X145386782Y-89104803D01*
X145398846Y-89113649D01*
X145407010Y-89117945D01*
X145407016Y-89117948D01*
X145532061Y-89183737D01*
X145622526Y-89231333D01*
X145861144Y-89314662D01*
X146109458Y-89361806D01*
X146118680Y-89362168D01*
X146118686Y-89362169D01*
X146235735Y-89366767D01*
X146362013Y-89371729D01*
X146371188Y-89370724D01*
X146371193Y-89370724D01*
X146604077Y-89345219D01*
X146604081Y-89345218D01*
X146613260Y-89344213D01*
X146857681Y-89279863D01*
X146897392Y-89262802D01*
X146970637Y-89231333D01*
X147089905Y-89180091D01*
X147097757Y-89175232D01*
X147097761Y-89175230D01*
X147296972Y-89051954D01*
X147304831Y-89047091D01*
X147497738Y-88883783D01*
X147583268Y-88786256D01*
X147658302Y-88700696D01*
X147658303Y-88700694D01*
X147664388Y-88693756D01*
X147801119Y-88481184D01*
X147839708Y-88395521D01*
X147901135Y-88259156D01*
X147904928Y-88250736D01*
X147947138Y-88101071D01*
X147971024Y-88016377D01*
X147971025Y-88016373D01*
X147973534Y-88007476D01*
X147980986Y-87948903D01*
X147984291Y-87922922D01*
X148005431Y-87756747D01*
X148007768Y-87667500D01*
X148004451Y-87622861D01*
X151597816Y-87622861D01*
X151600260Y-87673740D01*
X151606540Y-87804470D01*
X151609943Y-87875320D01*
X151659252Y-88123213D01*
X151662373Y-88131905D01*
X151662373Y-88131906D01*
X151721117Y-88295521D01*
X151744660Y-88361095D01*
X151749032Y-88369232D01*
X151749034Y-88369236D01*
X151813358Y-88488947D01*
X151864292Y-88583740D01*
X152015518Y-88786256D01*
X152195017Y-88964196D01*
X152202469Y-88969660D01*
X152386782Y-89104803D01*
X152398846Y-89113649D01*
X152407010Y-89117945D01*
X152407016Y-89117948D01*
X152532061Y-89183737D01*
X152622526Y-89231333D01*
X152861144Y-89314662D01*
X153109458Y-89361806D01*
X153118680Y-89362168D01*
X153118686Y-89362169D01*
X153235735Y-89366767D01*
X153362013Y-89371729D01*
X153371188Y-89370724D01*
X153371193Y-89370724D01*
X153604077Y-89345219D01*
X153604081Y-89345218D01*
X153613260Y-89344213D01*
X153857681Y-89279863D01*
X153897392Y-89262802D01*
X153970637Y-89231333D01*
X154089905Y-89180091D01*
X154097757Y-89175232D01*
X154097761Y-89175230D01*
X154296972Y-89051954D01*
X154304831Y-89047091D01*
X154497738Y-88883783D01*
X154583268Y-88786256D01*
X154658302Y-88700696D01*
X154658303Y-88700694D01*
X154664388Y-88693756D01*
X154801119Y-88481184D01*
X154839708Y-88395521D01*
X154901135Y-88259156D01*
X154904928Y-88250736D01*
X154947138Y-88101071D01*
X154971024Y-88016377D01*
X154971025Y-88016373D01*
X154973534Y-88007476D01*
X154980986Y-87948903D01*
X154984291Y-87922922D01*
X155005431Y-87756747D01*
X155007768Y-87667500D01*
X155004451Y-87622861D01*
X158597816Y-87622861D01*
X158600260Y-87673740D01*
X158606540Y-87804470D01*
X158609943Y-87875320D01*
X158659252Y-88123213D01*
X158662373Y-88131905D01*
X158662373Y-88131906D01*
X158721117Y-88295521D01*
X158744660Y-88361095D01*
X158749032Y-88369232D01*
X158749034Y-88369236D01*
X158813358Y-88488947D01*
X158864292Y-88583740D01*
X159015518Y-88786256D01*
X159195017Y-88964196D01*
X159202469Y-88969660D01*
X159386782Y-89104803D01*
X159398846Y-89113649D01*
X159407010Y-89117945D01*
X159407016Y-89117948D01*
X159532061Y-89183737D01*
X159622526Y-89231333D01*
X159861144Y-89314662D01*
X160109458Y-89361806D01*
X160118680Y-89362168D01*
X160118686Y-89362169D01*
X160235735Y-89366767D01*
X160362013Y-89371729D01*
X160371188Y-89370724D01*
X160371193Y-89370724D01*
X160604077Y-89345219D01*
X160604081Y-89345218D01*
X160613260Y-89344213D01*
X160857681Y-89279863D01*
X160897392Y-89262802D01*
X160970637Y-89231333D01*
X161089905Y-89180091D01*
X161097757Y-89175232D01*
X161097761Y-89175230D01*
X161296972Y-89051954D01*
X161304831Y-89047091D01*
X161497738Y-88883783D01*
X161583268Y-88786256D01*
X161658302Y-88700696D01*
X161658303Y-88700694D01*
X161664388Y-88693756D01*
X161801119Y-88481184D01*
X161839708Y-88395521D01*
X161901135Y-88259156D01*
X161904928Y-88250736D01*
X161947138Y-88101071D01*
X161971024Y-88016377D01*
X161971025Y-88016373D01*
X161973534Y-88007476D01*
X161980986Y-87948903D01*
X161984291Y-87922922D01*
X162005431Y-87756747D01*
X162007768Y-87667500D01*
X162000858Y-87574518D01*
X161989722Y-87424662D01*
X161989722Y-87424661D01*
X161989037Y-87415445D01*
X161933256Y-87168928D01*
X161877427Y-87025364D01*
X161845002Y-86941982D01*
X161845001Y-86941979D01*
X161841650Y-86933363D01*
X161716231Y-86713926D01*
X161710519Y-86706680D01*
X161710514Y-86706673D01*
X161565471Y-86522688D01*
X161565467Y-86522684D01*
X161559755Y-86515438D01*
X161375660Y-86342258D01*
X161368081Y-86337000D01*
X161368077Y-86336997D01*
X161175583Y-86203459D01*
X161175581Y-86203458D01*
X161167989Y-86198191D01*
X161159700Y-86194103D01*
X161159696Y-86194101D01*
X160949591Y-86090489D01*
X160949589Y-86090488D01*
X160941305Y-86086403D01*
X160857678Y-86059634D01*
X160709386Y-86012165D01*
X160709379Y-86012163D01*
X160700587Y-86009349D01*
X160578636Y-85989488D01*
X160460239Y-85970205D01*
X160460233Y-85970204D01*
X160451124Y-85968721D01*
X160441894Y-85968600D01*
X160441892Y-85968600D01*
X160268201Y-85966327D01*
X160198396Y-85965413D01*
X160189241Y-85966659D01*
X160189240Y-85966659D01*
X159957107Y-85998250D01*
X159957101Y-85998251D01*
X159947955Y-85999496D01*
X159705303Y-86070223D01*
X159696924Y-86074086D01*
X159696918Y-86074088D01*
X159484160Y-86172171D01*
X159475770Y-86176039D01*
X159402961Y-86223775D01*
X159305003Y-86287999D01*
X159264399Y-86314620D01*
X159257510Y-86320769D01*
X159257507Y-86320771D01*
X159203325Y-86369130D01*
X159075833Y-86482921D01*
X158914215Y-86677246D01*
X158874792Y-86742213D01*
X158787884Y-86885432D01*
X158787881Y-86885438D01*
X158783095Y-86893325D01*
X158779526Y-86901836D01*
X158779524Y-86901840D01*
X158730814Y-87018000D01*
X158685354Y-87126411D01*
X158623139Y-87371383D01*
X158597816Y-87622861D01*
X155004451Y-87622861D01*
X155000858Y-87574518D01*
X154989722Y-87424662D01*
X154989722Y-87424661D01*
X154989037Y-87415445D01*
X154933256Y-87168928D01*
X154929907Y-87160316D01*
X154927206Y-87151481D01*
X154929548Y-87150765D01*
X154915459Y-87070875D01*
X154936485Y-86976023D01*
X154992208Y-86896436D01*
X155074146Y-86844233D01*
X155174176Y-86827492D01*
X155282013Y-86831729D01*
X155291188Y-86830724D01*
X155291193Y-86830724D01*
X155524077Y-86805219D01*
X155524081Y-86805218D01*
X155533260Y-86804213D01*
X155777681Y-86739863D01*
X155790795Y-86734229D01*
X155869330Y-86700487D01*
X156009905Y-86640091D01*
X156017757Y-86635232D01*
X156017761Y-86635230D01*
X156162693Y-86545543D01*
X156224831Y-86507091D01*
X156417738Y-86343783D01*
X156432643Y-86326788D01*
X156578302Y-86160696D01*
X156578303Y-86160694D01*
X156584388Y-86153756D01*
X156721119Y-85941184D01*
X156729035Y-85923613D01*
X156821135Y-85719156D01*
X156824928Y-85710736D01*
X156883814Y-85501942D01*
X156891024Y-85476377D01*
X156891025Y-85476373D01*
X156893534Y-85467476D01*
X156925431Y-85216747D01*
X156927163Y-85150601D01*
X156927605Y-85133740D01*
X156927605Y-85133732D01*
X156927768Y-85127500D01*
X156909037Y-84875445D01*
X156853256Y-84628928D01*
X156761650Y-84393363D01*
X156636231Y-84173926D01*
X156630519Y-84166680D01*
X156630514Y-84166673D01*
X156485471Y-83982688D01*
X156485467Y-83982684D01*
X156479755Y-83975438D01*
X156295660Y-83802258D01*
X156288081Y-83797000D01*
X156288077Y-83796997D01*
X156095583Y-83663459D01*
X156095581Y-83663458D01*
X156087989Y-83658191D01*
X156079700Y-83654103D01*
X156079696Y-83654101D01*
X155869591Y-83550489D01*
X155869589Y-83550488D01*
X155861305Y-83546403D01*
X155777678Y-83519634D01*
X155629386Y-83472165D01*
X155629379Y-83472163D01*
X155620587Y-83469349D01*
X155498636Y-83449488D01*
X155380239Y-83430205D01*
X155380233Y-83430204D01*
X155371124Y-83428721D01*
X155361894Y-83428600D01*
X155361892Y-83428600D01*
X155188201Y-83426327D01*
X155118396Y-83425413D01*
X155109241Y-83426659D01*
X155109240Y-83426659D01*
X154877107Y-83458250D01*
X154877101Y-83458251D01*
X154867955Y-83459496D01*
X154625303Y-83530223D01*
X154616924Y-83534086D01*
X154616918Y-83534088D01*
X154503432Y-83586406D01*
X154395770Y-83636039D01*
X154331641Y-83678084D01*
X154283971Y-83709338D01*
X154184399Y-83774620D01*
X154177510Y-83780769D01*
X154177507Y-83780771D01*
X154057766Y-83887644D01*
X153995833Y-83942921D01*
X153834215Y-84137246D01*
X153811957Y-84173926D01*
X153707884Y-84345432D01*
X153707881Y-84345438D01*
X153703095Y-84353325D01*
X153699526Y-84361836D01*
X153699524Y-84361840D01*
X153608930Y-84577883D01*
X153605354Y-84586411D01*
X153543139Y-84831383D01*
X153542213Y-84840583D01*
X153521579Y-85045496D01*
X153517816Y-85082861D01*
X153523147Y-85193845D01*
X153527358Y-85281500D01*
X153529943Y-85335320D01*
X153579252Y-85583213D01*
X153582375Y-85591911D01*
X153597633Y-85634410D01*
X153611993Y-85730498D01*
X153588489Y-85824767D01*
X153530699Y-85902865D01*
X153447420Y-85952903D01*
X153360023Y-85967529D01*
X153198396Y-85965413D01*
X153189241Y-85966659D01*
X153189240Y-85966659D01*
X152957107Y-85998250D01*
X152957101Y-85998251D01*
X152947955Y-85999496D01*
X152705303Y-86070223D01*
X152696924Y-86074086D01*
X152696918Y-86074088D01*
X152484160Y-86172171D01*
X152475770Y-86176039D01*
X152402961Y-86223775D01*
X152305003Y-86287999D01*
X152264399Y-86314620D01*
X152257510Y-86320769D01*
X152257507Y-86320771D01*
X152203325Y-86369130D01*
X152075833Y-86482921D01*
X151914215Y-86677246D01*
X151874792Y-86742213D01*
X151787884Y-86885432D01*
X151787881Y-86885438D01*
X151783095Y-86893325D01*
X151779526Y-86901836D01*
X151779524Y-86901840D01*
X151730814Y-87018000D01*
X151685354Y-87126411D01*
X151623139Y-87371383D01*
X151597816Y-87622861D01*
X148004451Y-87622861D01*
X148000858Y-87574518D01*
X147989722Y-87424662D01*
X147989722Y-87424661D01*
X147989037Y-87415445D01*
X147933256Y-87168928D01*
X147929907Y-87160316D01*
X147927206Y-87151481D01*
X147929548Y-87150765D01*
X147915459Y-87070875D01*
X147936485Y-86976023D01*
X147992208Y-86896436D01*
X148074146Y-86844233D01*
X148174176Y-86827492D01*
X148282013Y-86831729D01*
X148291188Y-86830724D01*
X148291193Y-86830724D01*
X148524077Y-86805219D01*
X148524081Y-86805218D01*
X148533260Y-86804213D01*
X148777681Y-86739863D01*
X148790795Y-86734229D01*
X148869330Y-86700487D01*
X149009905Y-86640091D01*
X149017757Y-86635232D01*
X149017761Y-86635230D01*
X149162693Y-86545543D01*
X149224831Y-86507091D01*
X149417738Y-86343783D01*
X149432643Y-86326788D01*
X149578302Y-86160696D01*
X149578303Y-86160694D01*
X149584388Y-86153756D01*
X149721119Y-85941184D01*
X149729035Y-85923613D01*
X149821135Y-85719156D01*
X149824928Y-85710736D01*
X149883814Y-85501942D01*
X149891024Y-85476377D01*
X149891025Y-85476373D01*
X149893534Y-85467476D01*
X149925431Y-85216747D01*
X149927163Y-85150601D01*
X149927605Y-85133740D01*
X149927605Y-85133732D01*
X149927768Y-85127500D01*
X149909037Y-84875445D01*
X149853256Y-84628928D01*
X149761650Y-84393363D01*
X149636231Y-84173926D01*
X149630519Y-84166680D01*
X149630514Y-84166673D01*
X149485471Y-83982688D01*
X149485467Y-83982684D01*
X149479755Y-83975438D01*
X149295660Y-83802258D01*
X149288081Y-83797000D01*
X149288077Y-83796997D01*
X149095583Y-83663459D01*
X149095581Y-83663458D01*
X149087989Y-83658191D01*
X149079700Y-83654103D01*
X149079696Y-83654101D01*
X148869591Y-83550489D01*
X148869589Y-83550488D01*
X148861305Y-83546403D01*
X148777678Y-83519634D01*
X148629386Y-83472165D01*
X148629379Y-83472163D01*
X148620587Y-83469349D01*
X148498636Y-83449488D01*
X148380239Y-83430205D01*
X148380233Y-83430204D01*
X148371124Y-83428721D01*
X148361894Y-83428600D01*
X148361892Y-83428600D01*
X148188201Y-83426327D01*
X148118396Y-83425413D01*
X148109241Y-83426659D01*
X148109240Y-83426659D01*
X147877107Y-83458250D01*
X147877101Y-83458251D01*
X147867955Y-83459496D01*
X147625303Y-83530223D01*
X147616924Y-83534086D01*
X147616918Y-83534088D01*
X147503432Y-83586406D01*
X147395770Y-83636039D01*
X147331641Y-83678084D01*
X147283971Y-83709338D01*
X147184399Y-83774620D01*
X147177510Y-83780769D01*
X147177507Y-83780771D01*
X147057766Y-83887644D01*
X146995833Y-83942921D01*
X146834215Y-84137246D01*
X146811957Y-84173926D01*
X146707884Y-84345432D01*
X146707881Y-84345438D01*
X146703095Y-84353325D01*
X146699526Y-84361836D01*
X146699524Y-84361840D01*
X146608930Y-84577883D01*
X146605354Y-84586411D01*
X146543139Y-84831383D01*
X146542213Y-84840583D01*
X146521579Y-85045496D01*
X146517816Y-85082861D01*
X146523147Y-85193845D01*
X146527358Y-85281500D01*
X146529943Y-85335320D01*
X146579252Y-85583213D01*
X146582375Y-85591911D01*
X146597633Y-85634410D01*
X146611993Y-85730498D01*
X146588489Y-85824767D01*
X146530699Y-85902865D01*
X146447420Y-85952903D01*
X146360023Y-85967529D01*
X146198396Y-85965413D01*
X146189241Y-85966659D01*
X146189240Y-85966659D01*
X145957107Y-85998250D01*
X145957101Y-85998251D01*
X145947955Y-85999496D01*
X145705303Y-86070223D01*
X145696924Y-86074086D01*
X145696918Y-86074088D01*
X145484160Y-86172171D01*
X145475770Y-86176039D01*
X145402961Y-86223775D01*
X145305003Y-86287999D01*
X145264399Y-86314620D01*
X145257510Y-86320769D01*
X145257507Y-86320771D01*
X145203325Y-86369130D01*
X145075833Y-86482921D01*
X144914215Y-86677246D01*
X144874792Y-86742213D01*
X144787884Y-86885432D01*
X144787881Y-86885438D01*
X144783095Y-86893325D01*
X144779526Y-86901836D01*
X144779524Y-86901840D01*
X144730814Y-87018000D01*
X144685354Y-87126411D01*
X144623139Y-87371383D01*
X144597816Y-87622861D01*
X141004451Y-87622861D01*
X141000858Y-87574518D01*
X140989722Y-87424662D01*
X140989722Y-87424661D01*
X140989037Y-87415445D01*
X140933256Y-87168928D01*
X140929907Y-87160316D01*
X140927206Y-87151481D01*
X140929548Y-87150765D01*
X140915459Y-87070875D01*
X140936485Y-86976023D01*
X140992208Y-86896436D01*
X141074146Y-86844233D01*
X141174176Y-86827492D01*
X141282013Y-86831729D01*
X141291188Y-86830724D01*
X141291193Y-86830724D01*
X141524077Y-86805219D01*
X141524081Y-86805218D01*
X141533260Y-86804213D01*
X141777681Y-86739863D01*
X141790795Y-86734229D01*
X141869330Y-86700487D01*
X142009905Y-86640091D01*
X142017757Y-86635232D01*
X142017761Y-86635230D01*
X142162693Y-86545543D01*
X142224831Y-86507091D01*
X142417738Y-86343783D01*
X142432643Y-86326788D01*
X142578302Y-86160696D01*
X142578303Y-86160694D01*
X142584388Y-86153756D01*
X142721119Y-85941184D01*
X142729035Y-85923613D01*
X142821135Y-85719156D01*
X142824928Y-85710736D01*
X142883814Y-85501942D01*
X142891024Y-85476377D01*
X142891025Y-85476373D01*
X142893534Y-85467476D01*
X142925431Y-85216747D01*
X142927163Y-85150601D01*
X142927605Y-85133740D01*
X142927605Y-85133732D01*
X142927768Y-85127500D01*
X142909037Y-84875445D01*
X142853256Y-84628928D01*
X142761650Y-84393363D01*
X142636231Y-84173926D01*
X142630519Y-84166680D01*
X142630514Y-84166673D01*
X142485471Y-83982688D01*
X142485467Y-83982684D01*
X142479755Y-83975438D01*
X142295660Y-83802258D01*
X142288081Y-83797000D01*
X142288077Y-83796997D01*
X142095583Y-83663459D01*
X142095581Y-83663458D01*
X142087989Y-83658191D01*
X142079700Y-83654103D01*
X142079696Y-83654101D01*
X141869591Y-83550489D01*
X141869589Y-83550488D01*
X141861305Y-83546403D01*
X141777678Y-83519634D01*
X141629386Y-83472165D01*
X141629379Y-83472163D01*
X141620587Y-83469349D01*
X141498636Y-83449488D01*
X141380239Y-83430205D01*
X141380233Y-83430204D01*
X141371124Y-83428721D01*
X141361894Y-83428600D01*
X141361892Y-83428600D01*
X141188201Y-83426327D01*
X141118396Y-83425413D01*
X141109241Y-83426659D01*
X141109240Y-83426659D01*
X140877107Y-83458250D01*
X140877101Y-83458251D01*
X140867955Y-83459496D01*
X140625303Y-83530223D01*
X140616924Y-83534086D01*
X140616918Y-83534088D01*
X140503432Y-83586406D01*
X140395770Y-83636039D01*
X140331641Y-83678084D01*
X140283971Y-83709338D01*
X140184399Y-83774620D01*
X140177510Y-83780769D01*
X140177507Y-83780771D01*
X140057766Y-83887644D01*
X139995833Y-83942921D01*
X139834215Y-84137246D01*
X139811957Y-84173926D01*
X139707884Y-84345432D01*
X139707881Y-84345438D01*
X139703095Y-84353325D01*
X139699526Y-84361836D01*
X139699524Y-84361840D01*
X139608930Y-84577883D01*
X139605354Y-84586411D01*
X139543139Y-84831383D01*
X139542213Y-84840583D01*
X139521579Y-85045496D01*
X139517816Y-85082861D01*
X139523147Y-85193845D01*
X139527358Y-85281500D01*
X139529943Y-85335320D01*
X139579252Y-85583213D01*
X139582375Y-85591911D01*
X139597633Y-85634410D01*
X139611993Y-85730498D01*
X139588489Y-85824767D01*
X139530699Y-85902865D01*
X139447420Y-85952903D01*
X139360023Y-85967529D01*
X139198396Y-85965413D01*
X139189241Y-85966659D01*
X139189240Y-85966659D01*
X138957107Y-85998250D01*
X138957101Y-85998251D01*
X138947955Y-85999496D01*
X138705303Y-86070223D01*
X138696924Y-86074086D01*
X138696918Y-86074088D01*
X138484160Y-86172171D01*
X138475770Y-86176039D01*
X138402961Y-86223775D01*
X138305003Y-86287999D01*
X138264399Y-86314620D01*
X138257510Y-86320769D01*
X138257507Y-86320771D01*
X138203325Y-86369130D01*
X138075833Y-86482921D01*
X137914215Y-86677246D01*
X137874792Y-86742213D01*
X137787884Y-86885432D01*
X137787881Y-86885438D01*
X137783095Y-86893325D01*
X137779526Y-86901836D01*
X137779524Y-86901840D01*
X137730814Y-87018000D01*
X137685354Y-87126411D01*
X137623139Y-87371383D01*
X137597816Y-87622861D01*
X134004451Y-87622861D01*
X134000858Y-87574518D01*
X133989722Y-87424662D01*
X133989722Y-87424661D01*
X133989037Y-87415445D01*
X133933256Y-87168928D01*
X133929907Y-87160316D01*
X133927206Y-87151481D01*
X133929548Y-87150765D01*
X133915459Y-87070875D01*
X133936485Y-86976023D01*
X133992208Y-86896436D01*
X134074146Y-86844233D01*
X134174176Y-86827492D01*
X134282013Y-86831729D01*
X134291188Y-86830724D01*
X134291193Y-86830724D01*
X134524077Y-86805219D01*
X134524081Y-86805218D01*
X134533260Y-86804213D01*
X134777681Y-86739863D01*
X134790795Y-86734229D01*
X134869330Y-86700487D01*
X135009905Y-86640091D01*
X135017757Y-86635232D01*
X135017761Y-86635230D01*
X135162693Y-86545543D01*
X135224831Y-86507091D01*
X135417738Y-86343783D01*
X135432643Y-86326788D01*
X135578302Y-86160696D01*
X135578303Y-86160694D01*
X135584388Y-86153756D01*
X135721119Y-85941184D01*
X135729035Y-85923613D01*
X135821135Y-85719156D01*
X135824928Y-85710736D01*
X135883814Y-85501942D01*
X135891024Y-85476377D01*
X135891025Y-85476373D01*
X135893534Y-85467476D01*
X135925431Y-85216747D01*
X135927163Y-85150601D01*
X135927605Y-85133740D01*
X135927605Y-85133732D01*
X135927768Y-85127500D01*
X135909037Y-84875445D01*
X135853256Y-84628928D01*
X135761650Y-84393363D01*
X135636231Y-84173926D01*
X135630519Y-84166680D01*
X135630514Y-84166673D01*
X135485471Y-83982688D01*
X135485467Y-83982684D01*
X135479755Y-83975438D01*
X135295660Y-83802258D01*
X135288081Y-83797000D01*
X135288077Y-83796997D01*
X135095583Y-83663459D01*
X135095581Y-83663458D01*
X135087989Y-83658191D01*
X135079700Y-83654103D01*
X135079696Y-83654101D01*
X134869591Y-83550489D01*
X134869589Y-83550488D01*
X134861305Y-83546403D01*
X134777678Y-83519634D01*
X134629386Y-83472165D01*
X134629379Y-83472163D01*
X134620587Y-83469349D01*
X134498636Y-83449488D01*
X134380239Y-83430205D01*
X134380233Y-83430204D01*
X134371124Y-83428721D01*
X134361894Y-83428600D01*
X134361892Y-83428600D01*
X134188201Y-83426327D01*
X134118396Y-83425413D01*
X134109241Y-83426659D01*
X134109240Y-83426659D01*
X133877107Y-83458250D01*
X133877101Y-83458251D01*
X133867955Y-83459496D01*
X133625303Y-83530223D01*
X133616924Y-83534086D01*
X133616918Y-83534088D01*
X133503432Y-83586406D01*
X133395770Y-83636039D01*
X133331641Y-83678084D01*
X133283971Y-83709338D01*
X133184399Y-83774620D01*
X133177510Y-83780769D01*
X133177507Y-83780771D01*
X133057766Y-83887644D01*
X132995833Y-83942921D01*
X132834215Y-84137246D01*
X132811957Y-84173926D01*
X132707884Y-84345432D01*
X132707881Y-84345438D01*
X132703095Y-84353325D01*
X132699526Y-84361836D01*
X132699524Y-84361840D01*
X132608930Y-84577883D01*
X132605354Y-84586411D01*
X132543139Y-84831383D01*
X132542213Y-84840583D01*
X132521579Y-85045496D01*
X132517816Y-85082861D01*
X132523147Y-85193845D01*
X132527358Y-85281500D01*
X132529943Y-85335320D01*
X132579252Y-85583213D01*
X132582375Y-85591911D01*
X132597633Y-85634410D01*
X132611993Y-85730498D01*
X132588489Y-85824767D01*
X132530699Y-85902865D01*
X132447420Y-85952903D01*
X132360023Y-85967529D01*
X132198396Y-85965413D01*
X132189241Y-85966659D01*
X132189240Y-85966659D01*
X131957107Y-85998250D01*
X131957101Y-85998251D01*
X131947955Y-85999496D01*
X131705303Y-86070223D01*
X131696924Y-86074086D01*
X131696918Y-86074088D01*
X131484160Y-86172171D01*
X131475770Y-86176039D01*
X131402961Y-86223775D01*
X131305003Y-86287999D01*
X131264399Y-86314620D01*
X131257510Y-86320769D01*
X131257507Y-86320771D01*
X131203325Y-86369130D01*
X131075833Y-86482921D01*
X130914215Y-86677246D01*
X130874792Y-86742213D01*
X130787884Y-86885432D01*
X130787881Y-86885438D01*
X130783095Y-86893325D01*
X130779526Y-86901836D01*
X130779524Y-86901840D01*
X130730814Y-87018000D01*
X130685354Y-87126411D01*
X130623139Y-87371383D01*
X130597816Y-87622861D01*
X128723000Y-87622861D01*
X128723000Y-85990503D01*
X128744971Y-85888234D01*
X128821135Y-85719156D01*
X128824928Y-85710736D01*
X128883814Y-85501942D01*
X128891024Y-85476377D01*
X128891025Y-85476373D01*
X128893534Y-85467476D01*
X128925431Y-85216747D01*
X128927163Y-85150601D01*
X128927605Y-85133740D01*
X128927605Y-85133732D01*
X128927768Y-85127500D01*
X128909037Y-84875445D01*
X128853256Y-84628928D01*
X128761650Y-84393363D01*
X128636231Y-84173926D01*
X128630519Y-84166680D01*
X128630514Y-84166673D01*
X128485471Y-83982688D01*
X128485467Y-83982684D01*
X128479755Y-83975438D01*
X128295660Y-83802258D01*
X128288081Y-83797000D01*
X128288077Y-83796997D01*
X128095583Y-83663459D01*
X128095581Y-83663458D01*
X128087989Y-83658191D01*
X128079700Y-83654103D01*
X128079696Y-83654101D01*
X127869591Y-83550489D01*
X127869589Y-83550488D01*
X127861305Y-83546403D01*
X127777678Y-83519634D01*
X127629386Y-83472165D01*
X127629379Y-83472163D01*
X127620587Y-83469349D01*
X127498636Y-83449488D01*
X127380239Y-83430205D01*
X127380233Y-83430204D01*
X127371124Y-83428721D01*
X127361894Y-83428600D01*
X127361892Y-83428600D01*
X127188201Y-83426327D01*
X127118396Y-83425413D01*
X127109241Y-83426659D01*
X127109240Y-83426659D01*
X126877107Y-83458250D01*
X126877101Y-83458251D01*
X126867955Y-83459496D01*
X126625303Y-83530223D01*
X126616924Y-83534086D01*
X126616918Y-83534088D01*
X126503432Y-83586406D01*
X126395770Y-83636039D01*
X126388045Y-83641104D01*
X126382721Y-83644055D01*
X126290191Y-83673676D01*
X126193370Y-83665632D01*
X126106997Y-83621149D01*
X126044222Y-83546998D01*
X126014601Y-83454468D01*
X126013000Y-83426277D01*
X126013000Y-81432895D01*
X126031954Y-81337607D01*
X126085930Y-81256825D01*
X126166712Y-81202849D01*
X126262000Y-81183895D01*
X126357288Y-81202849D01*
X126438070Y-81256825D01*
X126452424Y-81272459D01*
X126474537Y-81298705D01*
X126629280Y-81460552D01*
X126665825Y-81496770D01*
X126721136Y-81551587D01*
X126721143Y-81551593D01*
X126725096Y-81555511D01*
X126967532Y-81756073D01*
X127054555Y-81819299D01*
X127139301Y-81880871D01*
X127148686Y-81887690D01*
X127150045Y-81888622D01*
X127150057Y-81888631D01*
X127255342Y-81960876D01*
X127255351Y-81960881D01*
X127259948Y-81964036D01*
X127264818Y-81966770D01*
X127264822Y-81966773D01*
X127282226Y-81976545D01*
X127534300Y-82118084D01*
X127736044Y-82215238D01*
X127737568Y-82215922D01*
X127815344Y-82250829D01*
X127859123Y-82270478D01*
X128156573Y-82373065D01*
X128372422Y-82432636D01*
X128374062Y-82433041D01*
X128374068Y-82433043D01*
X128411178Y-82442217D01*
X128503403Y-82465016D01*
X128814391Y-82512842D01*
X129037409Y-82532914D01*
X129040189Y-82533039D01*
X129040206Y-82533040D01*
X129259207Y-82542875D01*
X129259226Y-82542875D01*
X129262000Y-82543000D01*
X161393184Y-82543000D01*
X161471368Y-82541721D01*
X161474181Y-82541675D01*
X161474183Y-82541675D01*
X161475158Y-82541659D01*
X161556844Y-82538985D01*
X161557854Y-82538935D01*
X161557888Y-82538934D01*
X161637761Y-82535010D01*
X161637780Y-82535009D01*
X161638735Y-82534962D01*
X161639677Y-82534900D01*
X161639699Y-82534899D01*
X161775249Y-82526015D01*
X161775276Y-82526013D01*
X161777302Y-82525880D01*
X161779338Y-82525679D01*
X161779356Y-82525678D01*
X161938449Y-82510009D01*
X161938451Y-82510009D01*
X161940459Y-82509811D01*
X162027130Y-82498401D01*
X162100395Y-82488756D01*
X162100409Y-82488754D01*
X162102429Y-82488488D01*
X162104432Y-82488157D01*
X162104461Y-82488153D01*
X162262178Y-82462113D01*
X162264207Y-82461778D01*
X162335857Y-82447526D01*
X162358254Y-82443071D01*
X162358262Y-82443069D01*
X162360224Y-82442679D01*
X162362185Y-82442222D01*
X162362207Y-82442217D01*
X162467696Y-82417620D01*
X162519895Y-82405449D01*
X162677701Y-82363165D01*
X162679621Y-82362582D01*
X162679637Y-82362578D01*
X162832630Y-82316168D01*
X162832650Y-82316161D01*
X162834610Y-82315567D01*
X162927313Y-82284098D01*
X162969590Y-82268186D01*
X163078832Y-82227070D01*
X163078857Y-82227060D01*
X163080757Y-82226345D01*
X163231682Y-82163829D01*
X163381008Y-82096170D01*
X163382821Y-82095276D01*
X163382842Y-82095266D01*
X163467025Y-82053752D01*
X163467058Y-82053735D01*
X163468800Y-82052876D01*
X163470517Y-82051958D01*
X163470535Y-82051949D01*
X163611606Y-81976545D01*
X163611613Y-81976541D01*
X163613398Y-81975587D01*
X163674751Y-81940165D01*
X163753120Y-81894919D01*
X163753138Y-81894908D01*
X163754886Y-81893899D01*
X163756590Y-81892839D01*
X163756609Y-81892828D01*
X163847949Y-81836029D01*
X163894100Y-81807331D01*
X163975493Y-81752947D01*
X164000082Y-81735327D01*
X164107135Y-81658615D01*
X164107154Y-81658601D01*
X164108788Y-81657430D01*
X164212458Y-81577881D01*
X164236796Y-81559206D01*
X164236815Y-81559191D01*
X164238397Y-81557977D01*
X164246184Y-81551587D01*
X164312978Y-81496770D01*
X164365127Y-81453972D01*
X164469535Y-81362409D01*
X164530305Y-81307330D01*
X164589960Y-81251456D01*
X164648859Y-81194453D01*
X172419453Y-73423859D01*
X172476456Y-73364960D01*
X172532330Y-73305305D01*
X172587409Y-73244535D01*
X172678972Y-73140127D01*
X172782981Y-73013392D01*
X172882435Y-72883781D01*
X172977944Y-72750497D01*
X172984754Y-72740306D01*
X173031199Y-72670794D01*
X173032327Y-72669106D01*
X173118899Y-72529886D01*
X173126337Y-72517004D01*
X173199557Y-72390182D01*
X173200587Y-72388398D01*
X173277876Y-72243800D01*
X173278735Y-72242058D01*
X173278752Y-72242025D01*
X173320266Y-72157842D01*
X173320276Y-72157821D01*
X173321170Y-72156008D01*
X173388828Y-72006684D01*
X173389608Y-72004802D01*
X173389621Y-72004771D01*
X173450552Y-71857672D01*
X173450557Y-71857660D01*
X173451345Y-71855757D01*
X173509101Y-71702303D01*
X173540569Y-71609602D01*
X173588165Y-71452701D01*
X173630449Y-71294895D01*
X173667680Y-71135219D01*
X173686779Y-71039201D01*
X173713487Y-70877430D01*
X173734810Y-70715461D01*
X173742489Y-70637500D01*
X180862500Y-70637500D01*
X181662500Y-70637500D01*
X181662500Y-69437500D01*
X180862500Y-69437500D01*
X180862500Y-70637500D01*
X173742489Y-70637500D01*
X173742890Y-70633431D01*
X173750681Y-70554325D01*
X173750681Y-70554322D01*
X173750880Y-70552304D01*
X173759962Y-70413739D01*
X173763985Y-70331844D01*
X173766659Y-70250156D01*
X173768000Y-70168184D01*
X173768000Y-68237500D01*
X180862500Y-68237500D01*
X181662500Y-68237500D01*
X181662500Y-67037500D01*
X180862500Y-67037500D01*
X180862500Y-68237500D01*
X173768000Y-68237500D01*
X173768000Y-65792000D01*
X173786954Y-65696712D01*
X173840930Y-65615930D01*
X173921712Y-65561954D01*
X174017000Y-65543000D01*
X183621548Y-65543000D01*
X183716836Y-65561954D01*
G37*
G04 #@! TD.AperFunction*
G04 #@! TA.AperFunction,Conductor*
G36*
X188339019Y-81549997D02*
G01*
X188397416Y-81593367D01*
X190009070Y-83205021D01*
X190063046Y-83285803D01*
X190082000Y-83381091D01*
X190082000Y-84349300D01*
X190063046Y-84444588D01*
X190009070Y-84525370D01*
X189670370Y-84864070D01*
X189589588Y-84918046D01*
X189494300Y-84937000D01*
X187461999Y-84937000D01*
X187366711Y-84918046D01*
X187285929Y-84864070D01*
X187231953Y-84783288D01*
X187212999Y-84688000D01*
X187212999Y-84498140D01*
X187206983Y-84452440D01*
X187199675Y-84396923D01*
X187199674Y-84396920D01*
X187197544Y-84380738D01*
X187196386Y-84377943D01*
X187190616Y-84289874D01*
X187221847Y-84197876D01*
X187285906Y-84124832D01*
X187342195Y-84092334D01*
X187415341Y-84062036D01*
X187428289Y-84052101D01*
X187428292Y-84052099D01*
X187527828Y-83975722D01*
X187540782Y-83965782D01*
X187562608Y-83937338D01*
X187627099Y-83853292D01*
X187627101Y-83853289D01*
X187637036Y-83840341D01*
X187697544Y-83694262D01*
X187713000Y-83576861D01*
X187713000Y-82080797D01*
X187731954Y-81985509D01*
X187785930Y-81904727D01*
X187854628Y-81836029D01*
X187867012Y-81824462D01*
X187871367Y-81820663D01*
X187906896Y-81789669D01*
X187931916Y-81754069D01*
X187941341Y-81740659D01*
X187949115Y-81730191D01*
X187961246Y-81714720D01*
X187986084Y-81683043D01*
X187992262Y-81669359D01*
X187992921Y-81668271D01*
X187994156Y-81666381D01*
X187995159Y-81664346D01*
X187995755Y-81663235D01*
X188004387Y-81650953D01*
X188006020Y-81646765D01*
X188063641Y-81576745D01*
X188149386Y-81531062D01*
X188246086Y-81521669D01*
X188339019Y-81549997D01*
G37*
G04 #@! TD.AperFunction*
G04 #@! TA.AperFunction,Conductor*
G36*
X188381315Y-59546851D02*
G01*
X188399166Y-59548256D01*
X188592732Y-59578914D01*
X188630450Y-59587969D01*
X188816816Y-59648522D01*
X188852662Y-59663369D01*
X189027314Y-59752360D01*
X189060387Y-59772628D01*
X189218915Y-59887806D01*
X189248413Y-59913000D01*
X189387000Y-60051587D01*
X189412194Y-60081085D01*
X189527372Y-60239613D01*
X189547640Y-60272686D01*
X189636631Y-60447338D01*
X189651478Y-60483184D01*
X189712031Y-60669550D01*
X189721086Y-60707268D01*
X189751745Y-60900841D01*
X189758650Y-60988578D01*
X189762500Y-61086573D01*
X189762500Y-61709073D01*
X189779610Y-61970125D01*
X189830648Y-62226711D01*
X189914741Y-62474440D01*
X190030449Y-62709073D01*
X190175793Y-62926596D01*
X190348286Y-63123286D01*
X201391176Y-74166176D01*
X201534681Y-74338066D01*
X201645186Y-74532817D01*
X201719142Y-74744171D01*
X201754171Y-74965333D01*
X201757000Y-75049352D01*
X201757000Y-104742032D01*
X201736928Y-104965050D01*
X201677357Y-105180899D01*
X201580203Y-105382643D01*
X201448586Y-105563797D01*
X201286739Y-105718540D01*
X201099862Y-105841896D01*
X200944487Y-105912280D01*
X200909664Y-105925268D01*
X200738685Y-105975473D01*
X200634415Y-105998155D01*
X200458029Y-106023516D01*
X200400004Y-106027666D01*
X200306986Y-106034318D01*
X200217888Y-106037500D01*
X191111857Y-106037500D01*
X190916471Y-106022123D01*
X190886828Y-106017428D01*
X190569838Y-105967222D01*
X190537184Y-105965511D01*
X190537178Y-105965510D01*
X190215166Y-105948634D01*
X190182500Y-105946922D01*
X190149834Y-105948634D01*
X189827822Y-105965510D01*
X189827816Y-105965511D01*
X189795162Y-105967222D01*
X189478172Y-106017428D01*
X189448529Y-106022123D01*
X189253143Y-106037500D01*
X184111857Y-106037500D01*
X183916471Y-106022123D01*
X183886828Y-106017428D01*
X183569838Y-105967222D01*
X183537184Y-105965511D01*
X183537178Y-105965510D01*
X183215166Y-105948634D01*
X183182500Y-105946922D01*
X183149834Y-105948634D01*
X182827822Y-105965510D01*
X182827816Y-105965511D01*
X182795162Y-105967222D01*
X182478172Y-106017428D01*
X182448529Y-106022123D01*
X182253143Y-106037500D01*
X177111857Y-106037500D01*
X176916471Y-106022123D01*
X176886828Y-106017428D01*
X176569838Y-105967222D01*
X176537184Y-105965511D01*
X176537178Y-105965510D01*
X176215166Y-105948634D01*
X176182500Y-105946922D01*
X176149834Y-105948634D01*
X175827822Y-105965510D01*
X175827816Y-105965511D01*
X175795162Y-105967222D01*
X175478172Y-106017428D01*
X175448529Y-106022123D01*
X175253143Y-106037500D01*
X170111857Y-106037500D01*
X169916471Y-106022123D01*
X169886828Y-106017428D01*
X169569838Y-105967222D01*
X169537184Y-105965511D01*
X169537178Y-105965510D01*
X169215166Y-105948634D01*
X169182500Y-105946922D01*
X169149834Y-105948634D01*
X168827822Y-105965510D01*
X168827816Y-105965511D01*
X168795162Y-105967222D01*
X168478172Y-106017428D01*
X168448529Y-106022123D01*
X168253143Y-106037500D01*
X163111857Y-106037500D01*
X162916471Y-106022123D01*
X162886828Y-106017428D01*
X162569838Y-105967222D01*
X162537184Y-105965511D01*
X162537178Y-105965510D01*
X162215166Y-105948634D01*
X162182500Y-105946922D01*
X162149834Y-105948634D01*
X161827822Y-105965510D01*
X161827816Y-105965511D01*
X161795162Y-105967222D01*
X161478172Y-106017428D01*
X161448529Y-106022123D01*
X161253143Y-106037500D01*
X156111857Y-106037500D01*
X155916471Y-106022123D01*
X155886828Y-106017428D01*
X155569838Y-105967222D01*
X155537184Y-105965511D01*
X155537178Y-105965510D01*
X155215166Y-105948634D01*
X155182500Y-105946922D01*
X155149834Y-105948634D01*
X154827822Y-105965510D01*
X154827816Y-105965511D01*
X154795162Y-105967222D01*
X154478172Y-106017428D01*
X154448529Y-106022123D01*
X154253143Y-106037500D01*
X149111857Y-106037500D01*
X148916471Y-106022123D01*
X148886828Y-106017428D01*
X148569838Y-105967222D01*
X148537184Y-105965511D01*
X148537178Y-105965510D01*
X148215166Y-105948634D01*
X148182500Y-105946922D01*
X148149834Y-105948634D01*
X147827822Y-105965510D01*
X147827816Y-105965511D01*
X147795162Y-105967222D01*
X147478172Y-106017428D01*
X147448529Y-106022123D01*
X147253143Y-106037500D01*
X142111857Y-106037500D01*
X141916471Y-106022123D01*
X141886828Y-106017428D01*
X141569838Y-105967222D01*
X141537184Y-105965511D01*
X141537178Y-105965510D01*
X141215166Y-105948634D01*
X141182500Y-105946922D01*
X141149834Y-105948634D01*
X140827822Y-105965510D01*
X140827816Y-105965511D01*
X140795162Y-105967222D01*
X140478172Y-106017428D01*
X140448529Y-106022123D01*
X140253143Y-106037500D01*
X135111857Y-106037500D01*
X134916471Y-106022123D01*
X134886828Y-106017428D01*
X134569838Y-105967222D01*
X134537184Y-105965511D01*
X134537178Y-105965510D01*
X134215166Y-105948634D01*
X134182500Y-105946922D01*
X134149834Y-105948634D01*
X133827822Y-105965510D01*
X133827816Y-105965511D01*
X133795162Y-105967222D01*
X133478172Y-106017428D01*
X133448529Y-106022123D01*
X133253143Y-106037500D01*
X129262000Y-106037500D01*
X129038982Y-106017428D01*
X128823133Y-105957857D01*
X128621389Y-105860703D01*
X128440235Y-105729086D01*
X128285492Y-105567239D01*
X128162136Y-105380362D01*
X128074130Y-105174462D01*
X128024304Y-104956157D01*
X128013000Y-104788500D01*
X128013000Y-103286500D01*
X128033072Y-103063482D01*
X128092643Y-102847633D01*
X128189797Y-102645889D01*
X128321414Y-102464735D01*
X128483261Y-102309992D01*
X128670138Y-102186636D01*
X128876038Y-102098630D01*
X129094343Y-102048804D01*
X129262000Y-102037500D01*
X196262500Y-102037500D01*
X196415876Y-102026530D01*
X196502643Y-102020325D01*
X196502646Y-102020325D01*
X196547130Y-102017143D01*
X196590710Y-102007663D01*
X196590715Y-102007662D01*
X196667823Y-101990888D01*
X196825965Y-101956486D01*
X197093330Y-101856764D01*
X197343782Y-101720007D01*
X197572221Y-101548999D01*
X197773999Y-101347221D01*
X197945007Y-101118782D01*
X198081764Y-100868330D01*
X198181486Y-100600965D01*
X198242143Y-100322130D01*
X198262500Y-100037500D01*
X198262500Y-99497284D01*
X198282572Y-99274266D01*
X198342143Y-99058417D01*
X198439297Y-98856673D01*
X198448609Y-98841731D01*
X198453814Y-98832716D01*
X198471625Y-98805289D01*
X198647714Y-98459694D01*
X198786714Y-98097587D01*
X198887102Y-97722933D01*
X198947778Y-97339838D01*
X198968078Y-96952500D01*
X198947778Y-96565162D01*
X198887102Y-96182067D01*
X198786714Y-95807413D01*
X198647714Y-95445306D01*
X198471625Y-95099711D01*
X198453808Y-95072275D01*
X198437459Y-95043958D01*
X198439973Y-95042507D01*
X198359369Y-94889997D01*
X198291769Y-94676525D01*
X198263373Y-94454414D01*
X198262500Y-94407716D01*
X198262500Y-77365927D01*
X198245390Y-77104875D01*
X198194352Y-76848289D01*
X198110259Y-76600560D01*
X197994551Y-76365927D01*
X197849207Y-76148404D01*
X197676714Y-75951714D01*
X185348286Y-63623286D01*
X185151596Y-63450793D01*
X184934073Y-63305449D01*
X184699440Y-63189741D01*
X184451711Y-63105648D01*
X184195125Y-63054610D01*
X183934073Y-63037500D01*
X173262500Y-63037500D01*
X173109124Y-63048470D01*
X173022357Y-63054675D01*
X173022354Y-63054675D01*
X172977870Y-63057857D01*
X172934290Y-63067337D01*
X172934285Y-63067338D01*
X172857177Y-63084112D01*
X172699035Y-63118514D01*
X172431670Y-63218236D01*
X172181218Y-63354993D01*
X171952779Y-63526001D01*
X171751001Y-63727779D01*
X171579993Y-63956218D01*
X171443236Y-64206670D01*
X171343514Y-64474035D01*
X171282857Y-64752870D01*
X171262500Y-65037500D01*
X171262500Y-70168184D01*
X171259826Y-70249872D01*
X171250744Y-70388437D01*
X171229421Y-70550406D01*
X171210322Y-70646424D01*
X171168038Y-70804230D01*
X171136570Y-70896931D01*
X171074053Y-71047858D01*
X171030759Y-71135650D01*
X170949071Y-71277138D01*
X170894688Y-71358529D01*
X170795234Y-71488140D01*
X170703671Y-71592548D01*
X170647797Y-71652203D01*
X162877203Y-79422797D01*
X162817548Y-79478671D01*
X162713140Y-79570234D01*
X162583531Y-79669687D01*
X162502138Y-79724071D01*
X162360650Y-79805759D01*
X162272858Y-79849053D01*
X162121933Y-79911569D01*
X162029230Y-79943038D01*
X161871424Y-79985322D01*
X161775407Y-80004421D01*
X161613437Y-80025744D01*
X161566053Y-80028850D01*
X161474870Y-80034826D01*
X161393184Y-80037500D01*
X129262000Y-80037500D01*
X129038982Y-80017428D01*
X128823133Y-79957857D01*
X128621389Y-79860703D01*
X128440235Y-79729086D01*
X128285492Y-79567239D01*
X128162136Y-79380362D01*
X128074130Y-79174462D01*
X128024304Y-78956157D01*
X128013000Y-78788500D01*
X128013000Y-77286500D01*
X128033072Y-77063482D01*
X128092643Y-76847633D01*
X128189797Y-76645889D01*
X128321414Y-76464735D01*
X128483261Y-76309992D01*
X128670138Y-76186636D01*
X128876038Y-76098630D01*
X129094343Y-76048804D01*
X129262000Y-76037500D01*
X131341574Y-76037500D01*
X131536960Y-76052877D01*
X131915162Y-76112778D01*
X131947816Y-76114489D01*
X131947822Y-76114490D01*
X132269834Y-76131366D01*
X132302500Y-76133078D01*
X132335166Y-76131366D01*
X132657178Y-76114490D01*
X132657184Y-76114489D01*
X132689838Y-76112778D01*
X133068040Y-76052877D01*
X133263426Y-76037500D01*
X138341574Y-76037500D01*
X138536960Y-76052877D01*
X138915162Y-76112778D01*
X138947816Y-76114489D01*
X138947822Y-76114490D01*
X139269834Y-76131366D01*
X139302500Y-76133078D01*
X139335166Y-76131366D01*
X139657178Y-76114490D01*
X139657184Y-76114489D01*
X139689838Y-76112778D01*
X140068040Y-76052877D01*
X140263426Y-76037500D01*
X145341574Y-76037500D01*
X145536960Y-76052877D01*
X145915162Y-76112778D01*
X145947816Y-76114489D01*
X145947822Y-76114490D01*
X146269834Y-76131366D01*
X146302500Y-76133078D01*
X146335166Y-76131366D01*
X146657178Y-76114490D01*
X146657184Y-76114489D01*
X146689838Y-76112778D01*
X147068040Y-76052877D01*
X147263426Y-76037500D01*
X152341574Y-76037500D01*
X152536960Y-76052877D01*
X152915162Y-76112778D01*
X152947816Y-76114489D01*
X152947822Y-76114490D01*
X153269834Y-76131366D01*
X153302500Y-76133078D01*
X153335166Y-76131366D01*
X153657178Y-76114490D01*
X153657184Y-76114489D01*
X153689838Y-76112778D01*
X154068040Y-76052877D01*
X154263426Y-76037500D01*
X159341574Y-76037500D01*
X159536960Y-76052877D01*
X159915162Y-76112778D01*
X159947816Y-76114489D01*
X159947822Y-76114490D01*
X160269834Y-76131366D01*
X160302500Y-76133078D01*
X160335166Y-76131366D01*
X160657178Y-76114490D01*
X160657184Y-76114489D01*
X160689838Y-76112778D01*
X161072933Y-76052102D01*
X161299528Y-75991386D01*
X161416007Y-75960176D01*
X161416010Y-75960175D01*
X161447587Y-75951714D01*
X161809694Y-75812714D01*
X162155289Y-75636625D01*
X162182704Y-75618821D01*
X162182710Y-75618818D01*
X162453160Y-75443186D01*
X162453168Y-75443180D01*
X162480584Y-75425376D01*
X162782016Y-75181281D01*
X163056281Y-74907016D01*
X163300376Y-74605584D01*
X163318180Y-74578168D01*
X163318186Y-74578160D01*
X163493818Y-74307710D01*
X163493821Y-74307704D01*
X163511625Y-74280289D01*
X163553051Y-74198986D01*
X163672866Y-73963835D01*
X163672866Y-73963834D01*
X163687714Y-73934694D01*
X163793440Y-73659269D01*
X163892101Y-73458257D01*
X164025068Y-73278092D01*
X164076306Y-73223694D01*
X166676714Y-70623286D01*
X166849207Y-70426596D01*
X166994551Y-70209073D01*
X167110259Y-69974440D01*
X167194352Y-69726711D01*
X167245390Y-69470125D01*
X167262500Y-69209073D01*
X167262500Y-61582112D01*
X167265682Y-61493014D01*
X167276484Y-61341974D01*
X167301845Y-61165585D01*
X167324527Y-61061315D01*
X167374728Y-60890346D01*
X167412021Y-60790359D01*
X167486048Y-60628266D01*
X167537180Y-60534625D01*
X167633525Y-60384709D01*
X167697472Y-60299286D01*
X167814171Y-60164609D01*
X167889609Y-60089171D01*
X168024286Y-59972472D01*
X168109709Y-59908525D01*
X168259625Y-59812180D01*
X168353266Y-59761048D01*
X168515359Y-59687021D01*
X168615346Y-59649728D01*
X168786315Y-59599527D01*
X168890585Y-59576845D01*
X169066978Y-59551484D01*
X169141117Y-59546182D01*
X169230211Y-59543000D01*
X188283313Y-59543000D01*
X188381315Y-59546851D01*
G37*
G04 #@! TD.AperFunction*
M02*
