G04 #@! TF.GenerationSoftware,KiCad,Pcbnew,6.0.10+dfsg-1~bpo11+1*
G04 #@! TF.ProjectId,project,70726f6a-6563-4742-9e6b-696361645f70,rev?*
G04 #@! TF.SameCoordinates,Original*
G04 #@! TF.FileFunction,Copper,L1,Top*
G04 #@! TF.FilePolarity,Positive*
%FSLAX46Y46*%
G04 Gerber Fmt 4.6, Leading zero omitted, Abs format (unit mm)*
%MOMM*%
%LPD*%
G01*
G04 APERTURE LIST*
G04 #@! TA.AperFunction,Profile*
%ADD10C,0.100000*%
G04 #@! TD*
G04 #@! TA.AperFunction,SMDPad,CuDef*
%ADD11R,1.000000X1.000000*%
G04 #@! TD*
G04 #@! TA.AperFunction,ComponentPad*
%ADD12C,2.400000*%
G04 #@! TD*
G04 #@! TA.AperFunction,ComponentPad*
%ADD13O,2.080000X3.600000*%
G04 #@! TD*
G04 #@! TA.AperFunction,ComponentPad*
%ADD14O,2.100000X3.600000*%
G04 #@! TD*
G04 #@! TA.AperFunction,SMDPad,CuDef*
%ADD15C,7.000000*%
G04 #@! TD*
G04 #@! TA.AperFunction,ComponentPad*
%ADD16C,5.000000*%
G04 #@! TD*
G04 #@! TA.AperFunction,ViaPad*
%ADD17C,0.700000*%
G04 #@! TD*
G04 #@! TA.AperFunction,Conductor*
%ADD18C,0.300000*%
G04 #@! TD*
G04 #@! TA.AperFunction,Conductor*
%ADD19C,1.000000*%
G04 #@! TD*
G04 #@! TA.AperFunction,Conductor*
%ADD20C,2.000000*%
G04 #@! TD*
G04 #@! TA.AperFunction,Conductor*
%ADD21C,1.500000*%
G04 #@! TD*
G04 #@! TA.AperFunction,Conductor*
%ADD22C,2.500000*%
G04 #@! TD*
G04 APERTURE END LIST*
D10*
X125512500Y-133037500D02*
G75*
G03*
X126512500Y-134037500I1000000J0D01*
G01*
X211012500Y-49037500D02*
X211012500Y-133037500D01*
X210012500Y-134037500D02*
X126512500Y-134037500D01*
X126512500Y-48037500D02*
X210012500Y-48037500D01*
X210012500Y-134037500D02*
G75*
G03*
X211012500Y-133037500I0J1000000D01*
G01*
X211012500Y-49037500D02*
G75*
G03*
X210012500Y-48037500I-1000000J0D01*
G01*
X126512500Y-48037500D02*
G75*
G03*
X125512500Y-49037500I0J-1000000D01*
G01*
X125512500Y-133037500D02*
X125512500Y-49037500D01*
D11*
X139012500Y-91037500D03*
X141512500Y-91037500D03*
D12*
X132302500Y-87667500D03*
X132302500Y-77507500D03*
X132302500Y-72427500D03*
X127222500Y-85127500D03*
X148182500Y-94412500D03*
X148182500Y-104572500D03*
X148182500Y-109652500D03*
X153262500Y-96952500D03*
D11*
X147012500Y-91037500D03*
X149512500Y-91037500D03*
X153512500Y-91037500D03*
X151012500Y-91037500D03*
G04 #@! TA.AperFunction,SMDPad,CuDef*
G36*
G01*
X192662500Y-88587500D02*
X192662500Y-89487500D01*
G75*
G02*
X192412500Y-89737500I-250000J0D01*
G01*
X191762500Y-89737500D01*
G75*
G02*
X191512500Y-89487500I0J250000D01*
G01*
X191512500Y-88587500D01*
G75*
G02*
X191762500Y-88337500I250000J0D01*
G01*
X192412500Y-88337500D01*
G75*
G02*
X192662500Y-88587500I0J-250000D01*
G01*
G37*
G04 #@! TD.AperFunction*
G04 #@! TA.AperFunction,SMDPad,CuDef*
G36*
G01*
X190612500Y-88587500D02*
X190612500Y-89487500D01*
G75*
G02*
X190362500Y-89737500I-250000J0D01*
G01*
X189712500Y-89737500D01*
G75*
G02*
X189462500Y-89487500I0J250000D01*
G01*
X189462500Y-88587500D01*
G75*
G02*
X189712500Y-88337500I250000J0D01*
G01*
X190362500Y-88337500D01*
G75*
G02*
X190612500Y-88587500I0J-250000D01*
G01*
G37*
G04 #@! TD.AperFunction*
X161512500Y-91037500D03*
X159012500Y-91037500D03*
G04 #@! TA.AperFunction,ComponentPad*
G36*
G01*
X131982500Y-120310001D02*
X131982500Y-117209999D01*
G75*
G02*
X132232499Y-116960000I249999J0D01*
G01*
X133812501Y-116960000D01*
G75*
G02*
X134062500Y-117209999I0J-249999D01*
G01*
X134062500Y-120310001D01*
G75*
G02*
X133812501Y-120560000I-249999J0D01*
G01*
X132232499Y-120560000D01*
G75*
G02*
X131982500Y-120310001I0J249999D01*
G01*
G37*
G04 #@! TD.AperFunction*
D13*
X138102500Y-118760000D03*
X143182500Y-118760000D03*
X148262500Y-118760000D03*
X153342500Y-118760000D03*
X158422500Y-118760000D03*
X163502500Y-118760000D03*
G04 #@! TA.AperFunction,SMDPad,CuDef*
G36*
G01*
X178262500Y-67837500D02*
X178262500Y-67537500D01*
G75*
G02*
X178412500Y-67387500I150000J0D01*
G01*
X179437500Y-67387500D01*
G75*
G02*
X179587500Y-67537500I0J-150000D01*
G01*
X179587500Y-67837500D01*
G75*
G02*
X179437500Y-67987500I-150000J0D01*
G01*
X178412500Y-67987500D01*
G75*
G02*
X178262500Y-67837500I0J150000D01*
G01*
G37*
G04 #@! TD.AperFunction*
G04 #@! TA.AperFunction,SMDPad,CuDef*
G36*
G01*
X178262500Y-68787500D02*
X178262500Y-68487500D01*
G75*
G02*
X178412500Y-68337500I150000J0D01*
G01*
X179437500Y-68337500D01*
G75*
G02*
X179587500Y-68487500I0J-150000D01*
G01*
X179587500Y-68787500D01*
G75*
G02*
X179437500Y-68937500I-150000J0D01*
G01*
X178412500Y-68937500D01*
G75*
G02*
X178262500Y-68787500I0J150000D01*
G01*
G37*
G04 #@! TD.AperFunction*
G04 #@! TA.AperFunction,SMDPad,CuDef*
G36*
G01*
X178262500Y-69737500D02*
X178262500Y-69437500D01*
G75*
G02*
X178412500Y-69287500I150000J0D01*
G01*
X179437500Y-69287500D01*
G75*
G02*
X179587500Y-69437500I0J-150000D01*
G01*
X179587500Y-69737500D01*
G75*
G02*
X179437500Y-69887500I-150000J0D01*
G01*
X178412500Y-69887500D01*
G75*
G02*
X178262500Y-69737500I0J150000D01*
G01*
G37*
G04 #@! TD.AperFunction*
G04 #@! TA.AperFunction,SMDPad,CuDef*
G36*
G01*
X180537500Y-69737500D02*
X180537500Y-69437500D01*
G75*
G02*
X180687500Y-69287500I150000J0D01*
G01*
X181712500Y-69287500D01*
G75*
G02*
X181862500Y-69437500I0J-150000D01*
G01*
X181862500Y-69737500D01*
G75*
G02*
X181712500Y-69887500I-150000J0D01*
G01*
X180687500Y-69887500D01*
G75*
G02*
X180537500Y-69737500I0J150000D01*
G01*
G37*
G04 #@! TD.AperFunction*
G04 #@! TA.AperFunction,SMDPad,CuDef*
G36*
G01*
X180537500Y-68787500D02*
X180537500Y-68487500D01*
G75*
G02*
X180687500Y-68337500I150000J0D01*
G01*
X181712500Y-68337500D01*
G75*
G02*
X181862500Y-68487500I0J-150000D01*
G01*
X181862500Y-68787500D01*
G75*
G02*
X181712500Y-68937500I-150000J0D01*
G01*
X180687500Y-68937500D01*
G75*
G02*
X180537500Y-68787500I0J150000D01*
G01*
G37*
G04 #@! TD.AperFunction*
G04 #@! TA.AperFunction,SMDPad,CuDef*
G36*
G01*
X180537500Y-67837500D02*
X180537500Y-67537500D01*
G75*
G02*
X180687500Y-67387500I150000J0D01*
G01*
X181712500Y-67387500D01*
G75*
G02*
X181862500Y-67537500I0J-150000D01*
G01*
X181862500Y-67837500D01*
G75*
G02*
X181712500Y-67987500I-150000J0D01*
G01*
X180687500Y-67987500D01*
G75*
G02*
X180537500Y-67837500I0J150000D01*
G01*
G37*
G04 #@! TD.AperFunction*
G04 #@! TA.AperFunction,ComponentPad*
G36*
G01*
X203932500Y-61765001D02*
X203932500Y-64864999D01*
G75*
G02*
X203682499Y-65115000I-250001J0D01*
G01*
X202082501Y-65115000D01*
G75*
G02*
X201832500Y-64864999I0J250001D01*
G01*
X201832500Y-61765001D01*
G75*
G02*
X202082501Y-61515000I250001J0D01*
G01*
X203682499Y-61515000D01*
G75*
G02*
X203932500Y-61765001I0J-250001D01*
G01*
G37*
G04 #@! TD.AperFunction*
D14*
X195262500Y-63315000D03*
X187642500Y-63315000D03*
D12*
X141182500Y-94412500D03*
X141182500Y-104572500D03*
X141182500Y-109652500D03*
X146262500Y-96952500D03*
X176182500Y-94412500D03*
X176182500Y-104572500D03*
X176182500Y-109652500D03*
X181262500Y-96952500D03*
D11*
X163012500Y-91037500D03*
X165512500Y-91037500D03*
D12*
X153302500Y-87667500D03*
X153302500Y-77507500D03*
X153302500Y-72427500D03*
X148222500Y-85127500D03*
G04 #@! TA.AperFunction,SMDPad,CuDef*
G36*
G01*
X185662500Y-87487500D02*
X185662500Y-86587500D01*
G75*
G02*
X185912500Y-86337500I250000J0D01*
G01*
X186612500Y-86337500D01*
G75*
G02*
X186862500Y-86587500I0J-250000D01*
G01*
X186862500Y-87487500D01*
G75*
G02*
X186612500Y-87737500I-250000J0D01*
G01*
X185912500Y-87737500D01*
G75*
G02*
X185662500Y-87487500I0J250000D01*
G01*
G37*
G04 #@! TD.AperFunction*
G04 #@! TA.AperFunction,SMDPad,CuDef*
G36*
G01*
X187662500Y-87487500D02*
X187662500Y-86587500D01*
G75*
G02*
X187912500Y-86337500I250000J0D01*
G01*
X188612500Y-86337500D01*
G75*
G02*
X188862500Y-86587500I0J-250000D01*
G01*
X188862500Y-87487500D01*
G75*
G02*
X188612500Y-87737500I-250000J0D01*
G01*
X187912500Y-87737500D01*
G75*
G02*
X187662500Y-87487500I0J250000D01*
G01*
G37*
G04 #@! TD.AperFunction*
X127182500Y-94412500D03*
X127182500Y-104572500D03*
X127182500Y-109652500D03*
X132262500Y-96952500D03*
G04 #@! TA.AperFunction,SMDPad,CuDef*
G36*
G01*
X161637500Y-85512500D02*
X161637500Y-84562500D01*
G75*
G02*
X161887500Y-84312500I250000J0D01*
G01*
X162562500Y-84312500D01*
G75*
G02*
X162812500Y-84562500I0J-250000D01*
G01*
X162812500Y-85512500D01*
G75*
G02*
X162562500Y-85762500I-250000J0D01*
G01*
X161887500Y-85762500D01*
G75*
G02*
X161637500Y-85512500I0J250000D01*
G01*
G37*
G04 #@! TD.AperFunction*
G04 #@! TA.AperFunction,SMDPad,CuDef*
G36*
G01*
X163712500Y-85512500D02*
X163712500Y-84562500D01*
G75*
G02*
X163962500Y-84312500I250000J0D01*
G01*
X164637500Y-84312500D01*
G75*
G02*
X164887500Y-84562500I0J-250000D01*
G01*
X164887500Y-85512500D01*
G75*
G02*
X164637500Y-85762500I-250000J0D01*
G01*
X163962500Y-85762500D01*
G75*
G02*
X163712500Y-85512500I0J250000D01*
G01*
G37*
G04 #@! TD.AperFunction*
X155182500Y-94412500D03*
X155182500Y-104572500D03*
X155182500Y-109652500D03*
X160262500Y-96952500D03*
G04 #@! TA.AperFunction,ComponentPad*
G36*
G01*
X163542500Y-61764999D02*
X163542500Y-64865001D01*
G75*
G02*
X163292501Y-65115000I-249999J0D01*
G01*
X161712499Y-65115000D01*
G75*
G02*
X161462500Y-64865001I0J249999D01*
G01*
X161462500Y-61764999D01*
G75*
G02*
X161712499Y-61515000I249999J0D01*
G01*
X163292501Y-61515000D01*
G75*
G02*
X163542500Y-61764999I0J-249999D01*
G01*
G37*
G04 #@! TD.AperFunction*
D13*
X157422500Y-63315000D03*
X152342500Y-63315000D03*
X147262500Y-63315000D03*
X142182500Y-63315000D03*
X137102500Y-63315000D03*
X132022500Y-63315000D03*
D12*
X169182500Y-94412500D03*
X169182500Y-104572500D03*
X169182500Y-109652500D03*
X174262500Y-96952500D03*
G04 #@! TA.AperFunction,SMDPad,CuDef*
G36*
G01*
X169712500Y-84537500D02*
X169712500Y-85687500D01*
G75*
G02*
X169612500Y-85787500I-100000J0D01*
G01*
X169412500Y-85787500D01*
G75*
G02*
X169312500Y-85687500I0J100000D01*
G01*
X169312500Y-84537500D01*
G75*
G02*
X169412500Y-84437500I100000J0D01*
G01*
X169612500Y-84437500D01*
G75*
G02*
X169712500Y-84537500I0J-100000D01*
G01*
G37*
G04 #@! TD.AperFunction*
G04 #@! TA.AperFunction,SMDPad,CuDef*
G36*
G01*
X170212500Y-82387500D02*
X170212500Y-83537500D01*
G75*
G02*
X170112500Y-83637500I-100000J0D01*
G01*
X169912500Y-83637500D01*
G75*
G02*
X169812500Y-83537500I0J100000D01*
G01*
X169812500Y-82387500D01*
G75*
G02*
X169912500Y-82287500I100000J0D01*
G01*
X170112500Y-82287500D01*
G75*
G02*
X170212500Y-82387500I0J-100000D01*
G01*
G37*
G04 #@! TD.AperFunction*
G04 #@! TA.AperFunction,SMDPad,CuDef*
G36*
G01*
X170712500Y-84537500D02*
X170712500Y-85687500D01*
G75*
G02*
X170612500Y-85787500I-100000J0D01*
G01*
X170412500Y-85787500D01*
G75*
G02*
X170312500Y-85687500I0J100000D01*
G01*
X170312500Y-84537500D01*
G75*
G02*
X170412500Y-84437500I100000J0D01*
G01*
X170612500Y-84437500D01*
G75*
G02*
X170712500Y-84537500I0J-100000D01*
G01*
G37*
G04 #@! TD.AperFunction*
G04 #@! TA.AperFunction,SMDPad,CuDef*
G36*
G01*
X171212500Y-82387500D02*
X171212500Y-83537500D01*
G75*
G02*
X171112500Y-83637500I-100000J0D01*
G01*
X170912500Y-83637500D01*
G75*
G02*
X170812500Y-83537500I0J100000D01*
G01*
X170812500Y-82387500D01*
G75*
G02*
X170912500Y-82287500I100000J0D01*
G01*
X171112500Y-82287500D01*
G75*
G02*
X171212500Y-82387500I0J-100000D01*
G01*
G37*
G04 #@! TD.AperFunction*
G04 #@! TA.AperFunction,SMDPad,CuDef*
G36*
G01*
X171712500Y-84537500D02*
X171712500Y-85687500D01*
G75*
G02*
X171612500Y-85787500I-100000J0D01*
G01*
X171412500Y-85787500D01*
G75*
G02*
X171312500Y-85687500I0J100000D01*
G01*
X171312500Y-84537500D01*
G75*
G02*
X171412500Y-84437500I100000J0D01*
G01*
X171612500Y-84437500D01*
G75*
G02*
X171712500Y-84537500I0J-100000D01*
G01*
G37*
G04 #@! TD.AperFunction*
G04 #@! TA.AperFunction,SMDPad,CuDef*
G36*
G01*
X172212500Y-82387500D02*
X172212500Y-83537500D01*
G75*
G02*
X172112500Y-83637500I-100000J0D01*
G01*
X171912500Y-83637500D01*
G75*
G02*
X171812500Y-83537500I0J100000D01*
G01*
X171812500Y-82387500D01*
G75*
G02*
X171912500Y-82287500I100000J0D01*
G01*
X172112500Y-82287500D01*
G75*
G02*
X172212500Y-82387500I0J-100000D01*
G01*
G37*
G04 #@! TD.AperFunction*
G04 #@! TA.AperFunction,SMDPad,CuDef*
G36*
G01*
X172712500Y-84537500D02*
X172712500Y-85687500D01*
G75*
G02*
X172612500Y-85787500I-100000J0D01*
G01*
X172412500Y-85787500D01*
G75*
G02*
X172312500Y-85687500I0J100000D01*
G01*
X172312500Y-84537500D01*
G75*
G02*
X172412500Y-84437500I100000J0D01*
G01*
X172612500Y-84437500D01*
G75*
G02*
X172712500Y-84537500I0J-100000D01*
G01*
G37*
G04 #@! TD.AperFunction*
G04 #@! TA.AperFunction,SMDPad,CuDef*
G36*
G01*
X173212500Y-82387500D02*
X173212500Y-83537500D01*
G75*
G02*
X173112500Y-83637500I-100000J0D01*
G01*
X172912500Y-83637500D01*
G75*
G02*
X172812500Y-83537500I0J100000D01*
G01*
X172812500Y-82387500D01*
G75*
G02*
X172912500Y-82287500I100000J0D01*
G01*
X173112500Y-82287500D01*
G75*
G02*
X173212500Y-82387500I0J-100000D01*
G01*
G37*
G04 #@! TD.AperFunction*
G04 #@! TA.AperFunction,SMDPad,CuDef*
G36*
G01*
X173712500Y-84537500D02*
X173712500Y-85687500D01*
G75*
G02*
X173612500Y-85787500I-100000J0D01*
G01*
X173412500Y-85787500D01*
G75*
G02*
X173312500Y-85687500I0J100000D01*
G01*
X173312500Y-84537500D01*
G75*
G02*
X173412500Y-84437500I100000J0D01*
G01*
X173612500Y-84437500D01*
G75*
G02*
X173712500Y-84537500I0J-100000D01*
G01*
G37*
G04 #@! TD.AperFunction*
G04 #@! TA.AperFunction,SMDPad,CuDef*
G36*
G01*
X174212500Y-82387500D02*
X174212500Y-83537500D01*
G75*
G02*
X174112500Y-83637500I-100000J0D01*
G01*
X173912500Y-83637500D01*
G75*
G02*
X173812500Y-83537500I0J100000D01*
G01*
X173812500Y-82387500D01*
G75*
G02*
X173912500Y-82287500I100000J0D01*
G01*
X174112500Y-82287500D01*
G75*
G02*
X174212500Y-82387500I0J-100000D01*
G01*
G37*
G04 #@! TD.AperFunction*
G04 #@! TA.AperFunction,SMDPad,CuDef*
G36*
G01*
X174712500Y-84537500D02*
X174712500Y-85687500D01*
G75*
G02*
X174612500Y-85787500I-100000J0D01*
G01*
X174412500Y-85787500D01*
G75*
G02*
X174312500Y-85687500I0J100000D01*
G01*
X174312500Y-84537500D01*
G75*
G02*
X174412500Y-84437500I100000J0D01*
G01*
X174612500Y-84437500D01*
G75*
G02*
X174712500Y-84537500I0J-100000D01*
G01*
G37*
G04 #@! TD.AperFunction*
G04 #@! TA.AperFunction,SMDPad,CuDef*
G36*
G01*
X175212500Y-82387500D02*
X175212500Y-83537500D01*
G75*
G02*
X175112500Y-83637500I-100000J0D01*
G01*
X174912500Y-83637500D01*
G75*
G02*
X174812500Y-83537500I0J100000D01*
G01*
X174812500Y-82387500D01*
G75*
G02*
X174912500Y-82287500I100000J0D01*
G01*
X175112500Y-82287500D01*
G75*
G02*
X175212500Y-82387500I0J-100000D01*
G01*
G37*
G04 #@! TD.AperFunction*
G04 #@! TA.AperFunction,SMDPad,CuDef*
G36*
G01*
X175712500Y-84537500D02*
X175712500Y-85687500D01*
G75*
G02*
X175612500Y-85787500I-100000J0D01*
G01*
X175412500Y-85787500D01*
G75*
G02*
X175312500Y-85687500I0J100000D01*
G01*
X175312500Y-84537500D01*
G75*
G02*
X175412500Y-84437500I100000J0D01*
G01*
X175612500Y-84437500D01*
G75*
G02*
X175712500Y-84537500I0J-100000D01*
G01*
G37*
G04 #@! TD.AperFunction*
G04 #@! TA.AperFunction,SMDPad,CuDef*
G36*
G01*
X176212500Y-82387500D02*
X176212500Y-83537500D01*
G75*
G02*
X176112500Y-83637500I-100000J0D01*
G01*
X175912500Y-83637500D01*
G75*
G02*
X175812500Y-83537500I0J100000D01*
G01*
X175812500Y-82387500D01*
G75*
G02*
X175912500Y-82287500I100000J0D01*
G01*
X176112500Y-82287500D01*
G75*
G02*
X176212500Y-82387500I0J-100000D01*
G01*
G37*
G04 #@! TD.AperFunction*
G04 #@! TA.AperFunction,SMDPad,CuDef*
G36*
G01*
X176712500Y-84537500D02*
X176712500Y-85687500D01*
G75*
G02*
X176612500Y-85787500I-100000J0D01*
G01*
X176412500Y-85787500D01*
G75*
G02*
X176312500Y-85687500I0J100000D01*
G01*
X176312500Y-84537500D01*
G75*
G02*
X176412500Y-84437500I100000J0D01*
G01*
X176612500Y-84437500D01*
G75*
G02*
X176712500Y-84537500I0J-100000D01*
G01*
G37*
G04 #@! TD.AperFunction*
G04 #@! TA.AperFunction,SMDPad,CuDef*
G36*
G01*
X177212500Y-82387500D02*
X177212500Y-83537500D01*
G75*
G02*
X177112500Y-83637500I-100000J0D01*
G01*
X176912500Y-83637500D01*
G75*
G02*
X176812500Y-83537500I0J100000D01*
G01*
X176812500Y-82387500D01*
G75*
G02*
X176912500Y-82287500I100000J0D01*
G01*
X177112500Y-82287500D01*
G75*
G02*
X177212500Y-82387500I0J-100000D01*
G01*
G37*
G04 #@! TD.AperFunction*
G04 #@! TA.AperFunction,SMDPad,CuDef*
G36*
G01*
X177712500Y-84537500D02*
X177712500Y-85687500D01*
G75*
G02*
X177612500Y-85787500I-100000J0D01*
G01*
X177412500Y-85787500D01*
G75*
G02*
X177312500Y-85687500I0J100000D01*
G01*
X177312500Y-84537500D01*
G75*
G02*
X177412500Y-84437500I100000J0D01*
G01*
X177612500Y-84437500D01*
G75*
G02*
X177712500Y-84537500I0J-100000D01*
G01*
G37*
G04 #@! TD.AperFunction*
G04 #@! TA.AperFunction,SMDPad,CuDef*
G36*
G01*
X178212500Y-82387500D02*
X178212500Y-83537500D01*
G75*
G02*
X178112500Y-83637500I-100000J0D01*
G01*
X177912500Y-83637500D01*
G75*
G02*
X177812500Y-83537500I0J100000D01*
G01*
X177812500Y-82387500D01*
G75*
G02*
X177912500Y-82287500I100000J0D01*
G01*
X178112500Y-82287500D01*
G75*
G02*
X178212500Y-82387500I0J-100000D01*
G01*
G37*
G04 #@! TD.AperFunction*
G04 #@! TA.AperFunction,SMDPad,CuDef*
G36*
G01*
X178712500Y-84537500D02*
X178712500Y-85687500D01*
G75*
G02*
X178612500Y-85787500I-100000J0D01*
G01*
X178412500Y-85787500D01*
G75*
G02*
X178312500Y-85687500I0J100000D01*
G01*
X178312500Y-84537500D01*
G75*
G02*
X178412500Y-84437500I100000J0D01*
G01*
X178612500Y-84437500D01*
G75*
G02*
X178712500Y-84537500I0J-100000D01*
G01*
G37*
G04 #@! TD.AperFunction*
G04 #@! TA.AperFunction,SMDPad,CuDef*
G36*
G01*
X179212500Y-82387500D02*
X179212500Y-83537500D01*
G75*
G02*
X179112500Y-83637500I-100000J0D01*
G01*
X178912500Y-83637500D01*
G75*
G02*
X178812500Y-83537500I0J100000D01*
G01*
X178812500Y-82387500D01*
G75*
G02*
X178912500Y-82287500I100000J0D01*
G01*
X179112500Y-82287500D01*
G75*
G02*
X179212500Y-82387500I0J-100000D01*
G01*
G37*
G04 #@! TD.AperFunction*
G04 #@! TA.AperFunction,SMDPad,CuDef*
G36*
G01*
X179712500Y-84537500D02*
X179712500Y-85687500D01*
G75*
G02*
X179612500Y-85787500I-100000J0D01*
G01*
X179412500Y-85787500D01*
G75*
G02*
X179312500Y-85687500I0J100000D01*
G01*
X179312500Y-84537500D01*
G75*
G02*
X179412500Y-84437500I100000J0D01*
G01*
X179612500Y-84437500D01*
G75*
G02*
X179712500Y-84537500I0J-100000D01*
G01*
G37*
G04 #@! TD.AperFunction*
G04 #@! TA.AperFunction,SMDPad,CuDef*
G36*
G01*
X180212500Y-82387500D02*
X180212500Y-83537500D01*
G75*
G02*
X180112500Y-83637500I-100000J0D01*
G01*
X179912500Y-83637500D01*
G75*
G02*
X179812500Y-83537500I0J100000D01*
G01*
X179812500Y-82387500D01*
G75*
G02*
X179912500Y-82287500I100000J0D01*
G01*
X180112500Y-82287500D01*
G75*
G02*
X180212500Y-82387500I0J-100000D01*
G01*
G37*
G04 #@! TD.AperFunction*
G04 #@! TA.AperFunction,SMDPad,CuDef*
G36*
G01*
X180712500Y-84537500D02*
X180712500Y-85687500D01*
G75*
G02*
X180612500Y-85787500I-100000J0D01*
G01*
X180412500Y-85787500D01*
G75*
G02*
X180312500Y-85687500I0J100000D01*
G01*
X180312500Y-84537500D01*
G75*
G02*
X180412500Y-84437500I100000J0D01*
G01*
X180612500Y-84437500D01*
G75*
G02*
X180712500Y-84537500I0J-100000D01*
G01*
G37*
G04 #@! TD.AperFunction*
G04 #@! TA.AperFunction,SMDPad,CuDef*
G36*
G01*
X181212500Y-82387500D02*
X181212500Y-83537500D01*
G75*
G02*
X181112500Y-83637500I-100000J0D01*
G01*
X180912500Y-83637500D01*
G75*
G02*
X180812500Y-83537500I0J100000D01*
G01*
X180812500Y-82387500D01*
G75*
G02*
X180912500Y-82287500I100000J0D01*
G01*
X181112500Y-82287500D01*
G75*
G02*
X181212500Y-82387500I0J-100000D01*
G01*
G37*
G04 #@! TD.AperFunction*
G04 #@! TA.AperFunction,SMDPad,CuDef*
G36*
G01*
X169062500Y-83077500D02*
X169062500Y-84997500D01*
G75*
G02*
X168822500Y-85237500I-240000J0D01*
G01*
X166902500Y-85237500D01*
G75*
G02*
X166662500Y-84997500I0J240000D01*
G01*
X166662500Y-83077500D01*
G75*
G02*
X166902500Y-82837500I240000J0D01*
G01*
X168822500Y-82837500D01*
G75*
G02*
X169062500Y-83077500I0J-240000D01*
G01*
G37*
G04 #@! TD.AperFunction*
G04 #@! TA.AperFunction,SMDPad,CuDef*
G36*
G01*
X183862500Y-83077500D02*
X183862500Y-84997500D01*
G75*
G02*
X183622500Y-85237500I-240000J0D01*
G01*
X181702500Y-85237500D01*
G75*
G02*
X181462500Y-84997500I0J240000D01*
G01*
X181462500Y-83077500D01*
G75*
G02*
X181702500Y-82837500I240000J0D01*
G01*
X183622500Y-82837500D01*
G75*
G02*
X183862500Y-83077500I0J-240000D01*
G01*
G37*
G04 #@! TD.AperFunction*
D11*
X145512500Y-91037500D03*
X143012500Y-91037500D03*
D15*
X200262500Y-73537500D03*
D16*
X200262500Y-73537500D03*
G04 #@! TA.AperFunction,SMDPad,CuDef*
G36*
G01*
X185662500Y-89487500D02*
X185662500Y-88587500D01*
G75*
G02*
X185912500Y-88337500I250000J0D01*
G01*
X186612500Y-88337500D01*
G75*
G02*
X186862500Y-88587500I0J-250000D01*
G01*
X186862500Y-89487500D01*
G75*
G02*
X186612500Y-89737500I-250000J0D01*
G01*
X185912500Y-89737500D01*
G75*
G02*
X185662500Y-89487500I0J250000D01*
G01*
G37*
G04 #@! TD.AperFunction*
G04 #@! TA.AperFunction,SMDPad,CuDef*
G36*
G01*
X187662500Y-89487500D02*
X187662500Y-88587500D01*
G75*
G02*
X187912500Y-88337500I250000J0D01*
G01*
X188612500Y-88337500D01*
G75*
G02*
X188862500Y-88587500I0J-250000D01*
G01*
X188862500Y-89487500D01*
G75*
G02*
X188612500Y-89737500I-250000J0D01*
G01*
X187912500Y-89737500D01*
G75*
G02*
X187662500Y-89487500I0J250000D01*
G01*
G37*
G04 #@! TD.AperFunction*
D11*
X131012500Y-91037500D03*
X133512500Y-91037500D03*
X129512500Y-91037500D03*
X127012500Y-91037500D03*
D12*
X146302500Y-87667500D03*
X146302500Y-77507500D03*
X146302500Y-72427500D03*
X141222500Y-85127500D03*
D11*
X178512500Y-91037500D03*
X176012500Y-91037500D03*
G04 #@! TA.AperFunction,ComponentPad*
G36*
G01*
X170982500Y-120310001D02*
X170982500Y-117209999D01*
G75*
G02*
X171232499Y-116960000I249999J0D01*
G01*
X172812501Y-116960000D01*
G75*
G02*
X173062500Y-117209999I0J-249999D01*
G01*
X173062500Y-120310001D01*
G75*
G02*
X172812501Y-120560000I-249999J0D01*
G01*
X171232499Y-120560000D01*
G75*
G02*
X170982500Y-120310001I0J249999D01*
G01*
G37*
G04 #@! TD.AperFunction*
D13*
X177102500Y-118760000D03*
X182182500Y-118760000D03*
X187262500Y-118760000D03*
X192342500Y-118760000D03*
X197422500Y-118760000D03*
X202502500Y-118760000D03*
D12*
X162182500Y-94412500D03*
X162182500Y-104572500D03*
X162182500Y-109652500D03*
X167262500Y-96952500D03*
D11*
X185512500Y-91037500D03*
X183012500Y-91037500D03*
D12*
X183182500Y-94412500D03*
X183182500Y-104572500D03*
X183182500Y-109652500D03*
X188262500Y-96952500D03*
G04 #@! TA.AperFunction,SMDPad,CuDef*
G36*
G01*
X192662500Y-86587500D02*
X192662500Y-87487500D01*
G75*
G02*
X192412500Y-87737500I-250000J0D01*
G01*
X191762500Y-87737500D01*
G75*
G02*
X191512500Y-87487500I0J250000D01*
G01*
X191512500Y-86587500D01*
G75*
G02*
X191762500Y-86337500I250000J0D01*
G01*
X192412500Y-86337500D01*
G75*
G02*
X192662500Y-86587500I0J-250000D01*
G01*
G37*
G04 #@! TD.AperFunction*
G04 #@! TA.AperFunction,SMDPad,CuDef*
G36*
G01*
X190612500Y-86587500D02*
X190612500Y-87487500D01*
G75*
G02*
X190362500Y-87737500I-250000J0D01*
G01*
X189712500Y-87737500D01*
G75*
G02*
X189462500Y-87487500I0J250000D01*
G01*
X189462500Y-86587500D01*
G75*
G02*
X189712500Y-86337500I250000J0D01*
G01*
X190362500Y-86337500D01*
G75*
G02*
X190612500Y-86587500I0J-250000D01*
G01*
G37*
G04 #@! TD.AperFunction*
D11*
X173512500Y-91037500D03*
X171012500Y-91037500D03*
G04 #@! TA.AperFunction,SMDPad,CuDef*
G36*
G01*
X181687500Y-70962500D02*
X181687500Y-71912500D01*
G75*
G02*
X181437500Y-72162500I-250000J0D01*
G01*
X180762500Y-72162500D01*
G75*
G02*
X180512500Y-71912500I0J250000D01*
G01*
X180512500Y-70962500D01*
G75*
G02*
X180762500Y-70712500I250000J0D01*
G01*
X181437500Y-70712500D01*
G75*
G02*
X181687500Y-70962500I0J-250000D01*
G01*
G37*
G04 #@! TD.AperFunction*
G04 #@! TA.AperFunction,SMDPad,CuDef*
G36*
G01*
X179612500Y-70962500D02*
X179612500Y-71912500D01*
G75*
G02*
X179362500Y-72162500I-250000J0D01*
G01*
X178687500Y-72162500D01*
G75*
G02*
X178437500Y-71912500I0J250000D01*
G01*
X178437500Y-70962500D01*
G75*
G02*
X178687500Y-70712500I250000J0D01*
G01*
X179362500Y-70712500D01*
G75*
G02*
X179612500Y-70962500I0J-250000D01*
G01*
G37*
G04 #@! TD.AperFunction*
X155012500Y-91037500D03*
X157512500Y-91037500D03*
X169512500Y-91037500D03*
X167012500Y-91037500D03*
X192512500Y-91037500D03*
X190012500Y-91037500D03*
D12*
X190182500Y-94412500D03*
X190182500Y-104572500D03*
X190182500Y-109652500D03*
X195262500Y-96952500D03*
G04 #@! TA.AperFunction,SMDPad,CuDef*
G36*
G01*
X178437500Y-88912500D02*
X178437500Y-87962500D01*
G75*
G02*
X178687500Y-87712500I250000J0D01*
G01*
X179362500Y-87712500D01*
G75*
G02*
X179612500Y-87962500I0J-250000D01*
G01*
X179612500Y-88912500D01*
G75*
G02*
X179362500Y-89162500I-250000J0D01*
G01*
X178687500Y-89162500D01*
G75*
G02*
X178437500Y-88912500I0J250000D01*
G01*
G37*
G04 #@! TD.AperFunction*
G04 #@! TA.AperFunction,SMDPad,CuDef*
G36*
G01*
X180512500Y-88912500D02*
X180512500Y-87962500D01*
G75*
G02*
X180762500Y-87712500I250000J0D01*
G01*
X181437500Y-87712500D01*
G75*
G02*
X181687500Y-87962500I0J-250000D01*
G01*
X181687500Y-88912500D01*
G75*
G02*
X181437500Y-89162500I-250000J0D01*
G01*
X180762500Y-89162500D01*
G75*
G02*
X180512500Y-88912500I0J250000D01*
G01*
G37*
G04 #@! TD.AperFunction*
X160302500Y-87667500D03*
X160302500Y-77507500D03*
X160302500Y-72427500D03*
X155222500Y-85127500D03*
X139302500Y-87667500D03*
X139302500Y-77507500D03*
X139302500Y-72427500D03*
X134222500Y-85127500D03*
X134182500Y-94412500D03*
X134182500Y-104572500D03*
X134182500Y-109652500D03*
X139262500Y-96952500D03*
D11*
X137512500Y-91037500D03*
X135012500Y-91037500D03*
D17*
X175262500Y-88237500D03*
X178462500Y-83237500D03*
X182262500Y-82637500D03*
X175862500Y-88837500D03*
X128862500Y-83037500D03*
X181062500Y-87437500D03*
X182262500Y-85437500D03*
X130462500Y-83037500D03*
X179262500Y-74037500D03*
X182062500Y-88437500D03*
X183062500Y-82637500D03*
X181062500Y-89437500D03*
X178462500Y-82037500D03*
X179462500Y-83237500D03*
X164262500Y-84037500D03*
X178462500Y-82637500D03*
X179462500Y-82637500D03*
X183062500Y-85437500D03*
X183862500Y-85437500D03*
X192862500Y-94237500D03*
X182062500Y-87437500D03*
X175262500Y-89437500D03*
X176462500Y-89437500D03*
X176462500Y-88237500D03*
X192862500Y-93437500D03*
X163662500Y-84037500D03*
X164862500Y-84037500D03*
X183862500Y-82637500D03*
X179462500Y-82037500D03*
X182062500Y-89437500D03*
X129662500Y-83037500D03*
X192862500Y-95037500D03*
X185862500Y-86237500D03*
X181462500Y-82037500D03*
X181467039Y-77439770D03*
X180063000Y-77842039D03*
X179866729Y-84185386D03*
X168862500Y-85837500D03*
X169937158Y-86752085D03*
X169662500Y-83837500D03*
X171362000Y-86037500D03*
X170682693Y-83848515D03*
X173862500Y-83837500D03*
X173631970Y-86037500D03*
X172562000Y-86967030D03*
X172862500Y-83837500D03*
X175517007Y-81879342D03*
X174062500Y-80638000D03*
X175031470Y-86806470D03*
X175158271Y-84185386D03*
X180913000Y-84187000D03*
X180662500Y-77037500D03*
X176212842Y-85998598D03*
X171682693Y-83848515D03*
D18*
X178925000Y-68637500D02*
X178262500Y-68637500D01*
X179262500Y-71675000D02*
X179025000Y-71437500D01*
X178262500Y-68637500D02*
X177862500Y-69037500D01*
X177862500Y-70275000D02*
X179025000Y-71437500D01*
X179262500Y-74037500D02*
X179262500Y-71675000D01*
X177862500Y-69037500D02*
X177862500Y-70275000D01*
X181012500Y-82487500D02*
X181462500Y-82037500D01*
X181200000Y-69587500D02*
X181200000Y-71337500D01*
X181200000Y-71337500D02*
X181100000Y-71437500D01*
X181462500Y-71800000D02*
X181100000Y-71437500D01*
X185862500Y-86237500D02*
X186662500Y-87037500D01*
X181462500Y-77435231D02*
X181462500Y-71800000D01*
X181467039Y-77439770D02*
X181462500Y-77435231D01*
X181012500Y-82962500D02*
X181012500Y-82487500D01*
X179562500Y-75337500D02*
X178087500Y-73862500D01*
X178087500Y-73862500D02*
X178087500Y-71207106D01*
X178087500Y-71207106D02*
X177362500Y-70482106D01*
X179562500Y-77341539D02*
X179562500Y-75337500D01*
X179512500Y-84539615D02*
X179512500Y-85112500D01*
X178505394Y-67687500D02*
X178925000Y-67687500D01*
X180063000Y-77842039D02*
X179562500Y-77341539D01*
X177362500Y-68830394D02*
X178505394Y-67687500D01*
X177362500Y-70482106D02*
X177362500Y-68830394D01*
X179866729Y-84185386D02*
X179512500Y-84539615D01*
D19*
X188262500Y-93837500D02*
X188262500Y-96952500D01*
X195262500Y-93837500D02*
X195262500Y-96952500D01*
X155012500Y-91037500D02*
X153262500Y-92787500D01*
X137512500Y-91037500D02*
X137512500Y-89787500D01*
X185512500Y-91037500D02*
X185512500Y-91087500D01*
X147012500Y-91037500D02*
X146262500Y-91787500D01*
X139012500Y-96702500D02*
X139262500Y-96952500D01*
X153512500Y-91037500D02*
X155012500Y-91037500D01*
X155222500Y-85497500D02*
X155222500Y-85127500D01*
X146262500Y-91787500D02*
X146262500Y-96952500D01*
X185512500Y-89787500D02*
X186262500Y-89037500D01*
X163012500Y-91037500D02*
X161512500Y-91037500D01*
D20*
X180782500Y-91957500D02*
X180782500Y-96472500D01*
D19*
X160262500Y-92287500D02*
X160262500Y-96952500D01*
D20*
X180782500Y-96472500D02*
X181262500Y-96952500D01*
D19*
X137512500Y-91037500D02*
X139012500Y-91037500D01*
X173512500Y-91037500D02*
X173512500Y-96202500D01*
X129512500Y-91037500D02*
X129512500Y-87417500D01*
X129512500Y-87417500D02*
X127222500Y-85127500D01*
X178062500Y-86637500D02*
X177962500Y-86537500D01*
X145512500Y-91037500D02*
X141222500Y-86747500D01*
X169512500Y-91037500D02*
X167262500Y-93287500D01*
X161512500Y-91037500D02*
X160042500Y-89567500D01*
D21*
X178862500Y-87437500D02*
X178062500Y-86637500D01*
X179062500Y-90237500D02*
X178862500Y-90037500D01*
D19*
X173512500Y-96202500D02*
X174262500Y-96952500D01*
X160042500Y-89567500D02*
X159292500Y-89567500D01*
X185512500Y-91037500D02*
X185512500Y-89787500D01*
X161512500Y-91037500D02*
X160262500Y-92287500D01*
X137512500Y-89787500D02*
X134222500Y-86497500D01*
X131012500Y-91037500D02*
X129512500Y-91037500D01*
D21*
X155222500Y-85127500D02*
X162135000Y-85127500D01*
D19*
X131012500Y-91037500D02*
X131012500Y-95702500D01*
D20*
X179062500Y-90237500D02*
X180782500Y-91957500D01*
D19*
X167262500Y-93287500D02*
X167262500Y-96952500D01*
D21*
X162135000Y-85127500D02*
X162225000Y-85037500D01*
D19*
X159292500Y-89567500D02*
X155222500Y-85497500D01*
X153512500Y-91037500D02*
X148222500Y-85747500D01*
X148222500Y-85747500D02*
X148222500Y-85127500D01*
X131012500Y-95702500D02*
X132262500Y-96952500D01*
X192512500Y-91087500D02*
X195262500Y-93837500D01*
X141222500Y-86747500D02*
X141222500Y-85127500D01*
X134222500Y-86497500D02*
X134222500Y-85127500D01*
X145512500Y-91037500D02*
X147012500Y-91037500D01*
X185512500Y-91087500D02*
X188262500Y-93837500D01*
D21*
X178862500Y-90037500D02*
X178862500Y-87437500D01*
D19*
X177962500Y-86537500D02*
X177962500Y-84637500D01*
X153262500Y-92787500D02*
X153262500Y-96952500D01*
X139012500Y-91037500D02*
X139012500Y-96702500D01*
X192512500Y-91037500D02*
X192512500Y-91087500D01*
D22*
X127182500Y-104572500D02*
X134182500Y-104572500D01*
D18*
X169512500Y-85187500D02*
X169512500Y-85112500D01*
X168862500Y-85837500D02*
X169512500Y-85187500D01*
D19*
X127012500Y-91037500D02*
X127012500Y-94242500D01*
X127012500Y-94242500D02*
X127182500Y-94412500D01*
X143012500Y-92582500D02*
X141182500Y-94412500D01*
D18*
X169937158Y-86752085D02*
X169937158Y-86037500D01*
X170512500Y-85462158D02*
X170512500Y-85112500D01*
D19*
X143012500Y-91037500D02*
X143012500Y-92582500D01*
D18*
X169937158Y-86037500D02*
X170512500Y-85462158D01*
D19*
X135012500Y-93582500D02*
X134182500Y-94412500D01*
D18*
X169662500Y-83312500D02*
X170012500Y-82962500D01*
X169662500Y-83837500D02*
X169662500Y-83312500D01*
D19*
X135012500Y-91037500D02*
X135012500Y-93582500D01*
D18*
X171362000Y-86037500D02*
X171512500Y-85887000D01*
D19*
X156887500Y-94412500D02*
X155182500Y-94412500D01*
X159012500Y-91037500D02*
X159012500Y-92287500D01*
D18*
X171512500Y-85887000D02*
X171512500Y-85112500D01*
D19*
X159012500Y-92287500D02*
X156887500Y-94412500D01*
D18*
X170682693Y-83292307D02*
X171012500Y-82962500D01*
D19*
X151012500Y-91582500D02*
X148182500Y-94412500D01*
X151012500Y-91037500D02*
X151012500Y-91582500D01*
D18*
X170682693Y-83848515D02*
X170682693Y-83292307D01*
D19*
X190012500Y-91037500D02*
X190012500Y-94242500D01*
D18*
X173862500Y-83837500D02*
X173862500Y-83112500D01*
X173862500Y-83112500D02*
X174012500Y-82962500D01*
D19*
X190012500Y-94242500D02*
X190182500Y-94412500D01*
D18*
X173631970Y-86037500D02*
X173631970Y-85231970D01*
D19*
X183012500Y-91037500D02*
X183012500Y-94242500D01*
D18*
X173631970Y-85231970D02*
X173512500Y-85112500D01*
D19*
X183012500Y-94242500D02*
X183182500Y-94412500D01*
X171012500Y-92582500D02*
X169182500Y-94412500D01*
D18*
X172432470Y-85192530D02*
X172512500Y-85112500D01*
D19*
X171012500Y-91037500D02*
X171012500Y-92582500D01*
D18*
X172432470Y-86837500D02*
X172432470Y-85192530D01*
X172562000Y-86967030D02*
X172432470Y-86837500D01*
X172862500Y-83112500D02*
X173012500Y-82962500D01*
D19*
X176012500Y-94242500D02*
X176182500Y-94412500D01*
D18*
X172862500Y-83837500D02*
X172862500Y-83112500D01*
D19*
X176012500Y-91037500D02*
X176012500Y-94242500D01*
D18*
X176012500Y-82374835D02*
X176012500Y-82962500D01*
D19*
X141512500Y-91037500D02*
X141512500Y-89877500D01*
D18*
X175517007Y-81879342D02*
X176012500Y-82374835D01*
D19*
X141512500Y-89877500D02*
X139302500Y-87667500D01*
X157512500Y-91037500D02*
X154142500Y-87667500D01*
D18*
X174062500Y-80638000D02*
X174662500Y-81238000D01*
X174662500Y-81238000D02*
X174662500Y-82612500D01*
X174662500Y-82612500D02*
X175012500Y-82962500D01*
D19*
X154142500Y-87667500D02*
X153302500Y-87667500D01*
X162142500Y-87667500D02*
X160302500Y-87667500D01*
D18*
X174662500Y-86437500D02*
X174662500Y-85237500D01*
D19*
X165512500Y-91037500D02*
X162142500Y-87667500D01*
D18*
X174662500Y-85237500D02*
X174537500Y-85112500D01*
X175031470Y-86806470D02*
X174662500Y-86437500D01*
X174537500Y-85112500D02*
X174512500Y-85112500D01*
X175512500Y-84887500D02*
X175512500Y-85112500D01*
D19*
X149512500Y-91037500D02*
X149512500Y-90877500D01*
X149512500Y-90877500D02*
X146302500Y-87667500D01*
D18*
X175158271Y-84533271D02*
X175512500Y-84887500D01*
X175158271Y-84185386D02*
X175158271Y-84533271D01*
X180662500Y-77037500D02*
X180062500Y-76437500D01*
X180913000Y-84187000D02*
X180512500Y-84587500D01*
X180062500Y-68237500D02*
X180612500Y-67687500D01*
X180612500Y-67687500D02*
X181200000Y-67687500D01*
X180062500Y-76437500D02*
X180062500Y-68237500D01*
X180512500Y-84587500D02*
X180512500Y-85112500D01*
X176512500Y-85698940D02*
X176512500Y-85112500D01*
D19*
X133512500Y-88877500D02*
X132302500Y-87667500D01*
D18*
X176212842Y-85998598D02*
X176512500Y-85698940D01*
D19*
X133512500Y-91037500D02*
X133512500Y-88877500D01*
X167012500Y-91037500D02*
X167012500Y-91787500D01*
X167012500Y-91787500D02*
X164387500Y-94412500D01*
D18*
X171682693Y-83848515D02*
X171682693Y-83292307D01*
X171682693Y-83292307D02*
X172012500Y-82962500D01*
D19*
X164387500Y-94412500D02*
X162182500Y-94412500D01*
D18*
X188662500Y-89037500D02*
X190437500Y-89037500D01*
X188662500Y-87037500D02*
X190437500Y-87037500D01*
G04 #@! TA.AperFunction,Conductor*
G36*
X206569532Y-48857705D02*
G01*
X206877800Y-48916511D01*
X207176267Y-49013489D01*
X207460226Y-49147110D01*
X207725199Y-49315267D01*
X207967007Y-49515307D01*
X208181837Y-49744077D01*
X208366299Y-49997969D01*
X208517487Y-50272978D01*
X208538829Y-50321367D01*
X208555456Y-50370209D01*
X208646738Y-50518586D01*
X208768624Y-50643052D01*
X208915056Y-50737421D01*
X208940412Y-50746650D01*
X209195952Y-50911333D01*
X209436358Y-51113057D01*
X209649585Y-51343321D01*
X209832271Y-51598494D01*
X209981535Y-51874551D01*
X210095023Y-52167140D01*
X210170945Y-52471645D01*
X210208103Y-52783264D01*
X210212000Y-52922764D01*
X210212000Y-130538500D01*
X210192295Y-130851708D01*
X210133489Y-131159976D01*
X210036511Y-131458443D01*
X209902890Y-131742402D01*
X209734733Y-132007375D01*
X209534693Y-132249183D01*
X209305923Y-132464013D01*
X209052031Y-132648475D01*
X208777022Y-132799663D01*
X208485233Y-132915190D01*
X208181266Y-132993236D01*
X207869914Y-133032569D01*
X207713000Y-133037500D01*
X128812000Y-133037500D01*
X128498792Y-133017795D01*
X128190524Y-132958989D01*
X127892057Y-132862011D01*
X127608098Y-132728390D01*
X127343125Y-132560233D01*
X127101317Y-132360193D01*
X126886487Y-132131423D01*
X126702025Y-131877531D01*
X126550837Y-131602522D01*
X126435310Y-131310733D01*
X126357264Y-131006766D01*
X126317931Y-130695414D01*
X126313000Y-130538500D01*
X126313000Y-125036500D01*
X126332705Y-124723292D01*
X126391511Y-124415024D01*
X126488489Y-124116557D01*
X126622110Y-123832598D01*
X126790267Y-123567625D01*
X126990307Y-123325817D01*
X127219077Y-123110987D01*
X127472969Y-122926525D01*
X127747978Y-122775337D01*
X128039767Y-122659810D01*
X128343734Y-122581764D01*
X128655086Y-122542431D01*
X128812000Y-122537500D01*
X131752735Y-122537500D01*
X131957522Y-122550294D01*
X131957618Y-122548725D01*
X132112060Y-122558171D01*
X132112066Y-122558171D01*
X132150143Y-122560500D01*
X133022271Y-122560500D01*
X133894856Y-122560499D01*
X133997366Y-122554230D01*
X134087382Y-122548725D01*
X134087478Y-122550294D01*
X134292260Y-122537500D01*
X137587668Y-122537500D01*
X137780024Y-122546739D01*
X137810605Y-122551446D01*
X137881442Y-122554229D01*
X137881450Y-122554230D01*
X138084812Y-122562220D01*
X138084817Y-122562220D01*
X138155651Y-122565003D01*
X138433281Y-122544372D01*
X138618473Y-122537500D01*
X142667668Y-122537500D01*
X142860024Y-122546739D01*
X142890605Y-122551446D01*
X142961442Y-122554229D01*
X142961450Y-122554230D01*
X143164812Y-122562220D01*
X143164817Y-122562220D01*
X143235651Y-122565003D01*
X143513281Y-122544372D01*
X143698473Y-122537500D01*
X147747668Y-122537500D01*
X147940024Y-122546739D01*
X147970605Y-122551446D01*
X148041442Y-122554229D01*
X148041450Y-122554230D01*
X148244812Y-122562220D01*
X148244817Y-122562220D01*
X148315651Y-122565003D01*
X148593281Y-122544372D01*
X148778473Y-122537500D01*
X152827668Y-122537500D01*
X153020024Y-122546739D01*
X153050605Y-122551446D01*
X153121442Y-122554229D01*
X153121450Y-122554230D01*
X153324812Y-122562220D01*
X153324817Y-122562220D01*
X153395651Y-122565003D01*
X153673281Y-122544372D01*
X153858473Y-122537500D01*
X158762500Y-122537500D01*
X159047130Y-122517143D01*
X159325965Y-122456486D01*
X159383803Y-122434914D01*
X159383805Y-122434913D01*
X159519747Y-122384209D01*
X159519746Y-122384209D01*
X159593330Y-122356764D01*
X159843782Y-122220007D01*
X159906644Y-122172949D01*
X160009360Y-122096057D01*
X160009366Y-122096052D01*
X160072221Y-122048999D01*
X160273999Y-121847221D01*
X160445007Y-121618782D01*
X160581764Y-121368330D01*
X160609209Y-121294747D01*
X160654043Y-121174544D01*
X160654045Y-121174536D01*
X160681486Y-121100965D01*
X160742143Y-120822130D01*
X160762500Y-120537500D01*
X160762500Y-118036500D01*
X160782205Y-117723292D01*
X160841011Y-117415024D01*
X160937989Y-117116557D01*
X161071610Y-116832598D01*
X161239767Y-116567625D01*
X161439807Y-116325817D01*
X161668577Y-116110987D01*
X161922469Y-115926525D01*
X162197478Y-115775337D01*
X162489267Y-115659810D01*
X162793234Y-115581764D01*
X163104586Y-115542431D01*
X163261500Y-115537500D01*
X166263500Y-115537500D01*
X166576708Y-115557205D01*
X166884976Y-115616011D01*
X167183443Y-115712989D01*
X167467402Y-115846610D01*
X167732375Y-116014767D01*
X167974183Y-116214807D01*
X168189013Y-116443577D01*
X168373475Y-116697469D01*
X168524663Y-116972478D01*
X168640190Y-117264267D01*
X168718236Y-117568234D01*
X168757569Y-117879586D01*
X168762500Y-118036500D01*
X168762500Y-120537500D01*
X168782857Y-120822130D01*
X168843514Y-121100965D01*
X168865086Y-121158803D01*
X168865087Y-121158805D01*
X168907066Y-121271354D01*
X168943236Y-121368330D01*
X169079993Y-121618782D01*
X169116988Y-121668201D01*
X169116989Y-121668203D01*
X169203943Y-121784360D01*
X169203948Y-121784366D01*
X169251001Y-121847221D01*
X169452779Y-122048999D01*
X169681218Y-122220007D01*
X169808295Y-122289396D01*
X169862742Y-122319127D01*
X169862748Y-122319130D01*
X169931670Y-122356764D01*
X169989504Y-122378335D01*
X170125456Y-122429043D01*
X170125464Y-122429045D01*
X170199035Y-122456486D01*
X170477870Y-122517143D01*
X170539438Y-122521546D01*
X170539442Y-122521547D01*
X170627990Y-122527880D01*
X170762500Y-122537500D01*
X170807124Y-122537500D01*
X170838036Y-122538604D01*
X170953051Y-122547854D01*
X170957618Y-122548725D01*
X170983781Y-122550325D01*
X170983779Y-122550325D01*
X171112060Y-122558171D01*
X171112066Y-122558171D01*
X171150143Y-122560500D01*
X172022271Y-122560500D01*
X172894856Y-122560499D01*
X172997366Y-122554230D01*
X173087382Y-122548725D01*
X173087478Y-122550294D01*
X173292260Y-122537500D01*
X176587668Y-122537500D01*
X176780024Y-122546739D01*
X176810605Y-122551446D01*
X176881442Y-122554229D01*
X176881450Y-122554230D01*
X177084812Y-122562220D01*
X177084817Y-122562220D01*
X177155651Y-122565003D01*
X177433281Y-122544372D01*
X177618473Y-122537500D01*
X181667668Y-122537500D01*
X181860024Y-122546739D01*
X181890605Y-122551446D01*
X181961442Y-122554229D01*
X181961450Y-122554230D01*
X182164812Y-122562220D01*
X182164817Y-122562220D01*
X182235651Y-122565003D01*
X182513281Y-122544372D01*
X182698473Y-122537500D01*
X186747668Y-122537500D01*
X186940024Y-122546739D01*
X186970605Y-122551446D01*
X187041442Y-122554229D01*
X187041450Y-122554230D01*
X187244812Y-122562220D01*
X187244817Y-122562220D01*
X187315651Y-122565003D01*
X187593281Y-122544372D01*
X187778473Y-122537500D01*
X191827668Y-122537500D01*
X192020024Y-122546739D01*
X192050605Y-122551446D01*
X192121442Y-122554229D01*
X192121450Y-122554230D01*
X192324812Y-122562220D01*
X192324817Y-122562220D01*
X192395651Y-122565003D01*
X192673281Y-122544372D01*
X192858473Y-122537500D01*
X199262500Y-122537500D01*
X199547130Y-122517143D01*
X199825965Y-122456486D01*
X199883803Y-122434914D01*
X199883805Y-122434913D01*
X200019747Y-122384209D01*
X200019746Y-122384209D01*
X200093330Y-122356764D01*
X200343782Y-122220007D01*
X200406644Y-122172949D01*
X200509360Y-122096057D01*
X200509366Y-122096052D01*
X200572221Y-122048999D01*
X200773999Y-121847221D01*
X200945007Y-121618782D01*
X201081764Y-121368330D01*
X201109209Y-121294747D01*
X201154043Y-121174544D01*
X201154045Y-121174536D01*
X201181486Y-121100965D01*
X201242143Y-120822130D01*
X201262500Y-120537500D01*
X201262500Y-116572620D01*
X201282205Y-116259412D01*
X201341011Y-115951144D01*
X201437989Y-115652677D01*
X201571610Y-115368718D01*
X201739767Y-115103745D01*
X201939807Y-114861937D01*
X201994440Y-114805560D01*
X203676714Y-113123286D01*
X203849207Y-112926596D01*
X203994551Y-112709073D01*
X204110259Y-112474440D01*
X204194352Y-112226711D01*
X204245390Y-111970125D01*
X204262500Y-111709073D01*
X204262500Y-82865927D01*
X204245390Y-82604875D01*
X204194352Y-82348289D01*
X204110259Y-82100560D01*
X203994551Y-81865927D01*
X203849207Y-81648404D01*
X203676714Y-81451714D01*
X196994440Y-74769440D01*
X196786903Y-74534035D01*
X196610506Y-74274474D01*
X196468031Y-73994853D01*
X196361726Y-73699579D01*
X196293267Y-73393310D01*
X196263733Y-73080875D01*
X196262500Y-73002380D01*
X196262500Y-69072620D01*
X196282205Y-68759412D01*
X196341011Y-68451144D01*
X196437989Y-68152677D01*
X196571610Y-67868718D01*
X196739767Y-67603745D01*
X196939807Y-67361937D01*
X196994440Y-67305560D01*
X201176714Y-63123286D01*
X201349207Y-62926596D01*
X201494551Y-62709073D01*
X201610259Y-62474440D01*
X201694352Y-62226711D01*
X201745390Y-61970125D01*
X201762500Y-61709073D01*
X201762500Y-58037500D01*
X201742143Y-57752870D01*
X201681486Y-57474035D01*
X201581764Y-57206670D01*
X201445007Y-56956218D01*
X201408011Y-56906797D01*
X201321057Y-56790640D01*
X201321052Y-56790634D01*
X201273999Y-56727779D01*
X201072221Y-56526001D01*
X200843782Y-56354993D01*
X200716705Y-56285604D01*
X200662258Y-56255873D01*
X200662252Y-56255870D01*
X200593330Y-56218236D01*
X200516932Y-56189741D01*
X200399544Y-56145957D01*
X200399536Y-56145955D01*
X200325965Y-56118514D01*
X200047130Y-56057857D01*
X199985562Y-56053454D01*
X199985558Y-56053453D01*
X199807004Y-56040683D01*
X199807005Y-56040683D01*
X199762500Y-56037500D01*
X166090927Y-56037500D01*
X166050151Y-56040173D01*
X166050138Y-56040173D01*
X165939174Y-56047446D01*
X165829875Y-56054610D01*
X165573289Y-56105648D01*
X165495819Y-56131946D01*
X165495814Y-56131947D01*
X165454543Y-56145957D01*
X165325560Y-56189741D01*
X165090927Y-56305449D01*
X165022915Y-56350893D01*
X165022910Y-56350896D01*
X164941429Y-56405340D01*
X164873404Y-56450793D01*
X164676714Y-56623286D01*
X163494440Y-57805560D01*
X163259035Y-58013097D01*
X162999474Y-58189494D01*
X162719853Y-58331969D01*
X162424579Y-58438274D01*
X162118310Y-58506733D01*
X161805875Y-58536267D01*
X161727380Y-58537500D01*
X136262500Y-58537500D01*
X135977870Y-58557857D01*
X135699035Y-58618514D01*
X135641197Y-58640086D01*
X135641195Y-58640087D01*
X135528646Y-58682066D01*
X135431670Y-58718236D01*
X135181218Y-58854993D01*
X135131799Y-58891988D01*
X135131797Y-58891989D01*
X135015640Y-58978943D01*
X135015634Y-58978948D01*
X134952779Y-59026001D01*
X134751001Y-59227779D01*
X134579993Y-59456218D01*
X134443236Y-59706670D01*
X134421665Y-59764504D01*
X134370957Y-59900456D01*
X134370955Y-59900464D01*
X134343514Y-59974035D01*
X134282857Y-60252870D01*
X134262500Y-60537500D01*
X134262500Y-63038500D01*
X134242795Y-63351708D01*
X134183989Y-63659976D01*
X134087011Y-63958443D01*
X133953390Y-64242402D01*
X133785233Y-64507375D01*
X133585193Y-64749183D01*
X133356423Y-64964013D01*
X133102531Y-65148475D01*
X132827522Y-65299663D01*
X132535733Y-65415190D01*
X132231766Y-65493236D01*
X131920414Y-65532569D01*
X131763500Y-65537500D01*
X128812000Y-65537500D01*
X128498792Y-65517795D01*
X128190524Y-65458989D01*
X127892057Y-65362011D01*
X127608098Y-65228390D01*
X127343125Y-65060233D01*
X127101317Y-64860193D01*
X126886487Y-64631423D01*
X126702025Y-64377531D01*
X126550837Y-64102522D01*
X126435310Y-63810733D01*
X126357264Y-63506766D01*
X126317931Y-63195414D01*
X126313000Y-63038500D01*
X126313000Y-52924297D01*
X126332705Y-52611089D01*
X126391511Y-52302821D01*
X126488489Y-52004354D01*
X126622110Y-51720395D01*
X126790267Y-51455422D01*
X126990307Y-51213614D01*
X127219077Y-50998784D01*
X127472969Y-50814322D01*
X127585250Y-50747388D01*
X127600137Y-50742204D01*
X127747873Y-50649888D01*
X127871485Y-50527136D01*
X127964829Y-50380049D01*
X127975175Y-50350993D01*
X127983601Y-50335667D01*
X128097260Y-50102633D01*
X128269100Y-49840035D01*
X128472499Y-49601044D01*
X128704246Y-49389430D01*
X128960689Y-49208531D01*
X129237782Y-49061199D01*
X129531156Y-48949757D01*
X129836184Y-48875964D01*
X130148055Y-48840983D01*
X130270124Y-48838000D01*
X206256324Y-48838000D01*
X206569532Y-48857705D01*
G37*
G04 #@! TD.AperFunction*
G04 #@! TA.AperFunction,Conductor*
G36*
X173091294Y-72864090D02*
G01*
X173178430Y-72907061D01*
X173242488Y-72980106D01*
X173258719Y-73023229D01*
X173262500Y-73028887D01*
X173262500Y-73037500D01*
X177188000Y-73037500D01*
X177283288Y-73056454D01*
X177364070Y-73110430D01*
X177418046Y-73191212D01*
X177437000Y-73286500D01*
X177437000Y-73786008D01*
X177436720Y-73791936D01*
X177434740Y-73800796D01*
X177435232Y-73816452D01*
X177436877Y-73868789D01*
X177437000Y-73876611D01*
X177437000Y-73903425D01*
X177437980Y-73911185D01*
X177438193Y-73914572D01*
X177438561Y-73922375D01*
X177439903Y-73965069D01*
X177444274Y-73980114D01*
X177445392Y-73987172D01*
X177448693Y-74003111D01*
X177450466Y-74010015D01*
X177452429Y-74025558D01*
X177458197Y-74040126D01*
X177467063Y-74062517D01*
X177474664Y-74084718D01*
X177477829Y-74095611D01*
X177485756Y-74122898D01*
X177493732Y-74136385D01*
X177496566Y-74142934D01*
X177503731Y-74157560D01*
X177507166Y-74163809D01*
X177512932Y-74178371D01*
X177522137Y-74191041D01*
X177522139Y-74191044D01*
X177536302Y-74210537D01*
X177549177Y-74230138D01*
X177569419Y-74264365D01*
X177580497Y-74275443D01*
X177584861Y-74281069D01*
X177595433Y-74293448D01*
X177600325Y-74298657D01*
X177609537Y-74311337D01*
X177621609Y-74321324D01*
X177621612Y-74321327D01*
X177640163Y-74336673D01*
X177657515Y-74352461D01*
X178839070Y-75534016D01*
X178893046Y-75614798D01*
X178912000Y-75710086D01*
X178912000Y-77265047D01*
X178911720Y-77270975D01*
X178909740Y-77279835D01*
X178910232Y-77295491D01*
X178911877Y-77347828D01*
X178912000Y-77355650D01*
X178912000Y-77382464D01*
X178912980Y-77390224D01*
X178913193Y-77393611D01*
X178913561Y-77401414D01*
X178914903Y-77444108D01*
X178919274Y-77459153D01*
X178920392Y-77466211D01*
X178923693Y-77482150D01*
X178925466Y-77489054D01*
X178927429Y-77504597D01*
X178933197Y-77519165D01*
X178942063Y-77541556D01*
X178949664Y-77563757D01*
X178960756Y-77601937D01*
X178968732Y-77615424D01*
X178971566Y-77621973D01*
X178978731Y-77636599D01*
X178982166Y-77642848D01*
X178987932Y-77657410D01*
X178997137Y-77670080D01*
X178997139Y-77670083D01*
X179011302Y-77689576D01*
X179024177Y-77709177D01*
X179044419Y-77743404D01*
X179055497Y-77754482D01*
X179059861Y-77760108D01*
X179070433Y-77772487D01*
X179075325Y-77777696D01*
X179084537Y-77790376D01*
X179096609Y-77800363D01*
X179096612Y-77800366D01*
X179115163Y-77815712D01*
X179132515Y-77831500D01*
X179153072Y-77852057D01*
X179207048Y-77932839D01*
X179224638Y-78002098D01*
X179226503Y-78019842D01*
X179281750Y-78189874D01*
X179371141Y-78344704D01*
X179379871Y-78354400D01*
X179379875Y-78354405D01*
X179482044Y-78467874D01*
X179490770Y-78477565D01*
X179635407Y-78582651D01*
X179798733Y-78655368D01*
X179973609Y-78692539D01*
X180152391Y-78692539D01*
X180327267Y-78655368D01*
X180490593Y-78582651D01*
X180635230Y-78477565D01*
X180643956Y-78467874D01*
X180746125Y-78354405D01*
X180746129Y-78354400D01*
X180754859Y-78344704D01*
X180776426Y-78307349D01*
X180840484Y-78234305D01*
X180927620Y-78191335D01*
X181024567Y-78184981D01*
X181093343Y-78204378D01*
X181202772Y-78253099D01*
X181377648Y-78290270D01*
X181556430Y-78290270D01*
X181731306Y-78253099D01*
X181870031Y-78191335D01*
X181882708Y-78185691D01*
X181882709Y-78185690D01*
X181894632Y-78180382D01*
X182039269Y-78075296D01*
X182049065Y-78064417D01*
X182150164Y-77952136D01*
X182150168Y-77952131D01*
X182158898Y-77942435D01*
X182248289Y-77787605D01*
X182303536Y-77617573D01*
X182322224Y-77439770D01*
X182303536Y-77261967D01*
X182248289Y-77091935D01*
X182234695Y-77068390D01*
X182165425Y-76948409D01*
X182165422Y-76948405D01*
X182158898Y-76937105D01*
X182157946Y-76936048D01*
X182119880Y-76853476D01*
X182113000Y-76795348D01*
X182113000Y-73286500D01*
X182131954Y-73191212D01*
X182185930Y-73110430D01*
X182266712Y-73056454D01*
X182362000Y-73037500D01*
X182636915Y-73037500D01*
X182732203Y-73056454D01*
X182812985Y-73110430D01*
X182866961Y-73191212D01*
X182879408Y-73229949D01*
X182894551Y-73294895D01*
X182936835Y-73452701D01*
X182984431Y-73609602D01*
X182985089Y-73611540D01*
X183011554Y-73689502D01*
X183015899Y-73702303D01*
X183073655Y-73855757D01*
X183074443Y-73857660D01*
X183074448Y-73857672D01*
X183135379Y-74004771D01*
X183135392Y-74004802D01*
X183136172Y-74006684D01*
X183203830Y-74156008D01*
X183204724Y-74157821D01*
X183204734Y-74157842D01*
X183246248Y-74242025D01*
X183246265Y-74242058D01*
X183247124Y-74243800D01*
X183248042Y-74245517D01*
X183248051Y-74245535D01*
X183269826Y-74286273D01*
X183324413Y-74388398D01*
X183406101Y-74529886D01*
X183492673Y-74669106D01*
X183547056Y-74750497D01*
X183642565Y-74883781D01*
X183742019Y-75013392D01*
X183846028Y-75140127D01*
X183937591Y-75244535D01*
X183992670Y-75305305D01*
X184048544Y-75364960D01*
X184105547Y-75423859D01*
X195684070Y-87002382D01*
X195738046Y-87083164D01*
X195757000Y-87178452D01*
X195757000Y-92315939D01*
X195738046Y-92411227D01*
X195684070Y-92492009D01*
X195603288Y-92545985D01*
X195508000Y-92564939D01*
X195412712Y-92545985D01*
X195331930Y-92492009D01*
X193585929Y-90746009D01*
X193531953Y-90665227D01*
X193512999Y-90569939D01*
X193512999Y-90490124D01*
X193506351Y-90428920D01*
X193456026Y-90294676D01*
X193388720Y-90204870D01*
X193380687Y-90194152D01*
X193370046Y-90179954D01*
X193349720Y-90164720D01*
X193310186Y-90135091D01*
X193255324Y-90093974D01*
X193165879Y-90060443D01*
X193135696Y-90049128D01*
X193135695Y-90049128D01*
X193121080Y-90043649D01*
X193059877Y-90037000D01*
X192545451Y-90037000D01*
X192532422Y-90036659D01*
X192475973Y-90033701D01*
X192475971Y-90033701D01*
X192463374Y-90033041D01*
X192450901Y-90034928D01*
X192438301Y-90035544D01*
X192438299Y-90035510D01*
X192418466Y-90037001D01*
X191965124Y-90037001D01*
X191903920Y-90043649D01*
X191769676Y-90093974D01*
X191714814Y-90135091D01*
X191675281Y-90164720D01*
X191654954Y-90179954D01*
X191644313Y-90194152D01*
X191636280Y-90204870D01*
X191568974Y-90294676D01*
X191518649Y-90428920D01*
X191512000Y-90490123D01*
X191512000Y-91069614D01*
X191511903Y-91076567D01*
X191510903Y-91112363D01*
X191505720Y-91135086D01*
X191509789Y-91152234D01*
X191509540Y-91161153D01*
X191511479Y-91172147D01*
X191512001Y-91186385D01*
X191512001Y-91584876D01*
X191518649Y-91646080D01*
X191568974Y-91780324D01*
X191654954Y-91895046D01*
X191769676Y-91981026D01*
X191786287Y-91987253D01*
X191889304Y-92025872D01*
X191889305Y-92025872D01*
X191903920Y-92031351D01*
X191919439Y-92033037D01*
X191965123Y-92038000D01*
X191964994Y-92039188D01*
X192051383Y-92061293D01*
X192119853Y-92109774D01*
X194189070Y-94178991D01*
X194243046Y-94259773D01*
X194262000Y-94355061D01*
X194262000Y-95454546D01*
X194243046Y-95549834D01*
X194189070Y-95630616D01*
X194178805Y-95640314D01*
X194035833Y-95767921D01*
X193874215Y-95962246D01*
X193858556Y-95988052D01*
X193747884Y-96170432D01*
X193747881Y-96170438D01*
X193743095Y-96178325D01*
X193739526Y-96186836D01*
X193739524Y-96186840D01*
X193648930Y-96402883D01*
X193645354Y-96411411D01*
X193583139Y-96656383D01*
X193570921Y-96777722D01*
X193558743Y-96898660D01*
X193557816Y-96907861D01*
X193560211Y-96957717D01*
X193568565Y-97131627D01*
X193569943Y-97160320D01*
X193619252Y-97408213D01*
X193704660Y-97646095D01*
X193709032Y-97654232D01*
X193709034Y-97654236D01*
X193773358Y-97773947D01*
X193824292Y-97868740D01*
X193975518Y-98071256D01*
X194155017Y-98249196D01*
X194162469Y-98254660D01*
X194259929Y-98326120D01*
X194358846Y-98398649D01*
X194367010Y-98402945D01*
X194367016Y-98402948D01*
X194475892Y-98460230D01*
X194582526Y-98516333D01*
X194821144Y-98599662D01*
X195069458Y-98646806D01*
X195078680Y-98647168D01*
X195078686Y-98647169D01*
X195195736Y-98651768D01*
X195322013Y-98656729D01*
X195331188Y-98655724D01*
X195331193Y-98655724D01*
X195456749Y-98641973D01*
X195534060Y-98633506D01*
X195630843Y-98641973D01*
X195717021Y-98686835D01*
X195779471Y-98761259D01*
X195808686Y-98853918D01*
X195807273Y-98918873D01*
X195787752Y-99045809D01*
X195787750Y-99045826D01*
X195787158Y-99049675D01*
X195767086Y-99272693D01*
X195766961Y-99275482D01*
X195766121Y-99294176D01*
X195742909Y-99388518D01*
X195685361Y-99466795D01*
X195602239Y-99517091D01*
X195517372Y-99532000D01*
X129262000Y-99532000D01*
X129093453Y-99537676D01*
X128925796Y-99548980D01*
X128847370Y-99555506D01*
X128842526Y-99556296D01*
X128842522Y-99556296D01*
X128767820Y-99568471D01*
X128536824Y-99606120D01*
X128533020Y-99606988D01*
X128533011Y-99606990D01*
X128436120Y-99629105D01*
X128318519Y-99655946D01*
X128187830Y-99689502D01*
X127891313Y-99794754D01*
X127685413Y-99882760D01*
X127616472Y-99914448D01*
X127567905Y-99936771D01*
X127567898Y-99936775D01*
X127562828Y-99939105D01*
X127557991Y-99941878D01*
X127557982Y-99941883D01*
X127293261Y-100093666D01*
X127289869Y-100095611D01*
X127102992Y-100218967D01*
X126992421Y-100296307D01*
X126988143Y-100299911D01*
X126988142Y-100299912D01*
X126927068Y-100351368D01*
X126751795Y-100499037D01*
X126633840Y-100611815D01*
X126551872Y-100663963D01*
X126456182Y-100680774D01*
X126361343Y-100659688D01*
X126312547Y-100631171D01*
X126217039Y-100559674D01*
X126190190Y-100536410D01*
X126085930Y-100432150D01*
X126031954Y-100351368D01*
X126013000Y-100256080D01*
X126013000Y-96131146D01*
X126031954Y-96035858D01*
X126085930Y-95955076D01*
X126166712Y-95901100D01*
X126262000Y-95882146D01*
X126357288Y-95901100D01*
X126377938Y-95910784D01*
X126490759Y-95970142D01*
X126502526Y-95976333D01*
X126741144Y-96059662D01*
X126989458Y-96106806D01*
X126998680Y-96107168D01*
X126998686Y-96107169D01*
X127115736Y-96111768D01*
X127242013Y-96116729D01*
X127251188Y-96115724D01*
X127251193Y-96115724D01*
X127484077Y-96090219D01*
X127484081Y-96090218D01*
X127493260Y-96089213D01*
X127737681Y-96024863D01*
X127969905Y-95925091D01*
X127977757Y-95920232D01*
X127977761Y-95920230D01*
X128176972Y-95796954D01*
X128184831Y-95792091D01*
X128377738Y-95628783D01*
X128403314Y-95599620D01*
X128538302Y-95445696D01*
X128538303Y-95445694D01*
X128544388Y-95438756D01*
X128681119Y-95226184D01*
X128686489Y-95214265D01*
X128781135Y-95004156D01*
X128784928Y-94995736D01*
X128853534Y-94752476D01*
X128885431Y-94501747D01*
X128887768Y-94412500D01*
X128869037Y-94160445D01*
X128813256Y-93913928D01*
X128745554Y-93739832D01*
X128725002Y-93686982D01*
X128725001Y-93686979D01*
X128721650Y-93678363D01*
X128596231Y-93458926D01*
X128590519Y-93451680D01*
X128590514Y-93451673D01*
X128445471Y-93267688D01*
X128445467Y-93267684D01*
X128439755Y-93260438D01*
X128255660Y-93087258D01*
X128231321Y-93070373D01*
X128120071Y-92993196D01*
X128052581Y-92923309D01*
X128016974Y-92832914D01*
X128013000Y-92788606D01*
X128013000Y-91124916D01*
X128022337Y-91077976D01*
X128013000Y-91023637D01*
X128013000Y-90986700D01*
X128012999Y-90986695D01*
X128012999Y-90490124D01*
X128006351Y-90428920D01*
X127956026Y-90294676D01*
X127888720Y-90204870D01*
X127880687Y-90194152D01*
X127870046Y-90179954D01*
X127849720Y-90164720D01*
X127810186Y-90135091D01*
X127755324Y-90093974D01*
X127665879Y-90060443D01*
X127635696Y-90049128D01*
X127635695Y-90049128D01*
X127621080Y-90043649D01*
X127559877Y-90037000D01*
X127045451Y-90037000D01*
X127032422Y-90036659D01*
X126975973Y-90033701D01*
X126975971Y-90033701D01*
X126963374Y-90033041D01*
X126950901Y-90034928D01*
X126938301Y-90035544D01*
X126938299Y-90035510D01*
X126918466Y-90037001D01*
X126465124Y-90037001D01*
X126403920Y-90043649D01*
X126389300Y-90049130D01*
X126389299Y-90049130D01*
X126349403Y-90064086D01*
X126253525Y-90079786D01*
X126158937Y-90057599D01*
X126080040Y-90000905D01*
X126028844Y-89918333D01*
X126013000Y-89830930D01*
X126013000Y-86825101D01*
X126031954Y-86729813D01*
X126085930Y-86649031D01*
X126166712Y-86595055D01*
X126262000Y-86576101D01*
X126357288Y-86595055D01*
X126377938Y-86604739D01*
X126530759Y-86685142D01*
X126542526Y-86691333D01*
X126781144Y-86774662D01*
X126790218Y-86776385D01*
X126790219Y-86776385D01*
X126802629Y-86778741D01*
X127029458Y-86821806D01*
X127038680Y-86822168D01*
X127038686Y-86822169D01*
X127155736Y-86826768D01*
X127282013Y-86831729D01*
X127291187Y-86830724D01*
X127291194Y-86830724D01*
X127370401Y-86822049D01*
X127467187Y-86830517D01*
X127553364Y-86875378D01*
X127573579Y-86893499D01*
X128439070Y-87758990D01*
X128493046Y-87839772D01*
X128512000Y-87935060D01*
X128512000Y-91004555D01*
X128511659Y-91017586D01*
X128510659Y-91036668D01*
X128502712Y-91067958D01*
X128508200Y-91087677D01*
X128509201Y-91094295D01*
X128512001Y-91131534D01*
X128512001Y-91584876D01*
X128518649Y-91646080D01*
X128568974Y-91780324D01*
X128654954Y-91895046D01*
X128769676Y-91981026D01*
X128786287Y-91987253D01*
X128889304Y-92025872D01*
X128889305Y-92025872D01*
X128903920Y-92031351D01*
X128965123Y-92038000D01*
X129479555Y-92038000D01*
X129492586Y-92038341D01*
X129549026Y-92041299D01*
X129549029Y-92041299D01*
X129561626Y-92041959D01*
X129574103Y-92040072D01*
X129586693Y-92039456D01*
X129586695Y-92039491D01*
X129606524Y-92038000D01*
X129763000Y-92038000D01*
X129858288Y-92056954D01*
X129939070Y-92110930D01*
X129993046Y-92191712D01*
X130012000Y-92287000D01*
X130012000Y-95684614D01*
X130011903Y-95691567D01*
X130011411Y-95709196D01*
X130009540Y-95776153D01*
X130013142Y-95796577D01*
X130019234Y-95831127D01*
X130021742Y-95849207D01*
X130025088Y-95882146D01*
X130027380Y-95904716D01*
X130031150Y-95916746D01*
X130031151Y-95916751D01*
X130033609Y-95924593D01*
X130041219Y-95955810D01*
X130044836Y-95976321D01*
X130049479Y-95988047D01*
X130049480Y-95988052D01*
X130065378Y-96028207D01*
X130071467Y-96045402D01*
X130084389Y-96086635D01*
X130084392Y-96086642D01*
X130088162Y-96098672D01*
X130094276Y-96109701D01*
X130094277Y-96109704D01*
X130098258Y-96116885D01*
X130111996Y-96145947D01*
X130119660Y-96165305D01*
X130126567Y-96175860D01*
X130126568Y-96175862D01*
X130150220Y-96212006D01*
X130159648Y-96227635D01*
X130179555Y-96263548D01*
X130186703Y-96276444D01*
X130200259Y-96292260D01*
X130219554Y-96317959D01*
X130225716Y-96327377D01*
X130225720Y-96327382D01*
X130230955Y-96335382D01*
X130235417Y-96340338D01*
X130237709Y-96342630D01*
X130237728Y-96342650D01*
X130270992Y-96375913D01*
X130283986Y-96389945D01*
X130306961Y-96416751D01*
X130318977Y-96430771D01*
X130328939Y-96438498D01*
X130328945Y-96438504D01*
X130337235Y-96444934D01*
X130360692Y-96465613D01*
X130496731Y-96601652D01*
X130550707Y-96682434D01*
X130569661Y-96777722D01*
X130568408Y-96802668D01*
X130558742Y-96898660D01*
X130558742Y-96898662D01*
X130557816Y-96907861D01*
X130560211Y-96957717D01*
X130568565Y-97131627D01*
X130569943Y-97160320D01*
X130619252Y-97408213D01*
X130704660Y-97646095D01*
X130709032Y-97654232D01*
X130709034Y-97654236D01*
X130773358Y-97773947D01*
X130824292Y-97868740D01*
X130975518Y-98071256D01*
X131155017Y-98249196D01*
X131162469Y-98254660D01*
X131259929Y-98326120D01*
X131358846Y-98398649D01*
X131367010Y-98402945D01*
X131367016Y-98402948D01*
X131475892Y-98460230D01*
X131582526Y-98516333D01*
X131821144Y-98599662D01*
X132069458Y-98646806D01*
X132078680Y-98647168D01*
X132078686Y-98647169D01*
X132195736Y-98651768D01*
X132322013Y-98656729D01*
X132331188Y-98655724D01*
X132331193Y-98655724D01*
X132564077Y-98630219D01*
X132564081Y-98630218D01*
X132573260Y-98629213D01*
X132817681Y-98564863D01*
X133049905Y-98465091D01*
X133057757Y-98460232D01*
X133057761Y-98460230D01*
X133256972Y-98336954D01*
X133264831Y-98332091D01*
X133457738Y-98168783D01*
X133543268Y-98071256D01*
X133618302Y-97985696D01*
X133618303Y-97985694D01*
X133624388Y-97978756D01*
X133761119Y-97766184D01*
X133864928Y-97535736D01*
X133905702Y-97391161D01*
X133931024Y-97301377D01*
X133931025Y-97301373D01*
X133933534Y-97292476D01*
X133965431Y-97041747D01*
X133967768Y-96952500D01*
X133956054Y-96794871D01*
X133949722Y-96709662D01*
X133949722Y-96709661D01*
X133949037Y-96700445D01*
X133893256Y-96453928D01*
X133889907Y-96445316D01*
X133887206Y-96436481D01*
X133889548Y-96435765D01*
X133875459Y-96355875D01*
X133896485Y-96261023D01*
X133952208Y-96181436D01*
X134034146Y-96129233D01*
X134134176Y-96112492D01*
X134242013Y-96116729D01*
X134251188Y-96115724D01*
X134251193Y-96115724D01*
X134484077Y-96090219D01*
X134484081Y-96090218D01*
X134493260Y-96089213D01*
X134737681Y-96024863D01*
X134969905Y-95925091D01*
X134977757Y-95920232D01*
X134977761Y-95920230D01*
X135176972Y-95796954D01*
X135184831Y-95792091D01*
X135377738Y-95628783D01*
X135403314Y-95599620D01*
X135538302Y-95445696D01*
X135538303Y-95445694D01*
X135544388Y-95438756D01*
X135681119Y-95226184D01*
X135686489Y-95214265D01*
X135781135Y-95004156D01*
X135784928Y-94995736D01*
X135853534Y-94752476D01*
X135885431Y-94501747D01*
X135887768Y-94412500D01*
X135871165Y-94189083D01*
X135883005Y-94092655D01*
X135890954Y-94071756D01*
X135912539Y-94021877D01*
X135920371Y-94005456D01*
X135946241Y-93955970D01*
X135951983Y-93935944D01*
X135962815Y-93905693D01*
X135971086Y-93886581D01*
X135982501Y-93831941D01*
X135986885Y-93814226D01*
X135989514Y-93805060D01*
X136002266Y-93760587D01*
X136003864Y-93739816D01*
X136008391Y-93708012D01*
X136012651Y-93687620D01*
X136013000Y-93680961D01*
X136013000Y-93630654D01*
X136013734Y-93611551D01*
X136016892Y-93570509D01*
X136017860Y-93557930D01*
X136014963Y-93534998D01*
X136013000Y-93503790D01*
X136013000Y-91124916D01*
X136022337Y-91077976D01*
X136013000Y-91023637D01*
X136013000Y-90986700D01*
X136012999Y-90986695D01*
X136012999Y-90490124D01*
X136006351Y-90428920D01*
X135970401Y-90333022D01*
X135954700Y-90237144D01*
X135976886Y-90142556D01*
X136033580Y-90063658D01*
X136116151Y-90012462D01*
X136212029Y-89996761D01*
X136306617Y-90018947D01*
X136379626Y-90069547D01*
X136439070Y-90128991D01*
X136493046Y-90209773D01*
X136512000Y-90305061D01*
X136512000Y-91004555D01*
X136511659Y-91017586D01*
X136510659Y-91036668D01*
X136502712Y-91067958D01*
X136508200Y-91087677D01*
X136509201Y-91094295D01*
X136512001Y-91131534D01*
X136512001Y-91584876D01*
X136518649Y-91646080D01*
X136568974Y-91780324D01*
X136654954Y-91895046D01*
X136769676Y-91981026D01*
X136786287Y-91987253D01*
X136889304Y-92025872D01*
X136889305Y-92025872D01*
X136903920Y-92031351D01*
X136965123Y-92038000D01*
X137479555Y-92038000D01*
X137492586Y-92038341D01*
X137549026Y-92041299D01*
X137549029Y-92041299D01*
X137561626Y-92041959D01*
X137574103Y-92040072D01*
X137586693Y-92039456D01*
X137586695Y-92039491D01*
X137606524Y-92038000D01*
X137763000Y-92038000D01*
X137858288Y-92056954D01*
X137939070Y-92110930D01*
X137993046Y-92191712D01*
X138012000Y-92287000D01*
X138012000Y-95706563D01*
X137993046Y-95801851D01*
X137954442Y-95865783D01*
X137880121Y-95955144D01*
X137880117Y-95955150D01*
X137874215Y-95962246D01*
X137858556Y-95988052D01*
X137747884Y-96170432D01*
X137747881Y-96170438D01*
X137743095Y-96178325D01*
X137739526Y-96186836D01*
X137739524Y-96186840D01*
X137648930Y-96402883D01*
X137645354Y-96411411D01*
X137583139Y-96656383D01*
X137570921Y-96777722D01*
X137558743Y-96898660D01*
X137557816Y-96907861D01*
X137560211Y-96957717D01*
X137568565Y-97131627D01*
X137569943Y-97160320D01*
X137619252Y-97408213D01*
X137704660Y-97646095D01*
X137709032Y-97654232D01*
X137709034Y-97654236D01*
X137773358Y-97773947D01*
X137824292Y-97868740D01*
X137975518Y-98071256D01*
X138155017Y-98249196D01*
X138162469Y-98254660D01*
X138259929Y-98326120D01*
X138358846Y-98398649D01*
X138367010Y-98402945D01*
X138367016Y-98402948D01*
X138475892Y-98460230D01*
X138582526Y-98516333D01*
X138821144Y-98599662D01*
X139069458Y-98646806D01*
X139078680Y-98647168D01*
X139078686Y-98647169D01*
X139195736Y-98651768D01*
X139322013Y-98656729D01*
X139331188Y-98655724D01*
X139331193Y-98655724D01*
X139564077Y-98630219D01*
X139564081Y-98630218D01*
X139573260Y-98629213D01*
X139817681Y-98564863D01*
X140049905Y-98465091D01*
X140057757Y-98460232D01*
X140057761Y-98460230D01*
X140256972Y-98336954D01*
X140264831Y-98332091D01*
X140457738Y-98168783D01*
X140543268Y-98071256D01*
X140618302Y-97985696D01*
X140618303Y-97985694D01*
X140624388Y-97978756D01*
X140761119Y-97766184D01*
X140864928Y-97535736D01*
X140905702Y-97391161D01*
X140931024Y-97301377D01*
X140931025Y-97301373D01*
X140933534Y-97292476D01*
X140965431Y-97041747D01*
X140967768Y-96952500D01*
X140956054Y-96794871D01*
X140949722Y-96709662D01*
X140949722Y-96709661D01*
X140949037Y-96700445D01*
X140893256Y-96453928D01*
X140889907Y-96445316D01*
X140887206Y-96436481D01*
X140889548Y-96435765D01*
X140875459Y-96355875D01*
X140896485Y-96261023D01*
X140952208Y-96181436D01*
X141034146Y-96129233D01*
X141134176Y-96112492D01*
X141242013Y-96116729D01*
X141251188Y-96115724D01*
X141251193Y-96115724D01*
X141484077Y-96090219D01*
X141484081Y-96090218D01*
X141493260Y-96089213D01*
X141737681Y-96024863D01*
X141969905Y-95925091D01*
X141977757Y-95920232D01*
X141977761Y-95920230D01*
X142176972Y-95796954D01*
X142184831Y-95792091D01*
X142377738Y-95628783D01*
X142403314Y-95599620D01*
X142538302Y-95445696D01*
X142538303Y-95445694D01*
X142544388Y-95438756D01*
X142681119Y-95226184D01*
X142686489Y-95214265D01*
X142781135Y-95004156D01*
X142784928Y-94995736D01*
X142853534Y-94752476D01*
X142885431Y-94501747D01*
X142887768Y-94412500D01*
X142876142Y-94256055D01*
X142887982Y-94159626D01*
X142935823Y-94075066D01*
X142948387Y-94061533D01*
X143707320Y-93302600D01*
X143712305Y-93297753D01*
X143764617Y-93248284D01*
X143773780Y-93239619D01*
X143805797Y-93193894D01*
X143816804Y-93179341D01*
X143844101Y-93145872D01*
X143844103Y-93145870D01*
X143852073Y-93136097D01*
X143861720Y-93117644D01*
X143878415Y-93090184D01*
X143880464Y-93087258D01*
X143890363Y-93073121D01*
X143912525Y-93021907D01*
X143920384Y-93005430D01*
X143932706Y-92981862D01*
X143946242Y-92955970D01*
X143951986Y-92935937D01*
X143962818Y-92905687D01*
X143966078Y-92898155D01*
X143966079Y-92898151D01*
X143971086Y-92886581D01*
X143982499Y-92831951D01*
X143986881Y-92814244D01*
X143998790Y-92772710D01*
X143998790Y-92772709D01*
X144002266Y-92760587D01*
X144003864Y-92739816D01*
X144008391Y-92708012D01*
X144012651Y-92687620D01*
X144013000Y-92680961D01*
X144013000Y-92630653D01*
X144013734Y-92611550D01*
X144016892Y-92570512D01*
X144016892Y-92570510D01*
X144017860Y-92557929D01*
X144014962Y-92534991D01*
X144013000Y-92503796D01*
X144013000Y-91554059D01*
X144031954Y-91458771D01*
X144085930Y-91377989D01*
X144166712Y-91324013D01*
X144262000Y-91305059D01*
X144357288Y-91324013D01*
X144438067Y-91377987D01*
X144439072Y-91378992D01*
X144493047Y-91459772D01*
X144512001Y-91555060D01*
X144512001Y-91584876D01*
X144518649Y-91646080D01*
X144568974Y-91780324D01*
X144654954Y-91895046D01*
X144769676Y-91981026D01*
X144786287Y-91987253D01*
X144889304Y-92025872D01*
X144889305Y-92025872D01*
X144903920Y-92031351D01*
X144965123Y-92038000D01*
X145013000Y-92038000D01*
X145108288Y-92056954D01*
X145189070Y-92110930D01*
X145243046Y-92191712D01*
X145262000Y-92287000D01*
X145262000Y-95454546D01*
X145243046Y-95549834D01*
X145189070Y-95630616D01*
X145178805Y-95640314D01*
X145035833Y-95767921D01*
X144874215Y-95962246D01*
X144858556Y-95988052D01*
X144747884Y-96170432D01*
X144747881Y-96170438D01*
X144743095Y-96178325D01*
X144739526Y-96186836D01*
X144739524Y-96186840D01*
X144648930Y-96402883D01*
X144645354Y-96411411D01*
X144583139Y-96656383D01*
X144570921Y-96777722D01*
X144558743Y-96898660D01*
X144557816Y-96907861D01*
X144560211Y-96957717D01*
X144568565Y-97131627D01*
X144569943Y-97160320D01*
X144619252Y-97408213D01*
X144704660Y-97646095D01*
X144709032Y-97654232D01*
X144709034Y-97654236D01*
X144773358Y-97773947D01*
X144824292Y-97868740D01*
X144975518Y-98071256D01*
X145155017Y-98249196D01*
X145162469Y-98254660D01*
X145259929Y-98326120D01*
X145358846Y-98398649D01*
X145367010Y-98402945D01*
X145367016Y-98402948D01*
X145475892Y-98460230D01*
X145582526Y-98516333D01*
X145821144Y-98599662D01*
X146069458Y-98646806D01*
X146078680Y-98647168D01*
X146078686Y-98647169D01*
X146195736Y-98651768D01*
X146322013Y-98656729D01*
X146331188Y-98655724D01*
X146331193Y-98655724D01*
X146564077Y-98630219D01*
X146564081Y-98630218D01*
X146573260Y-98629213D01*
X146817681Y-98564863D01*
X147049905Y-98465091D01*
X147057757Y-98460232D01*
X147057761Y-98460230D01*
X147256972Y-98336954D01*
X147264831Y-98332091D01*
X147457738Y-98168783D01*
X147543268Y-98071256D01*
X147618302Y-97985696D01*
X147618303Y-97985694D01*
X147624388Y-97978756D01*
X147761119Y-97766184D01*
X147864928Y-97535736D01*
X147905702Y-97391161D01*
X147931024Y-97301377D01*
X147931025Y-97301373D01*
X147933534Y-97292476D01*
X147965431Y-97041747D01*
X147967768Y-96952500D01*
X147956054Y-96794871D01*
X147949722Y-96709662D01*
X147949722Y-96709661D01*
X147949037Y-96700445D01*
X147893256Y-96453928D01*
X147889907Y-96445316D01*
X147887206Y-96436481D01*
X147889548Y-96435765D01*
X147875459Y-96355875D01*
X147896485Y-96261023D01*
X147952208Y-96181436D01*
X148034146Y-96129233D01*
X148134176Y-96112492D01*
X148242013Y-96116729D01*
X148251188Y-96115724D01*
X148251193Y-96115724D01*
X148484077Y-96090219D01*
X148484081Y-96090218D01*
X148493260Y-96089213D01*
X148737681Y-96024863D01*
X148969905Y-95925091D01*
X148977757Y-95920232D01*
X148977761Y-95920230D01*
X149176972Y-95796954D01*
X149184831Y-95792091D01*
X149377738Y-95628783D01*
X149403314Y-95599620D01*
X149538302Y-95445696D01*
X149538303Y-95445694D01*
X149544388Y-95438756D01*
X149681119Y-95226184D01*
X149686489Y-95214265D01*
X149781135Y-95004156D01*
X149784928Y-94995736D01*
X149853534Y-94752476D01*
X149885431Y-94501747D01*
X149887768Y-94412500D01*
X149876142Y-94256056D01*
X149887982Y-94159627D01*
X149935823Y-94075067D01*
X149948387Y-94061534D01*
X151707338Y-92302583D01*
X151712323Y-92297736D01*
X151764615Y-92248286D01*
X151773780Y-92239619D01*
X151781013Y-92229289D01*
X151781020Y-92229281D01*
X151805799Y-92193893D01*
X151816805Y-92179340D01*
X151844098Y-92145875D01*
X151852073Y-92136097D01*
X151861722Y-92117640D01*
X151878413Y-92090188D01*
X151890363Y-92073121D01*
X151912539Y-92021877D01*
X151920371Y-92005456D01*
X151946241Y-91955970D01*
X151951983Y-91935944D01*
X151962815Y-91905693D01*
X151971086Y-91886581D01*
X151982501Y-91831941D01*
X151986885Y-91814226D01*
X151991405Y-91798465D01*
X152002266Y-91760587D01*
X152003864Y-91739816D01*
X152008391Y-91708012D01*
X152012651Y-91687620D01*
X152013000Y-91680961D01*
X152013000Y-91630654D01*
X152013734Y-91611546D01*
X152015777Y-91585002D01*
X152041988Y-91491449D01*
X152102004Y-91415048D01*
X152186689Y-91367430D01*
X152283151Y-91355844D01*
X152376704Y-91382055D01*
X152453105Y-91442071D01*
X152500723Y-91526756D01*
X152511606Y-91584919D01*
X152512001Y-91584876D01*
X152518649Y-91646080D01*
X152568974Y-91780324D01*
X152579613Y-91794519D01*
X152581773Y-91798465D01*
X152610908Y-91891149D01*
X152602356Y-91987927D01*
X152557419Y-92074065D01*
X152534448Y-92098958D01*
X152510388Y-92121711D01*
X152501220Y-92130381D01*
X152493987Y-92140711D01*
X152469203Y-92176106D01*
X152458196Y-92190659D01*
X152436851Y-92216831D01*
X152422927Y-92233903D01*
X152417084Y-92245081D01*
X152417082Y-92245083D01*
X152413280Y-92252356D01*
X152396586Y-92279815D01*
X152384637Y-92296879D01*
X152379629Y-92308452D01*
X152362475Y-92348093D01*
X152354617Y-92364567D01*
X152328758Y-92414030D01*
X152323014Y-92434063D01*
X152312183Y-92464310D01*
X152303914Y-92483419D01*
X152292502Y-92538046D01*
X152288119Y-92555756D01*
X152279195Y-92586880D01*
X152272734Y-92609413D01*
X152271136Y-92630184D01*
X152266609Y-92661988D01*
X152262349Y-92682380D01*
X152262000Y-92689039D01*
X152262000Y-92739347D01*
X152261266Y-92758450D01*
X152258946Y-92788606D01*
X152257140Y-92812071D01*
X152260038Y-92835009D01*
X152262000Y-92866204D01*
X152262000Y-95454546D01*
X152243046Y-95549834D01*
X152189070Y-95630616D01*
X152178805Y-95640314D01*
X152035833Y-95767921D01*
X151874215Y-95962246D01*
X151858556Y-95988052D01*
X151747884Y-96170432D01*
X151747881Y-96170438D01*
X151743095Y-96178325D01*
X151739526Y-96186836D01*
X151739524Y-96186840D01*
X151648930Y-96402883D01*
X151645354Y-96411411D01*
X151583139Y-96656383D01*
X151570921Y-96777722D01*
X151558743Y-96898660D01*
X151557816Y-96907861D01*
X151560211Y-96957717D01*
X151568565Y-97131627D01*
X151569943Y-97160320D01*
X151619252Y-97408213D01*
X151704660Y-97646095D01*
X151709032Y-97654232D01*
X151709034Y-97654236D01*
X151773358Y-97773947D01*
X151824292Y-97868740D01*
X151975518Y-98071256D01*
X152155017Y-98249196D01*
X152162469Y-98254660D01*
X152259929Y-98326120D01*
X152358846Y-98398649D01*
X152367010Y-98402945D01*
X152367016Y-98402948D01*
X152475892Y-98460230D01*
X152582526Y-98516333D01*
X152821144Y-98599662D01*
X153069458Y-98646806D01*
X153078680Y-98647168D01*
X153078686Y-98647169D01*
X153195736Y-98651768D01*
X153322013Y-98656729D01*
X153331188Y-98655724D01*
X153331193Y-98655724D01*
X153564077Y-98630219D01*
X153564081Y-98630218D01*
X153573260Y-98629213D01*
X153817681Y-98564863D01*
X154049905Y-98465091D01*
X154057757Y-98460232D01*
X154057761Y-98460230D01*
X154256972Y-98336954D01*
X154264831Y-98332091D01*
X154457738Y-98168783D01*
X154543268Y-98071256D01*
X154618302Y-97985696D01*
X154618303Y-97985694D01*
X154624388Y-97978756D01*
X154761119Y-97766184D01*
X154864928Y-97535736D01*
X154905702Y-97391161D01*
X154931024Y-97301377D01*
X154931025Y-97301373D01*
X154933534Y-97292476D01*
X154965431Y-97041747D01*
X154967768Y-96952500D01*
X154956054Y-96794871D01*
X154949722Y-96709662D01*
X154949722Y-96709661D01*
X154949037Y-96700445D01*
X154893256Y-96453928D01*
X154889907Y-96445316D01*
X154887206Y-96436481D01*
X154889548Y-96435765D01*
X154875459Y-96355875D01*
X154896485Y-96261023D01*
X154952208Y-96181436D01*
X155034146Y-96129233D01*
X155134176Y-96112492D01*
X155242013Y-96116729D01*
X155251188Y-96115724D01*
X155251193Y-96115724D01*
X155484077Y-96090219D01*
X155484081Y-96090218D01*
X155493260Y-96089213D01*
X155737681Y-96024863D01*
X155969905Y-95925091D01*
X155977757Y-95920232D01*
X155977761Y-95920230D01*
X156176972Y-95796954D01*
X156184831Y-95792091D01*
X156377738Y-95628783D01*
X156383828Y-95621839D01*
X156383834Y-95621833D01*
X156492588Y-95497823D01*
X156569666Y-95438679D01*
X156663511Y-95413533D01*
X156679796Y-95413000D01*
X156869614Y-95413000D01*
X156876567Y-95413097D01*
X156948548Y-95415108D01*
X156948549Y-95415108D01*
X156961153Y-95415460D01*
X157016128Y-95405766D01*
X157034207Y-95403258D01*
X157077167Y-95398895D01*
X157077171Y-95398894D01*
X157089716Y-95397620D01*
X157101746Y-95393850D01*
X157101751Y-95393849D01*
X157109593Y-95391391D01*
X157140810Y-95383781D01*
X157161321Y-95380164D01*
X157173047Y-95375521D01*
X157173052Y-95375520D01*
X157213207Y-95359622D01*
X157230402Y-95353533D01*
X157271635Y-95340611D01*
X157271642Y-95340608D01*
X157283672Y-95336838D01*
X157294701Y-95330724D01*
X157294704Y-95330723D01*
X157301885Y-95326742D01*
X157330947Y-95313004D01*
X157350305Y-95305340D01*
X157397006Y-95274780D01*
X157412627Y-95265357D01*
X157461444Y-95238297D01*
X157477260Y-95224741D01*
X157502954Y-95205449D01*
X157506910Y-95202861D01*
X157512377Y-95199284D01*
X157512382Y-95199280D01*
X157520382Y-95194045D01*
X157525338Y-95189583D01*
X157560911Y-95154010D01*
X157574939Y-95141021D01*
X157606193Y-95114233D01*
X157606197Y-95114229D01*
X157615771Y-95106023D01*
X157629932Y-95087767D01*
X157650606Y-95064315D01*
X158836931Y-93877989D01*
X158917712Y-93824014D01*
X159013000Y-93805060D01*
X159108288Y-93824014D01*
X159189070Y-93877990D01*
X159243046Y-93958772D01*
X159262000Y-94054060D01*
X159262000Y-95454546D01*
X159243046Y-95549834D01*
X159189070Y-95630616D01*
X159178805Y-95640314D01*
X159035833Y-95767921D01*
X158874215Y-95962246D01*
X158858556Y-95988052D01*
X158747884Y-96170432D01*
X158747881Y-96170438D01*
X158743095Y-96178325D01*
X158739526Y-96186836D01*
X158739524Y-96186840D01*
X158648930Y-96402883D01*
X158645354Y-96411411D01*
X158583139Y-96656383D01*
X158570921Y-96777722D01*
X158558743Y-96898660D01*
X158557816Y-96907861D01*
X158560211Y-96957717D01*
X158568565Y-97131627D01*
X158569943Y-97160320D01*
X158619252Y-97408213D01*
X158704660Y-97646095D01*
X158709032Y-97654232D01*
X158709034Y-97654236D01*
X158773358Y-97773947D01*
X158824292Y-97868740D01*
X158975518Y-98071256D01*
X159155017Y-98249196D01*
X159162469Y-98254660D01*
X159259929Y-98326120D01*
X159358846Y-98398649D01*
X159367010Y-98402945D01*
X159367016Y-98402948D01*
X159475892Y-98460230D01*
X159582526Y-98516333D01*
X159821144Y-98599662D01*
X160069458Y-98646806D01*
X160078680Y-98647168D01*
X160078686Y-98647169D01*
X160195736Y-98651768D01*
X160322013Y-98656729D01*
X160331188Y-98655724D01*
X160331193Y-98655724D01*
X160564077Y-98630219D01*
X160564081Y-98630218D01*
X160573260Y-98629213D01*
X160817681Y-98564863D01*
X161049905Y-98465091D01*
X161057757Y-98460232D01*
X161057761Y-98460230D01*
X161256972Y-98336954D01*
X161264831Y-98332091D01*
X161457738Y-98168783D01*
X161543268Y-98071256D01*
X161618302Y-97985696D01*
X161618303Y-97985694D01*
X161624388Y-97978756D01*
X161761119Y-97766184D01*
X161864928Y-97535736D01*
X161905702Y-97391161D01*
X161931024Y-97301377D01*
X161931025Y-97301373D01*
X161933534Y-97292476D01*
X161965431Y-97041747D01*
X161967768Y-96952500D01*
X161956054Y-96794871D01*
X161949722Y-96709662D01*
X161949722Y-96709661D01*
X161949037Y-96700445D01*
X161893256Y-96453928D01*
X161889907Y-96445316D01*
X161887206Y-96436481D01*
X161889548Y-96435765D01*
X161875459Y-96355875D01*
X161896485Y-96261023D01*
X161952208Y-96181436D01*
X162034146Y-96129233D01*
X162134176Y-96112492D01*
X162242013Y-96116729D01*
X162251188Y-96115724D01*
X162251193Y-96115724D01*
X162484077Y-96090219D01*
X162484081Y-96090218D01*
X162493260Y-96089213D01*
X162737681Y-96024863D01*
X162969905Y-95925091D01*
X162977757Y-95920232D01*
X162977761Y-95920230D01*
X163176972Y-95796954D01*
X163184831Y-95792091D01*
X163377738Y-95628783D01*
X163383828Y-95621839D01*
X163383834Y-95621833D01*
X163492588Y-95497823D01*
X163569666Y-95438679D01*
X163663511Y-95413533D01*
X163679796Y-95413000D01*
X164369614Y-95413000D01*
X164376567Y-95413097D01*
X164448548Y-95415108D01*
X164448549Y-95415108D01*
X164461153Y-95415460D01*
X164516128Y-95405766D01*
X164534207Y-95403258D01*
X164577167Y-95398895D01*
X164577171Y-95398894D01*
X164589716Y-95397620D01*
X164601746Y-95393850D01*
X164601751Y-95393849D01*
X164609593Y-95391391D01*
X164640810Y-95383781D01*
X164661321Y-95380164D01*
X164673047Y-95375521D01*
X164673052Y-95375520D01*
X164713207Y-95359622D01*
X164730402Y-95353533D01*
X164771635Y-95340611D01*
X164771642Y-95340608D01*
X164783672Y-95336838D01*
X164794701Y-95330724D01*
X164794704Y-95330723D01*
X164801885Y-95326742D01*
X164830947Y-95313004D01*
X164850305Y-95305340D01*
X164897006Y-95274780D01*
X164912627Y-95265357D01*
X164961444Y-95238297D01*
X164977260Y-95224741D01*
X165002954Y-95205449D01*
X165006910Y-95202861D01*
X165012377Y-95199284D01*
X165012382Y-95199280D01*
X165020382Y-95194045D01*
X165025338Y-95189583D01*
X165060911Y-95154010D01*
X165074939Y-95141021D01*
X165106193Y-95114233D01*
X165106197Y-95114229D01*
X165115771Y-95106023D01*
X165123500Y-95096059D01*
X165123503Y-95096056D01*
X165129934Y-95087765D01*
X165150613Y-95064308D01*
X165836930Y-94377991D01*
X165917712Y-94324015D01*
X166013000Y-94305061D01*
X166108288Y-94324015D01*
X166189070Y-94377991D01*
X166243046Y-94458773D01*
X166262000Y-94554061D01*
X166262000Y-95454546D01*
X166243046Y-95549834D01*
X166189070Y-95630616D01*
X166178805Y-95640314D01*
X166035833Y-95767921D01*
X165874215Y-95962246D01*
X165858556Y-95988052D01*
X165747884Y-96170432D01*
X165747881Y-96170438D01*
X165743095Y-96178325D01*
X165739526Y-96186836D01*
X165739524Y-96186840D01*
X165648930Y-96402883D01*
X165645354Y-96411411D01*
X165583139Y-96656383D01*
X165570921Y-96777722D01*
X165558743Y-96898660D01*
X165557816Y-96907861D01*
X165560211Y-96957717D01*
X165568565Y-97131627D01*
X165569943Y-97160320D01*
X165619252Y-97408213D01*
X165704660Y-97646095D01*
X165709032Y-97654232D01*
X165709034Y-97654236D01*
X165773358Y-97773947D01*
X165824292Y-97868740D01*
X165975518Y-98071256D01*
X166155017Y-98249196D01*
X166162469Y-98254660D01*
X166259929Y-98326120D01*
X166358846Y-98398649D01*
X166367010Y-98402945D01*
X166367016Y-98402948D01*
X166475892Y-98460230D01*
X166582526Y-98516333D01*
X166821144Y-98599662D01*
X167069458Y-98646806D01*
X167078680Y-98647168D01*
X167078686Y-98647169D01*
X167195736Y-98651768D01*
X167322013Y-98656729D01*
X167331188Y-98655724D01*
X167331193Y-98655724D01*
X167564077Y-98630219D01*
X167564081Y-98630218D01*
X167573260Y-98629213D01*
X167817681Y-98564863D01*
X168049905Y-98465091D01*
X168057757Y-98460232D01*
X168057761Y-98460230D01*
X168256972Y-98336954D01*
X168264831Y-98332091D01*
X168457738Y-98168783D01*
X168543268Y-98071256D01*
X168618302Y-97985696D01*
X168618303Y-97985694D01*
X168624388Y-97978756D01*
X168761119Y-97766184D01*
X168864928Y-97535736D01*
X168905702Y-97391161D01*
X168931024Y-97301377D01*
X168931025Y-97301373D01*
X168933534Y-97292476D01*
X168965431Y-97041747D01*
X168967768Y-96952500D01*
X168956054Y-96794871D01*
X168949722Y-96709662D01*
X168949722Y-96709661D01*
X168949037Y-96700445D01*
X168893256Y-96453928D01*
X168889907Y-96445316D01*
X168887206Y-96436481D01*
X168889548Y-96435765D01*
X168875459Y-96355875D01*
X168896485Y-96261023D01*
X168952208Y-96181436D01*
X169034146Y-96129233D01*
X169134176Y-96112492D01*
X169242013Y-96116729D01*
X169251188Y-96115724D01*
X169251193Y-96115724D01*
X169484077Y-96090219D01*
X169484081Y-96090218D01*
X169493260Y-96089213D01*
X169737681Y-96024863D01*
X169969905Y-95925091D01*
X169977757Y-95920232D01*
X169977761Y-95920230D01*
X170176972Y-95796954D01*
X170184831Y-95792091D01*
X170377738Y-95628783D01*
X170403314Y-95599620D01*
X170538302Y-95445696D01*
X170538303Y-95445694D01*
X170544388Y-95438756D01*
X170681119Y-95226184D01*
X170686489Y-95214265D01*
X170781135Y-95004156D01*
X170784928Y-94995736D01*
X170853534Y-94752476D01*
X170885431Y-94501747D01*
X170887768Y-94412500D01*
X170876142Y-94256055D01*
X170887982Y-94159626D01*
X170935823Y-94075066D01*
X170948387Y-94061533D01*
X171707320Y-93302600D01*
X171712305Y-93297753D01*
X171764617Y-93248284D01*
X171773780Y-93239619D01*
X171805797Y-93193894D01*
X171816804Y-93179341D01*
X171844101Y-93145872D01*
X171844103Y-93145870D01*
X171852073Y-93136097D01*
X171861720Y-93117644D01*
X171878415Y-93090184D01*
X171880464Y-93087258D01*
X171890363Y-93073121D01*
X171912525Y-93021907D01*
X171920384Y-93005430D01*
X171932706Y-92981862D01*
X171946242Y-92955970D01*
X171951986Y-92935937D01*
X171962818Y-92905687D01*
X171966078Y-92898155D01*
X171966079Y-92898151D01*
X171971086Y-92886581D01*
X171982499Y-92831951D01*
X171986881Y-92814244D01*
X171998790Y-92772710D01*
X171998790Y-92772709D01*
X172002266Y-92760587D01*
X172003864Y-92739816D01*
X172008391Y-92708012D01*
X172012651Y-92687620D01*
X172013000Y-92680961D01*
X172013000Y-92630653D01*
X172013734Y-92611550D01*
X172014734Y-92598554D01*
X172022944Y-92569248D01*
X172020180Y-92558824D01*
X172502629Y-92558824D01*
X172512000Y-92617657D01*
X172512000Y-96184614D01*
X172511903Y-96191567D01*
X172509540Y-96276153D01*
X172511730Y-96288570D01*
X172519234Y-96331127D01*
X172521742Y-96349207D01*
X172525880Y-96389945D01*
X172527380Y-96404716D01*
X172531150Y-96416746D01*
X172531151Y-96416751D01*
X172533609Y-96424593D01*
X172541219Y-96455810D01*
X172544836Y-96476321D01*
X172549479Y-96488047D01*
X172549480Y-96488052D01*
X172565378Y-96528207D01*
X172571461Y-96545382D01*
X172573746Y-96552671D01*
X172584163Y-96649266D01*
X172583309Y-96655715D01*
X172583139Y-96656383D01*
X172582882Y-96658934D01*
X172582882Y-96658935D01*
X172558743Y-96898660D01*
X172557816Y-96907861D01*
X172560211Y-96957717D01*
X172568565Y-97131627D01*
X172569943Y-97160320D01*
X172619252Y-97408213D01*
X172704660Y-97646095D01*
X172709032Y-97654232D01*
X172709034Y-97654236D01*
X172773358Y-97773947D01*
X172824292Y-97868740D01*
X172975518Y-98071256D01*
X173155017Y-98249196D01*
X173162469Y-98254660D01*
X173259929Y-98326120D01*
X173358846Y-98398649D01*
X173367010Y-98402945D01*
X173367016Y-98402948D01*
X173475892Y-98460230D01*
X173582526Y-98516333D01*
X173821144Y-98599662D01*
X174069458Y-98646806D01*
X174078680Y-98647168D01*
X174078686Y-98647169D01*
X174195736Y-98651768D01*
X174322013Y-98656729D01*
X174331188Y-98655724D01*
X174331193Y-98655724D01*
X174564077Y-98630219D01*
X174564081Y-98630218D01*
X174573260Y-98629213D01*
X174817681Y-98564863D01*
X175049905Y-98465091D01*
X175057757Y-98460232D01*
X175057761Y-98460230D01*
X175256972Y-98336954D01*
X175264831Y-98332091D01*
X175457738Y-98168783D01*
X175543268Y-98071256D01*
X175618302Y-97985696D01*
X175618303Y-97985694D01*
X175624388Y-97978756D01*
X175761119Y-97766184D01*
X175864928Y-97535736D01*
X175905702Y-97391161D01*
X175931024Y-97301377D01*
X175931025Y-97301373D01*
X175933534Y-97292476D01*
X175965431Y-97041747D01*
X175967768Y-96952500D01*
X175956054Y-96794871D01*
X175949722Y-96709662D01*
X175949722Y-96709661D01*
X175949037Y-96700445D01*
X175893256Y-96453928D01*
X175889907Y-96445316D01*
X175887206Y-96436481D01*
X175889548Y-96435765D01*
X175875459Y-96355875D01*
X175896485Y-96261023D01*
X175952208Y-96181436D01*
X176034146Y-96129233D01*
X176134176Y-96112492D01*
X176242013Y-96116729D01*
X176251188Y-96115724D01*
X176251193Y-96115724D01*
X176484077Y-96090219D01*
X176484081Y-96090218D01*
X176493260Y-96089213D01*
X176737681Y-96024863D01*
X176969905Y-95925091D01*
X176977757Y-95920232D01*
X176977761Y-95920230D01*
X177176972Y-95796954D01*
X177184831Y-95792091D01*
X177377738Y-95628783D01*
X177403314Y-95599620D01*
X177538302Y-95445696D01*
X177538303Y-95445694D01*
X177544388Y-95438756D01*
X177681119Y-95226184D01*
X177686489Y-95214265D01*
X177781135Y-95004156D01*
X177784928Y-94995736D01*
X177853534Y-94752476D01*
X177885431Y-94501747D01*
X177887768Y-94412500D01*
X177869037Y-94160445D01*
X177813256Y-93913928D01*
X177745554Y-93739832D01*
X177725002Y-93686982D01*
X177725001Y-93686979D01*
X177721650Y-93678363D01*
X177596231Y-93458926D01*
X177590519Y-93451680D01*
X177590514Y-93451673D01*
X177445471Y-93267688D01*
X177445467Y-93267684D01*
X177439755Y-93260438D01*
X177255660Y-93087258D01*
X177231321Y-93070373D01*
X177120071Y-92993196D01*
X177052581Y-92923309D01*
X177016974Y-92832914D01*
X177013000Y-92788606D01*
X177013000Y-90986700D01*
X177012999Y-90986695D01*
X177012999Y-90490124D01*
X177006351Y-90428920D01*
X176956026Y-90294676D01*
X176888720Y-90204870D01*
X176880687Y-90194152D01*
X176870046Y-90179954D01*
X176849720Y-90164720D01*
X176810186Y-90135091D01*
X176755324Y-90093974D01*
X176665879Y-90060443D01*
X176635696Y-90049128D01*
X176635695Y-90049128D01*
X176621080Y-90043649D01*
X176559877Y-90037000D01*
X176045451Y-90037000D01*
X176032422Y-90036659D01*
X175975973Y-90033701D01*
X175975971Y-90033701D01*
X175963374Y-90033041D01*
X175950901Y-90034928D01*
X175938301Y-90035544D01*
X175938299Y-90035510D01*
X175918466Y-90037001D01*
X175465124Y-90037001D01*
X175403920Y-90043649D01*
X175269676Y-90093974D01*
X175214814Y-90135091D01*
X175175281Y-90164720D01*
X175154954Y-90179954D01*
X175144313Y-90194152D01*
X175136280Y-90204870D01*
X175068974Y-90294676D01*
X175018649Y-90428920D01*
X175012000Y-90490123D01*
X175012000Y-93070373D01*
X174993046Y-93165661D01*
X174954483Y-93229544D01*
X174953483Y-93230747D01*
X174877995Y-93291908D01*
X174784848Y-93319526D01*
X174688222Y-93309395D01*
X174602829Y-93263059D01*
X174541668Y-93187571D01*
X174514050Y-93094424D01*
X174513000Y-93071576D01*
X174513000Y-90986700D01*
X174512999Y-90986695D01*
X174512999Y-90490124D01*
X174506351Y-90428920D01*
X174456026Y-90294676D01*
X174388720Y-90204870D01*
X174380687Y-90194152D01*
X174370046Y-90179954D01*
X174349720Y-90164720D01*
X174310186Y-90135091D01*
X174255324Y-90093974D01*
X174165879Y-90060443D01*
X174135696Y-90049128D01*
X174135695Y-90049128D01*
X174121080Y-90043649D01*
X174059877Y-90037000D01*
X173545451Y-90037000D01*
X173532422Y-90036659D01*
X173475973Y-90033701D01*
X173475971Y-90033701D01*
X173463374Y-90033041D01*
X173450901Y-90034928D01*
X173438301Y-90035544D01*
X173438299Y-90035510D01*
X173418466Y-90037001D01*
X172965124Y-90037001D01*
X172903920Y-90043649D01*
X172769676Y-90093974D01*
X172714814Y-90135091D01*
X172675281Y-90164720D01*
X172654954Y-90179954D01*
X172644313Y-90194152D01*
X172636280Y-90204870D01*
X172568974Y-90294676D01*
X172518649Y-90428920D01*
X172512000Y-90490123D01*
X172512000Y-92511712D01*
X172502629Y-92558824D01*
X172020180Y-92558824D01*
X172015964Y-92542924D01*
X172014962Y-92534992D01*
X172013000Y-92503796D01*
X172013000Y-90986700D01*
X172012999Y-90986695D01*
X172012999Y-90490124D01*
X172006351Y-90428920D01*
X171956026Y-90294676D01*
X171888720Y-90204870D01*
X171880687Y-90194152D01*
X171870046Y-90179954D01*
X171849720Y-90164720D01*
X171810186Y-90135091D01*
X171755324Y-90093974D01*
X171665879Y-90060443D01*
X171635696Y-90049128D01*
X171635695Y-90049128D01*
X171621080Y-90043649D01*
X171559877Y-90037000D01*
X171045451Y-90037000D01*
X171032422Y-90036659D01*
X170975973Y-90033701D01*
X170975971Y-90033701D01*
X170963374Y-90033041D01*
X170950901Y-90034928D01*
X170938301Y-90035544D01*
X170938299Y-90035510D01*
X170918466Y-90037001D01*
X170465124Y-90037001D01*
X170403920Y-90043649D01*
X170353394Y-90062590D01*
X170349905Y-90063898D01*
X170254027Y-90079599D01*
X170175095Y-90063898D01*
X170135696Y-90049128D01*
X170135695Y-90049128D01*
X170121080Y-90043649D01*
X170059877Y-90037000D01*
X169530415Y-90037000D01*
X169523464Y-90036903D01*
X169451457Y-90034892D01*
X169451456Y-90034892D01*
X169438847Y-90034540D01*
X169427853Y-90036479D01*
X169413614Y-90037001D01*
X168965124Y-90037001D01*
X168903920Y-90043649D01*
X168769676Y-90093974D01*
X168714814Y-90135091D01*
X168675281Y-90164720D01*
X168654954Y-90179954D01*
X168644313Y-90194152D01*
X168636280Y-90204870D01*
X168568974Y-90294676D01*
X168518649Y-90428920D01*
X168512000Y-90490123D01*
X168512000Y-90519939D01*
X168493046Y-90615227D01*
X168439070Y-90696009D01*
X168438069Y-90697010D01*
X168357287Y-90750986D01*
X168261999Y-90769940D01*
X168166711Y-90750986D01*
X168085929Y-90697010D01*
X168031953Y-90616228D01*
X168012999Y-90520940D01*
X168012999Y-90490124D01*
X168006351Y-90428920D01*
X167956026Y-90294676D01*
X167888720Y-90204870D01*
X167880687Y-90194152D01*
X167870046Y-90179954D01*
X167849720Y-90164720D01*
X167810186Y-90135091D01*
X167755324Y-90093974D01*
X167665879Y-90060443D01*
X167635696Y-90049128D01*
X167635695Y-90049128D01*
X167621080Y-90043649D01*
X167559877Y-90037000D01*
X167045451Y-90037000D01*
X167032422Y-90036659D01*
X166975973Y-90033701D01*
X166975971Y-90033701D01*
X166963374Y-90033041D01*
X166950901Y-90034928D01*
X166938301Y-90035544D01*
X166938299Y-90035510D01*
X166918466Y-90037001D01*
X166465124Y-90037001D01*
X166403920Y-90043649D01*
X166353394Y-90062590D01*
X166349905Y-90063898D01*
X166254027Y-90079599D01*
X166175095Y-90063898D01*
X166135696Y-90049128D01*
X166135695Y-90049128D01*
X166121080Y-90043649D01*
X166059877Y-90037000D01*
X166030061Y-90037000D01*
X165934773Y-90018046D01*
X165853991Y-89964070D01*
X162862600Y-86972680D01*
X162857753Y-86967695D01*
X162808284Y-86915383D01*
X162799619Y-86906220D01*
X162762784Y-86880428D01*
X162753894Y-86874203D01*
X162739341Y-86863196D01*
X162705872Y-86835899D01*
X162705870Y-86835897D01*
X162696097Y-86827927D01*
X162684919Y-86822084D01*
X162684917Y-86822082D01*
X162677644Y-86818280D01*
X162650184Y-86801585D01*
X162645594Y-86798371D01*
X162633121Y-86789637D01*
X162606488Y-86778112D01*
X162581907Y-86767475D01*
X162565446Y-86759624D01*
X162553972Y-86753626D01*
X162478311Y-86692685D01*
X162431729Y-86607425D01*
X162421320Y-86510830D01*
X162448668Y-86417603D01*
X162509611Y-86341939D01*
X162573032Y-86305101D01*
X162572653Y-86304307D01*
X162609074Y-86286935D01*
X162633518Y-86275276D01*
X162690746Y-86259170D01*
X162690153Y-86256423D01*
X162703472Y-86253547D01*
X162717019Y-86252141D01*
X162883029Y-86196756D01*
X162895326Y-86189146D01*
X162895329Y-86189145D01*
X163010047Y-86118155D01*
X163031845Y-86104666D01*
X163136832Y-85999496D01*
X163145263Y-85991050D01*
X163145264Y-85991049D01*
X163155484Y-85980811D01*
X163164208Y-85966659D01*
X163239720Y-85844154D01*
X163239720Y-85844153D01*
X163243821Y-85837500D01*
X168007315Y-85837500D01*
X168026003Y-86015303D01*
X168081250Y-86185335D01*
X168170641Y-86340165D01*
X168179371Y-86349861D01*
X168179375Y-86349866D01*
X168281544Y-86463335D01*
X168290270Y-86473026D01*
X168300816Y-86480688D01*
X168300818Y-86480690D01*
X168379194Y-86537634D01*
X168434907Y-86578112D01*
X168446830Y-86583420D01*
X168446831Y-86583421D01*
X168499205Y-86606739D01*
X168598233Y-86650829D01*
X168773109Y-86688000D01*
X168851037Y-86688000D01*
X168946325Y-86706954D01*
X169027107Y-86760930D01*
X169081083Y-86841712D01*
X169098673Y-86910974D01*
X169100661Y-86929888D01*
X169155908Y-87099920D01*
X169245299Y-87254750D01*
X169254029Y-87264446D01*
X169254033Y-87264451D01*
X169342244Y-87362418D01*
X169364928Y-87387611D01*
X169375474Y-87395273D01*
X169375476Y-87395275D01*
X169490713Y-87479000D01*
X169509565Y-87492697D01*
X169521488Y-87498005D01*
X169521489Y-87498006D01*
X169534786Y-87503926D01*
X169672891Y-87565414D01*
X169847767Y-87602585D01*
X170026549Y-87602585D01*
X170201425Y-87565414D01*
X170339530Y-87503926D01*
X170352827Y-87498006D01*
X170352828Y-87498005D01*
X170364751Y-87492697D01*
X170383603Y-87479000D01*
X170498840Y-87395275D01*
X170498842Y-87395273D01*
X170509388Y-87387611D01*
X170532072Y-87362418D01*
X170620283Y-87264451D01*
X170620287Y-87264446D01*
X170629017Y-87254750D01*
X170718408Y-87099920D01*
X170751597Y-86997775D01*
X170799069Y-86913008D01*
X170875366Y-86852860D01*
X170968873Y-86826488D01*
X171065355Y-86837907D01*
X171081773Y-86844209D01*
X171085811Y-86845521D01*
X171097733Y-86850829D01*
X171272609Y-86888000D01*
X171451391Y-86888000D01*
X171453722Y-86887505D01*
X171544782Y-86895873D01*
X171630762Y-86941111D01*
X171692886Y-87015809D01*
X171721694Y-87108591D01*
X171725503Y-87144833D01*
X171780750Y-87314865D01*
X171870141Y-87469695D01*
X171878871Y-87479391D01*
X171878875Y-87479396D01*
X171956327Y-87565414D01*
X171989770Y-87602556D01*
X172000316Y-87610218D01*
X172000318Y-87610220D01*
X172087745Y-87673740D01*
X172134407Y-87707642D01*
X172297733Y-87780359D01*
X172472609Y-87817530D01*
X172651391Y-87817530D01*
X172826267Y-87780359D01*
X172989593Y-87707642D01*
X173036255Y-87673740D01*
X173123682Y-87610220D01*
X173123684Y-87610218D01*
X173134230Y-87602556D01*
X173167673Y-87565414D01*
X173245125Y-87479396D01*
X173245129Y-87479391D01*
X173253859Y-87469695D01*
X173343250Y-87314865D01*
X173398497Y-87144833D01*
X173402056Y-87110972D01*
X173430867Y-87018187D01*
X173492992Y-86943490D01*
X173578973Y-86898254D01*
X173649692Y-86888000D01*
X173721361Y-86888000D01*
X173896237Y-86850829D01*
X173896679Y-86850632D01*
X173986480Y-86840005D01*
X174079987Y-86866378D01*
X174156283Y-86926528D01*
X174203752Y-87011292D01*
X174225944Y-87079590D01*
X174250220Y-87154305D01*
X174339611Y-87309135D01*
X174348341Y-87318831D01*
X174348345Y-87318836D01*
X174450154Y-87431905D01*
X174459240Y-87441996D01*
X174469786Y-87449658D01*
X174469788Y-87449660D01*
X174544478Y-87503926D01*
X174603877Y-87547082D01*
X174615800Y-87552390D01*
X174615801Y-87552391D01*
X174651145Y-87568127D01*
X174767203Y-87619799D01*
X174942079Y-87656970D01*
X175120861Y-87656970D01*
X175295737Y-87619799D01*
X175411795Y-87568127D01*
X175447139Y-87552391D01*
X175447140Y-87552390D01*
X175459063Y-87547082D01*
X175518462Y-87503926D01*
X175593152Y-87449660D01*
X175593154Y-87449658D01*
X175603700Y-87441996D01*
X175612786Y-87431905D01*
X175714595Y-87318836D01*
X175714599Y-87318831D01*
X175723329Y-87309135D01*
X175812720Y-87154305D01*
X175836997Y-87079590D01*
X175856996Y-87018038D01*
X175904468Y-86933271D01*
X175980765Y-86873122D01*
X176074272Y-86846751D01*
X176114910Y-86847283D01*
X176123451Y-86849098D01*
X176302233Y-86849098D01*
X176477109Y-86811927D01*
X176489029Y-86806620D01*
X176489035Y-86806618D01*
X176511367Y-86796675D01*
X176606126Y-86775233D01*
X176701878Y-86791687D01*
X176784044Y-86843531D01*
X176840116Y-86922872D01*
X176855359Y-86968560D01*
X176855743Y-86970234D01*
X176868397Y-87025487D01*
X176872745Y-87035680D01*
X176872745Y-87035681D01*
X176889649Y-87075312D01*
X176955976Y-87230813D01*
X176962064Y-87240081D01*
X176962065Y-87240083D01*
X176999997Y-87297828D01*
X177078531Y-87417384D01*
X177116284Y-87459758D01*
X177539070Y-87882544D01*
X177593046Y-87963326D01*
X177612000Y-88058614D01*
X177612000Y-89809378D01*
X177600475Y-89884255D01*
X177597347Y-89894176D01*
X177594273Y-89903927D01*
X177592833Y-89914042D01*
X177592833Y-89914044D01*
X177561374Y-90135091D01*
X177559507Y-90148206D01*
X177559739Y-90158425D01*
X177562091Y-90262078D01*
X177546311Y-90355130D01*
X177518649Y-90428920D01*
X177512000Y-90490123D01*
X177512001Y-91584876D01*
X177518649Y-91646080D01*
X177568974Y-91780324D01*
X177654954Y-91895046D01*
X177769676Y-91981026D01*
X177786287Y-91987253D01*
X177889304Y-92025872D01*
X177889305Y-92025872D01*
X177903920Y-92031351D01*
X177965123Y-92038000D01*
X178012667Y-92038000D01*
X178637832Y-92037999D01*
X178733119Y-92056953D01*
X178813901Y-92110929D01*
X179209070Y-92506098D01*
X179263046Y-92586880D01*
X179282000Y-92682168D01*
X179282000Y-96348059D01*
X179280948Y-96362853D01*
X179281553Y-96362889D01*
X179280947Y-96373087D01*
X179279507Y-96383206D01*
X179279739Y-96393424D01*
X179281936Y-96490240D01*
X179282000Y-96495889D01*
X179282000Y-96535054D01*
X179282711Y-96543703D01*
X179283483Y-96558432D01*
X179285105Y-96629882D01*
X179287002Y-96639920D01*
X179287002Y-96639923D01*
X179290987Y-96661015D01*
X179294478Y-96686838D01*
X179296236Y-96708215D01*
X179296237Y-96708223D01*
X179297075Y-96718411D01*
X179299566Y-96728327D01*
X179314480Y-96787704D01*
X179317651Y-96802125D01*
X179330917Y-96872333D01*
X179334432Y-96881938D01*
X179341804Y-96902085D01*
X179349465Y-96926989D01*
X179354308Y-96946269D01*
X179357184Y-96957717D01*
X179385673Y-97023237D01*
X179391158Y-97036950D01*
X179415711Y-97104045D01*
X179420739Y-97112933D01*
X179420741Y-97112936D01*
X179431316Y-97131627D01*
X179442940Y-97154941D01*
X179455572Y-97183993D01*
X179461123Y-97192573D01*
X179494381Y-97243983D01*
X179502033Y-97256619D01*
X179537212Y-97318797D01*
X179543626Y-97326746D01*
X179543632Y-97326755D01*
X179557111Y-97343460D01*
X179572388Y-97364564D01*
X179589595Y-97391161D01*
X179596473Y-97398719D01*
X179602707Y-97406815D01*
X179601445Y-97407787D01*
X179645243Y-97480603D01*
X179704660Y-97646095D01*
X179709032Y-97654232D01*
X179709034Y-97654236D01*
X179773358Y-97773947D01*
X179824292Y-97868740D01*
X179975518Y-98071256D01*
X180155017Y-98249196D01*
X180162469Y-98254660D01*
X180259929Y-98326120D01*
X180358846Y-98398649D01*
X180367010Y-98402945D01*
X180367016Y-98402948D01*
X180475892Y-98460230D01*
X180582526Y-98516333D01*
X180821144Y-98599662D01*
X181069458Y-98646806D01*
X181078680Y-98647168D01*
X181078686Y-98647169D01*
X181195736Y-98651768D01*
X181322013Y-98656729D01*
X181331188Y-98655724D01*
X181331193Y-98655724D01*
X181564077Y-98630219D01*
X181564081Y-98630218D01*
X181573260Y-98629213D01*
X181817681Y-98564863D01*
X182049905Y-98465091D01*
X182057757Y-98460232D01*
X182057761Y-98460230D01*
X182256972Y-98336954D01*
X182264831Y-98332091D01*
X182457738Y-98168783D01*
X182543268Y-98071256D01*
X182618302Y-97985696D01*
X182618303Y-97985694D01*
X182624388Y-97978756D01*
X182761119Y-97766184D01*
X182864928Y-97535736D01*
X182905702Y-97391161D01*
X182931024Y-97301377D01*
X182931025Y-97301373D01*
X182933534Y-97292476D01*
X182965431Y-97041747D01*
X182967768Y-96952500D01*
X182956054Y-96794871D01*
X182949722Y-96709662D01*
X182949722Y-96709661D01*
X182949037Y-96700445D01*
X182893256Y-96453928D01*
X182889907Y-96445316D01*
X182887206Y-96436481D01*
X182889548Y-96435765D01*
X182875459Y-96355875D01*
X182896485Y-96261023D01*
X182952208Y-96181436D01*
X183034146Y-96129233D01*
X183134176Y-96112492D01*
X183242013Y-96116729D01*
X183251188Y-96115724D01*
X183251193Y-96115724D01*
X183484077Y-96090219D01*
X183484081Y-96090218D01*
X183493260Y-96089213D01*
X183737681Y-96024863D01*
X183969905Y-95925091D01*
X183977757Y-95920232D01*
X183977761Y-95920230D01*
X184176972Y-95796954D01*
X184184831Y-95792091D01*
X184377738Y-95628783D01*
X184403314Y-95599620D01*
X184538302Y-95445696D01*
X184538303Y-95445694D01*
X184544388Y-95438756D01*
X184681119Y-95226184D01*
X184686489Y-95214265D01*
X184781135Y-95004156D01*
X184784928Y-94995736D01*
X184853534Y-94752476D01*
X184885431Y-94501747D01*
X184887768Y-94412500D01*
X184869037Y-94160445D01*
X184813256Y-93913928D01*
X184745554Y-93739832D01*
X184725002Y-93686982D01*
X184725001Y-93686979D01*
X184721650Y-93678363D01*
X184596231Y-93458926D01*
X184590519Y-93451680D01*
X184590514Y-93451673D01*
X184445471Y-93267688D01*
X184445467Y-93267684D01*
X184439755Y-93260438D01*
X184255660Y-93087258D01*
X184231321Y-93070373D01*
X184120071Y-92993196D01*
X184052581Y-92923309D01*
X184016974Y-92832914D01*
X184013000Y-92788606D01*
X184013000Y-91172757D01*
X184019445Y-91140355D01*
X184018473Y-91135086D01*
X184505720Y-91135086D01*
X184509789Y-91152234D01*
X184509540Y-91161153D01*
X184511479Y-91172147D01*
X184512001Y-91186385D01*
X184512001Y-91584876D01*
X184518649Y-91646080D01*
X184568974Y-91780324D01*
X184654954Y-91895046D01*
X184769676Y-91981026D01*
X184786287Y-91987253D01*
X184889304Y-92025872D01*
X184889305Y-92025872D01*
X184903920Y-92031351D01*
X184919439Y-92033037D01*
X184965123Y-92038000D01*
X184964994Y-92039188D01*
X185051383Y-92061293D01*
X185119853Y-92109774D01*
X187189070Y-94178991D01*
X187243046Y-94259773D01*
X187262000Y-94355061D01*
X187262000Y-95454546D01*
X187243046Y-95549834D01*
X187189070Y-95630616D01*
X187178805Y-95640314D01*
X187035833Y-95767921D01*
X186874215Y-95962246D01*
X186858556Y-95988052D01*
X186747884Y-96170432D01*
X186747881Y-96170438D01*
X186743095Y-96178325D01*
X186739526Y-96186836D01*
X186739524Y-96186840D01*
X186648930Y-96402883D01*
X186645354Y-96411411D01*
X186583139Y-96656383D01*
X186570921Y-96777722D01*
X186558743Y-96898660D01*
X186557816Y-96907861D01*
X186560211Y-96957717D01*
X186568565Y-97131627D01*
X186569943Y-97160320D01*
X186619252Y-97408213D01*
X186704660Y-97646095D01*
X186709032Y-97654232D01*
X186709034Y-97654236D01*
X186773358Y-97773947D01*
X186824292Y-97868740D01*
X186975518Y-98071256D01*
X187155017Y-98249196D01*
X187162469Y-98254660D01*
X187259929Y-98326120D01*
X187358846Y-98398649D01*
X187367010Y-98402945D01*
X187367016Y-98402948D01*
X187475892Y-98460230D01*
X187582526Y-98516333D01*
X187821144Y-98599662D01*
X188069458Y-98646806D01*
X188078680Y-98647168D01*
X188078686Y-98647169D01*
X188195736Y-98651768D01*
X188322013Y-98656729D01*
X188331188Y-98655724D01*
X188331193Y-98655724D01*
X188564077Y-98630219D01*
X188564081Y-98630218D01*
X188573260Y-98629213D01*
X188817681Y-98564863D01*
X189049905Y-98465091D01*
X189057757Y-98460232D01*
X189057761Y-98460230D01*
X189256972Y-98336954D01*
X189264831Y-98332091D01*
X189457738Y-98168783D01*
X189543268Y-98071256D01*
X189618302Y-97985696D01*
X189618303Y-97985694D01*
X189624388Y-97978756D01*
X189761119Y-97766184D01*
X189864928Y-97535736D01*
X189905702Y-97391161D01*
X189931024Y-97301377D01*
X189931025Y-97301373D01*
X189933534Y-97292476D01*
X189965431Y-97041747D01*
X189967768Y-96952500D01*
X189956054Y-96794871D01*
X189949722Y-96709662D01*
X189949722Y-96709661D01*
X189949037Y-96700445D01*
X189893256Y-96453928D01*
X189889907Y-96445316D01*
X189887206Y-96436481D01*
X189889548Y-96435765D01*
X189875459Y-96355875D01*
X189896485Y-96261023D01*
X189952208Y-96181436D01*
X190034146Y-96129233D01*
X190134176Y-96112492D01*
X190242013Y-96116729D01*
X190251188Y-96115724D01*
X190251193Y-96115724D01*
X190484077Y-96090219D01*
X190484081Y-96090218D01*
X190493260Y-96089213D01*
X190737681Y-96024863D01*
X190969905Y-95925091D01*
X190977757Y-95920232D01*
X190977761Y-95920230D01*
X191176972Y-95796954D01*
X191184831Y-95792091D01*
X191377738Y-95628783D01*
X191403314Y-95599620D01*
X191538302Y-95445696D01*
X191538303Y-95445694D01*
X191544388Y-95438756D01*
X191681119Y-95226184D01*
X191686489Y-95214265D01*
X191781135Y-95004156D01*
X191784928Y-94995736D01*
X191853534Y-94752476D01*
X191885431Y-94501747D01*
X191887768Y-94412500D01*
X191869037Y-94160445D01*
X191813256Y-93913928D01*
X191745554Y-93739832D01*
X191725002Y-93686982D01*
X191725001Y-93686979D01*
X191721650Y-93678363D01*
X191596231Y-93458926D01*
X191590519Y-93451680D01*
X191590514Y-93451673D01*
X191445471Y-93267688D01*
X191445467Y-93267684D01*
X191439755Y-93260438D01*
X191255660Y-93087258D01*
X191231321Y-93070373D01*
X191120071Y-92993196D01*
X191052581Y-92923309D01*
X191016974Y-92832914D01*
X191013000Y-92788606D01*
X191013000Y-91172757D01*
X191019445Y-91140355D01*
X191013000Y-91105410D01*
X191013000Y-90986700D01*
X191012999Y-90986695D01*
X191012999Y-90490124D01*
X191006351Y-90428920D01*
X190956026Y-90294676D01*
X190945387Y-90280480D01*
X190945385Y-90280477D01*
X190939313Y-90272375D01*
X190897333Y-90184758D01*
X190892079Y-90087745D01*
X190924350Y-89996106D01*
X190943155Y-89968719D01*
X190945263Y-89966050D01*
X190955484Y-89955811D01*
X190981229Y-89914044D01*
X191039720Y-89819154D01*
X191039720Y-89819153D01*
X191047314Y-89806834D01*
X191085167Y-89692713D01*
X191098129Y-89653636D01*
X191098130Y-89653632D01*
X191102410Y-89640728D01*
X191106804Y-89597840D01*
X191112353Y-89543685D01*
X191112353Y-89543677D01*
X191113000Y-89537366D01*
X191113000Y-88537634D01*
X191102141Y-88432981D01*
X191096041Y-88414695D01*
X191051333Y-88280690D01*
X191046756Y-88266971D01*
X191012523Y-88211650D01*
X190985867Y-88168575D01*
X190951843Y-88077572D01*
X190955234Y-87980477D01*
X190985638Y-87906892D01*
X191031851Y-87831920D01*
X191047314Y-87806834D01*
X191083772Y-87696919D01*
X191098129Y-87653636D01*
X191098130Y-87653632D01*
X191102410Y-87640728D01*
X191107314Y-87592865D01*
X191112353Y-87543685D01*
X191112353Y-87543677D01*
X191113000Y-87537366D01*
X191113000Y-86537634D01*
X191111789Y-86525957D01*
X191103547Y-86446529D01*
X191103547Y-86446527D01*
X191102141Y-86432981D01*
X191096244Y-86415303D01*
X191051333Y-86280690D01*
X191046756Y-86266971D01*
X191036550Y-86250477D01*
X190976848Y-86154001D01*
X190954666Y-86118155D01*
X190830811Y-85994516D01*
X190818497Y-85986926D01*
X190818495Y-85986924D01*
X190694154Y-85910280D01*
X190694152Y-85910279D01*
X190681834Y-85902686D01*
X190569293Y-85865357D01*
X190528636Y-85851871D01*
X190528632Y-85851870D01*
X190515728Y-85847590D01*
X190498866Y-85845862D01*
X190418685Y-85837647D01*
X190418677Y-85837647D01*
X190412366Y-85837000D01*
X189662634Y-85837000D01*
X189656238Y-85837664D01*
X189656231Y-85837664D01*
X189571529Y-85846453D01*
X189571527Y-85846453D01*
X189557981Y-85847859D01*
X189545068Y-85852167D01*
X189545064Y-85852168D01*
X189432672Y-85889665D01*
X189391971Y-85903244D01*
X189379674Y-85910854D01*
X189379671Y-85910855D01*
X189293575Y-85964133D01*
X189202572Y-85998157D01*
X189105477Y-85994766D01*
X189031892Y-85964362D01*
X188980635Y-85932767D01*
X188931834Y-85902686D01*
X188819293Y-85865357D01*
X188778636Y-85851871D01*
X188778632Y-85851870D01*
X188765728Y-85847590D01*
X188748866Y-85845862D01*
X188668685Y-85837647D01*
X188668677Y-85837647D01*
X188662366Y-85837000D01*
X187862634Y-85837000D01*
X187856238Y-85837664D01*
X187856231Y-85837664D01*
X187771529Y-85846453D01*
X187771527Y-85846453D01*
X187757981Y-85847859D01*
X187745068Y-85852167D01*
X187745064Y-85852168D01*
X187632672Y-85889665D01*
X187591971Y-85903244D01*
X187579674Y-85910854D01*
X187579671Y-85910855D01*
X187511723Y-85952903D01*
X187443155Y-85995334D01*
X187432937Y-86005570D01*
X187421598Y-86014557D01*
X187419896Y-86012410D01*
X187357892Y-86053919D01*
X187262621Y-86072957D01*
X187167316Y-86054087D01*
X187103907Y-86011799D01*
X187102403Y-86013703D01*
X187091049Y-86004736D01*
X187080811Y-85994516D01*
X187068497Y-85986926D01*
X187068495Y-85986924D01*
X186944154Y-85910280D01*
X186944152Y-85910279D01*
X186931834Y-85902686D01*
X186819293Y-85865357D01*
X186778636Y-85851871D01*
X186778632Y-85851870D01*
X186765728Y-85847590D01*
X186748361Y-85845811D01*
X186734720Y-85844413D01*
X186641860Y-85815845D01*
X186567001Y-85753916D01*
X186560489Y-85745452D01*
X186554359Y-85734835D01*
X186434730Y-85601974D01*
X186390439Y-85569794D01*
X186300650Y-85504558D01*
X186300649Y-85504557D01*
X186290093Y-85496888D01*
X186278167Y-85491578D01*
X186138689Y-85429479D01*
X186126767Y-85424171D01*
X185951891Y-85387000D01*
X185773109Y-85387000D01*
X185598233Y-85424171D01*
X185434908Y-85496888D01*
X185424351Y-85504558D01*
X185424346Y-85504561D01*
X185362198Y-85549715D01*
X185290270Y-85601974D01*
X185281538Y-85611672D01*
X185179375Y-85725134D01*
X185179371Y-85725139D01*
X185170641Y-85734835D01*
X185081250Y-85889665D01*
X185026003Y-86059697D01*
X185007315Y-86237500D01*
X185026003Y-86415303D01*
X185081250Y-86585335D01*
X185087777Y-86596640D01*
X185128640Y-86667417D01*
X185159870Y-86759416D01*
X185162000Y-86791917D01*
X185162000Y-87537366D01*
X185162664Y-87543762D01*
X185162664Y-87543769D01*
X185170553Y-87619799D01*
X185172859Y-87642019D01*
X185177167Y-87654932D01*
X185177168Y-87654936D01*
X185209052Y-87750503D01*
X185228244Y-87808029D01*
X185235854Y-87820326D01*
X185235855Y-87820329D01*
X185289133Y-87906425D01*
X185323157Y-87997428D01*
X185319766Y-88094523D01*
X185289362Y-88168108D01*
X185227686Y-88268166D01*
X185200709Y-88349499D01*
X185177303Y-88420064D01*
X185172590Y-88434272D01*
X185162000Y-88537634D01*
X185162000Y-88619940D01*
X185143046Y-88715228D01*
X185089070Y-88796010D01*
X184817680Y-89067400D01*
X184812695Y-89072247D01*
X184751220Y-89130381D01*
X184743987Y-89140711D01*
X184719203Y-89176106D01*
X184708196Y-89190659D01*
X184689522Y-89213556D01*
X184672927Y-89233903D01*
X184667084Y-89245081D01*
X184667082Y-89245083D01*
X184663280Y-89252356D01*
X184646586Y-89279815D01*
X184634637Y-89296879D01*
X184629629Y-89308452D01*
X184612475Y-89348093D01*
X184604617Y-89364567D01*
X184578758Y-89414030D01*
X184573014Y-89434063D01*
X184562183Y-89464310D01*
X184553914Y-89483419D01*
X184544006Y-89530848D01*
X184542502Y-89538046D01*
X184538119Y-89555756D01*
X184529354Y-89586326D01*
X184522734Y-89609413D01*
X184521136Y-89630184D01*
X184516609Y-89661988D01*
X184512349Y-89682380D01*
X184512000Y-89689039D01*
X184512000Y-89739347D01*
X184511266Y-89758450D01*
X184507140Y-89812071D01*
X184510038Y-89835009D01*
X184512000Y-89866204D01*
X184512000Y-91069614D01*
X184511903Y-91076567D01*
X184510903Y-91112363D01*
X184505720Y-91135086D01*
X184018473Y-91135086D01*
X184013000Y-91105410D01*
X184013000Y-90986700D01*
X184012999Y-90986695D01*
X184012999Y-90490124D01*
X184006351Y-90428920D01*
X183956026Y-90294676D01*
X183888720Y-90204870D01*
X183880687Y-90194152D01*
X183870046Y-90179954D01*
X183849720Y-90164720D01*
X183810186Y-90135091D01*
X183755324Y-90093974D01*
X183665879Y-90060443D01*
X183635696Y-90049128D01*
X183635695Y-90049128D01*
X183621080Y-90043649D01*
X183559877Y-90037000D01*
X183045451Y-90037000D01*
X183032422Y-90036659D01*
X182975973Y-90033701D01*
X182975971Y-90033701D01*
X182963374Y-90033041D01*
X182950901Y-90034928D01*
X182938301Y-90035544D01*
X182938299Y-90035510D01*
X182918466Y-90037001D01*
X182465124Y-90037001D01*
X182403920Y-90043649D01*
X182269676Y-90093974D01*
X182214814Y-90135091D01*
X182175281Y-90164720D01*
X182154954Y-90179954D01*
X182144313Y-90194152D01*
X182136280Y-90204870D01*
X182068974Y-90294676D01*
X182018649Y-90428920D01*
X182012000Y-90490123D01*
X182010108Y-90489917D01*
X181988895Y-90572799D01*
X181930620Y-90650536D01*
X181847032Y-90700055D01*
X181750856Y-90713817D01*
X181656735Y-90689727D01*
X181588281Y-90641253D01*
X180185930Y-89238903D01*
X180131954Y-89158121D01*
X180113000Y-89062833D01*
X180113000Y-87536427D01*
X180115130Y-87503926D01*
X180115505Y-87501076D01*
X180116953Y-87490078D01*
X180115459Y-87458388D01*
X180113276Y-87412113D01*
X180113000Y-87400383D01*
X180113000Y-87380870D01*
X180112154Y-87371383D01*
X180110923Y-87357591D01*
X180110217Y-87347249D01*
X180106437Y-87267102D01*
X180103960Y-87256288D01*
X180103205Y-87250775D01*
X180100185Y-87231702D01*
X180099197Y-87226212D01*
X180098211Y-87215161D01*
X180088169Y-87178452D01*
X180077048Y-87137800D01*
X180074508Y-87127686D01*
X180059080Y-87060327D01*
X180059079Y-87060324D01*
X180056603Y-87049513D01*
X180052252Y-87039313D01*
X180050531Y-87034016D01*
X180044178Y-87015771D01*
X180042233Y-87010540D01*
X180039308Y-86999849D01*
X180004780Y-86927461D01*
X180000489Y-86917956D01*
X179973376Y-86854389D01*
X179973373Y-86854384D01*
X179969024Y-86844187D01*
X179962938Y-86834922D01*
X179960309Y-86830019D01*
X179950822Y-86813182D01*
X179947982Y-86808379D01*
X179943208Y-86798371D01*
X179896380Y-86733203D01*
X179890514Y-86724667D01*
X179851485Y-86665250D01*
X179851482Y-86665246D01*
X179846470Y-86657616D01*
X179832384Y-86641806D01*
X179824745Y-86632271D01*
X179819422Y-86626104D01*
X179812948Y-86617095D01*
X179806201Y-86610556D01*
X179758666Y-86526711D01*
X179746742Y-86430291D01*
X179772623Y-86336647D01*
X179832370Y-86260035D01*
X179886341Y-86226766D01*
X179886148Y-86226431D01*
X179888019Y-86225351D01*
X179889394Y-86224884D01*
X179899779Y-86218483D01*
X179915335Y-86212039D01*
X179916803Y-86215583D01*
X179980021Y-86194129D01*
X180076967Y-86200492D01*
X180108953Y-86213741D01*
X180109659Y-86212036D01*
X180255738Y-86272544D01*
X180271915Y-86274674D01*
X180271916Y-86274674D01*
X180297153Y-86277996D01*
X180373139Y-86288000D01*
X180512465Y-86288000D01*
X180651860Y-86287999D01*
X180659940Y-86286935D01*
X180659945Y-86286935D01*
X180714741Y-86279721D01*
X180769262Y-86272544D01*
X180879780Y-86226766D01*
X180900260Y-86218283D01*
X180900261Y-86218282D01*
X180915341Y-86212036D01*
X180928289Y-86202101D01*
X180928292Y-86202099D01*
X181027828Y-86125722D01*
X181040782Y-86115782D01*
X181073643Y-86072957D01*
X181127099Y-86003292D01*
X181127101Y-86003289D01*
X181137036Y-85990341D01*
X181145992Y-85968721D01*
X181191299Y-85859338D01*
X181197544Y-85844262D01*
X181213000Y-85726861D01*
X181212999Y-85143463D01*
X181231953Y-85048176D01*
X181285929Y-84967395D01*
X181333880Y-84930601D01*
X181340593Y-84927612D01*
X181485230Y-84822526D01*
X181526135Y-84777097D01*
X181596125Y-84699366D01*
X181596129Y-84699361D01*
X181604859Y-84689665D01*
X181694250Y-84534835D01*
X181749497Y-84364803D01*
X181768185Y-84187000D01*
X181749497Y-84009197D01*
X181696360Y-83845658D01*
X181684941Y-83749179D01*
X181692132Y-83707327D01*
X181697544Y-83694262D01*
X181713000Y-83576861D01*
X181712999Y-83018661D01*
X181731953Y-82923374D01*
X181785929Y-82842593D01*
X181860720Y-82791190D01*
X181878167Y-82783422D01*
X181878169Y-82783421D01*
X181890093Y-82778112D01*
X182034730Y-82673026D01*
X182067262Y-82636896D01*
X182145625Y-82549866D01*
X182145629Y-82549861D01*
X182154359Y-82540165D01*
X182243750Y-82385335D01*
X182298997Y-82215303D01*
X182317685Y-82037500D01*
X182298997Y-81859697D01*
X182243750Y-81689665D01*
X182154359Y-81534835D01*
X182145629Y-81525139D01*
X182145625Y-81525134D01*
X182043456Y-81411665D01*
X182043455Y-81411664D01*
X182034730Y-81401974D01*
X182002576Y-81378612D01*
X181900650Y-81304558D01*
X181900649Y-81304557D01*
X181890093Y-81296888D01*
X181878167Y-81291578D01*
X181738689Y-81229479D01*
X181726767Y-81224171D01*
X181551891Y-81187000D01*
X181373109Y-81187000D01*
X181198233Y-81224171D01*
X181034908Y-81296888D01*
X181024351Y-81304558D01*
X181024346Y-81304561D01*
X180954398Y-81355382D01*
X180890270Y-81401974D01*
X180881538Y-81411672D01*
X180779375Y-81525134D01*
X180779371Y-81525139D01*
X180770641Y-81534835D01*
X180681250Y-81689665D01*
X180677217Y-81702078D01*
X180677216Y-81702080D01*
X180653909Y-81773811D01*
X180606437Y-81858579D01*
X180568685Y-81894404D01*
X180484218Y-81959218D01*
X180474278Y-81972172D01*
X180397901Y-82071708D01*
X180397899Y-82071711D01*
X180387964Y-82084659D01*
X180381718Y-82099739D01*
X180381717Y-82099740D01*
X180360860Y-82150095D01*
X180327456Y-82230738D01*
X180325326Y-82246915D01*
X180325326Y-82246916D01*
X180322526Y-82268186D01*
X180312000Y-82348139D01*
X180312001Y-82895962D01*
X180312001Y-83103041D01*
X180293047Y-83198329D01*
X180239071Y-83279110D01*
X180158289Y-83333087D01*
X180063001Y-83352041D01*
X180011232Y-83346600D01*
X179968884Y-83337599D01*
X179968883Y-83337599D01*
X179956120Y-83334886D01*
X179777338Y-83334886D01*
X179602462Y-83372057D01*
X179439137Y-83444774D01*
X179428580Y-83452444D01*
X179428575Y-83452447D01*
X179377350Y-83489665D01*
X179294499Y-83549860D01*
X179285767Y-83559558D01*
X179183604Y-83673020D01*
X179183600Y-83673025D01*
X179174870Y-83682721D01*
X179085479Y-83837551D01*
X179084039Y-83836720D01*
X179036888Y-83903429D01*
X178954719Y-83955268D01*
X178858967Y-83971716D01*
X178801046Y-83959410D01*
X178800104Y-83962926D01*
X178784344Y-83958703D01*
X178769262Y-83952456D01*
X178753078Y-83950325D01*
X178737316Y-83946102D01*
X178738295Y-83942447D01*
X178674849Y-83920914D01*
X178646724Y-83902016D01*
X178615358Y-83877686D01*
X178495419Y-83784652D01*
X178313045Y-83694913D01*
X178172068Y-83658191D01*
X178128557Y-83646857D01*
X178128555Y-83646857D01*
X178116352Y-83643678D01*
X178103761Y-83643018D01*
X178103760Y-83643018D01*
X177925974Y-83633701D01*
X177925971Y-83633701D01*
X177913374Y-83633041D01*
X177900897Y-83634928D01*
X177900896Y-83634928D01*
X177724878Y-83661548D01*
X177724875Y-83661549D01*
X177712403Y-83663435D01*
X177521648Y-83733619D01*
X177510933Y-83740263D01*
X177510928Y-83740265D01*
X177377718Y-83822859D01*
X177348901Y-83840726D01*
X177244641Y-83939320D01*
X177168846Y-83988448D01*
X177109659Y-84012964D01*
X177109657Y-84012965D01*
X177108189Y-84009420D01*
X177044979Y-84030871D01*
X176948033Y-84024508D01*
X176916047Y-84011259D01*
X176915341Y-84012964D01*
X176842196Y-83982666D01*
X176761416Y-83928691D01*
X176707439Y-83847910D01*
X176688485Y-83752622D01*
X176695527Y-83699131D01*
X176697544Y-83694262D01*
X176713000Y-83576861D01*
X176712999Y-82348140D01*
X176708624Y-82314902D01*
X176699674Y-82246920D01*
X176697544Y-82230738D01*
X176669482Y-82162990D01*
X176643283Y-82099740D01*
X176643282Y-82099739D01*
X176637036Y-82084659D01*
X176627101Y-82071711D01*
X176627099Y-82071708D01*
X176550722Y-81972172D01*
X176540782Y-81959218D01*
X176451405Y-81890637D01*
X176387348Y-81817593D01*
X176357976Y-81727197D01*
X176357581Y-81727281D01*
X176356782Y-81723522D01*
X176355352Y-81719121D01*
X176354868Y-81714519D01*
X176353504Y-81701539D01*
X176298257Y-81531507D01*
X176208866Y-81376677D01*
X176200136Y-81366981D01*
X176200132Y-81366976D01*
X176097963Y-81253507D01*
X176097962Y-81253506D01*
X176089237Y-81243816D01*
X176062199Y-81224171D01*
X175955157Y-81146400D01*
X175955156Y-81146399D01*
X175944600Y-81138730D01*
X175781274Y-81066013D01*
X175606398Y-81028842D01*
X175440752Y-81028842D01*
X175345464Y-81009888D01*
X175264682Y-80955912D01*
X175238523Y-80921071D01*
X175237068Y-80922128D01*
X175213697Y-80889960D01*
X175200819Y-80870356D01*
X175188551Y-80849612D01*
X175180581Y-80836135D01*
X175169507Y-80825061D01*
X175165153Y-80819448D01*
X175154567Y-80807052D01*
X175149675Y-80801843D01*
X175140463Y-80789163D01*
X175128391Y-80779176D01*
X175128388Y-80779173D01*
X175109837Y-80763827D01*
X175092485Y-80748039D01*
X174972428Y-80627982D01*
X174918452Y-80547200D01*
X174900862Y-80477941D01*
X174900361Y-80473176D01*
X174898997Y-80460197D01*
X174843750Y-80290165D01*
X174754359Y-80135335D01*
X174745629Y-80125639D01*
X174745625Y-80125634D01*
X174643456Y-80012165D01*
X174643455Y-80012164D01*
X174634730Y-80002474D01*
X174490093Y-79897388D01*
X174478167Y-79892078D01*
X174338689Y-79829979D01*
X174326767Y-79824671D01*
X174151891Y-79787500D01*
X173973109Y-79787500D01*
X173798233Y-79824671D01*
X173634908Y-79897388D01*
X173624351Y-79905058D01*
X173624346Y-79905061D01*
X173554398Y-79955882D01*
X173490270Y-80002474D01*
X173481538Y-80012172D01*
X173379375Y-80125634D01*
X173379371Y-80125639D01*
X173370641Y-80135335D01*
X173281250Y-80290165D01*
X173226003Y-80460197D01*
X173207315Y-80638000D01*
X173226003Y-80815803D01*
X173281250Y-80985835D01*
X173370641Y-81140665D01*
X173379371Y-81150361D01*
X173379375Y-81150366D01*
X173456618Y-81236152D01*
X173490270Y-81273526D01*
X173500816Y-81281188D01*
X173500818Y-81281190D01*
X173624350Y-81370942D01*
X173634907Y-81378612D01*
X173646831Y-81383921D01*
X173646833Y-81383922D01*
X173656848Y-81388381D01*
X173736188Y-81444454D01*
X173788031Y-81526621D01*
X173804484Y-81622372D01*
X173783041Y-81717132D01*
X173726968Y-81796472D01*
X173650859Y-81845898D01*
X173609660Y-81862964D01*
X173608192Y-81859419D01*
X173544979Y-81880871D01*
X173448033Y-81874508D01*
X173416047Y-81861259D01*
X173415341Y-81862964D01*
X173269262Y-81802456D01*
X173253085Y-81800326D01*
X173253084Y-81800326D01*
X173227847Y-81797004D01*
X173151861Y-81787000D01*
X173012535Y-81787000D01*
X172873140Y-81787001D01*
X172865060Y-81788065D01*
X172865055Y-81788065D01*
X172810259Y-81795279D01*
X172755738Y-81802456D01*
X172609659Y-81862964D01*
X172608191Y-81859419D01*
X172544979Y-81880871D01*
X172448033Y-81874508D01*
X172416047Y-81861259D01*
X172415341Y-81862964D01*
X172269262Y-81802456D01*
X172253085Y-81800326D01*
X172253084Y-81800326D01*
X172227847Y-81797004D01*
X172151861Y-81787000D01*
X172012535Y-81787000D01*
X171873140Y-81787001D01*
X171865060Y-81788065D01*
X171865055Y-81788065D01*
X171810259Y-81795279D01*
X171755738Y-81802456D01*
X171609659Y-81862964D01*
X171608191Y-81859419D01*
X171544979Y-81880871D01*
X171448033Y-81874508D01*
X171416047Y-81861259D01*
X171415341Y-81862964D01*
X171269262Y-81802456D01*
X171253085Y-81800326D01*
X171253084Y-81800326D01*
X171227847Y-81797004D01*
X171151861Y-81787000D01*
X171012535Y-81787000D01*
X170873140Y-81787001D01*
X170865060Y-81788065D01*
X170865055Y-81788065D01*
X170810259Y-81795279D01*
X170755738Y-81802456D01*
X170609659Y-81862964D01*
X170608191Y-81859419D01*
X170544979Y-81880871D01*
X170448033Y-81874508D01*
X170416047Y-81861259D01*
X170415341Y-81862964D01*
X170269262Y-81802456D01*
X170253085Y-81800326D01*
X170253084Y-81800326D01*
X170227847Y-81797004D01*
X170151861Y-81787000D01*
X170012535Y-81787000D01*
X169873140Y-81787001D01*
X169865060Y-81788065D01*
X169865055Y-81788065D01*
X169810259Y-81795279D01*
X169755738Y-81802456D01*
X169740659Y-81808702D01*
X169624740Y-81856717D01*
X169624739Y-81856718D01*
X169609659Y-81862964D01*
X169596711Y-81872899D01*
X169596708Y-81872901D01*
X169568014Y-81894919D01*
X169484218Y-81959218D01*
X169474278Y-81972172D01*
X169397901Y-82071708D01*
X169397899Y-82071711D01*
X169387964Y-82084659D01*
X169381718Y-82099739D01*
X169381717Y-82099740D01*
X169360860Y-82150095D01*
X169327456Y-82230738D01*
X169325326Y-82246915D01*
X169325326Y-82246916D01*
X169322526Y-82268186D01*
X169312000Y-82348139D01*
X169312000Y-82636896D01*
X169293046Y-82732184D01*
X169244513Y-82807348D01*
X169198007Y-82856872D01*
X169192564Y-82862490D01*
X169173589Y-82881465D01*
X169168791Y-82887650D01*
X169166567Y-82890173D01*
X169161305Y-82895956D01*
X169132052Y-82927107D01*
X169124506Y-82940834D01*
X169120320Y-82946595D01*
X169111368Y-82960223D01*
X169107741Y-82966357D01*
X169098138Y-82978736D01*
X169091917Y-82993113D01*
X169082353Y-83015214D01*
X169072032Y-83036281D01*
X169060420Y-83057404D01*
X169052873Y-83071132D01*
X169048979Y-83086300D01*
X169046354Y-83092929D01*
X169041076Y-83108347D01*
X169039084Y-83115202D01*
X169032865Y-83129574D01*
X169030415Y-83145039D01*
X169030414Y-83145044D01*
X169026646Y-83168837D01*
X169021889Y-83191806D01*
X169012000Y-83230323D01*
X169012000Y-83232333D01*
X168984028Y-83316173D01*
X168975366Y-83329587D01*
X168970641Y-83334835D01*
X168881250Y-83489665D01*
X168826003Y-83659697D01*
X168807315Y-83837500D01*
X168826003Y-84015303D01*
X168830036Y-84027715D01*
X168864796Y-84134695D01*
X168876215Y-84231177D01*
X168858030Y-84306926D01*
X168827456Y-84380738D01*
X168825326Y-84396915D01*
X168825326Y-84396916D01*
X168820914Y-84430427D01*
X168812000Y-84498139D01*
X168812000Y-84777097D01*
X168793046Y-84872385D01*
X168739070Y-84953167D01*
X168658288Y-85007143D01*
X168614769Y-85020656D01*
X168610999Y-85021457D01*
X168610994Y-85021458D01*
X168598233Y-85024171D01*
X168434908Y-85096888D01*
X168424351Y-85104558D01*
X168424346Y-85104561D01*
X168375026Y-85140395D01*
X168290270Y-85201974D01*
X168281538Y-85211672D01*
X168179375Y-85325134D01*
X168179371Y-85325139D01*
X168170641Y-85334835D01*
X168081250Y-85489665D01*
X168026003Y-85659697D01*
X168007315Y-85837500D01*
X163243821Y-85837500D01*
X163247314Y-85831834D01*
X163289102Y-85705850D01*
X163309150Y-85660875D01*
X163361102Y-85569794D01*
X163361104Y-85569790D01*
X163366595Y-85560163D01*
X163402665Y-85458304D01*
X163437407Y-85360196D01*
X163437408Y-85360194D01*
X163441108Y-85349744D01*
X163477182Y-85129454D01*
X163476671Y-85096888D01*
X163473850Y-84917346D01*
X163473676Y-84906259D01*
X163467631Y-84875445D01*
X163432834Y-84698089D01*
X163430700Y-84687212D01*
X163349614Y-84479237D01*
X163343822Y-84469786D01*
X163343817Y-84469775D01*
X163312471Y-84418622D01*
X163288578Y-84367325D01*
X163251337Y-84255701D01*
X163251336Y-84255698D01*
X163246756Y-84241971D01*
X163154666Y-84093155D01*
X163030811Y-83969516D01*
X163018497Y-83961926D01*
X163018495Y-83961924D01*
X162894154Y-83885280D01*
X162894153Y-83885280D01*
X162881834Y-83877686D01*
X162785281Y-83845660D01*
X162728636Y-83826871D01*
X162728632Y-83826870D01*
X162715728Y-83822590D01*
X162698866Y-83820862D01*
X162618685Y-83812647D01*
X162618677Y-83812647D01*
X162612366Y-83812000D01*
X162513811Y-83812000D01*
X162481308Y-83809870D01*
X162471540Y-83808584D01*
X162277577Y-83783047D01*
X162266505Y-83783569D01*
X162266500Y-83783569D01*
X162114353Y-83790745D01*
X162054602Y-83793563D01*
X162043803Y-83796036D01*
X162043798Y-83796037D01*
X162001539Y-83805716D01*
X161945950Y-83812000D01*
X161837634Y-83812000D01*
X161831238Y-83812664D01*
X161831231Y-83812664D01*
X161746530Y-83821453D01*
X161746529Y-83821453D01*
X161732981Y-83822859D01*
X161609059Y-83864202D01*
X161530260Y-83877000D01*
X156473825Y-83877000D01*
X156378537Y-83858046D01*
X156310063Y-83813790D01*
X156309568Y-83814401D01*
X156303876Y-83809791D01*
X156303216Y-83809365D01*
X156302392Y-83808590D01*
X156302385Y-83808584D01*
X156295660Y-83802258D01*
X156288081Y-83797000D01*
X156288077Y-83796997D01*
X156095583Y-83663459D01*
X156095581Y-83663458D01*
X156087989Y-83658191D01*
X156079700Y-83654103D01*
X156079696Y-83654101D01*
X155869591Y-83550489D01*
X155869589Y-83550488D01*
X155861305Y-83546403D01*
X155777678Y-83519634D01*
X155629386Y-83472165D01*
X155629379Y-83472163D01*
X155620587Y-83469349D01*
X155498636Y-83449488D01*
X155380239Y-83430205D01*
X155380233Y-83430204D01*
X155371124Y-83428721D01*
X155361894Y-83428600D01*
X155361892Y-83428600D01*
X155188201Y-83426327D01*
X155118396Y-83425413D01*
X155109241Y-83426659D01*
X155109240Y-83426659D01*
X154877107Y-83458250D01*
X154877101Y-83458251D01*
X154867955Y-83459496D01*
X154625303Y-83530223D01*
X154616924Y-83534086D01*
X154616918Y-83534088D01*
X154506610Y-83584941D01*
X154395770Y-83636039D01*
X154331641Y-83678084D01*
X154217952Y-83752622D01*
X154184399Y-83774620D01*
X154177510Y-83780769D01*
X154177507Y-83780771D01*
X154041663Y-83902016D01*
X153995833Y-83942921D01*
X153834215Y-84137246D01*
X153811957Y-84173926D01*
X153707884Y-84345432D01*
X153707881Y-84345438D01*
X153703095Y-84353325D01*
X153699526Y-84361836D01*
X153699524Y-84361840D01*
X153622241Y-84546140D01*
X153605354Y-84586411D01*
X153543139Y-84831383D01*
X153538702Y-84875445D01*
X153521309Y-85048176D01*
X153517816Y-85082861D01*
X153520054Y-85129454D01*
X153529454Y-85325134D01*
X153529943Y-85335320D01*
X153579252Y-85583213D01*
X153582375Y-85591911D01*
X153597633Y-85634410D01*
X153611993Y-85730498D01*
X153588489Y-85824767D01*
X153530699Y-85902865D01*
X153447420Y-85952903D01*
X153360023Y-85967529D01*
X153198396Y-85965413D01*
X153189241Y-85966659D01*
X153189240Y-85966659D01*
X152957107Y-85998250D01*
X152957101Y-85998251D01*
X152947955Y-85999496D01*
X152705303Y-86070223D01*
X152696924Y-86074086D01*
X152696918Y-86074088D01*
X152523574Y-86154001D01*
X152475770Y-86176039D01*
X152370085Y-86245329D01*
X152273522Y-86308639D01*
X152264399Y-86314620D01*
X152257510Y-86320769D01*
X152257507Y-86320771D01*
X152141629Y-86424196D01*
X152075833Y-86482921D01*
X151914215Y-86677246D01*
X151882317Y-86729813D01*
X151787884Y-86885432D01*
X151787881Y-86885438D01*
X151783095Y-86893325D01*
X151779526Y-86901836D01*
X151779524Y-86901840D01*
X151692826Y-87108592D01*
X151685354Y-87126411D01*
X151678270Y-87154305D01*
X151657640Y-87235535D01*
X151615814Y-87323225D01*
X151543613Y-87388235D01*
X151452031Y-87420665D01*
X151355009Y-87415580D01*
X151267319Y-87373754D01*
X151240238Y-87350317D01*
X149876716Y-85986796D01*
X149822740Y-85906014D01*
X149803786Y-85810726D01*
X149818802Y-85725565D01*
X149821135Y-85719156D01*
X149824928Y-85710736D01*
X149838990Y-85660875D01*
X149891024Y-85476377D01*
X149891025Y-85476373D01*
X149893534Y-85467476D01*
X149925431Y-85216747D01*
X149927350Y-85143464D01*
X149927605Y-85133740D01*
X149927605Y-85133732D01*
X149927768Y-85127500D01*
X149909037Y-84875445D01*
X149853256Y-84628928D01*
X149799062Y-84489568D01*
X149765002Y-84401982D01*
X149765001Y-84401979D01*
X149761650Y-84393363D01*
X149636231Y-84173926D01*
X149630519Y-84166680D01*
X149630514Y-84166673D01*
X149485471Y-83982688D01*
X149485467Y-83982684D01*
X149479755Y-83975438D01*
X149295660Y-83802258D01*
X149288081Y-83797000D01*
X149288077Y-83796997D01*
X149095583Y-83663459D01*
X149095581Y-83663458D01*
X149087989Y-83658191D01*
X149079700Y-83654103D01*
X149079696Y-83654101D01*
X148869591Y-83550489D01*
X148869589Y-83550488D01*
X148861305Y-83546403D01*
X148777678Y-83519634D01*
X148629386Y-83472165D01*
X148629379Y-83472163D01*
X148620587Y-83469349D01*
X148498636Y-83449488D01*
X148380239Y-83430205D01*
X148380233Y-83430204D01*
X148371124Y-83428721D01*
X148361894Y-83428600D01*
X148361892Y-83428600D01*
X148188201Y-83426327D01*
X148118396Y-83425413D01*
X148109241Y-83426659D01*
X148109240Y-83426659D01*
X147877107Y-83458250D01*
X147877101Y-83458251D01*
X147867955Y-83459496D01*
X147625303Y-83530223D01*
X147616924Y-83534086D01*
X147616918Y-83534088D01*
X147506610Y-83584941D01*
X147395770Y-83636039D01*
X147331641Y-83678084D01*
X147217952Y-83752622D01*
X147184399Y-83774620D01*
X147177510Y-83780769D01*
X147177507Y-83780771D01*
X147041663Y-83902016D01*
X146995833Y-83942921D01*
X146834215Y-84137246D01*
X146811957Y-84173926D01*
X146707884Y-84345432D01*
X146707881Y-84345438D01*
X146703095Y-84353325D01*
X146699526Y-84361836D01*
X146699524Y-84361840D01*
X146622241Y-84546140D01*
X146605354Y-84586411D01*
X146543139Y-84831383D01*
X146538702Y-84875445D01*
X146521309Y-85048176D01*
X146517816Y-85082861D01*
X146520054Y-85129454D01*
X146529454Y-85325134D01*
X146529943Y-85335320D01*
X146579252Y-85583213D01*
X146582375Y-85591911D01*
X146597633Y-85634410D01*
X146611993Y-85730498D01*
X146588489Y-85824767D01*
X146530699Y-85902865D01*
X146447420Y-85952903D01*
X146360023Y-85967529D01*
X146198396Y-85965413D01*
X146189241Y-85966659D01*
X146189240Y-85966659D01*
X145957107Y-85998250D01*
X145957101Y-85998251D01*
X145947955Y-85999496D01*
X145705303Y-86070223D01*
X145696924Y-86074086D01*
X145696918Y-86074088D01*
X145523574Y-86154001D01*
X145475770Y-86176039D01*
X145370085Y-86245329D01*
X145273522Y-86308639D01*
X145264399Y-86314620D01*
X145257510Y-86320769D01*
X145257507Y-86320771D01*
X145141629Y-86424196D01*
X145075833Y-86482921D01*
X144914215Y-86677246D01*
X144882317Y-86729813D01*
X144787884Y-86885432D01*
X144787881Y-86885438D01*
X144783095Y-86893325D01*
X144779526Y-86901836D01*
X144779524Y-86901840D01*
X144692826Y-87108592D01*
X144685354Y-87126411D01*
X144623139Y-87371383D01*
X144610079Y-87501076D01*
X144599858Y-87602585D01*
X144597816Y-87622861D01*
X144602107Y-87712186D01*
X144609030Y-87856309D01*
X144609943Y-87875320D01*
X144649880Y-88076096D01*
X144659252Y-88123213D01*
X144656690Y-88123723D01*
X144662630Y-88203811D01*
X144632191Y-88296074D01*
X144568761Y-88369666D01*
X144481997Y-88413383D01*
X144385108Y-88420569D01*
X144292845Y-88390130D01*
X144239420Y-88349499D01*
X142496660Y-86606739D01*
X142442684Y-86525957D01*
X142423730Y-86430669D01*
X142442684Y-86335381D01*
X142485522Y-86266492D01*
X142578296Y-86160703D01*
X142578298Y-86160700D01*
X142584388Y-86153756D01*
X142721119Y-85941184D01*
X142734782Y-85910855D01*
X142821135Y-85719156D01*
X142824928Y-85710736D01*
X142867394Y-85560163D01*
X142891024Y-85476377D01*
X142891025Y-85476373D01*
X142893534Y-85467476D01*
X142925431Y-85216747D01*
X142927350Y-85143464D01*
X142927605Y-85133740D01*
X142927605Y-85133732D01*
X142927768Y-85127500D01*
X142909037Y-84875445D01*
X142853256Y-84628928D01*
X142799062Y-84489568D01*
X142765002Y-84401982D01*
X142765001Y-84401979D01*
X142761650Y-84393363D01*
X142636231Y-84173926D01*
X142630519Y-84166680D01*
X142630514Y-84166673D01*
X142485471Y-83982688D01*
X142485467Y-83982684D01*
X142479755Y-83975438D01*
X142295660Y-83802258D01*
X142288081Y-83797000D01*
X142288077Y-83796997D01*
X142095583Y-83663459D01*
X142095581Y-83663458D01*
X142087989Y-83658191D01*
X142079700Y-83654103D01*
X142079696Y-83654101D01*
X141869591Y-83550489D01*
X141869589Y-83550488D01*
X141861305Y-83546403D01*
X141777678Y-83519634D01*
X141629386Y-83472165D01*
X141629379Y-83472163D01*
X141620587Y-83469349D01*
X141498636Y-83449488D01*
X141380239Y-83430205D01*
X141380233Y-83430204D01*
X141371124Y-83428721D01*
X141361894Y-83428600D01*
X141361892Y-83428600D01*
X141188201Y-83426327D01*
X141118396Y-83425413D01*
X141109241Y-83426659D01*
X141109240Y-83426659D01*
X140877107Y-83458250D01*
X140877101Y-83458251D01*
X140867955Y-83459496D01*
X140625303Y-83530223D01*
X140616924Y-83534086D01*
X140616918Y-83534088D01*
X140506610Y-83584941D01*
X140395770Y-83636039D01*
X140331641Y-83678084D01*
X140217952Y-83752622D01*
X140184399Y-83774620D01*
X140177510Y-83780769D01*
X140177507Y-83780771D01*
X140041663Y-83902016D01*
X139995833Y-83942921D01*
X139834215Y-84137246D01*
X139811957Y-84173926D01*
X139707884Y-84345432D01*
X139707881Y-84345438D01*
X139703095Y-84353325D01*
X139699526Y-84361836D01*
X139699524Y-84361840D01*
X139622241Y-84546140D01*
X139605354Y-84586411D01*
X139543139Y-84831383D01*
X139538702Y-84875445D01*
X139521309Y-85048176D01*
X139517816Y-85082861D01*
X139520054Y-85129454D01*
X139529454Y-85325134D01*
X139529943Y-85335320D01*
X139579252Y-85583213D01*
X139582375Y-85591911D01*
X139597633Y-85634410D01*
X139611993Y-85730498D01*
X139588489Y-85824767D01*
X139530699Y-85902865D01*
X139447420Y-85952903D01*
X139360023Y-85967529D01*
X139198396Y-85965413D01*
X139189241Y-85966659D01*
X139189240Y-85966659D01*
X138957107Y-85998250D01*
X138957101Y-85998251D01*
X138947955Y-85999496D01*
X138705303Y-86070223D01*
X138696924Y-86074086D01*
X138696918Y-86074088D01*
X138523574Y-86154001D01*
X138475770Y-86176039D01*
X138370085Y-86245329D01*
X138273522Y-86308639D01*
X138264399Y-86314620D01*
X138257510Y-86320769D01*
X138257507Y-86320771D01*
X138141629Y-86424196D01*
X138075833Y-86482921D01*
X137914215Y-86677246D01*
X137882317Y-86729813D01*
X137787884Y-86885432D01*
X137787881Y-86885438D01*
X137783095Y-86893325D01*
X137779526Y-86901836D01*
X137779524Y-86901840D01*
X137692826Y-87108592D01*
X137685354Y-87126411D01*
X137623139Y-87371383D01*
X137610079Y-87501076D01*
X137599858Y-87602585D01*
X137597816Y-87622861D01*
X137608408Y-87843358D01*
X137609030Y-87856309D01*
X137594670Y-87952397D01*
X137544632Y-88035675D01*
X137466533Y-88093465D01*
X137372264Y-88116969D01*
X137276176Y-88102609D01*
X137192898Y-88052571D01*
X137184247Y-88044326D01*
X135612027Y-86472107D01*
X135558051Y-86391325D01*
X135539097Y-86296037D01*
X135558051Y-86200749D01*
X135584768Y-86154001D01*
X135584388Y-86153756D01*
X135589053Y-86146503D01*
X135721119Y-85941184D01*
X135734782Y-85910855D01*
X135821135Y-85719156D01*
X135824928Y-85710736D01*
X135867394Y-85560163D01*
X135891024Y-85476377D01*
X135891025Y-85476373D01*
X135893534Y-85467476D01*
X135925431Y-85216747D01*
X135927350Y-85143464D01*
X135927605Y-85133740D01*
X135927605Y-85133732D01*
X135927768Y-85127500D01*
X135909037Y-84875445D01*
X135853256Y-84628928D01*
X135799062Y-84489568D01*
X135765002Y-84401982D01*
X135765001Y-84401979D01*
X135761650Y-84393363D01*
X135636231Y-84173926D01*
X135630519Y-84166680D01*
X135630514Y-84166673D01*
X135485471Y-83982688D01*
X135485467Y-83982684D01*
X135479755Y-83975438D01*
X135295660Y-83802258D01*
X135288081Y-83797000D01*
X135288077Y-83796997D01*
X135095583Y-83663459D01*
X135095581Y-83663458D01*
X135087989Y-83658191D01*
X135079700Y-83654103D01*
X135079696Y-83654101D01*
X134869591Y-83550489D01*
X134869589Y-83550488D01*
X134861305Y-83546403D01*
X134777678Y-83519634D01*
X134629386Y-83472165D01*
X134629379Y-83472163D01*
X134620587Y-83469349D01*
X134498636Y-83449488D01*
X134380239Y-83430205D01*
X134380233Y-83430204D01*
X134371124Y-83428721D01*
X134361894Y-83428600D01*
X134361892Y-83428600D01*
X134188201Y-83426327D01*
X134118396Y-83425413D01*
X134109241Y-83426659D01*
X134109240Y-83426659D01*
X133877107Y-83458250D01*
X133877101Y-83458251D01*
X133867955Y-83459496D01*
X133625303Y-83530223D01*
X133616924Y-83534086D01*
X133616918Y-83534088D01*
X133506610Y-83584941D01*
X133395770Y-83636039D01*
X133331641Y-83678084D01*
X133217952Y-83752622D01*
X133184399Y-83774620D01*
X133177510Y-83780769D01*
X133177507Y-83780771D01*
X133041663Y-83902016D01*
X132995833Y-83942921D01*
X132834215Y-84137246D01*
X132811957Y-84173926D01*
X132707884Y-84345432D01*
X132707881Y-84345438D01*
X132703095Y-84353325D01*
X132699526Y-84361836D01*
X132699524Y-84361840D01*
X132622241Y-84546140D01*
X132605354Y-84586411D01*
X132543139Y-84831383D01*
X132538702Y-84875445D01*
X132521309Y-85048176D01*
X132517816Y-85082861D01*
X132520054Y-85129454D01*
X132529454Y-85325134D01*
X132529943Y-85335320D01*
X132579252Y-85583213D01*
X132582375Y-85591911D01*
X132597633Y-85634410D01*
X132611993Y-85730498D01*
X132588489Y-85824767D01*
X132530699Y-85902865D01*
X132447420Y-85952903D01*
X132360023Y-85967529D01*
X132198396Y-85965413D01*
X132189241Y-85966659D01*
X132189240Y-85966659D01*
X131957107Y-85998250D01*
X131957101Y-85998251D01*
X131947955Y-85999496D01*
X131705303Y-86070223D01*
X131696924Y-86074086D01*
X131696918Y-86074088D01*
X131523574Y-86154001D01*
X131475770Y-86176039D01*
X131370084Y-86245330D01*
X131273522Y-86308639D01*
X131264399Y-86314620D01*
X131257510Y-86320769D01*
X131257507Y-86320771D01*
X131141629Y-86424196D01*
X131075833Y-86482921D01*
X130914215Y-86677246D01*
X130873654Y-86744089D01*
X130787670Y-86885785D01*
X130722033Y-86957415D01*
X130633980Y-86998474D01*
X130536918Y-87002712D01*
X130445622Y-86969483D01*
X130373992Y-86903846D01*
X130357021Y-86877335D01*
X130338297Y-86843556D01*
X130330089Y-86833979D01*
X130330085Y-86833974D01*
X130324741Y-86827739D01*
X130305451Y-86802047D01*
X130299285Y-86792625D01*
X130294045Y-86784617D01*
X130289583Y-86779662D01*
X130254010Y-86744089D01*
X130241021Y-86730061D01*
X130214233Y-86698807D01*
X130214229Y-86698803D01*
X130206023Y-86689229D01*
X130196061Y-86681501D01*
X130196056Y-86681497D01*
X130187765Y-86675066D01*
X130164308Y-86654387D01*
X128989349Y-85479428D01*
X128935373Y-85398646D01*
X128916419Y-85303358D01*
X128918410Y-85271934D01*
X128924642Y-85222946D01*
X128925431Y-85216747D01*
X128927350Y-85143464D01*
X128927605Y-85133740D01*
X128927605Y-85133732D01*
X128927768Y-85127500D01*
X128909037Y-84875445D01*
X128853256Y-84628928D01*
X128799062Y-84489568D01*
X128765002Y-84401982D01*
X128765001Y-84401979D01*
X128761650Y-84393363D01*
X128636231Y-84173926D01*
X128630519Y-84166680D01*
X128630514Y-84166673D01*
X128485471Y-83982688D01*
X128485467Y-83982684D01*
X128479755Y-83975438D01*
X128295660Y-83802258D01*
X128288081Y-83797000D01*
X128288077Y-83796997D01*
X128095583Y-83663459D01*
X128095581Y-83663458D01*
X128087989Y-83658191D01*
X128079700Y-83654103D01*
X128079696Y-83654101D01*
X127869591Y-83550489D01*
X127869589Y-83550488D01*
X127861305Y-83546403D01*
X127777678Y-83519634D01*
X127629386Y-83472165D01*
X127629379Y-83472163D01*
X127620587Y-83469349D01*
X127498636Y-83449488D01*
X127380239Y-83430205D01*
X127380233Y-83430204D01*
X127371124Y-83428721D01*
X127361894Y-83428600D01*
X127361892Y-83428600D01*
X127188201Y-83426327D01*
X127118396Y-83425413D01*
X127109241Y-83426659D01*
X127109240Y-83426659D01*
X126877107Y-83458250D01*
X126877101Y-83458251D01*
X126867955Y-83459496D01*
X126625303Y-83530223D01*
X126616924Y-83534086D01*
X126616918Y-83534088D01*
X126524137Y-83576861D01*
X126395770Y-83636039D01*
X126388045Y-83641104D01*
X126382721Y-83644055D01*
X126290191Y-83673676D01*
X126193370Y-83665632D01*
X126106997Y-83621149D01*
X126044222Y-83546998D01*
X126014601Y-83454468D01*
X126013000Y-83426277D01*
X126013000Y-81818920D01*
X126031954Y-81723632D01*
X126085930Y-81642850D01*
X126190190Y-81538590D01*
X126217040Y-81515325D01*
X126311431Y-81444665D01*
X126399072Y-81402735D01*
X126496088Y-81397535D01*
X126587709Y-81429857D01*
X126635927Y-81467141D01*
X126721124Y-81551576D01*
X126721141Y-81551592D01*
X126725096Y-81555511D01*
X126967532Y-81756073D01*
X127054033Y-81818920D01*
X127139301Y-81880871D01*
X127148686Y-81887690D01*
X127150045Y-81888622D01*
X127150057Y-81888631D01*
X127255342Y-81960876D01*
X127255351Y-81960881D01*
X127259948Y-81964036D01*
X127264818Y-81966770D01*
X127264822Y-81966773D01*
X127282226Y-81976545D01*
X127534300Y-82118084D01*
X127736044Y-82215238D01*
X127859123Y-82270478D01*
X128156573Y-82373065D01*
X128372422Y-82432636D01*
X128503403Y-82465016D01*
X128814391Y-82512842D01*
X129037409Y-82532914D01*
X129040189Y-82533039D01*
X129040206Y-82533040D01*
X129259207Y-82542875D01*
X129259226Y-82542875D01*
X129262000Y-82543000D01*
X161393184Y-82543000D01*
X161471368Y-82541721D01*
X161474181Y-82541675D01*
X161474183Y-82541675D01*
X161475158Y-82541659D01*
X161556844Y-82538985D01*
X161557854Y-82538935D01*
X161557888Y-82538934D01*
X161637761Y-82535010D01*
X161637780Y-82535009D01*
X161638735Y-82534962D01*
X161639677Y-82534900D01*
X161639699Y-82534899D01*
X161775249Y-82526015D01*
X161775276Y-82526013D01*
X161777302Y-82525880D01*
X161779338Y-82525679D01*
X161779356Y-82525678D01*
X161938449Y-82510009D01*
X161938451Y-82510009D01*
X161940459Y-82509811D01*
X162021875Y-82499093D01*
X162100395Y-82488756D01*
X162100409Y-82488754D01*
X162102429Y-82488488D01*
X162104432Y-82488157D01*
X162104461Y-82488153D01*
X162262178Y-82462113D01*
X162264207Y-82461778D01*
X162332629Y-82448168D01*
X162358254Y-82443071D01*
X162358262Y-82443069D01*
X162360224Y-82442679D01*
X162362185Y-82442222D01*
X162362207Y-82442217D01*
X162452703Y-82421116D01*
X162519895Y-82405449D01*
X162677701Y-82363165D01*
X162679621Y-82362582D01*
X162679637Y-82362578D01*
X162832630Y-82316168D01*
X162832650Y-82316161D01*
X162834610Y-82315567D01*
X162927313Y-82284098D01*
X162969590Y-82268186D01*
X163078832Y-82227070D01*
X163078857Y-82227060D01*
X163080757Y-82226345D01*
X163231682Y-82163829D01*
X163381008Y-82096170D01*
X163382821Y-82095276D01*
X163382842Y-82095266D01*
X163467025Y-82053752D01*
X163467058Y-82053735D01*
X163468800Y-82052876D01*
X163470517Y-82051958D01*
X163470535Y-82051949D01*
X163611606Y-81976545D01*
X163611613Y-81976541D01*
X163613398Y-81975587D01*
X163658958Y-81949283D01*
X163753120Y-81894919D01*
X163753138Y-81894908D01*
X163754886Y-81893899D01*
X163756590Y-81892839D01*
X163756609Y-81892828D01*
X163891895Y-81808702D01*
X163894100Y-81807331D01*
X163975493Y-81752947D01*
X163977140Y-81751767D01*
X164107135Y-81658615D01*
X164107154Y-81658601D01*
X164108788Y-81657430D01*
X164177664Y-81604579D01*
X164236796Y-81559206D01*
X164236815Y-81559191D01*
X164238397Y-81557977D01*
X164255526Y-81543920D01*
X164301762Y-81505974D01*
X164365127Y-81453972D01*
X164433167Y-81394303D01*
X164468786Y-81363066D01*
X164468796Y-81363057D01*
X164469535Y-81362409D01*
X164530305Y-81307330D01*
X164589960Y-81251456D01*
X164648859Y-81194453D01*
X172419453Y-73423859D01*
X172476456Y-73364960D01*
X172532330Y-73305305D01*
X172587409Y-73244535D01*
X172664456Y-73156680D01*
X172677633Y-73141654D01*
X172677637Y-73141649D01*
X172678972Y-73140127D01*
X172782981Y-73013392D01*
X172829303Y-72953024D01*
X172902348Y-72888966D01*
X172994347Y-72857736D01*
X173091294Y-72864090D01*
G37*
G04 #@! TD.AperFunction*
G04 #@! TA.AperFunction,Conductor*
G36*
X188306986Y-59540682D02*
G01*
X188400004Y-59547334D01*
X188458029Y-59551484D01*
X188634415Y-59576845D01*
X188738685Y-59599527D01*
X188909654Y-59649728D01*
X189009641Y-59687021D01*
X189171734Y-59761048D01*
X189265375Y-59812180D01*
X189415291Y-59908525D01*
X189500714Y-59972472D01*
X189635391Y-60089171D01*
X189710829Y-60164609D01*
X189827528Y-60299286D01*
X189891475Y-60384709D01*
X189987820Y-60534625D01*
X190038952Y-60628266D01*
X190112979Y-60790359D01*
X190150272Y-60890346D01*
X190200473Y-61061315D01*
X190223155Y-61165585D01*
X190248516Y-61341974D01*
X190259318Y-61493014D01*
X190262500Y-61582112D01*
X190262500Y-71209073D01*
X190279610Y-71470125D01*
X190330648Y-71726711D01*
X190414741Y-71974440D01*
X190530449Y-72209073D01*
X190675793Y-72426596D01*
X190848286Y-72623286D01*
X201391176Y-83166176D01*
X201534681Y-83338066D01*
X201645186Y-83532817D01*
X201719142Y-83744171D01*
X201754171Y-83965333D01*
X201757000Y-84049352D01*
X201757000Y-104742032D01*
X201736928Y-104965050D01*
X201677357Y-105180899D01*
X201580203Y-105382643D01*
X201448586Y-105563797D01*
X201286739Y-105718540D01*
X201099862Y-105841896D01*
X200944487Y-105912280D01*
X200909664Y-105925268D01*
X200738685Y-105975473D01*
X200634415Y-105998155D01*
X200458029Y-106023516D01*
X200400004Y-106027666D01*
X200306986Y-106034318D01*
X200217888Y-106037500D01*
X191111857Y-106037500D01*
X190916471Y-106022123D01*
X190886828Y-106017428D01*
X190569838Y-105967222D01*
X190537184Y-105965511D01*
X190537178Y-105965510D01*
X190215166Y-105948634D01*
X190182500Y-105946922D01*
X190149834Y-105948634D01*
X189827822Y-105965510D01*
X189827816Y-105965511D01*
X189795162Y-105967222D01*
X189478172Y-106017428D01*
X189448529Y-106022123D01*
X189253143Y-106037500D01*
X184111857Y-106037500D01*
X183916471Y-106022123D01*
X183886828Y-106017428D01*
X183569838Y-105967222D01*
X183537184Y-105965511D01*
X183537178Y-105965510D01*
X183215166Y-105948634D01*
X183182500Y-105946922D01*
X183149834Y-105948634D01*
X182827822Y-105965510D01*
X182827816Y-105965511D01*
X182795162Y-105967222D01*
X182478172Y-106017428D01*
X182448529Y-106022123D01*
X182253143Y-106037500D01*
X177111857Y-106037500D01*
X176916471Y-106022123D01*
X176886828Y-106017428D01*
X176569838Y-105967222D01*
X176537184Y-105965511D01*
X176537178Y-105965510D01*
X176215166Y-105948634D01*
X176182500Y-105946922D01*
X176149834Y-105948634D01*
X175827822Y-105965510D01*
X175827816Y-105965511D01*
X175795162Y-105967222D01*
X175478172Y-106017428D01*
X175448529Y-106022123D01*
X175253143Y-106037500D01*
X170111857Y-106037500D01*
X169916471Y-106022123D01*
X169886828Y-106017428D01*
X169569838Y-105967222D01*
X169537184Y-105965511D01*
X169537178Y-105965510D01*
X169215166Y-105948634D01*
X169182500Y-105946922D01*
X169149834Y-105948634D01*
X168827822Y-105965510D01*
X168827816Y-105965511D01*
X168795162Y-105967222D01*
X168478172Y-106017428D01*
X168448529Y-106022123D01*
X168253143Y-106037500D01*
X163111857Y-106037500D01*
X162916471Y-106022123D01*
X162886828Y-106017428D01*
X162569838Y-105967222D01*
X162537184Y-105965511D01*
X162537178Y-105965510D01*
X162215166Y-105948634D01*
X162182500Y-105946922D01*
X162149834Y-105948634D01*
X161827822Y-105965510D01*
X161827816Y-105965511D01*
X161795162Y-105967222D01*
X161478172Y-106017428D01*
X161448529Y-106022123D01*
X161253143Y-106037500D01*
X156111857Y-106037500D01*
X155916471Y-106022123D01*
X155886828Y-106017428D01*
X155569838Y-105967222D01*
X155537184Y-105965511D01*
X155537178Y-105965510D01*
X155215166Y-105948634D01*
X155182500Y-105946922D01*
X155149834Y-105948634D01*
X154827822Y-105965510D01*
X154827816Y-105965511D01*
X154795162Y-105967222D01*
X154478172Y-106017428D01*
X154448529Y-106022123D01*
X154253143Y-106037500D01*
X149111857Y-106037500D01*
X148916471Y-106022123D01*
X148886828Y-106017428D01*
X148569838Y-105967222D01*
X148537184Y-105965511D01*
X148537178Y-105965510D01*
X148215166Y-105948634D01*
X148182500Y-105946922D01*
X148149834Y-105948634D01*
X147827822Y-105965510D01*
X147827816Y-105965511D01*
X147795162Y-105967222D01*
X147478172Y-106017428D01*
X147448529Y-106022123D01*
X147253143Y-106037500D01*
X142111857Y-106037500D01*
X141916471Y-106022123D01*
X141886828Y-106017428D01*
X141569838Y-105967222D01*
X141537184Y-105965511D01*
X141537178Y-105965510D01*
X141215166Y-105948634D01*
X141182500Y-105946922D01*
X141149834Y-105948634D01*
X140827822Y-105965510D01*
X140827816Y-105965511D01*
X140795162Y-105967222D01*
X140478172Y-106017428D01*
X140448529Y-106022123D01*
X140253143Y-106037500D01*
X135111857Y-106037500D01*
X134916471Y-106022123D01*
X134886828Y-106017428D01*
X134569838Y-105967222D01*
X134537184Y-105965511D01*
X134537178Y-105965510D01*
X134215166Y-105948634D01*
X134182500Y-105946922D01*
X134149834Y-105948634D01*
X133827822Y-105965510D01*
X133827816Y-105965511D01*
X133795162Y-105967222D01*
X133478172Y-106017428D01*
X133448529Y-106022123D01*
X133253143Y-106037500D01*
X129262000Y-106037500D01*
X129038982Y-106017428D01*
X128823133Y-105957857D01*
X128621389Y-105860703D01*
X128440235Y-105729086D01*
X128285492Y-105567239D01*
X128162136Y-105380362D01*
X128074130Y-105174462D01*
X128024304Y-104956157D01*
X128013000Y-104788500D01*
X128013000Y-103286500D01*
X128033072Y-103063482D01*
X128092643Y-102847633D01*
X128189797Y-102645889D01*
X128321414Y-102464735D01*
X128483261Y-102309992D01*
X128670138Y-102186636D01*
X128876038Y-102098630D01*
X129094343Y-102048804D01*
X129262000Y-102037500D01*
X196262500Y-102037500D01*
X196415876Y-102026530D01*
X196502643Y-102020325D01*
X196502646Y-102020325D01*
X196547130Y-102017143D01*
X196590710Y-102007663D01*
X196590715Y-102007662D01*
X196667823Y-101990888D01*
X196825965Y-101956486D01*
X197093330Y-101856764D01*
X197343782Y-101720007D01*
X197572221Y-101548999D01*
X197773999Y-101347221D01*
X197945007Y-101118782D01*
X198081764Y-100868330D01*
X198181486Y-100600965D01*
X198242143Y-100322130D01*
X198262500Y-100037500D01*
X198262500Y-99497284D01*
X198282572Y-99274266D01*
X198342143Y-99058417D01*
X198439297Y-98856673D01*
X198448609Y-98841731D01*
X198453814Y-98832716D01*
X198471625Y-98805289D01*
X198647714Y-98459694D01*
X198786714Y-98097587D01*
X198887102Y-97722933D01*
X198947778Y-97339838D01*
X198968078Y-96952500D01*
X198947778Y-96565162D01*
X198887102Y-96182067D01*
X198786714Y-95807413D01*
X198647714Y-95445306D01*
X198471625Y-95099711D01*
X198453808Y-95072275D01*
X198437459Y-95043958D01*
X198440043Y-95042466D01*
X198359870Y-94890770D01*
X198292270Y-94677299D01*
X198263873Y-94455187D01*
X198263000Y-94408486D01*
X198263000Y-94006367D01*
X198263097Y-94002673D01*
X198263966Y-93994800D01*
X198263017Y-93813577D01*
X198263000Y-93807037D01*
X198263000Y-93749311D01*
X198262652Y-93743269D01*
X198262648Y-93743031D01*
X198262517Y-93718029D01*
X198262500Y-93711485D01*
X198262500Y-86865927D01*
X198245390Y-86604875D01*
X198194352Y-86348289D01*
X198110259Y-86100560D01*
X197994551Y-85865927D01*
X197849207Y-85648404D01*
X197676714Y-85451714D01*
X185877203Y-73652203D01*
X185821329Y-73592548D01*
X185729766Y-73488140D01*
X185630312Y-73358529D01*
X185575929Y-73277138D01*
X185494241Y-73135650D01*
X185450947Y-73047858D01*
X185388430Y-72896931D01*
X185356962Y-72804230D01*
X185314678Y-72646424D01*
X185295579Y-72550406D01*
X185274256Y-72388437D01*
X185265174Y-72249872D01*
X185262500Y-72168184D01*
X185262500Y-65037500D01*
X185242143Y-64752870D01*
X185181486Y-64474035D01*
X185081764Y-64206670D01*
X184945007Y-63956218D01*
X184773999Y-63727779D01*
X184572221Y-63526001D01*
X184343782Y-63354993D01*
X184093330Y-63218236D01*
X183825965Y-63118514D01*
X183667823Y-63084112D01*
X183590715Y-63067338D01*
X183590710Y-63067337D01*
X183547130Y-63057857D01*
X183502646Y-63054675D01*
X183502643Y-63054675D01*
X183415876Y-63048470D01*
X183262500Y-63037500D01*
X173262500Y-63037500D01*
X173109124Y-63048470D01*
X173022357Y-63054675D01*
X173022354Y-63054675D01*
X172977870Y-63057857D01*
X172934290Y-63067337D01*
X172934285Y-63067338D01*
X172857177Y-63084112D01*
X172699035Y-63118514D01*
X172431670Y-63218236D01*
X172181218Y-63354993D01*
X171952779Y-63526001D01*
X171751001Y-63727779D01*
X171579993Y-63956218D01*
X171443236Y-64206670D01*
X171343514Y-64474035D01*
X171282857Y-64752870D01*
X171262500Y-65037500D01*
X171262500Y-70168184D01*
X171259826Y-70249872D01*
X171250744Y-70388437D01*
X171229421Y-70550406D01*
X171210322Y-70646424D01*
X171168038Y-70804230D01*
X171136570Y-70896931D01*
X171074053Y-71047858D01*
X171030759Y-71135650D01*
X170949071Y-71277138D01*
X170894688Y-71358529D01*
X170795234Y-71488140D01*
X170703671Y-71592548D01*
X170647797Y-71652203D01*
X162877203Y-79422797D01*
X162817548Y-79478671D01*
X162713140Y-79570234D01*
X162583531Y-79669687D01*
X162502138Y-79724071D01*
X162360650Y-79805759D01*
X162272858Y-79849053D01*
X162121933Y-79911569D01*
X162029230Y-79943038D01*
X161871424Y-79985322D01*
X161775407Y-80004421D01*
X161613437Y-80025744D01*
X161566053Y-80028850D01*
X161474870Y-80034826D01*
X161393184Y-80037500D01*
X129262000Y-80037500D01*
X129038982Y-80017428D01*
X128823133Y-79957857D01*
X128621389Y-79860703D01*
X128440235Y-79729086D01*
X128285492Y-79567239D01*
X128162136Y-79380362D01*
X128074130Y-79174462D01*
X128024304Y-78956157D01*
X128013000Y-78788500D01*
X128013000Y-77286500D01*
X128033072Y-77063482D01*
X128092643Y-76847633D01*
X128189797Y-76645889D01*
X128321414Y-76464735D01*
X128483261Y-76309992D01*
X128670138Y-76186636D01*
X128876038Y-76098630D01*
X129094343Y-76048804D01*
X129262000Y-76037500D01*
X131341574Y-76037500D01*
X131536960Y-76052877D01*
X131915162Y-76112778D01*
X131947816Y-76114489D01*
X131947822Y-76114490D01*
X132269834Y-76131366D01*
X132302500Y-76133078D01*
X132335166Y-76131366D01*
X132657178Y-76114490D01*
X132657184Y-76114489D01*
X132689838Y-76112778D01*
X133068040Y-76052877D01*
X133263426Y-76037500D01*
X138341574Y-76037500D01*
X138536960Y-76052877D01*
X138915162Y-76112778D01*
X138947816Y-76114489D01*
X138947822Y-76114490D01*
X139269834Y-76131366D01*
X139302500Y-76133078D01*
X139335166Y-76131366D01*
X139657178Y-76114490D01*
X139657184Y-76114489D01*
X139689838Y-76112778D01*
X140068040Y-76052877D01*
X140263426Y-76037500D01*
X145341574Y-76037500D01*
X145536960Y-76052877D01*
X145915162Y-76112778D01*
X145947816Y-76114489D01*
X145947822Y-76114490D01*
X146269834Y-76131366D01*
X146302500Y-76133078D01*
X146335166Y-76131366D01*
X146657178Y-76114490D01*
X146657184Y-76114489D01*
X146689838Y-76112778D01*
X147068040Y-76052877D01*
X147263426Y-76037500D01*
X152341574Y-76037500D01*
X152536960Y-76052877D01*
X152915162Y-76112778D01*
X152947816Y-76114489D01*
X152947822Y-76114490D01*
X153269834Y-76131366D01*
X153302500Y-76133078D01*
X153335166Y-76131366D01*
X153657178Y-76114490D01*
X153657184Y-76114489D01*
X153689838Y-76112778D01*
X154068040Y-76052877D01*
X154263426Y-76037500D01*
X159341574Y-76037500D01*
X159536960Y-76052877D01*
X159915162Y-76112778D01*
X159947816Y-76114489D01*
X159947822Y-76114490D01*
X160269834Y-76131366D01*
X160302500Y-76133078D01*
X160335166Y-76131366D01*
X160657178Y-76114490D01*
X160657184Y-76114489D01*
X160689838Y-76112778D01*
X161072933Y-76052102D01*
X161299528Y-75991386D01*
X161416007Y-75960176D01*
X161416010Y-75960175D01*
X161447587Y-75951714D01*
X161809694Y-75812714D01*
X162155289Y-75636625D01*
X162182704Y-75618821D01*
X162182710Y-75618818D01*
X162453160Y-75443186D01*
X162453168Y-75443180D01*
X162480584Y-75425376D01*
X162782016Y-75181281D01*
X163056281Y-74907016D01*
X163300376Y-74605584D01*
X163318180Y-74578168D01*
X163318186Y-74578160D01*
X163493818Y-74307710D01*
X163493821Y-74307704D01*
X163511625Y-74280289D01*
X163687714Y-73934694D01*
X163793440Y-73659269D01*
X163892101Y-73458257D01*
X164025068Y-73278092D01*
X164076306Y-73223694D01*
X166676714Y-70623286D01*
X166849207Y-70426596D01*
X166994551Y-70209073D01*
X167110259Y-69974440D01*
X167194352Y-69726711D01*
X167245390Y-69470125D01*
X167262500Y-69209073D01*
X167262500Y-61582112D01*
X167265682Y-61493014D01*
X167276484Y-61341974D01*
X167301845Y-61165585D01*
X167324527Y-61061315D01*
X167374728Y-60890346D01*
X167412021Y-60790359D01*
X167486048Y-60628266D01*
X167537180Y-60534625D01*
X167633525Y-60384709D01*
X167697472Y-60299286D01*
X167814171Y-60164609D01*
X167889609Y-60089171D01*
X168024286Y-59972472D01*
X168109709Y-59908525D01*
X168259625Y-59812180D01*
X168353266Y-59761048D01*
X168515359Y-59687021D01*
X168615346Y-59649728D01*
X168786315Y-59599527D01*
X168890585Y-59576845D01*
X169066971Y-59551484D01*
X169124996Y-59547334D01*
X169218014Y-59540682D01*
X169307112Y-59537500D01*
X188217888Y-59537500D01*
X188306986Y-59540682D01*
G37*
G04 #@! TD.AperFunction*
M02*
