%TF.GenerationSoftware,KiCad,Pcbnew,6.0.10+dfsg-1~bpo11+1*%
%TF.ProjectId,project,70726f6a-6563-4742-9e6b-696361645f70,rev?*%
%TF.SameCoordinates,Original*%
%TF.FileFunction,Drillmap*%
%TF.FilePolarity,Positive*%
%FSLAX45Y45*%
G04 Gerber Fmt 4.5, Leading zero omitted, Abs format (unit mm)*
%MOMM*%
%LPD*%
G01*
G04 APERTURE LIST*
%ADD10C,0.100000*%
%ADD11C,0.200000*%
%ADD12C,0.030000*%
%ADD13C,0.110000*%
%ADD14C,0.140000*%
%ADD15C,0.420000*%
G04 APERTURE END LIST*
D10*
X21101250Y-4828750D02*
X21101250Y-13378750D01*
X21101250Y-13378750D02*
X12551250Y-13378750D01*
X12551250Y-4828750D02*
X21101250Y-4828750D01*
X12551250Y-13378750D02*
X12551250Y-4828750D01*
D11*
D12*
X12871250Y-8288750D02*
X12901250Y-8318750D01*
X12901250Y-8288750D02*
X12871250Y-8318750D01*
X12951250Y-8288750D02*
X12981250Y-8318750D01*
X12981250Y-8288750D02*
X12951250Y-8318750D01*
X13031250Y-8288750D02*
X13061250Y-8318750D01*
X13061250Y-8288750D02*
X13031250Y-8318750D01*
X16351250Y-8388750D02*
X16381250Y-8418750D01*
X16381250Y-8388750D02*
X16351250Y-8418750D01*
X16411250Y-8388750D02*
X16441250Y-8418750D01*
X16441250Y-8388750D02*
X16411250Y-8418750D01*
X16471250Y-8388750D02*
X16501250Y-8418750D01*
X16501250Y-8388750D02*
X16471250Y-8418750D01*
X16871250Y-8568750D02*
X16901250Y-8598750D01*
X16901250Y-8568750D02*
X16871250Y-8598750D01*
X16951250Y-8368750D02*
X16981250Y-8398750D01*
X16981250Y-8368750D02*
X16951250Y-8398750D01*
X16978716Y-8660209D02*
X17008716Y-8690209D01*
X17008716Y-8660209D02*
X16978716Y-8690209D01*
X17053269Y-8369851D02*
X17083269Y-8399852D01*
X17083269Y-8369851D02*
X17053269Y-8399852D01*
X17121200Y-8588750D02*
X17151200Y-8618750D01*
X17151200Y-8588750D02*
X17121200Y-8618750D01*
X17153269Y-8369851D02*
X17183269Y-8399852D01*
X17183269Y-8369851D02*
X17153269Y-8399852D01*
X17241200Y-8681703D02*
X17271200Y-8711703D01*
X17271200Y-8681703D02*
X17241200Y-8711703D01*
X17271250Y-8368750D02*
X17301250Y-8398750D01*
X17301250Y-8368750D02*
X17271250Y-8398750D01*
X17348197Y-8588750D02*
X17378197Y-8618750D01*
X17378197Y-8588750D02*
X17348197Y-8618750D01*
X17371250Y-8368750D02*
X17401250Y-8398750D01*
X17401250Y-8368750D02*
X17371250Y-8398750D01*
X17391250Y-8048800D02*
X17421250Y-8078800D01*
X17421250Y-8048800D02*
X17391250Y-8078800D01*
X17488147Y-8665647D02*
X17518147Y-8695647D01*
X17518147Y-8665647D02*
X17488147Y-8695647D01*
X17500827Y-8403539D02*
X17530827Y-8433539D01*
X17530827Y-8403539D02*
X17500827Y-8433539D01*
X17511250Y-8808750D02*
X17541250Y-8838750D01*
X17541250Y-8808750D02*
X17511250Y-8838750D01*
X17511250Y-8928750D02*
X17541250Y-8958750D01*
X17541250Y-8928750D02*
X17511250Y-8958750D01*
X17536701Y-8172934D02*
X17566701Y-8202934D01*
X17566701Y-8172934D02*
X17536701Y-8202934D01*
X17571250Y-8868750D02*
X17601250Y-8898750D01*
X17601250Y-8868750D02*
X17571250Y-8898750D01*
X17606284Y-8584860D02*
X17636284Y-8614860D01*
X17636284Y-8584860D02*
X17606284Y-8614860D01*
X17631250Y-8808750D02*
X17661250Y-8838750D01*
X17661250Y-8808750D02*
X17631250Y-8838750D01*
X17631250Y-8928750D02*
X17661250Y-8958750D01*
X17661250Y-8928750D02*
X17631250Y-8958750D01*
X17831250Y-8188750D02*
X17861250Y-8218750D01*
X17861250Y-8188750D02*
X17831250Y-8218750D01*
X17831250Y-8248750D02*
X17861250Y-8278750D01*
X17861250Y-8248750D02*
X17831250Y-8278750D01*
X17831250Y-8308750D02*
X17861250Y-8338750D01*
X17861250Y-8308750D02*
X17831250Y-8338750D01*
X17911250Y-7388750D02*
X17941250Y-7418750D01*
X17941250Y-7388750D02*
X17911250Y-7418750D01*
X17931250Y-8188750D02*
X17961250Y-8218750D01*
X17961250Y-8188750D02*
X17931250Y-8218750D01*
X17931250Y-8248750D02*
X17961250Y-8278750D01*
X17961250Y-8248750D02*
X17931250Y-8278750D01*
X17931250Y-8308750D02*
X17961250Y-8338750D01*
X17961250Y-8308750D02*
X17931250Y-8338750D01*
X17971673Y-8403539D02*
X18001673Y-8433539D01*
X18001673Y-8403539D02*
X17971673Y-8433539D01*
X17991300Y-7769204D02*
X18021300Y-7799204D01*
X18021300Y-7769204D02*
X17991300Y-7799204D01*
X18051250Y-7688750D02*
X18081250Y-7718750D01*
X18081250Y-7688750D02*
X18051250Y-7718750D01*
X18076300Y-8403700D02*
X18106300Y-8433700D01*
X18106300Y-8403700D02*
X18076300Y-8433700D01*
X18091250Y-8728750D02*
X18121250Y-8758750D01*
X18121250Y-8728750D02*
X18091250Y-8758750D01*
X18091250Y-8928750D02*
X18121250Y-8958750D01*
X18121250Y-8928750D02*
X18091250Y-8958750D01*
X18131250Y-8188750D02*
X18161250Y-8218750D01*
X18161250Y-8188750D02*
X18131250Y-8218750D01*
X18131704Y-7728977D02*
X18161704Y-7758977D01*
X18161704Y-7728977D02*
X18131704Y-7758977D01*
X18191250Y-8728750D02*
X18221250Y-8758750D01*
X18221250Y-8728750D02*
X18191250Y-8758750D01*
X18191250Y-8828750D02*
X18221250Y-8858750D01*
X18221250Y-8828750D02*
X18191250Y-8858750D01*
X18191250Y-8928750D02*
X18221250Y-8958750D01*
X18221250Y-8928750D02*
X18191250Y-8958750D01*
X18211250Y-8248750D02*
X18241250Y-8278750D01*
X18241250Y-8248750D02*
X18211250Y-8278750D01*
X18211250Y-8528750D02*
X18241250Y-8558750D01*
X18241250Y-8528750D02*
X18211250Y-8558750D01*
X18291250Y-8248750D02*
X18321250Y-8278750D01*
X18321250Y-8248750D02*
X18291250Y-8278750D01*
X18291250Y-8528750D02*
X18321250Y-8558750D01*
X18321250Y-8528750D02*
X18291250Y-8558750D01*
X18371250Y-8248750D02*
X18401250Y-8278750D01*
X18401250Y-8248750D02*
X18371250Y-8278750D01*
X18371250Y-8528750D02*
X18401250Y-8558750D01*
X18401250Y-8528750D02*
X18371250Y-8558750D01*
X18571250Y-8608750D02*
X18601250Y-8638750D01*
X18601250Y-8608750D02*
X18571250Y-8638750D01*
X19271250Y-9328750D02*
X19301250Y-9358750D01*
X19301250Y-9328750D02*
X19271250Y-9358750D01*
X19271250Y-9408750D02*
X19301250Y-9438750D01*
X19301250Y-9408750D02*
X19271250Y-9438750D01*
X19271250Y-9488750D02*
X19301250Y-9518750D01*
X19301250Y-9488750D02*
X19271250Y-9518750D01*
D13*
X12773250Y-9441250D02*
G75*
G03*
X12773250Y-9441250I-55000J0D01*
G01*
X12773250Y-10457250D02*
G75*
G03*
X12773250Y-10457250I-55000J0D01*
G01*
X12773250Y-10965250D02*
G75*
G03*
X12773250Y-10965250I-55000J0D01*
G01*
X12777250Y-8512750D02*
G75*
G03*
X12777250Y-8512750I-55000J0D01*
G01*
X13281250Y-9695250D02*
G75*
G03*
X13281250Y-9695250I-55000J0D01*
G01*
X13285250Y-7242750D02*
G75*
G03*
X13285250Y-7242750I-55000J0D01*
G01*
X13285250Y-7750750D02*
G75*
G03*
X13285250Y-7750750I-55000J0D01*
G01*
X13285250Y-8766750D02*
G75*
G03*
X13285250Y-8766750I-55000J0D01*
G01*
X13473250Y-9441250D02*
G75*
G03*
X13473250Y-9441250I-55000J0D01*
G01*
X13473250Y-10457250D02*
G75*
G03*
X13473250Y-10457250I-55000J0D01*
G01*
X13473250Y-10965250D02*
G75*
G03*
X13473250Y-10965250I-55000J0D01*
G01*
X13477250Y-8512750D02*
G75*
G03*
X13477250Y-8512750I-55000J0D01*
G01*
X13981250Y-9695250D02*
G75*
G03*
X13981250Y-9695250I-55000J0D01*
G01*
X13985250Y-7242750D02*
G75*
G03*
X13985250Y-7242750I-55000J0D01*
G01*
X13985250Y-7750750D02*
G75*
G03*
X13985250Y-7750750I-55000J0D01*
G01*
X13985250Y-8766750D02*
G75*
G03*
X13985250Y-8766750I-55000J0D01*
G01*
X14173250Y-9441250D02*
G75*
G03*
X14173250Y-9441250I-55000J0D01*
G01*
X14173250Y-10457250D02*
G75*
G03*
X14173250Y-10457250I-55000J0D01*
G01*
X14173250Y-10965250D02*
G75*
G03*
X14173250Y-10965250I-55000J0D01*
G01*
X14177250Y-8512750D02*
G75*
G03*
X14177250Y-8512750I-55000J0D01*
G01*
X14681250Y-9695250D02*
G75*
G03*
X14681250Y-9695250I-55000J0D01*
G01*
X14685250Y-7242750D02*
G75*
G03*
X14685250Y-7242750I-55000J0D01*
G01*
X14685250Y-7750750D02*
G75*
G03*
X14685250Y-7750750I-55000J0D01*
G01*
X14685250Y-8766750D02*
G75*
G03*
X14685250Y-8766750I-55000J0D01*
G01*
X14873250Y-9441250D02*
G75*
G03*
X14873250Y-9441250I-55000J0D01*
G01*
X14873250Y-10457250D02*
G75*
G03*
X14873250Y-10457250I-55000J0D01*
G01*
X14873250Y-10965250D02*
G75*
G03*
X14873250Y-10965250I-55000J0D01*
G01*
X14877250Y-8512750D02*
G75*
G03*
X14877250Y-8512750I-55000J0D01*
G01*
X15381250Y-9695250D02*
G75*
G03*
X15381250Y-9695250I-55000J0D01*
G01*
X15385250Y-7242750D02*
G75*
G03*
X15385250Y-7242750I-55000J0D01*
G01*
X15385250Y-7750750D02*
G75*
G03*
X15385250Y-7750750I-55000J0D01*
G01*
X15385250Y-8766750D02*
G75*
G03*
X15385250Y-8766750I-55000J0D01*
G01*
X15573250Y-9441250D02*
G75*
G03*
X15573250Y-9441250I-55000J0D01*
G01*
X15573250Y-10457250D02*
G75*
G03*
X15573250Y-10457250I-55000J0D01*
G01*
X15573250Y-10965250D02*
G75*
G03*
X15573250Y-10965250I-55000J0D01*
G01*
X15577250Y-8512750D02*
G75*
G03*
X15577250Y-8512750I-55000J0D01*
G01*
X16081250Y-9695250D02*
G75*
G03*
X16081250Y-9695250I-55000J0D01*
G01*
X16085250Y-7242750D02*
G75*
G03*
X16085250Y-7242750I-55000J0D01*
G01*
X16085250Y-7750750D02*
G75*
G03*
X16085250Y-7750750I-55000J0D01*
G01*
X16085250Y-8766750D02*
G75*
G03*
X16085250Y-8766750I-55000J0D01*
G01*
X16273250Y-9441250D02*
G75*
G03*
X16273250Y-9441250I-55000J0D01*
G01*
X16273250Y-10457250D02*
G75*
G03*
X16273250Y-10457250I-55000J0D01*
G01*
X16273250Y-10965250D02*
G75*
G03*
X16273250Y-10965250I-55000J0D01*
G01*
X16781250Y-9695250D02*
G75*
G03*
X16781250Y-9695250I-55000J0D01*
G01*
X16973250Y-9441250D02*
G75*
G03*
X16973250Y-9441250I-55000J0D01*
G01*
X16973250Y-10457250D02*
G75*
G03*
X16973250Y-10457250I-55000J0D01*
G01*
X16973250Y-10965250D02*
G75*
G03*
X16973250Y-10965250I-55000J0D01*
G01*
X17481250Y-9695250D02*
G75*
G03*
X17481250Y-9695250I-55000J0D01*
G01*
X17673250Y-9441250D02*
G75*
G03*
X17673250Y-9441250I-55000J0D01*
G01*
X17673250Y-10457250D02*
G75*
G03*
X17673250Y-10457250I-55000J0D01*
G01*
X17673250Y-10965250D02*
G75*
G03*
X17673250Y-10965250I-55000J0D01*
G01*
X18181250Y-9695250D02*
G75*
G03*
X18181250Y-9695250I-55000J0D01*
G01*
X18373250Y-9441250D02*
G75*
G03*
X18373250Y-9441250I-55000J0D01*
G01*
X18373250Y-10457250D02*
G75*
G03*
X18373250Y-10457250I-55000J0D01*
G01*
X18373250Y-10965250D02*
G75*
G03*
X18373250Y-10965250I-55000J0D01*
G01*
X18881250Y-9695250D02*
G75*
G03*
X18881250Y-9695250I-55000J0D01*
G01*
X19073250Y-9441250D02*
G75*
G03*
X19073250Y-9441250I-55000J0D01*
G01*
X19073250Y-10457250D02*
G75*
G03*
X19073250Y-10457250I-55000J0D01*
G01*
X19073250Y-10965250D02*
G75*
G03*
X19073250Y-10965250I-55000J0D01*
G01*
X19581250Y-9695250D02*
G75*
G03*
X19581250Y-9695250I-55000J0D01*
G01*
D14*
X13202250Y-6111500D02*
X13202250Y-6251500D01*
X13132250Y-6181500D02*
X13272250Y-6181500D01*
X13302250Y-11956000D02*
X13302250Y-12096000D01*
X13232250Y-12026000D02*
X13372250Y-12026000D01*
X13710250Y-6111500D02*
X13710250Y-6251500D01*
X13640250Y-6181500D02*
X13780250Y-6181500D01*
X13810250Y-11956000D02*
X13810250Y-12096000D01*
X13740250Y-12026000D02*
X13880250Y-12026000D01*
X14218250Y-6111500D02*
X14218250Y-6251500D01*
X14148250Y-6181500D02*
X14288250Y-6181500D01*
X14318250Y-11956000D02*
X14318250Y-12096000D01*
X14248250Y-12026000D02*
X14388250Y-12026000D01*
X14726250Y-6111500D02*
X14726250Y-6251500D01*
X14656250Y-6181500D02*
X14796250Y-6181500D01*
X14826250Y-11956000D02*
X14826250Y-12096000D01*
X14756250Y-12026000D02*
X14896250Y-12026000D01*
X15234250Y-6111500D02*
X15234250Y-6251500D01*
X15164250Y-6181500D02*
X15304250Y-6181500D01*
X15334250Y-11956000D02*
X15334250Y-12096000D01*
X15264250Y-12026000D02*
X15404250Y-12026000D01*
X15742250Y-6111500D02*
X15742250Y-6251500D01*
X15672250Y-6181500D02*
X15812250Y-6181500D01*
X15842250Y-11956000D02*
X15842250Y-12096000D01*
X15772250Y-12026000D02*
X15912250Y-12026000D01*
X16250250Y-6111500D02*
X16250250Y-6251500D01*
X16180250Y-6181500D02*
X16320250Y-6181500D01*
X16350250Y-11956000D02*
X16350250Y-12096000D01*
X16280250Y-12026000D02*
X16420250Y-12026000D01*
X17202250Y-11956000D02*
X17202250Y-12096000D01*
X17132250Y-12026000D02*
X17272250Y-12026000D01*
X17710250Y-11956000D02*
X17710250Y-12096000D01*
X17640250Y-12026000D02*
X17780250Y-12026000D01*
X18218250Y-11956000D02*
X18218250Y-12096000D01*
X18148250Y-12026000D02*
X18288250Y-12026000D01*
X18726250Y-11956000D02*
X18726250Y-12096000D01*
X18656250Y-12026000D02*
X18796250Y-12026000D01*
X18764250Y-6111500D02*
X18764250Y-6251500D01*
X18694250Y-6181500D02*
X18834250Y-6181500D01*
X19234250Y-11956000D02*
X19234250Y-12096000D01*
X19164250Y-12026000D02*
X19304250Y-12026000D01*
X19526250Y-6111500D02*
X19526250Y-6251500D01*
X19456250Y-6181500D02*
X19596250Y-6181500D01*
X19742250Y-11956000D02*
X19742250Y-12096000D01*
X19672250Y-12026000D02*
X19812250Y-12026000D01*
X20250250Y-11956000D02*
X20250250Y-12096000D01*
X20180250Y-12026000D02*
X20320250Y-12026000D01*
X20288250Y-6111500D02*
X20288250Y-6251500D01*
X20218250Y-6181500D02*
X20358250Y-6181500D01*
D15*
X19974744Y-7352244D02*
X19974744Y-7055256D01*
X19677756Y-7055256D01*
X19677756Y-7352244D01*
X19974744Y-7352244D01*
D11*
X12803869Y-13694226D02*
X12803869Y-13494226D01*
X12851488Y-13494226D01*
X12880059Y-13503750D01*
X12899107Y-13522798D01*
X12908631Y-13541845D01*
X12918155Y-13579940D01*
X12918155Y-13608512D01*
X12908631Y-13646607D01*
X12899107Y-13665655D01*
X12880059Y-13684702D01*
X12851488Y-13694226D01*
X12803869Y-13694226D01*
X13003869Y-13694226D02*
X13003869Y-13560893D01*
X13003869Y-13598988D02*
X13013393Y-13579940D01*
X13022917Y-13570417D01*
X13041964Y-13560893D01*
X13061012Y-13560893D01*
X13127678Y-13694226D02*
X13127678Y-13560893D01*
X13127678Y-13494226D02*
X13118155Y-13503750D01*
X13127678Y-13513274D01*
X13137202Y-13503750D01*
X13127678Y-13494226D01*
X13127678Y-13513274D01*
X13251488Y-13694226D02*
X13232440Y-13684702D01*
X13222917Y-13665655D01*
X13222917Y-13494226D01*
X13356250Y-13694226D02*
X13337202Y-13684702D01*
X13327678Y-13665655D01*
X13327678Y-13494226D01*
X13584821Y-13694226D02*
X13584821Y-13494226D01*
X13651488Y-13637083D01*
X13718155Y-13494226D01*
X13718155Y-13694226D01*
X13899107Y-13694226D02*
X13899107Y-13589464D01*
X13889583Y-13570417D01*
X13870536Y-13560893D01*
X13832440Y-13560893D01*
X13813393Y-13570417D01*
X13899107Y-13684702D02*
X13880059Y-13694226D01*
X13832440Y-13694226D01*
X13813393Y-13684702D01*
X13803869Y-13665655D01*
X13803869Y-13646607D01*
X13813393Y-13627559D01*
X13832440Y-13618036D01*
X13880059Y-13618036D01*
X13899107Y-13608512D01*
X13994345Y-13560893D02*
X13994345Y-13760893D01*
X13994345Y-13570417D02*
X14013393Y-13560893D01*
X14051488Y-13560893D01*
X14070536Y-13570417D01*
X14080059Y-13579940D01*
X14089583Y-13598988D01*
X14089583Y-13656131D01*
X14080059Y-13675178D01*
X14070536Y-13684702D01*
X14051488Y-13694226D01*
X14013393Y-13694226D01*
X13994345Y-13684702D01*
X14175298Y-13675178D02*
X14184821Y-13684702D01*
X14175298Y-13694226D01*
X14165774Y-13684702D01*
X14175298Y-13675178D01*
X14175298Y-13694226D01*
X14175298Y-13570417D02*
X14184821Y-13579940D01*
X14175298Y-13589464D01*
X14165774Y-13579940D01*
X14175298Y-13570417D01*
X14175298Y-13589464D01*
D12*
X12516250Y-14008750D02*
X12546250Y-14038750D01*
X12546250Y-14008750D02*
X12516250Y-14038750D01*
D11*
X12841964Y-13914226D02*
X12861012Y-13914226D01*
X12880059Y-13923750D01*
X12889583Y-13933274D01*
X12899107Y-13952321D01*
X12908631Y-13990417D01*
X12908631Y-14038036D01*
X12899107Y-14076131D01*
X12889583Y-14095178D01*
X12880059Y-14104702D01*
X12861012Y-14114226D01*
X12841964Y-14114226D01*
X12822917Y-14104702D01*
X12813393Y-14095178D01*
X12803869Y-14076131D01*
X12794345Y-14038036D01*
X12794345Y-13990417D01*
X12803869Y-13952321D01*
X12813393Y-13933274D01*
X12822917Y-13923750D01*
X12841964Y-13914226D01*
X12994345Y-14095178D02*
X13003869Y-14104702D01*
X12994345Y-14114226D01*
X12984821Y-14104702D01*
X12994345Y-14095178D01*
X12994345Y-14114226D01*
X13070536Y-13914226D02*
X13194345Y-13914226D01*
X13127678Y-13990417D01*
X13156250Y-13990417D01*
X13175298Y-13999940D01*
X13184821Y-14009464D01*
X13194345Y-14028512D01*
X13194345Y-14076131D01*
X13184821Y-14095178D01*
X13175298Y-14104702D01*
X13156250Y-14114226D01*
X13099107Y-14114226D01*
X13080059Y-14104702D01*
X13070536Y-14095178D01*
X13318155Y-13914226D02*
X13337202Y-13914226D01*
X13356250Y-13923750D01*
X13365774Y-13933274D01*
X13375298Y-13952321D01*
X13384821Y-13990417D01*
X13384821Y-14038036D01*
X13375298Y-14076131D01*
X13365774Y-14095178D01*
X13356250Y-14104702D01*
X13337202Y-14114226D01*
X13318155Y-14114226D01*
X13299107Y-14104702D01*
X13289583Y-14095178D01*
X13280059Y-14076131D01*
X13270536Y-14038036D01*
X13270536Y-13990417D01*
X13280059Y-13952321D01*
X13289583Y-13933274D01*
X13299107Y-13923750D01*
X13318155Y-13914226D01*
X13508631Y-13914226D02*
X13527678Y-13914226D01*
X13546726Y-13923750D01*
X13556250Y-13933274D01*
X13565774Y-13952321D01*
X13575298Y-13990417D01*
X13575298Y-14038036D01*
X13565774Y-14076131D01*
X13556250Y-14095178D01*
X13546726Y-14104702D01*
X13527678Y-14114226D01*
X13508631Y-14114226D01*
X13489583Y-14104702D01*
X13480059Y-14095178D01*
X13470536Y-14076131D01*
X13461012Y-14038036D01*
X13461012Y-13990417D01*
X13470536Y-13952321D01*
X13480059Y-13933274D01*
X13489583Y-13923750D01*
X13508631Y-13914226D01*
X13661012Y-14114226D02*
X13661012Y-13980893D01*
X13661012Y-13999940D02*
X13670536Y-13990417D01*
X13689583Y-13980893D01*
X13718155Y-13980893D01*
X13737202Y-13990417D01*
X13746726Y-14009464D01*
X13746726Y-14114226D01*
X13746726Y-14009464D02*
X13756250Y-13990417D01*
X13775298Y-13980893D01*
X13803869Y-13980893D01*
X13822917Y-13990417D01*
X13832440Y-14009464D01*
X13832440Y-14114226D01*
X13927678Y-14114226D02*
X13927678Y-13980893D01*
X13927678Y-13999940D02*
X13937202Y-13990417D01*
X13956250Y-13980893D01*
X13984821Y-13980893D01*
X14003869Y-13990417D01*
X14013393Y-14009464D01*
X14013393Y-14114226D01*
X14013393Y-14009464D02*
X14022917Y-13990417D01*
X14041964Y-13980893D01*
X14070536Y-13980893D01*
X14089583Y-13990417D01*
X14099107Y-14009464D01*
X14099107Y-14114226D01*
X14489583Y-13904702D02*
X14318155Y-14161845D01*
X14746726Y-13914226D02*
X14765774Y-13914226D01*
X14784821Y-13923750D01*
X14794345Y-13933274D01*
X14803869Y-13952321D01*
X14813393Y-13990417D01*
X14813393Y-14038036D01*
X14803869Y-14076131D01*
X14794345Y-14095178D01*
X14784821Y-14104702D01*
X14765774Y-14114226D01*
X14746726Y-14114226D01*
X14727678Y-14104702D01*
X14718155Y-14095178D01*
X14708631Y-14076131D01*
X14699107Y-14038036D01*
X14699107Y-13990417D01*
X14708631Y-13952321D01*
X14718155Y-13933274D01*
X14727678Y-13923750D01*
X14746726Y-13914226D01*
X14899107Y-14095178D02*
X14908631Y-14104702D01*
X14899107Y-14114226D01*
X14889583Y-14104702D01*
X14899107Y-14095178D01*
X14899107Y-14114226D01*
X15032440Y-13914226D02*
X15051488Y-13914226D01*
X15070536Y-13923750D01*
X15080059Y-13933274D01*
X15089583Y-13952321D01*
X15099107Y-13990417D01*
X15099107Y-14038036D01*
X15089583Y-14076131D01*
X15080059Y-14095178D01*
X15070536Y-14104702D01*
X15051488Y-14114226D01*
X15032440Y-14114226D01*
X15013393Y-14104702D01*
X15003869Y-14095178D01*
X14994345Y-14076131D01*
X14984821Y-14038036D01*
X14984821Y-13990417D01*
X14994345Y-13952321D01*
X15003869Y-13933274D01*
X15013393Y-13923750D01*
X15032440Y-13914226D01*
X15289583Y-14114226D02*
X15175298Y-14114226D01*
X15232440Y-14114226D02*
X15232440Y-13914226D01*
X15213393Y-13942798D01*
X15194345Y-13961845D01*
X15175298Y-13971369D01*
X15480059Y-14114226D02*
X15365774Y-14114226D01*
X15422917Y-14114226D02*
X15422917Y-13914226D01*
X15403869Y-13942798D01*
X15384821Y-13961845D01*
X15365774Y-13971369D01*
X15594345Y-13999940D02*
X15575298Y-13990417D01*
X15565774Y-13980893D01*
X15556250Y-13961845D01*
X15556250Y-13952321D01*
X15565774Y-13933274D01*
X15575298Y-13923750D01*
X15594345Y-13914226D01*
X15632440Y-13914226D01*
X15651488Y-13923750D01*
X15661012Y-13933274D01*
X15670536Y-13952321D01*
X15670536Y-13961845D01*
X15661012Y-13980893D01*
X15651488Y-13990417D01*
X15632440Y-13999940D01*
X15594345Y-13999940D01*
X15575298Y-14009464D01*
X15565774Y-14018988D01*
X15556250Y-14038036D01*
X15556250Y-14076131D01*
X15565774Y-14095178D01*
X15575298Y-14104702D01*
X15594345Y-14114226D01*
X15632440Y-14114226D01*
X15651488Y-14104702D01*
X15661012Y-14095178D01*
X15670536Y-14076131D01*
X15670536Y-14038036D01*
X15661012Y-14018988D01*
X15651488Y-14009464D01*
X15632440Y-13999940D01*
X15746726Y-13914226D02*
X15746726Y-13952321D01*
X15822917Y-13914226D02*
X15822917Y-13952321D01*
X16118155Y-14190417D02*
X16108631Y-14180893D01*
X16089583Y-14152321D01*
X16080059Y-14133274D01*
X16070536Y-14104702D01*
X16061012Y-14057083D01*
X16061012Y-14018988D01*
X16070536Y-13971369D01*
X16080059Y-13942798D01*
X16089583Y-13923750D01*
X16108631Y-13895178D01*
X16118155Y-13885655D01*
X16289583Y-13914226D02*
X16194345Y-13914226D01*
X16184821Y-14009464D01*
X16194345Y-13999940D01*
X16213393Y-13990417D01*
X16261012Y-13990417D01*
X16280059Y-13999940D01*
X16289583Y-14009464D01*
X16299107Y-14028512D01*
X16299107Y-14076131D01*
X16289583Y-14095178D01*
X16280059Y-14104702D01*
X16261012Y-14114226D01*
X16213393Y-14114226D01*
X16194345Y-14104702D01*
X16184821Y-14095178D01*
X16470536Y-13980893D02*
X16470536Y-14114226D01*
X16422917Y-13904702D02*
X16375298Y-14047559D01*
X16499107Y-14047559D01*
X16727678Y-14114226D02*
X16727678Y-13914226D01*
X16813393Y-14114226D02*
X16813393Y-14009464D01*
X16803869Y-13990417D01*
X16784821Y-13980893D01*
X16756250Y-13980893D01*
X16737202Y-13990417D01*
X16727678Y-13999940D01*
X16937202Y-14114226D02*
X16918155Y-14104702D01*
X16908631Y-14095178D01*
X16899107Y-14076131D01*
X16899107Y-14018988D01*
X16908631Y-13999940D01*
X16918155Y-13990417D01*
X16937202Y-13980893D01*
X16965774Y-13980893D01*
X16984821Y-13990417D01*
X16994345Y-13999940D01*
X17003869Y-14018988D01*
X17003869Y-14076131D01*
X16994345Y-14095178D01*
X16984821Y-14104702D01*
X16965774Y-14114226D01*
X16937202Y-14114226D01*
X17118155Y-14114226D02*
X17099107Y-14104702D01*
X17089583Y-14085655D01*
X17089583Y-13914226D01*
X17270536Y-14104702D02*
X17251488Y-14114226D01*
X17213393Y-14114226D01*
X17194345Y-14104702D01*
X17184821Y-14085655D01*
X17184821Y-14009464D01*
X17194345Y-13990417D01*
X17213393Y-13980893D01*
X17251488Y-13980893D01*
X17270536Y-13990417D01*
X17280060Y-14009464D01*
X17280060Y-14028512D01*
X17184821Y-14047559D01*
X17356250Y-14104702D02*
X17375298Y-14114226D01*
X17413393Y-14114226D01*
X17432440Y-14104702D01*
X17441964Y-14085655D01*
X17441964Y-14076131D01*
X17432440Y-14057083D01*
X17413393Y-14047559D01*
X17384821Y-14047559D01*
X17365774Y-14038036D01*
X17356250Y-14018988D01*
X17356250Y-14009464D01*
X17365774Y-13990417D01*
X17384821Y-13980893D01*
X17413393Y-13980893D01*
X17432440Y-13990417D01*
X17508631Y-14190417D02*
X17518155Y-14180893D01*
X17537202Y-14152321D01*
X17546726Y-14133274D01*
X17556250Y-14104702D01*
X17565774Y-14057083D01*
X17565774Y-14018988D01*
X17556250Y-13971369D01*
X17546726Y-13942798D01*
X17537202Y-13923750D01*
X17518155Y-13895178D01*
X17508631Y-13885655D01*
D13*
X12546250Y-14287750D02*
G75*
G03*
X12546250Y-14287750I-55000J0D01*
G01*
D11*
X12908631Y-14378226D02*
X12794345Y-14378226D01*
X12851488Y-14378226D02*
X12851488Y-14178226D01*
X12832440Y-14206798D01*
X12813393Y-14225845D01*
X12794345Y-14235369D01*
X12994345Y-14359178D02*
X13003869Y-14368702D01*
X12994345Y-14378226D01*
X12984821Y-14368702D01*
X12994345Y-14359178D01*
X12994345Y-14378226D01*
X13194345Y-14378226D02*
X13080059Y-14378226D01*
X13137202Y-14378226D02*
X13137202Y-14178226D01*
X13118155Y-14206798D01*
X13099107Y-14225845D01*
X13080059Y-14235369D01*
X13318155Y-14178226D02*
X13337202Y-14178226D01*
X13356250Y-14187750D01*
X13365774Y-14197274D01*
X13375298Y-14216321D01*
X13384821Y-14254417D01*
X13384821Y-14302036D01*
X13375298Y-14340131D01*
X13365774Y-14359178D01*
X13356250Y-14368702D01*
X13337202Y-14378226D01*
X13318155Y-14378226D01*
X13299107Y-14368702D01*
X13289583Y-14359178D01*
X13280059Y-14340131D01*
X13270536Y-14302036D01*
X13270536Y-14254417D01*
X13280059Y-14216321D01*
X13289583Y-14197274D01*
X13299107Y-14187750D01*
X13318155Y-14178226D01*
X13508631Y-14178226D02*
X13527678Y-14178226D01*
X13546726Y-14187750D01*
X13556250Y-14197274D01*
X13565774Y-14216321D01*
X13575298Y-14254417D01*
X13575298Y-14302036D01*
X13565774Y-14340131D01*
X13556250Y-14359178D01*
X13546726Y-14368702D01*
X13527678Y-14378226D01*
X13508631Y-14378226D01*
X13489583Y-14368702D01*
X13480059Y-14359178D01*
X13470536Y-14340131D01*
X13461012Y-14302036D01*
X13461012Y-14254417D01*
X13470536Y-14216321D01*
X13480059Y-14197274D01*
X13489583Y-14187750D01*
X13508631Y-14178226D01*
X13661012Y-14378226D02*
X13661012Y-14244893D01*
X13661012Y-14263940D02*
X13670536Y-14254417D01*
X13689583Y-14244893D01*
X13718155Y-14244893D01*
X13737202Y-14254417D01*
X13746726Y-14273464D01*
X13746726Y-14378226D01*
X13746726Y-14273464D02*
X13756250Y-14254417D01*
X13775298Y-14244893D01*
X13803869Y-14244893D01*
X13822917Y-14254417D01*
X13832440Y-14273464D01*
X13832440Y-14378226D01*
X13927678Y-14378226D02*
X13927678Y-14244893D01*
X13927678Y-14263940D02*
X13937202Y-14254417D01*
X13956250Y-14244893D01*
X13984821Y-14244893D01*
X14003869Y-14254417D01*
X14013393Y-14273464D01*
X14013393Y-14378226D01*
X14013393Y-14273464D02*
X14022917Y-14254417D01*
X14041964Y-14244893D01*
X14070536Y-14244893D01*
X14089583Y-14254417D01*
X14099107Y-14273464D01*
X14099107Y-14378226D01*
X14489583Y-14168702D02*
X14318155Y-14425845D01*
X14746726Y-14178226D02*
X14765774Y-14178226D01*
X14784821Y-14187750D01*
X14794345Y-14197274D01*
X14803869Y-14216321D01*
X14813393Y-14254417D01*
X14813393Y-14302036D01*
X14803869Y-14340131D01*
X14794345Y-14359178D01*
X14784821Y-14368702D01*
X14765774Y-14378226D01*
X14746726Y-14378226D01*
X14727678Y-14368702D01*
X14718155Y-14359178D01*
X14708631Y-14340131D01*
X14699107Y-14302036D01*
X14699107Y-14254417D01*
X14708631Y-14216321D01*
X14718155Y-14197274D01*
X14727678Y-14187750D01*
X14746726Y-14178226D01*
X14899107Y-14359178D02*
X14908631Y-14368702D01*
X14899107Y-14378226D01*
X14889583Y-14368702D01*
X14899107Y-14359178D01*
X14899107Y-14378226D01*
X15032440Y-14178226D02*
X15051488Y-14178226D01*
X15070536Y-14187750D01*
X15080059Y-14197274D01*
X15089583Y-14216321D01*
X15099107Y-14254417D01*
X15099107Y-14302036D01*
X15089583Y-14340131D01*
X15080059Y-14359178D01*
X15070536Y-14368702D01*
X15051488Y-14378226D01*
X15032440Y-14378226D01*
X15013393Y-14368702D01*
X15003869Y-14359178D01*
X14994345Y-14340131D01*
X14984821Y-14302036D01*
X14984821Y-14254417D01*
X14994345Y-14216321D01*
X15003869Y-14197274D01*
X15013393Y-14187750D01*
X15032440Y-14178226D01*
X15270536Y-14244893D02*
X15270536Y-14378226D01*
X15222917Y-14168702D02*
X15175298Y-14311559D01*
X15299107Y-14311559D01*
X15356250Y-14178226D02*
X15480059Y-14178226D01*
X15413393Y-14254417D01*
X15441964Y-14254417D01*
X15461012Y-14263940D01*
X15470536Y-14273464D01*
X15480059Y-14292512D01*
X15480059Y-14340131D01*
X15470536Y-14359178D01*
X15461012Y-14368702D01*
X15441964Y-14378226D01*
X15384821Y-14378226D01*
X15365774Y-14368702D01*
X15356250Y-14359178D01*
X15546726Y-14178226D02*
X15670536Y-14178226D01*
X15603869Y-14254417D01*
X15632440Y-14254417D01*
X15651488Y-14263940D01*
X15661012Y-14273464D01*
X15670536Y-14292512D01*
X15670536Y-14340131D01*
X15661012Y-14359178D01*
X15651488Y-14368702D01*
X15632440Y-14378226D01*
X15575298Y-14378226D01*
X15556250Y-14368702D01*
X15546726Y-14359178D01*
X15746726Y-14178226D02*
X15746726Y-14216321D01*
X15822917Y-14178226D02*
X15822917Y-14216321D01*
X16118155Y-14454417D02*
X16108631Y-14444893D01*
X16089583Y-14416321D01*
X16080059Y-14397274D01*
X16070536Y-14368702D01*
X16061012Y-14321083D01*
X16061012Y-14282988D01*
X16070536Y-14235369D01*
X16080059Y-14206798D01*
X16089583Y-14187750D01*
X16108631Y-14159178D01*
X16118155Y-14149655D01*
X16280059Y-14178226D02*
X16241964Y-14178226D01*
X16222917Y-14187750D01*
X16213393Y-14197274D01*
X16194345Y-14225845D01*
X16184821Y-14263940D01*
X16184821Y-14340131D01*
X16194345Y-14359178D01*
X16203869Y-14368702D01*
X16222917Y-14378226D01*
X16261012Y-14378226D01*
X16280059Y-14368702D01*
X16289583Y-14359178D01*
X16299107Y-14340131D01*
X16299107Y-14292512D01*
X16289583Y-14273464D01*
X16280059Y-14263940D01*
X16261012Y-14254417D01*
X16222917Y-14254417D01*
X16203869Y-14263940D01*
X16194345Y-14273464D01*
X16184821Y-14292512D01*
X16422917Y-14178226D02*
X16441964Y-14178226D01*
X16461012Y-14187750D01*
X16470536Y-14197274D01*
X16480059Y-14216321D01*
X16489583Y-14254417D01*
X16489583Y-14302036D01*
X16480059Y-14340131D01*
X16470536Y-14359178D01*
X16461012Y-14368702D01*
X16441964Y-14378226D01*
X16422917Y-14378226D01*
X16403869Y-14368702D01*
X16394345Y-14359178D01*
X16384821Y-14340131D01*
X16375298Y-14302036D01*
X16375298Y-14254417D01*
X16384821Y-14216321D01*
X16394345Y-14197274D01*
X16403869Y-14187750D01*
X16422917Y-14178226D01*
X16727678Y-14378226D02*
X16727678Y-14178226D01*
X16813393Y-14378226D02*
X16813393Y-14273464D01*
X16803869Y-14254417D01*
X16784821Y-14244893D01*
X16756250Y-14244893D01*
X16737202Y-14254417D01*
X16727678Y-14263940D01*
X16937202Y-14378226D02*
X16918155Y-14368702D01*
X16908631Y-14359178D01*
X16899107Y-14340131D01*
X16899107Y-14282988D01*
X16908631Y-14263940D01*
X16918155Y-14254417D01*
X16937202Y-14244893D01*
X16965774Y-14244893D01*
X16984821Y-14254417D01*
X16994345Y-14263940D01*
X17003869Y-14282988D01*
X17003869Y-14340131D01*
X16994345Y-14359178D01*
X16984821Y-14368702D01*
X16965774Y-14378226D01*
X16937202Y-14378226D01*
X17118155Y-14378226D02*
X17099107Y-14368702D01*
X17089583Y-14349655D01*
X17089583Y-14178226D01*
X17270536Y-14368702D02*
X17251488Y-14378226D01*
X17213393Y-14378226D01*
X17194345Y-14368702D01*
X17184821Y-14349655D01*
X17184821Y-14273464D01*
X17194345Y-14254417D01*
X17213393Y-14244893D01*
X17251488Y-14244893D01*
X17270536Y-14254417D01*
X17280060Y-14273464D01*
X17280060Y-14292512D01*
X17184821Y-14311559D01*
X17356250Y-14368702D02*
X17375298Y-14378226D01*
X17413393Y-14378226D01*
X17432440Y-14368702D01*
X17441964Y-14349655D01*
X17441964Y-14340131D01*
X17432440Y-14321083D01*
X17413393Y-14311559D01*
X17384821Y-14311559D01*
X17365774Y-14302036D01*
X17356250Y-14282988D01*
X17356250Y-14273464D01*
X17365774Y-14254417D01*
X17384821Y-14244893D01*
X17413393Y-14244893D01*
X17432440Y-14254417D01*
X17508631Y-14454417D02*
X17518155Y-14444893D01*
X17537202Y-14416321D01*
X17546726Y-14397274D01*
X17556250Y-14368702D01*
X17565774Y-14321083D01*
X17565774Y-14282988D01*
X17556250Y-14235369D01*
X17546726Y-14206798D01*
X17537202Y-14187750D01*
X17518155Y-14159178D01*
X17508631Y-14149655D01*
D14*
X12476250Y-14481750D02*
X12476250Y-14621750D01*
X12406250Y-14551750D02*
X12546250Y-14551750D01*
D11*
X12908631Y-14642226D02*
X12794345Y-14642226D01*
X12851488Y-14642226D02*
X12851488Y-14442226D01*
X12832440Y-14470798D01*
X12813393Y-14489845D01*
X12794345Y-14499369D01*
X12994345Y-14623178D02*
X13003869Y-14632702D01*
X12994345Y-14642226D01*
X12984821Y-14632702D01*
X12994345Y-14623178D01*
X12994345Y-14642226D01*
X13175298Y-14508893D02*
X13175298Y-14642226D01*
X13127678Y-14432702D02*
X13080059Y-14575559D01*
X13203869Y-14575559D01*
X13318155Y-14442226D02*
X13337202Y-14442226D01*
X13356250Y-14451750D01*
X13365774Y-14461274D01*
X13375298Y-14480321D01*
X13384821Y-14518417D01*
X13384821Y-14566036D01*
X13375298Y-14604131D01*
X13365774Y-14623178D01*
X13356250Y-14632702D01*
X13337202Y-14642226D01*
X13318155Y-14642226D01*
X13299107Y-14632702D01*
X13289583Y-14623178D01*
X13280059Y-14604131D01*
X13270536Y-14566036D01*
X13270536Y-14518417D01*
X13280059Y-14480321D01*
X13289583Y-14461274D01*
X13299107Y-14451750D01*
X13318155Y-14442226D01*
X13508631Y-14442226D02*
X13527678Y-14442226D01*
X13546726Y-14451750D01*
X13556250Y-14461274D01*
X13565774Y-14480321D01*
X13575298Y-14518417D01*
X13575298Y-14566036D01*
X13565774Y-14604131D01*
X13556250Y-14623178D01*
X13546726Y-14632702D01*
X13527678Y-14642226D01*
X13508631Y-14642226D01*
X13489583Y-14632702D01*
X13480059Y-14623178D01*
X13470536Y-14604131D01*
X13461012Y-14566036D01*
X13461012Y-14518417D01*
X13470536Y-14480321D01*
X13480059Y-14461274D01*
X13489583Y-14451750D01*
X13508631Y-14442226D01*
X13661012Y-14642226D02*
X13661012Y-14508893D01*
X13661012Y-14527940D02*
X13670536Y-14518417D01*
X13689583Y-14508893D01*
X13718155Y-14508893D01*
X13737202Y-14518417D01*
X13746726Y-14537464D01*
X13746726Y-14642226D01*
X13746726Y-14537464D02*
X13756250Y-14518417D01*
X13775298Y-14508893D01*
X13803869Y-14508893D01*
X13822917Y-14518417D01*
X13832440Y-14537464D01*
X13832440Y-14642226D01*
X13927678Y-14642226D02*
X13927678Y-14508893D01*
X13927678Y-14527940D02*
X13937202Y-14518417D01*
X13956250Y-14508893D01*
X13984821Y-14508893D01*
X14003869Y-14518417D01*
X14013393Y-14537464D01*
X14013393Y-14642226D01*
X14013393Y-14537464D02*
X14022917Y-14518417D01*
X14041964Y-14508893D01*
X14070536Y-14508893D01*
X14089583Y-14518417D01*
X14099107Y-14537464D01*
X14099107Y-14642226D01*
X14489583Y-14432702D02*
X14318155Y-14689845D01*
X14746726Y-14442226D02*
X14765774Y-14442226D01*
X14784821Y-14451750D01*
X14794345Y-14461274D01*
X14803869Y-14480321D01*
X14813393Y-14518417D01*
X14813393Y-14566036D01*
X14803869Y-14604131D01*
X14794345Y-14623178D01*
X14784821Y-14632702D01*
X14765774Y-14642226D01*
X14746726Y-14642226D01*
X14727678Y-14632702D01*
X14718155Y-14623178D01*
X14708631Y-14604131D01*
X14699107Y-14566036D01*
X14699107Y-14518417D01*
X14708631Y-14480321D01*
X14718155Y-14461274D01*
X14727678Y-14451750D01*
X14746726Y-14442226D01*
X14899107Y-14623178D02*
X14908631Y-14632702D01*
X14899107Y-14642226D01*
X14889583Y-14632702D01*
X14899107Y-14623178D01*
X14899107Y-14642226D01*
X15032440Y-14442226D02*
X15051488Y-14442226D01*
X15070536Y-14451750D01*
X15080059Y-14461274D01*
X15089583Y-14480321D01*
X15099107Y-14518417D01*
X15099107Y-14566036D01*
X15089583Y-14604131D01*
X15080059Y-14623178D01*
X15070536Y-14632702D01*
X15051488Y-14642226D01*
X15032440Y-14642226D01*
X15013393Y-14632702D01*
X15003869Y-14623178D01*
X14994345Y-14604131D01*
X14984821Y-14566036D01*
X14984821Y-14518417D01*
X14994345Y-14480321D01*
X15003869Y-14461274D01*
X15013393Y-14451750D01*
X15032440Y-14442226D01*
X15280059Y-14442226D02*
X15184821Y-14442226D01*
X15175298Y-14537464D01*
X15184821Y-14527940D01*
X15203869Y-14518417D01*
X15251488Y-14518417D01*
X15270536Y-14527940D01*
X15280059Y-14537464D01*
X15289583Y-14556512D01*
X15289583Y-14604131D01*
X15280059Y-14623178D01*
X15270536Y-14632702D01*
X15251488Y-14642226D01*
X15203869Y-14642226D01*
X15184821Y-14632702D01*
X15175298Y-14623178D01*
X15470536Y-14442226D02*
X15375298Y-14442226D01*
X15365774Y-14537464D01*
X15375298Y-14527940D01*
X15394345Y-14518417D01*
X15441964Y-14518417D01*
X15461012Y-14527940D01*
X15470536Y-14537464D01*
X15480059Y-14556512D01*
X15480059Y-14604131D01*
X15470536Y-14623178D01*
X15461012Y-14632702D01*
X15441964Y-14642226D01*
X15394345Y-14642226D01*
X15375298Y-14632702D01*
X15365774Y-14623178D01*
X15670536Y-14642226D02*
X15556250Y-14642226D01*
X15613393Y-14642226D02*
X15613393Y-14442226D01*
X15594345Y-14470798D01*
X15575298Y-14489845D01*
X15556250Y-14499369D01*
X15746726Y-14442226D02*
X15746726Y-14480321D01*
X15822917Y-14442226D02*
X15822917Y-14480321D01*
X16118155Y-14718417D02*
X16108631Y-14708893D01*
X16089583Y-14680321D01*
X16080059Y-14661274D01*
X16070536Y-14632702D01*
X16061012Y-14585083D01*
X16061012Y-14546988D01*
X16070536Y-14499369D01*
X16080059Y-14470798D01*
X16089583Y-14451750D01*
X16108631Y-14423178D01*
X16118155Y-14413655D01*
X16184821Y-14461274D02*
X16194345Y-14451750D01*
X16213393Y-14442226D01*
X16261012Y-14442226D01*
X16280059Y-14451750D01*
X16289583Y-14461274D01*
X16299107Y-14480321D01*
X16299107Y-14499369D01*
X16289583Y-14527940D01*
X16175298Y-14642226D01*
X16299107Y-14642226D01*
X16470536Y-14508893D02*
X16470536Y-14642226D01*
X16422917Y-14432702D02*
X16375298Y-14575559D01*
X16499107Y-14575559D01*
X16727678Y-14642226D02*
X16727678Y-14442226D01*
X16813393Y-14642226D02*
X16813393Y-14537464D01*
X16803869Y-14518417D01*
X16784821Y-14508893D01*
X16756250Y-14508893D01*
X16737202Y-14518417D01*
X16727678Y-14527940D01*
X16937202Y-14642226D02*
X16918155Y-14632702D01*
X16908631Y-14623178D01*
X16899107Y-14604131D01*
X16899107Y-14546988D01*
X16908631Y-14527940D01*
X16918155Y-14518417D01*
X16937202Y-14508893D01*
X16965774Y-14508893D01*
X16984821Y-14518417D01*
X16994345Y-14527940D01*
X17003869Y-14546988D01*
X17003869Y-14604131D01*
X16994345Y-14623178D01*
X16984821Y-14632702D01*
X16965774Y-14642226D01*
X16937202Y-14642226D01*
X17118155Y-14642226D02*
X17099107Y-14632702D01*
X17089583Y-14613655D01*
X17089583Y-14442226D01*
X17270536Y-14632702D02*
X17251488Y-14642226D01*
X17213393Y-14642226D01*
X17194345Y-14632702D01*
X17184821Y-14613655D01*
X17184821Y-14537464D01*
X17194345Y-14518417D01*
X17213393Y-14508893D01*
X17251488Y-14508893D01*
X17270536Y-14518417D01*
X17280060Y-14537464D01*
X17280060Y-14556512D01*
X17184821Y-14575559D01*
X17356250Y-14632702D02*
X17375298Y-14642226D01*
X17413393Y-14642226D01*
X17432440Y-14632702D01*
X17441964Y-14613655D01*
X17441964Y-14604131D01*
X17432440Y-14585083D01*
X17413393Y-14575559D01*
X17384821Y-14575559D01*
X17365774Y-14566036D01*
X17356250Y-14546988D01*
X17356250Y-14537464D01*
X17365774Y-14518417D01*
X17384821Y-14508893D01*
X17413393Y-14508893D01*
X17432440Y-14518417D01*
X17508631Y-14718417D02*
X17518155Y-14708893D01*
X17537202Y-14680321D01*
X17546726Y-14661274D01*
X17556250Y-14632702D01*
X17565774Y-14585083D01*
X17565774Y-14546988D01*
X17556250Y-14499369D01*
X17546726Y-14470798D01*
X17537202Y-14451750D01*
X17518155Y-14423178D01*
X17508631Y-14413655D01*
X12516961Y-14886461D02*
X12516961Y-14745039D01*
X12375539Y-14745039D01*
X12375539Y-14886461D01*
X12516961Y-14886461D01*
X12889583Y-14772893D02*
X12889583Y-14906226D01*
X12841964Y-14696702D02*
X12794345Y-14839559D01*
X12918155Y-14839559D01*
X12994345Y-14887178D02*
X13003869Y-14896702D01*
X12994345Y-14906226D01*
X12984821Y-14896702D01*
X12994345Y-14887178D01*
X12994345Y-14906226D01*
X13080059Y-14725274D02*
X13089583Y-14715750D01*
X13108631Y-14706226D01*
X13156250Y-14706226D01*
X13175298Y-14715750D01*
X13184821Y-14725274D01*
X13194345Y-14744321D01*
X13194345Y-14763369D01*
X13184821Y-14791940D01*
X13070536Y-14906226D01*
X13194345Y-14906226D01*
X13318155Y-14706226D02*
X13337202Y-14706226D01*
X13356250Y-14715750D01*
X13365774Y-14725274D01*
X13375298Y-14744321D01*
X13384821Y-14782417D01*
X13384821Y-14830036D01*
X13375298Y-14868131D01*
X13365774Y-14887178D01*
X13356250Y-14896702D01*
X13337202Y-14906226D01*
X13318155Y-14906226D01*
X13299107Y-14896702D01*
X13289583Y-14887178D01*
X13280059Y-14868131D01*
X13270536Y-14830036D01*
X13270536Y-14782417D01*
X13280059Y-14744321D01*
X13289583Y-14725274D01*
X13299107Y-14715750D01*
X13318155Y-14706226D01*
X13508631Y-14706226D02*
X13527678Y-14706226D01*
X13546726Y-14715750D01*
X13556250Y-14725274D01*
X13565774Y-14744321D01*
X13575298Y-14782417D01*
X13575298Y-14830036D01*
X13565774Y-14868131D01*
X13556250Y-14887178D01*
X13546726Y-14896702D01*
X13527678Y-14906226D01*
X13508631Y-14906226D01*
X13489583Y-14896702D01*
X13480059Y-14887178D01*
X13470536Y-14868131D01*
X13461012Y-14830036D01*
X13461012Y-14782417D01*
X13470536Y-14744321D01*
X13480059Y-14725274D01*
X13489583Y-14715750D01*
X13508631Y-14706226D01*
X13661012Y-14906226D02*
X13661012Y-14772893D01*
X13661012Y-14791940D02*
X13670536Y-14782417D01*
X13689583Y-14772893D01*
X13718155Y-14772893D01*
X13737202Y-14782417D01*
X13746726Y-14801464D01*
X13746726Y-14906226D01*
X13746726Y-14801464D02*
X13756250Y-14782417D01*
X13775298Y-14772893D01*
X13803869Y-14772893D01*
X13822917Y-14782417D01*
X13832440Y-14801464D01*
X13832440Y-14906226D01*
X13927678Y-14906226D02*
X13927678Y-14772893D01*
X13927678Y-14791940D02*
X13937202Y-14782417D01*
X13956250Y-14772893D01*
X13984821Y-14772893D01*
X14003869Y-14782417D01*
X14013393Y-14801464D01*
X14013393Y-14906226D01*
X14013393Y-14801464D02*
X14022917Y-14782417D01*
X14041964Y-14772893D01*
X14070536Y-14772893D01*
X14089583Y-14782417D01*
X14099107Y-14801464D01*
X14099107Y-14906226D01*
X14489583Y-14696702D02*
X14318155Y-14953845D01*
X14746726Y-14706226D02*
X14765774Y-14706226D01*
X14784821Y-14715750D01*
X14794345Y-14725274D01*
X14803869Y-14744321D01*
X14813393Y-14782417D01*
X14813393Y-14830036D01*
X14803869Y-14868131D01*
X14794345Y-14887178D01*
X14784821Y-14896702D01*
X14765774Y-14906226D01*
X14746726Y-14906226D01*
X14727678Y-14896702D01*
X14718155Y-14887178D01*
X14708631Y-14868131D01*
X14699107Y-14830036D01*
X14699107Y-14782417D01*
X14708631Y-14744321D01*
X14718155Y-14725274D01*
X14727678Y-14715750D01*
X14746726Y-14706226D01*
X14899107Y-14887178D02*
X14908631Y-14896702D01*
X14899107Y-14906226D01*
X14889583Y-14896702D01*
X14899107Y-14887178D01*
X14899107Y-14906226D01*
X15099107Y-14906226D02*
X14984821Y-14906226D01*
X15041964Y-14906226D02*
X15041964Y-14706226D01*
X15022917Y-14734798D01*
X15003869Y-14753845D01*
X14984821Y-14763369D01*
X15270536Y-14706226D02*
X15232440Y-14706226D01*
X15213393Y-14715750D01*
X15203869Y-14725274D01*
X15184821Y-14753845D01*
X15175298Y-14791940D01*
X15175298Y-14868131D01*
X15184821Y-14887178D01*
X15194345Y-14896702D01*
X15213393Y-14906226D01*
X15251488Y-14906226D01*
X15270536Y-14896702D01*
X15280059Y-14887178D01*
X15289583Y-14868131D01*
X15289583Y-14820512D01*
X15280059Y-14801464D01*
X15270536Y-14791940D01*
X15251488Y-14782417D01*
X15213393Y-14782417D01*
X15194345Y-14791940D01*
X15184821Y-14801464D01*
X15175298Y-14820512D01*
X15470536Y-14706226D02*
X15375298Y-14706226D01*
X15365774Y-14801464D01*
X15375298Y-14791940D01*
X15394345Y-14782417D01*
X15441964Y-14782417D01*
X15461012Y-14791940D01*
X15470536Y-14801464D01*
X15480059Y-14820512D01*
X15480059Y-14868131D01*
X15470536Y-14887178D01*
X15461012Y-14896702D01*
X15441964Y-14906226D01*
X15394345Y-14906226D01*
X15375298Y-14896702D01*
X15365774Y-14887178D01*
X15651488Y-14772893D02*
X15651488Y-14906226D01*
X15603869Y-14696702D02*
X15556250Y-14839559D01*
X15680059Y-14839559D01*
X15746726Y-14706226D02*
X15746726Y-14744321D01*
X15822917Y-14706226D02*
X15822917Y-14744321D01*
X16118155Y-14982417D02*
X16108631Y-14972893D01*
X16089583Y-14944321D01*
X16080059Y-14925274D01*
X16070536Y-14896702D01*
X16061012Y-14849083D01*
X16061012Y-14810988D01*
X16070536Y-14763369D01*
X16080059Y-14734798D01*
X16089583Y-14715750D01*
X16108631Y-14687178D01*
X16118155Y-14677655D01*
X16299107Y-14906226D02*
X16184821Y-14906226D01*
X16241964Y-14906226D02*
X16241964Y-14706226D01*
X16222917Y-14734798D01*
X16203869Y-14753845D01*
X16184821Y-14763369D01*
X16537202Y-14906226D02*
X16537202Y-14706226D01*
X16622917Y-14906226D02*
X16622917Y-14801464D01*
X16613393Y-14782417D01*
X16594345Y-14772893D01*
X16565774Y-14772893D01*
X16546726Y-14782417D01*
X16537202Y-14791940D01*
X16746726Y-14906226D02*
X16727678Y-14896702D01*
X16718155Y-14887178D01*
X16708631Y-14868131D01*
X16708631Y-14810988D01*
X16718155Y-14791940D01*
X16727678Y-14782417D01*
X16746726Y-14772893D01*
X16775298Y-14772893D01*
X16794345Y-14782417D01*
X16803869Y-14791940D01*
X16813393Y-14810988D01*
X16813393Y-14868131D01*
X16803869Y-14887178D01*
X16794345Y-14896702D01*
X16775298Y-14906226D01*
X16746726Y-14906226D01*
X16927679Y-14906226D02*
X16908631Y-14896702D01*
X16899107Y-14877655D01*
X16899107Y-14706226D01*
X17080060Y-14896702D02*
X17061012Y-14906226D01*
X17022917Y-14906226D01*
X17003869Y-14896702D01*
X16994345Y-14877655D01*
X16994345Y-14801464D01*
X17003869Y-14782417D01*
X17022917Y-14772893D01*
X17061012Y-14772893D01*
X17080060Y-14782417D01*
X17089583Y-14801464D01*
X17089583Y-14820512D01*
X16994345Y-14839559D01*
X17156250Y-14982417D02*
X17165774Y-14972893D01*
X17184821Y-14944321D01*
X17194345Y-14925274D01*
X17203869Y-14896702D01*
X17213393Y-14849083D01*
X17213393Y-14810988D01*
X17203869Y-14763369D01*
X17194345Y-14734798D01*
X17184821Y-14715750D01*
X17165774Y-14687178D01*
X17156250Y-14677655D01*
M02*
