M48
; FORMAT={-:-/ absolute / metric / decimal}
; #@! TF.GenerationSoftware,Kicad,Pcbnew,6.0.10+dfsg-1~bpo11+1
; #@! TF.FileFunction,Plated,1,2,PTH
FMAT,2
METRIC
; #@! TA.AperFunction,Plated,PTH,ViaDrill
T1C0.300
; #@! TA.AperFunction,Plated,PTH,ComponentDrill
T2C1.100
; #@! TA.AperFunction,Plated,PTH,ComponentDrill
T3C1.400
; #@! TA.AperFunction,Plated,PTH,ComponentDrill
T4C4.200
%
G90
G05
T1
X128.862Y-83.037
X129.662Y-83.037
X130.463Y-83.037
X163.662Y-84.037
X164.262Y-84.037
X164.862Y-84.037
X168.862Y-85.837
X169.662Y-83.837
X169.937Y-86.752
X170.683Y-83.849
X171.362Y-86.037
X171.683Y-83.849
X172.562Y-86.967
X172.862Y-83.837
X173.632Y-86.037
X173.862Y-83.837
X174.062Y-80.638
X175.031Y-86.806
X175.158Y-84.185
X175.262Y-88.237
X175.262Y-89.438
X175.517Y-81.879
X175.862Y-88.837
X176.213Y-85.999
X176.463Y-88.237
X176.463Y-89.438
X178.463Y-82.037
X178.463Y-82.638
X178.463Y-83.237
X179.262Y-74.037
X179.463Y-82.037
X179.463Y-82.638
X179.463Y-83.237
X179.867Y-84.185
X180.063Y-77.842
X180.662Y-77.037
X180.913Y-84.187
X181.062Y-87.438
X181.062Y-89.438
X181.463Y-82.037
X181.467Y-77.44
X182.062Y-87.438
X182.062Y-88.438
X182.062Y-89.438
X182.262Y-82.638
X182.262Y-85.438
X183.062Y-82.638
X183.062Y-85.438
X183.862Y-82.638
X183.862Y-85.438
X185.862Y-86.237
X192.862Y-93.438
X192.862Y-94.237
X192.862Y-95.037
T2
X127.182Y-94.412
X127.182Y-104.572
X127.182Y-109.652
X127.222Y-85.127
X132.262Y-96.953
X132.302Y-72.427
X132.302Y-77.507
X132.302Y-87.667
X134.183Y-94.412
X134.183Y-104.572
X134.183Y-109.652
X134.222Y-85.127
X139.262Y-96.953
X139.302Y-72.427
X139.302Y-77.507
X139.302Y-87.667
X141.183Y-94.412
X141.183Y-104.572
X141.183Y-109.652
X141.222Y-85.127
X146.262Y-96.953
X146.302Y-72.427
X146.302Y-77.507
X146.302Y-87.667
X148.183Y-94.412
X148.183Y-104.572
X148.183Y-109.652
X148.222Y-85.127
X153.262Y-96.953
X153.302Y-72.427
X153.302Y-77.507
X153.302Y-87.667
X155.183Y-94.412
X155.183Y-104.572
X155.183Y-109.652
X155.222Y-85.127
X160.262Y-96.953
X160.302Y-72.427
X160.302Y-77.507
X160.302Y-87.667
X162.183Y-94.412
X162.183Y-104.572
X162.183Y-109.652
X167.262Y-96.953
X169.183Y-94.412
X169.183Y-104.572
X169.183Y-109.652
X174.262Y-96.953
X176.183Y-94.412
X176.183Y-104.572
X176.183Y-109.652
X181.262Y-96.953
X183.183Y-94.412
X183.183Y-104.572
X183.183Y-109.652
X188.262Y-96.953
X190.183Y-94.412
X190.183Y-104.572
X190.183Y-109.652
X195.262Y-96.953
T3
X132.023Y-61.815
X133.023Y-120.26
X137.102Y-61.815
X138.102Y-120.26
X142.183Y-61.815
X143.183Y-120.26
X147.262Y-61.815
X148.262Y-120.26
X152.343Y-61.815
X153.343Y-120.26
X157.422Y-61.815
X158.422Y-120.26
X162.502Y-61.815
X163.502Y-120.26
X172.022Y-120.26
X177.102Y-120.26
X182.183Y-120.26
X187.262Y-120.26
X187.642Y-61.815
X192.343Y-120.26
X195.262Y-61.815
X197.422Y-120.26
X202.502Y-120.26
X202.882Y-61.815
T4
X198.262Y-72.037
T0
M30
