G04 #@! TF.GenerationSoftware,KiCad,Pcbnew,6.0.10+dfsg-1~bpo11+1*
G04 #@! TF.ProjectId,project,70726f6a-6563-4742-9e6b-696361645f70,rev?*
G04 #@! TF.SameCoordinates,Original*
G04 #@! TF.FileFunction,Paste,Top*
G04 #@! TF.FilePolarity,Positive*
%FSLAX46Y46*%
G04 Gerber Fmt 4.6, Leading zero omitted, Abs format (unit mm)*
%MOMM*%
%LPD*%
G01*
G04 APERTURE LIST*
G04 #@! TA.AperFunction,Profile*
%ADD10C,0.100000*%
G04 #@! TD*
G04 APERTURE END LIST*
D10*
X211012500Y-48287500D02*
X211012500Y-133787500D01*
X211012500Y-133787500D02*
X125512500Y-133787500D01*
X125512500Y-48287500D02*
X211012500Y-48287500D01*
X125512500Y-133787500D02*
X125512500Y-48287500D01*
G36*
G01*
X175712500Y-84537500D02*
X175712500Y-85687500D01*
G75*
G02*
X175612500Y-85787500I-100000J0D01*
G01*
X175412500Y-85787500D01*
G75*
G02*
X175312500Y-85687500I0J100000D01*
G01*
X175312500Y-84537500D01*
G75*
G02*
X175412500Y-84437500I100000J0D01*
G01*
X175612500Y-84437500D01*
G75*
G02*
X175712500Y-84537500I0J-100000D01*
G01*
G37*
G36*
G01*
X176212500Y-82387500D02*
X176212500Y-83537500D01*
G75*
G02*
X176112500Y-83637500I-100000J0D01*
G01*
X175912500Y-83637500D01*
G75*
G02*
X175812500Y-83537500I0J100000D01*
G01*
X175812500Y-82387500D01*
G75*
G02*
X175912500Y-82287500I100000J0D01*
G01*
X176112500Y-82287500D01*
G75*
G02*
X176212500Y-82387500I0J-100000D01*
G01*
G37*
G36*
G01*
X176712500Y-84537500D02*
X176712500Y-85687500D01*
G75*
G02*
X176612500Y-85787500I-100000J0D01*
G01*
X176412500Y-85787500D01*
G75*
G02*
X176312500Y-85687500I0J100000D01*
G01*
X176312500Y-84537500D01*
G75*
G02*
X176412500Y-84437500I100000J0D01*
G01*
X176612500Y-84437500D01*
G75*
G02*
X176712500Y-84537500I0J-100000D01*
G01*
G37*
G36*
G01*
X177212500Y-82387500D02*
X177212500Y-83537500D01*
G75*
G02*
X177112500Y-83637500I-100000J0D01*
G01*
X176912500Y-83637500D01*
G75*
G02*
X176812500Y-83537500I0J100000D01*
G01*
X176812500Y-82387500D01*
G75*
G02*
X176912500Y-82287500I100000J0D01*
G01*
X177112500Y-82287500D01*
G75*
G02*
X177212500Y-82387500I0J-100000D01*
G01*
G37*
G36*
G01*
X177712500Y-84537500D02*
X177712500Y-85687500D01*
G75*
G02*
X177612500Y-85787500I-100000J0D01*
G01*
X177412500Y-85787500D01*
G75*
G02*
X177312500Y-85687500I0J100000D01*
G01*
X177312500Y-84537500D01*
G75*
G02*
X177412500Y-84437500I100000J0D01*
G01*
X177612500Y-84437500D01*
G75*
G02*
X177712500Y-84537500I0J-100000D01*
G01*
G37*
G36*
G01*
X178212500Y-82387500D02*
X178212500Y-83537500D01*
G75*
G02*
X178112500Y-83637500I-100000J0D01*
G01*
X177912500Y-83637500D01*
G75*
G02*
X177812500Y-83537500I0J100000D01*
G01*
X177812500Y-82387500D01*
G75*
G02*
X177912500Y-82287500I100000J0D01*
G01*
X178112500Y-82287500D01*
G75*
G02*
X178212500Y-82387500I0J-100000D01*
G01*
G37*
G36*
G01*
X178712500Y-84537500D02*
X178712500Y-85687500D01*
G75*
G02*
X178612500Y-85787500I-100000J0D01*
G01*
X178412500Y-85787500D01*
G75*
G02*
X178312500Y-85687500I0J100000D01*
G01*
X178312500Y-84537500D01*
G75*
G02*
X178412500Y-84437500I100000J0D01*
G01*
X178612500Y-84437500D01*
G75*
G02*
X178712500Y-84537500I0J-100000D01*
G01*
G37*
G36*
G01*
X179212500Y-82387500D02*
X179212500Y-83537500D01*
G75*
G02*
X179112500Y-83637500I-100000J0D01*
G01*
X178912500Y-83637500D01*
G75*
G02*
X178812500Y-83537500I0J100000D01*
G01*
X178812500Y-82387500D01*
G75*
G02*
X178912500Y-82287500I100000J0D01*
G01*
X179112500Y-82287500D01*
G75*
G02*
X179212500Y-82387500I0J-100000D01*
G01*
G37*
G36*
G01*
X179712500Y-84537500D02*
X179712500Y-85687500D01*
G75*
G02*
X179612500Y-85787500I-100000J0D01*
G01*
X179412500Y-85787500D01*
G75*
G02*
X179312500Y-85687500I0J100000D01*
G01*
X179312500Y-84537500D01*
G75*
G02*
X179412500Y-84437500I100000J0D01*
G01*
X179612500Y-84437500D01*
G75*
G02*
X179712500Y-84537500I0J-100000D01*
G01*
G37*
G36*
G01*
X180212500Y-82387500D02*
X180212500Y-83537500D01*
G75*
G02*
X180112500Y-83637500I-100000J0D01*
G01*
X179912500Y-83637500D01*
G75*
G02*
X179812500Y-83537500I0J100000D01*
G01*
X179812500Y-82387500D01*
G75*
G02*
X179912500Y-82287500I100000J0D01*
G01*
X180112500Y-82287500D01*
G75*
G02*
X180212500Y-82387500I0J-100000D01*
G01*
G37*
G36*
G01*
X180712500Y-84537500D02*
X180712500Y-85687500D01*
G75*
G02*
X180612500Y-85787500I-100000J0D01*
G01*
X180412500Y-85787500D01*
G75*
G02*
X180312500Y-85687500I0J100000D01*
G01*
X180312500Y-84537500D01*
G75*
G02*
X180412500Y-84437500I100000J0D01*
G01*
X180612500Y-84437500D01*
G75*
G02*
X180712500Y-84537500I0J-100000D01*
G01*
G37*
G36*
G01*
X181212500Y-82387500D02*
X181212500Y-83537500D01*
G75*
G02*
X181112500Y-83637500I-100000J0D01*
G01*
X180912500Y-83637500D01*
G75*
G02*
X180812500Y-83537500I0J100000D01*
G01*
X180812500Y-82387500D01*
G75*
G02*
X180912500Y-82287500I100000J0D01*
G01*
X181112500Y-82287500D01*
G75*
G02*
X181212500Y-82387500I0J-100000D01*
G01*
G37*
G36*
G01*
X181712500Y-84537500D02*
X181712500Y-85687500D01*
G75*
G02*
X181612500Y-85787500I-100000J0D01*
G01*
X181412500Y-85787500D01*
G75*
G02*
X181312500Y-85687500I0J100000D01*
G01*
X181312500Y-84537500D01*
G75*
G02*
X181412500Y-84437500I100000J0D01*
G01*
X181612500Y-84437500D01*
G75*
G02*
X181712500Y-84537500I0J-100000D01*
G01*
G37*
G36*
G01*
X182212500Y-82387500D02*
X182212500Y-83537500D01*
G75*
G02*
X182112500Y-83637500I-100000J0D01*
G01*
X181912500Y-83637500D01*
G75*
G02*
X181812500Y-83537500I0J100000D01*
G01*
X181812500Y-82387500D01*
G75*
G02*
X181912500Y-82287500I100000J0D01*
G01*
X182112500Y-82287500D01*
G75*
G02*
X182212500Y-82387500I0J-100000D01*
G01*
G37*
G36*
G01*
X182712500Y-84537500D02*
X182712500Y-85687500D01*
G75*
G02*
X182612500Y-85787500I-100000J0D01*
G01*
X182412500Y-85787500D01*
G75*
G02*
X182312500Y-85687500I0J100000D01*
G01*
X182312500Y-84537500D01*
G75*
G02*
X182412500Y-84437500I100000J0D01*
G01*
X182612500Y-84437500D01*
G75*
G02*
X182712500Y-84537500I0J-100000D01*
G01*
G37*
G36*
G01*
X183212500Y-82387500D02*
X183212500Y-83537500D01*
G75*
G02*
X183112500Y-83637500I-100000J0D01*
G01*
X182912500Y-83637500D01*
G75*
G02*
X182812500Y-83537500I0J100000D01*
G01*
X182812500Y-82387500D01*
G75*
G02*
X182912500Y-82287500I100000J0D01*
G01*
X183112500Y-82287500D01*
G75*
G02*
X183212500Y-82387500I0J-100000D01*
G01*
G37*
G36*
G01*
X183712500Y-84537500D02*
X183712500Y-85687500D01*
G75*
G02*
X183612500Y-85787500I-100000J0D01*
G01*
X183412500Y-85787500D01*
G75*
G02*
X183312500Y-85687500I0J100000D01*
G01*
X183312500Y-84537500D01*
G75*
G02*
X183412500Y-84437500I100000J0D01*
G01*
X183612500Y-84437500D01*
G75*
G02*
X183712500Y-84537500I0J-100000D01*
G01*
G37*
G36*
G01*
X184212500Y-82387500D02*
X184212500Y-83537500D01*
G75*
G02*
X184112500Y-83637500I-100000J0D01*
G01*
X183912500Y-83637500D01*
G75*
G02*
X183812500Y-83537500I0J100000D01*
G01*
X183812500Y-82387500D01*
G75*
G02*
X183912500Y-82287500I100000J0D01*
G01*
X184112500Y-82287500D01*
G75*
G02*
X184212500Y-82387500I0J-100000D01*
G01*
G37*
G36*
G01*
X184712500Y-84537500D02*
X184712500Y-85687500D01*
G75*
G02*
X184612500Y-85787500I-100000J0D01*
G01*
X184412500Y-85787500D01*
G75*
G02*
X184312500Y-85687500I0J100000D01*
G01*
X184312500Y-84537500D01*
G75*
G02*
X184412500Y-84437500I100000J0D01*
G01*
X184612500Y-84437500D01*
G75*
G02*
X184712500Y-84537500I0J-100000D01*
G01*
G37*
G36*
G01*
X185212500Y-82387500D02*
X185212500Y-83537500D01*
G75*
G02*
X185112500Y-83637500I-100000J0D01*
G01*
X184912500Y-83637500D01*
G75*
G02*
X184812500Y-83537500I0J100000D01*
G01*
X184812500Y-82387500D01*
G75*
G02*
X184912500Y-82287500I100000J0D01*
G01*
X185112500Y-82287500D01*
G75*
G02*
X185212500Y-82387500I0J-100000D01*
G01*
G37*
G36*
G01*
X185712500Y-84537500D02*
X185712500Y-85687500D01*
G75*
G02*
X185612500Y-85787500I-100000J0D01*
G01*
X185412500Y-85787500D01*
G75*
G02*
X185312500Y-85687500I0J100000D01*
G01*
X185312500Y-84537500D01*
G75*
G02*
X185412500Y-84437500I100000J0D01*
G01*
X185612500Y-84437500D01*
G75*
G02*
X185712500Y-84537500I0J-100000D01*
G01*
G37*
G36*
G01*
X186212500Y-82387500D02*
X186212500Y-83537500D01*
G75*
G02*
X186112500Y-83637500I-100000J0D01*
G01*
X185912500Y-83637500D01*
G75*
G02*
X185812500Y-83537500I0J100000D01*
G01*
X185812500Y-82387500D01*
G75*
G02*
X185912500Y-82287500I100000J0D01*
G01*
X186112500Y-82287500D01*
G75*
G02*
X186212500Y-82387500I0J-100000D01*
G01*
G37*
G36*
G01*
X186712500Y-84537500D02*
X186712500Y-85687500D01*
G75*
G02*
X186612500Y-85787500I-100000J0D01*
G01*
X186412500Y-85787500D01*
G75*
G02*
X186312500Y-85687500I0J100000D01*
G01*
X186312500Y-84537500D01*
G75*
G02*
X186412500Y-84437500I100000J0D01*
G01*
X186612500Y-84437500D01*
G75*
G02*
X186712500Y-84537500I0J-100000D01*
G01*
G37*
G36*
G01*
X187212500Y-82387500D02*
X187212500Y-83537500D01*
G75*
G02*
X187112500Y-83637500I-100000J0D01*
G01*
X186912500Y-83637500D01*
G75*
G02*
X186812500Y-83537500I0J100000D01*
G01*
X186812500Y-82387500D01*
G75*
G02*
X186912500Y-82287500I100000J0D01*
G01*
X187112500Y-82287500D01*
G75*
G02*
X187212500Y-82387500I0J-100000D01*
G01*
G37*
G36*
G01*
X189862500Y-83077500D02*
X189862500Y-84997500D01*
G75*
G02*
X189622500Y-85237500I-240000J0D01*
G01*
X187702500Y-85237500D01*
G75*
G02*
X187462500Y-84997500I0J240000D01*
G01*
X187462500Y-83077500D01*
G75*
G02*
X187702500Y-82837500I240000J0D01*
G01*
X189622500Y-82837500D01*
G75*
G02*
X189862500Y-83077500I0J-240000D01*
G01*
G37*
G36*
G01*
X175062500Y-83077500D02*
X175062500Y-84997500D01*
G75*
G02*
X174822500Y-85237500I-240000J0D01*
G01*
X172902500Y-85237500D01*
G75*
G02*
X172662500Y-84997500I0J240000D01*
G01*
X172662500Y-83077500D01*
G75*
G02*
X172902500Y-82837500I240000J0D01*
G01*
X174822500Y-82837500D01*
G75*
G02*
X175062500Y-83077500I0J-240000D01*
G01*
G37*
M02*
